<?xml version="1.0" encoding="UTF-8" standalone="no"?>
<!DOCTYPE svg PUBLIC "-//W3C//DTD SVG 1.1//EN" "http://www.w3.org/Graphics/SVG/1.1/DTD/svg11.dtd">
<svg width="100%" height="100%" viewBox="0 0 512 512" version="1.1" xmlns="http://www.w3.org/2000/svg" xmlns:xlink="http://www.w3.org/1999/xlink" xml:space="preserve" xmlns:serif="http://www.serif.com/" style="fill-rule:evenodd;clip-rule:evenodd;stroke-linejoin:round;stroke-miterlimit:2;">
    <g>
        <g>
            <g>
                <path d="M461.247,357.894C458.987,381.418 435.567,405.324 412.318,408.636C308.939,423.36 296.194,410.772 244.032,394.61C189.598,377.745 160.51,389.816 100.472,397.677C75.39,400.961 56.369,379.807 59.699,355.921C64.445,321.88 73.245,285.12 71.958,247.429C70.917,216.956 63.537,194.612 58.828,156.107C55.755,130.971 77.243,111.818 100.444,108.861C182.392,98.415 187.662,88.078 259.985,110.838C325.827,131.557 327.444,129.432 411.553,116.384C436.871,112.457 456.376,133.113 459.378,156.216C470.836,244.4 471.98,246.152 461.247,357.894Z" style="fill:rgb(20,20,20);fill-rule:nonzero;"/>
                <path d="M411.553,116.384C436.871,112.457 456.376,133.113 459.378,156.216C470.836,244.4 471.98,246.152 461.247,357.894C458.987,381.418 435.567,405.324 412.318,408.636C405.199,409.65 352.729,417.123 322.66,415.143C322.66,318.719 322.66,222.295 322.66,125.871C349.371,127.584 395.253,118.913 411.553,116.384Z" style="fill:rgb(0,122,54);fill-rule:nonzero;"/>
                <path d="M189.333,97.638C238.99,96.075 278.553,123.038 322.66,125.871C322.66,222.295 322.66,318.719 322.66,415.143C278.546,412.234 239.006,384.551 189.323,386.155C189.199,363.074 189.333,363.22 189.333,97.638Z" style="fill:rgb(211,32,17);fill-rule:nonzero;"/>
                <path d="M300.972,331.705C300.556,332.652 299.301,332.963 298.45,332.425C297.572,331.87 297.087,330.493 297.516,329.524C297.963,328.516 299.268,325.892 300.883,326.874C302.473,327.841 301.502,330.498 300.972,331.705ZM301.65,332.688C300.679,332.635 299.662,333.405 299.827,334.457C299.997,335.527 301.19,336.439 302.238,336.494C303.136,336.54 306.598,336.676 306.327,334.793C306.002,332.973 302.945,332.774 301.65,332.688ZM305.56,329.045C305.18,329.909 304.035,330.269 303.227,329.783C302.399,329.284 301.97,328.003 302.361,327.109C302.769,326.176 303.969,323.698 305.483,324.563C306.982,325.419 306.022,327.957 305.56,329.045ZM306.183,329.943C305.281,329.919 304.339,330.659 304.494,331.633C304.651,332.619 305.761,333.435 306.727,333.458C307.581,333.478 310.777,333.506 310.516,331.767C310.262,330.076 307.323,329.989 306.183,329.943ZM285.839,330.902C285.602,332.106 284.284,332.782 283.173,332.247C282.01,331.685 281.191,330.058 281.429,328.786C281.548,328.179 283.898,324.562 284.584,324.89C284.798,324.992 285.955,330.281 285.839,330.902ZM286.828,332.011C285.601,332.113 284.805,333.381 285.195,334.536C285.607,335.756 287.102,336.768 288.395,336.658C289.035,336.601 292.862,334.595 292.606,333.845C292.539,333.654 287.342,331.968 286.828,332.011ZM289.772,327.476C289.587,328.476 288.491,329.061 287.561,328.633C286.587,328.183 285.908,326.824 286.117,325.772C286.291,324.838 286.98,321.668 288.739,322.488C290.427,323.275 290.043,326.114 289.772,327.476ZM290.595,328.392C289.58,328.49 288.916,329.546 289.239,330.506C289.579,331.514 290.829,332.342 291.895,332.233C292.876,332.132 296.035,331.672 295.394,329.844C294.811,328.076 291.94,328.261 290.595,328.392ZM293.55,324.048C293.378,324.976 292.365,325.536 291.495,325.147C290.592,324.743 289.972,323.469 290.15,322.514C290.316,321.625 290.944,318.731 292.583,319.428C294.15,320.156 293.785,322.784 293.55,324.048ZM294.317,324.88C293.379,324.989 292.756,325.971 293.061,326.865C293.379,327.797 294.544,328.542 295.528,328.422C296.475,328.307 299.305,327.847 298.783,326.159C298.271,324.504 295.528,324.74 294.317,324.88ZM296.816,321.042C296.659,321.862 295.748,322.412 294.961,322.068C294.154,321.713 293.587,320.561 293.75,319.712C293.895,318.956 294.475,316.206 295.95,316.894C297.411,317.458 296.988,320.148 296.816,321.042ZM297.505,321.788C296.663,321.894 296.09,322.793 296.372,323.599C296.655,324.434 297.739,325.087 298.605,324.973C299.448,324.862 302.062,324.401 301.55,322.877C301.05,321.395 298.606,321.649 297.505,321.788ZM296.428,341.024C295.36,341.743 293.736,341.219 293.017,340.253C292.315,339.311 292.318,337.663 293.383,336.96C294.11,336.481 298.665,336.133 298.816,336.334C299.012,336.592 297.136,340.547 296.428,341.024ZM296.716,342.351C295.808,341.864 294.02,341.702 293.617,342.977C293.203,344.251 294.423,345.755 295.45,346.325C296.173,346.717 301.138,347.243 301.194,347.054C301.249,346.897 297.275,342.656 296.716,342.351ZM302.305,341.131C301.443,341.753 300.083,341.387 299.472,340.586C298.868,339.795 298.916,338.436 299.783,337.836C300.835,337.092 303.155,335.728 304.305,337.172C305.439,338.662 303.292,340.419 302.305,341.131ZM302.55,342.228C301.765,341.823 300.303,341.777 299.972,342.835C299.642,343.889 300.619,345.12 301.494,345.565C302.153,345.909 305.695,347.791 306.272,346.027C306.819,344.285 303.531,342.725 302.55,342.228ZM307.994,340.969C307.207,341.547 305.948,341.293 305.36,340.55C304.789,339.817 304.865,338.56 305.649,337.996C306.573,337.33 308.78,335.873 309.838,337.233C310.974,338.559 308.841,340.331 307.994,340.969ZM308.227,341.977C307.472,341.617 306.14,341.653 305.827,342.619C305.528,343.583 306.469,344.734 307.238,345.109C307.88,345.419 311.184,347.037 311.671,345.372C312.146,343.751 309.155,342.423 308.227,341.977ZM312.905,340.668C312.212,341.208 311.059,341.039 310.527,340.38C309.994,339.721 310.099,338.577 310.782,338.055C311.572,337.451 313.605,336.01 314.571,337.233C315.575,338.433 313.663,340.077 312.905,340.668ZM313.116,341.577C312.433,341.271 311.214,341.376 310.949,342.237C310.68,343.099 311.527,344.128 312.227,344.446C312.544,344.59 315.755,346.073 316.238,344.544C316.654,343.069 313.967,341.958 313.116,341.577ZM316.927,311.28C317.068,312.415 316.312,313.885 315.016,313.869C313.709,313.855 312.63,312.422 312.482,311.229C312.396,310.532 313.857,305.884 314.06,305.887C314.267,305.89 316.843,310.604 316.927,311.28ZM318.116,311.899C317.1,312.573 316.727,314.157 317.449,315.172C318.185,316.206 319.838,316.391 320.86,315.699C321.326,315.379 323.834,311.024 323.715,310.863C323.602,310.723 318.535,311.62 318.116,311.899ZM319.338,306.021C319.447,306.97 318.823,308.191 317.749,308.216C316.663,308.229 315.763,307.061 315.638,306.071C315.532,305.146 315.106,301.656 316.949,301.594C318.773,301.606 319.205,304.869 319.338,306.021ZM320.327,306.521C319.501,307.094 319.155,308.404 319.771,309.25C320.391,310.1 321.77,310.222 322.604,309.639C323.479,309.016 326.077,307.064 324.971,305.583C323.883,304.106 321.245,305.908 320.327,306.521ZM321.627,300.848C321.738,301.733 321.145,302.877 320.149,302.906C319.142,302.934 318.307,301.87 318.193,300.951C318.087,300.103 317.687,296.827 319.404,296.782C321.098,296.746 321.498,299.808 321.627,300.848ZM322.549,301.291C321.792,301.83 321.459,303.049 322.038,303.834C322.62,304.622 323.9,304.701 324.66,304.146C325.437,303.578 327.917,301.701 326.86,300.351C325.824,299.027 323.386,300.696 322.549,301.291ZM323.604,296.357C323.703,297.152 323.15,298.197 322.271,298.25C321.38,298.292 320.603,297.312 320.504,296.514C320.452,296.092 320.006,292.743 321.604,292.724C323.166,292.57 323.542,295.793 323.604,296.357ZM324.438,296.746C323.766,297.231 323.457,298.361 323.971,299.055C324.49,299.757 325.682,299.797 326.349,299.291C326.847,298.922 329.295,297.07 328.338,295.825C327.399,294.606 325.174,296.212 324.438,296.746ZM329.193,315.822C328.597,316.851 327.07,317.548 325.971,316.867C324.894,316.201 324.711,314.527 325.315,313.497C325.593,313.029 329.765,309.998 329.917,310.09C330.08,310.188 329.486,315.316 329.193,315.822ZM329.838,316.934C328.668,316.946 327.27,317.888 327.293,319.173C327.316,320.449 328.704,321.425 329.893,321.401C330.593,321.394 335.258,319.234 335.252,319.016C335.258,318.848 330.407,316.929 329.838,316.934ZM334.492,312.824C333.994,313.681 332.711,314.318 331.767,313.791C330.829,313.267 330.727,311.856 331.219,311.007C331.76,310.072 333.506,307.147 335.132,308.032C336.773,308.924 335.009,311.954 334.492,312.824ZM335.046,313.733C334.061,313.769 332.869,314.582 332.878,315.665C332.888,316.745 334.1,317.49 335.077,317.454C336.17,317.414 339.61,317.229 339.622,315.375C339.635,313.504 336.013,313.698 335.046,313.733ZM339.715,309.728C339.243,310.525 338.032,311.161 337.134,310.684C336.248,310.213 336.167,308.905 336.629,308.123C337.157,307.229 338.786,304.513 340.329,305.28C341.894,306.058 340.166,308.966 339.715,309.728ZM340.241,310.56C339.318,310.613 338.185,311.38 338.192,312.401C338.199,313.419 339.36,314.066 340.265,314.013C341.286,313.953 344.534,313.73 344.549,312.004C344.565,310.252 341.112,310.509 340.241,310.56ZM344.299,306.99C343.881,307.702 342.748,308.31 341.926,307.901C341.125,307.495 341.051,306.287 341.464,305.592C341.819,304.995 343.417,302.295 344.855,302.958C346.363,303.614 344.487,306.671 344.299,306.99ZM344.773,307.738C343.968,307.798 342.887,308.517 342.893,309.437C342.898,310.354 343.993,310.917 344.793,310.857C345.415,310.81 348.705,310.567 348.722,308.977C348.739,307.379 345.536,307.681 344.773,307.738ZM332.675,302.047C332.65,303.242 331.624,304.62 330.334,304.589C329.048,304.559 328.126,303.138 328.149,301.956C328.16,301.366 330.326,296.683 330.517,296.688C330.732,296.688 332.696,301.364 332.675,302.047ZM333.811,302.695C332.789,303.279 331.979,304.794 332.636,305.925C333.299,307.065 335.028,307.131 336.062,306.54C336.596,306.235 339.849,302.002 339.754,301.84C339.655,301.671 334.393,302.362 333.811,302.695ZM335.962,296.877C335.936,297.887 335.067,299.026 333.989,299.025C332.907,299.024 332.112,297.866 332.136,296.865C332.163,295.774 332.288,292.417 334.158,292.444C336.031,292.473 335.99,295.797 335.962,296.877ZM336.904,297.404C336.052,297.892 335.359,299.165 335.909,300.112C336.464,301.069 337.937,301.081 338.787,300.581C339.613,300.104 342.875,298.22 341.882,296.64C341.022,294.966 337.712,296.938 336.904,297.404ZM339.127,291.779C339.1,292.721 338.283,293.781 337.282,293.792C336.282,293.803 335.521,292.756 335.546,291.822C335.576,290.743 335.707,287.746 337.443,287.687C339.193,287.694 339.155,290.774 339.127,291.779ZM340.02,292.252C339.234,292.705 338.559,293.89 339.096,294.769C339.634,295.651 341.003,295.636 341.794,295.167C342.533,294.729 345.635,292.938 344.693,291.483C343.762,290.044 340.848,291.769 340.02,292.252ZM330.327,273.511C330.802,274.6 330.446,276.26 329.26,276.756C328.06,277.257 326.651,276.284 326.193,275.197C325.921,274.552 325.978,269.482 326.171,269.408C326.34,269.348 330.111,273.008 330.327,273.511ZM331.633,273.659C330.93,274.611 330.862,276.304 331.917,277.056C332.991,277.813 334.625,277.207 335.34,276.238C335.702,275.747 336.9,270.685 336.746,270.576C336.579,270.458 332.041,273.115 331.633,273.659ZM331.143,267.552C331.545,268.462 331.235,269.843 330.248,270.256C329.255,270.671 328.073,269.909 327.693,268.993C327.301,268.047 325.984,264.89 327.671,264.181C329.357,263.501 330.73,266.586 331.143,267.552ZM332.235,267.663C331.647,268.457 331.587,269.871 332.475,270.494C333.37,271.121 334.727,270.616 335.327,269.816C335.915,269.022 338.047,266.149 336.488,265.106C334.951,264.077 332.894,266.786 332.235,267.663ZM331.88,261.756C332.245,262.602 331.973,263.88 331.052,264.263C330.128,264.647 329.018,263.966 328.66,263.107C328.297,262.238 327.072,259.292 328.649,258.651C330.212,257.988 331.498,260.869 331.88,261.756ZM332.894,261.854C332.355,262.589 332.29,263.895 333.112,264.473C333.941,265.056 335.208,264.58 335.761,263.838C336.309,263.089 338.265,260.455 336.838,259.472C335.429,258.484 333.485,261.06 332.894,261.854ZM332.514,256.748C332.843,257.51 332.574,258.67 331.765,259.024C330.948,259.37 329.91,258.748 329.582,257.99C329.362,257.462 328.118,254.549 329.571,253.957C331.02,253.365 332.253,256.152 332.514,256.748ZM333.438,256.845C332.947,257.499 332.91,258.711 333.645,259.219C334.388,259.733 335.55,259.296 336.042,258.64C336.36,258.216 338.344,255.587 337.014,254.688C335.727,253.752 333.78,256.381 333.438,256.845ZM343.676,273.354C343.368,274.548 342.026,275.713 340.732,275.464C339.453,275.217 338.801,273.656 339.112,272.49C339.259,271.915 342.547,267.647 342.742,267.683C342.935,267.718 343.828,272.766 343.676,273.354ZM344.666,274.184C343.548,274.571 342.323,275.903 342.735,277.185C343.148,278.472 344.925,278.776 346.035,278.387C346.645,278.174 350.871,274.535 350.81,274.362C350.76,274.177 345.363,273.945 344.666,274.184ZM348.181,268.783C347.917,269.791 346.794,270.766 345.704,270.586C344.621,270.407 344.078,269.113 344.331,268.137C344.629,266.991 345.518,263.759 347.387,264.082C349.272,264.425 348.429,267.784 348.181,268.783ZM349.003,269.456C348.076,269.785 347.031,270.899 347.388,271.973C347.745,273.049 349.243,273.264 350.164,272.935C351.102,272.598 354.759,271.314 354.167,269.532C353.551,267.747 349.905,269.145 349.003,269.456ZM352.52,264.24C352.28,265.184 351.219,266.1 350.201,265.941C349.198,265.783 348.677,264.605 348.907,263.694C349.188,262.587 350.011,259.646 351.76,259.89C353.551,260.14 352.76,263.342 352.52,264.24ZM353.302,264.862C352.447,265.172 351.456,266.215 351.796,267.213C352.136,268.213 353.548,268.376 354.394,268.067C355.279,267.743 358.662,266.528 358.133,264.867C357.515,263.245 354.139,264.547 353.302,264.862ZM356.309,260.285C356.088,261.113 355.119,261.979 354.206,261.847C353.303,261.717 352.812,260.645 353.031,259.827C353.294,258.84 354.022,256.105 355.623,256.358C357.256,256.548 356.508,259.498 356.309,260.285ZM357.025,260.839C356.306,261.11 355.342,262.09 355.657,262.982C355.959,263.877 357.302,264.005 358.019,263.733C358.343,263.611 361.97,262.336 361.411,260.816C360.874,259.289 357.323,260.727 357.025,260.839ZM343.135,259.215C343.472,260.411 342.792,261.987 341.55,262.355C340.303,262.725 338.928,261.753 338.587,260.565C338.432,260.002 339.231,254.862 339.422,254.808C339.614,254.754 342.983,258.671 343.135,259.215ZM344.453,259.461C343.632,260.298 343.232,261.998 344.239,262.875C345.259,263.762 347.013,263.233 347.857,262.37C348.379,261.836 350.291,256.96 350.132,256.831C349.995,256.715 344.883,259.027 344.453,259.461ZM344.865,253.322C345.152,254.323 344.574,255.625 343.547,255.946C342.517,256.258 341.353,255.472 341.073,254.477C340.762,253.372 339.95,250.217 341.767,249.675C343.589,249.18 344.543,252.213 344.865,253.322ZM345.963,253.53C345.282,254.229 344.938,255.648 345.786,256.376C346.642,257.111 348.104,256.666 348.806,255.943C349.45,255.28 352.143,252.552 350.697,251.327C349.251,250.103 346.729,252.755 345.963,253.53ZM346.474,247.593C346.739,248.519 346.207,249.74 345.25,250.03C344.289,250.332 343.212,249.6 342.943,248.678C342.643,247.617 341.913,244.776 343.575,244.219C345.27,243.733 346.169,246.569 346.474,247.593ZM347.491,247.779C346.866,248.425 346.541,249.744 347.329,250.414C348.123,251.088 349.48,250.676 350.128,250.005C350.723,249.389 353.218,246.847 351.872,245.716C350.545,244.6 348.182,247.064 347.491,247.779ZM331.995,235.766C333.026,236.149 333.926,237.439 333.48,238.555C333.036,239.669 331.49,240.042 330.456,239.644C329.285,239.198 325.816,237.763 326.615,235.855C327.345,233.954 330.946,235.376 331.995,235.766ZM332.942,234.997C333.121,236.101 334.252,237.19 335.432,236.967C336.609,236.744 337.322,235.336 337.136,234.226C336.922,232.948 336.257,229.394 334.208,229.763C332.162,230.131 332.718,233.707 332.942,234.997ZM328.549,231.372C329.39,231.712 330.131,232.791 329.76,233.712C329.399,234.64 328.123,234.911 327.282,234.562C326.411,234.2 323.426,232.895 324.093,231.328C324.7,229.742 327.716,231.026 328.549,231.372ZM329.327,230.756C329.475,231.661 330.379,232.596 331.361,232.427C332.341,232.26 332.906,231.086 332.764,230.178C332.611,229.199 332.059,226.158 330.373,226.422C328.685,226.687 329.171,229.808 329.327,230.756ZM325.182,227.036C325.931,227.362 326.652,228.4 326.304,229.245C325.959,230.086 324.758,230.292 324.004,229.957C323.496,229.731 320.426,228.343 321.049,226.87C321.658,225.429 324.422,226.706 325.182,227.036ZM325.904,226.487C326.038,227.303 326.881,228.226 327.782,228.094C328.682,227.963 329.192,226.848 329.071,226.033C328.959,225.348 328.461,222.322 326.882,222.485C325.303,222.758 325.8,225.848 325.904,226.487ZM322.293,223.218C322.952,223.53 323.621,224.471 323.315,225.24C323.01,226.008 321.895,226.146 321.238,225.829C320.792,225.614 318.007,224.305 318.56,222.978C319.106,221.669 321.644,222.916 322.293,223.218ZM322.938,222.739C323.058,223.469 323.817,224.344 324.638,224.245C325.449,224.147 325.914,223.146 325.804,222.417C325.704,221.809 325.257,219.022 323.827,219.147C322.383,219.33 322.862,222.236 322.938,222.739ZM340.693,227.178C341.316,228.124 341.178,229.681 340.171,230.326C339.16,230.973 337.675,230.45 337.059,229.495C336.42,228.502 334.427,225.308 336.208,224.222C337.981,223.14 339.991,226.135 340.693,227.178ZM341.926,227.082C341.415,228.052 341.592,229.622 342.701,230.119C343.823,230.622 345.25,229.782 345.775,228.787C346.291,227.809 348.123,224.288 346.218,223.411C344.302,222.529 342.135,226.682 341.926,227.082ZM340.58,221.618C341.1,222.407 340.967,223.702 340.134,224.238C339.296,224.776 338.063,224.347 337.549,223.556C336.991,222.694 335.409,220.117 336.854,219.17C338.3,218.223 340.031,220.773 340.58,221.618ZM341.615,221.534C341.197,222.331 341.311,223.646 342.24,224.054C343.174,224.476 344.354,223.771 344.797,222.949C345.218,222.148 346.778,219.207 345.193,218.483C343.608,217.795 342.098,220.613 341.615,221.534ZM340.423,216.218C340.902,216.943 340.781,218.152 340.014,218.647C339.246,219.142 338.091,218.744 337.627,218.011C337.103,217.206 335.646,214.836 336.974,213.946C338.307,213.053 339.921,215.446 340.423,216.218ZM341.375,216.138C340.983,216.875 341.11,218.098 341.955,218.484C342.804,218.872 343.929,218.197 344.32,217.461C344.709,216.729 346.159,213.971 344.674,213.318C343.193,212.667 341.686,215.554 341.375,216.138ZM340.297,211.559C340.728,212.218 340.613,213.312 339.925,213.753C339.237,214.201 338.188,213.837 337.768,213.174C337.452,212.683 335.914,210.259 337.183,209.495C338.42,208.712 339.949,211.027 340.297,211.559ZM341.156,211.495C340.809,212.155 340.931,213.273 341.69,213.612C342.454,213.952 343.465,213.364 343.817,212.693C344.029,212.29 345.495,209.559 344.134,208.953C342.798,208.358 341.433,210.974 341.156,211.495ZM330.796,218.576C331.755,219.117 332.436,220.517 331.846,221.557C331.254,222.588 329.688,222.733 328.738,222.174C327.766,221.61 324.421,219.586 325.482,217.838C326.434,216.039 329.867,218.052 330.796,218.576ZM331.824,217.957C331.847,219.057 332.764,220.316 333.958,220.28C335.15,220.233 336.049,218.921 336.025,217.808C335.999,216.621 335.894,212.911 333.831,212.951C331.782,213.058 331.811,216.739 331.824,217.957ZM328.038,213.721C328.818,214.186 329.402,215.356 328.904,216.22C328.408,217.09 327.101,217.136 326.327,216.668C325.515,216.172 322.762,214.462 323.615,213.002C324.495,211.564 327.239,213.245 328.038,213.721ZM328.893,213.22C328.905,214.13 329.656,215.204 330.651,215.177C331.643,215.161 332.373,214.066 332.349,213.152C332.337,212.212 332.262,209.014 330.55,209.089C328.845,209.095 328.881,212.273 328.893,213.22ZM325.315,208.964C326.004,209.391 326.58,210.508 326.115,211.295C325.652,212.079 324.421,212.104 323.727,211.664C323.276,211.378 320.398,209.572 321.216,208.205C322.019,206.862 324.618,208.532 325.315,208.964ZM326.115,208.517C326.127,209.344 326.84,210.377 327.749,210.372C328.656,210.377 329.327,209.345 329.315,208.523C329.306,207.845 329.247,204.746 327.649,204.714C326.032,204.682 326.108,207.956 326.115,208.517Z" style="fill:white;fill-rule:nonzero;"/>
                <path d="M339.009,327.646C337.762,327.676 330.833,327.843 324.127,322.963C322.008,321.422 303.077,307.647 292.261,315.386C293.47,315.505 300.081,316.152 305.883,322.096C307.318,323.57 318.632,335.182 328.404,334.493C336.026,333.966 338.578,328.56 339.009,327.646Z" style="fill:white;fill-rule:nonzero;"/>
                <path d="M200.589,177.115L190.737,167.286C209.487,147.925 231.83,144.431 256.508,152.499C279.001,159.853 305.439,178.313 322.249,196.282L312.416,205.019C296.657,186.913 274.193,172.17 256.508,166.388C235.999,159.683 216.116,162.218 200.589,177.115Z" style="fill:rgb(255,91,87);fill-rule:nonzero;"/>
                <path d="M217.988,285.905L217.9,278.867C239.948,282.811 274.717,295.927 293.328,300.802L293.628,308.058C275.133,303.201 240.129,289.925 217.988,285.905Z" style="fill:white;fill-rule:nonzero;"/>
                <g>
                    <path d="M293.628,238.435L287.295,235.912L287.295,221.079L287.106,220.08L287.406,220.166C288.304,220.423 289.172,219.865 289.172,218.899C289.172,217.894 288.357,216.904 287.406,216.633L279.551,214.287C278.664,214.012 277.784,214.53 277.784,215.503C277.784,216.514 278.6,217.525 279.551,217.82L279.851,217.913L279.662,218.799L279.662,232.688L276.762,231.425L271.007,223.388C272.212,221.967 272.863,220.125 272.863,218.267C272.863,212.108 265.88,203.5 256.942,200.574C247.567,197.506 241.02,202.185 241.02,208.044C241.02,208.563 241.02,210.949 242.843,214.274L237.054,218.826L234.143,218.384L234.143,204.495L233.954,203.5L234.254,203.58C235.154,203.822 236.021,203.26 236.021,202.295C236.021,201.294 235.209,200.303 234.254,200.047L226.41,198.083C225.495,197.872 224.644,198.494 224.644,199.451C224.644,200.443 225.456,201.397 226.41,201.617L226.71,201.686L226.521,202.587L226.521,217.42L220.199,216.851L225.444,225.808L226.266,225.995L226.266,236.861L234.388,238.894L234.388,228.027C244.863,230.847 277.072,241.474 279.418,242.201L279.418,253.068L287.539,255.493L287.539,244.626L288.384,244.866L293.628,238.435Z" style="fill:white;fill-rule:nonzero;"/>
                    <path d="M283.473,214.193C287.352,215.353 288.895,213.346 288.895,212.887C288.895,211.781 287.674,210.711 286.973,210.186L283.462,204.123L279.962,208.092C279.137,208.21 278.04,208.59 278.04,209.649C278.045,210.337 279.914,213.128 283.473,214.193ZM256.286,198.849C259.903,200.031 261.919,198.214 261.919,197.234C261.919,195.989 260.884,194.819 260.041,194.07L256.286,187.438L252.531,191.619C251.548,191.852 250.653,192.481 250.653,193.562C250.653,194.49 252.697,197.676 256.286,198.849ZM230.321,197.725C234.306,198.724 235.743,196.691 235.743,196.274C235.743,195.169 234.531,194.115 233.821,193.598L230.321,187.658L226.821,191.845C225.983,192.029 224.899,192.505 224.899,193.564C224.899,194.183 226.616,196.796 230.321,197.725Z" style="fill:white;fill-rule:nonzero;"/>
                </g>
                <g>
                    <path d="M292.883,297.296L287.539,290.048L287.539,279.926L279.418,277.501L279.418,287.212L276.151,286.187C269.174,274.24 262.197,262.293 255.219,250.345L239.243,244.537C238.972,252.7 238.702,260.864 238.432,269.027C240.124,269.526 246.324,271.357 259.419,275.799L269.285,283.97L269.285,290.159C283.651,294.86 290.976,296.793 292.883,297.296Z" style="fill:white;fill-rule:nonzero;"/>
                    <path d="M234.376,263.324L226.266,261.295L226.266,271.895L221.355,276.135C223.267,276.52 231.598,278.196 244.942,282.276L244.942,276.087L234.376,273.035L234.376,263.324ZM212.478,218.766L209.989,220.619C205.539,223.322 200.306,229.949 202.8,235.382C202.117,236.293 196.468,243.828 199.744,249.273C200.444,250.432 206.511,260.485 204.367,265.555C209.506,263.264 214.216,258.217 211.855,249.614C210.675,245.286 214.997,241.177 221.233,239.422L226.255,248.081L226.255,255.059L234.376,257.091L234.376,245.113L227.344,243.334C219.484,229.992 213.694,220.715 212.478,218.766ZM310.994,262.966C313.452,258.151 308.365,250.489 303.805,246.225L301.316,243.515C300.148,244.964 294.479,251.998 286.45,261.413L279.418,259.301L279.418,271.279L287.539,273.704L287.539,266.726L292.561,260.533C293.645,261.34 303.677,268.814 301.938,274.585C298.685,285.356 308.132,291.881 309.427,292.775C307.365,287.395 313.335,278.515 314.049,277.452C317.246,272.68 311.635,263.962 310.994,262.966Z" style="fill:white;fill-rule:nonzero;"/>
                </g>
                <path d="M296.794,356.303C296.794,358.409 294.919,359.71 292.928,359.185C289.716,358.339 278.607,352.804 278.607,351.16C278.607,349.605 290.331,350.767 292.928,351.452C294.906,351.973 296.794,354.407 296.794,356.303Z" style="fill:white;fill-rule:nonzero;"/>
                <path d="M310.682,359.45C317.037,359.288 321.731,356.561 322.004,352.865C321.105,353.372 316.054,356.222 309.116,353.644C308.078,353.258 301.799,350.924 295.861,349.65C299.61,354.745 299.944,359.679 296.916,360.922C295.707,361.422 289.645,360.442 284.639,357.862C283.788,357.423 275.783,353.295 273.851,352.675C271.917,352.053 269.985,353.15 269.985,355.288C269.985,357.184 271.88,359.775 273.851,360.408C274.357,360.57 282.423,361.733 284.906,361.896L292.994,362.536C294.392,362.616 294.067,363.132 309.905,367.022C317.481,368.883 323.514,365.421 325.938,362.6C321.593,363.821 313.874,361.553 310.682,359.45ZM365.151,270.954C370.611,258.254 361.217,278.771 347.423,278.149C345.55,278.065 326.254,277.194 324.171,281.044L319.104,290.965C320.668,290.205 326.012,288.836 329.482,288.823C339.531,288.786 351.295,286.406 353.739,285.438C359.913,282.986 364.562,272.307 365.151,270.954ZM354.667,239.187C354.608,238.37 349.027,236.931 348.821,236.564C348.716,236.373 350.099,229.878 349.386,229.46C348.393,228.874 340.258,234.466 332.195,243.108C326.924,248.769 325.601,258.095 327.127,260.536C327.335,260.873 327.532,261.601 328.009,261.795C328.334,261.926 327.562,260.473 327.727,260.782C328.195,259.862 331.055,254.245 336.569,251.379C342.623,248.246 353.272,240.236 354.667,239.187ZM210.233,306.748C210.58,307.66 211.704,308.649 212.755,308.383C213.815,308.116 214.014,306.704 213.689,305.842C213.311,304.842 212.077,301.49 210.322,301.948C208.542,302.413 209.936,305.969 210.233,306.748ZM209.566,307.501C210.521,307.771 211.567,308.834 211.389,309.907C211.21,310.97 209.885,311.362 208.978,311.111C207.904,310.815 204.617,309.995 204.889,308.184C205.233,306.353 208.644,307.252 209.566,307.501ZM205.655,302.647C205.973,303.457 207.037,304.354 207.989,304.081C208.958,303.803 209.166,302.497 208.855,301.686C208.501,300.761 207.355,297.719 205.733,298.187C204.088,298.662 205.356,301.884 205.655,302.647ZM205.033,303.373C205.924,303.591 206.888,304.554 206.722,305.543C206.558,306.524 205.348,306.949 204.489,306.742C203.509,306.507 200.44,305.845 200.7,304.164C200.965,302.452 204.161,303.171 205.033,303.373ZM225.377,312.559C225.593,313.77 226.719,315.236 228.043,315.311C229.354,315.385 229.972,313.892 229.788,312.803C229.661,312.093 226.842,307.212 226.632,307.201C224.8,307.11 225.054,310.754 225.377,312.559ZM224.388,313.162C225.385,313.75 226.526,315.297 226.021,316.527C225.517,317.758 223.732,317.551 222.822,317.026C222.184,316.655 218.539,312.406 218.611,312.229C218.676,312.057 223.778,312.802 224.388,313.162ZM221.433,307.173C221.604,308.176 222.551,309.369 223.644,309.411C224.733,309.442 225.253,308.198 225.088,307.283C224.889,306.111 224.292,302.726 222.466,302.685C220.598,302.642 221.305,306.425 221.433,307.173ZM220.611,307.698C221.448,308.173 222.377,309.439 221.966,310.459C221.556,311.477 220.083,311.368 219.311,310.937C218.394,310.425 215.117,308.708 215.811,307.019C216.473,305.289 219.96,307.33 220.611,307.698ZM217.655,302.012C217.809,302.908 218.706,304.021 219.711,304.035C220.72,304.047 221.2,302.879 221.055,302.031C220.867,300.932 220.314,297.86 218.622,297.82C216.898,297.848 217.527,301.267 217.655,302.012ZM216.9,302.514C217.641,302.918 218.532,304.108 218.155,305.046C217.777,305.987 216.423,305.938 215.689,305.544C215.112,305.234 211.875,303.59 212.433,301.994C213.125,300.431 216.193,302.129 216.9,302.514ZM214.4,297.639C214.54,298.425 215.358,299.441 216.255,299.427C217.142,299.412 217.602,298.358 217.466,297.59C217.361,296.996 216.815,293.754 215.266,293.842C213.636,293.793 214.363,297.432 214.4,297.639ZM213.7,298.11C214.378,298.461 215.176,299.532 214.833,300.373C214.502,301.215 213.251,301.204 212.6,300.873C212.108,300.622 209.108,299.164 209.655,297.723C210.359,296.329 213.262,297.881 213.7,298.11ZM214.789,317.777C215.533,318.58 217.222,319.332 218.2,318.454C219.186,317.568 218.569,315.809 217.833,315C217.361,314.481 212.532,312.029 212.4,312.156C212.256,312.285 214.268,317.222 214.789,317.777ZM214.489,318.986C215.723,318.819 217.245,319.677 217.588,320.912C217.933,322.124 216.935,323.313 215.755,323.477C215.15,323.553 210.062,322.21 210.011,322.021C209.899,321.611 213.69,319.104 214.489,318.986ZM208.911,315.726C209.552,316.399 210.955,316.911 211.744,316.166C212.543,315.411 212.074,313.977 211.433,313.302C210.787,312.611 208.236,309.872 206.911,311.139C205.599,312.394 208.272,315.065 208.911,315.726ZM208.667,316.743C209.677,316.551 210.956,317.209 211.244,318.232C211.528,319.241 210.7,320.265 209.722,320.431C208.565,320.642 205.471,321.186 204.944,319.433C204.423,317.632 207.664,316.922 208.667,316.743ZM203.211,313.93C203.84,314.546 205.132,314.907 205.844,314.208C206.555,313.498 206.178,312.194 205.555,311.572C204.934,310.951 202.538,308.518 201.367,309.771C200.122,310.957 202.585,313.306 203.211,313.93ZM202.989,314.883C203.905,314.666 205.108,315.202 205.389,316.147C205.657,317.086 204.865,318.055 203.978,318.26C202.995,318.484 200,319.184 199.544,317.544C199.086,315.892 202.042,315.107 202.989,314.883ZM198.3,312.624C198.871,313.163 200.065,313.407 200.678,312.774C201.296,312.135 200.99,310.944 200.422,310.397C200.043,310.032 197.69,307.745 196.633,308.94C195.558,310.08 197.883,312.231 198.3,312.624ZM198.1,313.499C198.896,313.27 200.022,313.702 200.267,314.547C200.514,315.387 199.769,316.3 198.989,316.517C198.128,316.757 195.42,317.516 194.969,316.043C194.489,314.541 197.562,313.651 198.1,313.499ZM194.32,282.706C194.173,283.869 194.927,285.368 196.201,285.517C197.466,285.666 198.585,284.424 198.733,283.256C198.819,282.581 197.365,277.692 197.156,277.665C196.946,277.638 194.401,282.005 194.32,282.706ZM193.155,283.211C194.088,283.931 194.557,285.538 193.797,286.545C193.042,287.544 191.398,287.52 190.465,286.814C190.015,286.469 187.648,282.041 187.762,281.883C188.01,281.555 192.506,282.716 193.155,283.211ZM191.982,277.237C191.871,278.187 192.461,279.437 193.514,279.562C194.567,279.675 195.46,278.597 195.581,277.642C195.697,276.629 196.089,273.27 194.307,273.021C192.522,272.846 192.11,276.235 191.982,277.237ZM191.027,277.673C191.795,278.276 192.171,279.6 191.548,280.434C190.935,281.255 189.592,281.275 188.822,280.686C187.945,280 185.566,278.067 186.613,276.602C187.696,275.15 190.19,277.028 191.027,277.673ZM189.816,271.941C189.707,272.805 190.24,273.98 191.216,274.071C192.193,274.163 192.996,273.141 193.104,272.262C193.214,271.389 193.606,268.167 191.954,268.003C190.279,267.836 189.886,271.378 189.816,271.941ZM188.948,272.35C189.663,272.91 189.98,274.135 189.417,274.906C188.869,275.669 187.637,275.718 186.93,275.167C186.123,274.537 183.93,272.755 184.905,271.409C185.888,270.054 188.174,271.754 188.948,272.35ZM187.974,267.402C187.881,268.154 188.358,269.238 189.22,269.323C190.085,269.396 190.813,268.421 190.906,267.666C190.95,267.304 191.413,263.913 189.879,263.83C188.39,263.611 188.069,266.638 187.974,267.402ZM187.19,267.783C187.828,268.279 188.094,269.409 187.611,270.09C187.134,270.761 186.017,270.844 185.382,270.34C184.77,269.866 182.709,268.191 183.571,266.954C184.448,265.694 186.653,267.355 187.19,267.783ZM182.516,286.95C183.066,287.957 184.52,288.556 185.546,287.88C186.585,287.195 186.778,285.54 186.212,284.506C185.846,283.839 182.248,281.048 181.934,281.272C181.778,281.384 182.252,286.468 182.516,286.95ZM181.881,288.102C183.035,288.034 184.286,288.994 184.246,290.215C184.206,291.444 182.93,292.513 181.75,292.57C179.998,292.673 176.754,292.408 176.846,290.655C176.851,290.455 181.314,288.135 181.881,288.102ZM177.698,284.389C178.143,285.225 179.329,285.671 180.154,285.103C181.001,284.521 181.175,283.144 180.711,282.281C180.277,281.472 178.701,278.622 177.24,279.674C175.834,280.724 177.142,283.342 177.698,284.389ZM177.177,285.354C178.129,285.28 179.126,286.077 179.095,287.071C179.064,288.089 178.029,288.998 177.049,289.075C176.079,289.15 173.008,289.345 173.06,287.555C173.11,285.786 176.003,285.446 177.177,285.354ZM173.164,281.93C173.57,282.698 174.654,283.087 175.398,282.548C176.15,282.002 176.334,280.724 175.911,279.933C175.513,279.188 174.102,276.607 172.766,277.581C171.462,278.532 172.656,280.971 173.164,281.93ZM172.69,282.833C173.569,282.747 174.457,283.484 174.424,284.393C174.391,285.318 173.453,286.197 172.554,286.283C171.67,286.368 168.877,286.592 168.931,284.942C168.984,283.317 171.583,282.94 172.69,282.833ZM169.324,279.899C169.693,280.618 170.67,280.906 171.313,280.429C171.974,279.932 172.155,278.765 171.782,278.058C171.526,277.573 170.208,275.082 168.993,275.975C167.798,276.82 168.971,279.212 169.324,279.899ZM168.896,280.724C169.705,280.634 170.465,281.322 170.433,282.111C170.399,282.937 169.564,283.75 168.759,283.839C168.14,283.908 165.481,284.174 165.534,282.668C165.64,281.211 167.979,280.826 168.896,280.724ZM179.551,273.466C179.553,274.545 180.382,275.941 181.627,275.813C182.87,275.685 183.686,274.186 183.679,273.058C183.674,272.298 181.94,267.91 181.568,267.95C181.379,267.965 179.55,272.771 179.551,273.466ZM178.536,274.217C179.572,274.773 180.072,276.275 179.528,277.328C178.989,278.37 177.499,278.834 176.461,278.288C175.74,277.905 173.218,274.368 173.363,274.073C174.104,272.515 177.012,273.41 178.536,274.217ZM176.75,268.651C176.754,269.531 177.416,270.695 178.445,270.578C179.48,270.46 180.131,269.187 180.124,268.254C180.118,267.49 180.126,263.812 178.397,264.041C176.704,264.266 176.745,267.626 176.75,268.651ZM175.911,269.287C176.779,269.741 177.156,271 176.725,271.867C176.297,272.728 175.074,273.147 174.216,272.688C173.21,272.15 170.876,270.776 171.672,269.209C172.413,267.591 174.949,268.769 175.911,269.287ZM174.116,263.974C174.121,264.758 174.725,265.86 175.661,265.737C176.603,265.614 177.201,264.392 177.194,263.571C177.191,263.275 177.247,259.507 175.616,259.682C174.04,259.922 174.112,263.369 174.116,263.974ZM173.348,264.569C174.156,264.984 174.486,266.148 174.087,266.944C173.692,267.731 172.589,268.151 171.79,267.729C170.841,267.244 168.722,265.982 169.453,264.534C170.186,263.082 172.41,264.086 173.348,264.569ZM181.906,244.839C181.526,245.841 181.687,247.548 182.856,247.997C184.02,248.446 185.282,247.303 185.668,246.304C185.922,245.648 185.872,240.594 185.695,240.525C185.531,240.467 182.13,244.252 181.906,244.839ZM180.749,245.093C181.416,246.051 181.388,247.689 180.488,248.504C179.603,249.297 178.149,248.957 177.501,248.037C177.2,247.603 176.175,242.696 176.31,242.564C177.531,241.377 179.777,243.695 180.749,245.093ZM181.185,238.96C180.872,239.792 181.01,241.214 181.98,241.586C182.945,241.956 183.988,240.995 184.298,240.165C184.617,239.307 185.911,236.011 184.312,235.36C182.708,234.706 181.481,238.171 181.185,238.96ZM180.223,239.168C180.781,239.965 180.765,241.333 180.013,242.013C179.282,242.674 178.076,242.397 177.536,241.636C176.873,240.687 175.261,238.258 176.532,237.078C177.81,235.825 179.709,238.445 180.223,239.168ZM180.528,233.238C180.262,233.972 180.369,235.333 181.269,235.669C182.162,236.003 183.142,235.082 183.416,234.339C183.556,233.961 184.942,230.466 183.409,229.886C181.876,229.276 180.646,232.911 180.528,233.238ZM179.637,233.431C180.147,234.161 180.143,235.438 179.457,236.068C178.784,236.686 177.659,236.428 177.16,235.723C176.654,234.997 175.041,232.617 176.208,231.497C177.383,230.302 179.156,232.768 179.637,233.431ZM179.927,228.293C179.69,228.958 179.804,230.185 180.604,230.498C181.408,230.801 182.297,229.942 182.544,229.288C182.662,228.963 183.921,225.764 182.527,225.253C181.139,224.714 180.037,227.989 179.927,228.293ZM179.118,228.482C179.586,229.131 179.571,230.312 178.955,230.876C178.357,231.423 177.338,231.213 176.874,230.569C176.411,229.926 174.932,227.749 175.997,226.739C177.1,225.676 178.813,228.041 179.118,228.482ZM170.515,246.347C170.739,247.368 171.821,248.438 172.943,247.978C174.081,247.516 174.569,245.891 174.313,244.784C174.161,244.101 171.661,240.392 171.287,240.548C171.129,240.615 170.395,245.8 170.515,246.347ZM169.7,247.341C170.836,247.58 171.554,248.911 171.269,250.002C170.983,251.102 169.695,251.996 168.553,251.759C167.808,251.604 164.661,248.99 164.747,248.675C164.912,247.967 169.609,247.322 169.7,247.341ZM166.872,242.609C167.06,243.452 167.946,244.335 168.874,243.943C169.807,243.549 170.191,242.146 169.992,241.265C169.837,240.579 169.081,237.067 167.492,237.779C165.939,238.475 166.698,241.832 166.872,242.609ZM166.203,243.439C167.151,243.626 167.728,244.733 167.498,245.633C167.265,246.542 166.222,247.313 165.269,247.127C164.176,246.914 161.703,246.27 162.114,244.588C162.538,242.914 165.031,243.225 166.203,243.439ZM163.391,238.97C163.562,239.746 164.386,240.565 165.238,240.182C166.089,239.798 166.439,238.504 166.257,237.687C166.203,237.445 165.461,233.807 163.946,234.477C162.507,235.114 163.239,238.282 163.391,238.97ZM162.779,239.757C163.657,239.919 164.184,240.949 163.977,241.775C163.768,242.613 162.819,243.343 161.936,243.181C160.904,242.993 158.668,242.412 159.017,240.853C159.425,239.316 161.668,239.535 162.779,239.757ZM160.392,235.87C160.554,236.554 161.304,237.301 162.053,236.952C162.81,236.599 163.123,235.408 162.951,234.683C162.918,234.548 162.212,231.129 160.859,231.798C159.55,232.359 160.254,235.288 160.392,235.87ZM159.843,236.587C160.649,236.735 161.11,237.679 160.931,238.406C160.757,239.143 159.904,239.843 159.106,239.698C158.277,239.546 156.122,239.026 156.469,237.613C156.756,236.19 158.969,236.43 159.843,236.587ZM170.906,232.17C170.696,233.159 171.026,234.844 172.249,235.047C173.468,235.251 174.489,233.844 174.719,232.823C174.85,232.219 174.11,227.214 173.95,227.188C173.776,227.154 171.061,231.455 170.906,232.17ZM169.825,232.64C170.647,233.475 170.757,235.082 170.033,236.008C169.333,236.904 167.884,236.972 167.09,236.165C167.027,236.101 164.784,231.617 165.193,231.088C165.431,230.781 169.31,232.126 169.825,232.64ZM169.402,226.577C169.232,227.405 169.518,228.798 170.532,228.973C171.541,229.135 172.397,227.901 172.566,227.103C172.727,226.343 173.57,222.682 171.897,222.404C170.193,222.121 169.473,226.218 169.402,226.577ZM168.498,226.984C169.186,227.679 169.293,229.018 168.692,229.797C168.111,230.55 166.905,230.609 166.24,229.936C165.387,229.074 163.603,227.086 164.624,225.702C165.68,224.271 167.82,226.299 168.498,226.984ZM167.95,221.13C167.809,221.844 168.072,223.208 169.016,223.35C169.959,223.504 170.739,222.332 170.893,221.596C170.953,221.298 171.826,217.539 170.249,217.226C168.661,217.02 168.026,220.733 167.95,221.13ZM167.115,221.509C167.75,222.146 167.863,223.4 167.316,224.119C166.783,224.82 165.663,224.882 165.045,224.262C164.25,223.464 162.573,221.614 163.514,220.322C164.486,218.988 166.489,220.882 167.115,221.509ZM180.088,207.195C179.12,207.694 178.392,209.076 178.811,210.144C179.226,211.201 180.639,211.442 181.562,210.968C182.648,210.41 185.823,208.792 185.067,206.95C184.352,205.053 181.006,206.718 180.088,207.195ZM179.213,206.509C179.092,207.516 178.198,208.855 177.036,208.757C175.873,208.659 175.342,207.183 175.452,206.2C175.583,205.035 175.97,201.186 177.925,201.354C179.871,201.532 179.328,205.546 179.213,206.509ZM183.168,202.52C182.356,202.921 181.725,204.058 182.082,204.951C182.428,205.842 183.629,206.055 184.412,205.673C185.312,205.233 188.023,203.918 187.381,202.376C186.785,200.787 183.956,202.125 183.168,202.52ZM182.437,201.944C182.33,202.764 181.554,203.872 180.59,203.778C179.625,203.683 179.158,202.443 179.249,201.631C179.312,201.122 179.696,197.487 181.359,197.642C183.031,197.808 182.488,201.515 182.437,201.944ZM186.278,198.058C185.532,198.406 184.912,199.476 185.246,200.296C185.577,201.107 186.705,201.341 187.448,200.998C188.287,200.611 190.854,199.43 190.26,197.985C189.717,196.499 187.027,197.71 186.278,198.058ZM185.59,197.511C185.484,198.281 184.726,199.282 183.836,199.182C182.94,199.081 182.486,197.93 182.574,197.164C182.648,196.589 183.046,193.391 184.6,193.516C186.137,193.764 185.664,196.971 185.59,197.511ZM189.029,194.269C188.349,194.576 187.76,195.513 188.056,196.266C188.348,197.011 189.402,197.234 190.077,196.93C190.828,196.593 193.207,195.566 192.681,194.25C192.144,192.905 189.524,194.046 189.029,194.269ZM188.39,193.771C188.281,194.475 187.561,195.354 186.757,195.25C185.957,195.146 185.526,194.132 185.622,193.428C185.694,192.899 186.092,190.015 187.505,190.163C188.925,190.357 188.464,193.293 188.39,193.771ZM172.061,199.556C171.624,200.476 171.633,202.099 172.654,202.671C173.672,203.241 174.925,202.291 175.359,201.408C175.818,200.473 177.642,196.892 175.927,195.968C174.194,194.993 172.47,198.698 172.061,199.556ZM170.972,199.647C171.489,200.6 171.376,202.169 170.447,202.852C169.532,203.525 168.249,202.922 167.761,202.024C167.15,200.897 165.537,197.825 167.091,196.643C168.698,195.422 170.527,198.817 170.972,199.647ZM171.942,193.94C171.575,194.661 171.566,196.025 172.407,196.491C173.247,196.957 174.326,196.171 174.693,195.465C174.929,195.01 176.649,191.824 175.224,190.999C173.771,190.158 172.102,193.62 171.942,193.94ZM171.036,194.007C171.448,194.779 171.338,196.084 170.562,196.62C169.794,197.162 168.72,196.685 168.306,195.934C167.914,195.204 166.491,192.512 167.807,191.542C169.165,190.579 170.641,193.268 171.036,194.007ZM171.934,188.523C171.591,189.188 171.586,190.461 172.365,190.89C173.141,191.319 174.162,190.592 174.497,189.936C174.726,189.5 176.32,186.571 175.001,185.795C173.653,185.001 172.08,188.235 171.934,188.523ZM171.081,188.584C171.472,189.299 171.347,190.517 170.635,191.015C169.936,191.505 168.91,191.079 168.523,190.374C168.161,189.715 166.816,187.179 168.068,186.298C169.359,185.39 170.833,188.117 171.081,188.584ZM171.919,183.851C171.607,184.456 171.604,185.604 172.314,185.99C173.026,186.376 173.946,185.726 174.257,185.122C174.582,184.491 175.946,182.005 174.711,181.373C173.476,180.701 172.081,183.537 171.919,183.851ZM171.143,183.913C171.496,184.561 171.377,185.666 170.726,186.108C170.09,186.54 169.157,186.175 168.804,185.53C168.477,184.931 167.257,182.643 168.395,181.848C169.551,180.971 170.94,183.533 171.143,183.913ZM180.833,189.814C179.943,190.42 179.309,191.859 179.889,192.874C180.469,193.875 181.972,193.857 182.828,193.278C183.8,192.628 186.937,190.576 185.905,188.849C184.912,187.074 181.685,189.228 180.833,189.814ZM179.846,189.277C179.841,190.328 179.061,191.703 177.898,191.79C176.737,191.865 175.952,190.559 175.951,189.541C175.951,188.382 175.927,184.621 177.887,184.455C179.873,184.355 179.851,188.265 179.846,189.277ZM183.395,184.799C182.65,185.296 182.099,186.491 182.591,187.338C183.081,188.172 184.341,188.183 185.07,187.703C185.896,187.159 188.506,185.496 187.672,184.035C186.877,182.525 184.1,184.328 183.395,184.799ZM182.568,184.34C182.567,185.202 181.883,186.362 180.914,186.408C179.94,186.466 179.272,185.381 179.28,184.52C179.277,183.593 179.274,180.366 180.931,180.317C182.598,180.198 182.568,183.514 182.568,184.34ZM185.988,179.979C185.311,180.415 184.773,181.543 185.228,182.317C185.678,183.083 186.875,183.118 187.556,182.685C188.323,182.197 190.792,180.668 190.005,179.307C189.261,177.903 186.663,179.543 185.988,179.979ZM185.217,179.54C185.212,180.343 184.547,181.409 183.65,181.439C182.756,181.481 182.119,180.461 182.12,179.668C182.121,179.034 182.128,175.873 183.694,175.78C185.291,175.686 185.219,179.087 185.217,179.54Z" style="fill:white;fill-rule:nonzero;"/>
                <path d="M173.272,299.678C180.686,298.823 186.272,294.689 187.242,293.971C189.281,292.462 206.672,279.592 218.944,293.924C211.228,291.19 206.201,294.95 205.322,295.608C203.761,296.779 191.743,305.792 183.052,305.571C175.766,305.396 173.637,300.515 173.272,299.678ZM281.751,335.24C279.624,335.219 269.091,335.115 255.608,330.439C243.825,326.842 231.472,320.164 229.466,319.079L217.177,328.24C217.919,328.143 223.644,328.76 229.721,332.998C231.664,334.353 245.745,344.179 255.597,347.391C267.031,351.118 279.421,349.31 281.473,349.011C291.746,347.514 299.84,353.777 294.017,350.481C293.024,349.271 288.387,343.624 281.751,335.24Z" style="fill:white;fill-rule:nonzero;"/>
                <path d="M214.411,332.907C214.411,334.809 216.312,337.068 218.277,337.424C220.509,337.829 232.599,338.311 232.599,336.764C232.599,335.107 221.698,330.311 218.277,329.691C216.234,329.32 214.411,330.825 214.411,332.907Z" style="fill:white;fill-rule:nonzero;"/>
                <path d="M200.533,331.813C199.456,331.568 189.579,329.329 189.202,323.92C194.886,327.388 201.061,326.493 202.1,326.342C208.876,325.36 214.314,326.429 215.355,326.634C212.787,329.068 210.306,334.247 214.3,337.479C215.585,338.522 222.104,340.094 226.577,340.144C227.443,340.154 234.348,340.232 237.365,341.08C239.322,341.631 241.232,344.152 241.232,346.061C241.232,348.184 239.325,349.365 237.365,348.814L226.31,344.038L218.222,340.747C217.331,340.403 208.84,339.309 201.311,339.547C199.943,339.59 190.628,339.884 185.265,333.602C189.25,334.688 197.662,333.121 200.533,331.813ZM153.666,248.62C150.308,239.381 157.902,254.501 167.431,251.776C179.615,248.293 186.427,249.923 187.523,252.115L192.259,262.212C190.607,261.246 185.805,259.819 182.583,260.04C180.962,260.152 166.157,261.168 162.268,260.277C157.563,259.192 154.066,249.707 153.666,248.62ZM161.012,214.36C161.018,213.545 165.493,210.798 165.612,210.478C165.704,210.227 164.207,203.957 164.775,203.39C165.561,202.601 172.616,206.604 180.04,214.597C184.835,219.77 186.238,229.115 184.801,231.695C184.626,232.014 184.435,232.774 183.996,232.993L184.252,231.967C183.846,231.125 181.165,225.564 176.334,223.371C171.979,221.404 162.208,215.128 161.012,214.36ZM280.44,318.295C277.198,318.091 273.464,322.447 273.007,322.981C272.757,319.448 269.455,315.219 265.996,314.079C265.158,313.803 264.33,313.712 263.452,313.751C262.54,312.169 261.093,310.761 259.33,310.181C258.178,309.802 256.934,309.802 255.864,310.433C254.97,309.322 253.775,308.364 252.397,307.921C250.962,307.459 249.334,307.678 248.275,308.821C247.501,308.272 246.643,307.799 245.731,307.518C241.968,306.36 238.696,308.751 238.643,312.42C238.17,311.566 234.3,304.572 230.966,302.921L221.877,294.23C221.954,296.479 224.341,303.049 228.81,307.352C233.261,311.639 232.232,317.825 232.077,318.761L243.842,324.508L241.876,319.296L243.987,320.874L246.053,325.362L255.842,328.915L265.663,331.714L267.73,328.538L269.396,328.451L267.563,332.172C271.591,333.067 278.383,333.473 279.329,333.529C279.207,332.728 278.155,325.798 282.595,323.94C286.79,322.181 289.436,316.888 289.528,314.386L283.696,317.703C282.787,318.15 281.434,318.357 280.44,318.295Z" style="fill:white;fill-rule:nonzero;"/>
            </g>
        </g>
    </g>
</svg>
