<?xml version="1.0" encoding="UTF-8" standalone="no"?>
<!DOCTYPE svg PUBLIC "-//W3C//DTD SVG 1.1//EN" "http://www.w3.org/Graphics/SVG/1.1/DTD/svg11.dtd">
<svg width="100%" height="100%" viewBox="0 0 512 512" version="1.1" xmlns="http://www.w3.org/2000/svg" xmlns:xlink="http://www.w3.org/1999/xlink" xml:space="preserve" xmlns:serif="http://www.serif.com/" style="fill-rule:evenodd;clip-rule:evenodd;stroke-linejoin:round;stroke-miterlimit:2;">
    <g>
        <g>
            <path d="M255.997,109.563C242.62,105.311 235.57,103.48 233.776,103.014C233.776,143.679 233.776,184.343 233.776,225.008C268.349,234.224 300.245,250.977 341.259,248.411C385.533,245.641 430.732,235.089 467.755,233.885C467.672,232.107 467.252,223.092 466.345,211.672C428.916,212.9 373.074,225.339 336.067,226.393C307.004,227.22 285.518,219.147 255.997,209.51C255.997,176.194 255.997,142.879 255.997,109.563ZM233.776,269.452L233.776,391.675C235.571,392.153 242.62,394.032 255.997,398.399L255.997,298.399C284.729,307.778 306.687,316.114 336.086,315.282C373.174,314.233 429.156,301.801 466.719,300.578C466.872,298.804 467.661,289.705 468.072,278.371C429.222,279.619 370.596,292.684 333.045,293.13C297.618,293.552 264.725,277.703 233.776,269.452ZM200.444,263.898C157.923,262.232 129.31,278.994 71.062,278.724C70.912,280.469 70.19,288.863 68.5,300.472C121.743,300.486 138.572,290.102 178.978,286.77C178.809,294.768 177.774,343.77 178.202,386.766C179.977,386.631 191.363,385.764 200.444,386.12L200.444,263.898ZM200.444,219.453C200.444,212.046 200.444,130.813 200.444,97.605C191.372,97.258 179.996,98.102 178.222,98.234C178.222,106.207 178.222,174.124 178.91,197.9C138.863,201.232 120.571,211.786 68.032,211.709C70.203,223.445 71.043,233.092 71.205,234.963C126.13,235.564 159.101,217.834 200.444,219.453Z" style="fill:rgb(255,206,0);fill-rule:nonzero;"/>
            <path d="M233.776,103.014C231.162,102.336 215.096,98.165 200.444,97.605C200.444,138.221 200.444,178.837 200.444,219.453C159.101,217.834 126.13,235.564 71.205,234.963C71.509,238.45 73.027,255.895 71.062,278.724C129.31,278.994 157.923,262.232 200.444,263.898L200.444,386.12C215.096,386.696 231.164,390.978 233.776,391.675L233.776,269.452C268.394,278.681 300.194,295.412 341.287,292.859C385.666,290.103 430.959,279.563 468.072,278.371C468.201,274.814 468.84,257.174 467.755,233.885C429.007,235.145 370.455,248.231 333.036,248.685C297.653,249.114 264.687,233.248 233.776,225.008C233.776,184.343 233.776,143.679 233.776,103.014Z" style="fill:rgb(210,16,52);fill-rule:nonzero;"/>
            <path d="M255.997,298.399L255.997,398.399C298.126,412.151 315.242,422.462 412.318,408.636C435.684,405.308 458.974,381.556 461.247,357.894C461.687,353.309 466.412,304.116 466.719,300.578C429.18,301.8 373.21,314.232 336.086,315.282C307.001,316.105 285.59,308.059 255.997,298.399ZM68.5,300.472C67.36,308.302 61.51,342.933 59.699,355.921C56.353,379.924 75.267,400.977 100.472,397.677C120.712,395.027 154.544,388.568 178.202,386.766C177.774,343.77 178.809,294.768 178.978,286.77C138.711,290.09 121.786,300.486 68.5,300.472ZM178.222,98.234C154.648,99.983 121.024,106.238 100.444,108.861C77.104,111.835 55.74,130.85 58.828,156.107C60.94,173.373 67.212,207.275 68.032,211.709C120.529,211.786 138.723,201.244 178.91,197.9C178.222,174.124 178.222,106.207 178.222,98.234ZM411.553,116.384C327.524,129.42 326.039,131.832 255.997,109.563C255.997,142.879 255.997,176.194 255.997,209.51C284.657,218.866 306.69,227.229 336.067,226.393C373.039,225.34 428.892,212.901 466.345,211.672C465.053,195.403 460.635,165.894 459.378,156.216C456.362,133 437.012,112.436 411.553,116.384Z" style="fill:rgb(0,83,165);fill-rule:nonzero;"/>
        </g>
    </g>
</svg>
