<?xml version="1.0" encoding="UTF-8" standalone="no"?>
<!DOCTYPE svg PUBLIC "-//W3C//DTD SVG 1.1//EN" "http://www.w3.org/Graphics/SVG/1.1/DTD/svg11.dtd">
<svg width="100%" height="100%" viewBox="0 0 512 512" version="1.1" xmlns="http://www.w3.org/2000/svg" xmlns:xlink="http://www.w3.org/1999/xlink" xml:space="preserve" xmlns:serif="http://www.serif.com/" style="fill-rule:evenodd;clip-rule:evenodd;stroke-linejoin:round;stroke-miterlimit:2;">
    <g>
        <g>
            <g>
                <path d="M411.553,116.384C327.618,129.405 325.974,131.604 259.985,110.838C187.662,88.078 182.392,98.415 100.444,108.861C77.243,111.818 55.755,130.971 58.828,156.107C63.896,197.549 72.023,219.664 72.094,255.171C72.162,289.17 64.081,324.492 59.699,355.921C56.369,379.807 75.39,400.961 100.472,397.677C182.335,386.958 187.634,376.33 259.985,399.708C297.334,411.775 314.968,422.501 412.318,408.636C435.567,405.324 458.987,381.418 461.247,357.894C471.963,246.325 470.85,244.51 459.378,156.216C456.376,133.113 436.871,112.457 411.553,116.384Z" style="fill:rgb(228,30,32);fill-rule:nonzero;"/>
                <path d="M337.669,306.366C336.746,306.268 336.072,305.87 335.391,305.27C335.037,304.955 332.694,302.875 329.482,304.823L327.549,306.379C327.191,306.762 326.801,306.906 326.282,306.9L317.649,306.516C317.338,306.498 317.139,306.583 316.993,306.265L320.904,302.925C321.59,302.295 322.206,302.218 323.082,302.481C327.379,303.793 328.939,300.665 329.171,300.2C329.792,298.972 330.887,298.188 332.226,297.819L334.174,297.432C333.841,297.13 331.882,295.349 328.615,296.618C328.032,296.847 327.555,296.934 326.949,296.698C324.71,295.784 322.925,296.365 322.004,298.665C321.793,299.179 321.604,299.644 321.104,299.919L313.127,304.334C312.631,304.613 312.187,304.57 311.682,304.341L300.816,299.426L293.65,295.763L297.572,292.893C298.699,292.037 297.883,290.74 296.916,290.222L293.483,288.509C280.322,281.894 276.609,268.886 275.996,266.738C275.722,265.79 275.478,264.692 275.785,263.704C276,263.08 276.384,262.693 277.107,262.8C277.828,262.912 278.352,263.508 278.662,264.11L279.518,266.143C279.904,267.188 282.284,273.621 286.717,278.068C287.518,278.877 288.423,279.422 289.55,279.626C290.241,279.756 291.372,280.016 291.717,279.085C292.054,278.153 291.144,277.253 290.595,276.736C286.573,272.841 285.412,267.506 285.217,266.609C284.924,265.308 285.364,263.509 287.017,263.532C288.609,263.554 289.774,265.253 290.161,266.617L292.028,273.068C292.423,274.248 294.648,280.881 301.427,285.451C302.834,286.408 304.948,286.656 306.272,285.393C307.202,284.523 306.973,283.222 306.26,282.302C305.717,281.6 305.017,281.084 304.272,280.621C303.675,280.242 299.989,277.904 297.85,274.548C297.472,273.952 295.189,270.34 295.95,265.928C296.199,264.426 297.472,264.627 298.439,265.356L300.05,267.052C301.323,268.743 310.26,280.615 316.705,287.61C321.439,292.788 326.667,291.863 327.582,291.702C328.177,291.598 332.123,290.91 334.003,287.736C334.585,286.753 334.93,285.493 334.2,284.487C333.456,283.472 332.188,283.36 331.018,283.486C329.751,283.641 322.706,284.501 315.949,278.253C310.822,273.504 306.61,265.829 305.96,264.645C305.315,263.504 304.882,262.206 304.894,260.88C304.926,259.844 305.66,259.806 306.383,260.326C307.075,260.815 307.587,261.456 308.06,262.147C312.956,269.123 318.096,272.325 319.149,272.98C324.955,276.61 329.241,276.079 330.146,275.967C334.369,275.45 334.977,271.543 335.063,270.99C335.406,268.768 333.83,267.693 331.78,268.324C330.689,268.66 324.559,270.545 317.704,265.966C312.311,262.344 307.811,255.71 307.116,254.686C306.294,253.466 305.931,252.011 306.105,250.55C306.225,249.664 306.929,249.403 307.727,249.643C308.571,249.886 309.221,250.454 309.827,251.054C315.601,256.676 319.98,258.949 320.971,259.464C321.617,259.801 326.135,262.157 329.829,261.579C332.48,261.173 335.042,257.922 334.866,255.738C334.766,254.225 333.65,253.131 332.159,252.964L329.415,253.134C322.164,253.922 317.423,250.238 316.582,249.585C315.869,249.028 313.051,246.83 308.316,241.871L307.716,241.052C307.564,240.793 306.703,238.964 307.538,238.508C308.375,238.031 309.132,238.804 309.705,239.266C315.219,243.659 320.265,245.193 321.271,245.499C322.007,245.723 326.821,247.193 330.864,246.153C334.282,245.283 334.823,242.354 334.909,241.891C335.347,239.54 333.454,237.799 331.153,238.162L328.882,238.909C328.24,239.265 324.679,241.243 319.727,239.523C315.813,238.16 311.632,234.888 310.994,234.389C309.571,233.286 308.146,232.286 307.005,230.887C306.354,230.076 305.817,228.699 306.638,227.796C307.429,226.947 308.693,227.543 309.471,228.071L314.305,230.987C315.202,231.432 321.075,234.345 326.549,233.609C330.717,233.049 334.355,229.573 335.078,225.409L335.03,223.655C334.681,222.416 333.543,221.796 332.305,222.096C331.252,222.351 330.449,222.961 329.615,223.645C323.465,228.77 316.824,226.154 315.782,225.744C315.208,225.52 312.851,224.602 309.205,221.726C308.188,220.93 307.267,220.081 306.883,218.787C306.541,217.614 307.149,216.798 308.394,217.029L309.938,217.461C311.158,217.908 319.083,220.809 326.104,218.983C327.034,218.742 333.213,217.142 334.889,210.795C335.262,209.409 334.943,207.62 333.658,206.788C332.443,205.983 330.95,206.563 329.904,207.368L328.015,208.987C321.708,214.153 311.295,211.912 309.86,211.604C308.289,211.268 307.046,209.549 307.227,207.951C307.405,206.434 309.012,206.172 310.26,206.292C315.29,206.772 323.529,205.882 331.294,198.996C331.782,198.562 334.494,196.153 335.42,191.949C335.526,191.486 336.169,188.667 333.734,186.253C332.504,185.042 330.776,185.219 329.726,186.557L328.749,188.03C323.855,195.381 316.398,199.59 308.149,199.763C307.164,199.784 306.711,199.416 306.216,198.594C305.588,197.528 304.604,196.534 303.261,196.767C301.708,197.046 292.594,198.681 283.962,200.783C283.251,200.956 283.041,201.426 283.062,202.114C283.096,203.244 283.42,204.385 283.751,205.453C284.773,208.903 283.707,211.427 283.506,211.903C283.293,212.415 281.863,215.853 276.907,214.059C272.627,212.52 271.588,208.137 271.429,207.47C270.292,202.586 271.977,200.002 272.329,199.461C275.991,193.865 281.945,193.186 282.928,193.074L293.95,193.197C294.413,193.214 298.196,193.358 299.705,192.596C300.356,192.264 300.758,191.896 300.85,191.122L296.405,191.408C293.831,191.418 291.622,188.844 291.317,188.488L292.839,188.762C293.547,188.985 298.436,190.526 301.95,190.554C302.489,190.559 306.646,190.599 308.327,188.35C308.663,187.877 308.882,187.399 308.871,186.802C308.862,185.626 307.901,184.705 306.716,185.178C305.867,185.514 305.253,186.145 304.627,186.793C303.453,187.985 301.835,188.493 300.172,188.525C299.681,188.539 297.13,188.614 294.094,187.634L292.428,186.808C293.637,185.866 294.86,185.108 296.405,184.841C298.116,184.556 299.497,185.383 300.538,186.686C300.686,186.866 300.772,187.194 301.083,187.152C301.177,186.65 301.792,183.351 297.783,181.688C296.35,181.105 294.96,180.886 293.417,180.647C292.993,180.573 292.784,180.733 292.661,180.248C292.251,178.832 291.119,178.109 289.906,177.369C289.21,176.948 285.112,174.467 280.029,174.957C279.329,175.022 275.749,175.358 271.252,174.69L265.763,173.691L271.185,179.512C266.151,180.004 263.61,182.49 263.108,182.982L263.174,183.359L268.218,185.021L268.196,185.303L263.519,185.462C261.964,185.584 260.556,186.034 259.33,187.025L261.73,188.394C262.095,188.607 262.617,189.051 261.974,189.408L255.942,193.747C255.374,194.155 255.079,193.668 254.786,193.271L251.182,188.179L248.887,185.213C248.37,184.598 248.492,184.22 249.198,184.267L251.475,184.458C249.442,181.502 243.343,177.56 242.565,177.057L242.643,176.725L247.92,178.343C244.67,173.044 240.422,169.985 239.632,169.416L243.119,167.993L245.065,166.925C243.853,166.443 236.922,163.687 230.554,159.506C225.405,156.115 221.214,156.835 220.388,156.977C219.524,157.137 218.602,157.343 218.255,158.253C218.056,158.768 217.803,158.721 217.344,158.58C215.707,158.07 213.932,157.601 212.189,157.915C210.104,158.288 209.261,160.306 209.778,162.215C210.564,161.534 211.215,160.811 212.322,160.845C213.793,160.876 217.528,163.659 218.188,165.252C216.772,165.427 215.3,165.113 213.944,164.791C213.18,164.614 207.94,163.399 205.5,159.801L204.555,158.78C203.962,158.279 203.268,157.689 202.489,158.208C201.756,158.702 201.85,159.642 202.067,160.385L203.144,162.093C204.36,163.483 206.055,164.289 207.778,164.87C208.571,165.137 211.962,166.28 218.022,166.978C218.66,167.048 219.081,167.067 219.577,167.454C216.629,169.403 213.499,167.806 213.033,167.568L209.966,166.183C210.03,166.997 210.474,167.486 211.055,167.997C212.201,169.015 213.548,169.632 214.955,170.181L223.166,173.576C231.509,177.161 236.022,184.266 236.799,185.488C240.39,191.141 239.715,195.418 239.576,196.3C239.086,199.471 235.894,200.967 234.043,200.524C233.305,200.346 228.517,199.194 227.088,194.074C226.098,190.619 226.887,188.486 227.055,188.033C227.432,187.014 227.732,186.052 227.732,184.948C227.721,184.294 227.491,183.808 226.966,183.401C216.881,175.554 209.047,171.705 207.378,170.885C206.695,170.55 206.048,170.592 205.433,171.04L204.289,172.272C203.996,172.8 203.638,172.828 203.1,172.701C192.948,170.38 187.136,164.928 186.014,163.875C185.594,163.486 183.665,161.696 181.53,158.308C180.105,156.037 177.747,156.465 176.469,158.606C174.817,161.395 175.619,163.811 175.762,164.242C177.605,169.766 182.728,172.647 183.551,173.11C184.843,173.834 192.643,178.209 201.189,178.719C202.225,178.778 202.993,179.418 203.378,180.352C203.768,181.298 203.629,182.19 202.956,182.959C202.278,183.741 201.384,184.145 200.344,184.116L195.34,183.998C186.726,183.681 182.622,179.816 181.781,179.024C181.225,178.501 180.589,178.071 179.854,177.839C178.482,177.424 177.199,178.199 176.642,179.459C176.251,180.35 176.181,181.286 176.418,182.226C177.479,186.288 180.259,187.966 180.77,188.274C181.354,188.627 184.011,190.232 188.977,190.617C189.946,190.695 193.868,191.011 201.1,189.848C202.155,189.685 203.232,189.546 203.855,190.54C204.435,191.457 203.555,192.885 202.911,193.489L202.589,193.737L197.7,196.292C196.317,196.846 188.232,200.32 181.253,194.461C180.607,193.908 179.857,193.519 179.009,193.387C177.802,193.197 176.864,194.03 176.591,195.162L176.588,197.031C177.485,201.437 181.341,204.783 186.293,204.745C187.155,204.74 190.817,204.722 196.822,202.507L201.722,200.378C202.534,200.013 203.301,200.101 203.944,200.758C204.602,201.441 204.69,202.238 204.344,203.087C204.088,203.726 203.62,204.235 203.033,204.586C202.36,205.009 197.861,207.834 194.36,209.442C193.469,209.855 187.214,212.751 182.087,209.831C181.46,209.474 180.736,209.435 180.04,209.44C177.969,209.466 176.857,211.591 177.159,213.441C177.489,215.425 178.793,217.046 180.813,217.465C182.513,217.818 184.47,217.702 186.152,217.402C193.598,216.056 200.056,212.279 201.167,211.629L201.8,211.304C202.316,211.134 202.753,211.028 203.178,211.406C203.593,211.773 203.596,212.259 203.5,212.783C203.366,213.631 202.887,214.265 202.244,214.795L196.205,219.563C189.987,224.549 184.348,224.402 183.242,224.373L180.688,224.319C178.492,224.304 177.273,226.225 177.451,228.261C177.625,230.262 179.864,232.621 181.864,232.832C183.557,233.021 185.5,232.51 187.037,231.917C192.292,229.87 199.827,224.266 200.867,223.493L202.567,222.591C203.728,222.323 204.647,223.04 204.667,224.233C204.688,225.537 204.409,226.841 203.533,227.863C202.967,228.55 199.983,232.171 195.543,235.605C189.771,240.08 184.845,240.151 183.84,240.165C182.415,240.183 181.085,239.908 179.683,239.628C178.603,239.41 177.647,240.051 177.378,241.11C176.886,243.023 178.419,246.701 180.573,247.079C184.324,247.773 188.453,245.853 189.08,245.562C196.512,242.147 201.739,236.049 202.633,235.006C203.139,234.409 203.664,233.837 204.4,233.535C205.216,233.169 205.802,233.616 205.811,234.483C205.833,235.855 205.387,237.089 204.644,238.221C200.827,244.024 197.001,247.706 196.238,248.44C195.342,249.304 189.849,254.6 182.055,254.814L179.991,254.843C178.183,255.09 177.297,256.848 177.811,258.518C178.09,259.463 178.577,260.281 179.376,260.88C183.903,264.331 190.384,262.791 193.987,259.1C202.26,250.643 202.004,250.692 210.633,242.309L212.3,241.142C213.54,240.699 214.519,241.392 214.744,242.648C215.355,246.035 214.198,248.383 213.977,248.83C213.646,249.503 212.198,252.447 206.467,254.442L204.611,255.418C203.522,256.391 203.604,257.866 204.611,258.862C205.851,260.077 207.618,260.795 209.333,260.196C216.224,257.764 218.305,252.448 218.677,251.497L220.566,245.801C221,244.522 222.364,243.775 223.621,244.373C224.923,244.962 225.879,246.625 225.544,248.052C225.379,248.766 224.233,253.731 220.422,255.639L219.233,256.545C218.622,257.323 218.985,258.207 219.777,258.67C220.961,259.366 222.453,259.771 223.755,259.169C228.37,257.011 230.804,251.777 231.177,250.975L232.043,249.442C232.441,248.903 233.017,248.8 233.621,249.078C234.297,249.389 234.683,249.98 234.876,250.67C235.158,251.697 235.041,252.618 234.699,253.6C230.725,265.209 220.173,266.139 217.033,266.337L213.7,266.621C212.368,266.817 212.32,268.112 213.066,268.984L216.222,272.665C216.469,272.941 216.743,273.098 216.722,273.494L215.844,273.614C207.028,274.49 200.38,276.071 199.056,276.386C198.453,276.526 198.022,276.462 197.511,276.101L190.856,271.64C189.817,270.984 189.119,270.227 188.718,269.044C188.196,267.534 186.92,266.694 185.357,267.339C184.101,267.843 183.062,267.759 181.788,267.436C180.253,267.034 178.803,267.822 177.836,268.977L178.297,269.033C180.097,269.043 181.695,269.9 182.432,271.593C183.004,272.885 184.255,273.623 185.64,273.693C186.536,273.746 187.408,273.674 188.257,273.354C188.821,273.14 189.231,273.231 189.658,273.655L193.66,277.472L193.682,277.549L185.815,277.829C184.729,277.92 183.956,277.63 183.166,276.89C180.747,274.596 178.075,274.909 176.003,277.549L174.988,278.093C173.565,278.449 172.577,279.594 172.113,280.943C173.586,279.706 175.615,280.121 177.13,281.022L177.472,281.167C177.918,281.327 180.809,282.363 183.288,280.095L184.008,279.817L193.804,280.102L191.606,281.676C190.349,282.665 188.792,283.137 187.202,282.873C183.315,282.168 181.729,285.269 181.497,285.723C181.204,286.304 179.332,290.016 179.412,293.586L179.551,294.163L180.404,292.356C181.121,291.034 182.324,289.743 183.971,290.264L185.048,290.303C187.029,290.176 188.658,288.958 189.078,286.97C189.258,286.062 189.691,285.518 190.51,285.103L192.143,284.229C196.345,282.257 196.317,282.382 197.311,281.666C197.641,281.435 197.919,281.538 198.289,281.669L204,283.862L204.789,284.51C206.244,287.362 208.32,288.384 211.089,288.379C212.349,288.379 213.484,288.663 214.533,289.393C215.479,290.046 215.411,291.017 215.633,292.046C216.839,290.611 216.385,288.629 215.222,287.335L213.422,284.824C212.596,283.285 210.896,282.221 209.122,282.717C208.083,283.022 207.262,282.768 206.355,282.254L201.933,279.889L204.844,279.192C208.131,278.557 215.154,277.945 216.053,277.866L219.755,277.466C220.29,277.405 220.62,277.695 220.955,278.055L224.944,282.396C225.792,283.275 226.99,283.736 227.866,282.613L229.277,280.755L234.721,272.939C235.178,272.394 238.252,268.729 241.698,267.421C243.994,266.571 246.842,268.599 247.42,271.531C248.136,275.219 246.536,278.333 246.265,278.861C245.674,280.022 242.495,286.271 233.565,289.052C233.085,289.201 230.409,290.03 227.288,288.699C225.95,288.139 224.462,287.75 222.999,288.096C221.524,288.448 221.496,289.811 222.155,290.931C222.951,292.267 224.101,293.135 225.421,293.891C226.111,294.277 231.615,297.357 235.287,294.471L237.532,293.072C238.263,292.677 239.008,292.999 239.587,293.47C240.226,294.019 240.582,294.719 240.509,295.571C240.478,296.072 240.262,296.463 239.898,296.793L236.299,299.527C235.716,299.873 232.38,301.852 227.932,300.852C227.21,300.69 226.451,300.718 225.755,300.978C224.592,301.348 224.679,302.513 225.266,303.356L227.021,305.025C231.338,308.009 235.522,306.669 236.232,306.442C237.712,305.963 239.859,304.55 241.043,303.706C241.85,303.106 242.475,302.574 243.276,303.315C244.085,304.056 244.004,305.129 243.665,306.11C243.161,307.697 242.321,309.363 241.154,310.583C239.944,311.832 238.199,312.397 236.487,312.357L233.588,311.858C231.966,311.538 231.526,312.903 232.143,314.167L232.688,315.065C234.513,317.606 238.587,319.151 240.754,318.121C243.582,316.795 245.84,312.774 246.153,312.215C246.615,311.409 246.945,310.654 247.987,311.075C249.084,311.516 249.357,312.581 249.653,313.622L249.875,315.337C249.779,318.756 248.075,320.73 247.753,321.102C246.612,322.441 244.955,323.596 243.454,324.446C242.903,324.737 243.003,325.089 243.265,325.578C244.206,327.275 248.213,334.499 254.897,346.863C255.133,347.301 255.319,347.571 255.675,347.094L257.875,344.391L267.196,333.408C267.704,332.826 267.459,332.436 266.996,331.908L263.963,327.887C263.527,327.231 260.655,322.92 260.686,318.605C260.686,317.693 260.871,316.721 261.563,316.05C262.287,315.332 263.207,316.011 263.663,316.654L264.452,318.259C264.781,319.054 267.027,324.491 269.896,327.537C272.496,330.294 276.657,330.749 278.262,328.808C279.358,327.453 278.203,325.83 276.796,325.402C275.796,325.101 270.404,323.475 267.696,316.038C267.269,314.878 266.592,313.386 266.73,312.043C266.767,311.658 266.771,311.059 267.285,310.959C267.874,310.84 268.39,311.412 268.685,311.785L271.163,314.983C271.656,315.611 274.945,319.8 278.707,321.524C282.269,323.142 284.432,322.043 284.873,321.819C286.474,320.994 285.462,319.315 284.406,318.581L282.584,317.614C276.445,315.553 271.15,307.291 270.429,306.166C269.963,305.43 269.697,304.103 270.663,303.598C271.623,303.063 272.709,303.962 273.285,304.659L276.418,308.394C277.301,309.395 278.297,310.351 279.54,310.906C280.033,311.129 282.748,312.355 286.239,311.874C287.068,311.759 287.728,311.377 288.306,310.788C289.461,309.583 288.546,308.132 287.428,307.339C286.097,306.382 284.722,305.998 283.128,305.789C279.922,305.421 277.621,303.228 277.24,302.865L273.174,298.868C272.133,297.746 266.228,291.385 263.552,282.34C263.407,281.848 262.367,278.336 263.341,275.937C264.265,273.633 266.785,274.351 268.274,275.573L270.307,277.671C274.069,282.541 275.6,285.405 275.985,286.123L282.595,299.251C283.289,300.493 284.392,301.442 285.817,300.629L289.572,298.41C290.057,298.086 290.455,298.133 290.95,298.433C294.815,300.712 300.756,303.381 301.627,303.772L308.594,307.086L303.694,308.391C302.938,308.532 302.37,308.406 301.716,307.992C300.38,307.156 298.421,306.781 297.316,308.22L295.183,310.335C293.802,311.391 294.029,313.363 294.917,314.645C295.23,312.296 297.054,312.297 299.005,312.689L300.039,313.061C304.011,314.54 305.47,311.627 305.683,311.202C305.907,310.741 306.233,310.585 306.716,310.5L311.538,309.719C312.546,309.494 313.234,309.62 314.038,310.317L316.638,311.913L320.593,314.155C321.146,314.531 321.454,314.908 321.582,315.578C321.937,317.509 323.326,318.808 325.238,319.161C326.103,319.329 326.967,319.273 327.815,319.051C328.52,318.871 328.97,319.103 329.482,319.556C330.501,320.445 331.037,321.602 331.644,322.795L331.756,321.336C331.756,319.556 331.066,317.987 330.542,316.31C328.924,311.257 324.656,311.742 324.027,311.814C321.243,312.115 318.791,310.229 318.416,309.941C317.784,309.46 317.307,309.31 316.927,308.635L326.927,308.697L327.804,308.906C328.25,309.279 330.975,311.561 335.072,309.067C336.595,308.127 338.413,307.788 340.115,308.455L340.335,308.334C339.814,307.235 338.862,306.49 337.669,306.366Z"/>
                <path d="M281.64,180.228C282.643,179.915 283.803,180.226 284.751,180.505C285.828,180.823 286.786,181.21 287.65,181.958C288.354,182.557 288.876,183.695 287.739,184.183C286.635,184.661 282.819,183.646 281.562,182.416C280.928,181.795 280.455,180.581 281.64,180.228ZM229.066,166.27C228.594,166.384 226.139,166.976 223.166,164.876C222.72,164.564 222.288,164.093 222.299,163.494C222.321,162.906 222.754,162.683 223.233,162.546C223.996,162.326 224.927,162.351 225.688,162.552C226.933,162.834 228.085,163.141 229.077,163.961C229.795,164.56 230.421,165.949 229.066,166.27Z" style="fill:rgb(228,30,32);"/>
            </g>
        </g>
    </g>
</svg>
