<?xml version="1.0" encoding="UTF-8" standalone="no"?>
<!DOCTYPE svg PUBLIC "-//W3C//DTD SVG 1.1//EN" "http://www.w3.org/Graphics/SVG/1.1/DTD/svg11.dtd">
<svg width="100%" height="100%" viewBox="0 0 512 512" version="1.1" xmlns="http://www.w3.org/2000/svg" xmlns:xlink="http://www.w3.org/1999/xlink" xml:space="preserve" xmlns:serif="http://www.serif.com/" style="fill-rule:evenodd;clip-rule:evenodd;stroke-linejoin:round;stroke-miterlimit:2;">
    <g>
        <g>
            <path d="M100.444,108.861C77.104,111.835 55.74,130.85 58.828,156.107C63.749,196.349 71.735,219.194 72.083,253.166C72.44,288.108 64.155,323.962 59.699,355.921C56.353,379.924 75.267,400.977 100.472,397.677C174.478,387.987 189.083,376.556 255.997,398.399C255.997,302.12 255.997,205.842 255.997,109.563C189.109,88.298 174.539,99.416 100.444,108.861Z" style="fill:rgb(0,98,51);fill-rule:nonzero;"/>
            <path d="M411.553,116.384C327.524,129.42 326.039,131.832 255.997,109.563C255.997,205.842 255.997,302.12 255.997,398.399C298.126,412.151 315.242,422.462 412.318,408.636C435.684,405.308 458.974,381.556 461.247,357.894C471.963,246.325 470.85,244.51 459.378,156.216C456.362,133 437.012,112.436 411.553,116.384Z" style="fill:rgb(238,238,238);fill-rule:nonzero;"/>
            <path d="M278.218,327.861C248.824,318.662 211.555,283.084 211.555,242.651C211.555,212.062 233.611,180.567 278.218,194.527C299.038,201.042 314.444,213.901 317.182,216.187C302.127,197.476 277.625,179.315 255.997,172.254C205.707,155.839 176.052,198.64 176.005,242.842C175.977,268.545 186.279,286.067 194.23,295.081C209.304,312.174 234.76,328.733 255.997,335.666C265.833,338.876 294.641,347.222 317.182,324.231C308.389,329.603 295.054,333.129 278.218,327.861Z" style="fill:rgb(210,15,52);fill-rule:nonzero;"/>
            <path d="M337.348,273.356C335.735,273.768 323.347,277.15 310.016,278.007C309.201,287.099 308.386,296.19 307.571,305.281C306.406,303.127 300.872,292.895 293.261,278.217C283.374,277.898 268.316,276.401 266.152,276.186C277.55,266.85 282.971,262.229 284.417,260.996C283.265,258.733 278.463,249.299 270.118,232.654C285.653,244.334 293.614,249.719 295.705,251.133C305.503,242.332 312.554,235.198 313.971,233.763C313.156,242.881 312.342,251.999 311.527,261.117C323.996,268.357 335.207,272.555 337.348,273.356Z" style="fill:rgb(210,15,52);fill-rule:nonzero;"/>
        </g>
    </g>
</svg>
