<?xml version="1.0" encoding="UTF-8" standalone="no"?>
<!DOCTYPE svg PUBLIC "-//W3C//DTD SVG 1.1//EN" "http://www.w3.org/Graphics/SVG/1.1/DTD/svg11.dtd">
<svg width="100%" height="100%" viewBox="0 0 512 512" version="1.1" xmlns="http://www.w3.org/2000/svg" xmlns:xlink="http://www.w3.org/1999/xlink" xml:space="preserve" xmlns:serif="http://www.serif.com/" style="fill-rule:evenodd;clip-rule:evenodd;stroke-linejoin:round;stroke-miterlimit:2;">
    <g>
        <g>
            <g>
                <path d="M461.247,357.894C458.987,381.418 435.567,405.324 412.318,408.636C308.939,423.36 296.194,410.772 244.032,394.61C189.598,377.745 160.51,389.816 100.472,397.677C75.39,400.961 56.369,379.807 59.699,355.921C64.445,321.88 73.245,285.12 71.958,247.429C70.917,216.956 63.537,194.612 58.828,156.107C55.755,130.971 77.243,111.818 100.444,108.861C182.392,98.415 187.662,88.078 259.985,110.838C325.827,131.557 327.444,129.432 411.553,116.384C436.871,112.457 456.376,133.113 459.378,156.216C470.836,244.4 471.98,246.152 461.247,357.894Z" style="fill:rgb(0,36,125);fill-rule:nonzero;"/>
                <path d="M435.931,120.436C350.389,161.028 347.586,178.303 262.831,181.329C240.973,182.109 210.185,181.412 173.782,200.5C135.876,220.378 111.163,245.374 72.092,256.724L72.09,257.16C180.159,290.89 185.458,278.961 247.795,320.615C319.558,368.568 319.557,371.437 437.378,397.402C440.3,395.144 459.061,380.644 461.247,357.894C471.963,246.325 470.85,244.51 459.378,156.216C457.215,139.572 447.139,126.442 435.931,120.436Z" style="fill:rgb(189,23,33);fill-rule:nonzero;"/>
                <path d="M450.662,383.803C459.974,371.147 461.033,360.123 461.247,357.894C471.963,246.325 470.85,244.51 459.378,156.216C457.544,142.101 449.956,132.747 448.576,131.045C364.123,168.211 354.642,194.056 264.485,197.284C182.033,200.237 184.821,212.779 113.475,254.013C202.14,276.646 203.759,274.775 279.471,326.272C329.932,360.594 354.058,362.321 450.662,383.803Z" style="fill:rgb(238,238,238);fill-rule:nonzero;"/>
                <path d="M300.438,284.396C301.358,284.749 308.681,287.56 312.538,286.681L320.604,284.934L327.327,292.463L330.021,285.768L335.081,287.045L334.608,289.301C334.733,289.338 338.796,289.356 338.792,290.959L338.319,295.011L351.583,297.327L354.038,292.197C354.922,292.848 362.59,298.497 366.198,298.54C367.162,298.555 367.001,298.368 378.212,297.548C378.819,297.504 381.26,297.38 382.093,297.83L388.515,300.936C391.344,301.096 423.876,302.94 423.854,303.341C423.75,305.155 421.953,306.514 420.216,306.502C414.386,306.462 371.893,305.156 365.598,303.976C359.782,302.883 352.073,306.692 351.001,307.222L351.052,302.301L336.428,299.108L335.043,302.735L331.372,302.795L330.008,305.934L325.082,304.487L325.971,297.79C325.509,297.722 321.875,297.19 320.16,298.329L315.682,300.543C315.284,299.763 313.02,295.339 308.949,291.915L300.438,284.396Z" style="fill:rgb(216,149,0);fill-rule:nonzero;"/>
                <path d="M346.687,311.143C370.591,311.355 411.704,307.615 416.716,307.444C421.446,307.299 419.235,310.755 416.47,311.494C414.757,311.956 371.293,316.285 346.633,316.064C345.795,316.908 343.791,318.238 343.774,319.834C343.77,320.21 352.814,320.492 369.188,318.772L366.708,321.4C367.861,321.318 376.752,320.685 380.974,319.111C381.529,318.903 385.48,314.602 386.029,315.557C386.691,316.756 383.504,320.655 383.885,320.603L395.843,317.938L387.741,322.912L399.458,325.54C398.796,325.79 393.511,327.785 390.992,328.127C388.527,328.462 384.12,327.982 384.626,328.037C385.053,328.562 388.4,332.675 391.307,333.225C390.4,333.128 381.608,332.183 380.131,330.941C379.391,330.313 379.734,332.846 379.643,333.813C374.29,331.203 374.36,331.244 374.292,331.193C373.775,330.809 369.379,327.542 367.182,327.425C366.717,327.4 365.609,328.868 365.615,328.481L368.432,332.785C367.47,332.89 361.254,333.563 356.44,331.202C354.499,330.245 343.05,327.05 341.876,326.722C334.963,324.793 331.726,322.971 330.907,322.51C329.986,321.99 320.868,316.841 322.382,312.402C323.686,308.58 329.646,310.108 329.093,309.966C329.59,309.844 332.755,309.069 335.47,309.434C336.01,309.509 341.83,306.873 342.931,307.336C343.762,307.686 344.404,308.133 345.06,308.747L346.687,311.143Z" style="fill:rgb(216,149,0);fill-rule:nonzero;"/>
                <path d="M415.753,232.802C421.951,233.284 435.907,229.045 437.612,228.527C438.405,228.286 446.424,225.851 447.847,226.978C448.486,227.481 448.996,230.494 449.443,229.529C450.358,229.863 452.387,230.573 452.45,231.963L452.509,233.308C453.303,234.448 454.028,236.718 452.689,237.788C452.887,238.233 454.803,242.55 451.429,243.739C452.293,245.04 451.871,247.984 450.096,248.351L448.701,252.971C446.067,252.818 435.573,252.21 415.735,252.139C415.752,250.592 415.84,242.66 415.753,232.802Z" style="fill:white;fill-rule:nonzero;"/>
                <path d="M449.355,253.878C446.594,253.713 435.776,253.069 414.793,253.011L414.795,252.286C414.813,250.655 414.906,242.3 414.806,231.89L415.962,231.979C421.97,232.439 435.731,228.256 437.404,227.747L440.287,226.821C440.907,226.614 446.477,224.748 448.454,226.35C449.201,226.933 450.231,227.914 450.366,228.987C451.461,229.469 453.276,230.408 453.344,231.9L453.395,233.034C454.292,234.444 454.917,236.51 453.726,237.959C454.238,239.414 454.539,241.262 453.813,242.724C453.55,243.277 453.126,243.722 452.629,244.071C453.1,245.1 453.378,246.373 452.845,247.44C452.437,248.267 451.655,248.762 450.81,249.033L449.355,253.878ZM416.676,251.313C435.387,251.389 445.54,251.958 448.046,252.098L449.38,247.659L449.957,247.539C450.349,247.455 451.016,247.265 451.219,246.812C451.59,246.061 450.981,244.728 450.648,244.222L450.068,243.349L451.154,242.961C451.615,242.797 451.968,242.54 452.187,242.091C452.744,240.975 452.267,239.087 451.851,238.15L451.589,237.581L452.114,237.168C453.048,236.415 452.528,234.438 451.727,233.788L451.599,233.609L451.53,232.042C451.498,231.319 449.122,230.336 449.058,230.312L448.237,230.021L448.598,229.25C447.848,229.321 447.344,227.722 447.228,227.629C445.975,226.628 441.269,228.209 440.776,228.375L437.82,229.329C436.169,229.831 423.229,233.762 416.686,233.694C416.698,235.104 416.762,242.661 416.676,251.313Z" style="fill:rgb(102,117,127);fill-rule:nonzero;"/>
                <path d="M380.276,286.906C379.847,287.827 375.676,296.783 374.118,298.017C373.468,298.534 367.396,303.369 365.623,303.974C364.905,304.223 363.611,307.12 363.624,306.441L357.723,310.195C356.315,311.197 357.672,311.428 358.673,311.44L361.906,311.577L363.518,311.817C363.06,312.279 360.465,314.715 361.486,316.064C362.626,317.563 363.009,316.771 371.193,317.579C374.774,317.946 379.121,315.868 379.161,314.74C379.212,313.267 378.355,308.93 378.31,310.402C378.293,310.963 378.743,310.158 384.376,306.881C387.034,305.335 388.856,301.4 388.078,299.649C386.647,296.504 390.382,290.16 390.811,289.431C393.364,285.115 390.209,280.529 387.918,280.442C385.871,280.395 381.226,284.72 380.276,286.906Z" style="fill:rgb(255,194,32);fill-rule:nonzero;"/>
                <path d="M342.073,253.16C346.318,250.24 349.589,245.342 350.112,244.558C348.679,242.894 343.946,245.222 343.465,245.459C342.423,245.971 332.033,251.081 329.127,247.677C325.593,243.513 330.301,237.098 335.951,235.03C344.64,231.87 340.7,227.193 340.246,225.809C338.65,220.94 346.667,216.936 347.511,216.514C349.53,215.505 372.298,207.432 372.814,207.123C377.86,204.096 376.615,203.23 379.594,197.942L379.891,200.312L380.527,203.826C381.662,203.377 390.84,199.745 394.501,197.701C397.855,195.829 400.886,191.252 400.514,191.814L401.696,194.796C402.696,194.538 410.429,192.546 413.612,189.818C414.391,189.147 415.347,188.55 416.358,188.3C416.936,188.157 420.037,188.896 419.372,188.523C420.436,188.114 428.904,184.858 432.364,182.681C440.361,177.663 440.578,181.564 440.467,182.204C439.428,188.246 435.107,202.923 433.681,205.168C433.414,205.593 430.796,214.88 429.527,216.057C426.631,218.755 408.48,230.71 406.618,231.937C407.744,231.819 416.659,230.884 420.766,231.682C424.829,232.465 422.798,237.67 422.972,237.225C423.63,238.246 424.053,239.443 424.089,240.665C424.117,241.649 420.771,243.535 421.634,243.26C422.644,243.478 424.009,244.474 423.707,245.672C423.403,246.917 418.53,248.204 419.728,248.035C420.667,247.902 424.712,251.252 424.348,252.328C424.212,252.72 413.098,252.807 412.205,253.165C412.613,254.786 414.297,255.795 415.789,256.242C418.329,256.998 418.474,258.306 416.336,259.76C416.066,259.942 410.927,263.682 413.817,263.262C414.97,263.094 417.844,263.739 415.843,265.215C415.208,265.679 417.37,265.591 418.144,265.731C419.818,266.034 417.781,267.781 417.357,268.133C412.8,271.935 411.239,272.163 411.78,272.084C412.105,272.391 416.307,276.34 414.251,277.097C412.237,277.83 406.321,275.88 405.659,275.662C405.832,276.159 407.142,279.931 409.646,280.898C409.079,281.295 404.018,284.842 401.03,281.718C401.075,282.218 401.464,286.588 402.941,287.697C402.514,287.823 399.895,288.592 397.394,287.179C397.163,287.607 395.306,291.057 396.265,293.15L391.357,286.713L384.31,285.947L380.205,292.771C379.862,292.188 377.764,288.621 378.312,284.519C378.692,281.623 378.199,273.92 377.863,272.484C377.379,270.358 370.641,264.789 366.375,264.51C361.983,264.224 353.285,264.954 352.15,265.049L341.127,253.23" style="fill:rgb(156,57,0);fill-rule:nonzero;"/>
                <path d="M318.804,278.047C322.94,279.831 329.174,279.815 331.394,275.45C334.349,269.648 323.549,266.939 319.704,268.721C315.519,270.674 312.655,275.01 312.994,277.337C313.447,280.602 317.965,282.617 317.471,282.396L318.804,278.047Z" style="fill:rgb(255,194,32);fill-rule:nonzero;"/>
                <path d="M317.916,269.433L320.16,275.029C321.056,275.107 325.508,275.497 331.394,275.45C332.739,274.354 342.113,266.715 350.703,265.579C356.713,264.791 356.603,264.577 361.329,261.039C358.622,260.622 358.818,260.047 356.007,260.181L361.77,255.791C360.658,255.8 359.561,255.471 358.449,255.471C357.296,255.471 356.144,255.615 355.005,255.793C357.262,254.156 356.656,253.913 358.574,251.718C357.629,251.833 356.666,251.673 355.721,251.781C354.494,251.921 353.271,252.137 352.078,252.459C352.138,252.416 352.087,252.463 356.047,248.116C354.817,248.3 353.552,248.13 352.32,248.303C351.092,248.475 349.884,248.789 348.696,249.147L350.096,244.104C349.434,244.887 344.448,250.779 340.648,252.775C339.262,253.503 327.631,259.612 322.838,260.888C320.601,261.496 320.567,263.153 320.16,265.162L319.25,267.49L317.916,269.433Z" style="fill:white;fill-rule:nonzero;"/>
                <path d="M331.712,276.28C325.342,276.341 320.58,275.902 319.616,275.813L316.971,269.196L317.271,268.841C318.08,268.122 319.141,265.95 319.36,264.923L319.538,263.784C319.792,261.904 320.709,260.589 322.593,260.083C327.393,258.802 338.897,252.769 340.273,252.048C343.903,250.145 343.432,249.737 349.427,243.611L351.981,240.591L349.947,247.929C350.467,247.783 355.927,246.248 356.691,247.794C357.256,248.893 355.828,250.339 355.283,250.885C356.305,250.705 358.503,250.243 359.131,251.533C359.678,252.632 358.281,254.049 357.726,254.599L357.835,254.589C358.943,254.479 361.958,253.915 362.45,255.588C362.927,257.285 360.175,258.744 359.152,259.383C360.082,259.482 361.869,259.793 361.876,261.122C361.882,262.319 357.589,265.518 350.764,266.407C345.098,267.157 333.744,274.321 331.951,276.089L331.712,276.28ZM320.716,274.243L331.098,274.619C332.469,273.526 342.049,265.886 350.664,264.759C356.035,264.051 359.923,261.604 360.037,261.305L355.975,261.029L352.209,261.187L355.653,259.469C356.071,259.256 359.569,257.481 360.554,256.247C359.32,255.97 355.855,256.512 355.083,256.631L351.795,257.13L354.52,255.159C354.967,254.833 357.007,253.234 357.407,252.395C356.335,252.161 352.784,253.138 352.275,253.276L347.979,254.414L351.596,251.821C352.131,251.434 354.465,249.631 354.965,248.679C353.71,248.49 349.399,249.798 348.927,249.942L347.471,250.381L348.305,247.353C343.883,252.025 341.731,253.157 341.058,253.511C339.663,254.248 328.039,260.381 323.115,261.706C321.683,262.098 321.363,262.846 321.193,264.148L320.982,265.398C320.678,266.913 319.795,268.429 318.882,269.643L320.716,274.243Z" style="fill:rgb(102,117,127);fill-rule:nonzero;"/>
                <path d="M328.471,265.583C329.013,266.687 327.9,267.812 326.982,268.243C326.041,268.697 324.485,268.808 323.938,267.698C323.404,266.587 324.498,265.502 325.427,265.08C326.349,264.648 327.924,264.482 328.471,265.583Z" style="fill-rule:nonzero;"/>
            </g>
        </g>
    </g>
</svg>
