<?xml version="1.0" encoding="UTF-8" standalone="no"?>
<!DOCTYPE svg PUBLIC "-//W3C//DTD SVG 1.1//EN" "http://www.w3.org/Graphics/SVG/1.1/DTD/svg11.dtd">
<svg width="100%" height="100%" viewBox="0 0 512 512" version="1.1" xmlns="http://www.w3.org/2000/svg" xmlns:xlink="http://www.w3.org/1999/xlink" xml:space="preserve" xmlns:serif="http://www.serif.com/" style="fill-rule:evenodd;clip-rule:evenodd;stroke-linejoin:round;stroke-miterlimit:2;">
    <g>
        <g>
            <g>
                <path d="M461.247,357.894C458.987,381.418 435.567,405.324 412.318,408.636C308.939,423.36 296.194,410.772 244.032,394.61C189.598,377.745 160.51,389.816 100.472,397.677C75.39,400.961 56.369,379.807 59.699,355.921C64.445,321.88 73.245,285.12 71.958,247.429C70.917,216.956 63.537,194.612 58.828,156.107C55.755,130.971 77.243,111.818 100.444,108.861C182.392,98.415 187.662,88.078 259.985,110.838C325.827,131.557 327.444,129.432 411.553,116.384C436.871,112.457 456.376,133.113 459.378,156.216C470.836,244.4 471.98,246.152 461.247,357.894Z" style="fill:rgb(208,28,58);fill-rule:nonzero;"/>
                <path d="M100.444,108.861C77.243,111.818 55.755,130.971 58.828,156.107C63.896,197.549 72.023,219.664 72.094,255.171C72.162,289.17 64.081,324.492 59.699,355.921C56.369,379.807 75.39,400.961 100.472,397.677C124.511,394.53 161.227,387.063 189.323,386.155C189.199,363.074 189.333,363.22 189.333,97.638C161.905,98.503 123.034,105.981 100.444,108.861Z" style="fill:rgb(0,32,168);fill-rule:nonzero;"/>
                <path d="M189.333,97.638C238.99,96.075 278.553,123.038 322.66,125.871C322.66,222.295 322.66,318.719 322.66,415.143C278.546,412.234 239.006,384.551 189.323,386.155C189.199,363.074 189.333,363.22 189.333,97.638Z" style="fill:rgb(254,223,0);fill-rule:nonzero;"/>
                <path d="M311.938,287.747C310.215,282.368 305.683,282.645 305.683,284.158C304.279,282.868 300.466,277.401 304.183,271.592C306.63,272.381 311.853,272.616 307.927,266.601C310.382,265.652 315.475,261.401 315.66,254.807C315.891,246.563 305.705,239.204 301.683,241.629C301.592,240.371 301.204,238.041 299.683,237.691C298.782,237.483 296.619,239.922 296.939,239.283C296.971,238.565 297.192,233.64 300.927,231.228C313.82,222.936 297.481,213.855 296.172,213.128C279.061,203.613 280.444,215.08 281.695,216.59C281.035,216.758 277.711,217.608 273.207,215.912C269.606,214.563 272.664,208.652 272.951,208.096C273.978,206.122 272.838,197.856 267.696,196.405C263.16,195.117 260.288,197.086 259.964,197.1L255.997,196.032C254.594,195.925 253.132,195.274 251.997,194.481C251.862,194.387 248.7,190.369 244.265,188.814C239.242,187.054 237.94,194.503 239.021,197.24C239.245,197.81 242.365,205.744 238.765,204.9C234.275,203.859 229.686,200.147 230.277,200.625C232.899,198.927 230.856,187.93 215.8,190.084C205.372,191.577 202.801,198.142 211.055,206.363C214.797,210.09 215.019,215.102 215.055,215.93C214.614,214.871 213.586,213.454 212.3,213.275C211.757,213.199 211.345,213.49 211.065,213.918L210.311,216.502C205.961,212.389 196.098,218.035 196.323,226.351C196.513,233.056 201.889,238.221 204.067,239.611C199.239,245.765 207.242,245.659 207.811,245.651C211.691,252.92 207.377,257.1 206.311,257.772C206.311,256.209 201.794,254.773 200.044,259.872C198.311,264.955 202.962,266.806 203.555,267.042C202.378,268.479 194.227,278.427 207.8,289.872C210.24,291.93 232.263,299.105 234.01,299.704C240.466,301.929 242.01,306.375 241.754,305.638C238.773,307.595 240.422,311.808 244.254,314.889C245.746,320.306 251.212,317.048 251.742,316.732L255.997,321.866L260.241,319.514C260.645,320.016 266.241,326.981 267.73,322.483C270.123,322.074 274.072,319.71 270.229,314.801C271.469,312.002 277.362,313.395 277.973,313.54C280.021,314.027 299.049,318.558 304.183,315.803C308.71,313.373 316.513,305.977 308.427,294.146C308.427,294.5 313.463,292.496 311.938,287.747Z" style="fill:rgb(199,179,127);fill-rule:nonzero;"/>
                <path d="M253.997,249.315L253.997,216.359C251.396,215.517 233.975,209.871 221.044,207.295L221.044,240.251C233.975,242.827 251.396,248.472 253.997,249.315Z" style="fill:rgb(208,28,58);fill-rule:nonzero;"/>
                <path d="M233.032,230.433L223.233,238.201L224.766,240.278L233.032,233.177L233.032,230.433ZM249.131,222.29C250.391,223.017 253.475,222.969 253.475,220.935C253.475,217.047 250.472,216.093 250.009,215.946C249.147,215.672 245.175,214.681 245.009,216.63C244.926,217.705 246.826,219.57 245.665,220.331L242.309,222.348L243.765,224.518C245.144,223.791 246.484,222.698 247.509,221.525C248.317,220.608 247.073,217.328 248.509,217.461C249.688,217.588 251.862,218.376 251.631,219.963C251.532,220.634 249.354,221.366 250.009,221.19L249.131,222.29Z" style="fill:rgb(254,223,0);fill-rule:nonzero;"/>
                <path d="M241.02,237.155C241.086,237.662 241.642,241.953 243.887,242.877C244.718,243.219 248.389,237.085 250.564,237.778C254.042,238.886 254.443,245.491 250.564,245.211L250.009,243.168C250.651,242.73 251.864,240.978 250.753,240.394C249.173,239.58 248.118,241.108 247.764,242.461C247.294,244.153 245.494,245.363 243.765,244.84C240.253,243.778 239.095,238.041 238.954,237.343C238.869,236.913 238.75,236.079 239.187,236.05C239.899,236.003 241.523,237.661 241.02,237.155ZM234.354,235.274C234.159,236.669 233.525,239.687 231.477,239.385C231.073,239.325 226.382,230.959 224.799,230.608C221.417,229.859 220.815,236.179 224.799,238.041L225.355,236.299C225.074,235.955 223.385,233.105 224.61,233.122C226.391,233.165 227.274,235.397 227.599,236.817C228.024,238.58 229.969,240.998 231.588,241.413C235.101,242.315 236.278,237.151 236.399,236.621C236.471,236.308 236.604,235.47 236.18,235.201C235.666,234.875 233.797,235.521 234.354,235.274Z" style="fill:white;fill-rule:nonzero;"/>
                <path d="M238.154,212.859L247.764,227.972L242.954,239.607C241.589,238.397 239.885,237.562 238.143,237.067L235.258,236.622L233.021,236.797L227.91,222.28L238.154,212.859Z" style="fill:white;fill-rule:nonzero;"/>
                <path d="M238.954,217.332L245.665,227.387L242.265,236.657L239.021,234.707C238.998,228.915 238.976,223.123 238.954,217.332ZM236.743,216.706L230.032,222.986L233.432,234.161L236.676,234.043L236.743,216.706ZM221.044,243.24L221.044,263.717C221.044,265.773 221.044,280.478 239.354,281.747C246.129,282.201 252.908,285.707 253.997,286.271L253.997,252.304C251.396,251.461 233.975,245.816 221.044,243.24Z" style="fill:rgb(254,223,0);fill-rule:nonzero;"/>
                <path d="M239.354,281.747L240.021,281.807L240.021,247.973L235.021,246.565L235.021,281.099L239.354,281.747ZM250.009,284.479L250.009,251.024L245.009,249.463L245.009,282.775L250.009,284.479ZM230.032,279.364L230.032,245.264L225.044,244.085L225.044,275.651C225.374,276.024 227.063,277.931 230.032,279.364Z" style="fill:rgb(208,28,58);fill-rule:nonzero;"/>
                <path d="M257.997,250.62L257.997,217.665C260.622,218.526 282.37,225.665 290.95,228L290.95,260.955C282.37,258.62 260.622,251.482 257.997,250.62Z" style="fill:rgb(254,223,0);fill-rule:nonzero;"/>
                <path d="M261.986,218.978L266.985,220.627L266.985,253.583L261.986,251.934L261.986,218.978ZM271.974,222.257L276.973,223.858L276.973,256.814L271.974,255.213L271.974,222.257ZM281.962,225.404L286.95,226.88L286.95,259.835L281.962,258.36L281.962,225.404Z" style="fill:rgb(208,28,58);fill-rule:nonzero;"/>
                <path d="M290.95,263.944L290.95,284.422C290.95,302.315 274.044,293.146 272.64,292.384C265.73,288.62 259.219,287.741 257.997,287.576L257.997,253.609C260.622,254.471 282.37,261.609 290.95,263.944Z" style="fill:rgb(254,223,0);fill-rule:nonzero;"/>
                <path d="M262.985,260.742L266.107,259.271L269.974,260.54L269.974,262.551L279.962,265.192C283.933,266.005 285.667,269.923 284.451,270.328C284.007,270.481 285.315,270.753 284.451,276.195C284.288,277.223 281.382,278.939 281.951,278.067C282.877,276.633 281.636,271.267 281.951,272.945C281.611,273.971 281.253,275.417 280.329,276.194C279.756,276.682 277.528,275.893 277.951,275.71C279.055,275.235 279.91,273.914 279.073,272.816C278.644,272.254 274.613,269.664 274.118,270.627C273.505,271.875 274.48,274.834 272.718,275.165C271.741,275.317 271.862,273.507 271.963,273.176C272.322,271.981 271.775,268.198 271.963,269.432C271.18,269.138 269.384,268.786 269.463,269.618C269.577,270.613 270.767,271.49 270.474,272.448C270.132,273.495 268.565,273.447 268.474,272.294C268.39,271.321 265.654,268.998 266.974,268.557L269.229,267.375C268.25,266.83 267.383,265.84 266.83,264.887C265.928,263.357 264.694,262.939 262.985,262.375C262.45,262.198 263.244,260.405 262.985,260.742ZM262.985,275.73L266.107,274.26L269.974,275.529L269.974,277.529L279.962,280.17C283.94,280.994 285.663,284.903 284.451,285.317C284.007,285.47 285.309,285.742 284.451,291.183C284.288,292.212 281.378,293.926 281.951,293.056C282.877,291.622 281.636,286.256 281.951,287.934C281.608,288.964 281.246,290.399 280.329,291.183C279.761,291.668 277.503,290.886 277.951,290.688C279.051,290.214 279.915,288.887 279.073,287.794C278.642,287.229 274.627,284.636 274.118,285.594C274.095,285.642 274.27,289.851 272.718,290.143C271.743,290.273 271.857,288.495 271.963,288.143C272.325,286.948 271.776,283.164 271.963,284.398C271.179,284.108 269.383,283.752 269.463,284.584C269.577,285.579 270.767,286.456 270.474,287.414C270.133,288.472 268.565,288.419 268.474,287.26C268.389,286.288 265.652,283.965 266.974,283.523L269.229,282.341C268.252,281.798 267.385,280.815 266.83,279.865C265.93,278.329 264.697,277.918 262.985,277.353C262.453,277.177 263.245,275.396 262.985,275.73Z" style="fill:rgb(208,28,58);fill-rule:nonzero;"/>
                <path d="M218.544,279.217C218.544,280.145 237.291,289.073 238.954,289.865C241.199,290.908 239.945,294.723 237.521,293.824C236.791,293.556 219.723,285.589 219.422,285.38C217.132,283.781 219.213,275.396 218.544,279.217ZM243.765,291.718L253.997,295.882C258.808,297.632 262.639,298.411 261.986,298.278L265.363,303.971C264.566,303.794 259.577,302.688 255.497,301.358L245.009,297.397L243.765,291.718ZM267.73,299.449L280.351,300.923L292.961,300.939C294.644,301.117 295.561,304.169 296.194,304.844L296.694,305.379C295.731,305.594 288.999,307.101 284.462,307.031C280.004,306.978 269.058,304.882 267.73,304.627C267.655,304.406 265.639,299.145 267.73,299.449Z" style="fill:rgb(175,145,103);fill-rule:nonzero;"/>
            </g>
        </g>
    </g>
</svg>
