<?xml version="1.0" encoding="UTF-8" standalone="no"?>
<!DOCTYPE svg PUBLIC "-//W3C//DTD SVG 1.1//EN" "http://www.w3.org/Graphics/SVG/1.1/DTD/svg11.dtd">
<svg width="100%" height="100%" viewBox="0 0 512 512" version="1.1" xmlns="http://www.w3.org/2000/svg" xmlns:xlink="http://www.w3.org/1999/xlink" xml:space="preserve" xmlns:serif="http://www.serif.com/" style="fill-rule:evenodd;clip-rule:evenodd;stroke-linejoin:round;stroke-miterlimit:2;">
    <g>
        <g>
            <g>
                <path d="M72.09,257.094C71.886,289.997 63.897,325.81 59.699,355.921C56.369,379.807 75.39,400.961 100.472,397.677C182.335,386.958 187.634,376.33 259.985,399.708C297.334,411.775 314.968,422.501 412.318,408.636C435.567,405.324 458.987,381.418 461.247,357.894C467.616,291.579 468.579,281.512 468.374,256.129C427.062,257.459 360.009,272.689 323.993,270.779C283.777,268.645 235.131,241.016 196.013,241.598C149.03,242.297 126.759,257.643 72.09,257.094Z" style="fill:rgb(20,20,20);fill-rule:nonzero;"/>
                <path d="M468.374,256.129C467.996,209.569 461.861,175.326 459.378,156.216C456.376,133.113 436.871,112.457 411.553,116.384C327.618,129.405 325.974,131.604 259.985,110.838C187.662,88.078 182.392,98.415 100.444,108.861C77.243,111.818 55.755,130.971 58.828,156.107C63.944,197.942 72.315,220.563 72.09,257.094C148.135,257.857 169.306,227.237 243.998,250.155C292.768,265.12 305.729,274.327 357.49,269.421C385.992,266.72 436.505,257.155 468.374,256.129Z" style="fill:rgb(206,27,38);fill-rule:nonzero;"/>
                <path d="M249.909,203.614L256.597,219.339L271.574,226.439L260.741,233.445L263.308,249.215L249.909,237.803L236.51,240.83L239.065,226.63L228.221,213.187C229.425,213.302 235.031,213.833 243.209,215.106L249.909,203.614ZM224.399,235.92C227.1,240.924 264.814,291.028 290.195,313.871C293.247,316.7 296.032,319.807 299.042,322.682C302.4,325.888 305.809,329.04 309.294,332.108C308.777,332.692 304.779,337.21 302.527,339.134C298.194,334.748 275.93,312.213 245.409,287.397C230.447,275.22 220.588,260.911 220.588,251.972C220.58,243.917 223.599,236.979 224.399,235.92ZM311.371,333.837L304.772,341.333C307.9,342.432 317.349,348.789 321.616,357.947C326.054,367.507 334.288,362.55 333.613,357.753C332.979,353.243 322.939,342.032 311.371,333.837Z" style="fill:rgb(249,214,22);fill-rule:nonzero;"/>
                <path d="M314.416,340.002C315.499,340.146 316.416,341.152 316.416,342.254C316.416,343.329 315.481,344.144 314.416,344.002C313.326,343.856 312.416,342.819 312.416,341.719C312.416,340.639 313.359,339.86 314.416,340.002Z" style="fill:rgb(41,47,51);"/>
                <path d="M325.527,352.095C326.606,352.138 327.527,353.069 327.527,354.156C327.527,355.232 326.608,356.138 325.527,356.095C324.438,356.052 323.527,355.081 323.527,353.997C323.527,352.917 324.454,352.052 325.527,352.095Z" style="fill:rgb(41,47,51);"/>
                <path d="M306.516,335.707L305.583,335.238C288.307,320.092 262.367,293.41 253.842,284.842C253.296,284.289 252.775,283.107 253.397,282.388C254.034,281.659 255.16,282.13 255.708,282.694C262.183,289.216 289.435,317.264 307.438,332.834C308.084,333.392 308.47,334.482 307.883,335.226C307.561,335.663 307.029,335.804 306.516,335.707Z" style="fill:rgb(41,47,51);fill-rule:nonzero;"/>
                <path d="M331.883,278.123L331.972,263.733C325.537,263.843 320.836,263.45 319.871,263.37C319.763,262.258 319.218,256.673 317.16,249.673L327.96,246.053L323.093,232.315C322.176,232.623 317.489,234.196 311.471,235.653C308.588,229.987 305.254,225.198 304.649,224.331L312.416,216.83L301.372,205.538L294.428,211.765C293.595,210.879 289.12,206.121 283.384,201.333L288.428,192.056L274.951,182.894L270.041,191.695C263.822,187.871 258.793,185.717 257.775,185.281L256.242,199.745C280.101,209.998 305.649,238.317 305.649,268.596C305.649,271.93 305.649,294.47 286.195,305.461L292.339,311.418C300.441,319.606 306.264,325.007 307.505,326.158L313.405,320.696L304.149,312.218C304.831,311.538 308.398,307.977 311.571,302.735C317.352,305.975 321.838,308.087 322.749,308.516L328.304,295.458C327.398,295.078 322.916,293.2 317.182,290.231C319.166,283.917 319.718,278.779 319.827,277.766C320.788,277.846 325.483,278.235 331.883,278.123ZM277.062,324.92L272.485,314.578L266.819,310.028C265.506,310.003 258.274,309.868 250.62,307.429C239.042,303.74 225.55,295.419 215.744,285.708L206.5,295.389C211.011,299.543 216.676,303.626 217.6,304.291L212.644,314.157C213.727,314.766 218.943,317.702 225.91,322.224L230.91,312.629C236.667,315.819 241.813,317.962 242.787,318.368L242.709,329.567L257.097,333.959L257.175,323.306C264.019,324.904 269.176,325.059 270.229,325.09L274.051,337.372L281.695,337.512L276.907,324.926L277.062,324.92Z" style="fill:rgb(249,214,22);fill-rule:nonzero;"/>
            </g>
        </g>
    </g>
</svg>
