<?xml version="1.0" encoding="UTF-8" standalone="no"?>
<!DOCTYPE svg PUBLIC "-//W3C//DTD SVG 1.1//EN" "http://www.w3.org/Graphics/SVG/1.1/DTD/svg11.dtd">
<svg width="100%" height="100%" viewBox="0 0 512 512" version="1.1" xmlns="http://www.w3.org/2000/svg" xmlns:xlink="http://www.w3.org/1999/xlink" xml:space="preserve" xmlns:serif="http://www.serif.com/" style="fill-rule:evenodd;clip-rule:evenodd;stroke-linejoin:round;stroke-miterlimit:2;">
    <g>
        <g>
            <g>
                <path d="M411.553,116.384C327.618,129.405 325.974,131.604 259.985,110.838C187.662,88.078 182.392,98.415 100.444,108.861L93.733,110.152C93.714,118.497 94.283,128.076 94.376,129.632C77.804,131.524 66.395,131.529 63.956,131.53C62.919,133.25 57.194,142.74 58.828,156.107C63.896,197.549 72.023,219.664 72.094,255.171C72.162,289.17 64.081,324.492 59.699,355.921C56.369,379.807 75.39,400.961 100.472,397.677C182.335,386.958 187.634,376.33 259.985,399.708C297.334,411.775 314.968,422.501 412.318,408.636C435.567,405.324 458.987,381.418 461.247,357.894C471.963,246.325 470.85,244.51 459.378,156.216C456.376,133.113 436.871,112.457 411.553,116.384Z" style="fill:rgb(0,36,125);fill-rule:nonzero;"/>
                <path d="M440.472,194.94C434.603,197.578 415.238,203.94 403.307,205.749C386.953,208.229 372.317,203.496 367.998,201.29C363.576,204.758 349.046,213.151 334.587,213.479C331.644,213.546 316.742,213.883 299.061,203.935C298.909,207.968 294.36,289.764 316.938,326.337C332.849,352.112 360.515,366.198 367.618,369.154C378.105,362.794 405.513,341.678 421.951,317.208C422.927,315.757 452.791,277.712 440.472,194.94Z" style="fill:rgb(204,204,50);fill-rule:nonzero;"/>
                <path d="M434.793,201.05C430.797,202.974 414.204,208.749 401.799,210.624C386.112,212.996 372.166,208.683 368.138,206.73C363.97,209.865 350.084,217.641 336.229,218.057C320.226,218.537 306.896,211.41 305.816,210.795C305.387,222.01 301.515,293.464 322.615,324.129C336.304,344.027 359.166,358.01 367.73,362.129C377.457,355.74 401.843,336.142 416.985,314.93C418.859,312.302 445.655,280.986 434.793,201.05Z" style="fill:white;fill-rule:nonzero;"/>
                <path d="M352.026,218.744C352.097,219.601 352.653,226.292 356.18,228.655C357.41,228.307 365.001,226.159 372.137,227.93C373.835,228.351 388.046,231.874 393.966,229.215C394.851,228.817 404.345,224.546 405.451,225.32C410.265,228.775 402.328,225.896 398.268,230.204C395.474,233.195 392.822,233.139 395.395,236.077C400.689,242.112 402.057,241.696 401.118,244.484C400.411,244.108 395.534,241.517 393.014,238.615C388.136,233.032 377.255,235.797 375.915,236.137C365.797,238.708 359.662,244.611 358.788,248.487C357.124,255.776 361.959,252.111 369.551,252.695C368.643,253.123 361.872,256.316 357.668,256.729L350.661,268.739C345.687,276.883 345.938,277.555 344.878,277.283C343.428,276.914 342.7,268.782 343.713,264.884C339.726,262.962 340.199,253.121 340.25,252.06C340.705,242.829 346.607,234.994 347.557,233.733C346.964,230.537 347.41,227.248 347.486,226.689C348.027,222.88 352.535,218.218 352.026,218.744Z" style="fill:rgb(255,153,0);fill-rule:nonzero;"/>
                <path d="M346.003,257.418C346.007,258.501 345.042,259.382 343.994,259.444C342.958,259.505 341.985,258.729 341.982,257.655C341.979,256.576 342.942,255.716 343.981,255.654C345.005,255.594 345.999,256.343 346.003,257.418Z" style="fill:white;fill-rule:nonzero;"/>
                <path d="M334.096,312.311C334.751,311.694 339.836,306.91 339.89,302.678C338.953,301.975 333.338,297.762 331.232,290.873C330.758,289.326 326.63,275.858 322.227,272.758C321.501,272.248 313.873,266.891 314.027,265.293C314.628,259.882 315.899,267.766 321.093,268.707C324.753,269.372 325.899,271.243 327.004,267.699C329.476,259.779 328.565,259.075 331.073,258.119C331.093,258.916 331.233,264.293 330.055,268.034C327.706,275.472 335.061,281.936 336.017,282.776C343.015,288.902 351.231,289.361 355.042,287.242C361.736,283.551 354.9,279.905 352.931,276.453C353.76,276.819 360.208,279.667 362.696,282.196L377.051,278.281C387.391,275.566 387.65,275.088 387.987,275.835C388.557,277.091 381.921,283.698 377.814,285.963C378.594,290.175 369.706,297.101 368.764,297.835C360.241,304.476 350.498,305.505 348.79,305.686C346.459,308.349 343.502,310.19 342.989,310.508C339.511,312.728 333.373,312.255 334.096,312.311Z" style="fill:rgb(255,153,0);fill-rule:nonzero;"/>
                <path d="M369.972,289.911C370.758,289.247 372.141,289.016 372.931,289.819C373.755,290.598 373.367,291.875 372.601,292.523C371.813,293.189 370.455,293.415 369.658,292.624C368.851,291.84 369.204,290.567 369.972,289.911Z" style="fill:white;fill-rule:nonzero;"/>
                <path d="M429.57,268.863C428.613,268.644 421.7,267.058 417.302,269.441C416.943,270.693 414.919,277.753 408.814,283.337C407.467,284.574 395.322,295.721 394.372,301.062C394.219,301.937 392.629,311.014 391.146,311.687C386.578,313.749 392.552,308.99 390.793,304.275C389.516,300.88 390.234,299.163 386.801,300.065C377.613,302.481 377.423,303.752 375.159,302.025C375.965,301.567 381.43,298.458 385.752,297.315C394.291,295.099 397.901,285.39 398.413,284.013C401.863,274.661 399.227,267.641 395.824,265.759C390.415,262.748 391.14,266.568 385.49,273.668C385.582,272.743 386.253,265.972 388.079,262.347L379.681,252.671C374.134,245.917 373.221,245.857 374.058,244.969C375.175,243.783 383.889,245.684 387.195,247.666C391.219,244.621 400.934,247.878 402.062,248.257C411.391,251.393 416.11,258.979 416.917,260.277C420.507,260.699 423.537,262.111 424.078,262.363C427.643,264.04 429.823,269.495 429.57,268.863Z" style="fill:rgb(255,153,0);fill-rule:nonzero;"/>
                <path d="M393.626,251.901C392.572,251.607 392.113,250.477 392.596,249.512C393.089,248.504 394.368,247.915 395.453,248.212C396.5,248.518 396.943,249.643 396.462,250.603C395.977,251.594 394.702,252.223 393.626,251.901Z" style="fill:white;fill-rule:nonzero;"/>
                <path d="M320.116,320.169L322.615,324.14C336.304,344.038 359.165,358.021 367.73,362.14C377.457,355.751 401.842,336.153 416.984,314.942L420.01,310.402C397.238,313.638 346.877,322.522 320.116,320.169Z" style="fill:rgb(153,204,255);fill-rule:nonzero;"/>
                <path d="M267.107,257.612C267.107,209.449 267.107,161.287 267.107,113.125C187.179,87.525 185.406,98.031 100.444,108.861L93.733,110.152C93.714,118.497 94.283,128.076 94.376,129.632C77.804,131.524 66.395,131.529 63.956,131.53L62.687,133.814C57.377,144.235 58.608,154.31 58.828,156.107C63.944,197.942 72.315,220.563 72.09,257.094C119.886,257.574 136.079,247.009 180.635,242.378C213.994,238.91 240.539,248.874 267.107,257.612Z" style="fill:rgb(0,36,125);fill-rule:nonzero;"/>
                <path d="M267.107,113.125C265.041,112.463 247.858,106.96 241.209,105.051C216.783,113.56 193.077,130.803 189.241,133.593C189.24,117.734 189.333,97.822 189.333,97.638C169.624,98.26 138.196,103.202 133.778,103.897C133.778,118.894 134.226,129.995 134.317,132.263C127.585,128.652 110.437,119.653 93.733,110.152C83.329,112.875 76.569,118.107 75.271,119.112C92.714,130.141 120.563,144.699 129.021,149.228C117.314,151.219 112.008,152.024 110.526,152.248C106.991,150.34 82.88,137.326 67.122,126.996L63.956,131.53C78.689,141.279 98.079,151.921 101.109,153.584C78.35,156.567 61.502,156.11 58.828,156.107C60.94,173.373 67.212,207.275 68.032,211.709C69.945,211.712 87.858,212.269 109.734,209.074C85.22,237.155 73.267,242.631 71.794,243.538L72.09,257.094C72.231,257.096 88.394,257.761 107.637,255.053C120.985,242.611 138.474,222.853 140.933,220.124C141.067,222.406 141.754,234.076 141.709,248.688C145.506,247.903 171.236,242.585 189.685,241.772C189.692,222.802 189.563,208.335 189.537,205.428C201.232,213.494 215.591,223.838 241.198,249.318C247.851,251.279 265.04,256.932 267.107,257.612L267.107,235.067C264.624,232.511 244.418,211.717 235.832,203.343C244.418,205.706 264.616,212.348 267.107,213.167L267.107,157.612C264.617,156.793 244.426,150.152 235.843,147.79C244.425,144.141 264.594,136.646 267.107,135.712C267.107,128.183 267.107,120.654 267.107,113.125Z" style="fill:rgb(238,238,238);fill-rule:nonzero;"/>
                <path d="M178.222,98.234C175.544,98.433 164.459,99.255 144.889,102.184C144.889,103.365 144.629,125.907 146.303,157.544C110.456,163.426 96.255,167.295 60.316,167.246C60.702,169.917 62.38,181.545 65.916,200.521C102.073,200.548 113.932,196.866 148.394,190.854C148.603,193.851 150.96,219.926 150.892,246.831C167.145,243.652 177.198,242.7 179.503,242.482C179.525,218.178 178.796,192.58 178.704,186.777C213.182,183.976 231.688,190.408 267.107,202.056L267.107,168.723C231.036,156.86 213.313,150.691 178.256,153.453C177.942,122.116 178.222,99.52 178.222,98.234Z" style="fill:rgb(207,27,43);fill-rule:nonzero;"/>
                <path d="M267.107,113.125L250.875,107.952C217.538,119.741 193.746,137.089 189.245,140.372L189.246,141.717C199.24,141.387 205.391,141.972 206.789,142.105C228.124,129.195 256.258,119.398 267.107,115.367L267.107,113.125ZM75.271,119.112C74.549,119.662 70.622,122.654 67.122,126.996C82.88,137.326 106.991,150.34 110.526,152.248C112.007,152.024 117.313,151.22 129.01,149.23C122.012,145.482 93.081,130.375 75.271,119.112ZM134.305,204.79C123.362,217.39 103.702,240.966 81.418,257.164C82.838,257.143 90.098,257.034 99.139,256.096C115.619,241.737 136.317,217.864 140.471,213.205L139.66,203.769L134.305,204.79ZM267.107,255.412L267.107,241.856C263.878,238.532 238.101,212.002 226.144,200.889C215.79,198.517 208.341,197.809 206.778,197.66C228.147,214.656 256.039,244.021 267.107,255.412Z" style="fill:rgb(207,27,43);fill-rule:nonzero;"/>
            </g>
        </g>
    </g>
</svg>
