<?xml version="1.0" encoding="UTF-8" standalone="no"?>
<!DOCTYPE svg PUBLIC "-//W3C//DTD SVG 1.1//EN" "http://www.w3.org/Graphics/SVG/1.1/DTD/svg11.dtd">
<svg width="100%" height="100%" viewBox="0 0 512 512" version="1.1" xmlns="http://www.w3.org/2000/svg" xmlns:xlink="http://www.w3.org/1999/xlink" xml:space="preserve" xmlns:serif="http://www.serif.com/" style="fill-rule:evenodd;clip-rule:evenodd;stroke-linejoin:round;stroke-miterlimit:2;">
    <g>
        <g>
            <g>
                <path d="M461.247,357.894C458.987,381.418 435.567,405.324 412.318,408.636C308.939,423.36 296.194,410.772 244.032,394.61C189.598,377.745 160.51,389.816 100.472,397.677C75.39,400.961 56.369,379.807 59.699,355.921C64.445,321.88 73.245,285.12 71.958,247.429C70.917,216.956 63.537,194.612 58.828,156.107C55.755,130.971 77.243,111.818 100.444,108.861C182.392,98.415 187.662,88.078 259.985,110.838C325.827,131.557 327.444,129.432 411.553,116.384C436.871,112.457 456.376,133.113 459.378,156.216C470.836,244.4 471.98,246.152 461.247,357.894Z" style="fill:rgb(38,95,181);fill-rule:nonzero;"/>
                <path d="M363.966,279.111C363.83,277.816 371.786,258.14 365.367,259.677C357.487,261.555 344.759,256.529 344.008,256.609C354.369,242.079 345.7,235.086 344.207,229.498C340.753,216.62 351.615,205.689 329.949,202.368C324.794,201.577 305.85,201.939 300.727,181.317C299.158,182.066 290.382,186.252 279.262,177.942C273.019,173.282 274.971,171.484 268.752,166.785L254.753,160.194C247.844,156.855 235.073,156.413 230.01,154.314C230.892,155.873 230.955,157.442 231.632,159.191C222.958,157.269 222.012,165.28 221.899,166.234C214.992,164.129 211.27,172.811 212.422,181.392L211.555,181.54L211.9,181.931C210.353,197.735 204.055,206.745 184.853,211.174C175.539,213.325 156.626,203.198 154.382,201.996C153.692,201.63 149.765,199.541 146.468,196.277C144.567,194.389 143.097,192.111 141.332,190.094C140.352,188.975 139.472,187.71 138.24,186.875C137.259,186.21 134.169,185.47 134.766,187.748C134.282,198.75 143.45,213.985 151.976,218.081C151.444,218.486 145.645,222.901 149.233,225.974C152.715,228.956 153.823,226.552 157.423,229.571L162.66,237.206C163.183,240.721 159.839,245.755 159.698,247.513C159.613,248.575 159.055,255.558 160.53,260.803L160.23,261.193C160.204,265.296 158.543,264.144 154.526,263.787C154.644,274.422 165.1,276.009 165.773,276.892C168.857,280.929 170.418,296.335 175.031,300.822C188.607,314.026 214.492,307.909 231.099,314.544C235.301,316.226 252.475,330.767 261.619,324.224C272.584,339.853 253.302,350.29 257.653,355.441C259.654,357.808 261.786,358.633 262.208,358.796L261.263,360.829C262.239,361.243 288.906,375.523 303.505,370.885C303.471,374.108 304.755,373.676 304.983,377.009C306.17,375.826 306.301,376.108 314.893,372.931C315.675,372.644 327.719,370.436 332.628,363.107C334.949,359.641 331.335,348.941 343.365,350.883C344.317,346.761 344.643,347.072 347.295,343.746C344.071,336.038 357.019,323.629 358.182,321.322L360.004,311.602C363.024,304.179 366.335,306.219 368.359,298.672C370.467,290.753 364.419,283.451 363.966,279.111Z" style="fill:white;fill-rule:nonzero;"/>
            </g>
        </g>
    </g>
</svg>
