<?xml version="1.0" encoding="UTF-8" standalone="no"?>
<!DOCTYPE svg PUBLIC "-//W3C//DTD SVG 1.1//EN" "http://www.w3.org/Graphics/SVG/1.1/DTD/svg11.dtd">
<svg width="100%" height="100%" viewBox="0 0 512 512" version="1.1" xmlns="http://www.w3.org/2000/svg" xmlns:xlink="http://www.w3.org/1999/xlink" xml:space="preserve" xmlns:serif="http://www.serif.com/" style="fill-rule:evenodd;clip-rule:evenodd;stroke-linejoin:round;stroke-miterlimit:2;">
    <g>
        <g>
            <g>
                <path d="M179.974,275.621C203.101,310.915 208.079,313.535 255.997,398.399C294.014,355.891 305.799,342.991 332.967,304.243C278.319,305.08 243.336,270.457 179.974,275.621Z" style="fill:white;fill-rule:nonzero;"/>
                <path d="M171.947,209.885L170.9,209.767C194.979,200.997 210.574,200.305 213.355,200.137C211.852,198.845 200.336,188.65 176.042,172.928C190.534,175.004 205.223,178.188 219.855,184.263C205.615,158.799 196.638,144.771 194.491,141.416C210.782,153.055 229.041,171.188 231.854,173.982C228.814,157.312 225.773,140.643 222.733,123.974C233.295,143.579 245.582,167.648 247.531,171.465C250.353,156.369 253.175,141.273 255.997,126.177C258.823,143.11 261.649,160.044 264.474,176.977C266.475,174.343 280.571,155.783 289.272,143.882C286.232,158.942 283.191,174.001 280.151,189.061C283.233,187.746 302.059,179.709 317.482,170.064C315.536,172.958 306.095,186.994 292.15,205.534C315.782,206.562 330.733,202.639 336.385,201.222C334.741,202.427 319.356,214.276 298.65,224.15C317.77,232.623 331.931,235.354 343.343,236.952L342.111,237.253C358.236,236.396 379.4,233.421 382.628,232.967C419.486,178.299 427.413,158.419 445.741,127.817C431.467,113.296 414.403,115.942 411.553,116.384C327.618,129.405 325.974,131.604 259.985,110.838C187.662,88.078 182.392,98.415 100.444,108.861C79.58,111.52 69.025,124.692 67.125,127.062C88.859,155.765 118.52,185.786 139.898,215.375C142.449,214.864 160.029,211.341 171.947,209.885Z" style="fill:rgb(20,20,20);fill-rule:nonzero;"/>
                <path d="M343.331,236.941C331.93,235.344 317.767,232.614 298.639,224.136C319.35,214.262 334.735,202.413 336.374,201.211C330.726,202.627 315.778,206.55 292.15,205.523C306.095,186.983 315.536,172.947 317.482,170.053C302.059,179.698 283.233,187.734 280.151,189.05C283.191,173.99 286.232,158.931 289.272,143.871C280.571,155.776 266.475,174.342 264.474,176.977C261.649,160.044 258.823,143.11 255.997,126.177C253.171,141.275 250.346,156.374 247.52,171.473C245.571,167.655 233.285,143.582 222.722,123.971C225.762,140.64 228.803,157.31 231.843,173.979C229.03,171.185 210.775,153.058 194.48,141.416C196.627,144.771 205.61,158.808 219.844,184.261C205.224,178.191 190.541,175.006 176.042,172.928C200.336,188.65 211.852,198.845 213.355,200.137C210.574,200.305 194.979,200.997 170.9,209.767L171.947,209.885C247.094,200.709 272.525,240.949 342.111,237.253L343.331,236.941Z" style="fill:rgb(252,209,22);fill-rule:nonzero;"/>
                <path d="M171.947,209.885C160.029,211.341 142.449,214.864 139.898,215.375C153.71,234.492 171.252,262.309 179.974,275.621C243.336,270.457 278.319,305.08 332.967,304.243C342.468,290.694 365.786,257.947 382.628,232.967C379.4,233.421 358.236,236.396 342.111,237.253C272.525,240.949 247.094,200.709 171.947,209.885Z" style="fill:rgb(0,114,198);fill-rule:nonzero;"/>
                <path d="M382.628,232.967C365.86,257.837 342.907,290.068 332.967,304.243C306.027,342.666 294.463,355.389 255.997,398.399C298.126,412.151 315.242,422.462 412.318,408.636C435.567,405.324 458.987,381.418 461.247,357.894C471.963,246.325 470.85,244.51 459.378,156.216C458.041,145.928 452.737,134.941 445.741,127.817C427.541,158.205 419.496,178.283 382.628,232.967ZM139.898,215.375C118.532,185.802 88.904,155.825 67.125,127.062C56.847,139.903 58.535,153.708 58.828,156.107C63.896,197.549 72.023,219.664 72.094,255.171C72.162,289.17 64.081,324.492 59.699,355.921C56.369,379.807 75.39,400.961 100.472,397.677C174.478,387.987 189.083,376.556 255.997,398.399C208.256,313.849 203.606,311.684 179.974,275.621C171.45,262.612 153.801,234.618 139.898,215.375Z" style="fill:rgb(206,17,38);fill-rule:nonzero;"/>
            </g>
        </g>
    </g>
</svg>
