<?xml version="1.0" encoding="UTF-8" standalone="no"?>
<!DOCTYPE svg PUBLIC "-//W3C//DTD SVG 1.1//EN" "http://www.w3.org/Graphics/SVG/1.1/DTD/svg11.dtd">
<svg width="100%" height="100%" viewBox="0 0 512 512" version="1.1" xmlns="http://www.w3.org/2000/svg" xmlns:xlink="http://www.w3.org/1999/xlink" xml:space="preserve" xmlns:serif="http://www.serif.com/" style="fill-rule:evenodd;clip-rule:evenodd;stroke-linejoin:round;stroke-miterlimit:2;">
    <g>
        <g>
            <g>
                <path d="M461.247,357.894C458.987,381.418 435.567,405.324 412.318,408.636C308.939,423.36 296.194,410.772 244.032,394.61C189.598,377.745 160.51,389.816 100.472,397.677C75.39,400.961 56.369,379.807 59.699,355.921C64.445,321.88 73.245,285.12 71.958,247.429C70.917,216.956 63.537,194.612 58.828,156.107C55.755,130.971 77.243,111.818 100.444,108.861C182.392,98.415 187.662,88.078 259.985,110.838C325.827,131.557 327.444,129.432 411.553,116.384C436.871,112.457 456.376,133.113 459.378,156.216C470.836,244.4 471.98,246.152 461.247,357.894Z" style="fill:rgb(117,170,219);fill-rule:nonzero;"/>
                <path d="M65.916,200.521C137.25,200.575 169.667,177.596 223.999,189.299C253.002,195.546 292.211,213.53 323.993,215.223C359.708,217.125 424.734,201.945 465.285,200.634C471.286,255.023 466.46,303.448 465.573,312.341C365.774,315.923 363.543,344.276 259.997,310.822C166.652,280.665 164.705,311.49 66.784,311.522C75.906,255.075 71.644,231.266 65.916,200.521Z" style="fill:rgb(238,238,238);fill-rule:nonzero;"/>
                <path d="M255.997,198.399C257.804,208.43 259.612,218.46 261.419,228.491C262.689,226.98 272.648,215.13 277.262,209.572C275.318,218.356 273.374,227.141 271.429,235.925C285.679,230.879 293.393,227.592 295.272,226.791C293.997,228.347 288.081,235.569 279.084,246.031C281.334,246.266 295.399,247.739 307.316,247.478C305.435,248.368 296.774,252.467 283.24,257.312C299.336,265.219 309.221,268.646 311.549,269.454C309.283,269.536 299.336,269.897 283.24,268.156C296.774,281.12 305.327,288.325 307.316,290.001C295.399,285.341 281.296,278.042 279.084,276.898C288.081,292.948 293.959,303.091 295.272,305.358C293.323,303.542 285.679,296.418 271.429,282.114C273.374,292.148 275.318,302.182 277.262,312.216C271.981,302.471 266.7,292.725 261.419,282.98C259.612,291.823 257.804,300.667 255.997,309.51C254.19,299.489 252.383,289.469 250.575,279.448C241.634,290.198 235.993,297.25 234.743,298.812C236.684,289.948 238.624,281.085 240.565,272.221C227.26,277.357 218.57,281.771 216.711,282.715C217.975,281.068 224.234,272.918 232.899,262.431C230.644,262.305 217.289,261.558 204.678,263.19C206.533,262.112 215.674,256.803 228.755,251.372C226.559,250.418 213.222,244.625 200.444,241.676C213.222,239.73 226.491,240.411 228.755,240.527C215.674,228.749 206.69,222.146 204.678,220.668C217.289,224.244 230.708,230.537 232.899,231.565C224.234,216.519 218.034,206.324 216.711,204.148C218.684,205.825 227.26,213.109 240.565,226.032C238.624,216.077 236.684,206.123 234.743,196.168C236.024,198.463 241.634,208.513 250.575,224.959C252.383,216.106 254.19,207.252 255.997,198.399Z" style="fill:rgb(252,191,73);fill-rule:nonzero;"/>
                <path d="M255.997,213.177L258.686,228.113L259.975,235.259L263.741,230.791L271.607,221.416L268.707,234.481L267.319,240.737L272.985,238.74L284.828,234.384L276.796,243.769L272.951,248.207L279.651,248.94L293.672,250.08L281.717,254.552L275.996,256.515L282.717,259.888L296.772,266.453L282.717,265.266L275.996,264.471L281.706,270.015L293.661,281.277L279.64,274.348L272.929,270.833L276.773,277.728L284.806,292.022L272.974,280.314L267.307,274.622L268.696,281.789L271.596,296.757L263.73,282.221L259.975,275.259L258.686,281.558L255.997,294.732L253.308,279.803L252.02,272.666L248.253,277.192L240.387,286.758L243.276,273.593L244.665,267.314L238.998,269.478L227.155,274.401L235.187,264.6L239.032,260.01L232.321,259.558C224.883,259.163 219.431,259.302 218.311,259.33L230.266,254.067L235.976,251.805L229.255,248.76C221.837,245.519 216.361,243.591 215.222,243.19C216.346,243.156 221.846,242.986 229.277,243.388L235.999,243.855L230.277,238.581L218.322,228.11C219.459,228.551 224.894,230.659 232.332,234.128L239.032,237.354L235.187,230.611L227.144,216.721L238.987,227.875L244.654,233.399L243.265,226.278L240.376,211.41L248.242,225.755L252.009,232.673L253.297,226.366L255.997,213.177M255.997,198.399C254.19,207.252 252.383,216.106 250.575,224.959C241.634,208.513 236.024,198.463 234.743,196.168C236.684,206.126 238.624,216.085 240.565,226.043C227.26,213.12 218.684,205.836 216.711,204.159C218.034,206.335 224.234,216.53 232.899,231.576C230.708,230.548 217.289,224.255 204.678,220.679C206.69,222.157 215.674,228.76 228.755,240.538C226.491,240.421 213.222,239.735 200.444,241.676C213.222,244.625 226.559,250.418 228.755,251.372C215.674,256.803 206.533,262.112 204.678,263.19C217.289,261.558 230.644,262.305 232.899,262.431C224.234,272.918 217.975,281.068 216.711,282.715C218.57,281.771 227.26,277.357 240.565,272.221C238.624,281.085 236.684,289.948 234.743,298.812C235.993,297.25 241.634,290.198 250.575,279.448C252.383,289.469 254.19,299.489 255.997,309.51C257.804,300.667 259.612,291.823 261.419,282.98C266.7,292.725 271.981,302.471 277.262,312.216C275.318,302.182 273.374,292.148 271.429,282.114C285.679,296.418 293.323,303.542 295.272,305.358C293.959,303.091 288.081,292.948 279.084,276.898C281.296,278.042 295.399,285.341 307.316,290.001C305.327,288.325 296.774,281.12 283.24,268.156C299.336,269.897 309.283,269.536 311.549,269.454C309.221,268.646 299.336,265.219 283.24,257.312C296.774,252.467 305.435,248.368 307.316,247.478C295.399,247.739 281.334,246.266 279.084,246.031C288.081,235.569 293.997,228.347 295.272,226.791C293.393,227.592 285.679,230.879 271.429,235.925C273.374,227.137 275.318,218.349 277.262,209.561C272.648,215.119 262.689,226.969 261.419,228.48C259.612,218.453 257.804,208.426 255.997,198.399ZM277.262,209.572L277.318,209.589L277.262,209.572ZM295.272,226.791L295.328,226.805L295.272,226.791ZM307.316,247.478L307.372,247.489L307.316,247.478Z" style="fill:rgb(132,53,17);fill-rule:nonzero;"/>
                <path d="M255.997,231.732C267.428,235.464 278.218,249.067 278.218,261.194C278.218,272.999 268.286,280.188 255.997,276.177C244.584,272.451 233.776,259.355 233.776,247.23C233.776,235.437 243.698,227.717 255.997,231.732Z" style="fill:rgb(252,191,73);"/>
                <path d="M255.997,277.566C243.865,273.605 232.388,259.809 232.388,246.864C232.388,234.316 242.85,226.052 255.997,230.343C268.416,234.397 279.606,248.886 279.606,261.626C279.606,274.183 269.138,281.855 255.997,277.566ZM255.997,233.121C244.911,229.502 235.165,236.531 235.165,247.605C235.165,258.639 245.107,271.233 255.997,274.788C267.035,278.391 276.829,271.96 276.829,260.757C276.829,249.715 266.892,236.677 255.997,233.121Z" style="fill:rgb(132,53,17);fill-rule:nonzero;"/>
                <path d="M253.786,250.724C253.786,251.517 251.74,253.155 247.309,251.774C243.232,250.503 240.82,247.705 240.82,246.696C240.82,245.861 242.974,244.2 247.309,245.552C251.282,246.79 253.786,249.677 253.786,250.724ZM271.04,256.121C271.04,255.026 268.486,252.046 264.441,250.711C259.987,249.241 257.841,250.923 257.841,251.78C257.841,252.875 260.378,255.859 264.441,257.2C268.873,258.662 271.04,256.984 271.04,256.121Z" style="fill:rgb(193,101,64);fill-rule:nonzero;"/>
                <path d="M250.031,261.742C250.031,261.16 251.893,259.781 256.119,261.161C260.335,262.538 262.208,265.159 262.208,265.707C262.208,266.27 260.4,267.648 256.119,266.25C251.885,264.867 250.031,262.277 250.031,261.742Z" style="fill:rgb(237,134,98);fill-rule:nonzero;"/>
            </g>
        </g>
    </g>
</svg>
