<?xml version="1.0" encoding="UTF-8" standalone="no"?>
<!DOCTYPE svg PUBLIC "-//W3C//DTD SVG 1.1//EN" "http://www.w3.org/Graphics/SVG/1.1/DTD/svg11.dtd">
<svg width="100%" height="100%" viewBox="0 0 512 512" version="1.1" xmlns="http://www.w3.org/2000/svg" xmlns:xlink="http://www.w3.org/1999/xlink" xml:space="preserve" xmlns:serif="http://www.serif.com/" style="fill-rule:evenodd;clip-rule:evenodd;stroke-linejoin:round;stroke-miterlimit:2;">
    <g>
        <g>
            <g>
                <path d="M411.553,116.384C327.618,129.405 325.974,131.604 259.985,110.838C187.662,88.078 182.392,98.415 100.444,108.861C77.243,111.818 55.755,130.971 58.828,156.107C61.097,174.663 65.256,196.984 65.916,200.521C137.25,200.575 169.667,177.596 223.999,189.299C253.002,195.546 292.211,213.53 323.993,215.223C359.708,217.125 424.734,201.945 465.285,200.634C464.175,190.582 459.73,158.925 459.378,156.216C456.376,133.113 436.871,112.457 411.553,116.384Z" style="fill:rgb(217,0,18);fill-rule:nonzero;"/>
                <path d="M100.472,397.677C182.335,386.958 187.634,376.33 259.985,399.708C297.334,411.775 314.968,422.501 412.318,408.636C435.567,405.324 458.987,381.418 461.247,357.894C461.556,354.672 464.496,323.152 465.573,312.341C365.774,315.923 363.543,344.276 259.997,310.822C166.652,280.665 164.705,311.49 66.784,311.522C60.764,348.771 60.713,348.65 59.699,355.921C56.369,379.807 75.39,400.961 100.472,397.677Z" style="fill:rgb(242,168,0);fill-rule:nonzero;"/>
                <path d="M65.916,200.521C137.25,200.575 169.667,177.596 223.999,189.299C253.002,195.546 292.211,213.53 323.993,215.223C359.708,217.125 424.734,201.945 465.285,200.634C471.286,255.023 466.46,303.448 465.573,312.341C365.774,315.923 363.543,344.276 259.997,310.822C166.652,280.665 164.705,311.49 66.784,311.522C75.906,255.075 71.644,231.266 65.916,200.521Z" style="fill:rgb(0,51,160);fill-rule:nonzero;"/>
            </g>
        </g>
    </g>
</svg>
