<?xml version="1.0" encoding="UTF-8" standalone="no"?>
<!DOCTYPE svg PUBLIC "-//W3C//DTD SVG 1.1//EN" "http://www.w3.org/Graphics/SVG/1.1/DTD/svg11.dtd">
<svg width="100%" height="100%" viewBox="0 0 512 512" version="1.1" xmlns="http://www.w3.org/2000/svg" xmlns:xlink="http://www.w3.org/1999/xlink" xml:space="preserve" xmlns:serif="http://www.serif.com/" style="fill-rule:evenodd;clip-rule:evenodd;stroke-linejoin:round;stroke-miterlimit:2;">
    <g>
        <g>
            <path d="M411.553,116.384C327.618,129.405 325.974,131.604 259.985,110.838C187.662,88.078 182.392,98.415 100.444,108.861C77.104,111.835 55.74,130.85 58.828,156.107C65.574,211.273 78.312,233.655 68.411,301.078C133.887,301.091 165.782,281.521 212,287.767C244.121,292.108 283.613,311.237 315.993,315.125C354.41,319.738 421.335,302.665 466.666,301.187C472.593,233.909 461.3,171.013 459.378,156.216C456.362,133 437.012,112.436 411.553,116.384ZM129.584,174.809C126.405,192.806 126.646,192.625 124.234,210.637C121.552,203.649 111.451,180.638 110.311,178.042C91.207,174.736 78.807,171.515 76.099,170.812C89.503,165.93 105.281,158.274 107.765,157.068C111.039,138.885 114.803,124.299 115.531,121.477C119.802,133.405 126.746,151.26 127.749,153.839C130.371,154.234 150.414,157.249 160.468,159.115C148.997,164.474 132.03,173.506 129.584,174.809ZM100.472,397.677C182.335,386.958 187.634,376.33 259.985,399.708C297.334,411.775 314.968,422.501 412.318,408.636C433.051,405.683 452.292,387.125 458.744,368.547C341.98,382.076 340.062,391.941 259.967,366.057C160.744,333.992 157.715,366.685 59.817,366.743C62.408,385.622 79.018,400.486 100.472,397.677ZM64.912,322.899C163.8,322.823 165.809,291.815 259.997,322.245C360.164,354.607 362.338,329.359 464.372,324.671C463.674,332.112 462.976,339.553 462.278,346.994C352.267,355.347 350.271,373.321 259.997,344.156C164.126,313.182 162,344.698 61.344,344.795C61.616,343.041 62.372,338.166 64.912,322.899Z" style="fill:rgb(65,137,221);fill-rule:nonzero;"/>
            <path d="M115.531,121.477C114.804,124.3 111.045,138.889 107.777,157.078C105.293,158.283 89.514,165.941 76.112,170.822C78.819,171.525 91.219,174.746 110.323,178.051C111.463,180.648 121.561,203.652 124.245,210.647C126.658,192.629 126.419,192.803 129.595,174.818C132.041,173.516 149.005,164.485 160.479,159.125C150.422,157.259 130.372,154.245 127.75,153.85C126.747,151.27 119.802,133.409 115.531,121.477ZM127.148,172.799C126.764,174.982 124.856,185.854 122.931,200.182C119.463,191.965 113.1,177.287 112.238,175.299C97.753,172.854 88.256,170.705 86.185,170.236C88.149,169.423 96.46,165.981 110.333,159.151C112.823,145.169 115.482,133.898 115.997,131.717C116.75,133.719 119.517,141.074 125.666,156.643C127.681,156.948 144.764,159.532 150.832,160.546C142.66,164.589 129.033,171.801 127.148,172.799Z" style="fill:white;fill-rule:nonzero;"/>
            <path d="M115.996,131.706C115.482,133.887 112.822,145.158 110.332,159.14C96.459,165.97 88.148,169.412 86.184,170.225C88.255,170.695 97.751,172.848 112.238,175.299C113.099,177.287 119.462,191.98 122.921,200.184C124.851,185.855 126.764,174.982 127.148,172.799C129.033,171.801 142.66,164.589 150.832,160.546C144.764,159.532 127.681,156.948 125.666,156.643C124.88,154.653 119.517,141.069 115.996,131.706Z" style="fill:rgb(210,16,52);fill-rule:nonzero;"/>
            <path d="M68.411,301.078C133.887,301.091 165.782,281.521 212,287.767C244.121,292.108 283.613,311.237 315.993,315.125C354.41,319.738 421.335,302.665 466.666,301.187C466.5,303.067 466.439,303.021 464.373,324.659C362.675,329.331 360.448,354.687 259.997,322.233C165.868,291.822 163.861,322.812 64.914,322.888C65.204,321.145 67.431,307.752 68.411,301.078ZM59.699,355.921C59.579,356.779 59.006,360.893 59.817,366.743C157.634,366.685 160.746,333.993 259.967,366.057C340.023,391.928 341.936,382.081 458.744,368.547C460.786,362.688 461.163,358.766 461.247,357.894L462.278,346.994C349.756,355.538 347.8,372.598 261.937,344.796C165.155,313.458 162.956,344.697 61.344,344.795L59.699,355.921Z" style="fill:rgb(249,214,22);fill-rule:nonzero;"/>
        </g>
    </g>
</svg>
