<?xml version="1.0" encoding="UTF-8" standalone="no"?>
<!DOCTYPE svg PUBLIC "-//W3C//DTD SVG 1.1//EN" "http://www.w3.org/Graphics/SVG/1.1/DTD/svg11.dtd">
<svg width="100%" height="100%" viewBox="0 0 512 512" version="1.1" xmlns="http://www.w3.org/2000/svg" xmlns:xlink="http://www.w3.org/1999/xlink" xml:space="preserve" xmlns:serif="http://www.serif.com/" style="fill-rule:evenodd;clip-rule:evenodd;stroke-linejoin:round;stroke-miterlimit:2;">
    <g>
        <g>
            <g>
                <path d="M411.553,116.384C327.618,129.405 325.974,131.604 259.985,110.838C187.662,88.078 182.392,98.415 100.444,108.861L93.733,110.152C93.714,118.497 94.283,128.076 94.376,129.632C77.804,131.524 66.395,131.529 63.956,131.53C62.919,133.25 57.194,142.74 58.828,156.107C63.896,197.549 72.023,219.664 72.094,255.171C72.162,289.17 64.081,324.492 59.699,355.921C56.369,379.807 75.39,400.961 100.472,397.677C182.335,386.958 187.634,376.33 259.985,399.708C297.334,411.775 314.968,422.501 412.318,408.636C435.567,405.324 458.987,381.418 461.247,357.894C471.963,246.325 470.85,244.51 459.378,156.216C456.376,133.113 436.871,112.457 411.553,116.384Z" style="fill:rgb(0,36,125);fill-rule:nonzero;"/>
                <path d="M383.931,246.258C376.457,265.151 366.604,288.672 365.065,292.346C364.763,291.659 351.4,261.491 346.62,250.418C353.988,231.875 363.525,207.132 364.293,205.1C371.911,221.596 379.363,236.817 383.931,246.258Z" style="fill:rgb(40,133,72);fill-rule:nonzero;"/>
                <path d="M326.582,266.154C327.8,268.828 332.166,272.801 336.897,272.649C344.256,272.413 347.987,267.773 348.642,266.96L356.295,275.416C355.735,275.812 351.371,278.9 351.362,282.429C351.007,282.128 348.103,279.663 349.196,277.032C348.119,278.116 346.895,279.271 345.419,279.827C345.151,278.337 345.051,276.574 345.954,275.248C344.714,275.995 340.48,277.594 337.429,277.698C333.306,277.839 328.051,274.67 327.093,272.246C325.679,268.667 327.169,262.013 326.582,266.154ZM356.238,258.224C356.248,259.982 354.642,261.4 352.966,261.545L350.249,261.769C348.609,261.897 346.997,260.71 346.991,258.985C346.984,257.248 348.557,255.843 350.222,255.712L352.936,255.488C354.572,255.347 356.228,256.48 356.238,258.224ZM373.475,252.225C373.495,254.023 371.824,255.475 370.135,255.683L367.317,256.024C365.68,256.217 363.974,255.141 363.958,253.374C363.942,251.595 365.579,250.155 367.257,249.955L370.058,249.616C371.682,249.426 373.454,250.437 373.475,252.225Z" style="fill:white;fill-rule:nonzero;"/>
                <path d="M358.38,260.306C357.007,261.239 354.875,261.224 353.823,259.791L352.651,258.192C351.616,256.776 352.281,254.837 353.634,253.915L354.101,253.606C355.463,252.677 357.596,252.703 358.643,254.119L359.844,255.698C360.917,257.111 360.195,259.068 358.851,259.992L358.38,260.306ZM377.376,256.032C376.025,256.989 373.82,257.135 372.706,255.706L371.479,254.147C370.368,252.738 371.138,250.768 372.469,249.838L372.947,249.51C374.301,248.552 376.499,248.426 377.627,249.831L378.855,251.381C379.988,252.791 379.187,254.769 377.859,255.701L377.376,256.032Z" style="fill:rgb(100,136,189);fill-rule:nonzero;"/>
                <path d="M365.029,258.592C363.667,259.53 361.502,259.589 360.433,258.15L359.231,256.573C358.169,255.157 358.868,253.202 360.218,252.278L360.69,251.961C362.052,251.017 364.212,250.987 365.296,252.399L366.5,253.961C367.599,255.375 366.84,257.341 365.505,258.271L365.029,258.592ZM381.584,257.965C379.946,258.142 378.217,257.072 378.265,255.279L378.317,253.246C378.363,251.441 380.09,250.017 381.789,249.832L382.35,249.776C383.975,249.598 385.745,250.634 385.688,252.436L385.639,254.481C385.592,256.289 383.861,257.723 382.158,257.908L381.584,257.965Z" style="fill:rgb(41,127,71);fill-rule:nonzero;"/>
                <path d="M365.08,254.259C371.584,253.245 383.062,269.99 383.79,273.107C384.284,275.28 380.081,283.348 377.475,285.087C374.45,287.104 361.269,289.719 358.457,287.848C355.107,285.619 356.257,284.864 354.097,277.14C353.589,275.272 348.627,269.174 348.097,268.522L342.191,267.879L344.327,265.737L351.361,265.737L351.906,263.669L348.646,263.925C348.277,264.298 353.68,256.062 365.08,254.259Z" style="fill:rgb(104,159,158);fill-rule:nonzero;"/>
                <path d="M362.896,285.861C366.366,281.715 376.616,273.939 379.23,274.756C384.533,276.397 379.048,281.976 378.617,282.414C375.07,286.043 364.183,285.88 362.896,285.861Z" style="fill:rgb(72,25,24);fill-rule:nonzero;"/>
                <path d="M365.129,284.612C346.651,286.718 335.301,286.877 332.701,286.913C332.69,295.843 332.679,304.772 332.668,313.702C332.663,316.5 332.626,335.669 345.314,346.311C351.318,351.334 362.489,354.261 364.079,354.677C365.746,353.951 377.132,348.989 383.497,342.88C397.486,329.432 398.299,309.899 398.428,306.776C398.518,304.634 398.972,293.713 399.132,279.991C396.417,280.393 377.214,283.234 365.129,284.612Z" style="fill:white;fill-rule:nonzero;"/>
                <path d="M388.44,333.914C386.96,334.106 377.555,339.958 376.214,340.112C374.578,340.299 365.933,337.088 364.854,337.195C363.806,337.298 355.118,342.152 353.523,342.264C351.731,342.39 343.641,338.246 341.942,338.311C340.964,338.348 339.936,338.723 339.063,339.131C341.697,343.253 344.743,345.809 345.326,346.299C351.329,351.322 362.501,354.249 364.091,354.665C365.758,353.939 377.144,348.976 383.51,342.867C384.163,342.239 387.564,338.974 390.601,334.034L388.44,333.914ZM389.27,311.146C387.943,311.34 378.246,317.253 376.759,317.453C375.148,317.671 366.326,314.738 365.237,314.865C364.331,314.971 354.965,319.998 353.693,320.113C351.889,320.275 343.728,316.323 342.024,316.413C340.415,316.498 340.561,316.811 333.068,320.906C333.145,321.612 333.57,325.501 334.786,329.609C335.261,329.269 338.784,326.738 341.451,326.618C343.462,326.528 353.14,330.5 354.147,330.419C355.088,330.343 364.391,325.828 365.022,325.759C365.69,325.687 374.982,328.268 375.93,328.152C376.915,328.031 387.239,321.903 389.425,321.595C392.152,321.212 395.131,322.789 395.578,323.025C395.816,322.279 396.911,318.842 397.765,313.478C397.113,313.211 391.327,310.845 389.27,311.146ZM389.887,289.409C388.309,289.638 378.675,295.53 377.33,295.71C375.624,295.938 366.717,293.011 365.619,293.137C364.708,293.242 355.322,298.256 353.989,298.375C352.133,298.541 343.879,294.58 342.158,294.67L332.701,299.38L332.687,309.313C338.654,305.657 338.268,304.987 341.585,304.819C343.596,304.717 353.38,308.542 354.424,308.447C355.084,308.386 364.728,303.844 365.468,303.759C366.211,303.673 375.843,305.999 376.544,305.906C377.523,305.775 387.978,299.775 390.233,299.447C392.949,299.052 398.017,301.424 398.648,301.72L398.943,291.901C398.24,291.635 391.672,289.151 389.887,289.409Z" style="fill:rgb(58,177,214);fill-rule:nonzero;"/>
                <path d="M335.259,331.073C337.347,337.296 340.408,341.108 341.021,341.871C348.859,333.063 360.525,319.549 364.68,314.919C368.22,318.225 386.312,335.762 388.188,337.58C388.859,336.691 392.298,332.135 394.788,325.324C380.222,311.624 380.073,312.066 364.987,298.769C345.686,319.671 345.914,319.524 335.259,331.073Z" style="fill:rgb(40,133,72);fill-rule:nonzero;"/>
                <path d="M317.482,335.775C318.014,335.801 322.48,336.016 324.049,336.815C328.318,339.003 331.552,344.224 331.14,343.559C331.783,344.043 337.296,348.191 337.795,351.108C338.244,351.296 342.447,353.064 342.444,355.032C342.442,356.767 335.461,359.16 333.681,358.73C332.927,358.545 325.76,356.784 324.049,357.548C321.964,358.479 315.457,359.208 313.438,358.523L305.849,357.246C305.15,357.11 305.49,356.674 298.261,352.58C297.642,352.224 297.448,353.415 289.767,349.862C288.902,349.462 287.467,348.692 287.139,347.612C286.305,344.878 293.854,343.411 297.25,344.237C298.537,344.55 311.476,335.466 317.482,335.775Z" style="fill:rgb(116,148,143);fill-rule:nonzero;"/>
                <path d="M311.916,337.577L314.949,338.505C315.853,338.622 318.295,337.796 319.493,338.513C320.575,339.149 320.295,340.712 321.516,341.217C322.776,341.736 323.412,342.567 322.538,343.824L320.504,346.692C319.893,346.751 314.519,347.274 312.916,347.848C311.066,348.504 307.429,349.594 311.405,350.642C315.3,351.689 322.093,354.618 321.504,354.861C320.938,355.098 313.14,353.937 312.416,353.83L305.327,353.61C305.312,353.607 301.125,353.134 302.805,354.616C303.924,355.602 300.104,353.348 298.761,352.698C297.183,351.928 293.477,348.929 295.228,348.791C297.514,348.607 297.265,348.867 302.305,349.953C303.213,350.149 306.07,348.774 304.327,347.843C302.976,347.111 306.407,344.135 308.883,344.148C309.331,344.152 314.273,344.193 314.421,343.317C314.529,342.681 312.941,342.28 312.916,342.27C309.882,341.067 308.411,339.048 311.916,337.577Z" style="fill:rgb(207,220,217);fill-rule:nonzero;"/>
                <path d="M315.46,348.182C317.153,347.969 322.442,349.575 322.038,350.356C321.496,351.388 320.727,352.183 319.504,351.658C317.866,350.968 314.282,346.85 315.46,348.182Z" style="fill:rgb(207,220,217);fill-rule:nonzero;"/>
                <path d="M337.784,351.108C337.285,348.192 331.772,344.043 331.129,343.559C330.736,342.924 328.493,339.299 324.438,337.046C322.924,337.531 322.684,338.972 324.038,339.859C324.685,340.283 327.403,342.104 325.56,342.963C324.552,343.421 323.538,344.376 323.038,345.367C322.424,346.569 325.766,345.246 327.082,345.546L331.631,346.607C332.056,346.713 336.273,348.849 334.703,349.636C333.829,350.079 335.92,351.217 336.235,352.144C336.855,353.955 333.58,353.188 333.165,353.188C332.515,353.189 325.442,353.197 325.049,353.564C323.093,355.476 330.467,354.322 333.164,354.781C333.684,354.87 334.691,354.676 334.691,355.204C334.691,355.774 334.051,353.66 327.582,355.668C325.73,356.252 320.26,356.615 318.993,356.176C316.869,355.436 312.113,354.701 311.905,354.775C310.961,355.108 309.873,355.723 311.405,356.22C316.99,358.016 321.635,357.565 322.527,357.479C322.978,357.433 322.811,357.216 328.004,355.989C328.799,355.801 329.861,355.953 330.617,356.211C331.776,356.607 332.198,357.258 332.404,358.431L333.67,358.741C335.867,359.279 339.387,357.634 339.845,357.421L342.158,355.765L342.433,355.044C342.451,352.433 334.184,349.606 337.784,351.108Z" style="fill:rgb(60,69,68);fill-rule:nonzero;"/>
                <path d="M320.016,334.016C319.953,333.728 318.278,329.666 320.016,328.961C320.776,328.644 322.711,330.908 322.549,330.68C322.549,330.67 322.348,325.047 324.06,325.704C325.091,326.105 326.362,329.4 326.093,328.327C326.42,327.472 327.722,324.419 329.115,325.366C329.592,325.685 329.777,326.21 329.79,326.754L329.115,329.411C329.969,329.783 332.517,331.154 331.654,332.453C331.328,332.941 330.786,331.513 324.571,334.353C323.707,334.738 324.019,336.372 325.071,335.887C330.689,333.387 330.748,335.064 330.638,335.497C330.2,337.266 328.857,338.035 327.104,337.991C323.875,337.91 317.429,335.186 321.538,336.686L316.993,339.288L316.482,338.717L320.016,334.016ZM311.416,327.9C311.814,329.574 312.667,330.634 314.438,330.871C315.1,330.96 318.412,331.914 316.971,333.207C316.079,333.998 312.257,333.6 313.438,333.767L314.96,338.018L314.449,338.45L312.427,334.131L310.394,336.347C310.03,336.044 307.294,333.857 308.371,332.958C308.63,332.746 311.44,332.487 310.394,331.281C309.539,330.287 308.045,326.891 310.905,327.83C312.42,328.322 306.471,329.083 308.883,329.015M281.084,341.781C281.705,340.729 285.838,340.763 284.617,340.811C284.729,339.959 284.952,336.87 286.65,337.36C288.228,337.815 290.331,342.753 289.672,341.249C289.812,340.735 290.495,339.608 291.195,340.144C292.631,341.26 294.701,344.155 294.217,344.988C294.025,345.326 292.996,349.275 291.195,349.244C290.512,349.228 289.802,348.716 289.361,348.258L287.15,345.082C286.181,345.294 285.004,344.97 284.128,344.71C283.206,344.436 280.69,340.877 281.084,341.781ZM327.082,342.501C327.395,341.575 328.289,337.874 330.127,338.494C330.89,338.76 331.642,341.734 331.642,341.038C332.178,340.981 336.276,340.545 338.31,341.992C339.947,343.155 340.349,346.516 337.797,347.57C335.94,348.331 331.914,346.886 331.14,346.093C328.006,343.017 332.977,351.685 328.615,351.64C326.687,351.62 325.513,349.201 326.082,347.538L326.082,344.505C324.438,344.447 321.91,344.541 321.027,346.246C321.762,345.197 322.9,344.436 324.049,343.926L327.082,342.501Z" style="fill:rgb(40,133,72);fill-rule:nonzero;"/>
                <path d="M324.56,269.619C324.363,269.217 322.007,266.911 317.982,268.096C312.562,269.691 311.572,274.556 311.416,275.322C310.238,280.952 311.017,281.338 308.883,282.492C305.512,284.316 302.979,299.579 306.849,299.825C310.72,300.061 311.026,298.917 313.938,301.481C315.936,303.26 320.806,303.953 323.538,300.92C323.875,301.447 326.56,305.64 326.56,308.131C326.56,308.999 326.56,318.087 328.593,318.784C329.22,317.954 333.179,312.711 333.19,306.628C333.193,305.265 333.211,295.119 326.56,290.942C327.932,289.957 329.091,288.789 330.111,287.445C332.118,284.803 332.605,285.937 335.818,285.848L344.3,285.474C344.051,284.958 342.171,281.055 339.518,280.152C338.613,279.845 331.449,277.419 327.582,280.346L319.993,285.992L319.482,282.412C320.239,280.97 321.339,279.718 322.527,278.623C324.549,276.725 324.549,272.704 324.549,272.163L324.56,269.619Z" style="fill:rgb(209,190,167);fill-rule:nonzero;"/>
                <path d="M333.229,278.305C340.379,278.188 344.114,283.728 344.852,285.929L335.312,286.351L332.701,285.902C331.965,285.912 327.933,288.769 326.571,291.432C325.079,294.37 317.557,290.178 318.993,287.921C319.733,286.762 325.045,278.439 333.229,278.305Z" style="fill:rgb(147,122,97);fill-rule:nonzero;"/>
                <path d="M315.46,287.004C315.793,285.714 318.785,286.693 318.993,286.754C319.482,286.896 319.029,287.716 324.56,289.83C328.761,291.432 334.254,298.189 334.242,304.053C334.239,305.299 333.743,305.068 329.104,318.755C328.507,320.571 327.224,317.628 327.082,317.201C326.571,315.677 326.571,309.758 326.571,309.109C326.571,305.913 324.25,300.958 322.538,299.813C322.262,299.629 313.29,295.412 315.46,287.004ZM307.883,327.304C307.883,332.656 309.525,332.362 309.394,337.669L308.894,340.617C308.733,345.12 306.749,347.742 306.36,348.255C303.84,346.753 301.623,343.17 301.305,342.657C297.427,336.39 299.369,332.939 299.783,332.203C301.212,329.682 307.169,327.558 307.883,327.304Z" style="fill:rgb(175,152,126);fill-rule:nonzero;"/>
                <path d="M304.838,321.157C305.227,321.235 306.493,332.702 305.849,336.012C304.202,344.461 297.67,351.297 294.217,349.544C290.978,347.897 291.915,346.993 293.717,343.859C294.107,343.175 296.513,338.962 295.239,334.138C294.286,330.602 303.876,322.019 304.838,321.157Z" style="fill:rgb(209,190,167);fill-rule:nonzero;"/>
                <path d="M312.927,299.305C314.536,302.734 318.333,305.197 322.027,301.311C322.222,302.301 323.553,309.031 320.504,313.836C316.821,319.685 307.122,328.766 305.849,329.957L304.327,321.054C305.022,319.317 308.762,309.963 312.927,299.305Z" style="fill:rgb(186,143,105);fill-rule:nonzero;"/>
                <path d="M305.338,280.812C308.662,280.04 313.96,283.409 314.438,286.36C314.84,288.799 315.238,297.861 314.949,299.583L314.518,307.167C314.426,308.116 314.32,309.159 313.938,310.059C313.076,312.076 311.085,313.392 309.737,315.123C309.267,315.727 308.503,316.889 308.371,317.78C307.9,321.027 301.063,327.083 300.294,327.764C299.327,328.618 288.717,337.985 286.639,336.346C284.598,334.741 282.409,315.102 288.15,301.889C292.326,292.288 301.619,283.29 305.338,280.812Z" style="fill:rgb(187,108,63);fill-rule:nonzero;"/>
                <path d="M318.493,269.66C319.434,269.285 322.306,269.218 320.516,270.871C319.338,271.94 316.561,270.425 318.493,269.66Z" style="fill:rgb(2,2,2);fill-rule:nonzero;"/>
                <path d="M414.016,328.33C413.427,328.375 408.768,328.728 406.794,329.844C402.081,332.522 398.243,338.561 398.729,337.796C398.02,338.381 391.948,343.382 391.293,346.559C390.807,346.823 386.321,349.257 386.261,351.297C386.211,353.041 393.492,354.428 395.379,353.75C396.179,353.46 403.811,350.698 405.75,351.381C407.733,352.08 414.923,352.613 417.007,351.952L425.083,350.903C425.813,350.809 425.392,350.22 433.328,346.813C438.485,344.558 439.096,347.142 444.119,344.495C444.529,344.279 444.969,343.861 445.152,343.41C446.232,340.765 438.742,337.905 435.003,338.341C433.877,338.472 421.003,327.777 414.016,328.33Z" style="fill:rgb(116,148,143);fill-rule:nonzero;"/>
                <path d="M419.929,330.212L416.596,331.179C415.367,331.342 413.055,330.472 411.668,331.316C410.479,332.027 410.637,333.687 409.321,334.283C408.07,334.847 407.116,335.735 408.073,337.087L410.123,339.941C410.774,339.969 416.064,340.19 418.21,340.972C420.266,341.715 423.859,342.915 419.65,343.889C415.221,344.936 407.755,348.14 408.622,348.437C409.366,348.696 409.337,348.334 418.382,347.154L425.885,347.217C426.827,347.098 429.224,347.874 428.46,348.438C427.22,349.354 431.359,347.392 432.811,346.875C434.481,346.274 438.504,343.681 436.768,343.312C433.538,342.622 433.638,343.163 429.309,343.697C428.371,343.813 425.419,342.182 427.33,341.349C428.754,340.718 425.591,337.329 422.749,337.228C422.273,337.212 416.963,337.038 416.871,336.242C416.793,335.57 418.547,335.153 418.553,335.15C421.78,333.959 423.612,331.842 419.929,330.212Z" style="fill:rgb(207,220,217);fill-rule:nonzero;"/>
                <path d="M415.467,341.32C413.662,341.118 407.836,342.966 408.278,343.835C408.853,344.948 409.671,345.595 410.923,345.034C412.603,344.3 415.792,340.981 415.467,341.32Z" style="fill:rgb(207,220,217);fill-rule:nonzero;"/>
                <path d="M391.293,346.559C391.948,343.382 398.02,338.381 398.729,337.796C399.193,337.066 401.859,332.866 406.345,330.127C408.177,330.538 407.95,332.144 406.635,333.057C406.15,333.396 402.779,335.719 404.821,336.462C405.883,336.831 406.941,337.729 407.452,338.736C408.115,340.057 404.461,338.867 403.055,339.323L398.068,341.026C397.726,341.151 393.018,344.017 394.656,344.585C395.688,344.955 393.308,346.356 392.927,347.384C392.185,349.377 396.012,348.033 396.154,348.015C396.848,347.926 404.364,346.959 404.878,347.388C407.145,349.387 399.006,348.835 396.094,349.646C395.526,349.804 394.468,349.703 394.447,350.293C394.269,355.176 397.129,348.902 402.054,349.82C403.839,350.161 409.912,350.138 411.241,349.653C413.566,348.8 418.625,348.044 418.867,348.132C419.89,348.505 420.922,349.156 419.309,349.622C413.31,351.339 408.357,351.212 407.396,351.188L401.583,350.2C400.714,350.104 399.541,350.426 398.765,350.767C397.552,351.301 397.04,351.993 396.763,353.27L395.402,353.758C393.069,354.605 389.411,353.472 388.914,353.318L386.539,351.996L386.285,351.305C386.332,348.597 395.307,344.39 391.293,346.559Z" style="fill:rgb(60,69,68);fill-rule:nonzero;"/>
                <path d="M411.359,326.565C411.838,324.815 413.371,321.736 411.66,321.131C410.826,320.826 408.536,323.507 408.788,323.164C408.884,321.36 409.05,317.166 407.41,317.923C406.233,318.471 404.643,322.235 405.014,320.991C404.66,319.996 403.337,317.032 401.826,318.209C401.311,318.606 401.051,319.182 401.006,319.816L401.618,322.569C400.783,323.027 397.724,324.865 398.674,326.202C399.035,326.707 399.491,324.807 406.365,327.279C407.375,327.631 406.806,329.344 405.737,328.96C399.445,326.805 399.539,328.798 399.646,329.274C400.072,331.195 401.635,331.658 403.404,331.416C405.636,331.111 410.034,329.304 409.557,329.5L414.348,332.039L414.936,331.424L411.359,326.565ZM421.126,319.824C420.574,321.64 419.575,322.755 417.637,323.019C416.994,323.106 413.199,324.189 414.729,325.572C415.686,326.425 419.803,325.962 418.533,326.132L416.614,330.663L417.14,331.118L419.603,326.532L421.649,328.945C422.039,328.649 425.157,326.425 424.059,325.404C423.715,325.089 420.78,324.796 421.996,323.516C423.06,322.397 424.695,318.863 421.686,319.76C420.068,320.238 426.349,321.303 423.791,321.122M451.79,338.672C451.269,337.48 447.04,336.613 448.304,336.92C448.262,335.984 448.32,332.748 446.53,332.922C444.909,333.079 442.311,337.826 443.101,336.402C443.008,335.889 442.419,334.531 441.624,334.987C440.07,335.894 437.669,338.594 438.11,339.537C440.037,343.773 439.566,344.194 440.888,344.378C441.574,344.469 442.339,344.081 442.845,343.674L445.363,340.818C446.312,341.208 447.505,341.12 448.464,341.026C449.415,340.933 452.273,337.82 451.79,338.672ZM403.186,336.151C402.857,335.12 402.009,331.489 400.045,332.363C399.263,332.718 398.253,335.89 398.28,335.241C397.68,335.258 393.332,335.384 391.057,337.255C389.167,338.808 388.83,342.27 391.404,342.93C393.325,343.416 397.734,341.359 398.609,340.429C401.647,337.314 396.941,346.362 401.117,345.815C403.035,345.564 404.638,343.145 404.034,341.279L404.178,338.127C404.62,338.068 408.58,337.538 409.57,339.51C408.816,338.444 407.606,337.74 406.404,337.322L403.186,336.151Z" style="fill:rgb(40,133,72);fill-rule:nonzero;"/>
                <path d="M408.361,261.435C408.58,261.012 411.275,258.389 415.793,259.337C421.911,260.62 423.037,265.586 423.218,266.385C424.487,271.833 423.71,272.426 426.008,273.59C429.883,275.553 432.123,290.895 427.827,290.989C423.538,291.074 423.267,289.92 419.898,292.576C417.566,294.418 411.982,295.238 409.145,292.632C408.759,293.183 405.596,297.685 405.498,300.212C405.464,301.114 405.118,310.11 402.746,311.154C402.09,310.426 397.956,305.836 398.155,299.794C398.204,298.314 398.545,288.009 405.976,283.025C404.513,282.264 403.157,281.27 402.019,280.074C399.658,277.594 399.279,278.973 395.749,279.492L386.626,280.815C386.905,280.226 388.947,275.929 391.793,274.508C392.746,274.034 400.512,270.167 404.952,272.568L413.483,277.375L414.1,273.756C413.249,272.349 412.008,271.185 410.697,270.221C408.424,268.528 408.412,264.508 408.41,263.976L408.361,261.435Z" style="fill:rgb(209,190,167);fill-rule:nonzero;"/>
                <path d="M398.629,271.471C390.857,272.62 386.815,279.049 386.008,281.391L396.284,279.902L399.156,278.978C399.993,278.854 404.47,281.073 405.942,283.518C407.528,286.174 416.125,281.381 414.557,279.238C413.723,278.092 407.906,270.1 398.629,271.471Z" style="fill:rgb(147,122,97);fill-rule:nonzero;"/>
                <path d="M418.563,278.141C418.169,276.793 414.595,278.067 414.588,278.069C414.032,278.244 414.426,278.941 408.255,281.657C403.299,283.836 397.256,291.628 397.085,297.41C397.05,298.586 397.687,298.3 402.177,311.207C402.772,312.98 404.384,309.669 404.514,309.347C405.19,307.679 405.422,301.848 405.448,301.191C405.571,298.082 408.283,292.777 410.304,291.422C410.776,291.106 420.817,286.294 418.563,278.141ZM424.997,319.309C424.599,325.136 422.856,324.657 422.634,330.386L422.972,333.522C422.843,338.222 424.778,341.077 425.155,341.633C427.925,340.232 430.509,336.732 430.883,336.224C435.43,330.062 433.653,326.137 433.285,325.323C431.855,322.193 425.752,319.627 424.997,319.309Z" style="fill:rgb(175,152,126);fill-rule:nonzero;"/>
                <path d="M428.755,312.74C428.332,312.795 426.075,325.192 426.533,328.823C427.662,337.745 434.053,345.528 437.743,344.228C441.344,342.957 440.266,341.842 438.705,338.444C438.358,337.682 436.176,332.9 437.901,328.008C439.314,324.037 429.727,313.78 428.755,312.74Z" style="fill:rgb(209,190,167);fill-rule:nonzero;"/>
                <path d="M421.092,290.386C419.199,293.795 414.865,296.415 410.832,292.87C410.591,293.836 408.874,300.711 412.022,305.256C414.383,308.693 425.756,320.987 426.989,322.32L429.328,312.666C428.775,310.847 427.029,305.102 421.092,290.386Z" style="fill:rgb(186,143,105);fill-rule:nonzero;"/>
                <path d="M429.975,272.042C426.18,271.072 420.302,274.518 419.71,277.469C419.24,279.82 418.554,289.041 418.811,290.708C418.907,291.306 418.554,291.295 418.998,298.276C419.058,299.217 419.129,300.26 419.513,301.151C420.384,303.211 422.465,304.514 423.853,306.267C424.255,306.775 425.101,308.031 425.181,308.879C425.481,312.181 432.339,319.638 433.099,320.464C434.057,321.506 444.634,333.005 446.629,331.863C448.707,330.678 453.299,309.275 448.037,295.141C443.894,284.049 434.197,274.78 429.975,272.042Z" style="fill:rgb(187,108,63);fill-rule:nonzero;"/>
                <path d="M415.226,260.932C414.451,260.702 410.776,260.676 412.945,262.287C414.207,263.208 417.387,261.576 415.226,260.932Z" style="fill:rgb(2,2,2);fill-rule:nonzero;"/>
                <path d="M313.949,233.727C314.225,234.454 316.024,239.2 322.038,239.123C323.06,239.111 333.145,238.999 334.25,242.884C333.777,242.961 330.625,243.474 329.115,245.966C327.566,248.544 331.28,254.419 331.684,255.058C331.191,255.063 327.638,255.097 326.093,252.472C326.02,253.124 325.577,257.043 322.56,259.881C321.412,260.942 316.442,260.945 318.004,260.998L323.06,251.313C324.296,248.918 322.299,248.586 320.527,249.616C319.548,250.184 310.913,255.197 306.383,249.148C307.826,248.776 317.222,246.355 324.071,243.283L313.971,242.308C311.264,242.236 307.97,243.062 308.405,242.953C307.918,238.932 312.985,239.647 313.46,239.715C316.529,240.147 312.774,237.901 312.449,236.546C312.196,235.548 314.774,233.43 313.949,233.727ZM396.922,269.689C401.396,268.493 409.102,263.759 407.752,256.449C406.993,252.367 397.775,238.297 398.7,234.459C398.184,234.663 394.671,236.052 393.682,239.253C391.362,246.834 395,245.955 400.235,251.983C403.613,255.885 405.325,262.569 403.75,258.055C403.066,257.665 397.419,254.443 394.015,259.494C394.457,259.372 398.011,258.396 399.745,259.662C401.587,261.008 402.38,263.104 400.921,265.062L396.922,269.689ZM432.106,230.198C432.671,230.33 437.774,231.516 437.891,234.569C438.046,238.574 431.452,239.427 430.764,239.516C431.955,238.535 433.09,237.171 433.457,235.623C434.135,232.647 429.947,226.292 432.106,230.198Z" style="fill:white;fill-rule:nonzero;"/>
                <path d="M345.794,237.823C346.585,238.268 353.583,242.203 356.108,242.555C358.536,242.875 366.269,241.519 367.144,241.365L368.762,237.619C369.329,237.42 373.249,236.046 376.017,235.678L382.225,235.342L383.424,238.217L379.068,247.944L363.924,249.84C361.596,250.101 356.414,248.537 355.613,247.162C353.361,243.255 351.74,245.214 349.044,241.65C348.034,240.316 344.209,237.287 345.794,237.823Z" style="fill:rgb(144,95,65);fill-rule:nonzero;"/>
                <path d="M368.255,241.121C368.265,241.742 367.783,242.302 367.159,242.377C366.537,242.451 366.039,241.997 366.03,241.386C365.757,222.889 365.684,222.971 365.664,221.369C365.656,220.763 366.142,220.203 366.749,220.13C367.364,220.056 367.858,220.495 367.867,221.105C368.011,231.146 368.097,230.959 368.255,241.121ZM358.317,242.839C358.324,243.442 357.794,243.904 357.231,243.959C356.673,244.014 356.12,243.671 356.114,243.055C356.019,234.18 355.894,226.313 355.871,224.858C355.861,224.258 356.393,223.795 356.951,223.74C357.501,223.686 358.045,224.045 358.055,224.642C358.215,233.964 358.3,241.383 358.317,242.839ZM374.425,240.956C374.435,241.57 373.881,242.041 373.32,242.113C372.768,242.184 372.192,241.868 372.182,241.246C372.157,239.79 372.032,232.369 371.798,223.049C371.783,222.446 372.328,221.967 372.883,221.895C373.428,221.824 374.005,222.149 374.021,222.76C374.06,224.216 374.268,232.08 374.425,240.956Z" style="fill:rgb(144,95,65);fill-rule:nonzero;"/>
                <path d="M360.325,229.48C360.351,231.009 357.496,230.787 355.974,230.933C354.522,231.072 351.66,231.77 351.642,230.311C351.624,228.803 354.444,229.055 355.945,228.911C357.411,228.77 360.3,228.008 360.325,229.48ZM362.606,234.296C362.623,235.346 357.322,235.863 356.846,235.91C356.389,235.955 351.142,236.467 351.131,235.414C351.107,233.154 352.328,234.327 356.819,233.888C361.386,233.441 362.569,232.023 362.606,234.296ZM370.779,226.476C370.815,228.01 367.887,227.594 366.364,227.775C364.898,227.949 361.971,228.999 361.944,227.524C361.916,226.003 364.821,226.444 366.332,226.265C367.806,226.09 370.745,224.993 370.779,226.476Z" style="fill:white;fill-rule:nonzero;"/>
                <path d="M377.462,225.343C377.496,226.594 375.083,226.176 373.843,226.338C372.643,226.495 370.24,227.502 370.212,226.292C370.183,225.048 372.584,225.489 373.817,225.328C375.022,225.17 377.429,224.128 377.462,225.343ZM369.76,231.416C369.789,232.806 366.224,232.869 366.17,232.875C364.962,233.018 362.593,233.479 362.572,232.263C362.549,230.885 366.081,230.848 366.132,230.842C367.348,230.699 369.735,230.192 369.76,231.416ZM377.591,230.397C377.623,231.677 375.237,231.504 373.968,231.67C372.758,231.828 370.348,232.565 370.322,231.346C370.296,230.073 372.67,230.269 373.932,230.104C375.146,229.945 377.562,229.173 377.591,230.397Z" style="fill:white;fill-rule:nonzero;"/>
                <path d="M346.964,252.929C348.468,252.647 350.03,250.157 349.109,248.727C350.68,247.87 352.771,248.819 354.001,249.846C356.574,251.984 361.602,249.019 358.356,246.395C359.706,245.505 361.999,245.324 363.324,246.38C365.725,248.271 369.328,247.847 367.751,244.343C369.7,243.601 372.617,244.443 373.376,245.68C375.075,248.436 380.956,246.705 378.412,243.489C379.647,243.097 381.633,243.234 382.401,244.467C382.966,245.369 385.733,246.974 384.713,246.671C385.585,245.557 388.122,244.952 389.247,246.022C391.302,247.951 390.604,250.884 386.497,251.998C382.535,253.063 380.542,248.801 380.757,249.261C379.778,250.59 377.915,251.468 376.268,251.393C375.338,251.348 370.891,248.543 371.735,249.441C370.248,250.318 368.517,251.354 366.722,251.565C366.231,251.623 361.644,249.944 361.152,250.677C360.222,252.066 356.214,253.97 353.472,252.939C353.153,253.446 350.773,257.23 347.518,257.459C344.355,257.682 341.088,255.451 341.081,253.299C341.075,251.553 342.258,249.584 344.251,250.092C345.525,250.391 347.494,254.126 346.964,252.929Z" style="fill:rgb(143,210,226);fill-rule:nonzero;"/>
                <path d="M339.522,263.961C338.919,264.145 333.743,265.72 333.228,268.705C333.018,269.919 331.323,273.128 332.19,272.253C330.578,271.644 329.124,270.617 328.093,269.222C326.779,267.456 326.185,262.254 326.571,261.098C326.82,260.364 328.264,256.108 331.15,252.551C333.014,250.253 334.099,244.362 333.726,242.906C333.3,241.277 329.31,237.871 330.636,238.91C331.331,238.907 337.384,238.877 338.422,242.769C339.487,246.776 337.074,250.375 337.395,249.897C338.434,250.355 339.662,248.753 340.027,248.269C340.085,248.803 340.57,253.316 337.406,254.441C337.116,254.869 335.302,257.545 334.276,260.096C333.666,261.587 331.458,265.678 332.713,264.668C335.278,262.617 340.045,264.126 339.522,263.961ZM305.849,240.968C304.895,241.973 303.827,243.107 303.827,244.607C303.827,245.834 306.305,250.33 308.883,251.637C308.018,251.151 299.783,246.521 299.783,243.214C299.783,239.792 305.341,240.869 305.849,240.968ZM393.131,240.36C393.24,239.495 394.105,232.614 400.338,232.183C415.441,231.161 415.776,231.915 417.384,230.176C417.894,229.628 418.154,229.016 418.333,228.302L418.329,225.47C419.395,225.475 421.762,225.553 422.358,226.934C422.761,227.848 420.757,230.766 420.816,230.703C422.221,230.248 424.106,230.155 425.356,231.09L428.869,234.17C428.192,234.079 423.247,233.409 420.345,233.819L409.551,234.873C410.548,235.226 417.688,237.755 422.217,238.637C423.282,238.842 430.898,240.313 435.775,238.373L428.588,243.349C425.739,245.456 421.259,244.106 420.65,243.923C417.253,242.9 412.151,240.524 411.43,240.188C411.526,243.723 413.035,246.52 413.304,247.019C415.78,251.56 421.267,254.864 417.974,252.43C417.357,252.397 412.821,252.149 410.501,250.473C408.19,248.792 408.073,243.705 408.086,244.24C407.733,244.742 405.306,248.2 401.285,247.793C402.604,246.801 403.472,245.315 404.074,243.821C404.277,243.316 406.285,238.329 405.045,237.083C404.628,236.665 401.442,233.47 398.113,234.568C394.45,235.755 391.451,244.117 393.131,240.36ZM372.917,253.309C368.743,255.53 364.546,259.09 365.156,266.907C365.49,266.257 367.928,261.525 370.723,259.66C370.728,260.346 370.755,264.227 372.457,268.051C373.938,271.367 379.024,274.331 382.075,274.367C381.561,273.716 378.118,269.349 378.099,264.792C378.589,265.814 381.53,271.944 387.186,275.671L387.774,272.054C386.408,271.037 385.309,269.574 384.929,267.9C385.399,268.392 388.342,271.467 392.922,270.799C397.541,270.125 400.995,266.751 401.507,263.462C399.215,264.817 395.741,265.772 395.22,265.915C388.629,267.706 383.903,262.796 383.203,262.069C379.772,258.505 379.062,254.383 379.172,255.023L372.917,253.309Z" style="fill:rgb(40,133,72);fill-rule:nonzero;"/>
                <path d="M267.107,257.612C267.107,209.449 267.107,161.287 267.107,113.125C187.179,87.525 185.406,98.031 100.444,108.861L93.733,110.152C93.714,118.497 94.283,128.076 94.376,129.632C77.804,131.524 66.395,131.529 63.956,131.53L62.687,133.814C57.377,144.235 58.608,154.31 58.828,156.107C63.944,197.942 72.315,220.563 72.09,257.094C119.886,257.574 136.079,247.009 180.635,242.378C213.994,238.91 240.539,248.874 267.107,257.612Z" style="fill:rgb(0,36,125);fill-rule:nonzero;"/>
                <path d="M267.107,113.125C265.041,112.463 247.858,106.96 241.209,105.051C216.783,113.56 193.077,130.803 189.241,133.593C189.24,117.734 189.333,97.822 189.333,97.638C169.624,98.26 138.196,103.202 133.778,103.897C133.778,118.894 134.226,129.995 134.317,132.263C127.585,128.652 110.437,119.653 93.733,110.152C83.329,112.875 76.569,118.107 75.271,119.112C92.714,130.141 120.563,144.699 129.021,149.228C117.314,151.219 112.008,152.024 110.526,152.248C106.991,150.34 82.88,137.326 67.122,126.996L63.956,131.53C78.689,141.279 98.079,151.921 101.109,153.584C78.35,156.567 61.502,156.11 58.828,156.107C60.94,173.373 67.212,207.275 68.032,211.709C69.945,211.712 87.858,212.269 109.734,209.074C85.22,237.155 73.267,242.631 71.794,243.538L72.09,257.094C72.231,257.096 88.394,257.761 107.637,255.053C120.985,242.611 138.474,222.853 140.933,220.124C141.067,222.406 141.754,234.076 141.709,248.688C145.506,247.903 171.236,242.585 189.685,241.772C189.692,222.802 189.563,208.335 189.537,205.428C201.232,213.494 215.591,223.838 241.198,249.318C247.851,251.279 265.04,256.932 267.107,257.612L267.107,235.067C264.624,232.511 244.418,211.717 235.832,203.343C244.418,205.706 264.616,212.348 267.107,213.167L267.107,157.612C264.617,156.793 244.426,150.152 235.843,147.79C244.425,144.141 264.594,136.646 267.107,135.712C267.107,128.183 267.107,120.654 267.107,113.125Z" style="fill:rgb(238,238,238);fill-rule:nonzero;"/>
                <path d="M178.222,98.234C175.544,98.433 164.459,99.255 144.889,102.184C144.889,103.365 144.629,125.907 146.303,157.544C110.456,163.426 96.255,167.295 60.316,167.246C60.702,169.917 62.38,181.545 65.916,200.521C102.073,200.548 113.932,196.866 148.394,190.854C148.603,193.851 150.96,219.926 150.892,246.831C167.145,243.652 177.198,242.7 179.503,242.482C179.525,218.178 178.796,192.58 178.704,186.777C213.182,183.976 231.688,190.408 267.107,202.056L267.107,168.723C231.036,156.86 213.313,150.691 178.256,153.453C177.942,122.116 178.222,99.52 178.222,98.234Z" style="fill:rgb(207,27,43);fill-rule:nonzero;"/>
                <path d="M267.107,113.125L250.875,107.952C217.538,119.741 193.746,137.089 189.245,140.372L189.246,141.717C199.24,141.387 205.391,141.972 206.789,142.105C228.124,129.195 256.258,119.398 267.107,115.367L267.107,113.125ZM75.271,119.112C74.549,119.662 70.622,122.654 67.122,126.996C82.88,137.326 106.991,150.34 110.526,152.248C112.007,152.024 117.313,151.22 129.01,149.23C122.012,145.482 93.081,130.375 75.271,119.112ZM134.305,204.79C123.362,217.39 103.702,240.966 81.418,257.164C82.838,257.143 90.098,257.034 99.139,256.096C115.619,241.737 136.317,217.864 140.471,213.205L139.66,203.769L134.305,204.79ZM267.107,255.412L267.107,241.856C263.878,238.532 238.101,212.002 226.144,200.889C215.79,198.517 208.341,197.809 206.778,197.66C228.147,214.656 256.039,244.021 267.107,255.412Z" style="fill:rgb(207,27,43);fill-rule:nonzero;"/>
            </g>
        </g>
    </g>
</svg>
