<?xml version="1.0" encoding="UTF-8" standalone="no"?>
<!DOCTYPE svg PUBLIC "-//W3C//DTD SVG 1.1//EN" "http://www.w3.org/Graphics/SVG/1.1/DTD/svg11.dtd">
<svg width="100%" height="100%" viewBox="0 0 512 512" version="1.1" xmlns="http://www.w3.org/2000/svg" xmlns:xlink="http://www.w3.org/1999/xlink" xml:space="preserve" xmlns:serif="http://www.serif.com/" style="fill-rule:evenodd;clip-rule:evenodd;stroke-linejoin:round;stroke-miterlimit:2;">
    <g>
        <g>
            <path d="M65.916,200.521C131.114,200.57 165.98,180.937 212,187.156C244.121,191.497 283.613,210.626 315.993,214.514C354.345,219.119 420.451,202.083 465.285,200.634C471.286,255.023 466.46,303.448 465.573,312.341C365.774,315.923 363.543,344.276 259.997,310.822C166.652,280.665 164.705,311.49 66.784,311.522C75.906,255.075 71.644,231.266 65.916,200.521Z" style="fill:rgb(224,0,52);fill-rule:nonzero;"/>
            <path d="M411.553,116.384C327.618,129.405 325.974,131.604 259.985,110.838C187.662,88.078 182.392,98.415 100.444,108.861C77.104,111.835 55.74,130.85 58.828,156.107C61.097,174.663 65.256,196.984 65.916,200.521C131.114,200.57 165.98,180.937 212,187.156C244.121,191.497 283.613,210.626 315.993,214.514C354.345,219.119 420.451,202.083 465.285,200.634C464.175,190.582 459.73,158.925 459.378,156.216C456.362,133 437.012,112.436 411.553,116.384Z" style="fill:rgb(0,152,195);fill-rule:nonzero;"/>
            <g>
                <path d="M254.264,290.424C235.54,284.35 217.233,264.847 217.233,243.527C217.233,224.066 232.667,209.351 254.264,216.357C270.538,221.636 280.159,235.224 281.762,237.488C273.433,222.578 258.757,210.221 244.887,205.982C218.582,197.941 200.444,218.632 200.444,241.676C200.444,268.157 224.041,288.499 244.887,294.87C268.948,302.226 279.823,289.392 281.773,287.091C276.116,291.641 266.482,294.387 254.264,290.424Z" style="fill:white;fill-rule:nonzero;"/>
                <path d="M318.96,270.373C317.876,269.883 312.614,267.503 305.672,263.689L311.716,252.013C310.709,252.336 305.668,253.958 298.983,255.573L294.25,241.13L289.539,253.156L289.506,253.125L276.796,243.302L282.862,257.909L269.574,258.443L282.862,267.354L276.818,278.22L289.495,275.977L289.55,275.97L294.283,290.516L298.994,278.386L311.738,286.927L305.672,273.133C312.614,272.014 317.909,270.645 318.96,270.373Z" style="fill:white;fill-rule:nonzero;"/>
            </g>
            <path d="M100.472,397.677C182.335,386.958 187.634,376.33 259.985,399.708C297.334,411.775 314.968,422.501 412.318,408.636C435.684,405.308 458.974,381.556 461.247,357.894C461.556,354.672 464.496,323.152 465.573,312.341C365.774,315.923 363.543,344.276 259.997,310.822C166.652,280.665 164.705,311.49 66.784,311.522C60.764,348.771 60.713,348.65 59.699,355.921C56.353,379.924 75.267,400.977 100.472,397.677Z" style="fill:rgb(0,174,101);fill-rule:nonzero;"/>
        </g>
    </g>
</svg>
