<?xml version="1.0" encoding="UTF-8" standalone="no"?>
<!DOCTYPE svg PUBLIC "-//W3C//DTD SVG 1.1//EN" "http://www.w3.org/Graphics/SVG/1.1/DTD/svg11.dtd">
<svg width="100%" height="100%" viewBox="0 0 512 512" version="1.1" xmlns="http://www.w3.org/2000/svg" xmlns:xlink="http://www.w3.org/1999/xlink" xml:space="preserve" xmlns:serif="http://www.serif.com/" style="fill-rule:evenodd;clip-rule:evenodd;stroke-linejoin:round;stroke-miterlimit:2;">
    <g>
        <g>
            <path d="M71.596,389.024C83.784,399.862 98.081,397.99 100.472,397.677C182.335,386.958 187.634,376.33 259.985,399.708C297.334,411.775 314.968,422.501 412.318,408.636C435.684,405.308 458.974,381.556 461.247,357.894C462.479,345.062 463.743,330.643 466.201,306.12C416.562,307.749 352.267,326.258 309.674,319.15C267.013,312.031 234.329,288.891 183.479,291.992C157.932,313.26 122.585,351.071 71.596,389.024Z" style="fill:rgb(0,171,201);fill-rule:nonzero;"/>
            <path d="M250.442,252.161C220.348,264.938 203.627,275.222 183.479,291.992C237.43,288.702 272.571,315.418 317.583,320.253C355.108,324.284 422.016,307.57 466.201,306.12C466.999,298.162 470.954,258.69 465.858,206.152C416.314,207.766 352.301,226.264 309.674,219.15C266.954,212.021 234.378,188.888 183.438,191.996C204.279,206.819 218.164,217.908 250.442,252.161Z" style="fill:rgb(250,224,66);fill-rule:nonzero;"/>
            <path d="M411.553,116.384C327.618,129.405 325.974,131.604 259.985,110.838C187.662,88.078 182.392,98.415 100.444,108.861C97.89,109.186 83.639,111.003 71.372,122.665C103.101,144.362 141.871,162.427 183.438,191.996C237.483,188.698 272.523,215.413 317.583,220.253C355.159,224.289 421.73,207.589 465.858,206.152C464.592,193.102 460.077,161.595 459.378,156.216C456.362,133 437.012,112.436 411.553,116.384Z" style="fill:rgb(0,171,201);fill-rule:nonzero;"/>
            <path d="M250.442,252.161C217.91,217.638 204.117,206.704 183.438,191.996C141.888,162.439 103.159,144.402 71.372,122.665C60.651,132.852 57.533,145.516 58.828,156.107C63.749,196.349 71.735,219.194 72.083,253.166C72.44,288.108 64.155,323.962 59.699,355.921C56.904,375.968 69.493,387.155 71.596,389.024C122.601,351.059 157.72,313.437 183.479,291.992C203.627,275.222 220.348,264.938 250.442,252.161Z" style="fill:rgb(20,20,20);fill-rule:nonzero;"/>
        </g>
    </g>
</svg>
