<?xml version="1.0" encoding="UTF-8" standalone="no"?>
<!DOCTYPE svg PUBLIC "-//W3C//DTD SVG 1.1//EN" "http://www.w3.org/Graphics/SVG/1.1/DTD/svg11.dtd">
<svg width="100%" height="100%" viewBox="0 0 512 512" version="1.1" xmlns="http://www.w3.org/2000/svg" xmlns:xlink="http://www.w3.org/1999/xlink" xml:space="preserve" xmlns:serif="http://www.serif.com/" style="fill-rule:evenodd;clip-rule:evenodd;stroke-linejoin:round;stroke-miterlimit:2;">
    <g>
        <g>
            <path d="M222.666,111.237C199.962,103.247 177.318,101.347 144.889,102.184C143.411,102.405 111.348,107.471 100.444,108.861C77.104,111.835 55.74,130.85 58.828,156.107C63.896,197.549 72.023,219.664 72.094,255.171C72.162,289.17 64.081,324.492 59.699,355.921C56.353,379.924 75.267,400.977 100.472,397.677C111.371,396.25 143.401,391.049 144.879,390.822C181.044,380.084 201.572,376.507 222.666,377.904L222.666,111.237Z" style="fill:rgb(238,238,238);fill-rule:nonzero;"/>
            <path d="M411.553,116.384C353.217,125.434 329.502,132.272 280.208,117.216C225.077,100.377 214.083,91.83 144.889,102.184C147.31,102.718 185.981,112.189 212.455,127.219C183.796,135.457 148.575,158.4 146.423,159.768C186.937,171.259 205.222,180.89 212.455,184.997C184.542,193.021 159.793,210.991 150.236,217.912C154.728,219.323 190.398,230.253 212.455,242.774C192.259,248.58 173.474,259.768 150.206,275.398C191.86,288.861 207.784,297.9 212.455,300.552C189.619,307.116 164.494,322.262 146.832,333.004C168.385,339.552 193.866,347.777 212.455,358.33C190.669,364.592 163.265,380.109 144.879,390.822C223.166,378.784 231.12,392.554 288.167,408.616C302.569,412.671 324.448,421.151 412.318,408.636C435.684,405.308 458.974,381.556 461.247,357.894C471.973,246.225 470.846,244.48 459.378,156.216C456.362,133 437.012,112.436 411.553,116.384Z" style="fill:rgb(206,17,38);fill-rule:nonzero;"/>
        </g>
    </g>
</svg>
