<?xml version="1.0" encoding="UTF-8" standalone="no"?>
<!DOCTYPE svg PUBLIC "-//W3C//DTD SVG 1.1//EN" "http://www.w3.org/Graphics/SVG/1.1/DTD/svg11.dtd">
<svg width="100%" height="100%" viewBox="0 0 512 512" version="1.1" xmlns="http://www.w3.org/2000/svg" xmlns:xlink="http://www.w3.org/1999/xlink" xml:space="preserve" xmlns:serif="http://www.serif.com/" style="fill-rule:evenodd;clip-rule:evenodd;stroke-linejoin:round;stroke-miterlimit:2;">
    <g>
        <g>
            <path d="M461.247,357.894C458.974,381.556 435.684,405.308 412.318,408.636C308.939,423.36 296.194,410.772 244.032,394.61C189.598,377.745 160.51,389.816 100.472,397.677C75.267,400.977 56.353,379.924 59.699,355.921C64.445,321.88 73.245,285.12 71.958,247.429C70.917,216.956 63.537,194.612 58.828,156.107C55.74,130.85 77.104,111.835 100.444,108.861C182.392,98.415 187.662,88.078 259.985,110.838C325.827,131.557 327.444,129.432 411.553,116.384C437.012,112.436 456.362,133 459.378,156.216C470.841,244.445 471.982,246.128 461.247,357.894Z" style="fill:rgb(0,106,77);fill-rule:nonzero;"/>
            <path d="M233.776,163.897C267.738,172.951 311.549,216.978 311.549,263.898C311.549,292.242 293.614,335.404 233.776,319.452C160.326,299.875 160.266,255.138 160.185,239.586C159.918,188.643 194.066,153.313 233.776,163.897Z" style="fill:rgb(244,42,65);"/>
        </g>
    </g>
</svg>
