<?xml version="1.0" encoding="UTF-8" standalone="no"?>
<!DOCTYPE svg PUBLIC "-//W3C//DTD SVG 1.1//EN" "http://www.w3.org/Graphics/SVG/1.1/DTD/svg11.dtd">
<svg width="100%" height="100%" viewBox="0 0 512 512" version="1.1" xmlns="http://www.w3.org/2000/svg" xmlns:xlink="http://www.w3.org/1999/xlink" xml:space="preserve" xmlns:serif="http://www.serif.com/" style="fill-rule:evenodd;clip-rule:evenodd;stroke-linejoin:round;stroke-miterlimit:2;">
    <g>
        <g>
            <path d="M461.247,357.894C458.974,381.556 435.684,405.308 412.318,408.636C308.939,423.36 296.194,410.772 244.032,394.61C189.598,377.745 160.51,389.816 100.472,397.677C75.267,400.977 56.353,379.924 59.699,355.921C64.445,321.88 73.245,285.12 71.958,247.429C70.917,216.956 63.537,194.612 58.828,156.107C55.74,130.85 77.104,111.835 100.444,108.861C182.392,98.415 187.662,88.078 259.985,110.838C325.827,131.557 327.444,129.432 411.553,116.384C437.012,112.436 456.362,133 459.378,156.216C470.841,244.445 471.982,246.128 461.247,357.894Z" style="fill:rgb(0,38,127);fill-rule:nonzero;"/>
            <path d="M100.444,108.861C77.104,111.835 55.74,130.85 58.828,156.107C63.896,197.549 72.023,219.664 72.094,255.171C72.162,289.17 64.081,324.492 59.699,355.921C56.353,379.924 75.267,400.977 100.472,397.677C124.511,394.53 161.227,387.063 189.323,386.155C189.199,363.074 189.333,363.22 189.333,97.638C161.905,98.503 123.034,105.981 100.444,108.861Z" style="fill:rgb(0,38,127);fill-rule:nonzero;"/>
            <path d="M189.333,97.638C238.99,96.075 278.553,123.038 322.66,125.871C322.66,222.295 322.66,318.719 322.66,415.143C278.546,412.234 239.006,384.551 189.323,386.155C189.199,363.074 189.333,363.22 189.333,97.638Z" style="fill:rgb(255,199,38);fill-rule:nonzero;"/>
            <path d="M309.66,219.326C295.24,216.895 283.151,222.938 277.895,227.248C282.555,227.672 283.591,231.717 282.928,233.663C278.06,248.395 273.624,268.192 272.585,276.533L262.552,273.243L262.552,215.621L274.662,217.068L259.486,209.065L256.342,192.734L253.197,207.012L238.01,205.396L250.231,211.628L250.231,269.228L239.709,266.016C238.686,257.169 234.266,234.618 229.366,217.121C228.696,214.762 229.822,211.312 234.399,213.552C232.613,211.052 219.701,192.973 202.633,191.961C206.14,197.352 227.288,229.861 229.943,267.564L229.943,274.475C231.583,274.883 238.593,276.628 250.231,280.328L250.231,307.15L262.552,311.165L262.552,284.343C275.719,288.689 280.493,290.136 282.062,290.612L282.062,288.034C282.995,253.829 303.717,227.1 309.66,219.326Z" style="fill-rule:nonzero;"/>
        </g>
    </g>
</svg>
