<?xml version="1.0" encoding="UTF-8" standalone="no"?>
<!DOCTYPE svg PUBLIC "-//W3C//DTD SVG 1.1//EN" "http://www.w3.org/Graphics/SVG/1.1/DTD/svg11.dtd">
<svg width="100%" height="100%" viewBox="0 0 512 512" version="1.1" xmlns="http://www.w3.org/2000/svg" xmlns:xlink="http://www.w3.org/1999/xlink" xml:space="preserve" xmlns:serif="http://www.serif.com/" style="fill-rule:evenodd;clip-rule:evenodd;stroke-linejoin:round;stroke-miterlimit:2;">
    <g>
        <g>
            <path d="M122.678,394.376C197.339,382.399 206.296,382.339 261.172,400.099C297.949,412.001 315.936,422.363 412.318,408.636C435.684,405.308 458.974,381.556 461.247,357.894C461.556,354.672 464.496,323.152 465.573,312.341C399.669,314.706 350.086,336.891 289.328,320.053C217.604,300.176 217.13,289.334 129.385,305.467C127.478,324.684 122.924,364.191 122.678,394.376Z" style="fill:rgb(74,166,87);fill-rule:nonzero;"/>
            <path d="M411.553,116.384C353.933,125.323 329.642,132.238 280.957,117.44C209.631,95.76 208.649,92.225 122.667,105.645C122.667,186.986 139.058,208.008 129.385,305.467C217.13,289.334 217.604,300.176 289.328,320.053C350.082,336.89 399.627,314.708 465.573,312.341C472.889,238.95 464.234,193.59 459.378,156.216C456.362,133 437.012,112.436 411.553,116.384Z" style="fill:rgb(200,49,62);fill-rule:nonzero;"/>
            <path d="M100.444,108.861C77.104,111.835 55.74,130.85 58.828,156.107C63.749,196.349 71.735,219.194 72.083,253.166C72.44,288.108 64.155,323.962 59.699,355.921C56.353,379.924 75.267,400.977 100.472,397.677C102.253,397.444 109.312,396.52 122.678,394.376C123.069,346.506 132.65,296.256 132.561,248.626C132.477,204.091 122.667,162.908 122.667,105.645C109.289,107.733 102.226,108.634 100.444,108.861Z" style="fill:white;fill-rule:nonzero;"/>
            <g>
                <path d="M65.547,380.278L73.867,367.769L79.671,380.1L72.937,390.125C75.721,392.361 78.304,393.676 78.803,393.93C79.573,392.582 82.846,386.855 88.658,377.216C87.584,375.313 82.458,366.228 76.077,352.966C72.708,357.302 69.309,361.615 65.931,365.945C64.266,368.078 62.593,370.205 60.95,372.355C61.305,373.551 63.203,379.946 68.507,385.994L65.547,380.278ZM123.149,373.248C115.737,362.337 110.209,352.865 109.151,351.052C104.016,358.34 91.869,375.174 90.36,377.267C91.351,378.903 96.537,387.465 103.448,397.278L110.632,396.249C111.613,394.398 115.232,387.564 123.149,373.248ZM108.228,364.37L114.209,376.018L106.57,388.537L100.365,377.663L108.228,364.37ZM132.529,254.234L132.535,244.41L129.689,249.794L132.529,254.234ZM88.274,132.83C82.255,124.642 78.372,118.897 77.539,117.666C69.464,123.162 62.7,131.373 60.032,141.193C61.334,142.73 67.481,149.993 76.71,160.054C82.564,145.458 87.299,134.987 88.274,132.83ZM65.439,135.905L71.703,123.389L79.637,135.72L73.585,147.581L65.439,135.905ZM110.348,158.278C116.251,143.366 121.911,131.158 122.989,128.832C114.694,118.354 114.935,118.395 106.767,108.016L104.867,108.278C99.574,116.294 91.183,130.886 90.038,132.878C96.188,140.807 108.71,156.257 110.348,158.278ZM114.173,131.621L108.023,144.156L100.289,133.271L106.542,119.982L114.173,131.621Z" style="fill:rgb(200,49,62);fill-rule:nonzero;"/>
                <path d="M121.429,218.993C124.791,209.878 124.494,209.97 127.894,200.778L129.649,201.312L128.856,194.422C127.513,192.654 121.854,185.206 111.756,172.564C110.642,174.81 106.2,183.757 98.316,200.879C87.897,187.957 87.948,188.19 77.661,175.418C71.956,187.698 72.178,187.648 65.757,199.671L67.106,206.839C75.293,216.249 79.476,222.15 80.466,223.546L85.289,212.816L79.206,205.99L81.819,201.054C88.385,207.738 88.38,207.514 94.487,214.448C89.275,229.212 83.916,239.703 82.834,241.822C77.011,234.224 76.851,234.61 70.458,227.685C71.491,236.424 71.81,243.776 71.871,245.179L72.587,244.334C78.825,250.948 78.902,250.659 84.346,257.87C78.578,267.688 78.306,267.192 71.295,275.865L70.062,288.589C76.539,281.936 76.781,282.366 82.469,275.108C83.483,277.023 88.358,286.232 94.374,299.438L84.341,311.296L82.189,313.702L80.877,311.427L79.452,308.967L85.262,302.079L80.114,292.506C77.678,295.858 68.355,306.977 67.313,308.219L66.288,314.574C73.118,326.595 72.722,326.513 78.723,338.705C89.889,323.033 96.63,312.562 98.122,310.245L98.823,309.148L99.257,310.123C100.217,312.276 106.692,326.783 111.671,336.85C121.478,320.577 127.964,308.643 129.317,306.154L129.744,301.824L128.481,302.666L121.639,288.131L114.823,298.923L118.3,304.968L116.33,307.756L114.478,310.342L113.172,308.259L106.806,298.076C115.16,284.551 121.241,272.899 122.408,270.662L131.203,284.553L131.967,272.059C126.644,261.79 122.727,254.846 121.892,253.367C122.607,252.154 126.111,246.204 130.527,238.036L132.475,240.665C132.243,229.341 131.509,220.064 131.368,218.277C126.547,228.717 122.975,235.738 122.211,237.239C121.014,235.268 114.759,224.963 106.444,213.109L113.742,197.746L117.671,202.05L114.394,209.671L121.429,218.993ZM116.563,242.969C116.611,244.658 116.855,253.28 116.48,264.088C109.412,277.356 102.599,287.929 101.3,289.946C95.618,277.685 90.916,268.928 89.951,267.132C90.438,256.516 90.122,247.993 90.061,246.329C91.078,244.288 96.147,234.116 101.224,220.09C109.297,231.347 115.395,241.1 116.563,242.969Z" style="fill:rgb(200,49,62);fill-rule:nonzero;"/>
                <path d="M94.594,243.567L100.801,254.978L94.559,267.405L98.818,269.603L103.525,260.317L107.532,268.559L111.843,265.339L106.358,254.29L111.871,241.433L107.558,239.398L103.547,248.95L98.847,240.482L94.594,243.567ZM61.327,346.885L66.805,358.699L75.738,347.103L70.745,334.541L61.327,346.885ZM78.554,346.65L83.661,358.062L92.243,345.993L87.359,333.907L78.554,346.65ZM94.638,345.407L99.768,356.442L107.996,344.051L103.012,332.291L94.638,345.407ZM111.455,343.2L116.764,353.983L124.593,341.406L119.363,329.835L111.455,343.2ZM60.822,168.637L70.084,180.466L75.334,168.858L66.302,156.293L60.822,168.637ZM78.051,168.4L86.773,179.8L91.896,167.718L83.213,155.632L78.051,168.4ZM94.201,167.127L102.506,178.151L107.701,165.745L99.381,153.988L94.201,167.127ZM111.091,164.886L118.949,175.661L124.353,163.067L116.448,151.503L111.091,164.886Z" style="fill:rgb(200,49,62);fill-rule:nonzero;"/>
            </g>
        </g>
    </g>
</svg>
