<?xml version="1.0" encoding="UTF-8" standalone="no"?>
<!DOCTYPE svg PUBLIC "-//W3C//DTD SVG 1.1//EN" "http://www.w3.org/Graphics/SVG/1.1/DTD/svg11.dtd">
<svg width="100%" height="100%" viewBox="0 0 512 512" version="1.1" xmlns="http://www.w3.org/2000/svg" xmlns:xlink="http://www.w3.org/1999/xlink" xml:space="preserve" xmlns:serif="http://www.serif.com/" style="fill-rule:evenodd;clip-rule:evenodd;stroke-linejoin:round;stroke-miterlimit:2;">
    <g>
        <g>
            <path d="M109.333,107.649C82.432,111.498 55.719,130.68 58.828,156.103C64.069,198.964 71.759,217.532 72.094,255.311C72.376,287.013 63.725,327.041 59.698,355.925C56.453,379.206 78.444,400.989 109.356,396.444C125.045,394.137 163.788,386.986 189.323,386.16C189.199,363.079 189.333,363.225 189.333,97.634C163.83,98.438 125.029,105.402 109.333,107.649Z" style="fill:rgb(20,20,20);fill-rule:nonzero;"/>
            <path d="M189.333,97.634C239.043,96.069 278.454,123.025 322.66,125.864C322.66,222.293 322.66,318.721 322.66,415.149C278.336,412.225 239.225,384.549 189.323,386.16C189.199,363.079 189.333,363.225 189.333,97.634Z" style="fill:rgb(253,218,36);fill-rule:nonzero;"/>
            <path d="M402.664,117.793C395.931,118.885 348.825,127.542 322.66,125.864C322.66,222.293 322.66,318.721 322.66,415.149C350.04,416.951 396.969,410.723 403.364,409.874C431.277,406.169 458.999,381.299 461.246,357.898C471.98,246.154 470.845,244.474 459.377,156.212C456.376,133.107 433.342,112.819 402.664,117.793Z" style="fill:rgb(239,51,64);fill-rule:nonzero;"/>
        </g>
    </g>
</svg>
