<?xml version="1.0" encoding="UTF-8" standalone="no"?>
<!DOCTYPE svg PUBLIC "-//W3C//DTD SVG 1.1//EN" "http://www.w3.org/Graphics/SVG/1.1/DTD/svg11.dtd">
<svg width="100%" height="100%" viewBox="0 0 512 512" version="1.1" xmlns="http://www.w3.org/2000/svg" xmlns:xlink="http://www.w3.org/1999/xlink" xml:space="preserve" xmlns:serif="http://www.serif.com/" style="fill-rule:evenodd;clip-rule:evenodd;stroke-linejoin:round;stroke-miterlimit:2;">
    <g>
        <g>
            <path d="M461.247,357.894C458.974,381.556 435.684,405.308 412.318,408.636C308.939,423.36 296.194,410.772 244.032,394.61C189.598,377.745 160.51,389.816 100.472,397.677C75.267,400.977 56.353,379.924 59.699,355.921C64.124,324.182 72.441,288.14 72.083,253.166C71.737,219.335 63.762,196.456 58.828,156.107C55.74,130.85 77.104,111.835 100.444,108.861C182.392,98.415 187.662,88.078 259.985,110.838C325.827,131.557 327.444,129.432 411.553,116.384C437.012,112.436 456.362,133 459.378,156.216C470.836,244.4 471.98,246.152 461.247,357.894Z" style="fill:rgb(206,27,38);fill-rule:nonzero;"/>
            <path d="M62.911,133.814C57.408,144.494 58.608,154.307 58.828,156.107C63.749,196.349 71.735,219.194 72.083,253.166C72.44,288.108 64.155,323.962 59.699,355.921C59.45,357.709 58.083,367.513 63.363,378.189C148.708,378.161 162.639,346.136 258.001,376.833C327.008,399.046 328.602,397.563 452.938,380.31C460.181,368.985 461.064,359.798 461.247,357.894C471.963,246.325 470.85,244.51 459.378,156.216C459.134,154.343 457.857,144.511 450.792,134.217C365.574,139.308 357.16,164.48 265.988,135.021C160.51,100.939 158.157,133.849 62.911,133.814Z" style="fill:rgb(0,62,135);fill-rule:nonzero;"/>
            <path d="M255.997,142.843C269.367,147.208 369.536,189.408 369.725,268.068C369.798,298.726 341.631,393.019 255.997,365.066C243.695,361.05 195.206,340.751 172.654,315.541C150.127,290.36 150.877,252.594 150.892,246.831C151.078,173.014 195.544,123.11 255.997,142.843Z" style="fill:white;"/>
            <path d="M255.997,153.954C280.154,161.84 357.377,202.924 357.49,269.421C357.54,299.287 332.724,379.001 255.997,353.954C234.624,346.978 194.634,325.701 177.877,304.104C174.236,299.41 160.123,280.904 160.194,245.111C160.313,184.616 197.955,135.008 255.997,153.954Z" style="fill:rgb(115,9,0);"/>
            <path d="M255.997,156.81C281.759,165.22 354.288,205.875 354.385,269.712C354.43,299.662 330.204,375.323 255.997,351.099C233.323,343.698 195.838,322.53 180.023,302.174C176.753,297.966 162.55,279.652 162.614,244.704C162.72,187.171 198.877,138.165 255.997,156.81Z" style="fill:white;"/>
            <path d="M255.997,146.654C258.96,147.621 261.663,152.111 261.663,155.816C261.663,159.971 258.893,162.2 255.997,161.254C253.032,160.287 250.331,155.828 250.331,152.126C250.331,147.97 253.101,145.709 255.997,146.654Z" style="fill:rgb(0,127,0);"/>
            <path d="M255.997,346.654C258.96,347.621 261.663,352.111 261.663,355.816C261.663,359.971 258.893,362.2 255.997,361.254C253.032,360.287 250.331,355.828 250.331,352.126C250.331,347.97 253.101,345.709 255.997,346.654Z" style="fill:rgb(0,127,0);"/>
            <path d="M224.655,340.132C225.705,336.443 229.118,334.797 232.01,336.311C234.815,337.786 236.615,342.272 235.599,345.79C234.554,349.406 231.126,350.937 228.232,349.479C225.415,348.036 223.643,343.676 224.655,340.132ZM279.995,172.18C282.911,173.862 286.31,172.393 287.35,168.806C288.355,165.343 286.611,160.856 283.773,159.238C280.863,157.6 277.456,159.013 276.418,162.549C275.41,166.006 277.174,170.562 279.995,172.18ZM201.1,325.47C203.151,321.993 207.079,320.895 209.655,322.679C212.193,324.457 212.962,328.695 210.911,331.989C208.891,335.246 204.905,336.297 202.367,334.69C199.747,333.034 199.083,328.87 201.1,325.47ZM302.35,187.44C304.97,189.519 308.881,188.743 310.905,185.574C312.891,182.465 312.299,178.19 309.649,176.224C307.052,174.285 303.097,175.01 301.094,178.021C299.072,181.072 299.756,185.394 302.35,187.44ZM181.573,308.796C184.47,305.603 188.492,305.243 190.486,307.218C192.453,309.167 192.124,313.483 189.316,316.417C186.529,319.319 182.28,319.908 180.365,318.037C178.439,316.157 178.87,311.765 181.573,308.796ZM321.549,205.064C323.596,207.266 327.696,207.226 330.705,204.233C333.615,201.305 333.953,197.125 331.859,195.058C329.819,193.044 325.53,193.35 322.704,195.99C319.741,198.736 319.512,202.864 321.549,205.064ZM168.345,288.525C171.641,286.05 175.39,286.573 176.624,288.881C177.829,291.124 176.454,295.41 173.226,297.744C169.918,300.137 166.084,299.692 164.923,297.489C163.68,295.119 165.267,290.83 168.345,288.525ZM336.367,224.472C337.837,226.907 342.04,227.622 345.835,225.259C349.57,222.94 351.026,218.864 349.474,216.455C347.956,214.123 343.47,213.631 339.929,215.785C336.164,218.057 334.902,222.055 336.367,224.472ZM161.567,265.076C165.058,263.445 168.256,264.868 168.849,267.541C169.444,270.22 167.042,274.066 163.789,275.541C160.374,277.076 157.129,275.823 156.588,273.155C156.039,270.451 158.474,266.521 161.567,265.076ZM346.136,246.349C346.927,249.067 350.863,250.71 355.282,249.206C359.638,247.709 362.106,243.934 361.264,241.231C360.43,238.599 356.259,237.116 352.02,238.542C347.783,239.953 345.34,243.662 346.136,246.349Z" style="fill:rgb(0,127,0);fill-rule:nonzero;"/>
            <path d="M160.184,239.476C163.599,238.884 166.417,241.13 166.412,244.104C166.407,247.105 163.237,250.211 160.163,250.736C156.739,251.322 154.058,249.179 154.064,246.221C154.072,243.162 157.185,239.995 160.184,239.476Z" style="fill:rgb(0,127,0);"/>
            <path d="M349.6,270.111C349.604,272.969 352.904,275.537 357.493,275.089C361.985,274.651 365.497,271.409 365.491,268.57C365.485,265.73 362.101,263.302 357.474,263.753C353.077,264.183 349.597,267.305 349.6,270.111ZM163.787,213.036C167.169,213.562 169.494,216.677 168.881,219.732C168.289,222.648 164.854,224.946 161.604,224.47C158.256,223.979 156.067,220.929 156.601,217.876C157.156,214.814 160.465,212.517 163.787,213.036ZM346.178,294.354C345.366,297.204 347.787,300.552 352.074,301.261C356.349,301.969 360.479,299.708 361.351,296.797C362.184,293.94 359.742,290.732 355.339,290.047C351.242,289.413 346.989,291.506 346.178,294.354ZM173.107,187.942C176.346,189.589 177.852,193.479 176.529,196.168C175.071,199.108 171.265,199.921 168.223,198.355C165.231,196.825 163.475,193.001 164.749,190.212C166.012,187.423 169.797,186.255 173.107,187.942ZM336.385,317.184C334.853,319.787 336.322,323.748 339.928,325.651C343.602,327.591 347.914,326.526 349.471,323.826C350.982,321.214 349.758,317.332 345.892,315.449C342.243,313.676 337.872,314.629 336.385,317.184ZM189.276,166.998C192.151,169.772 192.544,173.952 190.455,176.127C188.463,178.202 184.298,178.088 181.483,175.41C178.663,172.715 178.306,168.49 180.26,166.324C182.266,164.091 186.369,164.193 189.276,166.998ZM321.549,336.176C319.514,338.056 319.935,342.44 322.704,345.413C325.756,348.64 329.869,348.81 331.877,346.819C333.923,344.791 333.701,340.639 330.716,337.654C327.882,334.786 323.564,334.323 321.549,336.176ZM210.911,153.123C212.941,156.905 212.129,160.98 209.644,162.122C207.179,163.26 203.049,161.396 201.1,157.926C198.977,154.167 199.904,150.112 202.356,148.834C204.798,147.561 208.886,149.349 210.911,153.123ZM302.35,348.029C300.003,348.886 298.965,352.752 301.094,356.899C303.167,360.948 307.269,363.033 309.649,362.068C312.017,361.099 313.034,357.124 310.916,353.132C308.904,349.328 304.762,347.154 302.35,348.029ZM235.587,149.653C236.69,154.074 234.63,157.185 232.01,157.211C229.311,157.237 225.666,153.856 224.644,149.863C223.54,145.496 225.521,142.256 228.232,142.179C230.999,142.101 234.56,145.544 235.587,149.653ZM279.995,351.302C277.427,351.196 275.285,354.144 276.407,358.701C277.44,362.837 281.085,366.458 283.773,366.538C286.355,366.612 288.46,363.534 287.35,359.072C286.35,355.01 282.701,351.401 279.995,351.302Z" style="fill:rgb(0,127,0);fill-rule:nonzero;"/>
            <path d="M222.222,180.012C223.114,181.72 227.446,190.007 233.243,201.433L245.32,204.903L250.731,210.942L254.064,223.526L242.109,214.544L253.264,227.156L250.575,235.448L259.764,238.434L259.764,222.179L274.762,217.9L272.285,215.258L259.841,218.127L258.397,207.496L256.153,204.35L263.797,197.431L259.852,194.53L254.075,201.196L253.264,193.978L254.075,185.651C253.027,184.479 250.108,180.976 250.586,182.474C250.942,183.587 250.62,189.426 250.586,190.03L243.365,180.031L240.021,180.373L247.276,188.997L238.843,192.756L228.61,187.226L230.577,177.278L228.477,176.76L226.666,186.165L224.855,177.376L222.233,181.447M260.975,181.034L263.385,181.829L263.385,190.862L260.975,190.067L260.975,181.034ZM273.618,186.989L276.629,187.949L276.629,192.761L273.618,191.8L273.618,186.989Z" style="fill:rgb(179,75,0);fill-rule:nonzero;"/>
            <path d="M235.554,193.922L237.543,199.797L249.153,204.486L254.075,211.118L252.142,204.694L249.153,197.031L235.554,193.922Z" style="fill:white;fill-rule:nonzero;"/>
            <path d="M222.455,170.171C228.108,167.949 232.68,173.362 233.999,175.745C234.647,173.935 238.17,167.894 245.52,169.642C254.143,171.693 254.06,176.395 254.075,175.562C255.983,170.645 266.553,176.197 267.507,176.699C280.982,183.775 277.757,186.862 276.751,187.377C274.818,188.377 258.873,182.228 257.364,181.646C257.555,182.071 259.163,185.646 259.364,187.114C259.5,188.122 267.096,187.463 275.607,192.425C276.376,191.329 281.203,186.279 287.861,192.129C295.493,198.839 299.996,208.316 298.316,210.127C296.555,212.039 283.321,206.949 281.74,204.781C281.38,205.263 278.156,208.005 272.818,205.586C266.682,202.817 257.368,193.862 256.153,192.694L254.064,188.792C253.368,188.019 249.185,183.373 243.354,181.416C237.662,179.518 232.59,178.409 233.399,178.585C232.857,179.075 229.465,182.14 224.833,181.715L215.411,180.299C215.179,178.675 215.763,172.809 222.455,170.171Z" style="fill:rgb(40,148,0);fill-rule:nonzero;"/>
            <path d="M230.566,184.886C243.261,186.092 249.868,191.433 250.531,196.301C251.526,203.61 247.122,199.227 240.009,197.903C231.755,196.363 231.651,199.69 223.444,197.48C219.394,196.39 212.772,191.306 217.822,187.353C221.707,184.296 227.774,184.184 230.566,184.886ZM274.773,208.826C286.582,215.353 291.235,222.836 288.861,224.534C284.688,227.537 274.535,220.58 273.474,219.853C269.921,217.419 258.685,213.828 257.053,209.644C255.492,205.674 260.844,201.116 274.773,208.826ZM270.907,222.033C279.409,226.192 279.798,233.929 278.44,234.874C277.012,235.845 263.649,229.518 260.786,225.127C258.18,221.154 261.753,217.552 270.907,222.033ZM238.843,207.989C249.389,207.024 254.202,213.552 254.075,217.507C253.967,221.191 243.078,218.91 241.409,219.18C240.437,219.339 231.992,220.72 229.277,217.077C227.248,214.378 230.26,208.771 238.843,207.989Z" style="fill:rgb(40,148,0);fill-rule:nonzero;"/>
            <path d="M231.466,317.026C222.586,323.501 232.799,328.204 233.654,328.598C243.05,332.923 239.688,322.68 237.543,320.419C234.558,317.254 226.343,315.516 231.466,317.026Z" style="fill:rgb(173,173,173);fill-rule:nonzero;"/>
            <path d="M236.299,321.072C236.719,322.426 237.669,324.896 236.299,326.083C233.73,328.304 230.738,327.253 230.277,327.092C231.221,327.489 239.213,330.856 241.709,332.858C243.176,334.006 245.651,332.579 244.52,327.47C243.499,322.867 237.107,321.273 236.299,321.072Z" style="fill:rgb(102,153,255);fill-rule:nonzero;"/>
            <path d="M297.694,320.367C292.516,319.12 286.39,321.001 285.451,321.289C285.013,320.723 282.25,317.151 277.018,318.306C275.047,318.749 268.741,318.544 269.196,324.619C268.753,324.701 266.361,325.142 263.574,324.98C259.168,324.736 255.636,322.383 256.153,322.727C253.164,322.766 249.272,320.472 248.731,320.153C244.79,317.84 239.256,313.065 243.12,316.213C243.579,310.371 236.839,306.389 235.287,305.127C230.086,300.918 226.308,303.817 226.855,303.397C225.999,302.685 219.902,297.608 214.611,296.783C209.553,295.994 204.785,300.684 204.978,302.058C205.292,304.301 208.61,310.365 208.989,311.057C209.789,312.526 211.145,315.076 215.411,315.765C218.634,316.287 226.299,315.784 227.244,315.722C228.743,317.565 237.556,323.464 238.487,324.087C245.777,328.95 253.97,332.309 256.142,332.968C257.486,333.44 264.536,335.914 273.796,335.346C282.787,334.783 285.545,333.048 285.039,333.402C285.941,333.937 292.834,338.033 296.883,339.025C300.774,339.978 302.267,338.222 303.305,336.666C305.266,333.699 307.223,329.522 307.316,328.845C307.523,327.501 302.575,321.542 297.694,320.367Z" style="fill:rgb(238,238,238);fill-rule:nonzero;"/>
            <path d="M227.755,304.265C231.771,307.936 241.862,315.295 243.12,316.213C243.441,315.435 243.661,312.537 241.265,310.327C240.55,309.659 237.891,307.179 231.477,302.996C230.967,302.663 230.246,302.434 229.634,302.65C228.855,302.926 227.352,304.986 227.755,304.265ZM229.266,316.474C228.403,315.487 222.271,308.466 216.422,306.299C212.05,304.689 207.73,306.19 207.855,308.878C207.982,311.804 212.033,315.607 215.422,315.767L229.266,316.474Z" style="fill:rgb(173,173,173);fill-rule:nonzero;"/>
            <path d="M229.266,305.774C229.322,304.713 231.274,303.576 232.077,304.272C232.747,304.863 233.329,305.61 233.654,306.452C233.991,307.328 233.618,310.16 233.888,309.26L229.266,305.774ZM225.655,314.366C224.96,313.699 218.966,307.939 215.822,307.421C215.344,307.343 209.771,306.425 210,309.087C210.213,311.59 215.833,313.527 216.433,313.734C218.267,314.378 224.915,314.367 225.655,314.366Z" style="fill:rgb(102,153,255);fill-rule:nonzero;"/>
            <path d="M280.84,332.406C281.357,333.073 289.879,344.049 278.662,342.733C269.274,341.626 272.663,333.213 274.762,332.256C276.807,331.327 281.31,332.532 280.84,332.406Z" style="fill:rgb(173,173,173);fill-rule:nonzero;"/>
            <path d="M276.029,333.659C275.403,335.303 274.938,337.087 276.029,338.67C276.366,339.166 278.598,342.443 282.04,343.139C281.13,343.018 272.279,341.846 270.607,342.147C268.777,342.44 266.792,338.891 267.807,334.997C268.787,331.159 275.399,333.442 276.029,333.659Z" style="fill:rgb(102,153,255);fill-rule:nonzero;"/>
            <path d="M284.562,321.683C279.556,323.569 270.441,324.493 269.196,324.619C268.669,323.01 269.431,320.381 271.052,319.891C273.868,319.011 280.051,318.445 280.84,318.373C281.506,318.313 282.199,318.616 282.683,319.052C283.483,319.773 284.987,322.673 284.562,321.683ZM283.051,333.077C284.078,332.462 289.709,328.849 295.894,329.147C299.986,329.351 304.579,332.135 304.461,334.848C304.321,337.79 300.465,340.311 296.894,339.028C292.021,337.306 284.141,333.591 283.051,333.077Z" style="fill:rgb(173,173,173);fill-rule:nonzero;"/>
            <path d="M283.051,322.377C282.979,320.996 281.575,318.913 280.251,319.314C279.579,319.523 278.993,319.935 278.669,320.589C278.272,321.391 278.664,324.13 278.44,323.263L283.051,322.377ZM286.662,332.885C287.4,332.556 293.581,329.799 296.494,330.518C297.036,330.652 302.525,332.007 302.316,334.367C302.082,337.032 296.436,336.62 295.894,336.581C293.497,336.415 287.368,333.25 286.662,332.885Z" style="fill:rgb(102,153,255);fill-rule:nonzero;"/>
            <path d="M222.855,303.121C227.509,305.909 226.979,306.357 229.578,311.021C228.748,310.641 227.094,310.635 222.855,307.944C215.523,303.271 216.177,302.227 215.128,301.166C215.238,301.183 218.179,300.314 222.855,303.121ZM239.098,316.851C240.583,317.684 250.682,323.351 258.364,325.874C261.878,327.028 261.206,327.787 264.001,331.426C261.809,331.262 261.871,331.799 260.363,331.154C258.454,330.337 240.827,322.797 236.887,320.069C233.72,317.851 235.753,314.953 239.098,316.851ZM270.807,327.545C275.778,326.515 280.653,325.065 285.595,323.902C286.639,323.657 289.252,323.093 290.672,323.157C294.936,323.378 298.597,325.28 298.305,326.524C297.73,329.009 292.779,328.287 292.283,328.214C290.15,327.902 276.774,333.46 270.807,332.367C266.794,331.646 267.289,329.332 270.807,327.545Z" style="fill:rgb(211,211,211);fill-rule:nonzero;"/>
            <path d="M200.967,278.109C220.235,275.109 262.562,289.118 276.218,295.175C319.14,314.208 320.117,317.411 317.56,320.317C314.327,324.015 300.663,323.196 286.462,316.761C277.746,312.812 271.14,319.03 256.153,314.305C240.397,309.349 224.809,297.781 224.044,297.331C217.642,293.57 208.134,292.936 200.967,294.775C193.317,296.739 177.345,281.844 200.967,278.109Z" style="fill:rgb(40,148,0);fill-rule:nonzero;"/>
            <path d="M226.655,226.284L226.655,264.218C226.655,279.171 239.569,295.002 241.398,297.244C245.552,302.305 254.916,310.609 256.153,311.705C257.365,311.423 266.683,309.256 270.896,306.718C272.856,305.538 285.639,297.834 285.639,282.211L285.639,244.277C272.232,240.361 243.819,230.264 226.655,226.284Z" style="fill-rule:nonzero;"/>
            <path d="M229.666,229.417L229.666,264.984C229.666,276.345 238.21,290.209 242.909,295.983C246.658,300.588 255.041,308.01 256.153,308.994C257.241,308.741 265.599,306.801 269.385,304.514C274.138,301.656 282.628,292.819 282.628,281.361L282.628,245.795C275.397,243.614 243.461,232.831 229.666,229.417Z" style="fill:rgb(158,215,255);fill-rule:nonzero;"/>
            <path d="M238.843,290.278C247.725,292.824 273.193,301.24 273.485,301.335C275.767,299.188 277.295,297.036 277.584,296.629C272.375,294.991 267.198,293.252 262.006,291.563C259.835,290.856 242.652,285.264 234.743,283.123C235.037,283.714 236.494,286.64 238.843,290.278Z" style="fill:rgb(0,106,200);fill-rule:nonzero;"/>
            <path d="M238.843,290.278L242.92,295.986L245.531,298.879C250.67,300.459 265.108,305.209 266.807,305.768L269.407,304.522C270.794,303.691 272.333,302.41 273.485,301.335C243.619,291.719 243.692,291.668 238.843,290.278Z" style="fill:rgb(90,200,0);fill-rule:nonzero;"/>
            <path d="M256.164,308.998C257.029,308.796 262.495,307.521 266.796,305.776C265.097,305.217 250.668,300.469 245.52,298.887C249.902,303.453 255.284,308.219 256.164,308.998Z" style="fill:rgb(255,216,1);fill-rule:nonzero;"/>
            <path d="M231.832,276.32C233.743,275.111 241.406,270.259 256.164,261.931L256.164,237.253C240.007,231.977 231.811,229.948 229.666,229.417L229.666,264.984C229.666,265.907 229.666,270.151 231.832,276.32Z" style="fill:white;fill-rule:nonzero;"/>
            <path d="M280.473,291.494C282.64,286.596 282.64,282.193 282.64,281.365L282.64,245.798C269.149,241.73 269.422,241.583 256.153,237.25L256.153,261.927C258.096,264.294 277.622,288.075 280.473,291.494Z" style="fill:rgb(255,216,60);fill-rule:nonzero;"/>
            <path d="M252.697,256.517L252.575,256.367C252.33,256.034 251.743,255.653 251.297,255.957L250.542,256.471L245.287,249.571C245.916,248.921 245.954,247.899 245.409,247.186L234.765,233.64C234.106,232.802 232.861,232.725 232.032,233.35C231.225,233.969 230.982,235.152 231.643,235.972L242.287,249.408C242.724,249.964 243.429,250.222 244.12,250.137L249.487,257.169L248.387,257.933C247.93,258.246 248.147,258.9 248.387,259.222L248.509,259.372C248.759,259.7 249.345,260.063 249.786,259.775L252.686,257.791C253.151,257.491 252.942,256.833 252.697,256.517Z" style="fill:rgb(179,75,0);fill-rule:nonzero;"/>
            <path d="M235.632,256.81C235.12,257.347 234.294,256.986 233.899,256.574C233.487,256.153 233.163,255.321 233.665,254.79L245.054,243.188C245.574,242.658 246.406,243.086 246.776,243.486C247.159,243.902 247.528,244.766 247.009,245.292L235.632,256.81Z" style="fill:rgb(120,33,33);fill-rule:nonzero;"/>
            <path d="M243.065,240.54L246.231,236.506L252.897,242.837L249.72,246.821L243.065,240.54Z" style="fill:rgb(211,211,211);fill-rule:nonzero;"/>
            <path d="M278.229,268.486C278.554,268.945 279.35,269.496 279.973,269.106C280.612,268.721 280.372,267.841 280.051,267.397C279.035,265.969 274.974,260.267 267.418,249.503C267.092,249.046 266.306,248.483 265.674,248.851C265.022,249.23 265.29,250.133 265.596,250.57C273.406,261.696 277.213,267.056 278.229,268.486Z" style="fill:rgb(120,33,33);fill-rule:nonzero;"/>
            <path d="M258.397,247.407L264.119,243.871L268.196,249.514L262.474,253.051L258.397,247.407ZM260.775,257.079C271.804,250.12 274.527,248.37 275.718,247.605L279.473,252.696C278.284,253.468 274.07,256.204 264.519,262.214L260.775,257.079Z" style="fill:white;fill-rule:nonzero;"/>
            <path d="M241.409,278.247C242.517,279.084 249.669,284.489 256.464,286.874C263.43,289.318 265.815,288.53 265.141,288.753L263.163,291.945C251.838,288.206 247.601,286.896 246.242,286.476L241.409,278.247Z" style="fill:rgb(179,75,0);fill-rule:nonzero;"/>
            <path d="M244.076,278.523L248.331,282.894L264.074,288.012L261.941,276.897L248.331,273.127L244.076,278.523Z" style="fill:white;fill-rule:nonzero;"/>
            <path d="M214.011,195.69L228.91,190.698C230.384,190.236 232.463,193.566 230.421,193.939C229.053,194.179 229.461,194.626 214.011,199.601C211.126,200.535 213.606,196.323 214.011,195.69Z" style="fill:rgb(137,38,20);fill-rule:nonzero;"/>
            <path d="M197.756,282.249C196.915,288.417 193.515,290.651 199.567,292.512C204.161,293.948 205.649,289.991 204.155,285.306C202.745,280.915 197.207,282.395 197.756,282.249ZM215.222,283.602C213.485,287.328 212.816,288.97 216.822,289.223C223.02,289.615 226.832,291.126 227.655,291.452C230.154,292.458 232.43,289.842 229.266,289.197C224.129,288.149 222.68,284.272 222.433,283.611C221.196,280.286 215.726,283.322 215.222,283.602ZM203.433,226.789L202,218.926C201.534,219.377 198.087,222.715 196.544,224.928C195.445,226.506 191.35,223.148 190.982,222.847C189.795,221.882 187.763,217.821 187.341,214.281C187.18,212.934 183.631,208.154 184.426,206.6C184.518,206.419 185.993,202.848 189.139,202.722C189.787,202.696 190.377,202.939 190.841,203.408C191.479,204.055 192.233,206.737 192.063,205.844C193.351,205.978 195.606,207.586 194.802,208.601C190.405,214.16 194.403,215.145 193.899,215.021L196.556,211.595C196.461,210.993 195.544,205.171 196.556,203.973C197.429,202.928 203.335,200.799 205.6,200.754C206.649,200.739 210.311,199.626 209.111,197.893C208.794,197.434 206.2,193.679 206.2,191.562C206.2,185.94 205.614,183.21 211.166,184.7C217.006,186.256 218.962,190.728 217.444,193.486C217.213,193.906 215.154,197.649 215.633,199.201C215.865,199.938 216.206,203.241 220.333,204.255C224.382,205.25 225.149,207.507 225.61,210.234C226.339,214.541 226.113,217.67 226.066,218.315L226.077,222.129C226.582,222.146 229.628,222.251 232.277,223.347C234.966,224.457 239.716,228.755 240.309,229.291L227.266,225.827L226.266,229.817C225.718,230.316 224.899,231.133 224.255,230.766C223.682,230.44 220.623,225.045 220.333,224.533L218.844,229.672C210.758,227.703 204.678,226.945 203.433,226.789Z" style="fill:rgb(251,212,77);fill-rule:nonzero;"/>
            <path d="M202.367,226.224C200.318,230.588 198.195,241.869 198.556,246.929C198.65,248.258 199.503,260.235 198.5,263.573C196.968,268.695 195.003,282.02 194.765,283.635L200.367,287.528L206.589,283.931C206.922,276.138 207.255,268.344 207.589,260.551L211.144,249.342L214.611,258.249C214.14,266.875 213.67,275.5 213.2,284.125L223.433,285.788C223.357,283.54 222.622,261.531 222.422,257.686C222.123,251.936 220.516,239.75 220.311,238.195L218.822,229.69C210.164,227.341 203.698,226.414 202.367,226.224Z" style="fill:rgb(211,211,211);fill-rule:nonzero;"/>
            <path d="M202.778,225.237C203.428,225.454 206.926,226.625 211.155,227.054C216.834,227.623 219.314,222.064 220.233,227.524L220.233,231.947C216.408,230.371 212.259,230.497 211.555,230.518C210.85,230.538 205.411,230.691 202.778,229.659C202.218,229.44 201.971,228.883 201.975,228.322C201.984,227.259 203.244,224.282 202.778,225.237Z" style="fill:rgb(155,95,0);fill-rule:nonzero;"/>
            <path d="M212.555,181.677C216.769,182.271 218.896,186.197 218.699,189.701C218.651,190.576 218.487,191.443 218.312,192.302C218.179,192.957 216.877,194.493 217.411,194.091C217.584,193.181 216.596,191.301 215.822,191.81L215.822,187.999C215.281,187.953 210.497,187.547 209.1,187.058L206.389,185.979L205.689,188.628C204.58,187.238 204.38,184.609 205.578,183.296C207.815,180.855 211.998,181.624 211.511,181.534" style="fill-rule:nonzero;"/>
            <path d="M179.666,214.094C182.288,209.474 189.111,205.301 184.868,208.393C185.402,209.057 186.636,208.581 187.419,208.246C188.513,207.772 189.323,206.769 190.418,206.297C191.061,206.018 191.345,203.751 191.421,204.449L201.389,200.261L207.867,197.302L209.222,198.506C209.222,199.542 208.943,200.899 208.022,201.373C206.185,202.326 204.224,203.018 202.357,203.909C200.56,204.767 198.598,205.387 197.033,206.619L194.659,207.836C194.412,207.325 193.628,206.592 193.198,206.962C192.545,207.515 191.825,210.08 192.038,209.251C190.445,210.046 188.877,210.926 187.467,212.012C186.813,212.512 182.962,218.204 182.089,218.718C180.177,219.833 178.99,215.29 179.666,214.094Z" style="fill:rgb(137,38,20);fill-rule:nonzero;"/>
            <path d="M221.944,191.999C223.872,190.543 227.405,189.767 228.088,190.967C233.759,201.025 233.218,201.613 235.387,201.865C234.995,202.109 232.523,203.646 230.121,204.242C226.803,205.065 217.605,203.38 223.444,204.202L223.444,198.035C223.524,194.791 219.829,186.868 221.944,191.999Z" style="fill:rgb(211,211,211);fill-rule:nonzero;"/>
            <path d="M268.652,195.008C269.826,194.856 288.976,210.288 289.384,210.58C290.782,211.581 294.934,218.535 296.505,219.532C298.487,220.796 297.057,222.589 295.305,221.188C294.517,220.555 288.389,218.192 286.862,217.243C283.488,215.143 266.783,200.842 266.341,199.393C265.872,197.808 269.793,193.813 268.652,195.008Z" style="fill:rgb(179,75,0);fill-rule:nonzero;"/>
            <path d="M314.06,310.465C314.916,316.876 318.562,319.628 312.249,320.427C307.782,321.014 306.148,316.61 307.683,312.223C309.001,308.355 314.549,310.668 314.06,310.465ZM296.594,306.821C297.505,309.146 299.256,313.323 294.983,311.773C294.137,311.466 288.284,309.344 284.139,308.769C282.072,308.498 279.285,304.528 282.54,305.646C283.079,305.831 287.658,307.403 289.361,303.596C290.557,301.015 296.138,306.382 296.594,306.821ZM308.383,253.882L309.816,246.352L314.449,252.295C315.748,254.325 319.262,254.966 320.716,253.887C321.967,252.988 324.454,246.95 324.893,243.235C325.147,241.022 328.664,239.8 327.682,238.104C327.413,237.634 325.395,234.119 322.371,233.913C321.503,233.853 319.789,235.524 319.871,234.659C318.646,234.868 317.505,236.749 318.004,237.887C319.205,240.627 317.443,244.401 317.649,243.96L315.26,241.634C315.188,240.895 314.505,233.862 313.493,232.519C312.555,231.275 307.946,227.795 306.227,227.285C305.303,227.016 301.403,224.85 302.716,223.363C303.047,222.998 305.627,220.149 305.627,217.925C305.627,217.446 306.989,210.019 300.672,209.471C294.321,208.908 293.028,212.701 294.406,215.781C295.467,218.198 295.948,219.987 295.15,222.193C294.203,224.742 294.652,225.938 291.495,225.247C286.984,224.261 286.021,227.347 285.662,229.284C285.043,232.619 285.489,232.414 285.773,236.483L285.75,240.288C285.278,240.058 282.126,238.523 279.551,238.12C276.973,237.716 272.142,239.108 271.518,239.287L284.562,243.361L285.573,247.88C286.109,248.654 286.644,249.918 287.584,249.861C288.212,249.823 291.211,245.896 291.495,245.525L292.994,251.347C301.212,253.031 307.144,253.735 308.383,253.882Z" style="fill:rgb(137,38,20);fill-rule:nonzero;"/>
            <path d="M309.438,253.566C311.536,258.511 313.601,270.131 313.249,275.018C313.153,276.347 312.301,288.188 313.305,291.67C314.857,297.114 316.819,310.574 317.06,312.228L311.449,315.294L305.227,310.179C304.894,302.286 304.561,294.394 304.227,286.501L300.672,274.116L297.205,281.715C297.676,290.524 298.146,299.333 298.616,308.142L288.373,305.285C288.447,303.076 289.173,281.419 289.384,277.68C289.709,271.902 291.287,260.666 291.495,259.192L292.994,251.37C301.805,252.928 308.116,253.455 309.438,253.566Z" style="fill:rgb(211,211,211);fill-rule:nonzero;"/>
            <path d="M309.027,252.484C304.917,252.904 301.311,251.989 300.661,251.824C298.617,251.303 291.613,248.361 291.572,248.557L291.572,252.979C295.205,253.169 299.594,254.884 300.261,255.145C300.927,255.404 306.032,257.387 309.027,256.906C310.483,256.679 308.433,251.135 309.027,252.484Z" style="fill:rgb(155,95,0);fill-rule:nonzero;"/>
            <path d="M299.261,205.937C292.734,204.419 293.081,210.776 293.117,211.435C293.167,212.365 293.266,213.301 293.491,214.205C293.68,214.961 294.35,216.378 294.35,216.378C294.197,215.648 295.377,214.221 295.894,214.758L295.894,210.947C296.422,211.121 300.797,212.559 302.661,212.518L305.405,212.281L306.105,215.128C307.367,213.891 307.254,211.258 306.216,209.827C304.025,206.831 299.746,206.078 300.294,206.175" style="fill-rule:nonzero;"/>
            <path d="M302.716,222.919C311.432,229.457 317.847,233.516 319.204,234.375C318.304,234.284 317.039,235.135 317.06,236.04C317.085,236.904 311.805,234.213 303.561,227.463L302.716,222.919ZM325.838,239.207L330.974,240.93C331.242,240.212 332.43,239.716 333.109,240.072C334.497,240.8 332.336,247.618 331.283,247.517C329.949,247.376 328.984,245.565 328.849,244.398C328.705,243.141 323.765,240.9 324.182,241.089L325.838,239.207Z" style="fill:rgb(179,75,0);fill-rule:nonzero;"/>
        </g>
    </g>
</svg>
