<?xml version="1.0" encoding="UTF-8" standalone="no"?>
<!DOCTYPE svg PUBLIC "-//W3C//DTD SVG 1.1//EN" "http://www.w3.org/Graphics/SVG/1.1/DTD/svg11.dtd">
<svg width="100%" height="100%" viewBox="0 0 512 512" version="1.1" xmlns="http://www.w3.org/2000/svg" xmlns:xlink="http://www.w3.org/1999/xlink" xml:space="preserve" xmlns:serif="http://www.serif.com/" style="fill-rule:evenodd;clip-rule:evenodd;stroke-linejoin:round;stroke-miterlimit:2;">
    <g>
        <g>
            <path d="M411.553,116.384C395.598,118.86 344.2,128.677 317.431,125.421C280.485,120.927 245.324,102.941 211.555,98.555C211.555,146.587 211.555,194.619 211.555,242.651C246.327,247.289 292.213,270.175 325.886,270.864C367.483,271.716 426.171,257.488 468.374,256.129C467.996,209.546 461.925,175.818 459.378,156.216C456.362,133 437.012,112.436 411.553,116.384Z" style="fill:rgb(252,209,22);fill-rule:nonzero;"/>
            <path d="M211.555,387.096C281.586,396.436 279.56,427.544 412.318,408.636C435.684,405.308 458.974,381.556 461.247,357.894C467.678,290.936 468.576,281.156 468.374,256.129C427.127,257.457 354.514,273.525 321.943,270.649C283.096,267.219 246.91,247.367 211.555,242.651L211.555,387.096Z" style="fill:rgb(232,17,45);fill-rule:nonzero;"/>
            <path d="M211.555,98.555C179.829,94.436 131.687,104.878 100.444,108.861C77.104,111.835 55.74,130.85 58.828,156.107C63.896,197.549 72.023,219.664 72.094,255.171C72.162,289.17 64.081,324.492 59.699,355.921C56.353,379.924 75.267,400.977 100.472,397.677C131.624,393.598 179.705,382.85 211.555,387.096C211.555,290.915 211.555,194.735 211.555,98.555Z" style="fill:rgb(0,135,81);fill-rule:nonzero;"/>
        </g>
    </g>
</svg>
