<?xml version="1.0" encoding="UTF-8" standalone="no"?>
<!DOCTYPE svg PUBLIC "-//W3C//DTD SVG 1.1//EN" "http://www.w3.org/Graphics/SVG/1.1/DTD/svg11.dtd">
<svg width="100%" height="100%" viewBox="0 0 512 512" version="1.1" xmlns="http://www.w3.org/2000/svg" xmlns:xlink="http://www.w3.org/1999/xlink" xml:space="preserve" xmlns:serif="http://www.serif.com/" style="fill-rule:evenodd;clip-rule:evenodd;stroke-linejoin:round;stroke-miterlimit:2;">
    <g>
        <g>
            <path d="M411.553,116.384C327.618,129.405 325.974,131.604 259.985,110.838C187.662,88.078 182.392,98.415 100.444,108.861L93.733,110.152C93.714,118.497 94.283,128.076 94.376,129.632C77.804,131.524 66.395,131.529 63.956,131.53C60.157,137.828 57.668,146.622 58.828,156.107C63.896,197.549 72.023,219.664 72.094,255.171C72.162,289.17 64.081,324.492 59.699,355.921C56.353,379.924 75.267,400.977 100.472,397.677C182.335,386.958 187.634,376.33 259.985,399.708C297.334,411.775 314.968,422.501 412.318,408.636C435.684,405.308 458.974,381.556 461.247,357.894C471.973,246.225 470.846,244.48 459.378,156.216C456.362,133 437.012,112.436 411.553,116.384Z" style="fill:rgb(207,27,43);fill-rule:nonzero;"/>
            <path d="M306.916,208.493L306.916,309.238C306.916,309.502 305.762,325.538 321.493,334.049C330.418,338.88 352.135,346.428 357.243,349.143L368.451,355.314L379.983,346.913C386.631,342.232 410.87,329.445 417.502,325.633C418.649,324.975 434.09,316.922 435.127,299.39C437.181,264.612 435.807,224.471 433.305,198.702C388.845,204.211 343.006,215.24 306.916,208.493Z" style="fill-rule:nonzero;"/>
            <path d="M312.749,308.001C312.916,322.207 321.358,328.752 326.382,331.248C332.234,334.153 354.2,342.963 358.005,344.969L368.519,350.734L379.34,342.83C384.912,338.895 413.307,323.081 413.637,322.89C429.082,313.948 429.981,300.222 430.138,297.826C393.224,302.625 344.098,312.59 312.749,308.001Z" style="fill:rgb(46,143,34);fill-rule:nonzero;"/>
            <path d="M312.749,215.257C344.141,219.851 392.504,209.887 428.796,205.111C430.083,220.555 432.159,260.555 430.083,298.848C393.177,303.649 344.095,313.611 312.749,309.023L312.749,215.257Z" style="fill:white;fill-rule:nonzero;"/>
            <path d="M417.802,287.622C417.513,286.001 417.621,276.012 416.733,274.797C415.493,273.111 402.612,271.01 394.022,273.016C385.532,275.011 391.236,263.624 397.567,259.884C398.695,259.216 409.62,252.741 410.387,249.687C411.094,246.901 408.511,244.351 402.725,246.073C402.456,246.153 394.648,247.741 391.205,251.331C388.523,254.136 387.96,252.103 386.269,248.489C385.204,246.174 387.295,242.194 387.464,240.807C387.857,237.393 386.299,228.571 383.976,225.885C382.091,223.693 382.088,220.048 378.126,218.804L369.015,216.454L360.094,221.029C356.273,223.224 356.437,226.817 354.711,229.45C352.579,232.688 351.459,241.892 351.915,245.078C352.126,246.524 354.227,249.893 353.252,252.458C351.78,256.274 351.82,259.125 348.618,256.379C346.432,254.513 338.676,253.549 337.785,253.439C332.507,252.781 330.194,255.588 330.892,258.32C331.719,261.592 341.711,265.785 342.764,266.226C348.817,268.754 354.114,278.854 346.118,278.626C338.916,278.432 326.499,282.377 325.349,284.232C324.642,285.39 324.433,295.745 324.171,297.188C322.962,303.765 322.418,304.562 323.382,304.233C324.685,303.798 334.352,300.57 339.019,297.138C343.476,293.852 348.851,309.245 346.771,313.247C344.495,317.579 345.547,320.713 340.943,318.711C337.942,317.406 332.877,319.742 331.275,322.942C329.398,326.678 337.15,330.665 337.264,330.74C341.815,333.774 347.723,325.457 348.308,324.634C350.234,321.897 367.547,312.006 369.284,311.013C371.006,311.591 388.319,317.394 390.201,319.822C396.691,328.043 400.951,324.655 401.719,324.044C402.455,323.459 410.075,317.404 408.682,314.581C407.038,311.208 401.619,310.115 398.354,312.024C394.453,314.304 394.709,311.86 392.387,307.829C390.382,304.281 396.647,287.684 401.325,290.041C404.299,291.535 417.039,294.288 418.422,294.587C419.675,294.855 418.983,294.035 417.802,287.622Z" style="fill:rgb(207,27,43);fill-rule:nonzero;"/>
            <path d="M405.596,267.372C406.197,268.514 407.436,269.856 408.712,269.668C410.536,269.4 413.465,265.259 410.949,263.046C410.87,262.976 405.892,260.052 407.345,257.266C408.643,254.701 404.651,250.93 405.024,251.283C403.198,254.023 398.061,258.068 389.893,254.695C380.205,250.707 374.511,251.896 373.509,254.19L365.787,255.135C365.327,254.221 361.298,251.865 349.929,259.448C341.452,265.103 336.9,260.616 335.789,259.036C335.454,259.452 332.552,263.056 333.753,265.395C334.608,267.022 330.903,271.303 330.531,271.733C328.24,274.357 330.947,278.026 332.555,278.004C333.888,277.986 335.932,273.972 335.398,275.192C336.1,275.75 340.727,279.417 340.327,285.261C340.048,289.1 335.271,294.46 331.739,296.914C332.06,297.277 331.916,297.093 336.562,310.602C338.525,316.357 345.065,315.899 347.616,315.141C347.971,319.276 355.83,323.228 358.83,322.93C359.564,322.857 360.357,322.931 361.026,323.271C361.718,323.622 362.865,325.706 362.614,324.973C361.464,325.779 359.811,327.882 360.867,328.808C362.452,330.175 368.298,327.444 368.892,327.166C369.519,327.32 375.307,328.731 376.963,326.995C377.364,326.569 377.648,325.932 377.368,325.349C376.968,324.521 374.496,323.095 375.327,323.491C375.878,321.932 377.647,320.722 379.286,320.502C382.387,320.086 390.874,313.76 391.416,309.915C393.902,310.081 401.127,309.179 403.538,303.021C409.27,288.465 409.178,288.616 409.326,288.446C405.593,286.653 400.432,282.363 400.167,278.418C399.813,272.558 404.863,268.029 405.596,267.372Z" style="fill:rgb(255,224,0);fill-rule:nonzero;"/>
            <path d="M411.026,263.413C410.964,263.359 405.976,260.434 407.412,257.635C407.704,257.067 407.89,256.263 407.573,255.646C407.175,254.873 404.76,253.676 405.58,253.964C403.841,256.575 396.223,261.011 390.022,258.629C385.001,256.688 384.842,258.07 379.785,256.509C380.303,257.72 379.686,259.681 378.496,260.244C377.769,260.586 376.658,260.929 375.81,260.755C374.953,260.579 373.223,258.518 373.629,259.294L365.775,260.253C365.07,261.843 362.698,262.768 361.004,262.371C360.424,262.232 359.905,261.91 359.659,261.327C359.351,260.596 359.967,258.205 359.696,258.949C354.953,261.599 354.558,260.411 349.884,263.398C343.948,267.175 336.947,264.099 335.344,261.804C334.106,262.519 333.054,264.508 333.719,265.774C334.578,267.424 330.86,271.682 330.486,272.111C328.208,274.719 331.671,272.498 333.309,272.47C335.559,272.432 344.632,278.591 339.042,275.071C340.072,275.746 343.519,279.551 343.17,285.517C342.942,289.48 337.626,295.029 333.694,297.675C336.132,300.434 338.27,309.116 338.526,310.155C341.246,315.807 397.437,285.164 397.132,279.266C396.682,270.049 405.53,264.876 401.642,267.958C402.103,267.604 406.113,264.526 407.895,264.263C409.361,264.056 413.64,265.713 411.026,263.413Z" style="fill:rgb(100,180,209);fill-rule:nonzero;"/>
            <path d="M397.132,279.266L397.258,276.383C393.018,277.231 388.549,275.518 387.379,274.377C384.935,272.016 379.948,275.146 379.402,275.489C375.436,277.995 375.387,284.213 375.392,283.496L375.386,284.297C382.595,287.594 397.565,294.158 399.498,295.005L406.644,290.226L407.174,289.538C407.168,289.775 397.41,284.632 397.132,279.266Z" style="fill:rgb(204,204,204);fill-rule:nonzero;"/>
            <path d="M341.513,269.447C341.748,271.767 343.179,285.938 344.367,298.445L357.764,306.808C364.868,300.803 371.051,295.521 372.203,294.537L369.24,286.648L367.545,276.222L362.324,273.658L357.992,266.226L352.441,266.336L349.479,268.542C348.681,268.108 346.942,266.639 346.943,267.547C346.945,268.637 344.069,270.821 344.841,270.051L341.513,269.447Z" style="fill:rgb(228,203,94);fill-rule:nonzero;"/>
            <path d="M365.356,268.585L370.598,266.783L378.074,277.645L385.595,275.819L386.917,278.775C375.374,283.749 368.248,286.679 366.617,287.349L366.649,282.615L367.529,280.946L365.356,268.585Z" style="fill-rule:nonzero;"/>
            <path d="M351.6,273.886C352.734,288.952 353.436,299.829 353.582,302.086L355.729,300.702C355.514,298.895 353.014,277.835 353.302,278.076C353.818,278.523 359.132,296 359.609,297.568L362.185,298.083C361.62,296.184 359.409,288.746 355.015,274.379C355.932,275.768 359.379,280.985 366.577,291.683L368.796,286.691C361.975,279.076 357.686,274.141 356.73,273.04L353.301,269.419L351.6,273.886Z" style="fill-rule:nonzero;"/>
            <path d="M366.195,284.634C367.789,284.13 374.787,281.916 386.046,278.11L394.788,288.638L391.025,298.214C389.773,298.945 375.784,307.111 375.448,307.468C374.797,308.11 362.319,308.016 361.177,308.007C363.911,295.5 365.802,286.505 366.195,284.634Z" style="fill:rgb(159,90,43);fill-rule:nonzero;"/>
            <path d="M388.553,306.833C389.079,305.471 390.694,304.341 392.154,304.34C392.715,304.34 393.368,304.479 393.703,305.008C394.098,305.632 393.57,307.921 393.808,307.221C394.484,307.401 398.584,308.49 401.445,302.959L401.912,302.117C406.28,290.951 406.045,290.871 407.174,289.561L406.519,289.248L402.241,291.876C402.253,291.421 402.334,288.344 397.9,288.201C393.48,288.07 389.416,293.9 388.91,294.625C387.414,290.623 380.464,295.273 376.901,300.62C373.725,305.415 367.295,305.133 366.381,305.093L365.106,302.88C365.171,302.381 365.62,298.912 362.182,297.306C358.751,295.715 354.108,300.38 353.582,300.909C354.846,295.943 349.088,296.86 347.718,297.847C346.863,298.43 342.729,295.746 341.478,295.472C338.615,294.837 336.572,302.606 336.382,303.331L338.127,309.404L338.525,310.166C340.953,315.21 346.035,312.676 345.498,312.944C345.154,311.769 346.001,309.957 347.195,309.687C347.814,309.548 348.493,309.552 349.081,309.835C349.723,310.145 350.761,312.083 350.524,311.412C351.774,310.977 353.85,311.416 354.291,312.663C354.509,313.288 354.39,313.976 353.947,314.472C353.26,315.241 350.308,316.364 351.299,316.075C350.981,316.681 353.466,320.336 362.105,321.259C363.268,321.933 365.209,325.598 364.685,324.36L364.628,328.014L373.187,327.043L373.269,323.354C373.869,321.91 374.804,320.537 376.021,319.555C384.185,316.743 387.886,312.374 387.5,311.68C386.165,311.606 384.067,310.219 384.543,308.969C384.801,308.297 385.258,307.731 385.897,307.371C386.684,306.927 389.451,306.937 388.553,306.833Z" style="fill:rgb(204,204,204);fill-rule:nonzero;"/>
            <path d="M363.118,225.045L367.47,226.507L366.64,228.188L362.338,227.892L363.118,225.045ZM374.768,223.609L370.49,226.134L371.381,227.603L375.698,226.249L374.768,223.609Z" style="fill:white;fill-rule:nonzero;"/>
            <path d="M378.391,228.248L379.179,225.375L375.359,229.459L373.659,231.655L371.434,229.969L369.311,232.207L367.113,230.503L364.986,232.724L363.229,230.954L359.333,227.815L360.221,230.481L356,233.678L359.819,231.715L361.967,232.274L364.144,234.001L367.159,232.869L369.364,234.962L371.484,232.335L374.558,232.718L376.691,230.462L378.853,229.378L382.848,230.405L378.391,228.248Z" style="fill-rule:nonzero;"/>
            <path d="M267.107,257.612C267.107,209.449 267.107,161.287 267.107,113.125C187.179,87.525 185.406,98.031 100.444,108.861L93.733,110.152C93.714,118.497 94.283,128.076 94.376,129.632C77.804,131.524 66.395,131.529 63.956,131.53L62.687,133.814C61.865,135.427 57.377,144.235 58.828,156.107C63.964,198.102 72.314,220.622 72.09,257.094C119.886,257.574 136.079,247.009 180.635,242.378C213.994,238.91 240.539,248.874 267.107,257.612Z" style="fill:rgb(0,36,125);fill-rule:nonzero;"/>
            <path d="M267.107,113.125C265.041,112.463 247.858,106.96 241.209,105.051C216.783,113.56 193.077,130.803 189.241,133.593C189.24,117.734 189.333,97.822 189.333,97.638C169.624,98.26 138.196,103.202 133.778,103.897C133.778,118.894 134.226,129.995 134.317,132.263C127.585,128.652 110.437,119.653 93.733,110.152C83.329,112.875 76.569,118.107 75.271,119.112C92.714,130.141 120.563,144.699 129.021,149.228C117.314,151.219 112.008,152.024 110.526,152.248C106.991,150.34 82.88,137.326 67.122,126.996L63.956,131.53C78.689,141.279 98.079,151.921 101.109,153.584C78.35,156.567 61.502,156.11 58.828,156.107C60.94,173.373 67.212,207.275 68.032,211.709C69.945,211.712 87.858,212.269 109.734,209.074C85.22,237.155 73.267,242.631 71.794,243.538L72.09,257.094C72.231,257.096 88.394,257.761 107.637,255.053C120.985,242.611 138.474,222.853 140.933,220.124C141.067,222.406 141.754,234.076 141.709,248.688C145.506,247.903 171.236,242.585 189.685,241.772C189.692,222.802 189.563,208.335 189.537,205.428C201.232,213.494 215.591,223.838 241.198,249.318C247.851,251.279 265.04,256.932 267.107,257.612L267.107,235.067C264.624,232.511 244.418,211.717 235.832,203.343C244.418,205.706 264.616,212.348 267.107,213.167L267.107,157.612C264.617,156.793 244.426,150.152 235.843,147.79C244.425,144.141 264.594,136.646 267.107,135.712C267.107,128.183 267.107,120.654 267.107,113.125Z" style="fill:rgb(238,238,238);fill-rule:nonzero;"/>
            <path d="M178.222,98.234C175.544,98.433 164.459,99.255 144.889,102.184C144.889,103.365 144.629,125.907 146.303,157.544C110.456,163.426 96.255,167.295 60.316,167.246C60.702,169.917 62.38,181.545 65.916,200.521C102.073,200.548 113.932,196.866 148.394,190.854C148.603,193.851 150.96,219.926 150.892,246.831C167.145,243.652 177.198,242.7 179.503,242.482C179.525,218.178 178.796,192.58 178.704,186.777C213.182,183.976 231.688,190.408 267.107,202.056L267.107,168.723C231.036,156.86 213.313,150.691 178.256,153.453C177.942,122.116 178.222,99.52 178.222,98.234Z" style="fill:rgb(207,27,43);fill-rule:nonzero;"/>
            <path d="M267.107,113.125L250.875,107.952C217.538,119.741 193.746,137.089 189.245,140.372L189.246,141.717C199.24,141.387 205.391,141.972 206.789,142.105C228.124,129.195 256.258,119.398 267.107,115.367L267.107,113.125ZM75.271,119.112C70.622,122.654 67.691,126.289 67.122,126.996C82.88,137.326 106.991,150.34 110.526,152.248C112.007,152.024 117.313,151.22 129.01,149.23C122.012,145.482 93.081,130.375 75.271,119.112ZM134.305,204.79C123.362,217.39 103.702,240.966 81.418,257.164C82.838,257.143 90.098,257.034 99.139,256.096C115.619,241.737 136.317,217.864 140.471,213.205L139.66,203.769L134.305,204.79ZM267.107,255.412L267.107,241.856C263.878,238.532 238.101,212.002 226.144,200.889C215.79,198.517 208.341,197.809 206.778,197.66C228.147,214.656 256.039,244.021 267.107,255.412Z" style="fill:rgb(207,27,43);fill-rule:nonzero;"/>
        </g>
    </g>
</svg>
