<?xml version="1.0" encoding="UTF-8" standalone="no"?>
<!DOCTYPE svg PUBLIC "-//W3C//DTD SVG 1.1//EN" "http://www.w3.org/Graphics/SVG/1.1/DTD/svg11.dtd">
<svg width="100%" height="100%" viewBox="0 0 512 512" version="1.1" xmlns="http://www.w3.org/2000/svg" xmlns:xlink="http://www.w3.org/1999/xlink" xml:space="preserve" xmlns:serif="http://www.serif.com/" style="fill-rule:evenodd;clip-rule:evenodd;stroke-linejoin:round;stroke-miterlimit:2;">
    <g>
        <g>
            <path d="M69.78,387.517C71.595,389.361 82.142,400.077 100.472,397.677C182.335,386.958 187.634,376.33 259.985,399.708C297.334,411.775 314.968,422.501 412.318,408.636C435.684,405.308 458.974,381.556 461.247,357.894C471.963,246.325 470.85,244.51 459.378,156.216C459.083,153.951 457.468,141.514 447.721,130.153C375.488,187.391 351.395,223.896 266.377,254.344C155.363,294.102 170.417,319.232 69.78,387.517Z" style="fill:rgb(255,78,17);fill-rule:nonzero;"/>
            <path d="M411.553,116.384C327.618,129.405 325.974,131.604 259.985,110.838C187.662,88.078 182.392,98.415 100.444,108.861C77.104,111.835 55.74,130.85 58.828,156.107C63.749,196.349 71.735,219.194 72.083,253.166C72.44,288.108 64.155,323.962 59.699,355.921C57.092,374.621 67.92,385.626 69.78,387.517C163.808,323.716 164.479,291.006 256.521,257.831C357.167,221.554 359.564,200.009 447.721,130.153C433.056,113.049 414.613,115.91 411.553,116.384Z" style="fill:rgb(255,213,33);fill-rule:nonzero;"/>
            <path d="M414.477,177.607C412.2,178.093 406.739,182.041 405.617,182.215L401.025,182.929C401.396,182.332 404.408,177.484 406.255,175.88C406.957,175.259 416.42,171.569 416.998,170.984C417.9,170.059 418.714,166.191 418.648,167.48C416.192,169.604 404.111,171.361 403.061,171.764C399.482,173.135 396.197,177.965 396.583,177.397C396.997,176.426 400.205,168.894 401.132,165.012C403.36,155.591 402.102,154.986 405.8,151.524C409.96,147.622 406.607,143.543 406.994,144.013C406.049,146.881 403.587,149.38 403.2,149.774C403.021,149.954 397.29,153.084 397.824,157.424C398.302,161.213 399.039,161.447 396.586,164.39C393.286,168.351 393.504,168.262 391.163,172.835C388.112,178.8 384.964,173.851 378.032,177.26C371.325,180.558 364.895,174.415 360.318,175.546C355.173,176.807 341.433,175.84 334.416,173.66C330,172.286 331.543,170.104 318.093,162.385C304.113,154.328 296.051,158.15 301.227,159.029C304.112,159.522 310.605,162.59 311.394,162.963C307.055,161.97 303.045,163.207 303.638,163.024C306.057,164.214 313.015,168.522 317.293,172.721C319.192,174.584 318.572,174.742 319.877,176.806C319.728,176.745 315.656,176.514 309.26,171.58C298.328,163.144 287.497,161.172 285.439,160.797C282.68,160.294 282.872,160.971 280.26,161.148C282.731,162.561 282.277,162.926 284.106,163.348C288.141,164.278 302.878,172.719 304.461,173.626L307.779,176.251L303.916,176.737C289.067,164.866 281.586,168.887 285.439,168.563C290.732,168.13 290.115,170.035 302.038,179.018C311.457,186.113 292.136,178.327 291.339,178.005C290.105,177.154 282.816,172.128 274.996,168.841C266.954,165.471 260.941,171.371 263.485,175.784C266.169,180.424 271.941,179.862 271.24,179.931C265.404,176.343 267.553,172.75 270.985,172.892C274.219,173.023 289.933,181.674 293.206,183.847C293.64,184.135 298.195,188.826 295.429,188.905C293.095,188.973 288.405,185.459 287.861,185.051C282.877,181.323 282.523,182.209 280.178,180.962L280.895,183.801C280.389,183.607 275.335,181.731 277.585,184.522C279.392,186.764 281.416,188.924 279.018,187.51C273.924,184.495 260.565,182.319 258.141,181.523C252.652,179.721 249.847,184.251 249.309,185.635C253.045,184.676 257.062,184.614 257.741,184.603C262.239,184.544 274.196,191.28 275.54,192.037C271.813,194.586 270.349,201.63 270.452,205.651C264.831,205.155 260.066,212.642 259.486,213.554C261.608,210.792 268.353,212.031 269.118,212.172C270.453,215.555 267.392,218.335 266.985,218.705C263.508,221.838 264.709,228.264 264.574,227.544C264.775,227.073 266.173,223.795 268.33,222.357C271.04,220.507 280.128,224.488 275.818,222.903C273.371,227.831 281.657,233.495 282.517,234.083C278.371,240.282 290.544,248.467 284.117,244.473C283.449,244.049 275.49,244.221 274.74,244.237C275.247,244.411 286.178,248.155 280.362,247.882C274.217,247.588 264.179,238.535 262.974,237.449L249.864,227.289C251.593,229.484 250.974,229.583 252.231,232.181L249.064,231.591C245.141,229.865 235.387,229.342 230.588,224.936C224.46,219.299 215.743,216.186 217.466,219.69C220.097,225.07 225.694,233.003 222.022,227.515C221.543,227.316 217.192,225.505 215.549,227.538C212.921,230.788 213.532,232.54 209.444,231.632C204.45,230.508 205.77,236.88 200.878,235.216C194.961,233.206 189.056,238.923 187.223,241.308C189.578,239.76 196.113,241.598 196.856,241.807C193.99,242.831 195.173,247.96 195.296,248.495C190.132,249.996 189.854,257.506 190.427,260.937C184.961,261.13 181.666,268.077 181.658,268.087C179.466,270.873 174.98,271.359 174.34,271.428C177.917,274.175 186.594,270.859 187.587,270.479C185.2,272.225 185.462,278.829 185.492,279.576C181.741,280.437 184.189,287.102 183.887,286.874C182.698,286.002 178.23,290.14 177.814,290.525C174.241,293.849 168.033,294.876 172.082,293.758C173.721,295.953 178.205,295.867 177.723,295.876C177.353,296.644 174.643,302.263 170.876,304.033C168.245,305.255 155.215,310.313 154.168,310.589C151.594,311.257 145.166,311.908 140.68,311.319C137.018,310.847 127.555,313.395 125.829,313.484C121.642,313.711 118.8,318.333 118.414,318.961C118.91,318.706 122.185,317.027 125.177,317.276C127.27,317.45 129.212,320.33 132.342,318.358C135.827,316.152 141.72,318.367 142.48,318.653C139.951,320.678 136.967,322.341 136.463,322.621C135.513,323.148 129.392,326.54 124.207,328.467C120.641,329.785 114.341,337.337 118.362,333.39C121.48,330.336 125.142,331.449 128.086,330.411L136.749,327.835C136.015,327.964 133.281,329.091 131.352,331.685C129.133,334.678 122.234,338.807 118.905,339.354C115.131,339.975 108.838,343.461 105.542,347.71C101.652,352.744 96.621,354.273 97.41,354.034C97.511,354.155 100.037,356.368 103.867,353.212C108.919,349.03 108.491,348.468 114.686,346.348C120.335,344.403 125.422,341.736 126.322,341.264C126.312,341.275 120.973,347.986 115.839,349.588C111.477,350.956 102.286,358.417 98.474,362.362C94.907,366.044 89.992,368.548 89.179,368.962C94.352,371.802 102.167,363.947 102.997,363.381C107.359,360.41 114.524,359.771 118.042,358.218C123.648,355.74 125.057,349.577 126.369,349.186C127.137,348.962 134.356,346.854 135.438,344.995C137.883,340.809 137.129,339.948 140.051,339.452C143.814,338.813 145.707,336.309 145.416,336.694C142.976,341.995 134.63,348.643 139.751,343.999C143.846,344.521 143.406,343.046 152.692,335.786C157.35,332.154 161.063,331.646 160.375,331.74C160.039,332.362 157.421,337.205 154.344,338.197C151.298,339.177 147.876,344.711 147.457,345.388C149.385,341.226 160.4,338.803 163.013,336.193C174.72,324.469 174.56,324.604 174.759,324.466C175.852,323.707 175.361,323.48 186.519,312.693C191.524,307.855 201.956,308.124 201.956,307.801L201.689,315.276L192.314,315.986L198.211,320.245C194.442,318.555 189.594,325.518 189.095,326.234L198.378,325.059L200.356,330.483C203.293,324.433 205.888,326.278 205.444,325.963C208.654,329.975 208.89,337.567 208.922,338.616C208.376,338.417 203.986,337.771 199.822,342.486C196.175,346.625 200.607,354.894 203.833,359.028C203.596,359.367 202.471,362.046 203.833,365.994C205.397,370.546 214.095,376.194 222.033,375.262C228.905,374.456 229.75,366.165 229.532,363.051C230.029,362.675 232.385,359.827 231.932,354.813C231.397,348.767 228.246,344.236 228.721,344.919C229.445,344.828 233.782,344.28 237.021,348.695C240.23,353.057 240.929,360.29 241.032,361.347C241.375,359.845 244.246,347.285 239.432,342.158C236.202,338.719 228.053,335.467 222.833,334.483C222.606,329.204 216.646,321.972 215.866,319.517C214.521,315.281 216.424,306.807 216.666,305.729L223.355,307.561C222.833,309.807 227.166,313.966 227.632,314.414C232.398,318.969 239.143,318.848 240.209,318.828C242.464,319.69 249.785,321.199 253.331,315.933C256.711,310.896 252.137,303.581 249.587,300.812C248.559,291.003 236.556,288.977 230.043,289.844C231.61,283.308 237.826,283.613 239.954,284.232C238.945,283.418 230.688,276.758 225.233,277.449C220.563,278.04 221.175,291.738 217.466,290.623C213.376,289.394 212.62,276.213 216.122,266.549C218.975,258.685 233.621,257.761 254.131,272.558C266.756,281.654 285.058,290.158 294.817,293.197C294.015,296.255 290.251,299.454 289.739,299.889L282.24,294.755L286.784,301.732C285.161,305.305 280.308,307.159 280.895,306.934C284.517,310.603 289.033,308.006 290.528,306.529L292.406,314.803L296.961,309.544C298.2,310.733 306.262,318.469 314.082,322.49C315.773,323.365 322.912,327.059 336.925,329.163C331.742,331.711 336.701,339.427 337.177,340.167C341.674,347.159 351.632,349.871 355.469,350.314C357.278,350.979 366.362,352.926 374.588,345.305C382.334,338.155 378.822,326.902 376.827,323.241C377.203,308.466 361.062,313.431 358.704,314.308C362.558,307.146 370.43,302.229 371.669,301.456C357.647,295.757 349.46,311.847 340.546,315.044C339.632,315.371 335.652,316.799 328.419,315.045C312.245,311.125 313.621,307.978 312.216,307.767C311.603,307.674 312.96,303.371 313.005,302.794C313.155,300.863 322.831,290.534 325.315,285.497C329.342,277.356 328.408,265.385 328.271,263.625C332.861,259.098 339.628,261.224 341.245,261.993C340.911,269.005 334.324,272.283 337.324,270.19C341.509,270.316 343.768,265.903 343.504,266.418C342.111,270.647 345.481,276.425 348.075,278.981L350.077,269.718L356.161,275.628L352.387,264.184C360.875,263.466 371.955,257.148 376.482,253.725C377.414,254.796 383.751,260.545 394.639,258.946C406.244,257.241 418.662,244.024 418.505,238.781C418.351,233.664 408.38,228.615 407.271,228.053C411.152,218.868 396.358,221.078 395.265,221.241C381.992,223.224 376.207,237.106 375.126,241.444C373.43,241.011 366.55,240.491 359.781,242.845C349.603,246.414 331.338,237.188 329.093,236.055C320.785,231.863 311.16,220.836 309.816,219.296C309.816,215.567 311.637,210.701 311.905,209.986C312.582,210.137 322.552,212.358 319.993,213.114C315.61,214.413 315.889,214.494 311.616,215.931L314.649,217.077C319.173,218.009 328.151,216.459 326.682,218.068C320.062,225.357 318.905,225.604 319.727,225.679C322.069,225.893 328.759,221.74 329.371,221.589C330.425,221.329 338.119,222.238 340.81,222.107C342.504,222.024 344.115,220.893 345.336,219.862C351.344,222.188 362.893,231.294 364.323,232.422C370.458,237.246 370.595,232.891 375.114,226.527C376.64,224.352 369.218,219.975 368.56,219.587L370.474,217.204L371.768,216.216L378.561,217.532L378.73,228.458C382.014,225.863 381.946,218.973 381.937,218.106C382.846,218.259 390.08,219.481 393.413,219.083C399.821,218.327 411.978,213.441 415.607,212.546C422.672,210.804 424.373,216.073 424.536,217.209C427.703,214.609 423.098,211.303 422.677,211.001C417.663,207.391 412.362,208.417 411.461,208.591C411.181,204.226 406.177,203.344 402.888,203.956C408.579,205.913 405.272,209.731 403.243,211.165C403.944,207.575 395.973,206.817 395.246,206.747C398.013,207.489 399.892,209.41 397.597,211.739C395.049,214.324 389.328,214.381 388.576,214.389C389.443,209.99 390.542,207.425 390.789,206.847C392.67,202.557 388.469,198.619 388.936,199.057L392.355,192.059C393.634,191.667 404.606,188.306 407.987,186.136C411.029,184.182 415.282,182.022 423.219,181.176C433.297,180.088 434.008,172.984 433.244,175.518C430.831,177.365 415.597,177.368 414.477,177.607ZM358.346,203.12C359.003,202.614 359.819,202.143 360.645,201.985C361.393,201.842 363.495,202.832 362.9,202.356L365.264,206.911L368.017,200.675L372.128,203.102L369.941,207.138L378.622,204.908L377.843,207.703L371.813,213.342C370.347,213.115 360.993,211.672 353.867,208.705C354.154,208.21 356.1,204.849 358.346,203.12ZM368.367,216.167C367.546,216.774 366.919,217.538 366.457,218.443L361.118,215.411L357.436,213.73L368.928,215.72L368.367,216.167ZM376.715,213.981L378.281,213.533L378.335,214.116L376.715,213.981ZM382.183,214.323C382.896,211.184 385.923,208.699 385.535,209.017C385.5,210.937 385.856,212.653 386.465,214.453L382.183,214.323Z" style="fill:white;fill-rule:nonzero;"/>
        </g>
    </g>
</svg>
