<?xml version="1.0" encoding="UTF-8" standalone="no"?>
<!DOCTYPE svg PUBLIC "-//W3C//DTD SVG 1.1//EN" "http://www.w3.org/Graphics/SVG/1.1/DTD/svg11.dtd">
<svg width="100%" height="100%" viewBox="0 0 512 512" version="1.1" xmlns="http://www.w3.org/2000/svg" xmlns:xlink="http://www.w3.org/1999/xlink" xml:space="preserve" xmlns:serif="http://www.serif.com/" style="fill-rule:evenodd;clip-rule:evenodd;stroke-linejoin:round;stroke-miterlimit:2;">
    <g>
        <g>
            <path d="M461.247,357.894C458.974,381.556 435.684,405.308 412.318,408.636C308.939,423.36 296.194,410.772 244.032,394.61C189.598,377.745 160.51,389.816 100.472,397.677C75.267,400.977 56.353,379.924 59.699,355.921C64.445,321.88 73.245,285.12 71.958,247.429C70.917,216.956 63.537,194.612 58.828,156.107C55.74,130.85 77.104,111.835 100.444,108.861C182.392,98.415 187.662,88.078 259.985,110.838C325.827,131.557 327.444,129.432 411.553,116.384C437.012,112.436 456.362,133 459.378,156.216C470.841,244.445 471.982,246.128 461.247,357.894Z" style="fill:rgb(0,121,52);fill-rule:nonzero;"/>
            <path d="M65.916,200.521C140.966,200.578 173.797,174.83 234.216,191.792C274.101,202.99 299.627,216.51 337.27,215.247C374.031,214.013 428.218,201.832 465.285,200.634C471.286,255.023 466.46,303.448 465.573,312.341C405.709,314.49 346.869,335.796 293.618,321.211C251.686,309.726 226.733,295.608 186.854,297.364C143.314,299.281 124.246,311.504 66.784,311.522C75.906,255.075 71.644,231.266 65.916,200.521Z" style="fill:rgb(255,224,0);fill-rule:nonzero;"/>
            <path d="M411.553,116.384C327.618,129.405 325.974,131.604 259.985,110.838C187.662,88.078 182.392,98.415 100.444,108.861C77.104,111.835 55.74,130.85 58.828,156.107C61.097,174.663 65.256,196.984 65.916,200.521C140.966,200.578 173.797,174.83 234.216,191.792C274.101,202.99 299.627,216.51 337.27,215.247C374.031,214.013 428.218,201.832 465.285,200.634C464.175,190.582 459.73,158.925 459.378,156.216C456.362,133 437.012,112.436 411.553,116.384Z" style="fill:rgb(213,43,30);fill-rule:nonzero;"/>
            <path d="M199.267,223.136L203.5,229.449L208.933,229.94L206.711,226.653L199.267,223.136ZM207.411,218.244L211.644,224.852L217.077,225.689L214.855,222.265L207.411,218.244ZM214.989,212.409L217.044,219.894L222.177,222.614L221.066,218.788L214.989,212.409Z" style="fill:white;fill-rule:nonzero;"/>
            <path d="M211.033,281.449C210.549,281.641 210.024,281.336 209.822,280.898C209.617,280.484 209.726,279.911 210.211,279.735C212.345,278.907 222.316,275.04 237.621,271.541C238.129,271.418 238.645,271.845 238.832,272.263C239.006,272.654 238.979,273.252 238.443,273.374C223.104,276.841 213.169,280.634 211.033,281.449ZM216.522,287.338C216.051,287.556 215.509,287.262 215.266,286.864C215.033,286.477 215.053,285.882 215.522,285.65C217.518,284.655 226.772,280.041 241.187,274.759C241.691,274.576 242.222,274.975 242.443,275.376C242.644,275.743 242.712,276.356 242.187,276.544C227.725,281.816 218.52,286.353 216.522,287.338Z" style="fill:rgb(160,90,45);fill-rule:nonzero;"/>
            <path d="M222.077,293.082C221.691,293.428 221.103,293.24 220.799,292.913C220.492,292.582 220.331,291.975 220.722,291.609C222.306,290.123 229.821,283.076 241.065,273.623C241.481,273.275 242.076,273.617 242.343,273.924C242.615,274.238 242.836,274.867 242.42,275.214C231.129,284.665 223.663,291.607 222.077,293.082Z" style="fill:rgb(160,90,45);fill-rule:nonzero;"/>
            <path d="M248.753,281.793L242.42,292.97L241.287,291.478L238.821,294.171L232.121,288.695L240.443,274.73L248.753,281.793Z" style="fill:rgb(160,90,45);fill-rule:nonzero;"/>
            <path d="M251.475,302.769C252.983,296.098 254.49,289.426 255.997,282.754C255.842,276.441 255.686,270.127 255.531,263.813C252.981,260.547 235.533,238.191 222.966,223.534L220.699,230.205L216.177,225.758L214.822,233.005C214.387,232.624 209.187,228.073 208.933,228.817C208.83,229.121 207.242,247.921 206.889,255.082C206.645,260.144 205.09,277.353 216.166,281.201C232.082,286.716 244.521,280.618 246.931,278.956C247.312,279.436 251.221,284.359 251.453,285.14C251.6,285.633 249.388,295.306 249.187,296.185C248.35,299.934 253.717,305.551 251.475,302.769Z" style="fill:rgb(213,43,30);fill-rule:nonzero;"/>
            <path d="M228.832,230.902L227.032,235.639L224.088,233.385C221.768,244.572 219.013,270.464 228.821,275.21C240.76,280.988 242.734,275.83 242.42,276.881L236.532,267.27L232.121,268.117C231.449,266.111 229.977,259.601 229.977,253.795C229.977,252.689 229.977,246.714 231.11,240.024L233.354,242.185L233.821,237.109L228.832,230.902Z" style="fill:rgb(255,224,0);fill-rule:nonzero;"/>
            <path d="M241.287,245.555L233.821,237.109L233.354,242.185L230.432,239.397C228.81,244.423 228.829,250.474 228.832,251.446C228.855,258.461 229.611,264.367 229.754,265.484C230.317,265.818 235.004,268.603 237.665,267.587C240.388,266.544 241.211,247.34 241.287,245.555Z" style="fill:rgb(0,121,52);fill-rule:nonzero;"/>
            <path d="M238.821,266.105C237.456,266.299 220.893,268.661 224.088,275.041C227.105,281.055 236.606,281.42 242.42,276.881C246.902,273.399 242.207,268.285 238.821,266.105Z" style="fill:rgb(232,163,15);fill-rule:nonzero;"/>
            <path d="M312.716,251.13L308.483,256.556L303.049,255.501L305.26,252.897L312.716,251.13ZM304.572,244.282L300.35,249.487L294.917,248.178L297.128,245.674L304.572,244.282ZM297.005,235.766L294.95,242.398L289.806,242.775L290.928,239.483L297.005,235.766Z" style="fill:white;fill-rule:nonzero;"/>
            <path d="M300.961,306.303C301.309,306.563 301.92,306.658 302.172,306.169C302.438,305.718 302.159,305.134 301.783,304.873C299.526,303.227 290.578,296.699 274.385,283.235C274.076,282.978 273.464,282.757 273.163,283.22C272.878,283.683 273.217,284.291 273.562,284.571C289.84,298.134 298.706,304.646 300.961,306.303ZM295.472,310.064C295.785,310.34 296.399,310.536 296.728,310.109C297.07,309.7 296.787,309.076 296.472,308.791C294.371,306.882 286.302,299.553 270.818,284.271C270.555,284.007 269.92,283.675 269.574,284.109C269.229,284.521 269.522,285.136 269.818,285.434C285.438,300.887 293.373,308.143 295.472,310.064Z" style="fill:rgb(160,90,45);fill-rule:nonzero;"/>
            <path d="M289.928,313.297C290.169,313.637 290.746,314.006 291.195,313.733C291.659,313.449 291.521,312.811 291.283,312.468C289.631,310.145 283.017,300.847 270.94,283.211C270.706,282.85 270.14,282.475 269.674,282.72C269.187,282.976 269.374,283.641 269.585,283.957C281.816,301.844 288.277,310.967 289.928,313.297Z" style="fill:rgb(160,90,45);fill-rule:nonzero;"/>
            <path d="M263.241,286.504L269.574,301.709L270.707,300.924L273.174,305.134L279.873,303.609C277.099,297.305 274.325,291.002 271.552,284.698L263.241,286.504Z" style="fill:rgb(160,90,45);fill-rule:nonzero;"/>
            <path d="M260.519,305.717C259.012,298.063 257.504,290.409 255.997,282.754C256.153,276.542 256.308,270.33 256.464,264.118C259.081,262.473 281.829,248.177 289.028,243.314L291.306,251.074L295.828,248.631L297.183,256.432C297.632,256.218 302.85,253.728 303.049,254.378C303.157,254.715 304.748,273.978 305.094,281.275C305.193,283.309 307.458,304.886 295.828,304.075C281.525,303.062 268.612,289.569 265.052,284.835C264.673,285.069 260.752,287.495 260.53,288.098C260.383,288.498 262.598,299.615 262.797,300.613C263.463,303.976 260.134,305.944 260.519,305.717Z" style="fill:rgb(213,43,30);fill-rule:nonzero;"/>
            <path d="M283.162,247.644L284.951,253.342L287.895,252.605C290.919,268.683 292.093,292.486 283.162,291.955C269.462,291.143 269.02,283.459 269.563,285.617L275.44,279.605L279.862,283.028C280.418,281.677 281.995,276.019 281.995,269.903C281.995,262.827 281.039,256.644 280.862,255.502L278.618,256.386L278.151,251.04L283.162,247.644Z" style="fill:rgb(255,224,0);fill-rule:nonzero;"/>
            <path d="M270.707,255.001L278.173,251.047L278.64,256.392L281.562,255.26C283.184,261.188 283.165,267.146 283.162,268.188C283.158,269.273 283.14,275.194 282.24,281.722C281.576,281.75 277.057,281.943 274.318,279.247C271.596,276.563 270.788,256.961 270.707,255.001Z" style="fill:rgb(0,121,52);fill-rule:nonzero;"/>
            <path d="M273.174,277.068C274.621,278.156 290.623,290.182 287.895,294.261C285.005,298.59 275.883,294.506 269.574,285.621C264.357,278.304 271.531,277.125 273.174,277.068Z" style="fill:rgb(232,163,15);fill-rule:nonzero;"/>
            <path d="M237.454,224.072C239.398,226.915 238.946,230.194 237.254,231.149C235.515,232.139 232.081,230.978 230.199,228.283C228.268,225.506 228.703,222.207 230.388,221.197C232.119,220.16 235.543,221.277 237.454,224.072Z" style="fill:rgb(213,43,30);fill-rule:nonzero;"/>
            <path d="M275.44,236.15C273.923,237.469 273.586,240.947 275.651,243.35C277.722,245.76 281.181,245.896 282.717,244.555C284.245,243.21 284.582,239.729 282.517,237.361C280.46,235.001 276.978,234.834 275.44,236.15Z" style="fill:rgb(231,231,231);fill-rule:nonzero;"/>
            <path d="M268.218,207.799C267.069,208.242 270.992,218.573 270.263,224.757C269.547,230.67 260.536,233.648 255.997,234.321C254.527,233.144 242.624,223.614 241.743,215.59C240.992,208.845 244.956,201.109 243.776,199.91C242.172,198.281 233.811,203.342 233.376,210.746C232.934,218.098 240.839,232.134 245.82,235.835C253.166,241.292 262.69,246.186 256.008,242.469C256.82,242.545 261.141,242.951 266.196,242.434C271.216,241.909 279.097,232.622 278.64,224.948C278.188,217.355 269.784,207.188 268.218,207.799Z" style="fill:rgb(0,121,52);fill-rule:nonzero;"/>
            <path d="M255.997,234.099C256.064,233.887 258.053,229.804 266.185,229.986C267.818,230.02 281.507,230.304 286.55,231.409C289.349,232.012 273.297,220.916 270.263,219.557C269.601,219.262 262.248,215.988 261.208,219.755C260.472,222.455 258.279,220.75 256.008,220.314C252.59,219.645 249.175,213.721 248.764,213.008C247.528,210.843 239.127,209.121 238.243,208.94C234.795,208.219 225.181,212.146 224.099,212.588C234.137,216.405 245.452,222.415 247.631,224.186C251.792,227.578 247.22,234.488 246.731,235.228C245.595,236.882 253.634,236.537 255.997,234.099Z" style="fill:white;fill-rule:nonzero;"/>
            <path d="M255.997,234.099C256.064,233.887 258.053,229.804 266.185,229.986C267.818,230.02 281.507,230.304 286.55,231.409C289.289,231.999 274.37,222.847 271.274,221.464C270.737,221.225 264.688,218.539 263.93,221.32C263.702,222.156 263.347,221.715 256.008,220.302C252.51,219.618 248.471,216.782 247.187,214.536C245.501,211.606 240.067,211.244 239.943,211.217C235.982,210.367 225.36,212.346 224.11,212.579C234.148,216.397 245.463,222.407 247.642,224.178C251.803,227.57 247.231,234.481 246.742,235.22C245.596,236.882 253.634,236.537 255.997,234.099Z" style="fill-rule:nonzero;"/>
            <path d="M231.788,253.998C231.788,239.642 242.414,230.343 255.997,234.777C268.943,239.003 280.206,254.581 280.206,269.1C280.206,283.461 269.594,292.159 255.997,287.721C243.217,283.549 231.788,268.635 231.788,253.998Z" style="fill:rgb(0,166,222);fill-rule:nonzero;"/>
            <path d="M238.232,255.748C238.232,244.216 246.587,237.361 255.997,240.432C265.344,243.483 273.762,255.572 273.762,267.068C273.762,278.594 265.427,285.144 255.997,282.066C246.652,279.015 238.232,267.26 238.232,255.748Z" style="fill:rgb(232,163,15);fill-rule:nonzero;"/>
            <path d="M248.309,249.731C248.309,245.634 251.78,243.133 255.997,244.51C260.17,245.872 263.685,250.605 263.685,254.728C263.685,258.828 260.223,261.278 255.997,259.899C251.82,258.535 248.309,253.871 248.309,249.731Z" style="fill:rgb(213,43,30);fill-rule:nonzero;"/>
            <path d="M255.997,282.066C265.095,285.035 273.152,279.068 273.729,268.38C270.282,265.994 257.389,252.653 255.997,252.199C253.352,251.335 246.985,255.02 246.276,255.431C245.707,255.763 243.787,256.885 238.298,257.444C239.025,268.425 247.157,279.18 255.997,282.066Z" style="fill:rgb(0,121,52);fill-rule:nonzero;"/>
            <path d="M258.264,222.841C258.264,224.759 253.688,223.392 253.064,223.191C249.361,221.996 247.853,220.053 247.853,219.488C247.853,217.566 252.435,218.91 253.064,219.113C256.619,220.26 258.264,222.24 258.264,222.841Z" style="fill:rgb(232,163,15);fill-rule:nonzero;"/>
            <path d="M246.942,268.538L252.375,270.258L253.953,266.245L255.997,269.388L253.731,275.218L248.753,273.627L246.942,268.538Z" style="fill:white;fill-rule:nonzero;"/>
            <path d="M260.741,276.834C260.741,278.034 260.154,280.496 258.375,279.911C256.637,279.34 255.997,276.853 255.997,275.277C255.997,274.07 256.596,271.627 258.375,272.211C260.107,272.78 260.741,275.263 260.741,276.834ZM264.141,281.812C264.141,282.085 263.923,282.196 263.685,282.117C263.44,282.036 263.23,281.777 263.23,281.511L263.23,269.744C263.23,269.48 263.45,269.362 263.685,269.439L264.141,270.045L264.141,281.812Z" style="fill:rgb(179,125,10);fill-rule:nonzero;"/>
            <path d="M267.53,270.017C267.53,272.212 265.389,272.935 263.574,272.336C261.438,271.631 259.619,269.124 259.619,267.409C259.619,265.218 261.764,264.494 263.574,265.091C265.723,265.812 267.53,268.313 267.53,270.017Z" style="fill:rgb(50,178,102);fill-rule:nonzero;"/>
        </g>
    </g>
</svg>
