<?xml version="1.0" encoding="UTF-8" standalone="no"?>
<!DOCTYPE svg PUBLIC "-//W3C//DTD SVG 1.1//EN" "http://www.w3.org/Graphics/SVG/1.1/DTD/svg11.dtd">
<svg width="100%" height="100%" viewBox="0 0 512 512" version="1.1" xmlns="http://www.w3.org/2000/svg" xmlns:xlink="http://www.w3.org/1999/xlink" xml:space="preserve" xmlns:serif="http://www.serif.com/" style="fill-rule:evenodd;clip-rule:evenodd;stroke-linejoin:round;stroke-miterlimit:2;">
    <g>
        <g>
            <path d="M411.553,116.384C356.73,124.889 332.064,131.464 288.718,119.665C237.624,105.757 223.765,91.829 157.967,100.345C153.994,103.291 154.208,103.269 150.554,106.457L154.613,118.363L144.007,112.204L133.582,121.621L137.442,108.481L130.056,104.483C127.69,104.857 110.194,107.618 100.444,108.861C77.104,111.835 55.74,130.85 58.828,156.107C63.749,196.349 71.735,219.194 72.083,253.166C72.44,288.108 64.155,323.962 59.699,355.921C56.353,379.924 75.267,400.977 100.472,397.677C133.619,393.337 183.14,381.944 216.005,387.763C251.034,393.964 286.88,411.88 319.604,414.901L320.771,411.403L310.16,402.353C316.988,403.48 322.227,403.796 323.282,403.86L327.338,391.552L331.398,404.053L344.637,403.762L333.915,411.754L335.081,415.342C370.702,414.86 410.503,408.894 412.318,408.636C435.684,405.308 458.974,381.556 461.247,357.894C471.963,246.325 470.85,244.51 459.378,156.216C456.362,133 437.012,112.436 411.553,116.384Z" style="fill:rgb(45,49,137);fill-rule:nonzero;"/>
            <path d="M133.582,121.621L144.007,112.204L154.602,118.364L150.554,106.457C154.208,103.269 153.994,103.291 157.967,100.345C148.541,101.566 132.285,104.131 130.056,104.483L137.442,108.481L133.582,121.621ZM344.637,403.762L331.398,404.053L327.338,391.563L323.282,403.86C322.227,403.796 316.988,403.48 310.16,402.353L320.771,411.403L319.604,414.901C325.746,415.468 333.842,415.358 335.081,415.342L333.904,411.754L344.637,403.762ZM167.005,119.1L171.076,131.159L184.158,130.135L173.618,138.645L177.727,150.781L167.246,144.075L157.183,153.131L160.756,140.105L150.223,133.845L163.072,132.063L167.005,119.1ZM190.023,152.416L194.12,164.798C200.992,164.718 206.229,165.238 207.278,165.342L196.656,172.506L200.711,185.075L190.096,177.371L179.877,185.629L183.636,172.894L173.276,165.991L186.031,165.041L190.023,152.416ZM212.911,188.539L216.966,201.659C218.024,201.841 223.164,202.728 230.088,204.456L219.466,209.833L223.521,223.13L212.911,213.495L202.289,220.141L206.344,207.964L195.739,199.775C196.79,199.769 202.079,199.738 208.855,200.497L212.911,188.539ZM235.81,228.481L239.865,242.106L252.986,246.155L242.376,250.556L246.431,264.268L235.81,253.437L225.199,258.486L229.255,246.96L218.633,236.956C219.691,237.15 224.815,238.092 231.754,239.878L235.81,228.481ZM258.708,270.532L262.763,284.346L275.896,288.628L265.274,292.886L269.329,306.707L258.708,295.487L248.098,299.787L252.153,288.586L241.543,277.587L254.664,281.687L258.708,270.532ZM281.617,312.922L285.673,326.609L298.794,330.095L288.184,335.043L292.228,348.633L281.617,337.877L271.007,342.232L275.051,331.059L264.441,319.889L277.562,324.144L281.617,312.922ZM304.427,353.83L308.483,367.089C315.325,368.297 320.559,368.69 321.616,368.769L310.994,375.222L315.049,388.285L304.427,378.797L293.817,384.04L297.872,372.576L287.25,362.055L300.372,365.448L304.427,353.83Z" style="fill:rgb(225,232,237);fill-rule:nonzero;"/>
            <path d="M367.392,413.768C372.027,234.225 367.105,175.858 367.106,123.307C269.155,136.248 260.299,92.146 178.222,98.234C198.672,122.07 260.581,237 267.235,249.352C327.835,361.851 331.581,359.483 367.392,413.768Z" style="fill:rgb(251,209,22);fill-rule:nonzero;"/>
        </g>
    </g>
</svg>
