<?xml version="1.0" encoding="UTF-8" standalone="no"?>
<!DOCTYPE svg PUBLIC "-//W3C//DTD SVG 1.1//EN" "http://www.w3.org/Graphics/SVG/1.1/DTD/svg11.dtd">
<svg width="100%" height="100%" viewBox="0 0 512 512" version="1.1" xmlns="http://www.w3.org/2000/svg" xmlns:xlink="http://www.w3.org/1999/xlink" xml:space="preserve" xmlns:serif="http://www.serif.com/" style="fill-rule:evenodd;clip-rule:evenodd;stroke-linejoin:round;stroke-miterlimit:2;">
    <g>
        <g>
            <path d="M65.916,200.521C131.149,200.57 165.964,180.935 212,187.156C244.121,191.497 283.613,210.626 315.993,214.514C354.345,219.119 420.451,202.083 465.285,200.634C471.286,255.023 466.46,303.448 465.573,312.341C365.774,315.923 363.543,344.276 259.997,310.822C166.652,280.665 164.705,311.49 66.784,311.522C75.906,255.075 71.644,231.266 65.916,200.521Z" style="fill:rgb(238,238,238);fill-rule:nonzero;"/>
            <path d="M411.553,116.384C327.618,129.405 325.974,131.604 259.985,110.838C187.662,88.078 182.392,98.415 100.444,108.861C77.104,111.835 55.74,130.85 58.828,156.107C60.94,173.373 67.212,207.275 68.032,211.709C133.018,211.804 165.724,192.013 212,198.267C244.121,202.608 283.613,221.737 315.993,225.625C354.242,230.218 421.296,213.15 466.345,211.672C465.053,195.403 460.635,165.894 459.378,156.216C456.362,133 437.012,112.436 411.553,116.384ZM59.699,355.921C56.353,379.924 75.267,400.977 100.472,397.677C182.335,386.958 187.634,376.33 259.985,399.708C297.334,411.775 314.968,422.501 412.318,408.636C435.684,405.308 458.974,381.556 461.247,357.894C461.687,353.309 466.412,304.116 466.719,300.578C378.295,303.458 359.293,331.738 267.996,302.348C235.135,291.769 214.587,282.94 173.268,287.311C134.525,291.41 119.434,300.485 68.5,300.472C67.36,308.302 61.51,342.933 59.699,355.921Z" style="fill:rgb(117,170,219);fill-rule:nonzero;"/>
            <path d="M71.205,234.963C162.192,235.959 164.122,202.07 259.997,233.045C299.422,245.782 313.409,251.386 357.361,247.195C385.734,244.489 436.036,234.917 467.755,233.885C468.84,257.174 468.201,274.814 468.072,278.371C405.923,280.367 347.621,303.035 291.995,287.448C252.681,276.433 225.496,262.38 188.371,264.014C146.281,265.865 125.395,278.976 71.062,278.724C73.027,255.895 71.509,238.45 71.205,234.963Z" style="fill:rgb(20,20,20);fill-rule:nonzero;"/>
        </g>
    </g>
</svg>
