<?xml version="1.0" encoding="UTF-8" standalone="no"?>
<!DOCTYPE svg PUBLIC "-//W3C//DTD SVG 1.1//EN" "http://www.w3.org/Graphics/SVG/1.1/DTD/svg11.dtd">
<svg width="100%" height="100%" viewBox="0 0 512 512" version="1.1" xmlns="http://www.w3.org/2000/svg" xmlns:xlink="http://www.w3.org/1999/xlink" xml:space="preserve" xmlns:serif="http://www.serif.com/" style="fill-rule:evenodd;clip-rule:evenodd;stroke-linejoin:round;stroke-miterlimit:2;">
    <g>
        <g>
            <path d="M167.111,99.255C149.799,101.127 115.02,107.003 100.444,108.861C77.104,111.835 55.74,130.85 58.828,156.107C62.082,182.717 68.24,211.099 69.928,223.515C114.336,223.867 135.675,214.7 169.192,210.237C167.344,154.533 167.111,154.772 167.111,99.255ZM411.553,116.384C386.048,120.341 349.887,127.577 320.685,125.728C295.899,124.158 254.407,108.371 233.776,103.014C233.776,139.975 233.776,176.936 233.776,213.897C268.256,223.089 300.303,239.871 341.204,237.3C385.274,234.53 430.292,223.977 467.141,222.773C465.41,195.618 461.797,174.839 459.378,156.216C456.362,133 437.012,112.436 411.553,116.384ZM233.776,391.675C291.844,407.155 297.489,424.991 412.318,408.636C435.326,405.358 458.979,381.932 461.764,352.466C467.244,294.459 467.226,294.565 467.535,289.48C428.846,290.729 370.419,303.796 333.031,304.242C297.634,304.664 264.694,288.806 233.776,280.564L233.776,391.675ZM69.949,289.544C68.244,303.91 62.361,337.793 60.5,350.357C56.136,379.816 75.318,400.97 100.472,397.677C115.436,395.718 149.431,389.775 167.089,387.814C166.703,351.47 168.694,295.013 169.197,276.753C133.333,281.322 117.018,289.637 69.949,289.544Z" style="fill:rgb(239,43,45);fill-rule:nonzero;"/>
            <path d="M217.111,99.387C201.701,96.783 187.565,97.681 184.4,97.844C184.227,161.762 184.541,161.609 184.811,225.392C144.623,228.189 120.91,241.141 71.626,240.576C71.791,243.192 72.624,256.422 71.478,273.33C123.295,273.646 143.979,261.31 184.735,258.672C184.647,268.996 183.498,342.724 183.762,386.4C187.392,386.199 201.666,385.271 217.111,387.95L217.111,260.172C249.043,265.715 293.346,286.518 324.604,287.477C365.853,288.741 425.666,274.179 468.241,272.812C468.306,270.143 468.636,256.717 467.989,239.445C425.501,240.822 365.806,255.404 324.604,254.143C293.37,253.187 249.089,232.389 217.111,226.839C217.111,184.355 217.111,141.871 217.111,99.387Z" style="fill:rgb(0,40,104);fill-rule:nonzero;"/>
            <path d="M217.111,387.95C218.457,388.184 224.829,389.29 233.776,391.675L233.776,280.564C268.313,289.771 300.244,306.527 341.239,303.97C385.44,301.213 430.575,290.673 467.535,289.48L468.241,272.812C425.68,274.178 365.899,288.743 324.604,287.477C293.362,286.519 249.092,265.723 217.111,260.172L217.111,387.95ZM233.776,103.014C224.829,100.692 218.456,99.614 217.111,99.387C217.111,141.871 217.111,184.355 217.111,226.839C249.04,232.381 293.354,253.187 324.604,254.143C365.76,255.403 425.488,240.823 467.989,239.445L467.141,222.773C428.576,224.033 370.253,237.12 333.02,237.574C297.671,238.004 264.652,222.128 233.776,213.897C233.776,176.936 233.776,139.975 233.776,103.014ZM183.778,97.877L167.111,99.255C167.111,154.772 167.344,154.536 169.192,210.237C134.367,214.874 114.531,223.869 69.928,223.515C71.09,232.062 71.54,239.207 71.626,240.576C121.217,241.144 143.992,228.297 184.494,225.415C184.084,161.551 183.778,161.799 183.778,97.877ZM71.478,273.33L69.949,289.544C116.799,289.637 134.666,281.152 169.197,276.753C168.87,288.614 166.692,350.422 167.089,387.814C175.927,386.833 182.425,386.474 183.762,386.4C183.398,342.164 184.412,268.77 184.479,258.689C143.495,261.393 123.715,273.649 71.478,273.33Z" style="fill:rgb(237,236,236);fill-rule:nonzero;"/>
        </g>
    </g>
</svg>
