<?xml version="1.0" encoding="UTF-8" standalone="no"?>
<!DOCTYPE svg PUBLIC "-//W3C//DTD SVG 1.1//EN" "http://www.w3.org/Graphics/SVG/1.1/DTD/svg11.dtd">
<svg width="100%" height="100%" viewBox="0 0 512 512" version="1.1" xmlns="http://www.w3.org/2000/svg" xmlns:xlink="http://www.w3.org/1999/xlink" xml:space="preserve" xmlns:serif="http://www.serif.com/" style="fill-rule:evenodd;clip-rule:evenodd;stroke-linejoin:round;stroke-miterlimit:2;">
    <g>
        <g>
            <path d="M461.247,357.894C458.974,381.556 435.684,405.308 412.318,408.636C308.939,423.36 296.194,410.772 244.032,394.61C189.598,377.745 160.51,389.816 100.472,397.677C75.267,400.977 56.353,379.924 59.699,355.921C64.445,321.88 73.245,285.12 71.958,247.429C70.917,216.956 63.537,194.612 58.828,156.107C55.74,130.85 77.104,111.835 100.444,108.861C182.392,98.415 187.662,88.078 259.985,110.838C325.827,131.557 327.444,129.432 411.553,116.384C437.012,112.436 456.362,133 459.378,156.216C470.841,244.445 471.982,246.128 461.247,357.894Z" style="fill:rgb(0,155,58);fill-rule:nonzero;"/>
            <path d="M428.916,259.72C315.783,351.423 315.508,352.029 255.997,377.554C216.418,334.739 216.759,334.214 107.059,255.133C154.742,207.916 164.868,169.437 255.997,130.343C332.467,213.073 336.27,209.526 428.916,259.72Z" style="fill:rgb(254,223,1);fill-rule:nonzero;"/>
            <path d="M255.73,181.267C284.123,190.528 327.482,225.129 327.482,270.066C327.482,302.802 303.73,340.434 255.73,324.779C236.544,318.521 215.437,304.048 202.628,289.175C199.479,285.519 184.717,269.1 184.725,241.211C184.735,203.29 211.664,166.895 255.73,181.267Z" style="fill:rgb(0,39,118);"/>
            <path d="M192.51,207.068C191.65,208.772 187.371,217.251 185.592,229.897C206.712,226.841 226.57,235.669 243.523,246.116C267.822,261.09 301.391,290.864 315.427,308.944C316.535,307.419 322.115,299.738 325.238,287.516C309.518,271.477 273.429,240.851 248.003,225.378C233.186,216.361 213.215,206.449 192.51,207.068Z" style="fill:rgb(203,233,212);fill-rule:nonzero;"/>
            <path d="M189.684,244.358C195.917,244.087 199.584,244.231 200.444,244.265L200.444,255.376L189.661,255.453L189.684,244.358ZM200.444,266.487C201.336,266.522 205.82,266.698 211.555,267.462L211.555,278.574C205.82,277.809 201.336,277.633 200.444,277.598L200.444,266.487Z" style="fill:rgb(136,201,249);fill-rule:nonzero;"/>
            <path d="M222.666,247.16L233.776,249.819L233.776,260.93L222.666,258.271L222.666,247.16ZM244.887,264.126L255.997,267.654L255.997,278.766L244.887,275.237L244.887,264.126ZM289.328,300.42L300.438,303.241L300.438,314.352L289.328,311.531L289.328,300.42ZM255.997,300.988L267.107,304.645L267.107,315.756L255.997,312.099L255.997,300.988ZM289.328,244.864L300.438,247.685L300.438,258.796L289.328,255.975L289.328,244.864Z" style="fill:rgb(85,172,238);fill-rule:nonzero;"/>
            <path d="M267.107,282.423L278.218,286.005L278.218,297.116L267.107,293.534L267.107,282.423Z" style="fill:rgb(59,136,195);fill-rule:nonzero;"/>
        </g>
    </g>
</svg>
