<?xml version="1.0" encoding="UTF-8" standalone="no"?>
<!DOCTYPE svg PUBLIC "-//W3C//DTD SVG 1.1//EN" "http://www.w3.org/Graphics/SVG/1.1/DTD/svg11.dtd">
<svg width="100%" height="100%" viewBox="0 0 512 512" version="1.1" xmlns="http://www.w3.org/2000/svg" xmlns:xlink="http://www.w3.org/1999/xlink" xml:space="preserve" xmlns:serif="http://www.serif.com/" style="fill-rule:evenodd;clip-rule:evenodd;stroke-linejoin:round;stroke-miterlimit:2;">
    <g transform="matrix(1.11593,-4.03717e-17,4.03717e-17,1.11593,-13.9687,-19.1113)">
        <g transform="matrix(11.1111,-1.36955e-31,4.93038e-32,11.1111,-2411.79,-2528.08)">
            <g>
                <g transform="matrix(0.896117,3.24196e-17,-3.24196e-17,0.896117,222.704,233.585)">
                    <path d="M32,5.435C24.446,6.606 24.298,6.804 18.359,4.935C11.85,2.887 11.375,3.817 4,4.757L3.396,4.874C3.396,5.014 3.394,5.712 3.451,6.629C1.954,6.798 0.935,6.798 0.716,6.798C0.338,7.429 0.158,8.22 0.255,9.01C0.711,12.739 1.442,14.73 1.448,17.925C1.455,20.985 0.727,24.164 0.333,26.993C0.033,29.147 1.724,31.049 4.002,30.751C11.374,29.786 11.848,28.83 18.359,30.934C21.72,32.019 23.309,32.985 32.068,31.737C34.174,31.437 36.262,29.289 36.469,27.17C37.446,17.169 37.37,17.149 36.301,9.019C36.029,6.947 34.301,5.078 32,5.435Z" style="fill:rgb(0,36,125);fill-rule:nonzero;"/>
                </g>
                <g transform="matrix(0.896117,3.24196e-17,-3.24196e-17,0.896117,222.704,233.585)">
                    <path d="M34.349,22.893C34.142,22.76 33.688,22.371 33.641,22.292C33.345,21.778 32.917,21.846 32.845,21.857L32.754,21.879C32.779,21.84 32.954,21.561 32.968,21.335C33.253,16.681 32.604,12.248 32.584,12.1C28.585,12.719 25.687,13.377 22.394,12.636C22.51,13.649 23.025,17.693 22.763,21.881C22.749,22.103 22.885,22.394 22.905,22.435L22.815,22.407C22.324,22.297 21.978,22.702 21.928,22.76C21.848,22.852 21.36,23.135 21.078,23.224C21.023,23.242 20.687,23.346 20.61,23.776C20.495,24.425 20.998,25.043 21.071,25.131C21.288,25.399 21.541,25.467 21.589,25.48C21.644,25.495 21.931,25.573 22.287,25.388C23.157,26.4 24.674,27.916 27.265,27.736C30.036,27.544 32.325,25.404 32.744,25.02C33.043,25.249 33.333,25.211 33.386,25.203C33.436,25.197 33.69,25.163 33.948,24.926C34.037,24.845 34.632,24.302 34.664,23.592C34.687,23.107 34.401,22.926 34.349,22.893Z" style="fill:white;fill-rule:nonzero;"/>
                </g>
                <g transform="matrix(0.896117,3.24196e-17,-3.24196e-17,0.896117,222.704,233.585)">
                    <path d="M27.536,25.287C24.701,24.202 23.238,22.489 23.269,21.989C23.524,17.911 23.044,14.023 22.956,13.241C25.788,13.791 28.749,13.221 32.14,12.679C32.168,12.906 32.726,17.048 32.458,21.416C32.419,22.062 29.726,24.183 27.536,25.287Z" style="fill:rgb(0,97,41);fill-rule:nonzero;"/>
                </g>
                <g transform="matrix(0.896117,3.24196e-17,-3.24196e-17,0.896117,222.704,233.585)">
                    <path d="M26.062,19.24C25.871,19.319 25.79,18.775 26.046,18.377C26.991,16.901 27.086,16.946 27.179,16.383C27.296,15.678 27.637,15.675 27.743,15.498C27.814,15.379 27.928,15.052 27.701,15.014C27.337,14.953 27.332,14.65 27.382,14.313C27.474,13.696 28.164,13.693 28.207,14.098C28.236,14.369 28.203,14.644 28.217,14.916C28.223,15.016 28.263,15.141 28.316,15.229C28.444,15.441 28.904,15.502 29.129,16.007C29.178,16.117 29.585,17.024 29.371,17.488C29.331,17.574 29.105,18.927 28.996,19.097C28.73,19.512 28.573,19.097 28.596,18.819C28.606,18.691 28.688,18.714 29.01,17.271C29.091,16.908 28.794,16.241 28.455,16.206C28.171,16.178 27.333,17.279 27.252,17.386C27.162,17.504 26.371,18.126 26.356,18.29C26.35,18.369 26.282,19.148 26.062,19.24Z" style="fill:rgb(255,198,181);fill-rule:nonzero;"/>
                </g>
                <g transform="matrix(0.896117,3.24196e-17,-3.24196e-17,0.896117,222.704,233.585)">
                    <path d="M29.641,22.855C28.407,23.294 28.431,23.392 27.998,23.333C27.758,23.301 26.714,23.562 26.655,23.474C26.594,23.384 26.717,23.394 26.9,22.138C26.909,22.078 27.009,21.385 26.955,21.388C26.632,21.41 26.777,20.781 26.789,20.728C26.991,19.858 27.146,18.947 27.172,18.791C27.022,18.742 27.016,18.477 27.067,18.327C27.206,17.918 27.32,16.999 27.271,16.832C27.234,16.705 26.885,16.674 26.974,16.399L27.244,15.765C27.331,15.492 27.532,15.332 27.641,15.367C27.767,15.408 27.953,15.571 28.099,15.46C28.255,15.341 28.27,15.206 28.457,15.197C28.657,15.187 29.133,15.542 29.054,15.639C28.984,15.725 28.826,16.1 28.822,16.486C28.818,16.921 28.566,18.078 28.536,18.215C28.506,18.354 28.584,18.332 29.011,19.927C29.364,21.234 29.6,22.619 29.641,22.855Z" style="fill:white;fill-rule:nonzero;"/>
                </g>
                <g transform="matrix(0.896117,3.24196e-17,-3.24196e-17,0.896117,222.704,233.585)">
                    <path d="M27.344,13.858C27.407,13.614 27.847,13.369 28.251,13.614C28.679,13.875 28.866,14.417 28.643,14.759C28.62,14.795 28.331,15.236 28.114,14.824C28.056,14.715 28.027,14.328 27.924,14.286C27.781,14.229 27.888,13.996 27.744,13.959C27.592,13.92 27.254,14.203 27.344,13.858Z" style="fill:rgb(156,81,0);fill-rule:nonzero;"/>
                </g>
                <g transform="matrix(0.896117,3.24196e-17,-3.24196e-17,0.896117,222.704,233.585)">
                    <path d="M23.74,13.705C23.631,13.584 23.6,14.045 23.625,14.106C23.679,14.243 23.686,14.513 23.833,14.497C23.958,14.483 23.96,14.191 23.972,14.168C24.024,14.062 23.775,14.064 23.84,13.95L23.74,13.705Z" style="fill:rgb(255,0,0);fill-rule:nonzero;"/>
                </g>
                <g transform="matrix(0.896117,3.24196e-17,-3.24196e-17,0.896117,222.704,233.585)">
                    <path d="M23.56,14.388L24.394,14.495C24.422,14.35 24.487,14.128 24.635,14.124C24.692,14.122 24.743,14.168 24.771,14.211C24.831,14.302 24.918,14.62 24.895,14.513C24.938,14.526 25.289,14.624 25.456,14.506C25.623,14.389 26.024,14.531 25.743,14.708C25.563,14.822 25.503,14.603 25.415,14.712C25.317,14.832 25.054,14.932 25.122,15.072C25.192,15.218 24.805,15.198 24.773,15.196C24.669,15.189 24.32,15.16 24.349,14.974C24.368,14.853 23.957,14.717 23.919,14.704C23.849,14.681 23.784,14.643 23.728,14.595C23.661,14.537 23.52,14.308 23.56,14.388Z" style="fill:rgb(248,198,0);fill-rule:nonzero;"/>
                </g>
                <g transform="matrix(0.896117,3.24196e-17,-3.24196e-17,0.896117,222.704,233.585)">
                    <path d="M23.9,15.3C23.793,15.178 23.751,15.636 23.774,15.698C23.825,15.835 23.827,16.105 23.972,16.089C24.098,16.075 24.107,15.79 24.121,15.763C24.177,15.658 23.927,15.657 23.995,15.545L23.9,15.3Z" style="fill:rgb(255,0,0);fill-rule:nonzero;"/>
                </g>
                <g transform="matrix(0.896117,3.24196e-17,-3.24196e-17,0.896117,222.704,233.585)">
                    <path d="M23.701,15.979L24.536,16.088C24.568,15.943 24.639,15.724 24.788,15.72C24.845,15.719 24.894,15.764 24.922,15.808C24.979,15.898 25.057,16.213 25.037,16.108C25.08,16.12 25.429,16.218 25.599,16.102C25.769,15.988 26.165,16.126 25.88,16.302C25.698,16.414 25.642,16.198 25.551,16.306C25.451,16.425 25.182,16.52 25.247,16.662C25.313,16.807 24.926,16.787 24.894,16.785C24.793,16.778 24.44,16.749 24.476,16.564C24.498,16.443 24.09,16.307 24.052,16.295C23.983,16.272 23.918,16.234 23.864,16.186C23.798,16.128 23.663,15.899 23.701,15.979Z" style="fill:rgb(248,198,0);fill-rule:nonzero;"/>
                </g>
                <g transform="matrix(0.896117,3.24196e-17,-3.24196e-17,0.896117,222.704,233.585)">
                    <path d="M24.025,17.068C23.921,16.946 23.862,17.406 23.884,17.469C23.93,17.605 23.926,17.876 24.07,17.86C24.197,17.846 24.213,17.563 24.231,17.532C24.29,17.428 24.04,17.425 24.111,17.314L24.025,17.068Z" style="fill:rgb(255,0,0);fill-rule:nonzero;"/>
                </g>
                <g transform="matrix(0.896117,3.24196e-17,-3.24196e-17,0.896117,222.704,233.585)">
                    <path d="M23.8,17.751L24.635,17.86C24.674,17.713 24.75,17.494 24.901,17.49C24.958,17.489 25.006,17.534 25.032,17.578C25.087,17.669 25.154,17.984 25.137,17.879C25.18,17.892 25.525,17.99 25.699,17.873C25.873,17.757 26.263,17.898 25.973,18.073C25.787,18.186 25.74,17.969 25.645,18.077C25.54,18.197 25.266,18.287 25.328,18.434C25.389,18.58 25.004,18.56 24.969,18.558C24.871,18.551 24.516,18.521 24.558,18.336C24.596,18.168 24.144,18.067 24.142,18.066C24.074,18.044 24.01,18.005 23.957,17.958C23.893,17.9 23.765,17.671 23.8,17.751Z" style="fill:rgb(248,198,0);fill-rule:nonzero;"/>
                </g>
                <g transform="matrix(0.896117,3.24196e-17,-3.24196e-17,0.896117,222.704,233.585)">
                    <path d="M25.092,18.896C24.992,18.782 24.917,19.246 24.937,19.311C24.978,19.442 24.973,19.714 25.108,19.687C25.236,19.661 25.258,19.383 25.281,19.343C25.341,19.237 25.097,19.249 25.17,19.135L25.092,18.896Z" style="fill:rgb(255,0,0);fill-rule:nonzero;"/>
                </g>
                <g transform="matrix(0.896117,3.24196e-17,-3.24196e-17,0.896117,222.704,233.585)">
                    <path d="M24.843,19.6L25.672,19.631C25.717,19.476 25.791,19.253 25.952,19.235C26.007,19.229 26.054,19.269 26.08,19.312C26.132,19.401 26.185,19.708 26.173,19.606C26.217,19.615 26.562,19.688 26.738,19.565C26.888,19.462 27.343,19.537 27.005,19.752C26.816,19.873 26.774,19.66 26.675,19.772C26.342,20.147 26.342,20.147 26.343,20.148C26.398,20.289 26.021,20.298 25.979,20.299C25.89,20.301 25.528,20.304 25.577,20.115C25.621,19.945 25.173,19.886 25.172,19.886C25.106,19.869 25.044,19.837 24.992,19.793C24.93,19.741 24.811,19.525 24.843,19.6Z" style="fill:rgb(248,198,0);fill-rule:nonzero;"/>
                </g>
                <g transform="matrix(0.896117,3.24196e-17,-3.24196e-17,0.896117,222.704,233.585)">
                    <path d="M24.03,20.192C23.932,20.068 23.842,20.526 23.86,20.592C23.897,20.727 23.88,20.997 24.02,20.981C24.149,20.969 24.183,20.691 24.206,20.656C24.271,20.554 24.022,20.546 24.1,20.437L24.03,20.192Z" style="fill:rgb(255,0,0);fill-rule:nonzero;"/>
                </g>
                <g transform="matrix(0.896117,3.24196e-17,-3.24196e-17,0.896117,222.704,233.585)">
                    <path d="M23.756,20.871L24.59,20.984C24.64,20.835 24.727,20.62 24.883,20.617C24.94,20.616 24.985,20.66 25.009,20.705C25.057,20.797 25.102,21.11 25.093,21.006C25.136,21.019 25.474,21.118 25.655,21.003C25.821,20.899 26.236,21.018 25.915,21.203C25.722,21.315 25.689,21.099 25.587,21.206C25.473,21.324 25.19,21.404 25.244,21.559C25.295,21.705 24.914,21.683 24.876,21.68C24.784,21.674 24.421,21.641 24.478,21.457C24.525,21.303 24.231,21.239 24.079,21.187C24.012,21.164 23.951,21.126 23.9,21.078C23.839,21.02 23.726,20.793 23.756,20.871Z" style="fill:rgb(248,198,0);fill-rule:nonzero;"/>
                </g>
                <g transform="matrix(0.896117,3.24196e-17,-3.24196e-17,0.896117,222.704,233.585)">
                    <path d="M23.972,21.864C23.878,21.739 23.769,22.194 23.784,22.261C23.815,22.395 23.792,22.663 23.929,22.648C24.059,22.636 24.102,22.364 24.129,22.325C24.199,22.225 23.95,22.215 24.032,22.108L23.972,21.864Z" style="fill:rgb(255,0,0);fill-rule:nonzero;"/>
                </g>
                <g transform="matrix(0.896117,3.24196e-17,-3.24196e-17,0.896117,222.704,233.585)">
                    <path d="M23.668,22.538L24.502,22.651C24.558,22.502 24.652,22.29 24.811,22.287C24.867,22.286 24.911,22.329 24.933,22.375C24.979,22.467 25.01,22.776 25.005,22.674C25.048,22.687 25.382,22.785 25.569,22.671C25.723,22.576 26.17,22.674 25.82,22.87C25.636,22.973 25.598,22.767 25.491,22.873C25.39,22.973 25.27,23.053 25.164,23.148C25.145,23.165 25.124,23.194 25.133,23.223C25.178,23.369 24.799,23.345 24.759,23.342C24.671,23.336 24.304,23.303 24.369,23.121C24.421,22.972 24.128,22.904 23.979,22.852C23.914,22.83 23.853,22.792 23.804,22.743C23.745,22.686 23.641,22.461 23.668,22.538Z" style="fill:rgb(248,198,0);fill-rule:nonzero;"/>
                </g>
                <g transform="matrix(0.896117,3.24196e-17,-3.24196e-17,0.896117,222.704,233.585)">
                    <path d="M29.989,21.575C29.892,21.478 29.782,21.953 29.8,22.023C29.831,22.141 29.834,22.404 29.947,22.358C30.079,22.307 30.107,22.052 30.149,21.982C30.214,21.872 29.973,21.919 30.051,21.797L29.989,21.575Z" style="fill:rgb(255,0,0);fill-rule:nonzero;"/>
                </g>
                <g transform="matrix(0.896117,3.24196e-17,-3.24196e-17,0.896117,222.704,233.585)">
                    <path d="M29.683,22.331L30.526,22.2C30.54,22.16 30.665,21.808 30.839,21.764C30.892,21.751 30.938,21.778 30.963,21.822C31.011,21.906 31.042,22.197 31.037,22.101C31.083,22.105 31.428,22.129 31.611,21.991C31.759,21.879 32.227,21.899 31.866,22.148C31.691,22.27 31.638,22.084 31.532,22.203C31.167,22.615 31.167,22.613 31.168,22.616C31.214,22.751 30.839,22.807 30.788,22.815C30.722,22.826 30.327,22.891 30.393,22.696C30.449,22.525 30.032,22.544 29.998,22.543C29.936,22.541 29.873,22.524 29.82,22.49C29.761,22.452 29.658,22.266 29.683,22.331Z" style="fill:rgb(248,198,0);fill-rule:nonzero;"/>
                </g>
                <g transform="matrix(0.896117,3.24196e-17,-3.24196e-17,0.896117,222.704,233.585)">
                    <path d="M30.045,20.005C29.944,19.908 29.852,20.385 29.873,20.454C29.908,20.574 29.918,20.838 30.034,20.791C30.165,20.74 30.184,20.481 30.222,20.414C30.283,20.302 30.041,20.351 30.116,20.228L30.045,20.005Z" style="fill:rgb(255,0,0);fill-rule:nonzero;"/>
                </g>
                <g transform="matrix(0.896117,3.24196e-17,-3.24196e-17,0.896117,222.704,233.585)">
                    <path d="M29.767,20.763L30.61,20.632C30.623,20.591 30.734,20.238 30.908,20.194C30.961,20.18 31.008,20.209 31.035,20.253C31.086,20.336 31.129,20.63 31.12,20.533C31.167,20.536 31.515,20.561 31.693,20.422C31.84,20.308 32.309,20.33 31.957,20.58C31.782,20.704 31.725,20.515 31.623,20.635C31.273,21.049 31.273,21.049 31.273,21.05C31.325,21.185 30.948,21.242 30.899,21.25C30.829,21.261 30.439,21.326 30.496,21.13C30.545,20.959 30.131,20.978 30.092,20.976C30.029,20.974 29.966,20.957 29.911,20.923C29.851,20.885 29.739,20.697 29.767,20.763Z" style="fill:rgb(248,198,0);fill-rule:nonzero;"/>
                </g>
                <g transform="matrix(0.896117,3.24196e-17,-3.24196e-17,0.896117,222.704,233.585)">
                    <path d="M30.042,18.394C29.937,18.297 29.863,18.776 29.886,18.844C29.926,18.964 29.943,19.23 30.06,19.182C30.19,19.13 30.201,18.868 30.235,18.803C30.294,18.691 30.051,18.741 30.122,18.617L30.042,18.394Z" style="fill:rgb(255,0,0);fill-rule:nonzero;"/>
                </g>
                <g transform="matrix(0.896117,3.24196e-17,-3.24196e-17,0.896117,222.704,233.585)">
                    <path d="M29.791,19.153L30.634,19.022C30.645,18.982 30.744,18.628 30.917,18.583C30.971,18.57 31.019,18.599 31.047,18.642C31.101,18.725 31.156,19.021 31.143,18.923C31.19,18.926 31.541,18.952 31.715,18.812C31.86,18.697 32.331,18.721 31.987,18.971C31.813,19.097 31.751,18.905 31.653,19.026C31.317,19.441 31.317,19.44 31.317,19.441C31.374,19.576 30.995,19.634 30.948,19.642C30.875,19.654 30.488,19.718 30.538,19.522C30.581,19.351 30.168,19.37 30.126,19.368C30.062,19.366 29.998,19.348 29.942,19.314C29.88,19.276 29.76,19.087 29.791,19.153Z" style="fill:rgb(248,198,0);fill-rule:nonzero;"/>
                </g>
                <g transform="matrix(0.896117,3.24196e-17,-3.24196e-17,0.896117,222.704,233.585)">
                    <path d="M29.984,16.775C29.875,16.678 29.816,17.158 29.842,17.225C29.886,17.345 29.909,17.612 30.028,17.563C30.157,17.512 30.161,17.246 30.191,17.184C30.246,17.071 30.003,17.123 30.071,16.998L29.984,16.775Z" style="fill:rgb(255,0,0);fill-rule:nonzero;"/>
                </g>
                <g transform="matrix(0.896117,3.24196e-17,-3.24196e-17,0.896117,222.704,233.585)">
                    <path d="M29.757,17.535L30.6,17.404C30.609,17.364 30.696,17.01 30.869,16.966C30.923,16.952 30.972,16.982 31.002,17.025C31.059,17.107 31.124,17.404 31.108,17.305C31.155,17.309 31.51,17.334 31.68,17.195C31.823,17.079 32.295,17.104 31.958,17.354C31.775,17.489 31.719,17.288 31.624,17.409C31.301,17.823 31.301,17.823 31.301,17.824C31.363,17.959 30.982,18.017 30.937,18.025C30.861,18.037 30.477,18.1 30.521,17.904C30.558,17.732 30.146,17.751 30.101,17.749C30.036,17.747 29.971,17.729 29.914,17.695C29.85,17.657 29.724,17.468 29.757,17.535Z" style="fill:rgb(248,198,0);fill-rule:nonzero;"/>
                </g>
                <g transform="matrix(0.896117,3.24196e-17,-3.24196e-17,0.896117,222.704,233.585)">
                    <path d="M29.869,15.11C29.757,15.014 29.714,15.492 29.741,15.558C29.79,15.679 29.818,15.944 29.939,15.895C30.066,15.844 30.063,15.577 30.091,15.518C30.143,15.404 29.9,15.457 29.964,15.332L29.869,15.11Z" style="fill:rgb(255,0,0);fill-rule:nonzero;"/>
                </g>
                <g transform="matrix(0.896117,3.24196e-17,-3.24196e-17,0.896117,222.704,233.585)">
                    <path d="M29.666,15.868L30.508,15.737C30.517,15.697 30.593,15.344 30.765,15.3C30.82,15.286 30.87,15.317 30.901,15.359C30.96,15.44 31.036,15.737 31.016,15.638C31.063,15.642 31.421,15.667 31.588,15.528C31.729,15.412 32.203,15.438 31.873,15.687C31.693,15.822 31.63,15.621 31.539,15.742C31.226,16.155 31.226,16.152 31.227,16.156C31.294,16.29 30.911,16.35 30.868,16.357C30.789,16.369 30.408,16.432 30.446,16.236C30.477,16.064 30.065,16.083 30.018,16.081C29.952,16.079 29.886,16.061 29.829,16.028C29.763,15.989 29.63,15.801 29.666,15.868Z" style="fill:rgb(248,198,0);fill-rule:nonzero;"/>
                </g>
                <g transform="matrix(0.896117,3.24196e-17,-3.24196e-17,0.896117,222.704,233.585)">
                    <path d="M29.7,13.415C29.585,13.319 29.556,13.799 29.585,13.864C29.638,13.986 29.672,14.254 29.795,14.203C29.921,14.152 29.911,13.881 29.935,13.824C29.984,13.71 29.741,13.764 29.802,13.638L29.7,13.415Z" style="fill:rgb(255,0,0);fill-rule:nonzero;"/>
                </g>
                <g transform="matrix(0.896117,3.24196e-17,-3.24196e-17,0.896117,222.704,233.585)">
                    <path d="M29.519,14.175L30.362,14.045C30.369,14.006 30.434,13.651 30.606,13.607C30.661,13.593 30.712,13.625 30.744,13.667C30.806,13.748 30.893,14.047 30.87,13.947C30.916,13.951 31.277,13.977 31.44,13.838C31.58,13.72 32.055,13.749 31.732,13.997C31.555,14.133 31.486,13.93 31.398,14.051C31.098,14.466 31.098,14.465 31.099,14.466C31.17,14.6 30.785,14.66 30.743,14.667C30.662,14.68 30.284,14.743 30.315,14.546C30.341,14.374 29.931,14.393 29.881,14.391C29.814,14.388 29.747,14.37 29.689,14.337C29.621,14.298 29.481,14.107 29.519,14.175ZM34.027,23.394C33.756,23.227 33.254,22.742 33.18,22.613C33.155,22.569 32.896,22.116 32.545,22.528C32.502,22.579 29.978,25.447 27.495,25.646C25.006,25.844 23.218,23.408 23.006,23.088C22.976,23.044 22.727,22.667 22.338,23.126C22.216,23.269 21.658,23.608 21.307,23.722C20.997,23.822 21.072,24.393 21.44,24.839C21.676,25.127 22.089,24.936 22.325,24.683C23.172,25.737 24.689,27.42 27.317,27.234C30.094,27.037 32.332,24.797 32.858,24.276C33.021,24.558 33.374,24.827 33.661,24.561C34.115,24.14 34.288,23.556 34.027,23.394Z" style="fill:rgb(248,198,0);fill-rule:nonzero;"/>
                </g>
                <g transform="matrix(0.896117,3.24196e-17,-3.24196e-17,0.896117,222.704,233.585)">
                    <path d="M19.912,18.16C19.866,13.285 19,9.376 19,5.141C11.806,2.837 11.647,3.783 4,4.757L3.396,4.874C3.396,5.014 3.394,5.712 3.451,6.629C1.954,6.798 0.935,6.798 0.716,6.798L0.602,7.003C0.528,7.148 0.124,7.941 0.255,9.01C0.717,12.789 1.468,14.816 1.448,18.098C5.841,18.143 7.652,17.208 11.988,16.792C15.05,16.498 17.294,17.318 19.912,18.16Z" style="fill:rgb(0,36,125);fill-rule:nonzero;"/>
                </g>
                <g transform="matrix(0.896117,3.24196e-17,-3.24196e-17,0.896117,222.704,233.585)">
                    <path d="M19,5.141C18.814,5.082 17.267,4.586 16.669,4.415C14.496,5.171 12.449,6.757 12.117,7.013C12,5.326 12,4.009 12,3.747C10.226,3.803 7.398,4.248 7,4.311C7,5.604 7.077,6.67 7.092,6.875C6.075,6.341 4.972,5.77 3.396,4.874C2.458,5.119 1.849,5.59 1.732,5.68C3.536,6.825 6.373,8.265 6.655,8.411C5.573,8.586 5.085,8.657 4.948,8.677C4.625,8.506 2.56,7.418 0.999,6.39L0.716,6.798C2.13,7.74 3.807,8.645 4.082,8.794C2.026,9.051 0.541,9.01 0.255,9.01C0.445,10.564 1.009,13.615 1.083,14.014C1.325,14.014 2.869,14.061 4.95,13.777C2.953,15.936 1.742,16.681 1.421,16.878L1.448,18.098C1.531,18.099 2.939,18.155 4.774,17.919C6.063,16.808 7.786,15.033 8.039,14.773C8.156,16.07 8.16,17.146 8.161,17.353C8.532,17.285 11.121,16.809 12.84,16.739C12.837,16.476 12.823,15.197 12.689,13.449C13.793,14.162 15.27,15.211 17.534,17.416C18.144,17.592 19.722,18.099 19.912,18.16C19.91,17.997 19.903,17.169 19.849,16.12C19.611,15.888 17.918,14.235 16.843,13.261C17.629,13.473 19.484,14.071 19.713,14.145C19.619,13.038 19.302,10.181 19.207,9.157C18.981,9.085 17.15,8.496 16.373,8.287C17.253,7.881 18.839,7.263 19.055,7.178C19.046,7.015 19,6.183 19,5.141Z" style="fill:rgb(238,238,238);fill-rule:nonzero;"/>
                </g>
                <g transform="matrix(0.896117,3.24196e-17,-3.24196e-17,0.896117,222.704,233.585)">
                    <path d="M11,3.801C10.759,3.819 9.761,3.893 8,4.157C8,4.826 8.012,6.514 8.307,9.172C4.881,9.699 3.684,10.017 0.388,10.012C0.423,10.253 0.574,11.299 0.892,13.007C4.163,13.009 5.176,12.716 8.677,12.156C8.729,12.556 9.069,15.171 9.08,17.187C10.701,16.904 11.655,16.821 11.88,16.801C11.861,14.822 11.597,12.196 11.557,11.796C14.707,11.557 16.349,12.108 19.621,13.154C19.579,12.73 19.317,10.276 19.306,10.161C16.083,9.131 14.474,8.581 11.259,8.817C11.019,6.227 11,4.709 11,3.801Z" style="fill:rgb(207,27,43);fill-rule:nonzero;"/>
                </g>
                <g transform="matrix(0.896117,3.24196e-17,-3.24196e-17,0.896117,222.704,233.585)">
                    <path d="M19,5.141L17.539,4.676C14.262,5.835 12.254,7.561 12.163,7.632L12.172,7.754C13.087,7.727 13.623,7.776 13.748,7.787C15.657,6.538 18.103,5.676 19,5.343L19,5.141ZM1.732,5.68C1.313,5.999 1.05,6.326 0.999,6.39C2.56,7.418 4.625,8.506 4.948,8.677C5.085,8.657 5.573,8.586 6.654,8.411C6.455,8.308 3.556,6.839 1.732,5.68ZM7.344,13.391C6.426,14.384 4.435,16.582 2.29,18.105C2.423,18.103 3.087,18.095 3.953,18.012C5.688,16.592 7.771,14.364 7.976,14.149L7.87,13.299L7.344,13.391ZM19.91,17.961L19.877,16.735C19.821,16.68 17.553,14.422 15.958,13.04C15.012,12.826 14.339,12.763 14.196,12.749C16.335,14.348 18.937,16.986 19.91,17.961Z" style="fill:rgb(207,27,43);fill-rule:nonzero;"/>
                </g>
            </g>
        </g>
    </g>
</svg>
