<?xml version="1.0" encoding="UTF-8" standalone="no"?>
<!DOCTYPE svg PUBLIC "-//W3C//DTD SVG 1.1//EN" "http://www.w3.org/Graphics/SVG/1.1/DTD/svg11.dtd">
<svg width="100%" height="100%" viewBox="0 0 512 512" version="1.1" xmlns="http://www.w3.org/2000/svg" xmlns:xlink="http://www.w3.org/1999/xlink" xml:space="preserve" xmlns:serif="http://www.serif.com/" style="fill-rule:evenodd;clip-rule:evenodd;stroke-linejoin:round;stroke-miterlimit:2;">
    <g transform="matrix(1.11593,-4.03717e-17,4.03717e-17,1.11593,-13.9687,-19.1113)">
        <g transform="matrix(11.1111,-2.35563e-31,0,11.1111,-2371.15,-2417.74)">
            <g>
                <g transform="matrix(0.896117,3.24196e-17,-3.24196e-17,0.896117,219.046,223.655)">
                    <path d="M36.472,27.17C36.268,29.3 34.172,31.438 32.069,31.737C22.764,33.062 21.617,31.929 16.923,30.475C12.024,28.957 9.406,30.043 4.002,30.751C1.734,31.048 0.032,29.153 0.333,26.993C0.731,24.136 1.48,20.893 1.447,17.745C1.416,14.7 0.699,12.641 0.255,9.01C-0.023,6.737 1.899,5.025 4,4.757C11.375,3.817 11.85,2.887 18.359,4.935C24.284,6.8 24.43,6.609 32,5.435C34.291,5.079 36.033,6.93 36.304,9.019C37.335,16.956 37.438,17.114 36.472,27.17Z" style="fill:rgb(238,238,238);fill-rule:nonzero;"/>
                </g>
                <g transform="matrix(0.896117,3.24196e-17,-3.24196e-17,0.896117,219.046,223.655)">
                    <path d="M34.714,28.471C32.816,28.724 32.897,27.667 30.988,27.913C29.213,28.142 28.806,29.205 27.082,29.323C25.496,29.432 25.337,28.561 23.425,28.332C21.617,28.116 21.429,28.984 19.819,28.473C18.189,27.956 17.773,26.761 16.182,26.323C14.63,25.896 14.402,26.759 12.545,26.767C10.793,26.774 10.505,25.84 8.975,26.061C7.431,26.283 7.016,27.376 5.425,27.628C3.852,27.877 3.688,26.947 1.991,27.03C1.058,27.076 0.443,27.381 0.32,27.44C0.304,28.415 0.679,29.063 0.751,29.187C0.828,29.165 1.193,29.062 1.75,29.035C3.465,28.95 3.692,29.88 5.301,29.63C6.93,29.378 7.327,28.286 8.921,28.062C10.491,27.842 10.799,28.775 12.546,28.767C14.406,28.758 14.631,27.896 16.183,28.323C17.773,28.761 18.189,29.956 19.82,30.474C21.429,30.984 21.611,30.119 23.448,30.335C25.326,30.555 25.511,31.427 27.117,31.321C28.767,31.212 29.152,30.156 30.896,29.93C32.752,29.69 32.694,30.665 34.538,30.38L34.775,30.328C35.539,29.608 36.096,28.719 36.331,27.891C36.235,27.95 35.61,28.351 34.714,28.471ZM36.622,25.574C36.686,24.9 36.75,24.225 36.814,23.551C36.647,23.652 36.026,24.043 35.071,24.135C33.072,24.329 33.178,23.198 31.184,23.491C29.332,23.763 28.913,24.892 27.116,25.045C25.507,25.182 25.336,24.304 23.425,24.076C21.617,23.86 21.429,24.728 19.819,24.217C18.189,23.7 17.773,22.505 16.182,22.067C14.63,21.64 14.4,22.503 12.546,22.511C10.832,22.518 10.576,21.584 9.156,21.807C7.742,22.028 7.343,23.119 5.879,23.371C4.426,23.621 4.324,22.695 2.693,22.779C1.735,22.829 0.972,23.192 0.938,23.207C0.775,24.206 0.773,24.191 0.608,25.202C0.689,25.165 1.39,24.821 2.353,24.773C4.015,24.69 4.134,25.619 5.649,25.369C7.176,25.118 7.592,24.026 9.067,23.805C10.541,23.584 10.809,24.517 12.545,24.511C14.399,24.504 14.63,23.64 16.182,24.067C17.772,24.504 18.188,25.7 19.819,26.217C21.428,26.728 21.61,25.863 23.447,26.079C25.335,26.301 25.502,27.186 27.156,27.062C28.863,26.935 29.283,25.85 31.086,25.611C33.034,25.352 32.963,26.333 34.911,26.121C35.841,26.018 36.46,25.664 36.622,25.574ZM37.03,21.139C37.04,20.984 37.091,20.187 37.108,19.195C36.878,19.327 36.295,19.651 35.356,19.74C33.286,19.936 33.36,18.902 31.306,19.206C29.429,19.484 28.987,20.574 27.168,20.754C25.527,20.915 25.319,20.044 23.425,19.818C21.617,19.602 21.429,20.47 19.819,19.959C18.189,19.442 17.773,18.247 16.182,17.809C14.63,17.382 14.445,18.234 12.549,18.253C10.905,18.27 10.658,17.342 9.298,17.578C7.948,17.812 7.623,18.895 6.251,19.156C4.897,19.413 4.698,18.51 3.127,18.608C2.987,18.617 2.294,18.66 1.425,19.028C1.417,19.184 1.382,19.953 1.262,20.973C1.393,20.917 2.132,20.601 2.995,20.553C4.587,20.463 4.731,21.373 6.118,21.123C7.518,20.869 7.884,19.785 9.254,19.559C10.633,19.332 10.87,20.262 12.547,20.253C14.409,20.243 14.63,19.382 16.182,19.809C17.772,20.246 18.188,21.442 19.819,21.959C21.428,22.47 21.61,21.605 23.447,21.821C25.316,22.04 25.526,22.917 27.206,22.748C28.96,22.571 29.407,21.485 31.278,21.207C33.293,20.907 33.241,21.84 35.277,21.645C36.209,21.557 36.801,21.257 37.03,21.139ZM37.092,16.879C37.087,16.724 37.063,15.932 36.998,14.935C36.744,15.088 36.199,15.393 35.293,15.48C33.214,15.678 33.287,14.638 31.219,14.949C29.368,15.227 28.962,16.317 27.152,16.497C25.516,16.659 25.321,15.789 23.425,15.562C21.617,15.346 21.429,16.214 19.819,15.703C18.189,15.186 17.773,13.991 16.182,13.553C14.63,13.126 14.469,13.973 12.548,13.997C10.889,14.019 10.597,13.078 9.198,13.305C7.782,13.536 7.587,14.651 6.187,14.919C4.809,15.183 4.455,14.212 2.831,14.303C1.987,14.35 1.352,14.684 1.209,14.758C1.364,15.787 1.41,16.645 1.419,16.809C2.254,16.429 2.944,16.385 3.081,16.376C4.651,16.275 4.939,17.198 6.285,16.933C7.648,16.665 7.921,15.569 9.283,15.33C10.647,15.091 10.914,16.022 12.549,15.998C14.486,15.969 14.629,15.126 16.182,15.553C17.772,15.99 18.188,17.186 19.819,17.703C21.428,18.214 21.61,17.349 23.447,17.565C25.312,17.784 25.533,18.661 27.228,18.491C29.001,18.314 29.413,17.227 31.282,16.949C33.339,16.643 33.287,17.584 35.361,17.388C36.269,17.3 36.826,17.022 37.092,16.879ZM36.791,12.63C36.773,12.475 36.709,11.936 36.533,10.689C36.288,10.847 35.777,11.148 34.907,11.233C32.879,11.431 32.955,10.382 30.955,10.697C29.206,10.973 28.839,12.064 27.091,12.242C25.503,12.403 25.327,11.531 23.425,11.304C21.617,11.088 21.429,11.956 19.819,11.445C18.189,10.928 17.773,9.733 16.182,9.295C14.63,8.868 14.414,9.728 12.545,9.739C10.813,9.749 10.513,8.815 8.99,9.039C7.432,9.269 7.199,10.356 5.676,10.612C4.189,10.861 3.76,9.934 2.065,10.021C1.199,10.066 0.676,10.331 0.455,10.452C0.479,10.612 0.593,11.358 0.791,12.449C0.993,12.342 1.545,12.065 2.401,12.021C4.062,11.934 4.499,12.856 5.922,12.608C7.376,12.353 7.579,11.268 9.077,11.039C10.547,10.815 10.841,11.748 12.546,11.739C14.409,11.729 14.63,10.868 16.182,11.295C17.772,11.732 18.188,12.928 19.819,13.445C21.428,13.956 21.61,13.091 23.447,13.307C25.319,13.527 25.514,14.404 27.18,14.235C28.919,14.057 29.297,12.972 31.098,12.697C33.136,12.385 33.084,13.332 35.129,13.135C35.994,13.051 36.515,12.787 36.791,12.63ZM36.165,8.404C35.906,7.465 35.439,6.884 35.347,6.77C35.277,6.795 34.936,6.917 34.435,6.968C32.531,7.163 32.617,6.119 30.732,6.434C29.066,6.713 28.693,7.805 27.03,7.983C25.504,8.146 25.329,7.275 23.425,7.047C21.617,6.831 21.429,7.699 19.819,7.188C18.189,6.671 17.773,5.476 16.182,5.038C14.63,4.611 14.407,5.473 12.545,5.482C10.793,5.49 10.498,4.557 8.906,4.778C7.279,5.005 6.93,6.096 5.317,6.348C3.729,6.595 3.366,5.672 1.661,5.753C0.874,6.38 0.372,7.233 0.261,8.14C0.492,8.017 0.983,7.797 1.78,7.757C3.496,7.671 3.897,8.6 5.448,8.351C7.038,8.096 7.312,7.008 8.923,6.779C10.492,6.557 10.792,7.49 12.543,7.481C14.41,7.471 14.629,6.61 16.181,7.037C17.771,7.474 18.187,8.67 19.818,9.187C21.427,9.698 21.609,8.833 23.446,9.049C25.321,9.269 25.507,10.147 27.105,9.977C28.759,9.801 29.109,8.713 30.805,8.436C32.73,8.121 32.675,9.074 34.618,8.879C35.423,8.798 35.918,8.545 36.165,8.404Z" style="fill:rgb(0,36,125);fill-rule:nonzero;"/>
                </g>
                <g transform="matrix(0.896117,3.24196e-17,-3.24196e-17,0.896117,219.046,223.655)">
                    <path d="M27.297,29.921C27.295,30.103 27.141,30.255 26.962,30.267C26.787,30.278 26.631,30.144 26.632,29.964C26.684,22.012 26.734,22.034 26.661,14.064C26.659,13.878 26.822,13.727 27.001,13.709C27.176,13.692 27.345,13.812 27.348,13.997C27.399,17.379 27.437,17.365 27.297,29.921Z" style="fill:rgb(193,105,79);fill-rule:nonzero;"/>
                </g>
                <g transform="matrix(0.896117,3.24196e-17,-3.24196e-17,0.896117,219.046,223.655)">
                    <path d="M24.656,21.708C24.683,21.644 24.883,21.377 25.3,21.363C25.763,21.348 26.056,21.627 26.247,21.685C26.695,21.822 27.479,21.83 26.961,21.803C26.948,23.043 26.939,23.027 26.927,24.264C26.712,24.283 25.293,24.407 24.225,24.361C24.213,24.249 24.127,23.438 23.97,22.977C23.938,22.882 23.614,21.933 24.009,21.726C24.342,21.554 24.702,21.731 24.656,21.708Z" style="fill:rgb(221,46,68);fill-rule:nonzero;"/>
                </g>
                <g transform="matrix(0.896117,3.24196e-17,-3.24196e-17,0.896117,219.046,223.655)">
                    <path d="M26.956,20.953L26.954,21.305C26.842,21.306 26.225,21.314 25.608,20.931C25.157,20.651 24.393,20.463 23.873,20.866C23.502,21.15 23.523,21.985 23.757,22.324C23.896,22.529 23.863,22.538 24.02,23.087C23.846,22.965 23.839,23.003 23.726,22.88C23.243,22.352 23.082,21.532 23.227,21.06C23.462,20.294 24.012,20.152 24.46,20.16C25.369,20.177 25.318,20.329 26.137,20.726C26.274,20.791 26.968,20.931 26.956,20.953Z" style="fill:rgb(255,204,77);fill-rule:nonzero;"/>
                </g>
                <g transform="matrix(0.896117,3.24196e-17,-3.24196e-17,0.896117,219.046,223.655)">
                    <path d="M23.894,22.814L24.304,22.818L24.187,23.44C24.319,23.346 24.578,23.058 24.618,23.215L24.696,23.861L24.166,23.732L24.479,24.194L24.069,24.372C24.051,24.309 23.913,23.836 23.873,23.578C23.833,23.32 23.887,22.875 23.894,22.814ZM24.755,23.177L25.153,23.131C25.128,23.075 24.811,22.38 25.318,22.381C25.885,22.383 25.525,23.048 25.496,23.1L25.926,23.078L25.982,23.641L25.577,23.428L25.575,23.762L26.02,24.154L24.853,24.312L25.15,23.816L25.134,23.465L24.854,23.784L24.755,23.177Z" style="fill:rgb(255,204,77);fill-rule:nonzero;"/>
                </g>
                <g transform="matrix(0.896117,3.24196e-17,-3.24196e-17,0.896117,219.046,223.655)">
                    <path d="M29.567,21.272C29.549,21.234 29.343,20.972 28.87,21.035C28.781,21.046 28.806,21.085 27.867,21.531C27.4,21.754 26.607,21.915 27.136,21.786C27.123,23.03 27.113,23.016 27.1,24.248C27.33,24.227 28.25,24.142 29.964,23.901C29.981,23.783 30.1,22.954 30.303,22.453C30.34,22.36 30.739,21.375 30.294,21.206C29.922,21.067 29.517,21.302 29.567,21.272Z" style="fill:rgb(221,46,68);fill-rule:nonzero;"/>
                </g>
                <g transform="matrix(0.896117,3.24196e-17,-3.24196e-17,0.896117,219.046,223.655)">
                    <path d="M27.153,20.934L27.151,21.286C27.884,21.155 28.449,20.731 28.547,20.657C29.065,20.268 29.893,19.984 30.462,20.333C30.873,20.581 30.841,21.415 30.563,21.782C30.4,21.997 30.436,22.009 30.244,22.567C30.442,22.43 30.447,22.468 30.578,22.335C31.171,21.737 31.334,20.927 31.188,20.489C31.025,19.996 30.625,19.578 29.804,19.695C28.927,19.82 28.011,20.539 27.994,20.55C27.826,20.658 27.138,20.906 27.153,20.934Z" style="fill:rgb(255,204,77);fill-rule:nonzero;"/>
                </g>
                <g transform="matrix(0.896117,3.24196e-17,-3.24196e-17,0.896117,219.046,223.655)">
                    <path d="M30.396,22.283L29.936,22.331L30.044,22.938C30.009,22.919 29.597,22.693 29.572,22.773L29.462,23.431L30.052,23.229L29.687,23.755L30.134,23.898L30.387,23.044C30.442,22.778 30.401,22.344 30.396,22.283ZM29.419,22.757L28.985,22.778C29.011,22.725 29.383,21.964 28.829,22.057C28.34,22.138 28.502,22.615 28.618,22.808L28.165,22.865L28.083,23.44L28.521,23.151L28.511,23.485L28.031,23.971L29.273,23.935L28.963,23.462L28.998,23.109L29.29,23.379L29.419,22.757ZM27.805,19.875C27.804,20.253 27.457,20.619 27.051,20.658C26.643,20.697 26.312,20.393 26.313,20.016C26.313,19.639 26.645,19.288 27.054,19.249C27.464,19.211 27.805,19.501 27.805,19.875ZM26.386,18.465L27.725,18.337L27.727,18.827L26.387,18.955L26.386,18.465Z" style="fill:rgb(255,204,77);fill-rule:nonzero;"/>
                </g>
                <g transform="matrix(0.896117,3.24196e-17,-3.24196e-17,0.896117,219.046,223.655)">
                    <path d="M26.732,18.103L27.368,18.043C27.385,20.416 27.356,22.204 27.351,22.566L26.718,22.627C26.722,22.265 26.744,20.477 26.732,18.103Z" style="fill:rgb(255,204,77);fill-rule:nonzero;"/>
                </g>
                <g transform="matrix(0.896117,3.24196e-17,-3.24196e-17,0.896117,219.046,223.655)">
                    <path d="M26.513,22.449L27.506,22.355L27.218,23.03L27.864,22.647L27.845,23.507L27.232,23.38L27.748,24.083L26.389,24.208L26.812,23.42L26.208,23.605L26.217,22.842L26.777,23.051L26.513,22.449Z" style="fill:rgb(255,204,77);fill-rule:nonzero;"/>
                </g>
                <g transform="matrix(0.896117,3.24196e-17,-3.24196e-17,0.896117,219.046,223.655)">
                    <path d="M27.015,23.854C27.255,23.832 28.842,23.637 30.108,23.902C30.114,23.968 30.154,24.436 30.014,24.72C29.935,24.885 28.416,24.982 26.984,24.88L27.015,23.854Z" style="fill:rgb(255,204,77);fill-rule:nonzero;"/>
                </g>
                <g transform="matrix(0.896117,3.24196e-17,-3.24196e-17,0.896117,219.046,223.655)">
                    <path d="M27.052,23.851C26.137,23.939 25.231,24.035 24.124,24.376C24.117,24.438 24.064,24.885 24.181,25.144C24.239,25.271 25.336,25.286 27.062,24.873L27.052,23.851Z" style="fill:rgb(255,204,77);fill-rule:nonzero;"/>
                </g>
                <g transform="matrix(0.896117,3.24196e-17,-3.24196e-17,0.896117,219.046,223.655)">
                    <path d="M30.399,25.209C30.385,25.576 28.847,26.15 26.991,26.286C24.94,26.437 23.772,25.961 23.772,25.635C23.772,25.148 26.738,24.9 27.003,24.878C27.275,24.856 30.422,24.593 30.399,25.209Z" style="fill:rgb(238,238,238);fill-rule:nonzero;"/>
                </g>
                <g transform="matrix(0.896117,3.24196e-17,-3.24196e-17,0.896117,219.046,223.655)">
                    <path d="M29.264,25.613C29.26,25.795 28.299,26.133 26.992,26.23C25.6,26.332 24.807,26.096 24.807,25.929C24.807,25.627 26.819,25.469 26.998,25.455C27.179,25.441 29.273,25.276 29.264,25.613Z" style="fill:rgb(153,170,181);fill-rule:nonzero;"/>
                </g>
                <g transform="matrix(0.896117,3.24196e-17,-3.24196e-17,0.896117,219.046,223.655)">
                    <path d="M25.649,8.19L26.297,8.95C26.333,8.926 26.751,8.639 26.77,8.693C26.79,8.749 26.741,9.31 26.737,9.363L27.055,9.409L26.806,10.239C26.923,10.164 27.218,9.928 27.184,10.063L27.078,10.84L27.242,10.921L27.236,11.687C27.284,11.759 27.407,11.971 27.405,11.884L27.545,10.868L27.774,11.017L27.84,10.518L28,9.652L28.21,9.938L28.593,8.487L28.827,8.945L29.309,8.3L29.647,8.227L30.14,8.009L30.253,8.286L30.713,8.211C30.63,8.296 30.461,8.391 30.506,8.501C30.54,8.59 30.928,8.721 30.903,8.733C30.838,8.766 29.899,8.825 29.811,8.83L29.252,9.49L29.622,9.552L29.086,9.95L29.561,10.015L29.147,10.394L29.514,10.299L28.939,10.819L29.542,10.849L28.753,11.358L28.948,11.528L28.155,12.088L28.059,12.415L28.81,11.744L29.718,11.039C29.947,10.869 30.133,10.649 30.351,10.465C30.457,10.375 30.624,10.28 30.755,10.224C31.271,10 32.135,10.008 32.257,10.009L31.368,10.623L31.578,10.868L30.988,11.138L31.096,11.457L30.096,11.752L30.138,12.1L29.28,12.367L29.189,12.715L28.605,12.993L28.888,13.17C28.777,13.22 28.668,13.273 28.559,13.327C28.519,13.347 28.404,13.399 28.449,13.406L29.195,13.382C29.195,13.382 29.052,13.526 28.983,13.6C28.958,13.627 28.889,13.7 28.926,13.695L29.849,13.602L29.492,13.89L30.359,13.801L29.98,14.133C30.037,14.129 30.698,14.086 30.7,14.143C30.708,14.307 30.304,14.663 30.411,14.54L31.046,14.503C30.955,14.609 30.68,14.829 30.817,14.853L31.738,15.246L30.745,15.277C30.674,15.379 30.54,15.665 30.49,15.55L30.216,15.178L29.982,15.449L29.706,15.017C29.619,15.075 29.394,15.256 29.425,15.155C29.452,15.072 28.715,14.476 29.065,14.773L28.984,14.962L28.734,14.466L28.526,14.768L28.109,14.311L27.964,14.543L27.406,14.157L27.411,14.509C27.47,14.66 27.961,14.853 27.818,14.776C27.725,14.823 27.564,14.857 27.565,14.961C27.566,15.025 28.043,15.306 28.087,15.332L27.854,15.517L28.421,15.88C28.295,15.92 28.17,15.966 28.047,16.014C28.017,16.026 27.942,16.059 27.971,16.073L28.301,16.385L28.093,16.881L27.655,16.324L27.42,16.409L27.369,15.905L27.137,15.909L27.253,15.329L27.002,15.393L26.975,14.925L26.865,14.466L26.656,14.171C26.601,14.265 26.496,14.372 26.533,14.474L26.725,14.889C26.648,14.935 26.484,15.008 26.536,15.081L26.814,15.546L26.378,15.681C26.493,15.672 26.674,16.032 26.611,15.936L26.34,16.056L26.219,16.359C26.219,16.359 26.083,16.223 26.011,16.159C25.986,16.137 25.917,16.072 25.928,16.104C25.95,16.162 25.765,16.673 25.747,16.721L25.44,16.402L25.737,15.233L25.371,15.152L25.113,15.689C25.046,15.612 24.907,15.401 24.874,15.497L24.637,15.95L24.404,15.575C24.424,15.637 24.136,16.197 24.109,16.25C24.09,16.209 23.835,15.685 23.835,15.761L23.64,16.507C23.619,16.469 23.33,15.949 23.346,16.043C23.368,16.145 23.154,16.523 23.131,16.563L23.071,16.064L22.641,16.246L23.13,15.621L23.953,14.947L24.58,14.502L24.166,14.432L24.832,14.228C24.939,14.215 24.458,14.017 24.559,14.053L25.671,13.693C25.628,13.674 25.165,13.463 25.111,13.518C25.035,13.595 24.514,13.689 24.46,13.698L24.382,13.247L23.776,13.466C23.747,13.342 23.699,12.981 23.658,13.102C23.636,13.17 23.209,13.34 23.168,13.356L22.935,13.067L22.66,13.451L22.346,13.155L21.78,13.206L22.053,12.858L21.74,12.609L22.386,12.341L22.523,12.094L23.405,12.292L23.209,12.012C23.221,12.03 23.647,12.196 24.109,12.296L24.365,12.267L25.229,12.575L24.521,12.015L23.914,11.871L24.306,11.579L23.385,11.174L23.582,10.883C23.483,10.847 23.003,10.673 22.366,10.38L23.112,10.315L22.602,9.368L23.659,10.147L24.129,10.026L24.365,10.642L24.795,10.9L24.872,11.35L25.089,11.248L25.286,11.77L25.545,11.681L25.685,12.047L26.068,12.044L25.961,11.56L26.119,11.315L25.678,10.988L26.056,10.789L25.498,10.37L25.971,10.285L25.3,9.672L25.831,9.667L25.299,9.085L25.73,8.968L25.649,8.19Z" style="fill:rgb(119,178,85);fill-rule:nonzero;"/>
                </g>
                <g transform="matrix(0.896117,3.24196e-17,-3.24196e-17,0.896117,219.046,223.655)">
                    <path d="M19,18.145C19,13.81 19,9.476 19,5.141C11.806,2.837 11.647,3.783 4,4.757L3.396,4.874C3.394,5.625 3.445,6.487 3.454,6.627C1.962,6.797 0.936,6.798 0.716,6.798L0.602,7.003C0.528,7.148 0.124,7.941 0.255,9.01C0.715,12.775 1.468,14.811 1.448,18.098C5.75,18.142 7.207,17.191 11.217,16.774C14.219,16.462 16.608,17.359 19,18.145Z" style="fill:rgb(0,36,125);fill-rule:nonzero;"/>
                </g>
                <g transform="matrix(0.896117,3.24196e-17,-3.24196e-17,0.896117,219.046,223.655)">
                    <path d="M19,5.141C18.814,5.082 17.267,4.586 16.669,4.415C14.47,5.18 12.337,6.732 11.992,6.983C11.992,5.556 12,3.764 12,3.747C10.226,3.803 7.398,4.248 7,4.311C7,5.66 7.04,6.66 7.049,6.864C6.443,6.539 4.899,5.729 3.396,4.874C2.46,5.119 1.851,5.59 1.734,5.68C3.304,6.673 5.811,7.983 6.572,8.391C5.518,8.57 5.041,8.642 4.907,8.662C4.589,8.491 2.419,7.319 1.001,6.39L0.716,6.798C2.042,7.675 3.787,8.633 4.06,8.783C2.011,9.051 0.495,9.01 0.255,9.01C0.445,10.564 1.009,13.615 1.083,14.014C1.255,14.014 2.867,14.064 4.836,13.777C2.63,16.304 1.554,16.797 1.421,16.878L1.448,18.098C1.461,18.099 2.915,18.158 4.647,17.915C5.849,16.795 7.423,15.017 7.644,14.771C7.656,14.977 7.718,16.027 7.714,17.342C8.056,17.271 10.371,16.793 12.032,16.72C12.032,15.012 12.021,13.71 12.018,13.449C13.071,14.174 14.363,15.105 16.668,17.399C17.267,17.575 18.814,18.084 19,18.145L19,16.116C18.776,15.886 16.958,14.015 16.185,13.261C16.958,13.474 18.775,14.071 19,14.145L19,9.145C18.776,9.071 16.958,8.474 16.186,8.261C16.958,7.933 18.773,7.258 19,7.174C19,6.496 19,5.819 19,5.141Z" style="fill:rgb(238,238,238);fill-rule:nonzero;"/>
                </g>
                <g transform="matrix(0.896117,3.24196e-17,-3.24196e-17,0.896117,219.046,223.655)">
                    <path d="M11,3.801C10.759,3.819 9.761,3.893 8,4.157C8,4.263 7.977,6.292 8.127,9.139C4.901,9.668 3.623,10.017 0.388,10.012C0.423,10.253 0.574,11.299 0.892,13.007C4.147,13.009 5.214,12.678 8.315,12.137C8.334,12.407 8.546,14.753 8.54,17.175C10.003,16.889 10.908,16.803 11.115,16.783C11.117,14.596 11.052,12.292 11.043,11.77C14.146,11.518 15.812,12.097 19,13.145L19,10.145C15.753,9.077 14.158,8.522 11.003,8.771C10.975,5.95 11,3.917 11,3.801Z" style="fill:rgb(207,27,43);fill-rule:nonzero;"/>
                </g>
                <g transform="matrix(0.896117,3.24196e-17,-3.24196e-17,0.896117,219.046,223.655)">
                    <path d="M19,5.141L17.539,4.676C14.538,5.737 12.397,7.298 11.992,7.593L11.992,7.714C12.892,7.685 13.445,7.738 13.571,7.749C15.491,6.588 18.023,5.706 19,5.343L19,5.141ZM1.734,5.68C1.316,5.999 1.052,6.326 1.001,6.39C2.419,7.319 4.589,8.491 4.907,8.662C5.041,8.642 5.518,8.57 6.571,8.391C5.941,8.053 3.337,6.694 1.734,5.68ZM7.047,13.391C6.063,14.525 4.293,16.647 2.288,18.105C2.415,18.103 3.069,18.093 3.882,18.009C5.366,16.716 7.229,14.568 7.602,14.148L7.529,13.299L7.047,13.391ZM19,17.947L19,16.727C18.709,16.428 16.389,14.04 15.313,13.04C14.381,12.827 13.711,12.763 13.57,12.749C15.493,14.279 18.004,16.922 19,17.947Z" style="fill:rgb(207,27,43);fill-rule:nonzero;"/>
                </g>
            </g>
        </g>
    </g>
</svg>
