<?xml version="1.0" encoding="UTF-8" standalone="no"?>
<!DOCTYPE svg PUBLIC "-//W3C//DTD SVG 1.1//EN" "http://www.w3.org/Graphics/SVG/1.1/DTD/svg11.dtd">
<svg width="100%" height="100%" viewBox="0 0 512 512" version="1.1" xmlns="http://www.w3.org/2000/svg" xmlns:xlink="http://www.w3.org/1999/xlink" xml:space="preserve" xmlns:serif="http://www.serif.com/" style="fill-rule:evenodd;clip-rule:evenodd;stroke-linejoin:round;stroke-miterlimit:2;">
    <g>
        <g>
            <path d="M461.247,357.894C458.974,381.556 435.684,405.308 412.318,408.636C308.939,423.36 296.194,410.772 244.032,394.61C189.598,377.745 160.51,389.816 100.472,397.677C75.267,400.977 56.353,379.924 59.699,355.921C64.445,321.88 73.245,285.12 71.958,247.429C70.917,216.956 63.537,194.612 58.828,156.107C55.74,130.85 77.104,111.835 100.444,108.861C182.392,98.415 187.662,88.078 259.985,110.838C325.827,131.557 327.444,129.432 411.553,116.384C437.012,112.436 456.362,133 459.378,156.216C470.841,244.445 471.982,246.128 461.247,357.894Z" style="fill:rgb(247,224,23);fill-rule:nonzero;"/>
            <path d="M461.247,357.894C412.245,351.801 351.662,351.117 316.188,339.025C281.141,327.079 239.057,295.984 203.573,285.748C163.005,274.046 144.035,281.945 71.792,267.933C72.7,249.109 71.321,229.492 68.032,211.709C159.862,230.63 178.363,214.33 234.639,242.715C272.325,261.723 300.334,281.85 335.758,288.541C373.729,295.714 429.167,293.562 466.719,300.578C466.412,304.116 461.687,353.309 461.247,357.894Z" style="fill:rgb(20,20,20);fill-rule:nonzero;"/>
            <path d="M466.719,300.578C395.896,287.346 354.448,306.398 281.238,267.738C245.758,249.001 221.65,231.648 181.289,225.506C131.838,217.981 131.136,224.711 68.032,211.709C67.212,207.275 60.94,173.373 58.828,156.107C153.193,176.095 168.757,151.742 250.172,195.226C287.849,215.348 307.22,229.962 352,235.485C385.049,239.56 434.083,238.845 468.171,245.005C468.994,274.318 467.103,296.147 466.719,300.578Z" style="fill:rgb(238,238,238);fill-rule:nonzero;"/>
            <g>
                <path d="M295.95,232.194C301.52,242.236 303.716,252.582 303.716,260.484C303.716,285.31 284.649,304.817 254.631,295.065C231.802,287.649 205.533,263.772 205.533,234.448C205.533,232.307 205.533,219.792 213.3,208.84C198.289,222.853 198.289,242.662 198.289,245.857C198.289,280.527 230.482,306.253 254.631,314.098C290.086,325.617 310.971,301.307 310.971,273.607C310.971,261.231 306.559,246.286 295.95,232.194ZM166.473,216.317C172.556,216.964 172.921,220.488 172.786,223.943C174.629,224.118 176.36,225.501 177.4,227.032C177.834,227.669 181.298,232.745 184.41,233.655C190.685,235.483 190.446,242.696 190.444,244.171C190.416,253.122 190.389,262.073 190.361,271.023C189.708,273.775 190.946,276.854 191.135,277.325C194.444,285.608 182.158,286.506 181.067,286.586C180.543,286.624 168.824,288.195 172.343,278.986L175.413,272.043C175.64,260.07 175.689,250.888 175.699,249.048C175.413,248.609 173.784,246.107 171.15,244.339C168.439,242.532 162.992,235.344 162.164,228.792C161.055,220.131 157.677,215.396 166.473,216.317ZM344.937,242.714C341.161,243.738 337.229,245.196 337.653,251.499C336.675,251.716 333.924,253.004 332.343,255.24C328.981,259.99 329.999,261.149 325.693,262.424C319.863,264.149 320.304,271.235 320.304,272.953L320.304,299.841C319.869,302.54 318.557,305.517 318.349,305.99C316.517,310.207 318.737,315.219 328.327,315.348C338.311,315.48 340.884,310.744 339.119,306.699L336.621,300.135C336.632,292.431 336.643,284.727 336.654,277.023C337.771,273.833 340.48,271.889 340.93,271.565C344.221,269.229 350.405,260.683 351.263,253.961C351.358,253.228 355.098,239.966 344.937,242.714Z" style="fill:rgb(207,27,38);fill-rule:nonzero;"/>
                <path d="M316.382,344.983C316.712,344.361 319.989,338.174 316.071,336.19C312.423,334.347 305.249,334.269 304.294,334.259C305.966,332.478 309.796,326.488 304.583,322.528C298.71,318.066 291.479,326.412 288.595,327.67C282.165,330.496 272.402,330.557 270.974,330.566C264.525,330.614 256.87,328.962 255.664,328.701C254.314,328.129 245.922,324.567 239.298,320.453C237.755,319.496 225.179,311.692 220.633,307.536C218.197,305.31 210.557,293.394 204.644,296.243C200.081,298.433 202.351,304.547 204.955,308.056C204.046,307.809 197.446,306.014 193.178,307.728C189.253,309.301 192.562,315.862 192.878,316.488C185.219,317.669 186.712,322.428 187.205,323.305C187.682,322.664 191.539,320.188 198.433,320.327C205.692,320.474 213.065,330.366 217.288,331.103C222.413,331.999 223.297,327.707 223.288,326.524C231.869,335.534 249.829,343.132 255.675,345.038C261.321,346.879 277.801,350.731 287.006,345.662C286.833,347.371 287.929,351.713 292.483,352.923C297.535,354.265 303.004,346.811 311.082,348.092C320.366,349.563 322.734,352.967 322.193,352.189C325.02,347.21 317.099,345.168 316.382,344.983ZM292.383,222.741C287.92,220.337 277.151,208.044 269.263,205.463C260.623,202.636 256.155,207.547 255.653,208.242C254.064,205.502 248.281,198.548 241.098,196.433C232.68,193.955 221.263,200.478 217.011,200.9C212.418,201.366 206.104,200.033 204.022,199.286C205.176,204.673 210.981,208.026 213.3,208.84C214.095,213.128 219.896,214.397 220.622,214.556C221.462,219.637 230.046,218.594 230.921,218.487C230.854,219.043 230.338,223.344 235.165,224.049C239.95,224.759 247.276,219.482 248.187,218.826C246.974,219.692 245.941,221.325 246.142,222.801C246.233,223.493 246.685,224.153 247.216,224.58C248.086,225.28 251.274,226.4 250.198,226.106C246.888,228.363 252.387,233.741 252.875,234.219L255.653,233.009L257.486,235.719C258.001,235.522 263.004,233.609 259.675,229.183C260.891,229.641 263.306,229.696 263.497,228.41C263.885,225.689 259.341,220.484 261.33,223.084C262.206,224.285 269.475,234.251 274.296,236.395C275.279,236.832 276.639,237.242 277.601,236.497C278.48,235.815 278.386,232.183 278.518,233.288C279.203,233.76 287.909,239.757 288.817,234.755C289.415,234.908 295.289,236.416 296.117,232.236C298.422,232.338 304.162,231.199 305.394,225.779C294.87,223.708 294.801,224.046 292.383,222.741ZM245.12,180.72C245.12,180.159 247.494,178.991 254.642,181.313C260.904,183.348 264.163,186.006 264.163,186.864C264.163,189.24 255.368,186.382 254.642,186.146C248.126,184.043 245.12,181.516 245.12,180.72Z" style="fill:rgb(207,27,38);fill-rule:nonzero;"/>
                <path d="M265.796,192.236C265.647,191.133 263.25,188.746 264.219,189.293C263.439,189.237 259.269,188.939 254.631,187.432C248.134,185.321 238.335,179.275 245.109,183.127C244.285,183.079 243.719,184.273 243.598,185.09C243.3,187.099 241.41,192.36 241.187,192.982L245.12,189.853L248.442,195.195L251.764,191.939L254.631,197.176L257.575,193.826L260.941,199.245L264.274,196.034L268.218,201.643C267.999,200.898 266.108,194.463 265.796,192.236ZM255.653,163.075L255.653,174.853L263.752,180.995L260.63,175.131L266.985,174.194L255.653,163.075ZM252.209,196.393L257.197,198.013L257.197,210.702L252.209,209.082L252.209,196.393ZM261.275,289.088C261.689,288.65 264.541,285.643 263.863,282.009C263.52,280.172 259.472,269.707 259.119,268.245C258.208,264.51 261.732,262.072 261.319,262.358L258.908,261.108C259.313,260.874 262.152,259.231 261.319,255.78C260.725,253.321 259.937,250.912 259.34,248.454C258.981,246.973 258.635,245.482 258.453,243.97C257.997,240.185 261.754,236.561 261.319,236.98L257.019,238.055L254.675,234.802L252.397,236.554L248.176,232.723C248.568,233.354 251.499,238.067 251.042,241.564C250.934,242.386 250.792,242.267 248.176,251.523C247.107,255.261 252.982,261.327 250.598,258.411L248.176,258.101C248.54,258.589 251.277,262.253 250.364,265.403C250.003,266.666 245.959,274.465 245.609,276.114C244.933,279.308 247.808,284.217 248.176,284.845L241.687,281.507C244.857,288.925 248.842,291.817 254.675,293.713C258.717,295.026 263.882,296.462 267.73,289.861L261.275,289.088Z" style="fill:rgb(207,27,38);fill-rule:nonzero;"/>
            </g>
        </g>
    </g>
</svg>
