<?xml version="1.0" encoding="UTF-8" standalone="no"?>
<!DOCTYPE svg PUBLIC "-//W3C//DTD SVG 1.1//EN" "http://www.w3.org/Graphics/SVG/1.1/DTD/svg11.dtd">
<svg width="100%" height="100%" viewBox="0 0 512 512" version="1.1" xmlns="http://www.w3.org/2000/svg" xmlns:xlink="http://www.w3.org/1999/xlink" xml:space="preserve" xmlns:serif="http://www.serif.com/" style="fill-rule:evenodd;clip-rule:evenodd;stroke-linejoin:round;stroke-miterlimit:2;">
    <g>
        <g>
            <path d="M411.553,116.384C327.618,129.405 325.974,131.604 259.985,110.838C187.662,88.078 182.392,98.415 100.444,108.861C77.104,111.835 55.74,130.85 58.828,156.107C60.94,173.373 67.212,207.275 68.032,211.709C142.308,211.817 173.671,185.906 234.216,202.904C274.115,214.105 299.658,227.633 337.284,226.353C374.14,225.1 429.179,212.891 466.345,211.672C465.053,195.403 460.635,165.894 459.378,156.216C456.362,133 437.012,112.436 411.553,116.384Z" style="fill:rgb(238,238,238);fill-rule:nonzero;"/>
            <path d="M59.699,355.921C56.353,379.924 75.267,400.977 100.472,397.677C182.335,386.958 187.634,376.33 259.985,399.708C297.334,411.775 314.968,422.501 412.318,408.636C435.684,405.308 458.974,381.556 461.247,357.894C461.687,353.309 466.412,304.116 466.719,300.578C375.67,303.544 360.764,332.325 265.897,301.658C235.288,291.763 212.437,282.225 168.658,287.845C129.782,292.836 116.494,300.484 68.5,300.472C67.36,308.302 61.51,342.933 59.699,355.921Z" style="fill:rgb(214,38,18);fill-rule:nonzero;"/>
            <path d="M68.032,211.709C142.308,211.817 173.671,185.906 234.216,202.904C274.115,214.105 299.658,227.633 337.284,226.353C374.14,225.1 429.179,212.891 466.345,211.672C467.115,221.374 470.196,260.434 466.719,300.578C375.67,303.544 360.764,332.325 265.897,301.658C235.288,291.763 212.437,282.225 168.658,287.845C129.782,292.836 116.494,300.484 68.5,300.472C71.847,277.477 74.564,247.023 68.032,211.709Z" style="fill:rgb(0,150,110);fill-rule:nonzero;"/>
        </g>
    </g>
</svg>
