<?xml version="1.0" encoding="UTF-8" standalone="no"?>
<!DOCTYPE svg PUBLIC "-//W3C//DTD SVG 1.1//EN" "http://www.w3.org/Graphics/SVG/1.1/DTD/svg11.dtd">
<svg width="100%" height="100%" viewBox="0 0 512 512" version="1.1" xmlns="http://www.w3.org/2000/svg" xmlns:xlink="http://www.w3.org/1999/xlink" xml:space="preserve" xmlns:serif="http://www.serif.com/" style="fill-rule:evenodd;clip-rule:evenodd;stroke-linejoin:round;stroke-miterlimit:2;">
    <g>
        <g>
            <path d="M273.796,270.257C277.462,282.681 281.129,295.105 284.795,307.53C279.762,302.387 258.295,279.774 255.997,277.354C238.367,284.41 229.444,288.799 227.188,289.909C228.061,287.427 232.356,275.211 238.187,258.913C230.449,251.088 224.961,245.915 223.788,244.809C169.102,233.012 137.878,257.754 72.09,257.094C71.886,289.997 63.897,325.81 59.699,355.921C56.353,379.924 75.267,400.977 100.472,397.677C182.335,386.958 187.634,376.33 259.985,399.708C297.334,411.775 314.968,422.501 412.318,408.636C435.684,405.308 458.974,381.556 461.247,357.894C467.678,290.936 468.576,281.156 468.374,256.129C400.708,258.308 350.6,281.837 288.206,264.182L273.796,270.257Z" style="fill:rgb(0,158,73);fill-rule:nonzero;"/>
            <path d="M411.553,116.384C327.618,129.405 325.974,131.604 259.985,110.838C187.662,88.078 182.392,98.415 100.444,108.861C77.104,111.835 55.74,130.85 58.828,156.107C63.964,198.102 72.314,220.622 72.09,257.094C137.819,257.754 169.101,233.012 223.788,244.809C216.217,237.672 210.571,232.911 209.389,231.914C224.246,233.644 242.205,239.139 244.998,239.993C248.664,229.869 252.331,219.745 255.997,209.621C259.664,222.117 263.33,234.613 266.996,247.108C269.812,248.034 289.649,254.559 302.605,257.328L288.206,264.182C350.599,281.837 400.675,258.309 468.374,256.129C467.996,209.546 461.925,175.818 459.378,156.216C456.362,133 437.012,112.436 411.553,116.384Z" style="fill:rgb(239,43,45);fill-rule:nonzero;"/>
            <path d="M227.188,289.909C229.444,288.799 238.367,284.41 255.997,277.354C273.31,295.586 273.085,295.56 284.806,307.533C281.136,295.108 277.466,282.682 273.796,270.257L288.206,264.182L302.605,257.328C289.649,254.559 269.812,248.034 266.996,247.108C263.33,234.613 259.664,222.117 255.997,209.621C252.331,219.745 248.664,229.869 244.998,239.993C242.205,239.139 224.246,233.644 209.389,231.914C210.571,232.911 216.217,237.672 223.788,244.809C224.962,245.915 230.454,251.089 238.198,258.916C237.311,261.393 232.36,275.213 227.188,289.909Z" style="fill:rgb(252,209,22);fill-rule:nonzero;"/>
        </g>
    </g>
</svg>
