<?xml version="1.0" encoding="UTF-8" standalone="no"?>
<!DOCTYPE svg PUBLIC "-//W3C//DTD SVG 1.1//EN" "http://www.w3.org/Graphics/SVG/1.1/DTD/svg11.dtd">
<svg width="100%" height="100%" viewBox="0 0 512 512" version="1.1" xmlns="http://www.w3.org/2000/svg" xmlns:xlink="http://www.w3.org/1999/xlink" xml:space="preserve" xmlns:serif="http://www.serif.com/" style="fill-rule:evenodd;clip-rule:evenodd;stroke-linejoin:round;stroke-miterlimit:2;">
    <g>
        <g>
            <path d="M461.247,357.894C458.974,381.556 435.684,405.308 412.318,408.636C308.939,423.36 296.194,410.772 244.032,394.61C189.598,377.745 160.51,389.816 100.472,397.677C75.267,400.977 56.353,379.924 59.699,355.921C64.124,324.182 72.441,288.14 72.083,253.166C71.737,219.335 63.762,196.456 58.828,156.107C55.74,130.85 77.104,111.835 100.444,108.861C182.392,98.415 187.662,88.078 259.985,110.838C325.827,131.557 327.444,129.432 411.553,116.384C437.012,112.436 456.362,133 459.378,156.216C470.836,244.4 471.98,246.152 461.247,357.894Z" style="fill:rgb(238,238,238);fill-rule:nonzero;"/>
            <path d="M208.055,187.433C217.183,180.238 233.277,173.313 256.108,180.768C282.024,189.231 300.67,209.502 303.783,212.887C344.924,191.56 394.059,142.826 424.155,116.645C423.159,116.49 417.041,115.533 411.553,116.384C327.618,129.405 325.974,131.604 259.985,110.838C187.662,88.078 182.392,98.415 100.444,108.861C99.371,108.998 94.337,109.639 87.404,112.454C114.855,129.534 173.189,158.47 208.055,187.433Z" style="fill:rgb(206,17,38);fill-rule:nonzero;"/>
            <path d="M323.082,242.759C328.338,256.112 328.338,267.712 328.338,269.925C328.338,285.172 323.216,296.508 322.249,298.649C349.416,320.232 398.063,344.265 453.743,378.981C460.254,368.226 461.076,359.677 461.247,357.894C471.963,246.325 470.85,244.51 459.378,156.216C459.154,154.495 458.009,145.678 451.857,135.868C439.636,146.086 366.718,213.834 323.082,242.759ZM190.011,269.238C189.141,267.116 184.65,256.158 184.654,241.072C184.657,227.114 188.532,216.362 189.268,214.319C136.286,176.228 101.44,162.85 61.95,135.843C57.564,145.769 58.629,154.478 58.828,156.107C63.749,196.349 71.735,219.194 72.083,253.166C72.44,288.108 64.155,323.962 59.699,355.921C59.468,357.578 58.223,366.508 62.646,376.619C125.216,334.663 152.22,299.245 190.011,269.238Z" style="fill:rgb(30,181,58);fill-rule:nonzero;"/>
            <path d="M302.183,322.327C282.486,334.404 259.279,326.26 256.119,325.228C230.76,316.946 212.812,299.712 209.666,296.691C177.065,316.459 142.957,352.785 88.087,397.138C94.733,398.429 99.489,397.806 100.472,397.677C182.335,386.958 187.634,376.33 259.985,399.708C297.334,411.775 314.968,422.501 412.318,408.636C413.328,408.492 417.76,407.861 424.522,404.934C376.946,374.319 341.075,358.93 302.183,322.327Z" style="fill:rgb(206,17,38);fill-rule:nonzero;"/>
            <path d="M267.963,227.515L271.485,222.577L273.885,219.185L262.041,215.308L258.519,208.058L256.119,203.105L253.708,206.488L250.198,211.45L238.343,207.857L240.754,212.721L244.265,219.859L240.754,224.91L238.343,228.379L250.198,231.973L253.708,239.188L256.119,244.139L258.519,240.758L262.041,235.83L273.885,239.708L271.485,234.765L267.963,227.515Z" style="fill:rgb(30,181,58);fill-rule:nonzero;"/>
            <path d="M269.074,220.401L260.441,217.558L256.119,208.661L251.797,214.739L243.154,212.045L247.476,220.848L243.154,227.012L251.797,229.706L256.119,238.583L260.441,232.524L269.074,235.368L264.752,226.458L269.074,220.401Z" style="fill:rgb(206,17,38);fill-rule:nonzero;"/>
            <path d="M299.639,287.192L303.161,281.869L305.572,278.191L293.717,275.47L290.206,268.441L287.795,263.599L285.395,267.073L281.873,272.11L270.029,268.358L272.429,273.305L275.951,280.535L272.429,285.494L270.029,288.88L281.873,292.633L285.395,299.773L287.795,304.643L290.206,301.141L293.717,295.992L305.572,298.714L303.161,294.057L299.639,287.192Z" style="fill:rgb(30,181,58);fill-rule:nonzero;"/>
            <path d="M287.795,269.155L283.473,275.37L274.84,272.692L279.151,281.54L274.84,287.658L283.473,290.337L287.795,299.077L292.117,292.792L300.761,294.924L296.439,286.427L300.761,279.958L292.117,277.826L287.795,269.155Z" style="fill:rgb(206,17,38);fill-rule:nonzero;"/>
            <path d="M239.798,275.053L236.287,267.968L239.798,262.864L242.209,259.407L230.366,256.136L226.844,249.195L224.433,244.483L222.033,248.14L218.511,253.544C212.357,252.419 207.619,251.972 206.667,251.883L209.066,256.299L212.589,262.849L209.066,268.488L206.667,272.405C207.619,272.495 212.357,272.941 218.511,274.066L222.033,280.84L224.433,285.527L226.844,281.895L230.366,276.658L242.209,279.929L239.798,275.053Z" style="fill:rgb(30,181,58);fill-rule:nonzero;"/>
            <path d="M237.398,260.79L228.755,258.516L224.433,250.038L220.122,256.625L211.478,255.208L215.8,263.34L211.478,270.174L220.122,271.592L224.433,279.961L228.755,273.483L237.398,275.756L233.077,267.1L237.398,260.79Z" style="fill:rgb(206,17,38);fill-rule:nonzero;"/>
        </g>
    </g>
</svg>
