<?xml version="1.0" encoding="UTF-8" standalone="no"?>
<!DOCTYPE svg PUBLIC "-//W3C//DTD SVG 1.1//EN" "http://www.w3.org/Graphics/SVG/1.1/DTD/svg11.dtd">
<svg width="100%" height="100%" viewBox="0 0 512 512" version="1.1" xmlns="http://www.w3.org/2000/svg" xmlns:xlink="http://www.w3.org/1999/xlink" xml:space="preserve" xmlns:serif="http://www.serif.com/" style="fill-rule:evenodd;clip-rule:evenodd;stroke-linejoin:round;stroke-miterlimit:2;">
    <g transform="matrix(1.11593,-4.03717e-17,4.03717e-17,1.11593,-13.9687,-19.1113)">
        <g transform="matrix(11.1111,-2.35563e-31,0,11.1111,-2371.15,-2417.74)">
            <g>
                <g transform="matrix(0.896117,3.24196e-17,-3.24196e-17,0.896117,219.046,223.655)">
                    <path d="M36.472,27.17C36.268,29.3 34.172,31.438 32.069,31.737C22.764,33.062 21.617,31.929 16.923,30.475C12.024,28.957 9.406,30.043 4.002,30.751C1.734,31.048 0.032,29.153 0.333,26.993C0.731,24.136 1.48,20.893 1.447,17.745C1.416,14.7 0.699,12.641 0.255,9.01C-0.023,6.737 1.899,5.025 4,4.757C11.375,3.817 11.85,2.887 18.359,4.935C24.284,6.8 24.43,6.609 32,5.435C34.291,5.079 36.033,6.93 36.304,9.019C37.335,16.956 37.438,17.114 36.472,27.17Z" style="fill:rgb(3,46,161);fill-rule:nonzero;"/>
                </g>
                <g transform="matrix(0.896117,3.24196e-17,-3.24196e-17,0.896117,219.046,223.655)">
                    <path d="M0.474,10.585C6.288,10.593 9.943,8.822 14.04,9.376C16.931,9.767 20.485,11.488 23.399,11.838C26.871,12.255 32.546,10.723 36.52,10.594C37.527,17.759 37.063,20.851 36.618,25.618C27.208,26.24 27.018,28.158 18.36,25.361C9.771,22.586 9.582,25.409 0.572,25.418C1.807,17.752 1.578,17.702 0.474,10.585Z" style="fill:rgb(224,30,36);fill-rule:nonzero;"/>
                </g>
                <g transform="matrix(0.896117,3.24196e-17,-3.24196e-17,0.896117,219.046,223.655)">
                    <path d="M27.111,24.115L27.126,23.201L26.545,23.254L26.556,22.353L26.029,22.391L26.032,21.805L25.794,21.819L25.796,21.368L25.337,21.389L25.091,21.055C25.091,20.522 25.092,19.989 25.092,19.456L25.373,19.176L25.371,17.688L25.137,17.898L25.136,17.424L24.95,17.428L24.95,17.654L24.585,17.657L24.585,16.934L24.156,17.306L24.292,16.827L24.043,15.699L23.907,15.689C23.897,15.642 23.797,15.209 23.57,15.185C23.602,15.085 23.584,14.895 23.479,14.883C23.397,14.873 23.359,15.173 23.343,15.091C23.303,15.104 23.028,15.187 23.028,15.52L22.848,15.469L22.577,16.728L22.768,17.147L22.328,16.68L22.328,17.673C22.135,17.633 21.324,17.467 19.94,17.032L19.94,16.13L19.804,16.222L19.804,16.538L19.489,16.437L19.489,16.121L19.715,15.99L19.715,15.562L19.533,15.695L19.262,15.235L19.262,14.919L19.105,15.025L19.059,14.739L19.285,14.453L19.251,14.149L18.993,14.38L18.993,14.11L19.106,13.899L18.587,12.419L18.463,12.016L18.272,11.931L18.272,11.75C18.257,11.711 18.136,11.39 17.956,11.332C17.903,11.314 17.85,11.325 17.803,11.355C17.733,11.4 17.604,11.619 17.641,11.545L17.641,11.726L17.45,11.687L17.325,12.009L16.807,13.159L16.92,13.441L16.92,13.711L16.661,13.319L16.626,13.601L16.852,14.028L16.808,14.285L16.65,14.081L16.65,14.397L16.38,14.691L16.199,14.45L16.199,14.878L16.425,15.144L16.425,15.46L16.11,15.372L16.11,15.056L15.974,14.885L15.974,15.787C14.653,15.436 13.774,15.352 13.58,15.333L13.58,14.34L13.14,14.691L13.331,14.319L13.06,12.996L12.879,13.012C12.879,12.671 12.522,12.518 12.564,12.536C12.581,12.45 12.516,12.311 12.429,12.312C12.327,12.313 12.371,12.702 12.34,12.605C12.052,12.61 11.944,13.42 12.015,13.089L11.885,13.095L11.664,14.227L11.794,14.706L11.394,14.348L11.402,15.071L11.074,15.1L11.071,14.874L10.908,14.89L10.914,15.365L10.711,15.184L10.721,16.67L10.96,16.914C10.96,17.042 10.959,17.688 10.949,18.506L10.73,18.868L10.421,18.903L10.412,19.351L10.135,19.386L10.12,19.969L9.723,20.023L9.689,20.92L9.254,20.986L9.213,21.886L8.774,21.957L8.683,22.953C18.204,21.395 17.997,26.003 27.582,25.084L27.645,24.06L27.111,24.114L27.111,24.115Z" style="fill:white;fill-rule:nonzero;"/>
                </g>
                <g transform="matrix(0.896117,3.24196e-17,-3.24196e-17,0.896117,219.046,223.655)">
                    <path d="M11.657,16.609C11.657,16.748 11.657,17.448 11.651,18.34L10.911,18.4L10.732,18.794L11.648,18.717C11.638,20.081 11.628,20.165 11.611,22.619L11.944,22.605C11.957,19.37 11.974,18.957 11.974,16.591L11.657,16.609ZM25.346,21.313L25.162,20.941L24.412,20.945L24.412,19.21L24.074,19.197L24.074,25.217L24.412,25.23L24.412,21.323L25.346,21.313ZM17.105,17.4L17.105,19.135C16.816,19.045 14.922,18.461 13.413,18.34L13.413,16.595L13.083,16.573L13.083,22.593L13.413,22.615L13.413,18.718C14.922,18.839 16.816,19.423 17.105,19.513L17.105,23.42L17.458,23.53L17.458,17.51L17.105,17.4ZM22.51,18.995L22.51,20.73C21.23,20.484 19.196,19.814 18.912,19.72L18.912,17.985L18.563,17.87L18.563,23.89L18.912,24.005L18.912,20.098C19.196,20.192 21.23,20.862 22.51,21.108L22.51,25.015L22.937,25.09L22.937,19.07L22.51,18.995Z" style="fill:rgb(219,127,134);fill-rule:nonzero;"/>
                </g>
            </g>
        </g>
    </g>
</svg>
