<?xml version="1.0" encoding="UTF-8" standalone="no"?>
<!DOCTYPE svg PUBLIC "-//W3C//DTD SVG 1.1//EN" "http://www.w3.org/Graphics/SVG/1.1/DTD/svg11.dtd">
<svg width="100%" height="100%" viewBox="0 0 512 512" version="1.1" xmlns="http://www.w3.org/2000/svg" xmlns:xlink="http://www.w3.org/1999/xlink" xml:space="preserve" xmlns:serif="http://www.serif.com/" style="fill-rule:evenodd;clip-rule:evenodd;stroke-linejoin:round;stroke-miterlimit:2;">
    <g>
        <g>
            <path d="M189.333,97.638C189.333,125.872 189.367,125.697 189.678,231.887C189.768,262.683 189.034,332.323 189.323,386.155C239.006,384.551 278.546,412.234 322.66,415.143C322.66,318.719 322.66,222.295 322.66,125.871C278.553,123.038 238.99,96.075 189.333,97.638ZM276.907,289.559C275.225,287.807 275.369,287.939 255.997,267.543C243.46,272.558 236.74,275.61 235.088,276.361C237.75,268.933 240.413,261.505 243.076,254.077C231.424,242.111 223.883,235.08 222.166,233.478C224.262,233.91 233.097,235.731 248.009,240.404C250.672,233.061 253.334,225.719 255.997,218.377C258.66,227.445 261.323,236.514 263.985,245.583C266.042,246.261 280.911,251.169 289.828,253.636C288.174,254.38 281.599,257.336 268.918,262.395C271.581,271.45 274.244,280.505 276.907,289.559Z" style="fill:rgb(204,33,45);fill-rule:nonzero;"/>
            <path d="M100.444,108.861C77.104,111.835 55.74,130.85 58.828,156.107C63.896,197.549 72.023,219.664 72.094,255.171C72.162,289.17 64.081,324.492 59.699,355.921C56.353,379.924 75.267,400.977 100.472,397.677C124.511,394.53 161.227,387.063 189.323,386.155C189.199,363.074 189.333,363.22 189.333,97.638C161.905,98.503 123.034,105.981 100.444,108.861Z" style="fill:rgb(40,133,65);fill-rule:nonzero;"/>
            <path d="M411.553,116.384C395.925,118.809 349.5,127.592 322.66,125.871C322.66,222.295 322.66,318.719 322.66,415.143C352.729,417.123 405.199,409.65 412.318,408.636C435.684,405.308 458.974,381.556 461.247,357.894C471.973,246.225 470.846,244.48 459.378,156.216C456.362,133 437.012,112.436 411.553,116.384ZM263.985,245.594C261.323,236.521 258.66,227.449 255.997,218.377C253.334,225.719 250.672,233.061 248.009,240.404C233.097,235.731 224.262,233.91 222.166,233.478C223.883,235.08 231.424,242.111 243.076,254.077C240.413,261.505 237.75,268.933 235.088,276.361C236.74,275.61 243.46,272.558 255.997,267.543C259.985,271.742 263.957,275.956 267.945,280.155C270.927,283.295 273.909,286.435 276.907,289.559C274.244,280.508 271.581,271.457 268.918,262.406C281.599,257.348 288.174,254.391 289.828,253.647C280.911,251.18 266.042,246.272 263.985,245.594Z" style="fill:rgb(254,232,51);fill-rule:nonzero;"/>
        </g>
    </g>
</svg>
