<?xml version="1.0" encoding="UTF-8" standalone="no"?>
<!DOCTYPE svg PUBLIC "-//W3C//DTD SVG 1.1//EN" "http://www.w3.org/Graphics/SVG/1.1/DTD/svg11.dtd">
<svg width="100%" height="100%" viewBox="0 0 512 512" version="1.1" xmlns="http://www.w3.org/2000/svg" xmlns:xlink="http://www.w3.org/1999/xlink" xml:space="preserve" xmlns:serif="http://www.serif.com/" style="fill-rule:evenodd;clip-rule:evenodd;stroke-linejoin:round;stroke-miterlimit:2;">
    <g>
        <g>
            <path d="M100.444,108.861C77.104,111.835 55.74,130.85 58.828,156.107C63.749,196.349 71.735,219.194 72.083,253.166C72.44,288.108 64.155,323.962 59.699,355.921C56.353,379.924 75.267,400.977 100.472,397.677C115.436,395.718 149.431,389.775 167.089,387.814C166.582,340.052 169.792,276.975 169.703,241.658C169.528,172.37 167.111,172.587 167.111,99.255C149.799,101.127 115.02,107.003 100.444,108.861ZM411.553,116.384C399.661,118.229 366.592,124.141 344.882,125.577C344.882,178.164 345.881,273.972 344.943,415.095C374.467,414.027 406.958,409.399 412.318,408.636C435.684,405.308 458.974,381.556 461.247,357.894C471.963,246.325 470.85,244.51 459.378,156.216C456.362,133 437.012,112.436 411.553,116.384Z" style="fill:rgb(213,43,30);fill-rule:nonzero;"/>
            <path d="M167.111,99.255C253.77,89.887 270.345,130.502 344.882,125.577C344.882,178.164 345.881,273.972 344.943,415.095C263.384,418.043 253.926,378.176 167.089,387.814C166.582,340.052 169.792,276.975 169.703,241.658C169.528,172.37 167.111,172.587 167.111,99.255Z" style="fill:rgb(238,238,238);fill-rule:nonzero;"/>
            <path d="M262.83,301.901C265.873,303.259 288.617,313.406 301.372,317.683L297.983,305.769C297.514,303.972 298.03,301.845 299.75,300.895C319.916,289.102 336.741,274.585 338.682,272.996L330.418,269.411C326.157,267.936 329.002,261.852 329.127,261.388C331.125,254.195 333.123,247.002 335.121,239.808C333.342,240.22 322.864,242.643 312.571,243.297C310.779,243.305 309.02,242.045 308.594,240.264L305.694,229.604C304.307,230.891 297.593,237.12 287.939,245.218C285.539,247.581 280.32,246.1 281.895,239.262C284.425,226.54 286.954,213.818 289.484,201.096L279.295,203.363C274.161,204.646 272.269,200.634 271.996,200.054C267.311,189.751 262.626,179.449 257.941,169.146L257.941,169.802L257.941,169.146C249.556,182.08 245.004,189.216 243.887,190.966C241.736,194.153 237.03,190.207 236.576,189.826L226.399,181.947C228.929,196.038 231.458,210.129 233.988,224.22C235.539,231.789 230.425,230.607 227.943,226.865C218.469,213.973 211.652,205.487 210.189,203.665L207.3,213.466C206.848,215.228 204.92,215.876 203.311,215.526C201.608,215.055 194.794,213.171 181.648,211.207C182.109,212.897 184.001,219.82 187.275,232.37C187.399,232.865 189.98,238.712 186.094,240.455L178.822,244.795C198.163,260.471 207.577,268.697 216.122,277.082C216.463,277.404 218.797,279.602 217.877,282.674L214.489,293.241C229.534,293.837 249.991,298.074 253.042,298.706C254.23,299.089 254.996,300.086 254.986,301.347C254.194,314.809 253.401,328.271 252.609,341.733L263.23,345.211C262.441,331.232 261.652,317.253 260.863,303.275C260.884,302.044 261.683,301.523 262.83,301.901Z" style="fill:rgb(213,43,30);fill-rule:nonzero;"/>
        </g>
    </g>
</svg>
