<?xml version="1.0" encoding="UTF-8" standalone="no"?>
<!DOCTYPE svg PUBLIC "-//W3C//DTD SVG 1.1//EN" "http://www.w3.org/Graphics/SVG/1.1/DTD/svg11.dtd">
<svg width="100%" height="100%" viewBox="0 0 512 512" version="1.1" xmlns="http://www.w3.org/2000/svg" xmlns:xlink="http://www.w3.org/1999/xlink" xml:space="preserve" xmlns:serif="http://www.serif.com/" style="fill-rule:evenodd;clip-rule:evenodd;stroke-linejoin:round;stroke-miterlimit:2;">
    <g transform="matrix(1.11593,-4.03717e-17,4.03717e-17,1.11593,-13.9687,-19.1113)">
        <g transform="matrix(11.1111,-1.43666e-31,7.88861e-32,11.1111,-2371.15,-2417.74)">
            <g>
                <g transform="matrix(0.896117,3.24196e-17,-3.24196e-17,0.896117,219.046,223.655)">
                    <path d="M36.472,27.17C36.268,29.3 34.172,31.438 32.069,31.737C22.764,33.062 21.617,31.929 16.923,30.475C12.024,28.957 9.406,30.043 4.002,30.751C1.734,31.048 0.032,29.153 0.333,26.993C0.731,24.136 1.48,20.893 1.447,17.745C1.416,14.7 0.699,12.641 0.255,9.01C-0.023,6.737 1.899,5.025 4,4.757C11.375,3.817 11.85,2.887 18.359,4.935C24.284,6.8 24.43,6.609 32,5.435C34.291,5.079 36.033,6.93 36.304,9.019C37.335,16.956 37.438,17.114 36.472,27.17Z" style="fill:rgb(255,204,0);fill-rule:nonzero;"/>
                </g>
                <g transform="matrix(0.896117,3.24196e-17,-3.24196e-17,0.896117,219.046,223.655)">
                    <path d="M4,4.757C1.899,5.025 -0.023,6.737 0.255,9.01C0.697,12.631 1.416,14.687 1.447,17.745C1.48,20.89 0.734,24.117 0.333,26.993C0.032,29.153 1.734,31.048 4.002,30.751C6.166,30.468 9.47,29.796 11.999,29.714C11.988,27.637 12,27.65 12,3.747C9.531,3.825 6.033,4.498 4,4.757Z" style="fill:rgb(238,238,238);fill-rule:nonzero;"/>
                </g>
                <g transform="matrix(0.896117,3.24196e-17,-3.24196e-17,0.896117,219.046,223.655)">
                    <path d="M12,3.747C16.469,3.607 20.03,6.033 23.999,6.288C23.999,14.967 23.999,23.645 23.999,32.323C20.029,32.061 16.471,29.57 11.999,29.714C11.988,27.637 12,27.65 12,3.747Z" style="fill:rgb(8,104,169);fill-rule:nonzero;"/>
                </g>
                <g transform="matrix(0.896117,3.24196e-17,-3.24196e-17,0.896117,219.046,223.655)">
                    <path d="M21.021,17.071C20.782,16.755 20.353,16.845 20.259,16.76C20.109,16.624 19.924,16.535 19.938,16.814C19.951,17.086 20.277,17.44 20.319,17.485C20.361,17.531 20.379,17.586 20.391,17.647C20.407,17.734 20.356,17.996 20.378,17.911C20.351,17.872 20.158,17.596 20.07,17.405C20.052,17.368 19.901,17.045 19.748,16.996C19.614,16.953 19.415,17.098 19.528,17.232C19.998,17.787 19.997,17.779 19.997,17.792C19.997,18.126 20.331,18.668 20.143,18.306L20.099,18.453C20.023,18.392 19.947,18.322 19.909,18.233C19.842,18.079 19.943,17.878 19.748,17.816C19.555,17.754 19.485,18.186 19.616,18.301C19.745,18.413 20.09,18.906 20.129,18.961C20.152,19.012 20.289,19.318 20.538,19.539C20.89,19.85 21.562,20.748 21.11,20.171C21.067,20.19 20.684,20.363 20.656,20.54C20.627,20.715 20.803,20.833 20.787,21.003C20.771,21.166 20.531,21.035 20.422,21.062C20.32,21.087 20.478,21.464 20.425,21.375L20.865,21.504L21.082,21.159L21.082,20.865L21.545,20.885C21.521,20.98 21.535,21.095 21.591,21.175C21.689,21.314 21.828,21.42 21.936,21.55C21.981,21.604 22.017,21.703 22.017,21.774C22.017,21.97 21.915,22.005 21.739,21.98C21.655,21.969 21.484,22.188 21.52,22.112L22.092,22.247L22.341,21.75C22.41,21.626 22.394,21.474 22.267,21.392C22.176,21.334 22.065,21.063 22.092,20.891C22.206,21.008 22.369,21.101 22.531,21.102C22.76,21.102 22.972,20.904 22.985,20.692C22.989,20.639 23.014,20.215 22.751,20.071C22.558,19.965 22.534,20.172 22.648,20.289C22.737,20.378 22.757,20.692 22.619,20.753C22.473,20.819 22.303,20.822 22.253,20.638C22.236,20.574 22.107,20.097 21.817,19.927C21.578,19.785 21.229,19.109 21.244,18.741C21.248,18.607 21.284,17.418 21.021,17.071ZM14.96,15.263C15.195,15.066 15.64,15.379 15.721,15.35C15.941,15.273 16.054,15.372 16.043,15.588C16.03,15.846 15.705,16.02 15.663,16.043C15.617,16.067 15.601,16.118 15.591,16.165C15.572,16.254 15.624,16.524 15.604,16.436C15.717,16.336 15.831,16.231 15.912,16.103C15.985,15.989 16.071,15.837 16.234,15.882C16.314,15.905 16.604,16.165 16.454,16.251C15.99,16.515 15.985,16.508 15.985,16.532C15.985,16.6 15.973,16.67 15.951,16.735C15.924,16.815 15.839,16.962 15.839,16.962L15.883,17.135C15.954,17.118 16.036,17.088 16.073,17.024C16.118,16.946 16.034,16.647 16.234,16.702C16.43,16.757 16.494,17.232 16.366,17.266C16.228,17.303 15.891,17.593 15.853,17.625C15.83,17.662 15.693,17.889 15.443,17.977C15.082,18.103 14.449,18.661 14.872,18.321C14.916,18.362 15.296,18.713 15.326,18.917C15.35,19.08 15.181,19.155 15.194,19.312C15.21,19.483 15.447,19.474 15.56,19.563C15.604,19.598 15.639,19.645 15.659,19.698C15.682,19.761 15.664,19.966 15.678,19.899L15.237,19.795L14.901,19.324L14.901,19.03L14.445,18.842C14.464,18.932 14.46,19.047 14.395,19.112C14.238,19.271 14.194,19.194 14.049,19.352C13.998,19.407 13.967,19.471 13.967,19.546C13.967,19.743 14.067,19.813 14.244,19.857C14.344,19.883 14.5,20.174 14.462,20.078L13.891,19.994L13.642,19.415C13.589,19.304 13.564,19.13 13.715,19.08C13.869,19.03 13.911,18.768 13.891,18.638C13.768,18.721 13.595,18.751 13.452,18.712C13.214,18.647 13.01,18.401 12.998,18.195C12.995,18.146 12.969,17.706 13.232,17.625C13.406,17.571 13.474,17.764 13.335,17.868C13.221,17.954 13.255,18.263 13.364,18.34C13.47,18.415 13.673,18.525 13.73,18.331C13.746,18.276 13.878,17.832 14.166,17.773C14.401,17.724 14.755,17.218 14.741,16.83C14.736,16.704 14.687,15.491 14.96,15.263Z" style="fill:rgb(192,155,90);fill-rule:nonzero;"/>
                </g>
                <g transform="matrix(0.896117,3.24196e-17,-3.24196e-17,0.896117,219.046,223.655)">
                    <path d="M21.226,18.072C21.012,18.05 20.484,17.858 20.421,17.835C20.33,17.802 20.292,18.043 20.362,18.081C20.61,18.213 21.113,18.352 21.237,18.314C21.312,18.289 21.317,18.081 21.226,18.072Z" style="fill:rgb(140,141,143);fill-rule:nonzero;"/>
                </g>
                <g transform="matrix(0.896117,3.24196e-17,-3.24196e-17,0.896117,219.046,223.655)">
                    <path d="M20.176,16.691C20.122,16.756 20.019,16.784 19.937,16.771C19.929,16.716 19.955,16.633 20.009,16.621C20.068,16.608 20.215,16.737 20.176,16.691ZM20.53,17.017C20.464,16.985 20.278,16.984 20.427,17.082C20.501,17.13 20.633,17.069 20.53,17.017ZM21.08,17.475C21.074,17.632 20.959,17.907 20.81,17.86C20.581,17.788 20.646,17.422 20.81,17.289C20.771,17.376 20.629,17.707 20.794,17.767C20.846,17.787 20.899,17.765 20.935,17.728C21.002,17.658 21.11,17.383 21.08,17.475Z" style="fill-rule:nonzero;"/>
                </g>
                <g transform="matrix(0.896117,3.24196e-17,-3.24196e-17,0.896117,219.046,223.655)">
                    <path d="M14.754,16.167C14.889,16.216 15.495,16.325 15.56,16.336C15.638,16.351 15.695,16.616 15.618,16.615C15.403,16.611 14.869,16.501 14.743,16.404C14.695,16.367 14.651,16.13 14.754,16.167Z" style="fill:rgb(140,141,143);fill-rule:nonzero;"/>
                </g>
                <g transform="matrix(0.896117,3.24196e-17,-3.24196e-17,0.896117,219.046,223.655)">
                    <path d="M15.805,15.329C15.857,15.423 15.945,15.504 16.044,15.545C16.053,15.478 16.025,15.397 15.972,15.354C15.928,15.319 15.757,15.358 15.805,15.329ZM15.45,15.46C15.494,15.462 15.71,15.562 15.553,15.58C15.478,15.588 15.362,15.457 15.45,15.46ZM14.901,15.639C14.902,15.686 14.916,16.108 15.172,16.157C15.386,16.199 15.345,15.815 15.172,15.586C15.183,15.618 15.359,16.097 15.187,16.073C14.966,16.043 14.811,15.321 14.901,15.639Z" style="fill-rule:nonzero;"/>
                </g>
                <g transform="matrix(0.896117,3.24196e-17,-3.24196e-17,0.896117,219.046,223.655)">
                    <path d="M18.757,15.203C18.72,15.156 18.46,14.82 18.141,14.788L18.072,14.719L18.078,14.408L17.932,14.361L17.939,14.676L17.87,14.7C17.551,14.524 17.212,14.742 17.254,14.715C16.769,14.369 16.321,14.587 16.321,14.921C16.321,15.321 16.415,15.275 16.653,15.603C16.713,15.686 16.999,16.485 17.027,16.563C17.497,16.707 18.826,17.144 18.982,17.195C19.009,17.136 19.298,16.515 19.357,16.471C19.611,16.282 19.689,16.318 19.689,15.991C19.69,15.64 19.221,15.169 18.757,15.203Z" style="fill:rgb(235,209,27);fill-rule:nonzero;"/>
                </g>
                <g transform="matrix(0.896117,3.24196e-17,-3.24196e-17,0.896117,219.046,223.655)">
                    <path d="M17.815,15.207L17.815,15.441L17.652,15.57C17.568,15.551 17.48,15.519 17.421,15.456L17.285,15.228C17.37,15.197 17.459,15.167 17.55,15.17L17.815,15.207ZM17.227,15.286C17.214,15.37 17.143,15.47 17.059,15.474C16.964,15.479 16.692,15.377 16.779,15.417C16.805,15.354 16.869,15.307 16.932,15.282C17.024,15.246 17.321,15.313 17.227,15.286Z" style="fill:rgb(190,24,39);fill-rule:nonzero;"/>
                </g>
                <g transform="matrix(0.896117,3.24196e-17,-3.24196e-17,0.896117,219.046,223.655)">
                    <path d="M17.507,14.904C17.614,14.912 17.91,15.054 17.815,15.003C17.813,15.09 17.707,15.191 17.621,15.177C17.521,15.161 17.296,14.954 17.354,15.036C17.372,14.971 17.44,14.898 17.507,14.904ZM16.604,15.021C16.534,14.663 16.987,14.895 17.068,15.009C17.082,15.119 17.01,15.286 16.9,15.296C16.731,15.311 16.633,15.169 16.604,15.021ZM17.071,14.812C17.117,14.723 17.308,14.878 17.25,14.963C17.171,15.075 17.014,14.919 17.071,14.812Z" style="fill:rgb(8,104,169);fill-rule:nonzero;"/>
                </g>
                <g transform="matrix(0.896117,3.24196e-17,-3.24196e-17,0.896117,219.046,223.655)">
                    <path d="M17.112,15.07C17.207,15 17.337,15.235 17.227,15.249C17.148,15.26 17.018,15.137 17.112,15.07Z" style="fill:rgb(8,104,169);fill-rule:nonzero;"/>
                </g>
                <g transform="matrix(0.896117,3.24196e-17,-3.24196e-17,0.896117,219.046,223.655)">
                    <path d="M18.167,15.322L18.167,15.556L18.344,15.796C18.418,15.826 18.508,15.865 18.582,15.834C18.642,15.808 18.755,15.638 18.721,15.694L18.444,15.462L18.167,15.322ZM18.784,15.792C18.799,15.904 18.857,16.023 18.951,16.087C19.035,16.144 19.332,16.222 19.232,16.206C19.203,16.118 19.142,16.041 19.078,15.975C18.997,15.892 18.675,15.753 18.784,15.792Z" style="fill:rgb(190,24,39);fill-rule:nonzero;"/>
                </g>
                <g transform="matrix(0.896117,3.24196e-17,-3.24196e-17,0.896117,219.046,223.655)">
                    <path d="M18.503,15.228C18.409,15.175 18.089,15.115 18.196,15.127C18.197,15.246 18.282,15.376 18.39,15.428C18.471,15.467 18.729,15.405 18.658,15.46C18.636,15.37 18.584,15.274 18.503,15.228ZM19.406,15.919C19.456,15.692 19.11,15.485 18.942,15.616C18.922,15.757 18.995,15.926 19.111,16.009C19.237,16.101 19.37,16.084 19.406,15.919ZM18.94,15.417C18.9,15.319 18.701,15.327 18.761,15.453C18.817,15.573 19.011,15.594 18.94,15.417Z" style="fill:rgb(8,104,169);fill-rule:nonzero;"/>
                </g>
                <g transform="matrix(0.896117,3.24196e-17,-3.24196e-17,0.896117,219.046,223.655)">
                    <path d="M18.898,15.648C18.812,15.53 18.675,15.67 18.784,15.755C18.88,15.831 18.97,15.747 18.898,15.648Z" style="fill:rgb(8,104,169);fill-rule:nonzero;"/>
                </g>
                <g transform="matrix(0.896117,3.24196e-17,-3.24196e-17,0.896117,219.046,223.655)">
                    <path d="M17.028,16.423C17.028,16.329 17.289,16.163 17.991,16.392C18.598,16.59 18.954,16.916 18.954,17.046C18.954,17.13 18.722,17.305 17.991,17.066C17.361,16.859 17.028,16.546 17.028,16.423Z" style="fill:rgb(190,24,39);fill-rule:nonzero;"/>
                </g>
                <g transform="matrix(0.896117,3.24196e-17,-3.24196e-17,0.896117,219.046,223.655)">
                    <path d="M17.999,16.67C16.876,16.303 16.276,16.14 16.125,16.098L16.125,19.161C16.125,20.158 17.545,20.791 18,20.94C18.733,21.179 19.854,21.229 19.854,20.339L19.854,17.276C19.705,17.228 19.719,17.231 17.999,16.67Z" style="fill:rgb(2,2,2);fill-rule:nonzero;"/>
                </g>
                <g transform="matrix(0.896117,3.24196e-17,-3.24196e-17,0.896117,219.046,223.655)">
                    <path d="M17.998,16.872C17.011,16.55 16.471,16.398 16.337,16.36L16.337,19.221C16.337,20.027 17.548,20.571 17.998,20.713C18.681,20.942 19.659,20.998 19.659,20.277L19.659,17.416C19.525,17.374 19.529,17.372 17.998,16.872Z" style="fill:rgb(76,134,199);fill-rule:nonzero;"/>
                </g>
                <g transform="matrix(0.896117,3.24196e-17,-3.24196e-17,0.896117,219.046,223.655)">
                    <path d="M20.364,15.318C20.605,15.303 20.828,14.993 20.804,15.027C20.751,15.019 20.419,14.965 20.169,14.838C19.822,14.662 19.511,14.182 19.742,14.479C19.998,14.109 19.148,13.729 19.073,13.695L17.997,13.273C17.911,13.247 17.346,13.078 16.909,12.997C16.848,12.985 15.969,12.822 16.234,13.367C16.111,13.45 15.952,13.486 15.804,13.477C15.467,13.458 14.61,13.133 15.169,13.326C15.194,13.374 15.365,13.7 15.608,13.848C15.564,13.98 15.374,14.043 15.236,14.034C15.319,14.066 15.884,14.288 16.329,14.225C16.393,14.216 16.956,14.135 17.11,14.026C17.193,13.97 16.932,13.747 17.114,13.783L17.996,14.026L18.867,14.351C19.028,14.422 18.781,14.491 18.859,14.593C19.032,14.823 19.573,15.228 19.64,15.277C20.106,15.625 20.639,15.689 20.733,15.7C20.433,15.565 20.352,15.277 20.364,15.318Z" style="fill:rgb(165,167,169);fill-rule:nonzero;"/>
                </g>
                <g transform="matrix(0.896117,3.24196e-17,-3.24196e-17,0.896117,219.046,223.655)">
                    <path d="M18.557,20.546L17.425,20.178L17.991,19.793L18.557,20.546ZM17.737,18.404L16.604,18.053L17.171,17.657L17.737,18.404ZM17.737,17.525L16.604,17.174L17.171,16.779L17.737,17.525ZM17.737,19.34L16.604,18.989L17.171,18.595L17.737,19.34ZM19.318,18.922L18.186,18.55L18.752,18.169L19.318,18.922ZM19.318,18.043L18.186,17.671L18.752,17.291L19.318,18.043ZM19.318,19.858L18.186,19.486L18.752,19.107L19.318,19.858Z" style="fill:white;fill-rule:nonzero;"/>
                </g>
            </g>
        </g>
    </g>
</svg>
