<?xml version="1.0" encoding="UTF-8" standalone="no"?>
<!DOCTYPE svg PUBLIC "-//W3C//DTD SVG 1.1//EN" "http://www.w3.org/Graphics/SVG/1.1/DTD/svg11.dtd">
<svg width="100%" height="100%" viewBox="0 0 512 512" version="1.1" xmlns="http://www.w3.org/2000/svg" xmlns:xlink="http://www.w3.org/1999/xlink" xml:space="preserve" xmlns:serif="http://www.serif.com/" style="fill-rule:evenodd;clip-rule:evenodd;stroke-linejoin:round;stroke-miterlimit:2;">
    <g>
        <g>
            <path d="M411.553,116.384C327.618,129.405 325.974,131.604 259.985,110.838C187.662,88.078 182.392,98.415 100.444,108.861C77.104,111.835 55.74,130.85 58.828,156.107C64.314,200.971 73.871,224.859 71.792,267.933C149.034,268.517 169.688,238.465 243.998,261.267C292.753,276.226 305.726,285.437 357.484,280.535C385.98,277.836 436.484,268.275 468.346,267.252C469.04,215.163 461.679,173.924 459.378,156.216C456.362,133 437.012,112.436 411.553,116.384Z" style="fill:rgb(0,56,147);fill-rule:nonzero;"/>
            <path d="M71.792,267.933C149.034,268.517 169.688,238.465 243.998,261.267C292.753,276.226 305.726,285.437 357.484,280.535C385.98,277.836 436.484,268.275 468.346,267.252C468.194,278.605 467.642,287.704 467.535,289.48C378.769,292.345 359.24,320.61 267.996,291.237C235.245,280.694 214.43,271.788 173.553,276.236C135.574,280.369 119.846,289.643 69.949,289.544C71.296,278.202 71.708,269.666 71.792,267.933ZM64.963,322.589C163.825,322.514 165.833,291.511 259.997,321.933C360.26,354.326 362.436,328.994 464.403,324.343C463.695,331.893 462.986,339.443 462.278,346.994C352.267,355.347 350.271,373.321 259.997,344.156C164.126,313.182 162,344.698 61.344,344.795C61.62,343.016 62.365,338.211 64.963,322.589Z" style="fill:rgb(238,238,238);fill-rule:nonzero;"/>
            <path d="M69.949,289.544C68.68,300.238 65.402,319.952 64.963,322.589C163.825,322.514 165.833,291.511 259.997,321.933C360.26,354.326 362.436,328.994 464.403,324.343C466.618,301.171 466.81,301.416 467.535,289.48C378.769,292.345 359.24,320.61 267.996,291.237C235.245,280.694 214.43,271.788 173.553,276.236C135.574,280.369 119.846,289.643 69.949,289.544Z" style="fill:rgb(207,32,39);fill-rule:nonzero;"/>
            <path d="M100.472,397.677C182.335,386.958 187.634,376.33 259.985,399.708C297.334,411.775 314.968,422.501 412.318,408.636C435.684,405.308 458.974,381.556 461.247,357.894L462.278,346.994C352.267,355.347 350.271,373.321 259.997,344.156C164.126,313.182 162,344.698 61.344,344.795L59.699,355.921C56.353,379.924 75.267,400.977 100.472,397.677Z" style="fill:rgb(0,56,147);fill-rule:nonzero;"/>
            <path d="M215.411,219.921L223.899,215.367L213.411,213.445L210.166,203.029L206.922,212.651C201.529,212.132 197.273,212.129 196.433,212.128L204.922,218.642L201.678,228.42L210.166,222.996L218.655,230.471L215.411,219.921ZM284.095,289.6L292.583,285.828L282.095,282.833L278.851,271.847L275.607,280.814L265.108,277.397L273.607,286.341L270.363,295.267L278.851,291.814L287.339,300.525L284.095,289.6ZM151.846,272.86L159.244,265.49L150.385,267.078L147.945,257.735L144.968,268.124L136.252,269.863L143.042,274.536L139.765,284.925L147.261,277.453L154.175,282.255L151.846,272.86ZM149.423,317.307L157.42,309.916L147.999,311.45L145.776,301.993L142.226,312.464L132.928,314.15L139.975,318.942L136.239,329.436L144.433,321.921L151.838,326.799L149.423,317.307ZM284.095,334.234L292.583,330.461L282.095,327.467L278.851,316.492L275.607,325.447L265.108,322.031L273.607,330.974L270.363,339.9L278.851,336.447L287.339,345.158L284.095,334.234ZM213.411,357.89L210.166,347.474L206.922,357.096C201.529,356.577 197.273,356.573 196.433,356.573L204.922,363.087L201.678,372.864L210.166,367.44L218.655,374.915L215.411,364.365L223.899,359.811L213.411,357.89ZM257.864,361.921L266.352,358.552L255.853,355.096L252.62,344.07L249.375,353.012L238.876,349.832L247.364,358.547L244.12,367.526L252.62,364.025L261.108,372.966L257.864,361.921ZM257.864,245.21L266.352,241.841L255.853,238.385L252.62,227.359L249.375,236.301L238.876,233.121L247.364,241.836L244.12,250.815L252.62,247.314L261.108,256.255L257.864,245.21ZM162.738,351.252L154.722,346.198L164.829,344.841L168.173,334.494L171.119,344.137L181.427,343.274L173.004,350.113L176.131,359.809L167.793,354.458L159.361,361.646L162.738,351.252ZM165.665,234.894L158.353,229.94L167.324,228.47L169.946,218.062L172.975,227.697L182.376,226.722L174.803,233.646L177.703,243.28L170.217,238.034L162.925,245.271L165.665,234.894Z" style="fill:rgb(247,209,22);fill-rule:nonzero;"/>
        </g>
    </g>
</svg>
