<?xml version="1.0" encoding="UTF-8" standalone="no"?>
<!DOCTYPE svg PUBLIC "-//W3C//DTD SVG 1.1//EN" "http://www.w3.org/Graphics/SVG/1.1/DTD/svg11.dtd">
<svg width="100%" height="100%" viewBox="0 0 512 512" version="1.1" xmlns="http://www.w3.org/2000/svg" xmlns:xlink="http://www.w3.org/1999/xlink" xml:space="preserve" xmlns:serif="http://www.serif.com/" style="fill-rule:evenodd;clip-rule:evenodd;stroke-linejoin:round;stroke-miterlimit:2;">
    <g>
        <g>
            <path d="M71.636,389.289C166.634,320.31 166.169,289.891 256.008,253.964C355.053,214.355 354.083,196.985 441.061,123.667C439.118,122.206 427.989,113.835 411.553,116.384C378.064,121.579 340.714,129.476 309.348,124.309C277.353,119.038 236.752,99.852 203.222,97.745C164.098,120.997 90.814,218.044 71.033,233.072C75.271,277.618 65.146,316.849 59.699,355.921C59.307,358.729 56.853,376.337 71.636,389.289Z" style="fill:rgb(238,237,237);fill-rule:nonzero;"/>
            <path d="M441.061,123.667C369.804,183.733 349.865,216.758 265.734,250.141C157.818,292.962 172.51,316.043 71.636,389.289C83.705,399.872 98.09,397.989 100.472,397.677C182.335,386.958 187.634,376.33 259.985,399.708C297.334,411.775 314.968,422.501 412.318,408.636C435.684,405.308 458.974,381.556 461.247,357.894C471.973,246.225 470.846,244.48 459.378,156.216C459.192,154.783 458.204,147.182 453.904,139.007C448.907,129.56 442.341,124.629 441.061,123.667Z" style="fill:rgb(1,42,135);fill-rule:nonzero;"/>
            <path d="M100.444,108.861C77.104,111.835 55.74,130.85 58.828,156.107C62.66,187.44 69.094,212.699 71.033,233.072C90.815,218.043 164.097,120.998 203.222,97.745C174.502,95.943 124.641,105.776 100.444,108.861Z" style="fill:rgb(249,217,15);fill-rule:nonzero;"/>
            <path d="M239.476,225.416L252.72,221.847L239.476,210.127C236.503,185.302 217.013,151.941 185.791,149.559L178.129,136.779L170.749,150.717C153.284,154.791 125.823,172.973 125.928,212.494L115.399,222.443L127.212,228.169C131.273,252.74 145.108,272.648 172.352,273.261L178.999,285.794L186.311,272.095C234.619,263.17 238.754,231.029 239.476,225.416ZM179.346,265.149C150.146,267.729 134.945,246.416 132.923,219.155C129.925,178.754 157.416,159.151 178.298,157.498C210.745,154.931 232.021,188.99 232.021,215.725C232.021,253.767 192.854,263.955 179.346,265.149Z" style="fill-rule:nonzero;"/>
            <path d="M199.489,210.598C200.322,209.18 204.644,201.823 210.122,193.001C208.44,192.796 200.656,191.845 188.953,192.262C183.34,182.566 179.36,175.882 178.516,174.463C173.481,184.204 169.717,192.29 168.988,193.858C167.469,194.041 160.574,194.875 150.075,196.704C150.93,198.06 154.844,204.268 160.414,213.881C159.742,215.494 153.996,229.285 151.985,234.028C162.004,232.081 168.607,231.173 170.06,230.973C170.821,232.352 173.073,236.435 179.489,248.252C185.151,236.937 188.428,230.686 189.224,229.169C200.346,228.64 208.462,229.632 210.122,229.835C204.644,219.68 200.357,212.127 199.489,210.598Z" style="fill:rgb(220,23,29);fill-rule:nonzero;"/>
        </g>
    </g>
</svg>
