<?xml version="1.0" encoding="UTF-8" standalone="no"?>
<!DOCTYPE svg PUBLIC "-//W3C//DTD SVG 1.1//EN" "http://www.w3.org/Graphics/SVG/1.1/DTD/svg11.dtd">
<svg width="100%" height="100%" viewBox="0 0 512 512" version="1.1" xmlns="http://www.w3.org/2000/svg" xmlns:xlink="http://www.w3.org/1999/xlink" xml:space="preserve" xmlns:serif="http://www.serif.com/" style="fill-rule:evenodd;clip-rule:evenodd;stroke-linejoin:round;stroke-miterlimit:2;">
    <g transform="matrix(1.11593,-4.03717e-17,4.03717e-17,1.11593,-13.9687,-19.1113)">
        <g transform="matrix(11.1111,-2.35563e-31,0,11.1111,-2371.15,-2417.74)">
            <g>
                <g transform="matrix(0.896117,3.24196e-17,-3.24196e-17,0.896117,219.046,223.655)">
                    <path d="M32,5.435C24.446,6.606 24.298,6.804 18.359,4.935C11.85,2.887 11.375,3.817 4,4.757L3.396,4.874C3.394,5.625 3.445,6.487 3.454,6.627C1.962,6.797 0.936,6.798 0.716,6.798C0.374,7.365 0.15,8.156 0.255,9.01C0.697,12.631 1.416,14.687 1.447,17.745C1.48,20.89 0.734,24.117 0.333,26.993C0.032,29.153 1.734,31.048 4.002,30.751C11.37,29.786 11.847,28.83 18.359,30.934C21.72,32.02 23.307,32.985 32.069,31.737C34.172,31.438 36.268,29.3 36.472,27.17C37.437,17.129 37.336,16.966 36.304,9.019C36.033,6.93 34.291,5.079 32,5.435Z" style="fill:rgb(0,36,125);fill-rule:nonzero;"/>
                </g>
                <g transform="matrix(0.896117,3.24196e-17,-3.24196e-17,0.896117,219.046,223.655)">
                    <path d="M34.509,22.944C34.303,22.997 33.93,23.689 33.892,23.761C33.841,23.808 33.572,24.057 33.093,24.077L33.58,23.32C33.82,22.946 33.726,22.536 33.419,22.538C33.213,22.538 33.236,22.489 32.694,22.123C32.31,21.861 31.584,21.939 31.444,22.227C31.359,22.4 30.671,22.876 30.732,23.207C30.75,23.312 30.863,23.951 31.201,24.462C31.057,24.567 30.143,25.235 29.302,25.626C29.193,25.677 28.48,26.009 27.884,26.106C27.752,26.113 27.03,26.147 26.241,25.908C25.447,25.667 24.83,25.154 24.723,25.065C24.884,24.808 25.119,24.247 25.211,23.815C25.281,23.473 24.677,23.115 24.603,22.944C24.49,22.68 23.831,22.687 23.483,22.956C23.028,23.308 23.062,23.385 22.802,23.379C22.54,23.371 22.4,23.74 22.602,24.102L23,24.811C22.565,24.783 22.236,24.433 22.279,24.479C22.248,24.41 21.952,23.757 21.755,23.682C21.429,23.557 21.504,24.1 21.509,24.142C21.556,24.477 21.821,25.25 21.853,25.345C22.004,25.782 22.559,25.923 22.625,25.947C23.08,26.114 23.646,25.859 23.727,25.822C25.106,27.29 27.173,27.265 27.626,27.218C28.399,27.165 30.558,26.671 32.008,25.191C32.107,25.223 32.825,25.455 33.302,25.313C33.391,25.286 34.037,25.165 34.219,24.744C34.262,24.645 34.663,23.724 34.714,23.495C34.724,23.449 34.857,22.855 34.509,22.944Z" style="fill:rgb(249,208,80);fill-rule:nonzero;"/>
                </g>
                <g transform="matrix(0.896117,3.24196e-17,-3.24196e-17,0.896117,219.046,223.655)">
                    <path d="M34.209,24.702C34.254,24.588 34.628,23.644 34.746,23.271C34.856,22.926 34.533,22.803 34.251,23.061C33.973,23.315 33.538,24.49 33.49,24.621C33.567,24.48 33.733,24.352 33.893,24.359C33.965,24.363 34.03,24.392 34.08,24.445C34.147,24.514 34.227,24.796 34.209,24.702ZM32.225,23.375C32.282,23.306 32.754,22.725 32.812,22.423C32.873,22.108 32.399,21.767 32.039,21.86C31.663,21.957 31.41,22.269 31.477,22.499C31.525,22.665 31.802,23.238 31.832,23.301C31.836,23.229 31.945,23.198 32.016,23.187C32.109,23.174 32.239,23.468 32.225,23.375ZM21.925,25.321C21.892,25.211 21.608,24.297 21.524,23.944C21.432,23.548 21.833,23.637 22.004,23.819C22.243,24.073 22.569,25.181 22.605,25.304C22.543,25.167 22.396,25.039 22.245,25.031C22.179,25.029 22.116,25.05 22.064,25.094C21.997,25.152 21.903,25.407 21.925,25.321ZM23.845,24.152C23.795,24.088 23.407,23.597 23.365,23.261C23.326,22.945 23.775,22.591 24.085,22.647C24.414,22.707 24.637,22.974 24.565,23.223C24.483,23.511 24.238,23.99 24.205,24.054C24.205,23.994 24.107,23.97 24.046,23.966C23.955,23.96 23.827,24.241 23.845,24.152Z" style="fill:rgb(219,28,28);fill-rule:nonzero;"/>
                </g>
                <g transform="matrix(0.896117,3.24196e-17,-3.24196e-17,0.896117,219.046,223.655)">
                    <path d="M27.959,16.955C27.687,16.987 25.911,17.196 24.535,17.182L24.535,20.11C26.906,20.134 30.86,19.486 32.221,19.288C32.222,19.054 32.228,17.876 32.182,16.359C29.767,16.711 29.785,16.739 27.959,16.955Z" style="fill:rgb(207,27,43);fill-rule:nonzero;"/>
                </g>
                <g transform="matrix(0.896117,3.24196e-17,-3.24196e-17,0.896117,219.046,223.655)">
                    <path d="M30.651,24.156C32.174,22.25 32.204,20.578 32.21,20.241L32.222,18.754L31.653,18.83C31.455,18.91 31.008,19.419 30.656,19.471C30.135,19.548 29.845,19.07 29.323,19.142C28.865,19.205 28.438,19.781 27.971,19.836C27.578,19.882 26.982,19.422 26.654,19.45C26.406,19.47 25.594,20.04 25.375,20.048C25.105,20.058 24.717,19.623 24.534,19.562L24.536,21.062C24.536,22.604 24.98,23.706 25.067,23.921C25.213,24.285 25.697,24.946 25.789,25.012C25.972,25.043 26.856,25.292 27.35,26.091C27.456,26.156 27.853,26.118 27.896,26.114C28.339,26.072 28.472,25.933 28.44,25.966C28.976,25.012 30.206,24.714 30.651,24.156Z" style="fill:white;fill-rule:nonzero;"/>
                </g>
                <g transform="matrix(0.896117,3.24196e-17,-3.24196e-17,0.896117,219.046,223.655)">
                    <path d="M25.244,22.214C25.575,22.203 26.536,21.701 26.724,21.685C26.984,21.663 27.452,22.055 27.851,22.009C28.171,21.972 29.109,21.412 29.28,21.388C29.51,21.357 30.163,21.7 30.572,21.64C30.976,21.58 31.363,21.085 31.711,21.034C31.785,21.023 32.059,21.01 32.138,21.03C32.231,20.567 32.216,20.005 32.214,19.916L31.803,19.966L31.607,20.009C31.357,20.123 31.058,20.573 30.643,20.634C30.122,20.711 29.839,20.233 29.317,20.305C28.86,20.368 28.428,20.944 27.963,20.998C27.57,21.044 26.978,20.585 26.65,20.612C26.403,20.633 25.59,21.202 25.372,21.21C25.133,21.219 25.162,21.147 24.722,20.826L24.534,20.733C24.51,21.286 24.556,21.748 24.564,21.836C24.57,21.839 24.905,22.224 25.244,22.214ZM29.249,24.224C28.79,24.284 28.373,24.86 27.948,24.914C27.468,24.954 27.174,24.464 26.686,24.502C26.307,24.532 26.352,24.624 25.788,25.013C26.377,25.351 26.425,25.23 27.003,25.598C27.386,25.843 27.858,25.821 27.934,25.817C28.016,25.805 28.486,25.734 28.885,25.412C28.981,25.334 29.022,25.41 30.175,24.572C29.641,24.295 29.679,24.168 29.249,24.224ZM31.912,21.68C31.355,21.762 31.24,22.296 30.727,22.373C30.208,22.45 29.962,21.97 29.443,22.042C28.987,22.106 28.561,22.682 28.1,22.738C27.707,22.785 27.13,22.328 26.802,22.357C26.555,22.379 25.745,22.953 25.528,22.963C25.485,22.965 25.501,22.963 24.652,22.536C24.671,22.649 24.793,23.375 25.06,23.905C25.162,23.948 25.287,23.973 25.398,23.969C25.725,23.957 26.682,23.447 26.872,23.43C27.133,23.406 27.6,23.8 27.987,23.754C28.292,23.718 29.236,23.147 29.409,23.123C29.592,23.097 30.367,23.431 30.68,23.384C30.877,23.355 31.39,22.98 31.447,22.938C31.774,22.398 31.956,21.777 31.987,21.672L31.912,21.68Z" style="fill:rgb(11,80,160);fill-rule:nonzero;"/>
                </g>
                <g transform="matrix(0.896117,3.24196e-17,-3.24196e-17,0.896117,219.046,223.655)">
                    <path d="M25.885,21.14L26.266,19.909L26.654,21.083L28.029,20.906L26.893,21.745L27.334,22.885L26.266,22.221L25.218,23.044L25.651,21.838L24.582,21.153L25.885,21.14ZM29.932,20.692L30.342,19.426L30.745,20.57L32.168,20.324L30.986,21.216L31.422,22.33L30.32,21.738L29.183,22.666L29.673,21.413L28.521,20.859L29.932,20.692Z" style="fill:rgb(5,147,52);fill-rule:nonzero;"/>
                </g>
                <g transform="matrix(0.896117,3.24196e-17,-3.24196e-17,0.896117,219.046,223.655)">
                    <path d="M27.843,23.122L28.256,21.868L28.634,23.021L30.033,22.791L28.861,23.682L29.292,24.865L28.216,24.209L27.131,25.107L27.589,23.843L26.486,23.232L27.843,23.122Z" style="fill:rgb(5,147,52);fill-rule:nonzero;"/>
                </g>
                <g transform="matrix(0.896117,3.24196e-17,-3.24196e-17,0.896117,219.046,223.655)">
                    <path d="M25.196,17.434C25.44,17.233 25.694,17.524 25.74,17.732C25.786,17.942 26.075,18.193 26.293,18.177C26.314,18.117 26.463,17.683 26.589,17.434C26.712,17.192 27.085,17.078 27.281,17.13C27.696,17.239 27.894,17.105 27.854,17.468C27.814,17.832 27.656,18.044 27.683,18.008C27.776,18.002 28.448,17.961 28.836,17.866C29.091,17.804 29.33,17.688 29.58,17.611C29.661,17.586 29.785,17.578 29.868,17.603C30.146,17.687 30.574,17.645 30.682,17.564C30.865,17.428 30.833,17.23 30.587,17.298L29.731,17.503C29.24,17.645 28.301,17.703 28.298,17.456C28.294,17.165 28.724,17.035 28.826,17.067C28.865,17.079 29.607,16.598 29.718,16.743C29.842,16.905 29.861,17.165 29.457,17.221C28.495,17.356 28.473,17.332 28.474,17.393C28.476,17.582 28.821,17.549 28.923,17.535C29.033,17.52 29.821,17.25 29.952,17.231C30.119,17.207 30.757,16.824 30.987,16.958C31.03,16.984 31.582,17.304 31.27,17.518C31.072,17.654 30.221,17.832 29.96,17.831C30.006,17.848 30.278,17.946 30.551,17.946C30.616,17.946 31.367,17.949 31.326,18.192C31.256,18.585 31.39,18.74 31.057,18.752C30.854,18.76 30.678,18.69 30.829,18.466C30.854,18.429 30.909,18.193 30.285,18.345C29.877,18.445 29.311,18.296 29.381,18.314C29.333,18.437 29.302,18.67 29.429,18.708C29.363,18.742 28.894,18.981 28.578,19.062C28.042,19.2 27.956,19.318 27.956,19.139C27.956,18.982 28.201,18.72 28.354,18.77C28.399,18.785 28.386,18.727 28.936,18.654C28.936,18.654 28.669,18.432 28.843,18.346C29.049,18.245 28.525,18.342 28.442,18.398C28.301,18.492 28.262,18.399 26.471,19.204C26.239,19.309 25.545,19.437 25.495,19.464C25.32,19.554 25.002,19.353 25.161,19.155C25.231,19.068 25.385,18.804 25.536,18.942C25.679,19.071 26.123,18.922 26.171,18.906C26.461,18.809 25.97,18.73 25.916,18.682C25.831,18.607 25.494,18.129 25.494,18.023C25.492,17.979 24.795,17.764 25.196,17.434ZM26.732,14.321C26.495,14.011 25.81,13.605 25.723,13.554L26.431,13.707C26.388,13.654 26.093,13.294 25.722,13.234C25.908,13.224 26.563,13.327 26.68,13.406C26.616,13.343 26.073,12.808 25.8,12.709C25.88,12.728 26.522,12.875 26.761,13.078L26.461,12.504C26.527,12.527 27.011,12.702 27.181,12.998C27.158,12.917 27.002,12.378 26.664,12.086C26.723,12.114 27.175,12.327 27.344,12.54L27.456,11.955L27.836,12.23L28.078,11.754L28.391,12.174L28.888,11.6C28.871,11.661 28.776,12.01 28.747,12.375C28.805,12.274 29.064,11.965 29.411,11.792C29.353,11.891 28.843,12.759 28.772,13.068C28.871,12.96 29.623,12.143 30.15,11.869C30.072,11.972 29.381,12.891 29.212,13.18C29.299,13.097 29.849,12.565 30.437,12.316C30.367,12.4 29.641,13.27 29.57,13.373C29.704,13.303 30.153,13.137 30.571,13.103C30.442,13.192 29.24,14.02 28.986,14.258C28.809,14.422 27.727,14.461 26.732,14.321Z" style="fill:rgb(249,208,80);fill-rule:nonzero;"/>
                </g>
                <g transform="matrix(0.896117,3.24196e-17,-3.24196e-17,0.896117,219.046,223.655)">
                    <path d="M26.145,16.133C26.084,16.148 25.535,16.28 25.612,16.715C25.653,16.946 25.951,17.127 26.234,16.992C26.278,16.971 26.689,16.776 26.78,16.752L27.46,16.528C27.519,16.531 27.93,16.555 28.193,16.443C28.261,16.463 28.673,16.581 29.066,16.369C29.175,16.399 30.034,16.63 30.481,16.403C30.902,16.189 30.545,15.708 30.327,15.676C30.047,15.634 29.079,15.63 28.221,15.691C27.585,15.736 26.309,16.088 26.145,16.133Z" style="fill:white;fill-rule:nonzero;"/>
                </g>
                <g transform="matrix(0.896117,3.24196e-17,-3.24196e-17,0.896117,219.046,223.655)">
                    <path d="M30.366,15.665C30.308,15.656 30.128,15.63 29.629,15.629L29.748,16.076C29.771,16.179 29.79,16.403 29.896,16.495C29.947,16.502 30.248,16.543 30.524,16.403C30.952,16.187 30.589,15.697 30.366,15.665ZM27.761,15.743C27.821,15.8 28.087,16.349 28.181,16.452C28.316,16.51 28.768,16.557 29.064,16.381C29.103,16.31 28.767,15.708 28.735,15.652L27.761,15.743ZM26.841,16.736C26.898,16.763 27.428,16.573 27.427,16.54C27.414,16.425 27.326,16.332 27.272,16.229C27.204,16.104 27.114,15.995 27.006,15.902L26.137,16.122C26.186,16.198 26.407,16.535 26.841,16.736Z" style="fill:rgb(7,49,99);fill-rule:nonzero;"/>
                </g>
                <g transform="matrix(0.896117,3.24196e-17,-3.24196e-17,0.896117,219.046,223.655)">
                    <path d="M24.787,14.582C24.804,14.521 24.906,14.147 25.437,14.126C25.931,14.106 25.844,14.438 26.353,14.432C26.366,14.431 29.381,14.44 29.657,14.523C30.082,14.651 30.604,14.478 30.682,14.452C30.956,14.36 30.55,14.775 30.518,14.798C30.234,14.996 29.483,14.925 29.849,14.937C29.908,14.975 30.356,15.267 30.498,15.524C30.609,15.725 30.543,15.937 30.283,15.837C30.146,15.785 29.774,15.972 29.743,15.876C29.695,15.726 29.278,15.274 29.234,15.225C29.101,15.227 27.939,15.245 27.609,15.552C27.097,16.029 26.276,16.009 26.155,16.006C25.649,15.993 25.509,15.729 25.566,15.56C25.589,15.493 25.629,15.433 25.669,15.374C25.713,15.308 25.926,15.192 25.854,15.225C25.841,15.09 25.753,14.793 25.646,14.876C25.501,14.989 25.114,14.94 25.071,14.857C25.009,14.741 24.685,14.499 24.787,14.582Z" style="fill:rgb(5,147,52);fill-rule:nonzero;"/>
                </g>
                <g transform="matrix(0.896117,3.24196e-17,-3.24196e-17,0.896117,219.046,223.655)">
                    <path d="M26.1,14.371C26.363,14.202 27.295,13.799 27.838,13.766C28.66,13.716 29.243,13.916 29.461,13.992C29.731,14.085 30.057,14.387 30.188,14.406C30.438,14.444 30.321,14.594 30.2,14.725C30.135,14.796 29.635,15.626 28.225,15.761C26.868,15.891 26.664,15.502 26.485,15.382C26.3,15.259 26.143,14.857 26.143,14.728C26.142,14.58 25.903,14.497 26.1,14.371Z" style="fill:rgb(5,147,52);fill-rule:nonzero;"/>
                </g>
                <g transform="matrix(0.896117,3.24196e-17,-3.24196e-17,0.896117,219.046,223.655)">
                    <path d="M28.701,15.299C28.828,15.25 29.826,14.868 30.13,14.393C30.041,14.367 29.734,14.085 29.462,13.991C29.247,13.917 28.661,13.716 27.839,13.766C27.251,13.8 26.522,14.152 26.414,14.204L26.398,14.829C26.455,14.854 26.784,15.001 27.083,15.208C27.384,15.416 28.221,15.482 28.701,15.299Z" style="fill:rgb(0,73,61);fill-rule:nonzero;"/>
                </g>
                <g transform="matrix(0.896117,3.24196e-17,-3.24196e-17,0.896117,219.046,223.655)">
                    <path d="M19,18.145C19,13.81 19,9.476 19,5.141C11.806,2.837 11.647,3.783 4,4.757L3.396,4.874C3.394,5.625 3.445,6.487 3.454,6.627C1.962,6.797 0.936,6.798 0.716,6.798L0.602,7.003C0.528,7.148 0.124,7.941 0.255,9.01C0.715,12.775 1.468,14.811 1.448,18.098C5.75,18.142 7.207,17.191 11.217,16.774C14.219,16.462 16.608,17.359 19,18.145Z" style="fill:rgb(0,36,125);fill-rule:nonzero;"/>
                </g>
                <g transform="matrix(0.896117,3.24196e-17,-3.24196e-17,0.896117,219.046,223.655)">
                    <path d="M19,5.141C18.814,5.082 17.267,4.586 16.669,4.415C14.47,5.18 12.337,6.732 11.992,6.983C11.992,5.556 12,3.764 12,3.747C10.226,3.803 7.398,4.248 7,4.311C7,5.66 7.04,6.66 7.049,6.864C6.443,6.539 4.899,5.729 3.396,4.874C2.46,5.119 1.851,5.59 1.734,5.68C3.304,6.673 5.811,7.983 6.572,8.391C5.518,8.57 5.041,8.642 4.907,8.662C4.589,8.491 2.419,7.319 1.001,6.39L0.716,6.798C2.042,7.675 3.787,8.633 4.06,8.783C2.011,9.051 0.495,9.01 0.255,9.01C0.445,10.564 1.009,13.615 1.083,14.014C1.255,14.014 2.867,14.064 4.836,13.777C2.63,16.304 1.554,16.797 1.421,16.878L1.448,18.098C1.461,18.099 2.915,18.158 4.647,17.915C5.849,16.795 7.423,15.017 7.644,14.771C7.656,14.977 7.718,16.027 7.714,17.342C8.056,17.271 10.371,16.793 12.032,16.72C12.032,15.012 12.021,13.71 12.018,13.449C13.071,14.174 14.363,15.105 16.668,17.399C17.267,17.575 18.814,18.084 19,18.145L19,16.116C18.776,15.886 16.958,14.015 16.185,13.261C16.958,13.474 18.775,14.071 19,14.145L19,9.145C18.776,9.071 16.958,8.474 16.186,8.261C16.958,7.933 18.773,7.258 19,7.174C19,6.496 19,5.819 19,5.141Z" style="fill:rgb(238,238,238);fill-rule:nonzero;"/>
                </g>
                <g transform="matrix(0.896117,3.24196e-17,-3.24196e-17,0.896117,219.046,223.655)">
                    <path d="M11,3.801C10.759,3.819 9.761,3.893 8,4.157C8,4.263 7.977,6.292 8.127,9.139C4.901,9.668 3.623,10.017 0.388,10.012C0.423,10.253 0.574,11.299 0.892,13.007C4.147,13.009 5.214,12.678 8.315,12.137C8.334,12.407 8.546,14.753 8.54,17.175C10.003,16.889 10.908,16.803 11.115,16.783C11.117,14.596 11.052,12.292 11.043,11.77C14.146,11.518 15.812,12.097 19,13.145L19,10.145C15.753,9.077 14.158,8.522 11.003,8.771C10.975,5.95 11,3.917 11,3.801Z" style="fill:rgb(207,27,43);fill-rule:nonzero;"/>
                </g>
                <g transform="matrix(0.896117,3.24196e-17,-3.24196e-17,0.896117,219.046,223.655)">
                    <path d="M19,5.141L17.539,4.676C14.538,5.737 12.397,7.298 11.992,7.593L11.992,7.714C12.892,7.685 13.445,7.738 13.571,7.749C15.491,6.588 18.023,5.706 19,5.343L19,5.141ZM1.734,5.68C1.316,5.999 1.052,6.326 1.001,6.39C2.419,7.319 4.589,8.491 4.907,8.662C5.041,8.642 5.518,8.57 6.571,8.391C5.941,8.053 3.337,6.694 1.734,5.68ZM7.047,13.391C6.063,14.525 4.293,16.647 2.288,18.105C2.415,18.103 3.069,18.093 3.882,18.009C5.366,16.716 7.229,14.568 7.602,14.148L7.529,13.299L7.047,13.391ZM19,17.947L19,16.727C18.709,16.428 16.389,14.04 15.313,13.04C14.381,12.827 13.711,12.763 13.57,12.749C15.493,14.279 18.004,16.922 19,17.947Z" style="fill:rgb(207,27,43);fill-rule:nonzero;"/>
                </g>
            </g>
        </g>
    </g>
</svg>
