<?xml version="1.0" encoding="UTF-8" standalone="no"?>
<!DOCTYPE svg PUBLIC "-//W3C//DTD SVG 1.1//EN" "http://www.w3.org/Graphics/SVG/1.1/DTD/svg11.dtd">
<svg width="100%" height="100%" viewBox="0 0 512 512" version="1.1" xmlns="http://www.w3.org/2000/svg" xmlns:xlink="http://www.w3.org/1999/xlink" xml:space="preserve" xmlns:serif="http://www.serif.com/" style="fill-rule:evenodd;clip-rule:evenodd;stroke-linejoin:round;stroke-miterlimit:2;">
    <g>
        <g>
            <path d="M411.553,116.384C327.618,129.405 325.974,131.604 259.985,110.838C187.662,88.078 182.392,98.415 100.444,108.861C77.104,111.835 55.74,130.85 58.828,156.107C59.101,158.339 60.381,168.805 62.947,183.918C127.66,184.009 166.293,164.313 212,170.489C244.121,174.83 283.613,193.96 315.993,197.848C354.492,202.47 418.776,185.45 463.21,184.025C461.315,170.062 461.204,170.275 459.378,156.216C456.362,133 437.012,112.436 411.553,116.384Z" style="fill:rgb(0,48,130);fill-rule:nonzero;"/>
            <path d="M62.947,183.918C127.66,184.009 166.293,164.313 212,170.489C244.121,174.83 283.613,193.96 315.993,197.848C354.492,202.47 418.776,185.45 463.21,184.025C463.988,189.755 468.08,219.897 468.374,256.129C429.281,257.388 369.373,270.699 332.042,270.921C285.674,271.198 246.992,244.123 200,241.659C162.52,239.694 126.646,257.642 72.09,257.094C72.273,227.338 66.362,204.033 62.947,183.918Z" style="fill:rgb(238,238,238);fill-rule:nonzero;"/>
            <path d="M72.09,257.094C147.945,257.855 169.39,227.263 243.998,250.155C292.768,265.12 305.729,274.327 357.49,269.421C385.992,266.72 436.505,257.155 468.374,256.129C468.628,287.618 465.654,311.035 463.852,330.151C360.626,335.52 358.488,359.309 259.997,327.489C165.452,296.944 163.416,328.044 64.041,328.133C65.883,317.04 71.921,284.334 72.09,257.094Z" style="fill:rgb(40,151,40);fill-rule:nonzero;"/>
            <path d="M64.041,328.133C63.673,330.352 61.123,345.706 59.699,355.921C56.353,379.924 75.267,400.977 100.472,397.677C182.335,386.958 187.634,376.33 259.985,399.708C297.334,411.775 314.968,422.501 412.318,408.636C435.684,405.308 458.974,381.556 461.247,357.894C462.115,348.647 462.984,339.399 463.852,330.151C360.626,335.52 358.488,359.309 259.997,327.489C165.452,296.944 163.416,328.044 64.041,328.133Z" style="fill:rgb(255,206,0);fill-rule:nonzero;"/>
            <path d="M222.666,100.424C242.254,104.414 272.535,115.273 289.328,119.832C289.328,216.202 289.328,312.572 289.328,408.942C272.86,404.352 242.349,393.132 222.666,389.015C222.666,292.818 222.666,196.621 222.666,100.424Z" style="fill:rgb(210,16,52);fill-rule:nonzero;"/>
            <path d="M133.012,132.962C128.2,120.273 125.517,112.664 124.891,110.89C121.235,123.14 118.716,133.423 118.233,135.396C104.291,137.632 96.127,138.565 94.197,138.785C95.833,139.744 101.967,143.34 114.781,150.527C114.368,152.47 112.263,162.386 110.186,174.934C121.187,163.549 125.833,158.878 127.207,157.496C138.651,163.936 145.169,167.781 146.719,168.696C143.89,161.333 141.061,153.971 138.232,146.608C147.74,137.425 155.446,130.587 156.975,129.23C155.053,129.495 148.219,130.437 133.012,132.962Z" style="fill:rgb(255,206,0);fill-rule:nonzero;"/>
        </g>
    </g>
</svg>
