<?xml version="1.0" encoding="UTF-8" standalone="no"?>
<!DOCTYPE svg PUBLIC "-//W3C//DTD SVG 1.1//EN" "http://www.w3.org/Graphics/SVG/1.1/DTD/svg11.dtd">
<svg width="100%" height="100%" viewBox="0 0 512 512" version="1.1" xmlns="http://www.w3.org/2000/svg" xmlns:xlink="http://www.w3.org/1999/xlink" xml:space="preserve" xmlns:serif="http://www.serif.com/" style="fill-rule:evenodd;clip-rule:evenodd;stroke-linejoin:round;stroke-miterlimit:2;">
    <g>
        <g>
            <path d="M461.247,357.894C458.974,381.556 435.684,405.308 412.318,408.636C308.939,423.36 296.194,410.772 244.032,394.61C189.598,377.745 160.51,389.816 100.472,397.677C75.267,400.977 56.353,379.924 59.699,355.921C64.124,324.182 72.441,288.14 72.083,253.166C71.737,219.335 63.762,196.456 58.828,156.107C55.74,130.85 77.104,111.835 100.444,108.861C182.392,98.415 187.662,88.078 259.985,110.838C325.827,131.557 327.444,129.432 411.553,116.384C437.012,112.436 456.362,133 459.378,156.216C470.836,244.4 471.98,246.152 461.247,357.894Z" style="fill:rgb(198,10,29);fill-rule:nonzero;"/>
            <path d="M63.907,189.462C128.705,189.545 166.203,169.856 212,176.045C244.121,180.385 283.613,199.515 315.993,203.403C354.448,208.021 419.372,191 463.947,189.569C473.053,259.766 465.157,316.452 464.403,324.343C362.769,328.979 360.54,354.417 259.997,321.933C165.891,291.53 163.885,322.514 64.963,322.589C76.864,251.022 72.462,237.987 63.907,189.462Z" style="fill:rgb(255,196,0);fill-rule:nonzero;"/>
            <path d="M160.135,234.048C160.169,236.695 160.336,249.79 159.859,267.141C159.354,285.511 171.367,297.858 189.417,297.264C204.358,296.773 222.666,287.355 222.666,266.793L222.666,233.46C209.909,230.792 192.785,228.386 160.135,234.048Z" style="fill:rgb(234,89,110);fill-rule:nonzero;"/>
            <path d="M189.635,219.555C191.571,219.469 204.923,218.639 222.666,222.349L222.666,255.682C205.283,252.047 192.061,252.769 189.668,252.868C189.715,235.452 189.648,222.22 189.635,219.555Z" style="fill:rgb(244,162,178);fill-rule:nonzero;"/>
            <path d="M159.906,222.919C162.265,222.514 175.946,220.164 189.635,219.555C189.648,222.22 189.715,235.452 189.668,252.868C187.29,252.967 176.048,253.434 160.097,256.134C160.363,238.872 159.982,225.575 159.906,222.919Z" style="fill:rgb(221,46,68);fill-rule:nonzero;"/>
            <path d="M189.389,186.159C209.635,185.478 222.666,197.782 222.666,205.682C222.666,208.548 222.666,218.089 189.635,219.555C167.502,220.539 159.565,212.617 159.207,206.045C158.686,196.462 172.165,186.74 189.389,186.159Z" style="fill:rgb(234,89,110);"/>
            <path d="M189.389,186.159C210.756,185.441 222.666,194 222.666,197.349C222.666,202.425 194.901,202.647 189.514,202.853C187.014,202.949 159.033,204.021 158.703,197.536C158.49,193.365 171.325,186.768 189.389,186.159Z" style="fill:rgb(255,172,51);"/>
            <path d="M141.262,226.512L150.524,224.647C151.756,258.4 149.234,293.449 148.728,301.919L139.041,303.675C139.52,297.639 142.798,261.197 141.262,226.512ZM233.776,225.008L244.887,228.204L244.887,305.982L233.776,302.786L233.776,225.008Z" style="fill:rgb(153,170,181);fill-rule:nonzero;"/>
            <path d="M130.424,294.392C132.709,293.963 152.845,290.177 159.025,289.209L158.526,300.3C152.239,301.265 131.714,305.039 129.385,305.467L130.424,294.392ZM222.666,289.015C235.426,291.684 253.364,297.539 255.997,298.399L255.997,309.51C253.364,308.65 235.426,302.795 222.666,300.126L222.666,289.015ZM140.618,215.231L149.994,213.396L150.524,224.647L141.262,226.512L140.618,215.231ZM233.776,213.897L244.887,217.093L244.887,228.204L233.776,225.008L233.776,213.897Z" style="fill:rgb(102,117,127);fill-rule:nonzero;"/>
        </g>
    </g>
</svg>
