<?xml version="1.0" encoding="UTF-8" standalone="no"?>
<!DOCTYPE svg PUBLIC "-//W3C//DTD SVG 1.1//EN" "http://www.w3.org/Graphics/SVG/1.1/DTD/svg11.dtd">
<svg width="100%" height="100%" viewBox="0 0 512 512" version="1.1" xmlns="http://www.w3.org/2000/svg" xmlns:xlink="http://www.w3.org/1999/xlink" xml:space="preserve" xmlns:serif="http://www.serif.com/" style="fill-rule:evenodd;clip-rule:evenodd;stroke-linejoin:round;stroke-miterlimit:2;">
    <g>
        <g>
            <path d="M200.444,97.605C171.743,96.51 124.506,105.794 100.444,108.861C77.104,111.835 55.74,130.85 58.828,156.107C63.964,198.102 72.314,220.622 72.09,257.094C127.382,257.649 159.054,240.054 200.444,241.676C200.444,193.652 200.444,145.628 200.444,97.605ZM152.686,204.763C142.935,198.426 143.134,198.611 133.21,192.773C124.844,201.993 125.065,201.828 116.9,211.447C118.677,198.444 118.497,198.632 120.635,185.476C109.847,179.276 110.01,179.433 99.212,173.183C101.157,172.945 109.194,171.961 123.434,169.51C123.828,167.429 125.925,156.359 128.965,143.61C132.053,151.379 135.141,159.148 138.229,166.917C152.916,164.35 160.426,163.348 162.364,163.089C160.839,164.5 153.228,171.538 143.869,181.317C144.593,183.186 149.35,195.464 152.686,204.763Z" style="fill:rgb(31,66,155);fill-rule:nonzero;"/>
            <path d="M411.553,116.384C376.449,121.83 340.003,129.638 307.985,124.076C275.385,118.414 234.895,98.922 200.444,97.605C200.444,145.628 200.444,193.652 200.444,241.676C237.526,243.132 280.172,265.838 316.236,270.099C354.522,274.623 422.826,257.595 468.374,256.129C467.996,209.546 461.925,175.818 459.378,156.216C456.362,133 437.012,112.436 411.553,116.384Z" style="fill:rgb(238,238,238);fill-rule:nonzero;"/>
            <path d="M72.09,257.094C71.886,289.997 63.897,325.81 59.699,355.921C56.353,379.924 75.267,400.977 100.472,397.677C182.335,386.958 187.634,376.33 259.985,399.708C297.334,411.775 314.968,422.501 412.318,408.636C435.684,405.308 458.974,381.556 461.247,357.894C467.678,290.936 468.576,281.156 468.374,256.129C407.399,258.092 347.487,280.409 293.618,265.655C252.757,254.463 225.485,239.765 187.227,241.896C146.293,244.177 123.127,257.606 72.09,257.094Z" style="fill:rgb(212,45,39);fill-rule:nonzero;"/>
            <path d="M138.229,166.917C135.141,159.148 132.053,151.379 128.965,143.61C125.925,156.359 123.828,167.429 123.434,169.51C109.194,171.961 101.157,172.945 99.212,173.183C100.922,174.173 100.903,174.137 120.635,185.476C118.497,198.632 118.677,198.444 116.9,211.447C125.065,201.828 124.844,201.993 133.21,192.773C143.134,198.611 142.935,198.426 152.686,204.763C149.35,195.464 144.593,183.186 143.869,181.317C153.228,171.538 160.839,164.5 162.364,163.089C160.426,163.348 152.916,164.35 138.229,166.917Z" style="fill:white;fill-rule:nonzero;"/>
        </g>
    </g>
</svg>
