<?xml version="1.0" encoding="UTF-8" standalone="no"?>
<!DOCTYPE svg PUBLIC "-//W3C//DTD SVG 1.1//EN" "http://www.w3.org/Graphics/SVG/1.1/DTD/svg11.dtd">
<svg width="100%" height="100%" viewBox="0 0 512 512" version="1.1" xmlns="http://www.w3.org/2000/svg" xmlns:xlink="http://www.w3.org/1999/xlink" xml:space="preserve" xmlns:serif="http://www.serif.com/" style="fill-rule:evenodd;clip-rule:evenodd;stroke-linejoin:round;stroke-miterlimit:2;">
    <g>
        <g>
            <path d="M461.247,357.894C458.974,381.556 435.684,405.308 412.318,408.636C308.939,423.36 296.194,410.772 244.032,394.61C189.598,377.745 160.51,389.816 100.472,397.677C75.267,400.977 56.353,379.924 59.699,355.921C64.445,321.88 73.245,285.12 71.958,247.429C70.917,216.956 63.537,194.612 58.828,156.107C55.74,130.85 77.104,111.835 100.444,108.861C182.392,98.415 187.662,88.078 259.985,110.838C325.827,131.557 327.444,129.432 411.553,116.384C437.012,112.436 456.362,133 459.378,156.216C470.841,244.445 471.982,246.128 461.247,357.894Z" style="fill:rgb(222,41,16);fill-rule:nonzero;"/>
            <path d="M179.657,141.969L187.824,145.469L194.423,139.016L193.175,148.033L201.222,152.409L192.238,153.939L190.648,162.911L186.345,155.068L177.488,156.874L183.626,149.895L179.657,141.969ZM231.565,179.074L227.61,186.264L233.899,194.407L224.91,190.955L220.622,198.067L219.022,188.816L210.078,185.829L218.088,182.756L216.844,173.549L223.399,181.103L231.565,179.074ZM220.933,218.629L223.91,227.824L232.988,230.199L225.755,233.9L228.388,243.216L220.933,236.384L213.477,240.277L216.1,231.989L208.866,225.499L217.944,226.642L220.933,218.629ZM180.825,253.177L188.324,256.621L194.528,250.139L193.338,259.157L201.222,263.52L192.432,265.061L190.865,274.026L186.858,266.204L178.563,268.026L184.38,261.054L180.825,253.177ZM136.647,169.887C143.312,185.612 147.299,195.615 148.195,197.864C164.261,195.39 174.032,194.703 176.29,194.545C167.753,202.427 156.589,215.043 154.95,216.894C155.665,219.178 158.924,229.602 163.217,245.643C161.491,244.519 153.387,239.24 141.467,231.863C139.805,233.658 128.004,246.399 120.365,253.999C120.997,251.5 124.243,238.664 126.929,222.443C125.004,221.138 106.03,208.279 102.773,206.263C104.991,205.941 113.541,204.702 130.331,201.174C133.221,184.919 136.08,172.376 136.647,169.887Z" style="fill:rgb(255,222,2);fill-rule:nonzero;"/>
        </g>
    </g>
</svg>
