<?xml version="1.0" encoding="UTF-8" standalone="no"?>
<!DOCTYPE svg PUBLIC "-//W3C//DTD SVG 1.1//EN" "http://www.w3.org/Graphics/SVG/1.1/DTD/svg11.dtd">
<svg width="100%" height="100%" viewBox="0 0 512 512" version="1.1" xmlns="http://www.w3.org/2000/svg" xmlns:xlink="http://www.w3.org/1999/xlink" xml:space="preserve" xmlns:serif="http://www.serif.com/" style="fill-rule:evenodd;clip-rule:evenodd;stroke-linejoin:round;stroke-miterlimit:2;">
    <g>
        <g>
            <path d="M461.247,357.894C458.974,381.556 435.684,405.308 412.318,408.636C308.939,423.36 296.194,410.772 244.032,394.61C189.598,377.745 160.51,389.816 100.472,397.677C75.267,400.977 56.353,379.924 59.699,355.921C64.445,321.88 73.245,285.12 71.958,247.429C70.917,216.956 63.537,194.612 58.828,156.107C55.74,130.85 77.104,111.835 100.444,108.861C182.392,98.415 187.662,88.078 259.985,110.838C325.827,131.557 327.444,129.432 411.553,116.384C437.012,112.436 456.362,133 459.378,156.216C470.841,244.445 471.982,246.128 461.247,357.894Z" style="fill:rgb(0,33,173);fill-rule:nonzero;"/>
            <path d="M442.588,392.783C459.434,376.765 460.944,361.045 461.247,357.894C471.973,246.225 470.846,244.48 459.378,156.216C456.362,133 437.012,112.436 411.553,116.384C327.618,129.405 325.974,131.604 259.985,110.838C187.662,88.078 182.392,98.415 100.444,108.861C97.91,109.184 83.807,110.981 71.567,122.491C152.649,176.31 166.816,160.319 262.475,260.763C339.983,342.148 347.243,333.323 442.588,392.783Z" style="fill:rgb(27,138,66);fill-rule:nonzero;"/>
            <path d="M154.227,292.868L155.542,299.075L161.324,298.182L156.57,302.841L157.994,308.869L153.572,305.623L148.773,310.187L150.804,303.788L146.525,300.621L152.075,299.65L154.227,292.868ZM141.023,223.819L135.086,232.133L135.172,221.664L126.547,221.792L133.2,214.42L127.916,206.008L136.631,207.538L138.916,197.202L143.049,206.3L151.234,201.648L147.51,211.597L155.022,216.155L146.535,219.363L147.581,229.558L141.023,223.819ZM106.101,288.371L98.589,296.015L100.378,285.891L91.275,285.19L99.52,278.88L95.517,270.641L104.098,272.656L107.812,262.906L110.657,271.76L119.175,267.446L114.345,276.899L121.156,281.36L112.343,284.32L112.019,294.298L106.101,288.371ZM173.999,272.127L167.119,279.876L168.055,269.617L159.322,269.399L166.751,262.518L162.505,254.361L170.941,256.1L174.318,246.199L177.592,255.335L186.545,251.637L181.796,260.831L189.616,266.147L180.184,268.282L180.715,278.428L173.999,272.127ZM133.86,363.495L126.136,371.689L127.473,361.312L117.782,361.387L126.397,354.217L122.325,346.121L131.334,347.552L135.607,337.382L138.458,346.34L147.908,341.809L142.584,351.502L150.479,356.02L140.601,359.129L140.903,369.266L133.86,363.495Z" style="fill:white;fill-rule:nonzero;"/>
            <path d="M216.411,243.386C216.411,222.704 232.738,206.773 255.997,214.366C276.195,220.959 295.583,243.507 295.583,266.158C295.583,286.785 279.388,301.179 255.997,293.543C236.21,287.084 216.411,266.3 216.411,243.386Z" style="fill:rgb(255,198,57);fill-rule:nonzero;"/>
            <path d="M232.243,228.593C233.529,230.12 244.61,243.273 250.498,245.601C260.753,249.656 270.241,244.075 270.241,238.205L279.74,237.223L279.74,249.668L288.795,258.559C287.453,259.412 281.698,263.069 271.829,268.911L271.829,287.566L261.674,281.764L260.941,268.567C260.821,267.234 259.062,263.014 254.275,261.461C253.169,261.102 243.294,257.898 241.898,253.836C241.69,253.235 233.161,251.944 225.088,251.739L235.743,239.552L232.243,234.827L232.243,228.593Z" style="fill:rgb(27,138,66);fill-rule:nonzero;"/>
            <path d="M385.216,137.774C387.537,135.555 414.054,155.757 417.048,159.434C419.225,162.106 422.268,183.496 424.86,188.416C425.3,189.25 430.067,198.297 434.618,195.02C437.566,192.89 448.459,193.627 450.347,197.161C449.534,197.733 442.299,202.822 441.992,206.359C429.598,211.836 408.344,222.707 398.312,228.858C385.567,236.675 381.751,236.74 372.802,241.434C352.154,252.254 332.947,248.583 324.327,246.885C318.459,245.731 316.493,243.759 316.197,243.612C317.209,243.626 318.861,242.689 324.327,243.729C333.81,245.525 358.678,240.968 366.362,237.617C371.853,235.221 390.821,220.269 393.742,218.565C400.146,214.831 406.492,204.223 399.853,199.706C395.34,196.636 371.868,188.845 365.159,182.913C364.655,182.467 359.269,177.712 359.895,176.35C360.495,175.043 368.414,175.172 369.161,175.184C380.841,175.373 391.907,179.759 397.834,184.078C404.262,188.762 409.336,180.686 404.93,171.999C400.974,164.176 395.167,164.237 391.861,157.276C391.156,155.786 383.439,139.453 385.216,137.774Z" style="fill:rgb(255,198,57);fill-rule:nonzero;"/>
        </g>
    </g>
</svg>
