<?xml version="1.0" encoding="UTF-8" standalone="no"?>
<!DOCTYPE svg PUBLIC "-//W3C//DTD SVG 1.1//EN" "http://www.w3.org/Graphics/SVG/1.1/DTD/svg11.dtd">
<svg width="100%" height="100%" viewBox="0 0 512 512" version="1.1" xmlns="http://www.w3.org/2000/svg" xmlns:xlink="http://www.w3.org/1999/xlink" xml:space="preserve" xmlns:serif="http://www.serif.com/" style="fill-rule:evenodd;clip-rule:evenodd;stroke-linejoin:round;stroke-miterlimit:2;">
    <g>
        <g>
            <path d="M461.247,357.894C458.974,381.556 435.684,405.308 412.318,408.636C405.199,409.65 352.729,417.123 322.66,415.143C322.66,318.719 322.66,222.295 322.66,125.871C349.371,127.584 395.253,118.913 411.553,116.384C437.012,112.436 456.362,133 459.378,156.216C470.841,244.445 471.982,246.128 461.247,357.894Z" style="fill:rgb(237,41,57);fill-rule:nonzero;"/>
            <path d="M100.444,108.861C77.104,111.835 55.74,130.85 58.828,156.107C63.896,197.549 72.023,219.664 72.094,255.171C72.162,289.17 64.081,324.492 59.699,355.921C56.353,379.924 75.267,400.977 100.472,397.677C124.511,394.53 161.227,387.063 189.323,386.155C189.199,363.074 189.333,363.22 189.333,97.638C161.905,98.503 123.034,105.981 100.444,108.861Z" style="fill:rgb(0,36,149);fill-rule:nonzero;"/>
            <path d="M189.333,97.638C238.99,96.075 278.553,123.038 322.66,125.871C322.66,222.295 322.66,318.719 322.66,415.143C278.546,412.234 239.006,384.551 189.323,386.155C189.199,363.074 189.333,363.22 189.333,97.638Z" style="fill:rgb(238,238,238);fill-rule:nonzero;"/>
        </g>
    </g>
</svg>
