<?xml version="1.0" encoding="UTF-8" standalone="no"?>
<!DOCTYPE svg PUBLIC "-//W3C//DTD SVG 1.1//EN" "http://www.w3.org/Graphics/SVG/1.1/DTD/svg11.dtd">
<svg width="100%" height="100%" viewBox="0 0 512 512" version="1.1" xmlns="http://www.w3.org/2000/svg" xmlns:xlink="http://www.w3.org/1999/xlink" xml:space="preserve" xmlns:serif="http://www.serif.com/" style="fill-rule:evenodd;clip-rule:evenodd;stroke-linejoin:round;stroke-miterlimit:2;">
    <g>
        <g>
            <path d="M461.247,357.894C458.974,381.556 435.684,405.308 412.318,408.636C308.939,423.36 296.194,410.772 244.032,394.61C189.598,377.745 160.51,389.816 100.472,397.677C75.267,400.977 56.353,379.924 59.699,355.921C64.124,324.182 72.441,288.14 72.083,253.166C71.737,219.335 63.762,196.456 58.828,156.107C55.74,130.85 77.104,111.835 100.444,108.861C182.392,98.415 187.662,88.078 259.985,110.838C325.827,131.557 327.444,129.432 411.553,116.384C437.012,112.436 456.362,133 459.378,156.216C470.836,244.4 471.98,246.152 461.247,357.894Z" style="fill:rgb(0,128,0);fill-rule:nonzero;"/>
            <path d="M401.25,282.129L403.266,288.291L410.631,287.202L404.709,292.04L406.649,298.02L400.972,294.919L395.054,299.558L397.351,293.133L391.625,290.01L398.81,288.953L401.25,282.129ZM381.073,212.654L372.955,220.729L373.548,210.411L362.531,210.219L371.508,203.306L365.785,195.1L376.385,196.729L380.021,186.615L384.512,195.566L394.967,190.963L389.924,200.698L399.512,205.084L388.419,208.315L389.645,218.393L381.073,212.654ZM338.194,275.993L330.406,283.122L331.178,272.874L320.993,270.977L329.46,265.534L324.349,256.486L334.275,259.585L338.157,249.925L342.127,259.292L352.588,255.551L347.14,264.888L356.268,269.939L345.35,272.353L346.148,282.547L338.194,275.993ZM425.893,260.469L417.418,268.624L418.232,258.252L406.739,258.38L416.247,251.174L410.298,243.099L421.416,244.518L425.344,234.387L429.845,243.374L440.629,239.031L435.223,248.614L444.66,253.353L433.469,256.196L434.328,266.345L425.893,260.469ZM379.573,354.205L371.406,362.088L372.376,351.682L361.59,351.144L370.708,344.399L365.361,335.873L375.905,337.802L380.238,327.402L384.076,336.816L394.914,332.292L389.013,342.265L397.971,347.054L386.966,350.027L387.454,360.319L379.573,354.205ZM282.273,306.22C259.983,299.476 238.498,273.526 238.498,248.524C238.498,226.126 255.792,210.641 282.273,218.654C284.449,219.312 295.735,222.727 307.027,232.614C296.697,218.829 280.59,207.111 265.652,202.188C231.516,190.937 210.722,215.229 210.722,242.543C210.722,275.419 240.352,303.738 265.652,312.077C284.418,318.262 298.676,312.786 307.06,304.742C300.929,307.821 292.27,309.245 282.273,306.22ZM189.044,175.061C189.175,205.014 165.235,233.689 140.61,238.818C107.577,245.697 87.658,207.213 84.386,189.075C78.297,155.318 105.437,129.68 132.823,125.177C165.4,119.821 188.914,145.278 189.044,175.061Z" style="fill:rgb(255,224,0);fill-rule:nonzero;"/>
            <path d="M142.592,226.239L132.125,228.395C132.575,227.746 135.349,223.755 136.931,219.77C139.283,213.822 143.92,192.735 142.047,178.186C141.233,171.828 140.994,171.94 141.873,165.432C142.266,166.683 143.49,167.589 144.456,173.662C145.756,181.832 146.802,205.293 145.781,211.562C145.635,212.443 143.983,222.476 145.423,222.72C146.009,222.821 146.544,223.133 147.057,223.432C147.657,223.781 148.574,225.728 148.331,225.078L142.592,226.239Z" style="fill:rgb(128,32,0);fill-rule:nonzero;"/>
            <path d="M115.648,150.536L123.018,149.329C132.493,156.601 137.762,160.764 139.035,161.769L133.359,152.967L137.784,149.166L138.59,136.969L151.398,133.747L149.876,140.715L156.653,143.277L149.711,155.604L165.646,151.774L162.9,162.003L171.545,160.979L175.363,173.024C173.707,173.038 165.97,173.106 154.678,173.881L165.179,180.679L165.631,193.259C163.889,191.738 155.072,184.037 143.432,174.75L142.35,184.308L141.89,193.76L137.582,196.099L135.847,189.286L132.089,198.973L125.936,200.107C127.47,186.514 129.017,176.162 129.327,174.086C126.799,175.073 108.494,182.222 97.47,185.775L104.675,173.252C106.049,172.755 111.689,170.716 121.744,166.757C111.342,162.904 106.489,161.046 105.166,160.54C107.049,160.623 114.027,160.932 128.711,161.163C126.691,160.466 110.371,154.835 103.491,152.35L115.648,150.536Z" style="fill:rgb(0,128,0);fill-rule:nonzero;"/>
        </g>
    </g>
</svg>
