<?xml version="1.0" encoding="UTF-8" standalone="no"?>
<!DOCTYPE svg PUBLIC "-//W3C//DTD SVG 1.1//EN" "http://www.w3.org/Graphics/SVG/1.1/DTD/svg11.dtd">
<svg width="100%" height="100%" viewBox="0 0 512 512" version="1.1" xmlns="http://www.w3.org/2000/svg" xmlns:xlink="http://www.w3.org/1999/xlink" xml:space="preserve" xmlns:serif="http://www.serif.com/" style="fill-rule:evenodd;clip-rule:evenodd;stroke-linejoin:round;stroke-miterlimit:2;">
    <g>
        <g>
            <path d="M411.553,116.384C327.618,129.405 325.974,131.604 259.985,110.838C187.662,88.078 182.392,98.415 100.444,108.861C77.104,111.835 55.74,130.85 58.828,156.107C63.964,198.102 72.314,220.622 72.09,257.094C146.13,257.837 170.846,227.83 242.137,249.596C277.777,260.478 304.713,272.94 341.554,270.623C385.954,267.831 431.257,257.324 468.374,256.129C467.996,209.546 461.925,175.818 459.378,156.216C456.362,133 437.012,112.436 411.553,116.384Z" style="fill:rgb(251,209,22);fill-rule:nonzero;"/>
            <path d="M72.09,257.094C146.13,257.837 170.846,227.83 242.137,249.596C277.777,260.478 304.713,272.94 341.554,270.623C385.954,267.831 431.257,257.324 468.374,256.129C468.631,287.953 465.599,311.436 463.317,335.852C361.798,341.869 356.371,364.262 261.937,333.684C166.041,302.634 163.884,333.585 63.124,333.682C65.503,319.192 71.916,285.117 72.09,257.094Z" style="fill:rgb(34,64,140);fill-rule:nonzero;"/>
            <path d="M59.699,355.921C56.353,379.924 75.267,400.977 100.472,397.677C182.335,386.958 187.634,376.33 259.985,399.708C297.334,411.775 314.968,422.501 412.318,408.636C435.684,405.308 458.974,381.556 461.247,357.894C461.937,350.547 462.627,343.199 463.317,335.852C361.798,341.869 356.371,364.262 261.937,333.684C166.041,302.634 163.884,333.585 63.124,333.682C60.966,346.832 59.947,354.138 59.699,355.921Z" style="fill:rgb(206,32,40);fill-rule:nonzero;"/>
        </g>
    </g>
</svg>
