<?xml version="1.0" encoding="UTF-8" standalone="no"?>
<!DOCTYPE svg PUBLIC "-//W3C//DTD SVG 1.1//EN" "http://www.w3.org/Graphics/SVG/1.1/DTD/svg11.dtd">
<svg width="100%" height="100%" viewBox="0 0 512 512" version="1.1" xmlns="http://www.w3.org/2000/svg" xmlns:xlink="http://www.w3.org/1999/xlink" xml:space="preserve" xmlns:serif="http://www.serif.com/" style="fill-rule:evenodd;clip-rule:evenodd;stroke-linejoin:round;stroke-miterlimit:2;">
    <g transform="matrix(1.11593,-4.03717e-17,4.03717e-17,1.11593,-13.9687,-19.1113)">
        <g transform="matrix(11.1111,-3.0404e-31,-4.93038e-32,11.1111,-2371.15,-2417.74)">
            <g>
                <g transform="matrix(0.896117,3.24196e-17,-3.24196e-17,0.896117,219.046,223.655)">
                    <path d="M1.448,18.098C1.43,21.098 0.721,24.206 0.333,26.993C0.032,29.153 1.734,31.048 4.002,30.751C11.37,29.786 11.847,28.83 18.359,30.934C21.72,32.02 23.307,32.985 32.069,31.737C34.172,31.438 36.268,29.3 36.472,27.17C37.045,21.202 37.132,20.296 37.114,18.012C33.595,18.125 28.204,19.323 24.844,19.343C20.671,19.368 17.189,16.931 12.96,16.709C9.587,16.532 6.358,18.148 1.448,18.098Z" style="fill:rgb(58,117,196);fill-rule:nonzero;"/>
                </g>
                <g transform="matrix(0.896117,3.24196e-17,-3.24196e-17,0.896117,219.046,223.655)">
                    <path d="M37.114,18.012C37.08,13.821 36.527,10.739 36.304,9.019C36.033,6.93 34.291,5.079 32,5.435C24.446,6.606 24.298,6.804 18.359,4.935C11.85,2.887 11.375,3.817 4,4.757C1.899,5.025 -0.023,6.737 0.255,9.01C0.715,12.775 1.468,14.811 1.448,18.098C8.275,18.167 10.205,15.414 16.92,17.474C21.309,18.821 22.476,19.649 27.134,19.208C29.699,18.965 34.245,18.104 37.114,18.012Z" style="fill:rgb(255,198,30);fill-rule:nonzero;"/>
                </g>
                <g transform="matrix(0.896117,3.24196e-17,-3.24196e-17,0.896117,219.046,223.655)">
                    <path d="M1.448,18.098C8.275,18.167 10.205,15.414 16.92,17.474C21.309,18.821 22.476,19.649 27.134,19.208C29.699,18.965 34.245,18.104 37.114,18.012C37.137,20.846 36.869,22.953 36.707,24.674C27.416,25.157 27.224,27.298 18.36,24.434C9.851,21.685 9.667,24.484 0.724,24.492C0.89,23.494 1.433,20.55 1.448,18.098Z" style="fill:rgb(206,17,38);fill-rule:nonzero;"/>
                </g>
                <g transform="matrix(0.896117,3.24196e-17,-3.24196e-17,0.896117,219.046,223.655)">
                    <path d="M0.625,11.513C6.449,11.521 9.926,9.748 14.04,10.304C16.931,10.695 20.485,12.416 23.399,12.766C26.864,13.182 32.65,11.651 36.649,11.522C36.719,12.038 37.087,14.751 37.114,18.012C33.595,18.125 28.204,19.323 24.844,19.343C20.671,19.368 17.189,16.931 12.96,16.709C9.587,16.532 6.358,18.148 1.448,18.098C1.465,15.42 0.933,13.323 0.625,11.513Z" style="fill:rgb(238,238,238);fill-rule:nonzero;"/>
                </g>
                <g transform="matrix(0.896117,3.24196e-17,-3.24196e-17,0.896117,219.046,223.655)">
                    <path d="M1.37,5.991L1.369,5.991C0.432,6.883 0.134,8.025 0.255,9.01C0.697,12.631 1.416,14.687 1.447,17.745C1.48,20.89 0.734,24.117 0.333,26.993C0.298,27.244 0.079,28.816 1.39,29.983C9.557,23.907 10.259,20.729 17.5,17.655C10.558,10.288 7.246,10.013 1.37,5.991Z" style="fill:rgb(61,142,51);fill-rule:nonzero;"/>
                </g>
                <g transform="matrix(0.896117,3.24196e-17,-3.24196e-17,0.896117,219.046,223.655)">
                    <path d="M5.157,17.837C5.166,16.023 5.857,12.854 8.487,11.724C7.925,11.677 7.469,11.76 7.382,11.776C4.447,12.312 3.001,15.302 2.984,18.08C2.965,21.024 4.65,23.321 7.427,22.812C7.516,22.796 7.953,22.716 8.518,22.478C6.305,22.285 5.145,20.346 5.157,17.837Z" style="fill:white;fill-rule:nonzero;"/>
                    <path d="M8.13,14.1L8.612,13.556L9.155,13.912L8.914,13.224L9.413,12.694L8.759,12.799L8.513,12.128L8.359,12.868L7.717,12.985L8.273,13.338L8.13,14.1ZM8.224,16.751L8.719,16.217L9.227,16.559L9.025,15.889L9.525,15.363L8.896,15.475L8.68,14.8L8.512,15.549L7.894,15.673L8.404,16.008L8.224,16.751ZM8.178,19.357L8.697,18.83L9.191,19.172L9.016,18.506L9.533,17.986L8.905,18.095L8.723,17.432L8.522,18.167L7.905,18.289L8.393,18.622L8.178,19.357ZM8.576,21.443L9.079,21.791L8.913,21.119L9.457,20.6L8.813,20.705L8.651,20.038L8.419,20.774L7.787,20.892L8.272,21.231L8.028,21.971L8.576,21.443Z" style="fill:white;fill-rule:nonzero;"/>
                </g>
            </g>
        </g>
    </g>
</svg>
