<?xml version="1.0" encoding="UTF-8" standalone="no"?>
<!DOCTYPE svg PUBLIC "-//W3C//DTD SVG 1.1//EN" "http://www.w3.org/Graphics/SVG/1.1/DTD/svg11.dtd">
<svg width="100%" height="100%" viewBox="0 0 512 512" version="1.1" xmlns="http://www.w3.org/2000/svg" xmlns:xlink="http://www.w3.org/1999/xlink" xml:space="preserve" xmlns:serif="http://www.serif.com/" style="fill-rule:evenodd;clip-rule:evenodd;stroke-linejoin:round;stroke-miterlimit:2;">
    <g>
        <g>
            <path d="M100.472,397.677C182.335,386.958 187.634,376.33 259.985,399.708C297.334,411.775 314.968,422.501 412.318,408.636C435.684,405.308 458.974,381.556 461.247,357.894C467.176,296.163 472.956,254.699 462.83,181.249C361.689,249.924 343.326,274.982 265.346,296.422C178.432,320.318 184.315,333.034 91.77,397.852C96.182,398.239 99.782,397.768 100.472,397.677ZM411.553,116.384C327.618,129.405 325.974,131.604 259.985,110.838C187.662,88.078 182.392,98.415 100.444,108.861C77.104,111.835 55.74,130.85 58.828,156.107C63.528,194.539 71.103,217.653 71.997,248.699C72.887,279.583 66.928,310.663 63.582,330.907C151.022,286.445 158.766,237.732 243.244,212.58C317.742,190.4 320.49,193.278 420.276,116.004C415.805,115.725 412.244,116.277 411.553,116.384ZM165.922,222.168C155.374,214.565 137.295,202.258 135.188,200.919C131.919,204.77 128.848,208.786 125.663,212.708C124.332,214.348 115.093,225.724 108.638,232.884C110.881,220.914 113.625,196.181 114.716,188.274C111.81,186.5 88.006,171.974 78.535,165.854C95.208,165.015 115.813,161.604 119.031,161.071C119.688,157.507 123.155,138.69 129.109,116.915C132.732,127.435 142.349,153.692 143.518,156.883C146.731,156.347 167.491,152.879 183.945,151.956C181.28,154.17 167.809,165.359 152.427,181.653C160.892,205.533 164.933,218.898 165.922,222.168Z" style="fill:rgb(0,127,255);fill-rule:nonzero;"/>
            <path d="M143.518,156.883C142.349,153.692 132.732,127.435 129.109,116.915C123.155,138.69 119.688,157.507 119.031,161.071C115.813,161.604 95.208,165.015 78.535,165.854C88.006,171.974 111.81,186.5 114.716,188.274C113.785,195.019 110.897,220.829 108.638,232.884C110.864,230.415 110.349,230.175 135.188,200.919C137.141,202.16 155.065,214.342 165.922,222.168C162.932,212.281 158.17,197.855 152.427,181.653C167.809,165.359 181.28,154.17 183.945,151.956C167.491,152.879 146.731,156.347 143.518,156.883ZM91.77,397.852C181.877,334.742 175.614,321.111 272.155,294.565C340.562,275.755 374.367,241.315 462.83,181.249L460.731,166.239C348.308,243.465 354.153,256.659 251.031,285.328C175.484,306.33 158.082,341.049 77.051,393.076C83.999,397.147 90.538,397.74 91.77,397.852ZM420.276,116.004C320.957,192.917 318.873,191.381 250.052,210.605C156.531,236.728 154.433,284.71 63.582,330.907L61.172,345.907C164.114,291.966 150.807,253.077 257.548,223.532C350.005,197.941 347.21,183.911 435.288,120.172C428.126,116.516 421.52,116.085 420.276,116.004Z" style="fill:rgb(247,214,24);fill-rule:nonzero;"/>
            <path d="M435.288,120.172C346.843,184.176 352.727,197.017 250.716,225.419C158.231,251.168 157.751,295.3 61.172,345.907L59.699,355.921C57.526,371.506 65.199,386.125 77.051,393.076C166.534,335.622 170.175,307.694 257.862,283.445C351.061,257.671 357.46,237.179 460.731,166.239L459.378,156.216C457.417,141.123 447.905,126.618 435.288,120.172Z" style="fill:rgb(206,16,33);fill-rule:nonzero;"/>
        </g>
    </g>
</svg>
