<?xml version="1.0" encoding="UTF-8" standalone="no"?>
<!DOCTYPE svg PUBLIC "-//W3C//DTD SVG 1.1//EN" "http://www.w3.org/Graphics/SVG/1.1/DTD/svg11.dtd">
<svg width="100%" height="100%" viewBox="0 0 512 512" version="1.1" xmlns="http://www.w3.org/2000/svg" xmlns:xlink="http://www.w3.org/1999/xlink" xml:space="preserve" xmlns:serif="http://www.serif.com/" style="fill-rule:evenodd;clip-rule:evenodd;stroke-linejoin:round;stroke-miterlimit:2;">
    <g>
        <g>
            <path d="M100.444,108.861C77.104,111.835 55.74,130.85 58.828,156.107C63.749,196.349 71.735,219.194 72.083,253.166C72.44,288.108 64.155,323.962 59.699,355.921C57.114,374.464 67.727,385.432 69.558,387.324C154.104,306.13 168.151,270.265 206.955,235.61C246.428,200.358 312.57,166.464 344.882,125.577C290.272,129.185 259.63,105.812 214.781,99.012C180.956,93.883 135.686,104.369 100.444,108.861Z" style="fill:rgb(0,149,67);fill-rule:nonzero;"/>
            <path d="M411.553,116.384C399.661,118.229 366.592,124.141 344.882,125.577C312.524,166.523 246.52,200.276 206.955,235.61C168.194,270.228 154.055,306.177 69.558,387.324C71.372,389.198 81.927,400.105 100.472,397.677C115.436,395.718 149.431,389.775 167.089,387.814C241.199,304.581 273.609,307.058 324.742,257.623C387.274,197.168 426.097,145.243 443.324,125.498C441.331,123.762 429.64,113.579 411.553,116.384Z" style="fill:rgb(251,222,74);fill-rule:nonzero;"/>
            <path d="M167.089,387.814C224.54,381.437 239.943,395.332 293.27,410.009C304.134,412.999 327.226,420.755 412.318,408.636C435.684,405.308 458.974,381.556 461.247,357.894C471.963,246.325 470.85,244.51 459.378,156.216C459.021,153.466 456.926,137.346 443.324,125.498C442.771,126.133 361.291,227.655 310.668,270.195C260.461,312.387 234.067,312.591 167.089,387.814Z" style="fill:rgb(220,36,31);fill-rule:nonzero;"/>
        </g>
    </g>
</svg>
