<?xml version="1.0" encoding="UTF-8" standalone="no"?>
<!DOCTYPE svg PUBLIC "-//W3C//DTD SVG 1.1//EN" "http://www.w3.org/Graphics/SVG/1.1/DTD/svg11.dtd">
<svg width="100%" height="100%" viewBox="0 0 512 512" version="1.1" xmlns="http://www.w3.org/2000/svg" xmlns:xlink="http://www.w3.org/1999/xlink" xml:space="preserve" xmlns:serif="http://www.serif.com/" style="fill-rule:evenodd;clip-rule:evenodd;stroke-linejoin:round;stroke-miterlimit:2;">
    <g>
        <g>
            <path d="M411.553,116.384C327.618,129.405 325.974,131.604 259.985,110.838C187.662,88.078 182.392,98.415 100.444,108.861L93.733,110.152C93.714,118.497 94.283,128.076 94.376,129.632C77.804,131.524 66.395,131.529 63.956,131.53C60.157,137.828 57.668,146.622 58.828,156.107C63.749,196.349 71.735,219.194 72.083,253.166C72.44,288.108 64.155,323.962 59.699,355.921C56.353,379.924 75.267,400.977 100.472,397.677C182.335,386.958 187.634,376.33 259.985,399.708C297.334,411.775 314.968,422.501 412.318,408.636C435.684,405.308 458.974,381.556 461.247,357.894C471.963,246.325 470.85,244.51 459.378,156.216C456.362,133 437.012,112.436 411.553,116.384Z" style="fill:rgb(0,36,125);fill-rule:nonzero;"/>
            <path d="M366.228,199.314L375.657,191.503L363.795,193.031L359.932,182.832L356.542,193.824L344.949,194.788L354.407,200.595L350.902,211.509L360.372,204.051L370.204,209.442L366.228,199.314ZM397.467,203.17L409.28,199.046L397.843,196.205L398.362,184.928L390.831,194.452L379.63,191.535L386.086,200.319L378.263,209.75L390.134,205.717L396.738,214.42L397.467,203.17ZM423.797,218.965L435.962,219.684L427.253,212.482L432.552,202.077L421.804,208.098L412.972,201.038L415.045,211.892L403.954,218.127L416.231,218.608L418.046,229.5L423.797,218.965ZM438.944,243.831L449.027,249.286L444.917,239.068L454.367,231.572L442.314,232.783L437.971,222.63L434.73,233.7L422.336,235.393L432.643,240.559L429.114,251.676L438.944,243.831ZM440.102,273.631L445.982,282.619L447.512,271.401L459.31,268.085L448.357,264.465L449.552,253.236L441.459,262.38L430.119,259.24L436.353,268.109L427.934,277.47L440.102,273.631ZM426.305,302.401L426.825,313.714L433.664,302.863L445.382,303.833L437.804,296.445L444.388,286.114L432.99,291.944L424.975,284.737L425.868,295.658L414.277,301.784L426.305,302.401ZM401.206,327.796L397.014,339.436L407.137,331.221L416.632,336.755L413.468,326.051L423.776,317.579L411.494,319.326L408.247,308.668L403.857,320.455L391.515,322.267L401.206,327.796ZM370.372,341.788L362.321,350.981L373.986,347.46L379.79,356.571L381.27,345.155L393.156,341.256L382.199,338.01L383.768,326.302L375.428,335.962L364.478,332.539L370.372,341.788ZM325.304,209.997L314.393,206.71L324.582,203.109L323.415,191.957L330.871,200.432L341.179,195.594L335.525,205.48L343.208,213.429L332.047,211.511L326.471,221.129L325.304,209.997ZM302.516,226.509L291.606,226.144L299.083,219.763L293.528,208.72L303.705,215.671L311.182,208.763L309.994,219.659L320.171,225.53L309.26,226.391L308.071,237.271L302.516,226.509ZM289.806,250.03L280.751,253.879L284.251,244.346L275.262,234.971L286.417,238.448L289.917,228.85L293.306,240.385L304.461,243.048L295.405,247.491L298.794,258.939L289.806,250.03ZM288.917,279.671L283.328,287.694L282.173,276.257L271.274,270.475L281.473,269.189L280.318,257.735L287.773,268.248L297.961,266.42L292.372,274.649L299.816,284.799L288.917,279.671ZM300.438,309.785L299.283,320.609L293.706,309.578L282.795,308.823L290.25,302.686L284.673,291.438L294.861,298.787L302.316,292.244L301.161,303.092L311.349,309.556L300.438,309.785ZM321.982,334.008L325.382,344.822L316.382,337.505L307.338,342.649L310.827,332.651L301.827,324.349L312.982,326.435L316.471,316.305L319.871,327.281C320.761,327.365 324.996,327.762 331.029,327.782L321.982,334.008ZM350.485,343.485L358.245,351.315L346.849,349.674L341.049,359.543L339.908,348.479L328.882,346.187L339.197,341.614L338.059,330.506L345.716,338.568L356.469,333.284L350.485,343.485Z" style="fill:white;fill-rule:nonzero;"/>
            <path d="M267.107,257.612C267.107,209.449 267.107,161.287 267.107,113.125C187.179,87.525 185.406,98.031 100.444,108.861L93.733,110.152C93.714,118.497 94.283,128.076 94.376,129.632C77.804,131.524 66.395,131.529 63.956,131.53L62.687,133.814C61.865,135.427 57.377,144.235 58.828,156.107C63.944,197.942 72.315,220.563 72.09,257.094C119.886,257.574 136.079,247.009 180.635,242.378C213.994,238.91 240.539,248.874 267.107,257.612Z" style="fill:rgb(0,36,125);fill-rule:nonzero;"/>
            <path d="M267.107,113.125C265.041,112.463 247.858,106.96 241.209,105.051C216.783,113.56 193.077,130.803 189.241,133.593C189.24,117.734 189.333,97.822 189.333,97.638C169.624,98.26 138.196,103.202 133.778,103.897C133.778,118.894 134.226,129.995 134.317,132.263C127.585,128.652 110.437,119.653 93.733,110.152C83.329,112.875 76.569,118.107 75.271,119.112C92.714,130.141 120.563,144.699 129.021,149.228C117.314,151.219 112.008,152.024 110.526,152.248C106.991,150.34 82.88,137.326 67.122,126.996L63.956,131.53C78.689,141.279 98.079,151.921 101.109,153.584C78.35,156.567 61.502,156.11 58.828,156.107C60.94,173.373 67.212,207.275 68.032,211.709C69.945,211.712 87.858,212.269 109.734,209.074C85.22,237.155 73.267,242.631 71.794,243.538L72.09,257.094C72.231,257.096 88.394,257.761 107.637,255.053C120.985,242.611 138.474,222.853 140.933,220.124C141.067,222.406 141.754,234.076 141.709,248.688C145.506,247.903 171.236,242.585 189.685,241.772C189.692,222.802 189.563,208.335 189.537,205.428C201.232,213.494 215.591,223.838 241.198,249.318C247.851,251.279 265.04,256.932 267.107,257.612L267.107,235.067C264.624,232.511 244.418,211.717 235.832,203.343C244.418,205.706 264.616,212.348 267.107,213.167L267.107,157.612C264.617,156.793 244.426,150.152 235.843,147.79C244.425,144.141 264.594,136.646 267.107,135.712C267.107,128.183 267.107,120.654 267.107,113.125Z" style="fill:rgb(238,238,238);fill-rule:nonzero;"/>
            <path d="M178.222,98.234C175.544,98.433 164.459,99.255 144.889,102.184C144.889,103.365 144.629,125.907 146.303,157.544C110.456,163.426 96.255,167.295 60.316,167.246C60.702,169.917 62.38,181.545 65.916,200.521C102.073,200.548 113.932,196.866 148.394,190.854C148.603,193.851 150.96,219.926 150.892,246.831C167.145,243.652 177.198,242.7 179.503,242.482C179.525,218.178 178.796,192.58 178.704,186.777C213.182,183.976 231.688,190.408 267.107,202.056L267.107,168.723C231.036,156.86 213.313,150.691 178.256,153.453C177.942,122.116 178.222,99.52 178.222,98.234Z" style="fill:rgb(207,27,43);fill-rule:nonzero;"/>
            <path d="M267.107,113.125L250.875,107.952C217.538,119.741 193.746,137.089 189.245,140.372L189.246,141.717C199.24,141.387 205.391,141.972 206.789,142.105C228.124,129.195 256.258,119.398 267.107,115.367L267.107,113.125ZM75.271,119.112C70.622,122.654 67.691,126.289 67.122,126.996C82.88,137.326 106.991,150.34 110.526,152.248C112.007,152.024 117.313,151.22 129.01,149.23C122.012,145.482 93.081,130.375 75.271,119.112ZM134.305,204.79C123.362,217.39 103.702,240.966 81.418,257.164C82.838,257.143 90.098,257.034 99.139,256.096C115.619,241.737 136.317,217.864 140.471,213.205L139.66,203.769L134.305,204.79ZM267.107,255.412L267.107,241.856C263.878,238.532 238.101,212.002 226.144,200.889C215.79,198.517 208.341,197.809 206.778,197.66C228.147,214.656 256.039,244.021 267.107,255.412Z" style="fill:rgb(207,27,43);fill-rule:nonzero;"/>
        </g>
    </g>
</svg>
