<?xml version="1.0" encoding="UTF-8" standalone="no"?>
<!DOCTYPE svg PUBLIC "-//W3C//DTD SVG 1.1//EN" "http://www.w3.org/Graphics/SVG/1.1/DTD/svg11.dtd">
<svg width="100%" height="100%" viewBox="0 0 512 512" version="1.1" xmlns="http://www.w3.org/2000/svg" xmlns:xlink="http://www.w3.org/1999/xlink" xml:space="preserve" xmlns:serif="http://www.serif.com/" style="fill-rule:evenodd;clip-rule:evenodd;stroke-linejoin:round;stroke-miterlimit:2;">
    <g>
        <g>
            <path d="M461.247,357.894C458.974,381.556 435.684,405.308 412.318,408.636C308.939,423.36 296.194,410.772 244.032,394.61C189.598,377.745 160.51,389.816 100.472,397.677C75.267,400.977 56.353,379.924 59.699,355.921C64.445,321.88 73.245,285.12 71.958,247.429C70.917,216.956 63.537,194.612 58.828,156.107C55.74,130.85 77.104,111.835 100.444,108.861C182.392,98.415 187.662,88.078 259.985,110.838C325.827,131.557 327.444,129.432 411.553,116.384C437.012,112.436 456.362,133 459.378,156.216C470.841,244.445 471.982,246.128 461.247,357.894Z" style="fill:rgb(0,43,127);fill-rule:nonzero;"/>
            <path d="M58.828,156.107C134.647,156.191 174.226,130.506 234.216,147.348C273.812,158.464 299.751,172.077 337.156,170.804C373.191,169.577 423.027,157.407 459.378,156.216C470.841,244.445 471.982,246.128 461.247,357.894C351.487,368.283 347.134,383.493 261.937,355.907C164.349,324.308 162.229,355.837 59.699,355.921C64.445,321.88 73.245,285.12 71.958,247.429C70.917,216.956 63.537,194.612 58.828,156.107Z" style="fill:rgb(238,238,238);fill-rule:nonzero;"/>
            <path d="M65.916,200.521C140.966,200.578 173.797,174.83 234.216,191.792C274.101,202.99 299.627,216.51 337.27,215.247C374.031,214.013 428.218,201.832 465.285,200.634C471.286,255.023 466.46,303.448 465.573,312.341C405.709,314.49 346.869,335.796 293.618,321.211C251.686,309.726 226.733,295.608 186.854,297.364C143.314,299.281 124.246,311.504 66.784,311.522C75.906,255.075 71.644,231.266 65.916,200.521Z" style="fill:rgb(206,18,37);fill-rule:nonzero;"/>
            <path d="M154.019,201.155C172.304,198.052 189.694,216.652 189.685,241.772C189.676,267.333 171.573,287.055 154.193,289.997C136.278,293.03 123.246,277.626 123.352,252.412C123.452,228.418 135.453,204.307 154.019,201.155Z" style="fill:rgb(238,238,238);"/>
            <path d="M172.176,259.858C172.044,269.324 163.294,283.828 154.433,285.342C145.373,286.89 138.603,274.718 138.924,265.637C139.237,256.769 146.724,247.58 155.522,245.948C164.568,244.271 172.3,251.034 172.176,259.858Z" style="fill:rgb(244,203,88);fill-rule:nonzero;"/>
            <path d="M155.522,245.948C168.779,243.49 179.497,250.496 179.414,259.085C179.327,268.094 167.481,276.744 154.73,278.954C140.896,281.352 131.864,275.276 132.194,266.992C132.53,258.54 142.74,248.319 155.522,245.948Z" style="fill:rgb(220,168,65);"/>
            <path d="M154.722,212.524C162.768,211.081 169.373,215.661 169.493,221.427C169.613,227.182 163.297,233.429 155.456,234.891C147.352,236.403 141.51,232.11 141.262,226.512C141.002,220.638 146.798,213.945 154.722,212.524Z" style="fill:rgb(137,197,228);"/>
            <path d="M155.195,223.759C162.317,222.444 169.783,233.145 169.68,249.154C169.578,265.094 161.93,277.706 154.73,278.954C147.889,280.14 141.43,270.983 141.662,254.181C141.879,238.468 147.952,225.097 155.195,223.759Z" style="fill:rgb(8,137,48);"/>
            <path d="M155.195,223.759C163.86,222.159 169.554,224.438 169.593,226.997C169.625,229.143 164.642,233.178 155.456,234.891C145.108,236.822 141.528,233.761 141.475,232.097C141.39,229.429 146.864,225.299 155.195,223.759Z" style="fill:rgb(220,168,65);"/>
            <path d="M169.702,243.628C169.684,256.339 162.254,266.685 155.142,267.951C148.487,269.135 141.667,262.108 141.709,248.688C141.715,246.796 141.76,231.887 155.351,229.359C156.943,229.063 169.726,226.685 169.702,243.628Z" style="fill:rgb(137,197,228);fill-rule:nonzero;"/>
            <path d="M155.522,245.948C164.183,244.342 169.696,246.643 169.68,249.154C169.666,251.285 164.638,255.277 155.412,256.958C144.953,258.865 141.64,255.764 141.662,254.181C141.699,251.544 147.318,247.469 155.522,245.948Z" style="fill:rgb(220,168,65);"/>
        </g>
    </g>
</svg>
