<?xml version="1.0" encoding="UTF-8" standalone="no"?>
<!DOCTYPE svg PUBLIC "-//W3C//DTD SVG 1.1//EN" "http://www.w3.org/Graphics/SVG/1.1/DTD/svg11.dtd">
<svg width="100%" height="100%" viewBox="0 0 512 512" version="1.1" xmlns="http://www.w3.org/2000/svg" xmlns:xlink="http://www.w3.org/1999/xlink" xml:space="preserve" xmlns:serif="http://www.serif.com/" style="fill-rule:evenodd;clip-rule:evenodd;stroke-linejoin:round;stroke-miterlimit:2;">
    <g transform="matrix(1.11593,-4.03717e-17,4.03717e-17,1.11593,-13.9687,-19.1113)">
        <g transform="matrix(11.1111,-2.35563e-31,0,11.1111,-2371.15,-2417.74)">
            <g>
                <g transform="matrix(0.896117,3.24196e-17,-3.24196e-17,0.896117,219.046,223.655)">
                    <path d="M0.874,12.908C7.628,12.913 10.602,10.595 16.039,12.121C19.629,13.129 21.926,14.346 25.314,14.232C28.622,14.121 33.489,13.025 36.825,12.918C37.38,17.845 36.932,22.364 36.851,23.181C31.468,23.378 26.166,25.278 21.386,23.969C17.61,22.935 15.367,21.665 11.776,21.823C7.855,21.995 6.128,23.095 0.954,23.096C1.802,17.876 1.416,15.827 0.874,12.908Z" style="fill:rgb(238,238,238);fill-rule:nonzero;"/>
                </g>
                <g transform="matrix(0.896117,3.24196e-17,-3.24196e-17,0.896117,219.046,223.655)">
                    <path d="M36.472,27.17C36.268,29.3 34.172,31.438 32.069,31.737C22.764,33.062 21.617,31.929 16.923,30.475C12.024,28.957 9.406,30.043 4.002,30.751C1.734,31.048 0.032,29.153 0.333,26.993C0.424,26.338 0.429,26.349 0.971,22.997C9.655,22.994 9.823,20.184 18.178,22.874C20.846,23.733 22.612,24.458 25.681,24.322C28.917,24.178 33.635,23.186 36.862,23.071C36.764,24.047 36.501,26.87 36.472,27.17Z" style="fill:rgb(23,23,150);fill-rule:nonzero;"/>
                </g>
                <g transform="matrix(0.896117,3.24196e-17,-3.24196e-17,0.896117,219.046,223.655)">
                    <path d="M32,5.435C24.446,6.606 24.298,6.804 18.359,4.935C11.85,2.887 11.375,3.817 4,4.757C1.899,5.025 -0.023,6.737 0.255,9.01C0.459,10.68 0.833,12.689 0.892,13.007C7.647,13.012 10.602,10.695 16.039,12.221C19.629,13.229 21.926,14.446 25.314,14.332C28.623,14.221 33.5,13.125 36.836,13.017C36.736,12.112 36.336,9.263 36.304,9.019C36.033,6.93 34.291,5.079 32,5.435Z" style="fill:rgb(213,43,30);fill-rule:nonzero;"/>
                </g>
                <g transform="matrix(0.896117,3.24196e-17,-3.24196e-17,0.896117,219.046,223.655)">
                    <path d="M11.398,6.178C11.394,11.364 11.502,13.97 11.483,17.719C11.47,20.207 12.745,21.67 13.016,21.995C14.192,23.402 16.194,24.787 18,25.377C22.444,26.828 24.59,23.292 24.59,20.314L24.59,8.78C20.138,8.76 16.845,5.853 11.398,6.178Z" style="fill:rgb(213,43,30);fill-rule:nonzero;"/>
                </g>
                <g transform="matrix(0.896117,3.24196e-17,-3.24196e-17,0.896117,219.046,223.655)">
                    <path d="M14.25,16.835C14.453,16.866 15.334,17.002 16.75,17.423L16.75,19.923C15.334,19.502 14.453,19.366 14.25,19.335L14.25,16.835ZM16.75,19.923C18.021,20.301 17.992,20.316 19.25,20.727L19.25,23.227C17.821,22.76 17.845,22.749 16.75,22.423L16.75,19.923ZM16.75,14.923C18.021,15.301 17.992,15.316 19.25,15.727L19.25,18.227C17.821,17.76 17.845,17.749 16.75,17.423L16.75,14.923ZM19.25,18.227C20.778,18.726 21.547,18.911 21.749,18.96L21.749,21.46C21.547,21.411 20.778,21.226 19.25,20.727L19.25,18.227ZM19.25,13.227C20.778,13.726 21.547,13.911 21.749,13.96L21.749,16.46C21.547,16.411 20.778,16.226 19.25,15.727L19.25,13.227ZM21.749,16.46C23.026,16.768 23.901,16.818 24.09,16.828L24.09,19.328C23.901,19.318 23.026,19.268 21.749,18.96L21.749,16.46ZM14.25,11.835C14.453,11.866 15.334,12.002 16.75,12.423L16.75,14.923C15.334,14.502 14.453,14.366 14.25,14.335L14.25,11.835ZM21.749,23.96L22.554,24.134C23.128,23.595 23.633,22.778 23.888,21.815C23.715,21.802 22.91,21.74 21.749,21.46L21.749,23.96ZM19.25,23.227L19.25,25.158C20.302,25.281 21.154,25.044 21.749,24.72L21.749,23.96C21.547,23.911 20.778,23.726 19.25,23.227ZM14.25,21.835L14.25,19.335C13.232,19.178 12.299,19.207 12.129,19.212C12.316,19.972 12.73,20.873 13.445,21.738L14.25,21.835ZM11.938,14.223C11.988,14.221 13.042,14.149 14.25,14.335L14.25,16.835C13.038,16.648 11.987,16.722 11.947,16.723C11.947,15.43 11.94,14.423 11.938,14.223ZM14.25,21.835L14.25,22.595C15.39,23.664 16.532,24.243 16.75,24.354L16.75,22.423C15.334,22.002 14.453,21.866 14.25,21.835Z" style="fill:white;fill-rule:nonzero;"/>
                </g>
                <g transform="matrix(0.896117,3.24196e-17,-3.24196e-17,0.896117,219.046,223.655)">
                    <path d="M24.755,9.485C24.6,9.548 23.802,9.871 22.758,10.103C22.65,9.947 22.137,9.208 21.43,8.131C21.286,8.182 20.664,8.405 19.602,8.717C19.068,8.066 18.534,7.416 18,6.765C17.049,7.302 16.524,7.62 16.397,7.697C15.396,6.794 14.721,6.257 14.571,6.137C13.874,6.894 13.343,7.532 13.24,7.656C13.084,7.584 12.472,7.302 11.234,6.892C10.639,8.042 10.237,8.897 10.154,9.073C10.262,9.292 10.817,10.417 11.477,11.821L11.645,11.73C12.863,11.077 13.87,10.947 14.073,10.921L14.113,10.915C14.314,10.891 15.31,10.768 16.636,11.039L16.7,11.052C17.325,11.184 18.576,11.59 19.301,11.888L19.359,11.912C20.278,12.293 21.694,12.997 21.894,13.097L21.927,13.113C23.165,13.731 23.143,13.734 24.368,14.34L24.543,14.426C25.367,12.664 25.778,11.759 25.884,11.526C25.791,11.364 25.345,10.587 24.755,9.485Z" style="fill:rgb(23,23,150);fill-rule:nonzero;"/>
                </g>
                <g transform="matrix(0.896117,3.24196e-17,-3.24196e-17,0.896117,219.046,223.655)">
                    <path d="M16.638,8.071C16.712,8.947 16.785,9.823 16.859,10.7C17.466,10.835 17.91,10.98 18,11.009C18.092,11.039 18.466,11.161 19.141,11.435C19.214,10.605 19.288,9.775 19.362,8.944C18.908,8.391 18.454,7.837 18,7.284C17.201,7.734 16.746,8.006 16.638,8.071ZM24.578,9.972C24.446,10.024 23.776,10.285 22.88,10.493C22.658,11.28 22.435,12.068 22.212,12.855C23.475,13.48 23.459,13.48 24.356,13.909C24.832,12.901 25.359,11.749 25.445,11.56C25.002,10.77 25.012,10.78 24.578,9.972ZM11.412,7.367C10.959,8.241 10.638,8.906 10.573,9.041C10.661,9.221 11.108,10.137 11.654,11.297C12.744,10.735 13.609,10.591 13.787,10.561C13.564,9.712 13.34,8.864 13.117,8.015C12.984,7.955 12.466,7.724 11.412,7.367Z" style="fill:rgb(1,147,221);fill-rule:nonzero;"/>
                </g>
            </g>
        </g>
    </g>
</svg>
