<?xml version="1.0" encoding="UTF-8" standalone="no"?>
<!DOCTYPE svg PUBLIC "-//W3C//DTD SVG 1.1//EN" "http://www.w3.org/Graphics/SVG/1.1/DTD/svg11.dtd">
<svg width="100%" height="100%" viewBox="0 0 512 512" version="1.1" xmlns="http://www.w3.org/2000/svg" xmlns:xlink="http://www.w3.org/1999/xlink" xml:space="preserve" xmlns:serif="http://www.serif.com/" style="fill-rule:evenodd;clip-rule:evenodd;stroke-linejoin:round;stroke-miterlimit:2;">
    <g>
        <g>
            <path d="M411.553,116.384C327.618,129.405 325.974,131.604 259.985,110.838C187.662,88.078 182.392,98.415 100.444,108.861C77.104,111.835 55.74,130.85 58.828,156.107C63.896,197.549 72.023,219.664 72.094,255.171C72.162,289.17 64.081,324.492 59.699,355.921C56.353,379.924 75.267,400.977 100.472,397.677C182.335,386.958 187.634,376.33 259.985,399.708C297.334,411.775 314.968,422.501 412.318,408.636C435.684,405.308 458.974,381.556 461.247,357.894C471.973,246.225 470.846,244.48 459.378,156.216C456.362,133 437.012,112.436 411.553,116.384Z" style="fill:rgb(0,42,143);fill-rule:nonzero;"/>
            <path d="M209.844,209.101C245.247,213.352 291.325,236.563 324.975,237.494C366.032,238.629 425.009,224.15 467.141,222.773C465.666,199.625 462.787,180.986 460.886,167.352C391.685,169.594 350.572,194.948 280.496,173.012C219.855,154.029 212.494,146.032 135.046,159.454C141.299,162.987 183.202,186.662 209.844,209.101ZM135.566,337.115C222.832,322 225.793,335.571 288.473,353.147C345.146,369.038 391.67,352.355 462.278,346.994C466.277,304.232 466.94,299.284 467.535,289.48C426.128,290.816 353.796,307.068 321.005,303.911C281.825,300.138 245.609,280.062 209.844,275.768C185.125,290.655 159.878,315.315 135.566,337.115Z" style="fill:rgb(238,238,238);fill-rule:nonzero;"/>
            <path d="M209.844,209.101C183.202,186.662 141.299,162.987 135.046,159.454C122.473,152.35 90.792,135.252 71.567,122.491C60.887,132.524 57.492,145.182 58.828,156.107C63.896,197.549 72.023,219.664 72.094,255.171C72.162,289.17 64.081,324.492 59.699,355.921C56.882,376.129 69.657,387.318 71.787,389.183C102.883,366.588 130.314,341.825 135.566,337.115C159.19,315.933 184.967,290.75 209.844,275.768C227.026,265.422 252.2,255.457 255.997,253.954C252.444,250.228 227.026,223.574 209.844,209.101Z" style="fill:rgb(207,20,43);fill-rule:nonzero;"/>
            <path d="M146.187,254.376C147.673,252.811 159.455,240.396 164.883,234.917C156.08,236.304 143.685,238.878 141.849,239.26C137.862,226.089 134.176,216.18 133.439,214.198C130.915,228.772 128.246,239.956 127.715,242.178C114.309,244.861 106.205,245.903 104.322,246.145C110.655,250.429 116.989,254.713 123.322,258.997C122.702,261.177 119.531,272.328 114.643,285.972C116.278,284.47 123.71,277.646 134.496,266.574C135.941,267.558 143.766,272.882 152.522,278.938C148.986,264.612 146.722,256.334 146.187,254.376Z" style="fill:white;fill-rule:nonzero;"/>
        </g>
    </g>
</svg>
