<?xml version="1.0" encoding="UTF-8" standalone="no"?>
<!DOCTYPE svg PUBLIC "-//W3C//DTD SVG 1.1//EN" "http://www.w3.org/Graphics/SVG/1.1/DTD/svg11.dtd">
<svg width="100%" height="100%" viewBox="0 0 512 512" version="1.1" xmlns="http://www.w3.org/2000/svg" xmlns:xlink="http://www.w3.org/1999/xlink" xml:space="preserve" xmlns:serif="http://www.serif.com/" style="fill-rule:evenodd;clip-rule:evenodd;stroke-linejoin:round;stroke-miterlimit:2;">
    <g>
        <g>
            <path d="M59.699,355.921C56.353,379.924 75.267,400.977 100.472,397.677C182.335,386.958 187.634,376.33 259.985,399.708C297.334,411.775 314.968,422.501 412.318,408.636C435.684,405.308 458.974,381.556 461.247,357.894C461.937,350.547 462.627,343.199 463.317,335.852C361.798,341.869 356.371,364.262 261.937,333.684C166.041,302.634 163.884,333.585 63.124,333.682C60.966,346.832 59.947,354.138 59.699,355.921Z" style="fill:rgb(0,43,127);fill-rule:nonzero;"/>
            <path d="M69.949,289.544C143.058,289.689 173.761,263.709 234.216,280.681C274.28,291.929 299.567,305.398 337.355,304.133C374.556,302.887 430.026,290.691 467.535,289.48C466.911,299.766 464.977,318.085 463.317,335.852C361.798,341.869 356.371,364.262 261.937,333.684C166.041,302.634 163.884,333.585 63.124,333.682C63.703,330.156 68.854,298.776 69.949,289.544Z" style="fill:rgb(249,232,20);fill-rule:nonzero;"/>
            <path d="M411.553,116.384C327.618,129.405 325.974,131.604 259.985,110.838C187.662,88.078 182.392,98.415 100.444,108.861C77.104,111.835 55.74,130.85 58.828,156.107C65.106,207.442 76.853,231.371 69.949,289.544C143.058,289.689 173.761,263.709 234.216,280.681C274.28,291.929 299.567,305.398 337.355,304.133C374.556,302.887 430.026,290.691 467.535,289.48C471.315,227.152 461.313,171.111 459.378,156.216C456.362,133 437.012,112.436 411.553,116.384ZM104.084,161.822L92.827,172.838L95.58,156.932L81.613,148.621L97.554,147.06L101.219,131.037L107.295,145.75L122.947,143.29L111.179,154.816L117.536,169.442L104.084,161.822ZM165.026,212.599C163.77,211.756 157.775,207.731 149.224,202.215C148.109,203.473 145.424,206.503 135.455,218.091C137.507,206.955 137.219,207.137 139.242,196.049C137.911,195.251 132.135,191.788 122.498,186.24C132.232,184.543 132.084,184.501 141.793,182.765C142.142,181.038 143.986,171.897 146.504,161.247C150.635,172.143 153.212,179.155 153.786,180.716C164.627,178.977 172.07,178.232 173.666,178.072C172.386,179.204 165.854,184.98 158.152,192.764C158.716,194.346 162.514,204.991 165.026,212.599Z" style="fill:rgb(0,43,127);fill-rule:nonzero;"/>
            <path d="M153.786,180.716C153.212,179.155 150.635,172.143 146.504,161.247C146.098,162.962 143.981,171.899 141.783,182.767C131.901,184.533 132.148,184.557 122.488,186.242C132.126,191.791 137.901,195.253 139.232,196.051C137.212,207.143 137.496,206.981 135.454,218.08C136.551,216.806 145.419,206.506 149.224,202.215C157.775,207.731 163.77,211.756 165.026,212.599C164.499,211.004 162.514,204.991 158.152,192.764C165.854,184.98 172.386,179.204 173.666,178.072C172.07,178.232 164.627,178.977 153.786,180.716ZM122.947,143.29L107.295,145.75L101.219,131.037L97.554,147.06L81.613,148.621L95.58,156.932L92.827,172.838L104.084,161.822L117.536,169.442L111.179,154.816L122.947,143.29Z" style="fill:white;fill-rule:nonzero;"/>
        </g>
    </g>
</svg>
