<?xml version="1.0" encoding="UTF-8" standalone="no"?>
<!DOCTYPE svg PUBLIC "-//W3C//DTD SVG 1.1//EN" "http://www.w3.org/Graphics/SVG/1.1/DTD/svg11.dtd">
<svg width="100%" height="100%" viewBox="0 0 512 512" version="1.1" xmlns="http://www.w3.org/2000/svg" xmlns:xlink="http://www.w3.org/1999/xlink" xml:space="preserve" xmlns:serif="http://www.serif.com/" style="fill-rule:evenodd;clip-rule:evenodd;stroke-linejoin:round;stroke-miterlimit:2;">
    <g>
        <g>
            <path d="M461.247,357.894C458.974,381.556 435.684,405.308 412.318,408.636C308.939,423.36 296.194,410.772 244.032,394.61C189.598,377.745 160.51,389.816 100.472,397.677C75.267,400.977 56.353,379.924 59.699,355.921C64.445,321.88 73.245,285.12 71.958,247.429C70.917,216.956 63.537,194.612 58.828,156.107C55.74,130.85 77.104,111.835 100.444,108.861C182.392,98.415 187.662,88.078 259.985,110.838C325.827,131.557 327.444,129.432 411.553,116.384C437.012,112.436 456.362,133 459.378,156.216C470.841,244.445 471.982,246.128 461.247,357.894Z" style="fill:rgb(238,238,238);fill-rule:nonzero;"/>
            <g>
                <path d="M200.156,287.754C200.317,288.518 199.966,288.516 199.344,288.316C198.462,288.042 192.493,286.188 189.621,282.078C188.84,280.981 188.359,279.74 188.079,278.43C187.952,277.808 188.046,277.427 188.805,277.602C189.813,277.824 195.537,279.078 199.333,285.071C199.847,285.885 200.134,286.788 200.156,287.754ZM294.25,312.674C294.04,311.512 294.26,310.438 294.961,309.49C298.566,304.717 304.854,304.331 305.816,304.272C306.596,304.231 306.659,304.623 306.516,305.229C306.393,305.764 305.699,308.781 302.45,310.762C299.087,312.808 294.923,312.693 294.25,312.674ZM304.805,317.662C304.73,318.065 304.478,318.337 304.149,318.551C303.391,319.09 298.878,322.297 292.617,320.036C291.433,319.607 290.413,318.813 289.528,317.942C289.123,317.551 288.972,317.275 289.517,316.961C289.916,316.729 291.789,315.643 295.128,315.61C295.828,315.606 299.543,315.586 303.749,317.147L304.805,317.662ZM194.224,290.473C199.76,290.496 203.102,292.959 203.744,293.433C203.86,293.517 205.229,294.256 205.167,294.862C205.093,295.556 203.837,295.834 203.511,295.95C203.082,296.11 201.041,296.873 197.789,296.06C197.123,295.894 192.948,294.847 190.212,292.041C190.01,291.84 189.57,291.511 189.72,291.124L190.621,290.775L194.224,290.473ZM206.333,286.663C206.333,287.679 206.208,288.675 205.844,289.63C205.617,290.22 205.341,290.214 204.878,289.828C204.523,289.537 202.793,288.122 201.711,285.044C201.466,284.349 199.905,279.928 200.911,275.873C201.142,274.939 201.322,274.801 202.067,275.629C205.889,279.882 206.271,285.718 206.333,286.663ZM287.995,308.389C288.063,307.582 288.526,302.128 292.25,299.206C293.036,298.575 293.239,298.745 293.428,299.817C294.788,307.265 291.318,310.934 290.65,311.64C290.342,311.975 289.6,312.822 288.939,312.444C288.178,312.023 288.219,310.786 288.117,310.168L287.995,308.389ZM263.241,307.493C263.644,314.565 259.473,317.93 256.53,319.762C255.172,314.387 257.884,307.884 263.241,307.493ZM237.887,314.117C237.04,313.053 230.879,305.318 231.066,298.546C231.091,297.602 231.466,297.847 232.01,298.311C232.82,299.004 237.389,302.914 238.076,310.181C238.219,311.54 238.183,312.776 237.887,314.117ZM278.184,305.739C278.341,306.238 279.146,308.81 278.407,312.275C278.292,312.813 277.523,316.416 274.796,318.122C273.774,318.749 273.587,318.512 273.118,317.194C272.521,315.525 272.479,313.889 272.94,312.192C274.035,308.132 276.859,306.353 277.373,306.029L277.84,305.764L278.184,305.739ZM216.077,287.797C219.652,290.785 222.315,297.715 221.499,301.02C221.428,301.319 221.271,302.679 220.555,302.765C219.879,302.837 219.052,301.377 218.944,301.224C214.496,294.981 215.841,288.87 216.077,287.797ZM278.54,321.65C284.305,323.804 287.17,327.974 287.695,328.737C288.302,329.621 288.314,329.943 287.239,329.929C283.493,329.879 279.317,326.642 278.729,326.187C276.382,324.342 274.946,322.527 274.662,322.168C274.294,321.715 274.032,321.29 274.84,321.225C276.12,321.132 277.314,321.246 278.54,321.65ZM215.833,303.667C217.046,303.844 218.179,304.283 219.233,304.9C220.106,305.412 220.428,305.573 219.488,306.182C218.934,306.562 215.984,308.585 211.511,308.812C209.975,308.892 208.492,308.684 207.055,308.12C205.959,307.704 205.95,307.528 206.655,306.759C207.064,306.304 209.185,303.94 213.6,303.551L215.833,303.667ZM280.118,331.34C275.876,332.075 269.544,329.77 266.574,324.169C266.232,323.499 266.127,323.144 266.996,323.22C274.203,323.93 279.347,330.375 280.118,331.34ZM214.255,312.639C214.774,312.164 217.622,309.563 222.61,309.904C224.221,310.008 225.744,310.465 227.188,311.175C228.131,311.623 228.346,311.671 227.666,312.499C224.77,316.057 219.672,314.792 218.977,314.619C217.26,314.216 215.732,313.625 214.255,312.639ZM229.799,305.561L229.299,307.971C229.024,308.65 228.695,308.426 228.288,307.992C227.865,307.539 225.756,305.276 224.31,301.345C224.104,300.788 222.618,296.785 223.088,294.026C223.1,293.966 223.112,293.309 223.399,293.27C223.775,293.186 224.067,293.793 224.188,293.94C224.754,294.622 228.488,299.12 229.555,303.634L229.754,304.884L229.799,305.561ZM264.552,316.17C264.542,314.632 264.976,313.27 265.774,311.973C266.037,311.541 267.267,309.523 270.296,307.556C270.937,307.164 271.091,307.407 271.229,308.116C271.574,309.856 271.337,311.379 270.818,313.038C270.633,313.627 269.394,317.558 266.296,319.3C265.306,319.838 265.288,319.515 264.941,318.509L264.552,316.17ZM271.907,334.114C267.704,333.046 265.729,331.839 265.241,331.541C261.25,329.081 259.289,324.498 258.975,323.764C258.8,323.367 258.71,323.043 259.319,323.244C260.555,323.656 267.072,325.828 271.84,333.648L271.974,333.969L271.907,334.114ZM222.233,319.503C222.86,318.346 223.659,317.683 224.755,317.02C229.416,314.219 233.904,315.459 234.676,315.672C235.246,315.826 235.667,315.941 235.243,316.626C234.145,318.497 231.332,321.423 225.977,320.284L222.233,319.503ZM282.173,315.968C280.217,312.486 281.018,309.386 281.162,308.827C281.291,308.31 281.977,305.568 284.751,303.217C285.295,302.742 285.518,303.11 285.762,303.624C286.503,305.209 286.696,306.771 286.428,308.485C285.689,313.107 282.707,315.533 282.173,315.968ZM209.033,281.951C212.58,285.422 215.013,292.814 212.211,296.174C208.307,292.65 206.662,284.496 209.033,281.951ZM203.455,302.146C201.675,301.977 199.954,301.671 198.444,300.672C197.577,300.097 197.418,299.931 198.322,299.169C200.926,296.934 204.624,297.782 205.167,297.906L210.733,299.789C211.291,300.016 211.407,300.203 210.989,300.644C210.148,301.477 209.019,301.752 207.889,301.971C206.409,302.257 204.953,302.246 203.455,302.146ZM290.572,325.152C287.143,324.137 285.397,322.783 285.006,322.481L284.451,322.039C284.137,321.765 283.114,321.017 283.151,320.329C283.18,319.845 284.11,320.129 284.595,320.148C285.186,320.168 289.815,320.32 291.928,321.053C293.531,321.62 294.865,322.567 296.005,323.819C296.782,324.673 296.881,324.898 295.883,325.289C294.186,325.954 292.262,325.573 290.572,325.152Z" style="fill:rgb(92,145,59);"/>
                <path d="M256.297,326.886L247.942,322.161L246.342,321.663L237.954,321.169C238.399,320.943 240.306,319.975 244.076,319.968L235.021,314.21C236.078,314.328 236.638,314.775 237.587,315.287L246.387,319.854C247.623,320.464 248.64,320.415 250.031,320.586L260.608,321.524L250.209,321.854C254.128,324.362 255.885,326.407 256.297,326.886Z" style="fill:rgb(92,145,59);"/>
            </g>
            <path d="M342.513,194.056L340.824,194.956C340.797,194.97 335.1,198.534 331.405,198.318C331.069,198.298 330.681,198.479 330.615,198.855C330.409,199.837 329.654,200.104 328.66,200.107C327.039,200.122 325.661,200.828 324.704,202.137C323.616,203.602 322.137,204.728 320.282,204.962L318.538,205.62C316.92,206.438 315.114,206.661 313.349,206.232C312.769,206.086 312.357,206.185 311.971,206.652L309.26,209.558C308.764,210.057 308.218,210.555 307.471,210.563C305.722,210.586 305.86,210.798 300.85,212.389C299.876,212.698 293.23,214.809 288.273,214.568C287.81,214.544 284.326,214.368 282.606,213.388C281.444,212.727 280.446,212.642 279.173,213.17L277.418,214.032C274.205,216.149 270.485,214.455 269.941,214.207C269.47,213.986 268.89,213.776 268.352,213.898C266.364,214.33 266.441,214 260.508,213.191L256.93,212.104C254.826,211.903 254.969,211.637 248.864,209.15C245.451,207.747 245.664,207.385 242.976,207.014C241.684,206.839 240.67,206.173 239.843,205.188C239.112,204.32 238.209,203.819 237.121,204.145C236.188,204.431 235.295,204.105 234.565,203.52C233.672,202.811 232.736,202.468 231.599,202.494C230.226,202.518 228.996,202.396 227.766,201.701L218.755,196.778C217.635,196.052 217.403,196.366 217.5,197.529C217.617,198.94 217.978,200.321 218.159,201.725C218.219,202.188 218.238,202.658 218.222,203.125L217.822,210.742C217.423,215.93 212.966,217.752 212.289,218.029C211.053,218.537 209.887,218.357 208.711,217.659C208.174,217.336 204.071,214.87 201.833,213.917C201.174,213.636 196.907,211.821 192.879,213.745C191.876,214.228 191.024,215.235 189.767,214.954L189.474,215.2C188.438,216.396 187.436,217.509 187.067,219.074C186.945,219.582 186.129,222.982 183.57,224.593L180.38,227.128C179.09,227.918 177.045,228.575 175.747,227.401C172.209,224.177 172.056,224.3 171.798,223.455C171.643,222.959 171.215,222.893 171.015,223.457C170.529,224.86 170.038,226.415 170.673,227.852C171.121,228.86 171.625,229.93 172.411,230.739L172.869,231.671C173.109,232.957 173.187,234.236 172.914,235.529C172.763,236.253 172.838,236.892 173.216,237.532C173.29,237.658 173.968,238.53 173.717,238.933C172.97,240.114 173.463,240.736 174.189,241.944L174.287,242.22C174.253,243.529 175.018,244.103 176.238,244.576C176.922,244.848 177.483,245.136 177.687,245.872L179.179,252.197C179.398,252.876 179.542,253.374 180.169,253.71C181.733,254.529 183.121,255.102 183.971,256.697C184.406,257.505 185.435,257.63 186.252,257.483C186.495,257.438 187.025,257.219 187.221,257.585C187.621,258.263 188.242,258.297 188.983,258.188C190.415,257.955 191.576,258.643 192.392,259.778C192.834,260.396 193.404,260.774 194.123,260.996L198.833,262.802C199.75,263.255 200.688,263.423 201.533,262.791L202.311,262.676C203.706,263.015 205.071,262.7 206.189,261.805C206.655,261.427 207.207,261.215 207.789,261.549C208.738,262.085 209.61,262.004 210.689,261.883C211.818,261.735 212.926,261.831 213.889,262.527C215.795,263.895 217.754,267.243 218.022,267.7C218.718,268.88 218.763,270.048 218.533,271.348C218.453,271.778 218.625,271.866 218.999,271.957L225.433,273.827L224.344,271.852C223.626,270.615 222.942,269.032 223.466,267.584C223.645,267.088 224.705,264.148 228.455,263.277L231.477,262.662C235.116,261.804 239.383,264.28 239.987,264.63C241.209,265.336 243.1,265.651 244.231,264.571L244.942,264.443C245.79,264.581 246.556,264.714 247.287,265.167C247.951,265.601 248.709,265.946 249.353,265.338C249.667,265.058 250.271,265.225 250.575,265.337L251.397,265.322C252.142,264.686 253.22,264.741 254.097,264.825L254.753,264.805C256.324,263.348 260.158,263.838 260.63,263.898C261.34,263.982 261.925,263.892 262.419,263.332C264.855,260.608 268.214,263 268.374,263.094C268.96,263.447 269.206,263.431 269.407,262.799C269.681,261.898 270.16,261.025 271.129,260.783C271.69,260.645 271.807,260.291 271.807,259.77L271.874,255.069C271.982,250.011 276.857,250.765 277.407,250.85L282.528,252.387C283.749,252.79 284.785,253.428 285.717,254.311L288.284,256.915C289.053,257.666 289.922,257.984 290.972,257.695C291.854,257.445 292.118,256.903 291.895,256.011C291.745,255.383 292.066,255.325 292.561,255.488C293.028,255.645 294.21,256.212 294.883,255.914C296.336,255.301 297.91,256.187 299.25,256.59L300.85,257.267C302.314,258.543 303.568,258.517 304.749,259.751L305.372,259.886C304.939,259.572 304.794,259.32 304.927,258.764C305.142,257.83 304.885,256.908 304.394,256.112C303.504,254.66 301.939,253.611 301.694,251.809L300.727,250.706L298.661,248.708C298.285,248.335 297.832,247.863 297.716,247.305C297.321,245.277 294.857,242.261 294.539,241.871C290.407,236.8 291.188,232.381 291.339,231.528C291.511,230.522 291.627,229.157 292.495,228.393C293.348,227.636 294.102,227.242 294.028,226.017L294.261,225.644C295.902,224.713 297.411,224.063 299.261,224.871C300.128,225.252 301.069,225.482 302.016,225.524C303.179,225.595 304.188,225.11 304.516,223.926L305.205,222.03C307.566,218.642 312.409,216.167 313.127,215.8L317.349,214.272C318.268,213.943 319.129,213.538 320.116,213.492C320.734,213.459 321.127,213.213 321.516,212.751C321.932,212.237 324.854,208.631 328.149,207.823C328.995,207.618 329.38,206.849 329.66,206.134C330.014,205.17 330.371,204.054 331.306,203.463C337.274,199.677 336.904,198.942 340.477,198.584C341.299,198.512 341.739,198.029 341.939,197.266L342.719,194.145L342.832,194.005L342.513,194.056Z" style="fill:rgb(244,144,12);"/>
        </g>
    </g>
</svg>
