<?xml version="1.0" encoding="UTF-8" standalone="no"?>
<!DOCTYPE svg PUBLIC "-//W3C//DTD SVG 1.1//EN" "http://www.w3.org/Graphics/SVG/1.1/DTD/svg11.dtd">
<svg width="100%" height="100%" viewBox="0 0 512 512" version="1.1" xmlns="http://www.w3.org/2000/svg" xmlns:xlink="http://www.w3.org/1999/xlink" xml:space="preserve" xmlns:serif="http://www.serif.com/" style="fill-rule:evenodd;clip-rule:evenodd;stroke-linejoin:round;stroke-miterlimit:2;">
    <g>
        <g>
            <path d="M71.817,388.86C83.497,399.9 98.094,397.989 100.472,397.677C182.335,386.958 187.634,376.33 259.985,399.708C297.334,411.775 314.968,422.501 412.318,408.636C435.326,405.358 458.979,381.932 461.764,352.466C466.679,300.442 468.608,285.16 468.374,256.129C430.099,257.361 375.448,269.491 337.636,270.791C304.639,271.924 281.616,262.086 250.442,252.161C170.014,286.311 162.426,321.364 71.817,388.86Z" style="fill:rgb(215,20,26);fill-rule:nonzero;"/>
            <path d="M411.553,116.384C327.618,129.405 325.974,131.604 259.985,110.838C187.662,88.078 182.392,98.415 100.444,108.861C97.885,109.187 83.426,111.03 71.257,122.592C136.499,167.239 173.343,170.341 250.442,252.161C283.548,262.701 307.385,273.327 345.969,270.368C389.195,267.054 432.385,257.288 468.374,256.129C467.996,209.569 461.861,175.326 459.378,156.216C456.362,133 437.012,112.436 411.553,116.384Z" style="fill:rgb(238,238,238);fill-rule:nonzero;"/>
            <path d="M71.817,388.86C162.355,321.417 170.027,286.306 250.442,252.161C173.333,170.33 136.549,167.274 71.257,122.592C60.764,132.566 57.501,145.252 58.828,156.107C63.724,196.142 71.627,218.892 72.074,252.415C72.522,286.05 64.919,320.527 60.5,350.357C56.885,374.756 69.483,386.656 71.817,388.86Z" style="fill:rgb(17,69,126);fill-rule:nonzero;"/>
        </g>
    </g>
</svg>
