<?xml version="1.0" encoding="UTF-8" standalone="no"?>
<!DOCTYPE svg PUBLIC "-//W3C//DTD SVG 1.1//EN" "http://www.w3.org/Graphics/SVG/1.1/DTD/svg11.dtd">
<svg width="100%" height="100%" viewBox="0 0 512 512" version="1.1" xmlns="http://www.w3.org/2000/svg" xmlns:xlink="http://www.w3.org/1999/xlink" xml:space="preserve" xmlns:serif="http://www.serif.com/" style="fill-rule:evenodd;clip-rule:evenodd;stroke-linejoin:round;stroke-miterlimit:2;">
    <g>
        <g>
            <path d="M411.553,116.384C395.17,118.926 343.995,128.724 317.105,125.386C284,121.275 252.352,106.471 222.666,100.424C222.666,141.066 222.666,181.707 222.666,222.349C258.715,229.888 293.869,249.255 333.464,248.678C370.913,248.131 429.08,235.143 467.755,233.885C466.162,199.708 461.94,175.933 459.378,156.216C456.362,133 437.012,112.436 411.553,116.384ZM222.666,389.015C287.859,402.65 286.549,426.549 412.318,408.636C435.326,405.358 458.979,381.932 461.764,352.466C467.381,293.007 467.557,292.574 468.072,278.371C427.324,279.68 361.525,294.542 325.485,293.071C292.607,291.729 253.806,273.306 222.666,266.793L222.666,389.015ZM71.062,278.724C69.216,300.169 63.474,330.279 60.5,350.357C56.136,379.816 75.318,400.97 100.472,397.677C120.712,395.027 154.544,388.568 178.202,386.766C177.785,344.895 179.224,275.117 179.353,264.617C140.554,268.053 121.454,278.958 71.062,278.724ZM178.222,98.234C154.648,99.983 121.024,106.238 100.444,108.861C77.104,111.835 55.74,130.85 58.828,156.107C62.798,188.574 69.303,213.111 71.205,234.963C119.03,235.486 140.773,223.93 179.374,220.273C178.585,159.226 178.222,159.415 178.222,98.234Z" style="fill:rgb(198,12,48);fill-rule:nonzero;"/>
            <path d="M222.666,100.424C206.964,97.227 193.213,97.122 178.222,98.234C178.222,159.29 178.584,159.1 179.374,220.273C140.939,223.915 119.03,235.486 71.205,234.963C71.509,238.45 73.027,255.895 71.062,278.724C121.453,278.958 140.388,268.068 179.353,264.617C179.22,275.451 177.785,344.836 178.202,386.766C193.271,385.619 207.01,385.742 222.666,389.015L222.666,266.793C258.743,274.339 293.824,293.692 333.473,293.123C371.052,292.585 429.296,279.616 468.072,278.371C468.201,274.814 468.84,257.174 467.755,233.885C427.096,235.207 361.427,250.092 325.485,248.627C292.617,247.287 253.801,228.86 222.666,222.349C222.666,181.707 222.666,141.066 222.666,100.424Z" style="fill:rgb(238,238,238);fill-rule:nonzero;"/>
        </g>
    </g>
</svg>
