<?xml version="1.0" encoding="UTF-8" standalone="no"?>
<!DOCTYPE svg PUBLIC "-//W3C//DTD SVG 1.1//EN" "http://www.w3.org/Graphics/SVG/1.1/DTD/svg11.dtd">
<svg width="100%" height="100%" viewBox="0 0 512 512" version="1.1" xmlns="http://www.w3.org/2000/svg" xmlns:xlink="http://www.w3.org/1999/xlink" xml:space="preserve" xmlns:serif="http://www.serif.com/" style="fill-rule:evenodd;clip-rule:evenodd;stroke-linejoin:round;stroke-miterlimit:2;">
    <g>
        <g>
            <path d="M461.247,357.894C458.974,381.556 435.684,405.308 412.318,408.636C308.939,423.36 296.194,410.772 244.032,394.61C189.598,377.745 160.51,389.816 100.472,397.677C75.267,400.977 56.353,379.924 59.699,355.921C64.445,321.88 73.245,285.12 71.958,247.429C70.917,216.956 63.537,194.612 58.828,156.107C55.74,130.85 77.104,111.835 100.444,108.861C182.392,98.415 187.662,88.078 259.985,110.838C325.827,131.557 327.444,129.432 411.553,116.384C437.012,112.436 456.362,133 459.378,156.216C470.841,244.445 471.982,246.128 461.247,357.894Z" style="fill:rgb(238,238,238);fill-rule:nonzero;"/>
            <path d="M441.71,372.343C420.619,375.161 421.519,363.415 400.311,366.15C380.592,368.693 376.065,380.499 356.912,381.814C339.287,383.024 337.523,373.339 316.282,370.805C296.193,368.405 294.105,378.048 276.207,372.371C258.096,366.627 253.477,353.341 235.799,348.478C218.555,343.736 216.022,353.323 195.385,353.408C175.92,353.489 172.727,343.117 155.719,345.567C138.566,348.039 133.952,360.178 116.282,362.977C98.803,365.745 96.981,355.406 78.118,356.337C67.757,356.849 60.924,360.231 59.557,360.886C59.381,371.725 63.54,378.92 64.341,380.305C65.205,380.06 69.253,378.912 75.441,378.607C94.502,377.665 97.023,387.995 114.9,385.227C132.998,382.424 137.409,370.293 155.117,367.804C172.564,365.352 175.988,375.717 195.402,375.63C216.064,375.539 218.567,365.96 235.81,370.703C253.479,375.564 258.097,388.85 276.218,394.597C294.099,400.268 296.126,390.661 316.538,393.057C337.396,395.504 339.452,405.184 357.305,404.01C375.632,402.804 379.914,391.071 399.29,388.561C419.91,385.889 419.27,396.724 439.751,393.555L442.393,392.98C450.878,384.983 457.067,375.096 459.676,365.902C458.609,366.55 451.662,371.013 441.71,372.343ZM462.916,340.156C463.626,332.663 464.336,325.171 465.047,317.678C463.193,318.804 456.285,323.146 445.68,324.171C423.466,326.318 424.644,313.753 402.485,317.011C381.907,320.037 377.259,332.581 357.286,334.278C339.412,335.797 337.512,326.049 316.282,323.516C296.193,321.117 294.105,330.759 276.207,325.082C258.096,319.338 253.477,306.052 235.799,301.189C218.559,296.448 216.001,306.036 195.397,306.119C176.352,306.196 173.51,295.826 157.729,298.297C142.025,300.757 137.592,312.879 121.318,315.677C105.178,318.451 104.041,308.168 85.927,309.104C75.276,309.654 66.8,313.685 66.418,313.855C64.607,324.951 64.584,324.784 62.753,336.025C63.657,335.609 71.449,331.791 82.146,331.255C100.612,330.328 101.933,340.652 118.762,337.883C135.739,335.089 140.353,322.953 156.747,320.495C173.119,318.04 176.096,328.415 195.389,328.341C215.99,328.263 218.557,318.669 235.799,323.411C253.468,328.271 258.086,341.557 276.207,347.305C294.089,352.976 296.116,343.369 316.527,345.767C337.502,348.229 339.353,358.061 357.735,356.692C376.699,355.278 381.362,343.221 401.402,340.563C423.048,337.692 422.256,348.585 443.903,346.234C454.233,345.087 461.107,341.155 462.916,340.156ZM467.448,290.879C467.558,289.153 468.123,280.302 468.315,269.276C465.755,270.742 459.283,274.347 448.848,275.334C425.843,277.511 426.663,266.018 403.844,269.399C382.989,272.488 378.073,284.605 357.871,286.596C339.634,288.392 337.324,278.716 316.282,276.205C296.193,273.805 294.105,283.448 276.207,277.771C258.096,272.027 253.477,258.741 235.799,253.878C218.558,249.136 216.505,258.599 195.431,258.813C177.166,259 174.418,248.693 159.313,251.312C144.307,253.914 140.7,265.939 125.457,268.839C110.411,271.701 108.196,261.667 90.74,262.755C89.185,262.852 81.484,263.332 71.829,267.425C71.748,269.158 71.352,277.701 70.022,289.034C71.48,288.411 79.692,284.903 89.276,284.365C106.966,283.371 108.569,293.483 123.974,290.695C139.532,287.88 143.605,275.838 158.818,273.326C174.141,270.797 176.773,281.133 195.414,281.031C216.103,280.919 218.561,271.359 235.799,276.1C253.468,280.96 258.086,294.246 276.207,299.994C294.089,305.665 296.116,296.058 316.527,298.456C337.29,300.893 339.621,310.635 358.287,308.752C377.775,306.786 382.745,294.718 403.534,291.628C425.927,288.3 425.342,298.662 447.964,296.505C458.323,295.518 464.904,292.187 467.448,290.879ZM468.128,243.548C468.076,241.818 467.806,233.022 467.087,221.94C464.269,223.644 458.208,227.038 448.139,227.999C425.041,230.205 425.85,218.648 402.883,222.097C382.312,225.187 377.795,237.298 357.684,239.298C339.513,241.105 337.341,231.429 316.282,228.916C296.193,226.517 294.105,236.159 276.207,230.482C258.096,224.738 253.477,211.452 235.799,206.589C218.55,201.845 216.762,211.253 195.423,211.527C176.994,211.764 173.745,201.306 158.203,203.837C142.469,206.4 140.301,218.792 124.747,221.77C109.431,224.702 105.5,213.911 87.461,214.918C78.08,215.441 71.017,219.151 69.434,219.979C71.158,231.411 71.669,240.941 71.767,242.771C81.048,238.548 88.711,238.054 90.235,237.956C107.674,236.833 110.878,247.091 125.836,244.147C140.983,241.166 144.009,228.986 159.142,226.336C174.303,223.681 177.267,234.024 195.436,233.751C216.95,233.428 218.549,224.067 235.799,228.811C253.468,233.671 258.086,246.957 276.207,252.705C294.089,258.376 296.116,248.769 316.527,251.167C337.244,253.599 339.703,263.345 358.531,261.458C378.229,259.484 382.806,247.41 403.581,244.318C426.433,240.917 425.856,251.381 448.904,249.197C458.983,248.219 465.181,245.131 468.128,243.548ZM464.791,196.334C464.585,194.606 463.873,188.624 461.927,174.772C459.195,176.525 453.525,179.869 443.858,180.812C421.321,183.011 422.163,171.351 399.941,174.856C380.511,177.92 376.434,190.041 357.011,192.018C339.371,193.813 337.414,184.126 316.282,181.605C296.193,179.205 294.105,188.848 276.207,183.171C258.096,177.427 253.477,164.141 235.799,159.278C218.553,154.535 216.159,164.091 195.387,164.209C176.14,164.32 172.812,153.947 155.887,156.438C138.575,158.986 135.994,171.07 119.071,173.908C102.546,176.679 97.782,166.383 78.948,167.347C69.327,167.839 63.514,170.787 61.054,172.131C61.325,173.91 62.592,182.205 64.788,194.322C67.034,193.132 73.171,190.056 82.683,189.562C101.138,188.601 105.99,198.846 121.798,196.084C137.961,193.259 140.214,181.2 156.854,178.658C173.191,176.162 176.451,186.53 195.397,186.431C216.102,186.323 218.557,176.758 235.799,181.5C253.468,186.36 258.086,199.646 276.207,205.394C294.089,211.065 296.116,201.458 316.527,203.856C337.318,206.297 339.491,216.046 358,214.162C377.321,212.194 381.52,200.139 401.533,197.074C424.179,193.607 423.598,204.132 446.317,201.946C455.929,201.01 461.721,198.08 464.791,196.334ZM457.832,149.376C454.958,138.945 449.763,132.489 448.745,131.224C447.963,131.503 444.181,132.852 438.609,133.423C417.457,135.589 418.408,123.988 397.465,127.492C378.959,130.589 374.813,142.719 356.329,144.695C339.374,146.507 337.436,136.829 316.282,134.305C296.193,131.905 294.105,141.548 276.207,135.871C258.096,130.127 253.477,116.841 235.799,111.978C218.555,107.236 216.076,116.81 195.388,116.908C175.922,117.002 172.646,106.634 154.955,109.094C136.883,111.608 133.005,123.738 115.083,126.531C97.429,129.281 93.395,119.025 74.459,119.923C65.707,126.894 60.137,136.364 58.895,146.443C61.47,145.077 66.926,142.629 75.774,142.187C94.849,141.233 99.299,151.557 116.539,148.79C134.199,145.956 137.244,133.867 155.141,131.326C172.576,128.852 175.914,139.225 195.372,139.12C216.114,139.009 218.542,129.444 235.787,134.186C253.456,139.045 258.074,152.33 276.196,158.079C294.078,163.751 296.105,154.144 316.516,156.543C337.343,158.99 339.406,168.745 357.168,166.857C375.543,164.903 379.437,152.814 398.277,149.733C419.663,146.236 419.053,156.819 440.645,154.652C449.587,153.755 455.09,150.948 457.832,149.376Z" style="fill:rgb(0,36,125);fill-rule:nonzero;"/>
            <path d="M359.303,388.457C359.28,390.473 357.57,392.17 355.582,392.298C353.63,392.425 351.9,390.931 351.913,388.937C352.491,300.576 353.041,300.825 352.234,212.262C352.216,210.198 354.024,208.518 356.006,208.326C357.951,208.136 359.837,209.471 359.868,211.522C360.428,249.097 360.86,248.944 359.303,388.457Z" style="fill:rgb(193,105,79);fill-rule:nonzero;"/>
            <path d="M329.952,297.201C330.255,296.485 332.482,293.517 337.109,293.365C342.256,293.195 345.513,296.301 347.629,296.943C352.612,298.47 361.318,298.56 355.562,298.254C355.427,312.036 355.32,311.859 355.192,325.598C352.798,325.808 337.03,327.192 325.171,326.68C325.038,325.436 324.072,316.422 322.338,311.299C321.978,310.246 318.376,299.696 322.771,297.395C326.468,295.487 330.468,297.455 329.952,297.201Z" style="fill:rgb(221,46,68);fill-rule:nonzero;"/>
            <path d="M355.515,288.809L355.489,292.721C354.247,292.736 347.389,292.82 340.53,288.562C335.522,285.457 327.03,283.368 321.26,287.842C317.136,290.996 317.369,300.278 319.971,304.045C321.517,306.326 321.149,306.427 322.888,312.523C320.959,311.165 320.873,311.584 319.627,310.225C314.257,304.351 312.462,295.244 314.082,290.001C316.693,281.493 322.796,279.913 327.782,280.006C337.877,280.192 337.308,281.883 346.411,286.285C347.935,287.012 355.643,288.571 355.515,288.809Z" style="fill:rgb(255,204,77);fill-rule:nonzero;"/>
            <path d="M321.493,309.494L326.049,309.537L324.749,316.439C326.215,315.395 329.085,312.203 329.538,313.945L330.405,321.122L324.515,319.694L327.993,324.82L323.438,326.803C323.234,326.105 321.697,320.847 321.26,317.976C320.816,315.108 321.412,310.167 321.493,309.494ZM331.059,313.519L335.48,313.011C335.198,312.39 331.68,304.662 337.307,304.679C343.611,304.697 339.608,312.089 339.294,312.668L344.068,312.422L344.692,318.679L340.191,316.315L340.162,320.026L345.107,324.379L332.147,326.131L335.449,320.621L335.262,316.727L332.161,320.264L331.059,313.519Z" style="fill:rgb(255,204,77);fill-rule:nonzero;"/>
            <path d="M384.524,292.36C384.32,291.933 382.034,289.021 376.778,289.718C375.792,289.848 376.072,290.277 365.631,295.233C360.44,297.713 351.635,299.5 357.514,298.067C357.369,311.887 357.258,311.736 357.113,325.425C359.667,325.189 369.887,324.243 388.937,321.57C389.125,320.261 390.446,311.048 392.697,305.475C393.112,304.447 397.54,293.502 392.604,291.618C388.464,290.073 383.962,292.685 384.524,292.36Z" style="fill:rgb(221,46,68);fill-rule:nonzero;"/>
            <path d="M357.702,288.6L357.674,292.512C365.827,291.058 372.096,286.342 373.184,285.524C378.949,281.198 388.144,278.047 394.467,281.922C399.03,284.681 398.674,293.949 395.585,298.019C393.781,300.412 394.173,300.539 392.039,306.747C394.244,305.219 394.298,305.641 395.755,304.172C402.347,297.526 404.161,288.522 402.53,283.658C400.721,278.18 396.275,273.532 387.152,274.832C377.406,276.221 367.23,284.215 367.044,284.335C365.179,285.529 357.533,288.293 357.702,288.6Z" style="fill:rgb(255,204,77);fill-rule:nonzero;"/>
            <path d="M393.73,303.588L388.618,304.127L389.824,310.866C389.434,310.652 384.853,308.144 384.578,309.03L383.35,316.35L389.911,314.097L385.851,319.941L390.822,321.528L393.633,312.046C394.24,309.092 393.792,304.262 393.73,303.588ZM382.883,308.85L378.055,309.088C378.343,308.499 382.476,300.046 376.325,301.074C370.889,301.983 372.684,307.279 373.975,309.421L368.942,310.059L368.038,316.446L372.904,313.234L372.792,316.942L367.45,322.342L381.256,321.946L377.808,316.693L378.199,312.761L381.449,315.769L382.883,308.85ZM364.94,276.835C364.931,281.036 361.075,285.104 356.57,285.533C352.035,285.966 348.357,282.589 348.361,278.405C348.366,274.217 352.06,270.307 356.594,269.875C361.151,269.451 364.948,272.673 364.94,276.835ZM349.173,261.162L364.056,259.748L364.083,265.194L349.189,266.608L349.173,261.162Z" style="fill:rgb(255,204,77);fill-rule:nonzero;"/>
            <path d="M353.017,257.149L360.093,256.473C360.278,282.849 359.96,302.714 359.895,306.735L352.864,307.409C352.914,303.389 353.16,283.523 353.017,257.149Z" style="fill:rgb(255,204,77);fill-rule:nonzero;"/>
            <path d="M350.593,305.435L361.623,304.389L358.426,311.887L365.603,307.634L365.384,317.184L358.58,315.773L364.313,323.585L349.206,324.978L353.913,316.224L347.203,318.278L347.3,309.802L353.526,312.122L350.593,305.435Z" style="fill:rgb(255,204,77);fill-rule:nonzero;"/>
            <path d="M356.162,321.05C358.833,320.795 376.468,318.633 390.539,321.58C390.601,322.309 391.047,327.51 389.494,330.665C388.613,332.5 371.736,333.582 355.827,332.443L356.162,321.05Z" style="fill:rgb(255,204,77);fill-rule:nonzero;"/>
            <path d="M356.579,321.01C346.411,321.988 336.34,323.06 324.049,326.848C323.968,327.528 323.382,332.495 324.682,335.38C325.32,336.789 337.509,336.958 356.69,332.371L356.579,321.01Z" style="fill:rgb(255,204,77);fill-rule:nonzero;"/>
            <path d="M393.766,336.095C393.615,340.178 376.526,346.553 355.905,348.067C333.108,349.741 320.138,344.45 320.138,340.838C320.138,335.421 353.089,332.672 356.028,332.427C359.051,332.174 394.02,329.256 393.766,336.095Z" style="fill:rgb(238,238,238);fill-rule:nonzero;"/>
            <path d="M381.158,340.59C381.106,342.607 370.436,346.369 355.91,347.44C340.447,348.579 331.631,345.96 331.631,344.095C331.631,340.746 353.988,338.989 355.974,338.833C357.988,338.674 381.254,336.846 381.158,340.59Z" style="fill:rgb(153,170,181);fill-rule:nonzero;"/>
            <path d="M340.985,146.997L348.191,155.445C348.586,155.174 353.229,151.988 353.445,152.588C353.669,153.208 353.125,159.44 353.073,160.034L356.61,160.546L353.847,169.766C355.15,168.935 358.425,166.31 358.05,167.809L356.864,176.444L358.686,177.342L358.626,185.859C359.157,186.66 360.521,189.01 360.5,188.05L362.052,176.751L364.595,178.409L365.329,172.865L367.114,163.242L369.45,166.426L373.705,150.3L376.304,155.391L381.653,148.227L385.414,147.409L390.889,144.99L392.146,148.067L397.253,147.23C396.331,148.177 394.452,149.233 394.951,150.457C395.329,151.445 399.64,152.899 399.364,153.038C398.641,153.401 388.206,154.055 387.234,154.116L381.027,161.447L385.132,162.135L379.177,166.55L384.461,167.283L379.855,171.486L383.938,170.434L377.541,176.212L384.245,176.539L375.48,182.198L377.639,184.083L368.831,190.316L367.768,193.941L376.114,186.49L386.203,178.651C388.745,176.768 390.816,174.317 393.232,172.274C394.406,171.282 396.264,170.226 397.721,169.595C403.455,167.113 413.06,167.196 414.409,167.208L404.533,174.032L406.864,176.753L400.312,179.757L401.51,183.303L390.401,186.574L390.869,190.448L381.335,193.413L380.322,197.28L373.834,200.368L376.978,202.337C375.747,202.892 374.532,203.48 373.323,204.081C372.874,204.304 371.603,204.876 372.098,204.955L380.39,204.693C380.39,204.693 378.804,206.289 378.037,207.111C377.756,207.412 376.988,208.222 377.396,208.166L387.655,207.134L383.694,210.331L393.323,209.347L389.106,213.03C389.745,212.988 397.088,212.511 397.117,213.149C397.199,214.963 392.714,218.923 393.904,217.55L400.954,217.149C399.941,218.319 396.892,220.767 398.416,221.037L408.647,225.402L397.616,225.746C396.821,226.881 395.332,230.051 394.778,228.782L391.73,224.646L389.132,227.65L386.068,222.852C385.101,223.497 382.605,225.506 382.939,224.393C383.244,223.467 375.056,216.84 378.944,220.147L378.042,222.243L375.269,216.734L372.955,220.085L368.321,215.006L366.709,217.591L360.514,213.298L360.567,217.214C361.227,218.893 366.679,221.038 365.092,220.182C364.055,220.703 362.269,221.074 362.28,222.234C362.288,222.94 367.586,226.066 368.076,226.355L365.488,228.413L371.794,232.441C370.388,232.887 369.003,233.4 367.629,233.937C367.299,234.065 366.469,234.428 366.787,234.584L370.452,238.056L368.145,243.572L363.274,237.382L360.667,238.324L360.1,232.72L357.524,232.762L358.815,226.322L356.024,227.034L355.717,221.839L354.503,216.735L352.174,213.456C351.569,214.505 350.4,215.687 350.813,216.825L352.939,221.429C352.085,221.94 350.262,222.756 350.848,223.561L353.938,228.731L349.088,230.228C350.364,230.13 352.374,234.138 351.675,233.066L348.671,234.396L347.322,237.763C347.322,237.763 345.81,236.252 345.007,235.548C344.729,235.304 343.964,234.581 344.087,234.929C344.328,235.579 342.274,241.252 342.079,241.79L338.668,238.247L341.97,225.257L337.903,224.353L335.037,230.321C334.284,229.472 332.749,227.122 332.378,228.194L329.749,233.223L327.16,229.059C327.382,229.743 324.181,235.969 323.882,236.55C323.665,236.102 320.838,230.283 320.838,231.12L318.671,239.411C318.433,238.985 315.217,233.21 315.405,234.252C315.642,235.39 313.262,239.594 313.016,240.029L312.349,234.487L307.571,236.514L313.005,229.572L322.149,222.075L329.115,217.133L324.515,216.361L331.913,214.09C333.105,213.945 327.75,211.741 328.882,212.142L341.236,208.147C340.761,207.931 335.615,205.589 335.007,206.204C334.168,207.053 328.372,208.099 327.782,208.206L326.915,203.186L320.182,205.62C319.858,204.24 319.318,200.231 318.871,201.576C318.62,202.332 313.883,204.217 313.427,204.399L310.838,201.186L307.783,205.453L304.294,202.17L298.005,202.73L301.038,198.864L297.561,196.101L304.738,193.126L306.26,190.38L316.06,192.578L313.882,189.462C314.009,189.667 318.74,191.515 323.882,192.617L326.727,192.303L336.327,195.724L328.46,189.505L321.716,187.899L326.071,184.66L315.838,180.151L318.027,176.923C316.927,176.524 311.586,174.586 304.516,171.337L312.805,170.609L307.138,160.09L318.882,168.743L324.104,167.396L326.727,174.247L331.504,177.117L332.361,182.108L334.761,180.976L336.955,186.781L339.83,185.789L341.387,189.86L345.641,189.818L344.46,184.447L346.209,181.718L341.312,178.092L345.514,175.883L339.31,171.219L344.572,170.275L337.108,163.47L343.01,163.412L337.099,156.947L341.892,155.639L340.985,146.997Z" style="fill:rgb(119,178,85);fill-rule:nonzero;"/>
            <path d="M267.107,257.612C267.107,209.449 267.107,161.287 267.107,113.125C187.179,87.525 185.406,98.031 100.444,108.861L93.733,110.152C93.714,118.497 94.283,128.076 94.376,129.632C77.804,131.524 66.395,131.529 63.956,131.53L62.687,133.814C61.865,135.427 57.377,144.235 58.828,156.107C63.964,198.102 72.314,220.622 72.09,257.094C119.886,257.574 136.079,247.009 180.635,242.378C213.994,238.91 240.539,248.874 267.107,257.612Z" style="fill:rgb(0,36,125);fill-rule:nonzero;"/>
            <path d="M267.107,113.125C265.041,112.463 247.858,106.96 241.209,105.051C216.783,113.56 193.077,130.803 189.241,133.593C189.24,117.734 189.333,97.822 189.333,97.638C169.624,98.26 138.196,103.202 133.778,103.897C133.778,118.894 134.226,129.995 134.317,132.263C127.585,128.652 110.437,119.653 93.733,110.152C83.329,112.875 76.569,118.107 75.271,119.112C92.714,130.141 120.563,144.699 129.021,149.228C117.314,151.219 112.008,152.024 110.526,152.248C106.991,150.34 82.88,137.326 67.122,126.996L63.956,131.53C78.689,141.279 98.079,151.921 101.109,153.584C78.35,156.567 61.502,156.11 58.828,156.107C60.94,173.373 67.212,207.275 68.032,211.709C69.945,211.712 87.858,212.269 109.734,209.074C85.22,237.155 73.267,242.631 71.794,243.538L72.09,257.094C72.231,257.096 88.394,257.761 107.637,255.053C120.985,242.611 138.474,222.853 140.933,220.124C141.067,222.406 141.754,234.076 141.709,248.688C145.506,247.903 171.236,242.585 189.685,241.772C189.692,222.802 189.563,208.335 189.537,205.428C201.232,213.494 215.591,223.838 241.198,249.318C247.851,251.279 265.04,256.932 267.107,257.612L267.107,235.067C264.624,232.511 244.418,211.717 235.832,203.343C244.418,205.706 264.616,212.348 267.107,213.167L267.107,157.612C264.617,156.793 244.426,150.152 235.843,147.79C244.425,144.141 264.594,136.646 267.107,135.712C267.107,128.183 267.107,120.654 267.107,113.125Z" style="fill:rgb(238,238,238);fill-rule:nonzero;"/>
            <path d="M178.222,98.234C175.544,98.433 164.459,99.255 144.889,102.184C144.889,103.365 144.629,125.907 146.303,157.544C110.456,163.426 96.255,167.295 60.316,167.246C60.702,169.917 62.38,181.545 65.916,200.521C102.073,200.548 113.932,196.866 148.394,190.854C148.603,193.851 150.96,219.926 150.892,246.831C167.145,243.652 177.198,242.7 179.503,242.482C179.525,218.178 178.796,192.58 178.704,186.777C213.182,183.976 231.688,190.408 267.107,202.056L267.107,168.723C231.036,156.86 213.313,150.691 178.256,153.453C177.942,122.116 178.222,99.52 178.222,98.234Z" style="fill:rgb(207,27,43);fill-rule:nonzero;"/>
            <path d="M267.107,113.125L250.875,107.952C217.538,119.741 193.746,137.089 189.245,140.372L189.246,141.717C199.24,141.387 205.391,141.972 206.789,142.105C228.124,129.195 256.258,119.398 267.107,115.367L267.107,113.125ZM75.271,119.112C70.622,122.654 67.691,126.289 67.122,126.996C82.88,137.326 106.991,150.34 110.526,152.248C112.007,152.024 117.313,151.22 129.01,149.23C122.012,145.482 93.081,130.375 75.271,119.112ZM134.305,204.79C123.362,217.39 103.702,240.966 81.418,257.164C82.838,257.143 90.098,257.034 99.139,256.096C115.619,241.737 136.317,217.864 140.471,213.205L139.66,203.769L134.305,204.79ZM267.107,255.412L267.107,241.856C263.878,238.532 238.101,212.002 226.144,200.889C215.79,198.517 208.341,197.809 206.778,197.66C228.147,214.656 256.039,244.021 267.107,255.412Z" style="fill:rgb(207,27,43);fill-rule:nonzero;"/>
        </g>
    </g>
</svg>
