<?xml version="1.0" encoding="UTF-8" standalone="no"?>
<!DOCTYPE svg PUBLIC "-//W3C//DTD SVG 1.1//EN" "http://www.w3.org/Graphics/SVG/1.1/DTD/svg11.dtd">
<svg width="100%" height="100%" viewBox="0 0 512 512" version="1.1" xmlns="http://www.w3.org/2000/svg" xmlns:xlink="http://www.w3.org/1999/xlink" xml:space="preserve" xmlns:serif="http://www.serif.com/" style="fill-rule:evenodd;clip-rule:evenodd;stroke-linejoin:round;stroke-miterlimit:2;">
    <g>
        <g>
            <path d="M411.553,116.384C327.618,129.405 325.974,131.604 259.985,110.838C187.662,88.078 182.392,98.415 100.444,108.861C97.885,109.187 83.426,111.03 71.257,122.592C136.499,167.239 173.343,170.341 250.442,252.161C283.548,262.701 307.385,273.327 345.969,270.368C389.195,267.054 432.385,257.288 468.374,256.129C467.996,209.546 461.925,175.818 459.378,156.216C456.362,133 437.012,112.436 411.553,116.384Z" style="fill:rgb(106,178,231);fill-rule:nonzero;"/>
            <path d="M412.318,408.636C308.939,423.36 296.194,410.772 244.032,394.61C189.598,377.745 160.51,389.816 100.472,397.677C98.074,397.991 83.598,399.886 71.48,389.106C162.197,321.615 170.002,286.314 250.442,252.161C283.548,262.701 307.385,273.327 345.969,270.368C389.195,267.054 432.385,257.288 468.374,256.129C468.576,281.134 467.692,290.797 461.247,357.894C458.974,381.556 435.684,405.308 412.318,408.636Z" style="fill:rgb(18,173,43);fill-rule:nonzero;"/>
            <path d="M71.817,388.86C162.355,321.417 170.027,286.306 250.442,252.161C173.333,170.33 136.549,167.274 71.257,122.592C60.764,132.566 57.501,145.252 58.828,156.107C63.724,196.142 71.627,218.892 72.074,252.415C72.522,286.05 64.919,320.527 60.5,350.357C56.885,374.756 69.483,386.656 71.817,388.86Z" style="fill:rgb(238,238,238);fill-rule:nonzero;"/>
            <path d="M135.47,210.449C136.275,212.588 140.28,223.224 144.618,237.509C159.586,234.432 167.648,233.31 169.664,233.029C162.593,239.97 150.94,252.205 149.333,253.893C149.912,256.008 152.209,264.411 156.205,280.431C154.654,279.35 146.556,273.706 136.763,267.007C125.003,279.124 117.188,286.326 115.43,287.946C120.729,273.197 124.11,261.203 124.773,258.85C117.944,254.225 111.116,249.6 104.287,244.975C106.314,244.714 114.778,243.625 129.466,240.647C130.027,238.249 132.827,226.283 135.47,210.449Z" style="fill:rgb(215,20,26);fill-rule:nonzero;"/>
        </g>
    </g>
</svg>
