<?xml version="1.0" encoding="UTF-8" standalone="no"?>
<!DOCTYPE svg PUBLIC "-//W3C//DTD SVG 1.1//EN" "http://www.w3.org/Graphics/SVG/1.1/DTD/svg11.dtd">
<svg width="100%" height="100%" viewBox="0 0 512 512" version="1.1" xmlns="http://www.w3.org/2000/svg" xmlns:xlink="http://www.w3.org/1999/xlink" xml:space="preserve" xmlns:serif="http://www.serif.com/" style="fill-rule:evenodd;clip-rule:evenodd;stroke-linejoin:round;stroke-miterlimit:2;">
    <g>
        <g>
            <path d="M461.247,357.894C458.974,381.556 435.684,405.308 412.318,408.636C308.939,423.36 296.194,410.772 244.032,394.61C189.598,377.745 160.51,389.816 100.472,397.677C75.267,400.977 56.353,379.924 59.699,355.921C64.124,324.182 72.441,288.14 72.083,253.166C71.737,219.335 63.762,196.456 58.828,156.107C55.74,130.85 77.104,111.835 100.444,108.861C182.392,98.415 187.662,88.078 259.985,110.838C325.827,131.557 327.444,129.432 411.553,116.384C437.012,112.436 456.362,133 459.378,156.216C470.836,244.4 471.98,246.152 461.247,357.894Z" style="fill:rgb(0,107,63);fill-rule:nonzero;"/>
            <path d="M467.141,222.773C400.911,224.937 350.516,248.215 289.328,231.164C289.328,194.053 289.328,156.942 289.328,119.832C272.858,115.361 242.35,104.434 222.666,100.424C222.666,137.362 222.666,174.3 222.666,211.237C169.281,200.076 136.248,224.041 69.928,223.515C73.704,251.294 71.618,275.486 69.949,289.544C138.622,289.68 169.845,266.86 222.666,277.904L222.666,389.015C242.254,393.112 272.537,404.262 289.328,408.942L289.328,297.831C350.512,314.881 401.174,291.622 467.535,289.48C469.415,258.48 467.48,228.099 467.141,222.773Z" style="fill:rgb(238,238,238);fill-rule:nonzero;"/>
            <path d="M222.666,100.424C224.464,100.791 232.371,102.401 244.887,106.127C244.887,202.375 244.887,298.623 244.887,394.87C232.371,391.045 224.465,389.392 222.666,389.015C222.666,292.818 222.666,196.621 222.666,100.424Z" style="fill:rgb(252,209,22);fill-rule:nonzero;"/>
            <path d="M69.928,223.515C147.543,224.13 169.667,194.015 243.998,216.822C292.563,231.724 305.813,241.009 357.233,236.083C385.478,233.378 435.571,223.805 467.141,222.773C467.867,234.181 468.121,243.225 468.171,245.005C426.914,246.34 359.968,261.576 323.993,259.667C283.806,257.535 234.992,229.875 196.013,230.488C149.175,231.224 125.922,246.745 71.91,246.13C71.839,244.315 71.466,234.825 69.928,223.515Z" style="fill:rgb(252,209,22);fill-rule:nonzero;"/>
            <path d="M244.887,106.127C250.145,107.692 265.333,112.557 267.107,113.125C267.107,209.435 267.107,305.746 267.107,402.056C265.333,401.472 250.145,396.478 244.887,394.87C244.887,298.623 244.887,202.375 244.887,106.127Z" style="fill:rgb(20,20,20);fill-rule:nonzero;"/>
            <path d="M71.91,246.13C147.418,246.99 169.108,216.065 243.998,239.044C292.742,254.001 305.746,263.22 357.448,258.308C385.907,255.604 436.351,246.034 468.171,245.005C468.491,256.39 468.37,265.472 468.346,267.252C427.042,268.578 360.017,283.801 323.993,281.89C283.717,279.752 235.402,252.186 196.012,252.709C148.556,253.338 127.796,268.356 71.792,267.933C72.329,256.796 71.979,247.873 71.91,246.13Z" style="fill:rgb(20,20,20);fill-rule:nonzero;"/>
            <path d="M255.997,187.288C284.034,196.44 322.66,229.648 322.66,270.699C322.66,301.994 299.634,334.866 255.997,320.621C238.036,314.758 189.669,289.276 189.685,241.772C189.697,207.001 215.146,173.953 255.997,187.288Z" style="fill:rgb(221,46,68);"/>
            <path d="M255.997,194.399L254.12,199.61L247.953,197.642L252.964,202.848L251.042,208.053L255.997,206.043L260.941,211.278L259.041,204.786L264.03,202.875L257.897,200.854L255.997,194.399ZM221.777,195.943L223.677,202.152L218.699,204.779L224.866,206.023L226.732,212.28L228.61,206.892L234.743,208.479L229.766,203.564L231.71,198.256L226.744,200.638L221.777,195.943ZM200.622,222.361L205.578,226.252L203.678,231.961L208.667,228.776L213.611,233.041L211.7,226.937L216.666,224.107L210.5,223.182L208.655,217.131L206.767,222.781L200.622,222.361ZM200.622,258.349L206.733,258.744L208.633,264.795L210.533,259.141L216.666,260.074L211.7,255.737L213.611,250.175L208.611,253.137L203.7,249.063L205.6,255.043L200.622,258.349ZM221.777,290.154L226.71,287.631L231.688,292.472L229.777,286.112L234.754,283.826L228.621,282.262L226.732,275.98L224.821,281.402L218.711,280.125L223.677,284.719L221.777,290.154ZM255.997,310.832L257.875,305.636L264.03,307.664L259.019,302.389L260.941,297.2L255.997,299.199L251.053,293.978L252.942,300.44L247.964,302.423L254.097,304.381L255.997,310.832ZM290.217,310.51L288.306,304.166L293.283,301.901L287.117,300.216L285.251,293.841L283.373,299.118L277.24,297.22L282.217,302.381L280.273,307.599L285.251,305.475L290.217,310.51ZM311.36,286.069L306.405,281.63L308.305,276.124L303.316,278.79L298.383,274.065L300.283,280.328L295.328,282.738L301.483,284.196L303.327,290.426L305.227,284.979L311.36,286.069ZM311.349,250.089L305.249,249.017L303.349,242.775L301.45,248.244L295.317,246.758L300.283,251.539L298.383,256.931L303.372,254.435L308.283,259.02L306.383,252.826L311.349,250.089ZM290.206,216.296L285.273,218.492L280.295,213.383L282.195,219.83L277.229,221.872L283.362,223.748L285.251,230.141L287.162,224.829L293.261,226.562L288.306,221.611L290.206,216.296Z" style="fill:rgb(0,96,0);fill-rule:nonzero;"/>
            <path d="M273.707,291.073C273.077,286.075 272.959,279.991 272.94,279.026C272.889,276.173 267.204,269.979 263.641,268.836C260.917,262.368 253.448,254.478 248.853,257.625C248.382,260.865 249.466,268.297 250.853,270.926L258.386,275.081C259.206,274.832 260.021,273.94 260.286,273.151L260.83,272.975C261.652,276.422 265.124,288.517 265.808,290.495C266.076,291.271 268.476,298.201 270.674,299.535C273.523,301.977 272.998,295.762 272.863,294.712C274.103,294.818 273.846,292.31 273.707,291.073Z" style="fill:rgb(0,105,63);fill-rule:nonzero;"/>
            <path d="M265.552,232.211C265.704,233.455 266.463,234.846 267.263,235.774C266.778,235.976 266.451,236.379 266.263,236.867C263.281,238.456 255.828,255.075 255.697,259.101C255.567,259.635 254.546,263.817 253.331,265.555C248.301,259.417 243.577,249.548 244.309,246.55L243.12,245.957L243.454,243.057L242.209,242.54L242.498,239.382L241.02,237.844L242.643,234.803C241.973,234.519 241.455,233.718 241.165,233.131C241.801,232.932 242.611,232.056 242.92,231.508L241.687,229.807L245.165,226.911L244.009,226.414C244.75,226.35 246.2,225.133 246.498,224.944C248.036,226.76 251.459,227.556 252.753,227.235C255.302,229.529 258.742,230.863 262.186,230.889C262.484,231.073 264.712,232.275 265.552,232.211Z" style="fill:rgb(125,118,182);fill-rule:nonzero;"/>
            <path d="M276.418,287.605C277.028,266.095 272.881,247.053 268.274,239.684C262.919,231.121 253.137,229.805 250.564,234.456C249.532,236.301 249.332,242.466 250.409,245.129C252.827,251.057 261.119,267.433 265.419,273.033C273.431,283.469 273.558,283.239 276.418,287.605Z" style="fill:rgb(0,105,63);fill-rule:nonzero;"/>
            <path d="M268.463,280.235C266.816,279.887 264.986,278.824 263.697,277.798C262.438,276.788 261.095,275.617 259.508,275.095C257.453,274.418 248.83,270.74 248.364,270.426C247.211,269.651 242.621,267.569 241.787,267.37L236.921,267.122C236.124,266.9 235.499,267.341 235.499,268.251C235.499,269.473 235.925,270.717 236.821,271.572C238.544,271.977 240.636,273.465 242.065,272.419C242.744,272.807 247.756,275.666 250.831,276.752L258.741,279.52C260.745,280.033 260.764,279.672 262.552,280.865L268.452,285.286C269.655,286.06 270.482,284.959 270.729,283.842C271.101,282.357 269.895,280.606 268.463,280.235Z" style="fill:rgb(255,212,32);fill-rule:nonzero;"/>
            <path d="M247.987,218.075L247.809,218.086C247.389,216.093 245.181,214.002 244.254,213.766C240.974,213.637 240.911,220.08 244.109,223.3C244.032,222.271 244.311,221.432 244.976,220.664C245.34,221.883 246.247,222.615 247.398,223.113C249.341,223.028 248.316,218.829 247.987,218.075Z" style="fill:white;fill-rule:nonzero;"/>
            <path d="M246.509,224.948C248.047,226.763 251.47,227.56 252.764,227.239C255.313,229.533 258.754,230.867 262.197,230.892C262.531,231.107 264.7,232.269 265.552,232.222L266.841,231.646C265.927,230.586 265.101,228.988 264.696,227.662L265.696,226.703L262.841,223.472L263.697,222.043C262.589,221.351 261.08,219.996 260.263,218.91L260.408,218.102C259.46,217.731 256.018,213.29 253.131,211.868C249.302,209.988 244.525,210.397 244.265,213.792C244.752,214.413 248.991,219.818 247.409,223.138C247.046,223.509 246.238,224.076 245.698,224.186L246.509,224.948Z" style="fill:rgb(125,118,182);fill-rule:nonzero;"/>
            <path d="M259.797,279.856C258.969,279.488 257.897,278.253 257.897,277.232C257.897,276.134 258.176,274.712 259.608,275.017C259.198,274.181 258.538,273.475 257.586,273.308C256.946,272.323 255.895,271.721 254.742,271.601L254.842,271.456C254.125,270.641 253.153,270.23 252.042,270.429C250.079,268.645 247.817,269.96 247.509,272.259C247.13,275.102 249.035,277.771 250.842,278.256L250.842,278.222C251.4,278.676 252.991,279.351 253.608,278.578L253.597,278.363C254.283,279.037 255.256,279.629 256.23,279.253L257.23,280.236C258.16,280.764 259.078,280.529 259.797,279.856Z" style="fill:white;fill-rule:nonzero;"/>
            <path d="M251.131,214.492C248.406,213.621 249.101,217.699 251.131,218.348C253.838,219.213 253.162,215.141 251.131,214.492Z" style="fill:rgb(255,212,32);fill-rule:nonzero;"/>
            <path d="M251.131,215.937C250.421,215.71 250.649,216.738 251.131,216.892C251.826,217.127 251.623,216.094 251.131,215.937Z" style="fill-rule:nonzero;"/>
        </g>
    </g>
</svg>
