<?xml version="1.0" encoding="UTF-8" standalone="no"?>
<!DOCTYPE svg PUBLIC "-//W3C//DTD SVG 1.1//EN" "http://www.w3.org/Graphics/SVG/1.1/DTD/svg11.dtd">
<svg width="100%" height="100%" viewBox="0 0 512 512" version="1.1" xmlns="http://www.w3.org/2000/svg" xmlns:xlink="http://www.w3.org/1999/xlink" xml:space="preserve" xmlns:serif="http://www.serif.com/" style="fill-rule:evenodd;clip-rule:evenodd;stroke-linejoin:round;stroke-miterlimit:2;">
    <g>
        <g>
            <path d="M461.247,357.894C458.974,381.556 435.684,405.308 412.318,408.636C308.939,423.36 296.194,410.772 244.032,394.61C189.598,377.745 160.51,389.816 100.472,397.677C75.267,400.977 56.353,379.924 59.699,355.921C64.124,324.182 72.441,288.14 72.083,253.166C71.737,219.335 63.762,196.456 58.828,156.107C55.74,130.85 77.104,111.835 100.444,108.861C182.392,98.415 187.662,88.078 259.985,110.838C325.827,131.557 327.444,129.432 411.553,116.384C437.012,112.436 456.362,133 459.378,156.216C470.836,244.4 471.98,246.152 461.247,357.894Z" style="fill:rgb(0,45,98);fill-rule:nonzero;"/>
            <path d="M411.553,116.384C348.704,126.134 328.884,132.056 278.218,116.614C278.218,157.4 278.218,198.186 278.218,238.972C352.54,262.229 390.93,236.383 467.755,233.885C466.162,199.708 461.94,175.933 459.378,156.216C456.362,133 437.012,112.436 411.553,116.384Z" style="fill:rgb(221,46,68);fill-rule:nonzero;"/>
            <path d="M100.472,397.677C153.826,390.691 187.188,379.257 233.776,391.675L233.776,269.452C170.557,252.602 144.104,279.063 71.062,278.724C69.113,301.364 62.796,333.705 59.699,355.921C56.353,379.924 75.267,400.977 100.472,397.677Z" style="fill:rgb(206,18,37);fill-rule:nonzero;"/>
            <path d="M467.141,222.773C400.911,224.937 350.516,248.215 289.328,231.164C289.328,194.053 289.328,156.942 289.328,119.832C272.858,115.361 242.35,104.434 222.666,100.424C222.666,137.362 222.666,174.3 222.666,211.237C169.281,200.076 136.248,224.041 69.928,223.515C73.704,251.294 71.618,275.486 69.949,289.544C138.622,289.68 169.845,266.86 222.666,277.904L222.666,389.015C242.254,393.112 272.537,404.262 289.328,408.942L289.328,297.831C350.512,314.881 401.174,291.622 467.535,289.48C469.415,258.48 467.48,228.099 467.141,222.773Z" style="fill:rgb(238,238,238);fill-rule:nonzero;"/>
            <path d="M256.242,231.201C243.426,227.014 236.662,225.178 234.943,224.711L238.665,229.338L238.665,247.727C240.08,248.132 245.802,249.768 256.242,253.179L256.242,231.201ZM256.242,274.934C259.896,272.144 268.036,275.85 269.018,276.172C274.526,277.976 273.796,274.925 273.796,269.157L273.796,258.935C272.389,258.482 272.423,258.465 256.242,253.179L256.242,274.934Z" style="fill:rgb(0,45,98);fill-rule:nonzero;"/>
            <path d="M256.242,274.934C252.907,270.21 247,268.994 243.454,267.924C237.739,266.201 238.665,258.297 238.665,257.949L238.665,247.727C240.08,248.132 245.802,249.768 256.242,253.179L256.242,274.934ZM256.242,231.201C257.943,231.757 276.647,237.867 277.518,238.141L273.796,240.546L273.796,258.935C272.389,258.482 272.423,258.465 256.242,253.179L256.242,231.201Z" style="fill:rgb(206,18,37);fill-rule:nonzero;"/>
            <path d="M259.275,273.662L259.275,232.196L253.197,230.212L253.197,271.712C254.365,272.49 255.47,273.798 256.242,274.934C256.985,274.274 258.266,273.701 259.275,273.662Z" style="fill:white;fill-rule:nonzero;"/>
            <path d="M238.665,244.627C247.585,247.178 273.319,255.681 273.785,255.831L273.785,261.909C242.885,251.975 242.942,251.928 238.665,250.705L238.665,244.627Z" style="fill:white;fill-rule:nonzero;"/>
            <path d="M256.242,249.101L267.774,240.586L267.774,244.308L269.907,243.218L269.907,263.785C269.907,271.176 257.887,266.708 256.23,262.642C254.571,265.631 242.543,262.287 242.543,254.973L242.543,234.406L244.687,236.843L244.687,233.121C245.617,234.395 249.579,239.826 256.242,249.101Z" style="fill:rgb(0,45,98);fill-rule:nonzero;"/>
            <path d="M256.242,262.29C250.7,263.451 247.12,259.822 247.12,257.171L247.12,253.637C244.975,252.97 242.554,250.999 242.554,250.443L242.554,247.409C242.554,249.252 245.36,249.978 247.12,250.526L247.12,239.882L249.12,242.098L249.12,239.331L252.164,243.412L252.164,245.59L250.153,243.247L250.153,252.247C251.143,252.562 255.026,255.048 256.242,255.445C259.303,256.446 259.366,255.236 262.319,256.21L262.319,247.21L260.319,248.251L260.319,246.073L263.352,243.963L263.352,246.729L265.363,245.804L265.363,256.448C265.671,256.55 269.918,257.412 269.918,256.222L269.918,259.255C269.918,260.613 265.821,259.71 265.363,259.559L265.363,263.093C265.363,265.319 262.235,267.479 256.242,262.29L256.242,259.19C261.46,263.925 262.319,261.985 262.319,261.466L262.319,259.255C259.357,258.277 259.297,259.499 256.242,258.501C255.026,258.104 251.142,255.606 250.153,255.292L250.153,257.503C250.153,258.872 252.779,260.069 256.242,259.19L256.242,262.29Z" style="fill:white;fill-rule:nonzero;"/>
            <path d="M260.319,246.084L260.319,248.262L262.319,247.222L262.319,256.222C259.366,255.247 259.303,256.457 256.242,255.456C255.026,255.059 251.143,252.573 250.153,252.258L250.153,243.258L252.164,245.601L252.164,243.423L256.242,249.112L260.319,246.084Z" style="fill:rgb(206,18,37);fill-rule:nonzero;"/>
            <path d="M242.554,250.454L242.554,254.976C242.554,262.29 254.582,265.635 256.242,262.645C257.887,266.708 269.918,271.18 269.918,263.789L269.918,259.266C269.918,260.603 265.811,259.707 265.363,259.559L265.363,263.093C265.363,265.312 262.232,267.466 256.242,262.29C250.7,263.451 247.12,259.822 247.12,257.171L247.12,253.637C244.982,252.972 242.554,251.003 242.554,250.454Z" style="fill:rgb(206,18,37);fill-rule:nonzero;"/>
            <path d="M260.863,225.352L261.486,223.469L256.242,221.412L250.986,220.046L251.609,222.334C251.945,223.506 249.095,222.879 247.953,222.453C243.596,220.841 239.239,220.346 238.465,220.259C238.793,220.854 239.218,221.379 239.154,222.1C238.978,223.681 235.987,222.8 234.41,222.6C231.002,222.155 229.436,228.529 229.277,229.177C228.166,228.439 226.372,227.541 225.11,227.077C226.283,222.294 229.104,218.392 230.954,218.44C230.156,216.464 231.184,215.799 233.099,215.406C237.64,214.48 245.294,216.565 246.32,216.845C245.97,215.403 246.657,214.968 248.02,214.807C250.604,214.493 255.616,216.13 256.253,216.338C261.902,218.184 263.889,219.71 264.463,220.151C265.538,220.96 266.581,221.817 266.174,223.282C267.284,223.689 275.05,226.534 279.384,229.913C280.754,230.974 282.517,232.265 281.529,234.161C283.692,235.315 286.387,241.379 287.361,245.92L283.217,245.827C283.035,244.983 281.499,237.896 278.062,236.345C277.64,236.153 273.427,234.233 273.318,233.014C273.236,232.31 273.516,232.183 273.996,231.588C273.265,231.227 268.712,228.98 264.519,227.836C263.096,227.453 260.402,226.752 260.863,225.352Z" style="fill:rgb(0,45,98);fill-rule:nonzero;"/>
            <g>
                <path d="M256.242,250.145L270.385,242.685L270.696,243.153L256.242,250.768L256.242,250.145ZM256.242,248.79L268.185,239.755L268.53,240.212L256.242,249.501L256.242,248.79ZM256.242,247.012L265.73,237.036L266.107,237.438L256.242,247.834L256.242,247.012ZM256.242,250.145C247.968,240.358 243.239,234.901 242.098,233.585L241.787,233.859C242.954,235.203 247.773,240.755 256.242,250.768L256.242,250.145Z" style="fill:rgb(153,107,56);fill-rule:nonzero;"/>
                <path d="M256.242,248.79C249.339,239.041 245.259,233.372 244.298,232.035L243.954,232.275C244.943,233.649 249.125,239.454 256.242,249.501L256.242,248.79ZM256.242,247.012C250.841,237.799 247.505,232.165 246.742,230.875L246.353,231.033C250.603,238.212 255.453,246.489 256.242,247.834L256.242,247.012Z" style="fill:rgb(153,107,56);fill-rule:nonzero;"/>
            </g>
            <path d="M270.152,242.431L272.185,242.026L270.829,243.441L270.152,242.431ZM267.93,239.537L269.841,238.863L268.707,240.492L267.93,239.537ZM265.474,236.818L267.219,235.87L266.307,237.693L265.474,236.818ZM242.32,233.473L240.276,231.803L241.643,234.061C241.834,234.29 242.503,233.71 242.32,233.473ZM244.531,231.973L242.643,230.103L243.787,232.447C243.956,232.688 244.72,232.199 244.531,231.973ZM246.998,230.822L245.265,228.764L246.153,231.16C246.311,231.419 247.149,231.084 246.998,230.822Z" style="fill:rgb(255,206,70);fill-rule:nonzero;"/>
            <path d="M252.808,245.942C253.679,245.509 255.094,245.558 255.853,246.207C256.712,245.494 258.33,245.525 259.175,246.241L261.13,252.918L258.797,252.761L257.986,253.128C257.609,252.841 256.803,252.705 256.364,252.708L254.953,252.981L252.808,245.942" style="fill:white;fill-rule:nonzero;"/>
            <path d="M254.975,253.044L252.786,245.946L252.797,245.916C253.681,245.481 255.103,245.55 255.875,246.192C256.706,245.46 258.375,245.525 259.197,246.226L261.175,252.933L260.041,252.904L258.83,252.816L258.03,253.176L256.397,252.763L255.819,252.908L254.975,253.044ZM252.853,245.967L254.997,252.995L255.764,252.823L256.364,252.674C256.834,252.671 257.616,252.811 258.008,253.113L258.741,252.743L260.03,252.822L261.108,252.889L259.13,246.237C258.306,245.537 256.707,245.564 255.875,246.237C255.107,245.588 253.732,245.567 252.853,245.967Z" style="fill-rule:nonzero;"/>
            <path d="M274.962,285.497C276.358,285.935 278.822,287.066 279.929,287.815C279.071,286.853 277.81,285.884 276.762,285.169L279.951,286.988C280.796,287.494 280.843,287.658 280.873,288.683C280.885,289.457 281.119,289.669 281.34,288.981C281.674,287.976 282.007,287.641 281.173,286.864L278.273,284.467C278.688,284.705 281.563,286.353 283.173,287.892C282.493,286.646 281.6,285.508 280.551,284.551L284.628,287.38C283.938,286.251 283.011,284.872 281.917,284.024C282.335,284.239 285.291,285.762 286.906,287.134C285.002,284.081 283.463,283.153 283.073,282.917C283.498,283.096 286.377,284.311 288.061,285.808C287.188,284.726 285.68,282.765 284.306,281.896C285.602,282.456 287.386,283.364 288.561,284.227C286.595,281.707 284.034,280.543 283.573,280.334L287.95,282.043C287.14,281.294 285.061,279.92 283.862,279.653C284.469,279.695 287.295,279.893 291.05,282.149C289.061,280.376 286.549,279.081 286.128,278.864L289.672,279.704C288.671,279.089 286.014,277.789 284.851,277.513L290.328,277.819C286.98,276.68 283.98,276.265 283.417,276.187C285.992,274.769 288.956,275.495 289.228,275.525C290.481,275.654 291.517,275.485 290.35,275.047L287.673,274.098C289.081,274.072 290.986,273.718 292.295,273.362C292.576,273.29 293.169,272.665 292.883,272.718C291.339,273.015 286.356,272.123 285.795,272.023C284.957,271.875 284.093,271.781 283.251,271.982L287.65,270.936C289.265,270.617 289.209,270.75 290.239,272.205C290.63,272.77 290.242,270.801 289.995,270.16C289.397,268.665 288.826,268.975 287.217,269.145L285.128,269.517L289.484,265.674C290.185,265.095 291.155,266.458 291.828,267.07C293.175,268.351 291.597,266.03 291.539,265.948C291.131,265.377 290.426,264.182 289.528,264.686L284.239,267.176L291.672,262.184C290.035,262.624 288.454,263.212 286.928,263.951L288.773,261.953L286.528,262.825L288.339,260.298C288.513,259.999 288.695,259.934 289.017,259.999L290.572,260.297C291.198,260.421 291.233,260.251 290.728,259.984C289.4,259.274 288.91,258.59 287.806,259.335L286.295,260.679C287.098,258.431 287.843,259.123 289.084,257.218C287.867,257.549 286.39,258.019 285.439,258.952C286.308,257.799 289.048,256.424 289.917,255.761C289.625,255.798 287.355,256.176 286.784,256.676L288.073,254.522C286.596,255.038 285.499,255.97 284.606,257.229L284.984,256.007C285.477,255.2 286.914,254.205 287.495,253.725C288.608,252.841 289.224,253.802 290.317,254.793L289.306,252.58C288.775,251.63 288.568,251.807 287.695,252.282L286.084,253.329L288.439,247.982C288.073,248.236 286.503,249.326 285.039,252.391C285.108,250.845 285.554,249.339 285.747,247.804C285.806,247.336 285.837,246.859 285.795,246.39C284.909,247.239 284.33,248.647 284.084,249.797C284.052,248.57 284.047,246.118 283.606,244.71C283.789,246.315 282.665,247.808 282.384,249.399L280.562,244.688L281.184,249.845C280.711,248.234 279.615,246.874 278.912,245.349C278.735,244.964 278.571,244.554 278.551,244.131C278.535,244.692 279.113,244.561 280.095,250.966L280.351,252.356C279.763,251.227 279.059,250.16 278.469,249.032C278.136,248.398 277.79,247.759 277.584,247.073L278.051,250.386C276.84,248.889 275.721,250.925 275.107,251.888L276.551,251.314C277.232,251.069 277.479,251.234 277.795,251.839C278.056,252.349 280.08,256.302 280.662,258.396L278.551,254.387L279.073,256.894L277.218,252.48L277.94,257.207L276.773,254.417C277.104,255.441 277.396,258.159 277.362,259.148L275.785,256.171C276.14,257.329 276.44,259.491 276.496,260.696L275.996,259.627C275.259,258.204 274.595,260.724 274.44,261.064C274.151,261.679 274.286,261.835 274.718,261.33C275.393,260.518 275.483,260.993 275.773,261.911L277.396,267.058L275.518,263.219C274.961,261.859 275.362,263.566 275.518,264.23C275.632,264.727 276.545,268.705 276.296,270.555L274.64,264.861L274.862,268.921L273.94,267.403C274.507,269.396 274.507,272.679 274.507,273.141L273.574,270.296L274.14,275.545L273.14,272.59C273.362,273.885 273.463,276.063 273.074,277.358L272.54,275.085C272.442,275.626 272.276,277.518 271.818,278.185C272.02,277.312 272.124,276.172 271.996,275.265C271.693,276.309 271.257,277.408 270.674,278.335L271.14,275.554L270.229,277.19L270.352,274.952C269.855,276.44 269.158,277.441 268.085,278.555C268.552,277.483 268.763,276.129 268.763,274.988C267.495,276.808 267.822,276.88 266.385,278.307C266.989,277.244 267.077,276.047 266.841,274.857L265.53,277.225C265.429,276.582 265.509,274.301 265.863,273.624C265.131,273.876 264.419,274.871 264.419,275.637C264.207,274.711 263.861,273.775 263.308,272.992C263.386,273.521 264.146,278.689 261.752,279.49C259.127,280.346 253.215,285.801 249.064,286.325L250.664,288.221C254.264,287.78 260.977,283.037 262.497,282.447C263.515,282.236 269.92,285.677 272.851,285.864C275.145,286.016 278.994,288.795 279.473,289.14C279.235,288.743 278.332,287.236 274.962,285.497Z" style="fill:rgb(84,147,52);fill-rule:nonzero;"/>
            <path d="M240.165,271.226C241.469,271.38 244.076,272.399 245.087,272.876C243.558,271.828 244.528,269.3 243.198,267.925C244.503,268.921 244.484,268.614 246.109,269.39L246.387,269.554C246.315,269.136 246.435,268.348 246.731,268.016C246.934,268.844 248.035,269.553 248.487,270.043L248.853,270.469C248.888,269.54 250.137,268.998 250.331,268.27L251.609,271.178C252.07,273.278 250.167,274.607 250.853,276.537C251.954,277.611 260.885,288.915 263.708,291.102L262.119,291.967C258.471,289.147 249.239,276.074 244.965,274.472L244.498,274.519C243.057,274.774 241.557,274.922 240.209,274.239C238.982,273.648 237.841,273.625 236.543,273.862C237.382,272.795 238.569,271.186 240.165,271.226C238.936,271.351 237.284,270.893 236.299,270.205C235.556,271.8 233.69,271.856 232.177,271.654C231.172,271.534 229.587,271.561 228.921,272.568C228.836,272.139 228.741,270.506 229.032,269.995L226.51,269.451C228.189,269.187 228.595,266.85 230.621,267.078L229.488,265.707C230.073,266.185 230.865,265.925 231.521,265.918L233.554,266.227C232.899,265.601 232.207,264.48 232.032,263.561C231.377,265.378 229.198,265.556 227.577,265.289C226.912,265.176 225.409,265.022 224.81,265.766C224.81,264.979 225.018,264.14 225.521,263.514L223.844,263.377C224.061,262.265 224.619,261.19 225.744,260.731C224.496,260.16 223.336,258.247 223.255,256.906C223.465,257.193 228.086,258.806 228.932,259.959C228.017,258.951 227.397,257.754 227.299,256.379L229.232,257.788C228.276,254.083 223.974,252.395 223.844,252.266C222.755,251.174 221.766,246.761 221.011,246L222.788,246.53C222.428,245.571 222.46,243.798 222.488,242.956C222.878,244.284 224.419,244.675 225.121,245.813L225.288,244.839L226.855,247.275C226.79,246.492 226.931,245.521 227.677,245.035C227.618,245.849 227.964,247.073 228.299,247.817C228.931,249.219 228.957,250.502 228.632,252.009C228.274,253.738 229.066,255.382 229.932,256.839C230.036,256.047 229.915,253.726 229.677,252.965C229.362,251.956 229.375,250.66 229.566,249.648C229.745,250.381 230.639,251.546 231.054,252.055L231.443,252.843L231.977,251.702C232.038,251.546 229.364,248.474 229.477,246.16C229.018,245.79 225.887,243.274 225.321,240.08L226.388,240.878C225.662,239.63 224.816,237.525 225.421,236.058C225.687,236.986 226.861,237.671 227.432,238.211C227.678,236.366 225.828,235.046 225.877,233.228C225.927,231.269 227.289,231.01 227.799,229.386L228.655,231.336C228.944,230.384 230.294,230.005 230.321,228.992C230.874,229.934 231.566,231.296 231.143,232.455C232.002,232.419 233.043,232.844 233.654,233.442C232.062,233.312 232.251,235.326 230.954,235.607C229.271,235.971 227.875,237.285 228.288,239.126C229.245,240.406 229.727,242.044 229.988,243.586L230.832,244.987L231.565,243.53C231.438,242.392 230.376,241.554 230.01,240.47C229.526,239.061 230.549,237.622 230.188,236.158C231.045,236.705 231.763,237.238 232.321,238.091C233.208,236.239 233.82,236.573 233.843,234.526L234.821,237.3C235.566,236.486 236.717,235.976 237.821,235.964C237.034,237.097 237.303,238.407 237.265,239.686C237.222,241.15 237.017,242.795 235.543,243.519C233.644,244.477 233.336,245.635 233.099,247.728C233.653,246.669 235.444,246.057 235.543,244.874C235.752,245.81 236.172,247.451 236.121,248.578C236.825,247.942 238.071,248.082 238.854,248.27C237.81,249.168 237.38,252.567 235.187,252.411C233.299,252.287 232.514,253.754 231.499,255.035C230.617,256.145 230.758,257.275 231.31,258.52C231.285,257.617 231.437,256.223 231.91,255.385C232.482,254.388 234.203,254.094 234.321,252.909L234.599,255.662C235.682,253.765 237.125,255.682 238.709,254.551C238.075,255.19 237.735,255.975 237.565,256.859C237.35,258.088 236.29,258.902 235.121,259.148C234.197,259.338 233.219,259.185 232.677,260.117L233.077,262.311L233.388,261.505C233.719,261.115 234.432,260.309 234.432,259.673C235.44,260.944 236.228,262.547 235.676,264.189C235.204,265.619 234.989,266.76 235.799,268.022L237.532,269.472C238.473,268.796 236.698,266.876 236.576,266.715C235.896,265.828 235.586,263.835 236.51,262.975C237.035,262.468 237.803,261.684 237.754,260.834L238.987,262.886C239.218,262.375 239.594,261.835 240.165,261.649C240.349,263.708 241.065,263.482 241.065,264.99C241.414,264.318 241.989,263.787 242.798,263.771C242.564,264.579 243.208,265.406 243.32,266.24C243.392,266.797 243.305,267.341 243.076,267.855C242.756,268.616 242.209,269.012 241.387,269.185L240.065,269.342C241.162,269.516 243.302,270.38 243.876,271.585C242.966,270.964 240.984,271.134 240.165,271.226Z" style="fill:rgb(84,147,52);fill-rule:nonzero;"/>
            <g>
                <path d="M257.33,284.246L256.242,283.601L255.164,283.538C254.138,282.854 251.575,281.401 251.575,282.634L251.575,284.723C251.575,286.044 254.003,285.912 255.319,286.022L256.242,286.568L257.208,286.617L257.208,286.628C258.344,287.278 260.963,289.083 260.963,287.774L260.963,285.685C260.963,284.33 257.632,284.239 257.33,284.246Z" style="fill:rgb(206,18,37);fill-rule:nonzero;"/>
                <path d="M260.741,285.279L263.385,286.762L263.063,289.156L260.752,287.616L260.752,285.282L260.741,285.279ZM251.797,282.361L249.153,282.131L249.487,284.736C250.069,284.528 251.215,284.564 251.786,284.691L251.786,282.358L251.797,282.361Z" style="fill:rgb(206,18,37);fill-rule:nonzero;"/>
                <path d="M256.242,281.645C265.656,284.721 270.469,287.317 271.64,287.949L270.396,288.667C269.746,289.006 270.531,290.217 270.996,290.784C272.125,292.115 274.109,293.025 275.862,292.818L277.018,292.672C276.491,292.95 275.975,293.431 276.24,294.126C277.161,296.475 282.489,295.829 284.739,299.247L288.061,296.608C286.628,294.461 283.043,293.669 282.551,293.56C283.421,292.391 282.741,291.34 281.84,290.422C280.857,289.406 278.674,289.354 277.407,289.528C278.166,287.792 275.965,286.029 274.829,285.166C269.467,281.044 257.804,277.234 256.253,276.727C254.815,276.257 243.103,272.431 237.654,273.34C236.194,273.569 234.426,274.379 235.088,276.172C234.69,275.887 231.821,273.989 230.632,274.525C229.341,275.128 229.32,276.096 229.943,277.275C228.205,276.703 225.961,275.881 224.421,277.414L227.732,281.771C229.943,279.582 235.365,283.167 236.232,281.453C236.553,280.819 235.783,279.892 235.476,279.545L236.621,280.372C237.849,281.25 240.005,282.147 241.487,281.303C241.975,281.012 242.63,280.182 242.087,279.559L240.832,278.066C246.762,278.549 255.039,281.252 256.242,281.645Z" style="fill:rgb(206,18,37);fill-rule:nonzero;"/>
            </g>
        </g>
    </g>
</svg>
