<?xml version="1.0" encoding="UTF-8" standalone="no"?>
<!DOCTYPE svg PUBLIC "-//W3C//DTD SVG 1.1//EN" "http://www.w3.org/Graphics/SVG/1.1/DTD/svg11.dtd">
<svg width="100%" height="100%" viewBox="0 0 512 512" version="1.1" xmlns="http://www.w3.org/2000/svg" xmlns:xlink="http://www.w3.org/1999/xlink" xml:space="preserve" xmlns:serif="http://www.serif.com/" style="fill-rule:evenodd;clip-rule:evenodd;stroke-linejoin:round;stroke-miterlimit:2;">
    <g transform="matrix(1.11593,-4.03717e-17,4.03717e-17,1.11593,-13.9687,-19.1113)">
        <g transform="matrix(11.1111,-1.36955e-31,4.93038e-32,11.1111,-2411.79,-2528.08)">
            <g>
                <g transform="matrix(0.896117,3.24196e-17,-3.24196e-17,0.896117,222.704,233.585)">
                    <path d="M32,5.435C24.446,6.606 24.298,6.804 18.359,4.935C11.85,2.887 11.375,3.817 4,4.757C1.891,5.026 -0.023,6.74 0.255,9.01C0.711,12.739 1.442,14.73 1.448,17.925C1.455,20.985 0.727,24.164 0.333,26.993C0.033,29.147 1.724,31.049 4.002,30.751C11.374,29.786 11.848,28.83 18.359,30.934C21.72,32.019 23.309,32.985 32.068,31.737C34.174,31.437 36.262,29.289 36.469,27.17C37.446,17.169 37.37,17.149 36.301,9.019C36.029,6.947 34.301,5.078 32,5.435Z" style="fill:rgb(238,238,238);fill-rule:nonzero;"/>
                </g>
                <g transform="matrix(0.896117,3.24196e-17,-3.24196e-17,0.896117,222.704,233.585)">
                    <path d="M21,5.745C19.517,5.342 16.771,4.359 15,3.998C15,7.421 15.502,10.827 15.716,13.972C10.907,12.981 7.335,15.125 1.254,15.076C1.593,17.576 1.406,19.754 1.255,21.019C7.651,21.032 11.009,19.013 15.762,19.991C15.646,21.714 15.009,25.993 15,29.971C16.763,30.34 19.489,31.344 21,31.765C21.024,28.331 21.719,24.014 21.867,21.78C27.503,23.321 31.426,21.207 37.051,21.014C37.23,18.219 37.046,15.489 37.014,15.01C31.391,15.198 27.474,17.31 21.829,15.765C21.611,12.608 20.999,9.107 21,5.745Z" style="fill:rgb(206,17,36);fill-rule:nonzero;"/>
                </g>
            </g>
        </g>
    </g>
</svg>
