<?xml version="1.0" encoding="UTF-8" standalone="no"?>
<!DOCTYPE svg PUBLIC "-//W3C//DTD SVG 1.1//EN" "http://www.w3.org/Graphics/SVG/1.1/DTD/svg11.dtd">
<svg width="100%" height="100%" viewBox="0 0 512 512" version="1.1" xmlns="http://www.w3.org/2000/svg" xmlns:xlink="http://www.w3.org/1999/xlink" xml:space="preserve" xmlns:serif="http://www.serif.com/" style="fill-rule:evenodd;clip-rule:evenodd;stroke-linejoin:round;stroke-miterlimit:2;">
    <g>
        <g>
            <path d="M461.247,357.894C458.974,381.556 435.684,405.308 412.318,408.636C308.939,423.36 296.194,410.772 244.032,394.61C189.598,377.745 160.51,389.816 100.472,397.677C75.267,400.977 56.353,379.924 59.699,355.921C64.124,324.182 72.441,288.14 72.083,253.166C71.737,219.335 63.762,196.456 58.828,156.107C55.74,130.85 77.104,111.835 100.444,108.861C182.392,98.415 187.662,88.078 259.985,110.838C325.827,131.557 327.444,129.432 411.553,116.384C437.012,112.436 456.362,133 459.378,156.216C470.836,244.4 471.98,246.152 461.247,357.894Z" style="fill:rgb(227,33,24);fill-rule:nonzero;"/>
            <path d="M65.916,200.521C131.114,200.57 165.98,180.937 212,187.156C244.121,191.497 283.613,210.626 315.993,214.514C354.345,219.119 420.451,202.083 465.285,200.634C471.286,255.023 466.46,303.448 465.573,312.341C365.774,315.923 363.543,344.276 259.997,310.822C166.652,280.665 164.705,311.49 66.784,311.522C75.906,255.075 71.644,231.266 65.916,200.521Z" style="fill:rgb(238,238,238);fill-rule:nonzero;"/>
            <path d="M411.553,116.384C327.618,129.405 325.974,131.604 259.985,110.838C187.662,88.078 182.392,98.415 100.444,108.861C77.104,111.835 55.74,130.85 58.828,156.107C61.097,174.663 65.256,196.984 65.916,200.521C131.114,200.57 165.98,180.937 212,187.156C244.121,191.497 283.613,210.626 315.993,214.514C354.345,219.119 420.451,202.083 465.285,200.634C464.175,190.582 459.73,158.925 459.378,156.216C456.362,133 437.012,112.436 411.553,116.384Z" style="fill:rgb(62,154,0);fill-rule:nonzero;"/>
            <path d="M141.861,192.022C121.39,167.329 94.27,139.125 77.309,117.814C55.945,132.525 58.415,152.73 58.828,156.107C63.749,196.349 71.735,219.194 72.083,253.166C72.44,288.108 64.155,323.962 59.699,355.921C57.506,371.65 65.36,386.388 77.453,393.274C92.658,372.837 118.147,340.884 142.259,303.081C154.35,284.129 172.638,253.511 179.503,242.482C165.287,222.277 153.86,206.493 141.861,192.022Z" style="fill:rgb(1,115,206);fill-rule:nonzero;"/>
            <path d="M260.919,222.237C258.803,221.54 243.781,216.586 234.299,214.037L234.299,266.814C234.299,268.231 234.299,279.173 243.498,281.949L253.742,285.166C260.16,287.243 261.032,293.67 260.919,292.837C260.984,292.402 262.15,287.929 268.096,289.881L278.34,293.177C287.539,296.053 287.539,284.509 287.539,283.437L287.539,230.659C279.494,228.363 263.04,222.937 260.919,222.237Z" style="fill-rule:nonzero;"/>
            <path d="M260.919,288.126C260.505,287.551 258.237,284.399 253.742,282.943L243.498,279.726C236.521,277.621 236.521,268.554 236.521,267.422L236.521,216.867C248.203,220.114 274.869,229.175 285.317,232.239L285.317,282.794C285.317,283.653 285.317,293.136 278.34,290.954L268.107,287.662C267.56,287.483 263.586,286.178 260.919,288.126Z" style="fill:white;fill-rule:nonzero;"/>
            <path d="M221.799,252.203C222.213,253.016 224.554,257.61 228.043,261.745C234.34,269.21 224.968,271.573 224.133,271.784C223.718,271.424 220.905,268.981 219.877,266.4C219.414,265.225 222.17,254.899 221.799,252.203Z" style="fill-rule:nonzero;"/>
            <path d="M224.31,269.2C223.52,268.386 222.355,267.04 221.922,265.939C221.548,264.47 222.382,262.936 222.777,261.472L223.444,258.913L226.51,263.018C227.132,263.749 228.065,264.975 227.899,266.099C227.649,267.677 225.458,268.741 224.31,269.2Z" style="fill:white;fill-rule:nonzero;"/>
            <path d="M224.91,264.277C224.912,265.347 225.576,273.162 233.432,278.372C242.82,284.604 251.933,286.63 252.009,286.685C252.875,287.307 252.083,294.836 252.009,295.54C248.243,294.952 237.497,291.532 230.154,286.217C229.184,285.514 218.874,278.051 220.944,274.409C222.03,272.498 222.242,272.47 222.666,270.26C223.338,266.769 227.338,259.429 224.91,264.277Z" style="fill-rule:nonzero;"/>
            <path d="M246.376,291.906C237.606,289.192 232.208,285.258 231.11,284.458C230.34,283.897 222.212,277.984 222.944,275.796C223.955,274.246 224.384,273.343 224.766,271.59C225.182,272.426 227.33,276.744 232.61,280.233C240.24,285.284 246.538,287.255 247.831,287.659L250.175,288.343L249.964,292.898L246.376,291.906Z" style="fill:white;fill-rule:nonzero;"/>
            <path d="M300.05,275.041C299.651,275.651 297.273,279.291 293.806,281.671C288.963,284.996 293.934,290.896 297.716,293.583C299.423,292.884 301.179,291.713 301.972,290.048C302.409,289.107 299.683,277.506 300.05,275.041Z" style="fill-rule:nonzero;"/>
            <path d="M297.528,290.915C298.347,290.448 299.486,289.628 299.916,288.722C300.366,287.146 299.445,285.473 299.061,283.88L298.394,281.023L295.328,283.694C294.49,284.273 293.794,285.045 293.939,286.094C294.23,288.076 297.163,290.602 297.528,290.915Z" style="fill:white;fill-rule:nonzero;"/>
            <path d="M296.939,285.717C296.936,287.954 295.444,294.66 288.417,295.475C287.719,295.557 284.072,295.982 279.64,295.299C270.193,293.843 270.653,292.472 269.841,292.53C268.974,292.591 269.771,300.68 269.841,301.385C273.902,303.382 284.043,306.637 291.695,305.068C301.796,302.997 301.354,298.593 300.905,297.612C299.876,295.409 299.606,295.111 299.183,292.719C298.518,288.967 294.484,279.669 296.939,285.717Z" style="fill-rule:nonzero;"/>
            <path d="M275.473,301.349C284.192,304.127 289.536,303.051 290.739,302.809C298.284,301.299 298.958,298.312 298.905,298.132C297.945,296.234 297.481,295.109 297.083,293.096C296.686,293.71 294.456,297.155 289.239,297.784C288.024,297.931 281.81,298.686 274.018,296.184L271.674,295.371L271.896,300.066L275.473,301.349Z" style="fill:white;fill-rule:nonzero;"/>
            <path d="M275.051,297.459C274.917,301.209 262.005,296.951 260.93,296.597C246.928,291.979 246.767,286.975 246.809,288.285C246.749,288.953 246.287,294.101 246.809,296.674C247.618,300.662 259.683,304.641 260.93,305.052C262.005,305.407 274.235,309.44 275.051,305.848C275.573,303.615 275.108,298.128 275.051,297.459Z" style="fill-rule:nonzero;"/>
            <path d="M260.919,302.826C259.905,302.492 249.408,299.03 248.964,296.893L248.787,293.293C249.663,293.901 253.024,296.234 260.919,298.837C261.858,299.147 268.874,301.461 273.051,301.206L272.874,304.693C272.528,306.655 261.838,303.129 260.919,302.826Z" style="fill:white;fill-rule:nonzero;"/>
            <path d="M254.375,203.16L256.253,207.027L260.019,208.263L258.13,210.897L260.019,214.785L256.253,213.549L254.375,216.193L252.497,212.331L248.731,211.131L250.609,208.459L248.731,204.608L252.497,205.808L254.375,203.16ZM239.498,200.278L242.054,203.783L245.72,204.048L244.62,207.311L247.187,210.858L243.52,210.578L242.42,213.847L239.854,210.336L236.187,210.141L237.276,206.844L234.721,203.384L238.387,203.559L239.498,200.278ZM225.51,201.434L228.543,204.376L231.988,203.705L231.577,207.355L234.621,210.368L231.188,210.989L230.788,214.631L227.743,211.662L224.31,212.4L224.699,208.753L221.655,205.885L225.099,205.097L225.51,201.434ZM268.418,207.776L266.541,210.414L262.774,209.172L264.663,213.051L262.774,215.694L266.541,216.936L268.418,220.809L270.307,218.171L274.074,219.39L272.196,215.518L274.074,212.868L270.307,211.649L268.418,207.776ZM283.306,214.209L280.751,216.19L277.073,214.201L278.184,218.15L275.618,220.095L279.284,222.093L280.373,226.03L282.951,224.058L286.617,225.984L285.517,222.064L288.084,220.048L284.417,218.14L283.306,214.209ZM297.294,222.825L294.25,224.297L290.817,221.852L291.228,225.72L288.173,227.084L291.617,229.558L292.017,233.41L295.061,231.982L298.494,234.346L298.105,230.521L301.138,228.998L297.705,226.68L297.294,222.825Z" style="fill:rgb(255,215,1);fill-rule:nonzero;"/>
            <path d="M260.919,284.737C255.909,283.085 252.721,280.771 255.475,275.306C258.941,268.427 258.941,257.229 258.941,255.631C258.941,246.322 253.533,241.194 252.386,239.75C248.545,234.904 255.831,240.171 256.653,241.135C259.117,244.029 260.204,246.682 260.019,246.23L260.019,238.241L262.774,240.016L262.774,246.094C263.26,245.834 266.772,243.949 269.463,244.473C271.332,244.844 273.994,247.599 270.229,247.501C266.323,247.404 262.774,248.514 262.774,256.883C262.774,267.076 264.713,276.969 265.885,279.587C268.205,284.755 266.172,286.47 260.919,284.737Z" style="fill:rgb(163,102,41);fill-rule:nonzero;"/>
            <path d="M253.22,248.019C249.685,248.734 246.92,243.324 247.187,243.847C246.714,244.032 243.977,245.102 240.954,242.646C238.854,240.936 237.662,239.131 240.954,238.302C244.58,237.388 250.509,239.044 246.565,238.265C246.67,237.785 247.354,234.685 248.72,232.516C249.096,231.919 249.645,231.444 250.176,230.979C250.778,230.452 253.18,229.934 252.386,230.039C252.713,229.435 255.187,224.86 260.019,226.107C264.852,227.355 264.852,233.025 264.852,232.391C266.312,232.872 267.987,233.829 268.43,235.301C270.778,233.625 275.699,235.122 276.829,236.802C277.154,237.281 277.263,237.791 277.292,238.371C277.329,239.137 276.51,241.321 276.829,240.624C278.596,240.663 281.005,240.798 281.84,242.356C282.34,243.289 281.305,246.448 281.84,245.534C283.37,246.295 284.351,248.818 283.595,250.351C282.019,253.547 276.717,250.735 277.173,250.977C276.061,251.801 274.346,252.097 273.063,251.576C272.412,251.312 271.867,250.815 271.46,250.252C270.876,249.443 270.015,246.549 270.229,247.523C269.31,247.464 266.421,246.43 264.852,243.669C262.91,245.947 258.983,243.193 258.43,241.729C258.179,243.575 257.674,247.122 253.22,248.019Z" style="fill:rgb(0,154,59);fill-rule:nonzero;"/>
        </g>
    </g>
</svg>
