<?xml version="1.0" encoding="UTF-8" standalone="no"?>
<!DOCTYPE svg PUBLIC "-//W3C//DTD SVG 1.1//EN" "http://www.w3.org/Graphics/SVG/1.1/DTD/svg11.dtd">
<svg width="100%" height="100%" viewBox="0 0 512 512" version="1.1" xmlns="http://www.w3.org/2000/svg" xmlns:xlink="http://www.w3.org/1999/xlink" xml:space="preserve" xmlns:serif="http://www.serif.com/" style="fill-rule:evenodd;clip-rule:evenodd;stroke-linejoin:round;stroke-miterlimit:2;">
    <g>
        <g>
            <path d="M65.916,200.521C140.966,200.578 173.797,174.83 234.216,191.792C274.101,202.99 299.627,216.51 337.27,215.247C374.031,214.013 428.218,201.832 465.285,200.634C471.286,255.023 466.46,303.448 465.573,312.341C405.709,314.49 346.869,335.796 293.618,321.211C251.686,309.726 226.733,295.608 186.854,297.364C143.314,299.281 124.246,311.504 66.784,311.522C75.906,255.075 71.644,231.266 65.916,200.521Z" style="fill:rgb(252,221,10);fill-rule:nonzero;"/>
            <path d="M411.553,116.384C327.618,129.405 325.974,131.604 259.985,110.838C187.662,88.078 182.392,98.415 100.444,108.861C77.104,111.835 55.74,130.85 58.828,156.107C61.097,174.663 65.256,196.984 65.916,200.521C140.966,200.578 173.797,174.83 234.216,191.792C274.101,202.99 299.627,216.51 337.27,215.247C374.031,214.013 428.218,201.832 465.285,200.634C464.175,190.582 459.73,158.925 459.378,156.216C456.362,133 437.012,112.436 411.553,116.384Z" style="fill:rgb(8,137,48);fill-rule:nonzero;"/>
            <path d="M100.472,397.677C182.335,386.958 187.634,376.33 259.985,399.708C297.334,411.775 314.968,422.501 412.318,408.636C435.684,405.308 458.974,381.556 461.247,357.894C461.556,354.672 464.496,323.152 465.573,312.341C405.709,314.49 346.869,335.796 293.618,321.211C251.686,309.726 226.733,295.608 186.854,297.364C143.314,299.281 124.246,311.504 66.784,311.522C60.764,348.771 60.713,348.65 59.699,355.921C56.353,379.924 75.267,400.977 100.472,397.677Z" style="fill:rgb(218,18,25);fill-rule:nonzero;"/>
            <path d="M255.997,153.954C280.154,161.84 357.377,202.924 357.49,269.421C357.54,299.287 332.724,379.001 255.997,353.954C234.624,346.978 194.634,325.701 177.877,304.104C174.236,299.41 160.123,280.904 160.194,245.111C160.313,184.616 197.955,135.008 255.997,153.954Z" style="fill:rgb(15,71,175);"/>
            <g>
                <path d="M203.222,313.698C204.717,308.985 212.167,285.493 222.322,254.921C206.722,240.353 194.323,231.633 192.167,230.051C198.874,229.834 203.813,230.222 204.822,230.301C221.866,244.691 243.594,268.078 246.798,271.526L240.198,273.525L229.954,261.522C221.262,285.45 214.927,303.519 213.644,307.18L203.222,313.698Z" style="fill:rgb(252,221,10);fill-rule:nonzero;"/>
                <path d="M307.205,340.591C289.501,324.794 263.027,296.871 254.653,288.228C252.196,289.207 236.282,295.551 224.399,301.542L228.366,290.233C237.599,285.879 268.863,273.721 272.407,272.342L274.162,280.419L261.63,284.75C262.54,285.721 287.379,312.539 303.172,327.515L307.205,340.591Z" style="fill:rgb(252,221,10);fill-rule:nonzero;"/>
                <path d="M338.22,244.544C330.865,250.126 315.338,262.6 287.806,275.313C291.554,288.223 295.302,301.134 299.05,314.044L288.661,303.833C283.243,285.018 277.825,266.202 272.407,247.387L280.106,250.47L284.495,265.93C287.923,264.491 308.398,255.899 325.604,244.265C326.612,244.334 330.71,244.615 338.22,244.544Z" style="fill:rgb(252,221,10);fill-rule:nonzero;"/>
                <path d="M254.575,165.38C261.463,187.956 268.352,210.532 275.24,233.108C278.157,234.082 297.55,240.558 312.394,242.993L302.027,248.637C285.631,244.941 255.626,234.399 251.486,233.039L254.497,226.877L265.374,229.785C260.46,211.994 255.545,194.202 250.631,176.41L254.575,165.38ZM171.363,216.105C196.778,212.849 213.18,214.376 234.988,220.301C238.924,209.402 242.861,198.503 246.798,187.604L250.775,201.057C249.416,204.75 241.197,227.086 233.91,247.266L228.066,240.717L233.354,226.807C210.982,221.021 196.51,220.919 181.204,222.347L171.363,216.105ZM252.986,300.888L257.619,302.396L257.619,342.919L252.986,341.41L252.986,300.888ZM340.499,295.396L338.998,299.861C334.041,298.467 319.742,294.438 300.438,283.607L301.861,279.523C320.715,289.95 335.068,293.909 340.499,295.396Z" style="fill:rgb(252,221,10);fill-rule:nonzero;"/>
                <path d="M305.694,195.682L309.438,199.088C307.568,201.366 298.764,212.086 285.251,226.875L281.506,223.043C295.193,208.213 303.817,197.921 305.694,195.682ZM201.711,171.711L205.455,169.241C207.468,172.208 216.465,185.465 229.61,206.981L225.877,208.817C212.806,187.686 203.732,174.62 201.711,171.711ZM174.011,272.004L172.82,267.772C178.084,265.205 194.231,257.567 209.355,254.266L210.789,258.851C195.449,262.022 179.605,269.333 174.011,272.004Z" style="fill:rgb(252,221,10);fill-rule:nonzero;"/>
            </g>
        </g>
    </g>
</svg>
