<?xml version="1.0" encoding="UTF-8" standalone="no"?>
<!DOCTYPE svg PUBLIC "-//W3C//DTD SVG 1.1//EN" "http://www.w3.org/Graphics/SVG/1.1/DTD/svg11.dtd">
<svg width="100%" height="100%" viewBox="0 0 512 512" version="1.1" xmlns="http://www.w3.org/2000/svg" xmlns:xlink="http://www.w3.org/1999/xlink" xml:space="preserve" xmlns:serif="http://www.serif.com/" style="fill-rule:evenodd;clip-rule:evenodd;stroke-linejoin:round;stroke-miterlimit:2;">
    <g>
        <g>
            <path d="M411.553,116.384C327.618,129.405 325.974,131.604 259.985,110.838C187.662,88.078 182.392,98.415 100.444,108.861C77.104,111.835 55.74,130.85 58.828,156.107C63.749,196.349 71.735,219.194 72.083,253.166C72.44,288.108 64.155,323.962 59.699,355.921C56.353,379.924 75.267,400.977 100.472,397.677C182.335,386.958 187.634,376.33 259.985,399.708C297.334,411.775 314.968,422.501 412.318,408.636C435.684,405.308 458.974,381.556 461.247,357.894C471.963,246.325 470.85,244.51 459.378,156.216C456.362,133 437.012,112.436 411.553,116.384Z" style="fill:rgb(0,51,153);fill-rule:nonzero;"/>
            <path d="M261.986,163.756L271.418,159.999L259.764,156.168L256.153,143.894L252.553,153.815L240.898,150.208L250.331,159.959L246.72,169.913L256.153,166.072L265.585,176.033L261.986,163.756ZM261.986,356.345L271.418,352.588L259.764,348.757L256.153,336.483L252.553,346.404L240.898,342.797L250.331,352.548L246.72,362.502L256.153,358.661L265.585,368.622L261.986,356.345ZM168.466,247.9L176.744,240.036L166.556,241.363L163.386,230.787L160.41,242.357L150.653,244.166L158.515,249.493L155.321,261.017L163.421,252.861L171.493,258.499L168.466,247.9ZM178.731,198.884L187.568,191.438L176.491,192.181L172.892,181.433L169.852,192.875L159.345,194.3L168.091,200.024L165.375,211.722L173.517,203.693L182.313,209.791L178.731,198.884ZM178.621,294.614L187.645,287.203L176.688,287.945L173.679,277.215L170.131,288.638L159.767,290.061L167.897,295.731L164.303,307.229L173.134,299.349L181.904,305.444L178.621,294.614ZM213.844,163.71L223.277,158.577L211.611,156.537L208.011,145.017L204.411,155.781C203.476,155.711 199.2,155.39 192.699,155.508L202.178,162.491L198.578,173.441L208.011,167.195L217.444,175.386L213.844,163.71ZM213.844,331.121L223.277,325.989L211.611,323.948L208.011,312.428L204.411,323.192C203.478,323.122 199.255,322.806 192.724,322.912L202.178,329.902L198.578,340.852L208.011,334.617L217.444,342.797L213.844,331.121ZM347.021,274.421L337.068,268.076L349.405,267.392L353.239,255.984L357.205,266.714L370.037,265.295L359.642,273.33L363.567,283.999L353.29,278.166L343.182,285.749L347.021,274.421ZM334.032,227.4L324.56,220.463C325.498,220.509 329.375,220.698 336.298,220.487L339.97,209.263L343.725,220.15L356.042,219.177L346.096,226.853L350.015,237.661L340.039,231.432L330.4,238.533L334.032,227.4ZM334.023,323.176L324.56,316.23C325.5,316.276 329.374,316.465 336.321,316.253L340.098,305.024L343.779,315.915L356.159,314.939L346.056,322.661L349.776,333.674L339.982,327.263L330.394,334.307L334.023,323.176ZM298.15,187.52L288.717,178.204L300.383,181.184L303.983,170.873L307.583,182.661C313.64,183.767 318.311,184.212 319.249,184.301L309.816,189.907L313.416,201.553L303.983,193.051L294.55,197.718L298.15,187.52ZM298.15,354.931L288.717,345.615L300.383,348.595L303.983,338.284L307.583,350.072C313.64,351.178 318.311,351.623 319.249,351.712L309.816,357.318L313.416,368.964L303.983,360.473L294.55,365.129L298.15,354.931Z" style="fill:rgb(255,204,0);fill-rule:nonzero;"/>
        </g>
    </g>
</svg>
