<?xml version="1.0" encoding="UTF-8" standalone="no"?>
<!DOCTYPE svg PUBLIC "-//W3C//DTD SVG 1.1//EN" "http://www.w3.org/Graphics/SVG/1.1/DTD/svg11.dtd">
<svg width="100%" height="100%" viewBox="0 0 512 512" version="1.1" xmlns="http://www.w3.org/2000/svg" xmlns:xlink="http://www.w3.org/1999/xlink" xml:space="preserve" xmlns:serif="http://www.serif.com/" style="fill-rule:evenodd;clip-rule:evenodd;stroke-linejoin:round;stroke-miterlimit:2;">
    <g>
        <g>
            <path d="M411.553,116.384C327.618,129.405 325.974,131.604 259.985,110.838C187.662,88.078 182.392,98.415 100.444,108.861L93.733,110.152C93.714,118.497 94.283,128.076 94.376,129.632C77.804,131.524 66.395,131.529 63.956,131.53C60.157,137.828 57.668,146.622 58.828,156.107C63.749,196.349 71.735,219.194 72.083,253.166C72.44,288.108 64.155,323.962 59.699,355.921C56.353,379.924 75.267,400.977 100.472,397.677C182.335,386.958 187.634,376.33 259.985,399.708C297.334,411.775 314.968,422.501 412.318,408.636C435.684,405.308 458.974,381.556 461.247,357.894C471.963,246.325 470.85,244.51 459.378,156.216C456.362,133 437.012,112.436 411.553,116.384Z" style="fill:rgb(0,36,125);fill-rule:nonzero;"/>
            <path d="M314.638,321.631C321.063,310.467 320.767,310.195 322.327,309.21C324.426,307.899 339.261,309.192 341.84,311.914C344.537,314.76 342.978,331.479 337.574,340.505C332.263,349.363 322.368,352.912 318.327,351.743C314.039,350.503 311.717,341.937 311.449,340.949C310.358,336.924 317.812,339.904 318.327,340.11C323.543,342.195 331.417,328.847 331.241,324.044C327.03,320.994 322.839,322.992 321.016,326.99C319.254,330.898 314.935,322.228 314.638,321.631Z" style="fill:rgb(186,103,71);fill-rule:nonzero;"/>
            <path d="M307.638,332.16C308.362,335.482 311.774,344.298 314.638,348.442C314.556,347.941 313.617,342.184 316.45,342.36C318.316,342.476 319.87,344.482 319.616,346.324C320.295,346.579 319.849,345.946 318.338,337.344C317.083,330.348 319.626,327.336 312.505,326.71C306.729,326.212 307.206,330.161 307.638,332.16Z" style="fill:rgb(215,168,150);fill-rule:nonzero;"/>
            <path d="M425.809,311.841C425.3,310.804 420.383,300.799 418.069,299.648C415.382,298.33 399.497,302.129 396.395,305.611C393.289,309.11 394.236,326.125 399.576,334.57C404.881,342.947 415.725,345.309 419.733,344.083C424.289,342.703 427.33,333.876 427.689,332.834C429.254,328.289 420.917,331.727 420.372,331.952C414.697,334.292 406.842,321.226 407.319,315.976C412.512,311.647 416.822,314.018 418.423,317.969C420.084,322.097 425.435,312.512 425.809,311.841Z" style="fill:rgb(186,103,71);fill-rule:nonzero;"/>
            <path d="M428.726,321.121C429.518,318.45 423.878,307.937 423.301,306.862C406.625,334.47 369.158,337.796 368.061,337.914C352.045,339.53 327.343,336.862 317.238,316.771C311.676,327.225 310.682,327.092 311.338,330.01C312.17,333.697 335.2,354.302 367.671,351.333L367.67,351.355L367.86,351.326L368.049,351.319L368.05,351.296C397.652,348.29 427.528,325.163 428.726,321.121Z" style="fill:rgb(233,207,198);fill-rule:nonzero;"/>
            <path d="M432.519,323.637C431.509,327.085 427.256,336.243 423.886,340.606C425.757,332.502 418.379,334.687 418.7,338.511C417.979,338.797 418.47,338.11 420.651,329.005C420.906,327.954 423.379,317.782 427.725,317.485C434.741,317.018 432.775,322.769 432.519,323.637Z" style="fill:rgb(215,168,150);fill-rule:nonzero;"/>
            <path d="M367.698,186.456C362.782,187.079 334.366,190.807 314.549,188.175L314.549,260.397C314.549,314.251 350.45,333.944 368.238,336.6C379.086,332.723 428.744,304.282 427.784,250.359C427.124,213.274 424.173,187.947 423.166,178.229C413.911,179.521 380.643,184.815 367.698,186.456Z" style="fill:white;fill-rule:nonzero;"/>
            <path d="M368.301,332.023C348.447,328.489 318.249,309.129 318.249,260.913L318.249,192.991C346.045,195.867 393.386,186.948 419.656,183.168C419.885,185.512 422.989,213.455 423.626,251.001C424.487,301.752 378.399,327.917 368.301,332.023Z" style="fill:rgb(0,114,196);fill-rule:nonzero;"/>
            <path d="M346.587,255.745C346.838,254.764 349.544,244.187 345.597,243.127C344.524,242.839 337.53,240.96 335.229,233.883C334.217,230.747 333.691,215.175 332.742,214.669C331.939,214.24 326.151,215.455 323.704,212.263C321.008,208.745 322.863,207.396 324.571,206.397C325.159,206.053 331.754,202.195 331.517,201.483C330.839,199.442 333.781,198.105 335.173,197.6C341.206,195.4 347.587,201.518 348.397,202.294C350.344,204.172 356.001,206.527 358.141,206.456C376.018,205.943 375.667,203.521 393.527,202.615C394.795,202.551 405.977,201.988 405.681,212.816C405.377,223.95 403.744,232.471 402.737,233.844C402.037,234.8 399.367,237.144 400.34,236.468C400.507,237.165 402.106,243.829 401.928,245.289C401.698,247.188 398.979,247.134 398.78,245.233L397.41,237.251L392.113,237.175C392.157,238.06 392.522,245.45 390.778,248.173C389.736,249.798 384.283,250.365 385.686,248.037C387.404,245.186 387.357,242.876 387.348,242.406C387.287,239.41 386.164,237.206 385.469,237.102C385.058,237.04 376.379,240.1 374.278,240.374C372.936,240.549 360.138,240.066 358.998,241.124C357.046,242.935 354.321,253.039 354.032,254.113C353.316,256.766 350.951,256.963 351.227,254.008C351.89,246.898 351.393,246.318 350.986,246.734C350.454,247.278 349.707,253.97 349.547,254.319C349.09,255.314 345.496,255.649 346.587,255.745Z" style="fill:white;fill-rule:nonzero;"/>
            <path d="M333.666,247.63C334.309,251.193 337.592,261.626 344.952,265.743C354.747,271.222 393.833,264.26 400.746,258.879C407.769,253.42 413.027,243.48 413.827,241.968C413.216,242.057 408.146,242.796 406.149,241.181C405.459,241.627 398.653,246.024 395.968,242.517C393.754,244.855 392.77,246.313 391.281,243.552C387.677,247.854 381.961,246.626 379.986,245.336C376.335,247.986 370.295,247.422 369.165,246.22C364.904,250.133 358.265,249.969 357,248.609C353.743,254.016 348.511,251.139 347.852,250.777C345.042,253.471 344.359,252.276 342.324,248.868C340.093,252.675 336.039,250.943 333.666,247.63Z" style="fill:rgb(1,81,33);fill-rule:nonzero;"/>
            <path d="M316.238,263.155C317.001,263.344 321.581,264.479 325.782,260.794C330.296,256.822 337.697,255.524 342.728,260.493C351.197,268.839 358.608,260.989 359.532,260.012C360.621,258.858 369.253,249.716 379.156,257.14C388.167,263.895 395.879,255.684 396.959,254.596C401.556,249.966 410.642,246.917 416.194,251.761C422.863,257.581 427.525,251.869 426.195,253.135L423.73,269.471C421.99,270.05 417.035,266.991 416.507,266.665C410.947,263.242 403.11,263.115 397.841,268.887C392.318,274.924 383.848,276.098 378.262,272.019C372.795,268.038 365.819,268.976 360.726,273.617C355.556,278.328 346.968,280.476 340.744,275.185C335.244,270.501 329.732,271.583 325.615,275.554C322.453,278.593 317.608,279.49 318.26,279.37L316.238,263.155ZM321.582,292.178C323.149,291.765 324.565,291.031 325.782,289.949C330.333,285.946 337.751,284.708 342.726,289.652C351.114,297.968 358.587,290.145 359.515,289.174C360.611,288.026 369.377,278.851 379.139,286.306C387.912,292.992 395.706,284.974 396.937,283.766C401.695,279.085 410.847,276.113 416.166,280.935C417.125,281.791 418.211,282.561 419.402,283.066C420.289,286.218 414.59,295.026 413.841,294.695C412.616,294.148 404.439,290.494 397.403,298.026C391.725,304.093 383.349,305.207 377.938,301.157C372.65,297.209 365.686,298.075 360.523,302.754C355.331,307.459 346.825,309.611 340.67,304.32C335.839,300.151 330.923,300.512 327.004,303.499C326.422,303.976 318.897,292.902 321.582,292.178ZM335.222,315.184C335.865,315.207 339.451,315.335 342.561,318.471C343.493,319.414 350.744,326.747 359.119,317.989C360.203,316.856 369.021,307.636 378.499,315.118C386.269,321.24 392.845,315.694 396.073,312.575C398.735,309.994 401.804,308.731 402.358,308.503C394.181,319.535 372.029,334.127 368.272,334.514C364.724,334.892 341.913,326.723 335.222,315.184Z" style="fill:white;fill-rule:nonzero;"/>
            <path d="M330.471,205.311C331.283,203.521 334.197,203.729 335.186,205.244C336.083,206.618 329.531,207.385 330.471,205.311Z" style="fill-rule:nonzero;"/>
            <path d="M320.949,289.673C320.478,290.205 325.471,293.957 334.391,297.561C334.487,298.064 335.693,304.362 336.886,303.46C338.026,302.599 343.73,303.318 343.226,303.254C343.466,307.628 347.663,323.899 368.639,321.392C387.246,319.168 398.891,302.768 401.483,294.92C402.305,294.807 410.735,293.643 411.816,293.986C412.107,294.079 410.855,291.374 410.775,290.874C410.667,290.204 410.811,289.463 411.125,288.867C414.269,282.85 414.897,282.466 414.015,282.277C412.126,281.883 392.986,289.279 391.188,289.974C391.208,294.005 387.353,307.181 368.945,309.439C348.04,312.002 350.202,300.826 350.258,300.61C321.867,289.522 321.574,288.957 320.949,289.673Z" style="fill:rgb(221,139,89);fill-rule:nonzero;"/>
            <path d="M351.099,306.892C351.093,307.456 350.603,307.888 350.068,307.93C349.537,307.972 349.055,307.62 349.06,307.053C349.096,303.537 349.274,286.016 349.203,263.105C349.202,262.544 349.696,262.112 350.226,262.071C350.756,262.029 351.255,262.372 351.257,262.944C351.335,285.856 351.139,303.377 351.099,306.892ZM368.91,310.395C368.899,310.864 368.472,311.224 368.038,311.277C367.612,311.328 367.192,311.078 367.203,310.602C367.299,306.408 367.772,285.715 367.568,258.163C367.564,257.69 367.988,257.335 368.423,257.282C368.848,257.231 369.287,257.476 369.291,257.956C369.504,285.508 369.01,306.201 368.91,310.395ZM388.071,304.947C388.055,305.472 387.553,305.884 387.074,305.953C386.611,306.02 386.116,305.764 386.133,305.227C386.248,301.505 386.822,283.009 386.609,258.685C386.604,258.156 387.1,257.747 387.578,257.678C388.043,257.612 388.559,257.865 388.563,258.405C388.784,282.73 388.191,301.226 388.071,304.947Z" style="fill:rgb(221,139,89);fill-rule:nonzero;"/>
            <path d="M344.039,270.488C344.118,270.632 346.234,273.372 351.275,271.712C356.923,269.856 357.119,264.775 357.093,265.458L344.039,270.488ZM375.3,260.412L362.235,264.942C362.416,265.441 363.586,268.669 368.477,267.197C373.394,265.714 375.56,259.688 375.3,260.412ZM381.169,265.187C381.612,265.593 384.303,268.061 388.611,266.231C392.935,264.394 396.013,258.783 395.638,259.467L381.169,265.187ZM359.009,271.36L342.982,276.727C342.766,277.118 341.468,279.472 342.015,282.223C342.794,286.139 345.925,290.755 344.024,287.49C344.236,286.981 345.497,283.953 349.223,282.974C352.973,281.988 355.96,284.891 355.585,284.526C355.215,282.909 355.26,276.732 359.009,271.36ZM362.25,271.021C361.41,271.546 358.948,274.252 359.006,278.306C359.061,282.003 364.73,286.994 362.221,284.424C363.952,281.435 367.089,280.168 367.608,279.959C371.268,278.48 375.857,281.226 375.324,280.907C375.116,280.352 373.821,276.889 374.382,273.564C375.184,268.816 380.83,260.555 377.481,266.064L362.25,271.021ZM380.007,271.428C379.258,272.978 378.832,274.734 378.826,276.455C378.812,280.175 384.203,289.677 381.12,283.594C381.305,283.012 382.326,279.793 386.632,278.316C390.957,276.833 393.665,279.461 393.281,279.088C391.862,276.735 392.42,273.376 392.503,272.882C393.143,269.045 398.004,264.721 397.458,265.207C386.966,268.989 381.406,270.938 380.007,271.428ZM356.147,285.696L342.2,289.169C342.425,289.733 343.841,293.283 349.091,292.371C354.407,291.448 355.922,286.439 356.147,285.696ZM376.08,282.751C374.959,282.953 362.217,285.245 362.212,285.958C362.207,286.85 363.894,289.716 368.116,288.582C372.738,287.341 376.545,282.113 376.08,282.751ZM394.241,280.856L380.328,285.589C380.614,286.021 383.004,288.232 387.23,286.898C392.221,285.318 394.547,280.182 394.241,280.856Z" style="fill:rgb(254,207,61);fill-rule:nonzero;"/>
            <path d="M349.203,263.105L339.456,266.731L349.214,267.128L349.203,263.105ZM368.319,258.229L358.22,262.39L368.345,262.253L368.319,258.229ZM387.766,257.651L377.45,262.131L387.798,261.687L387.766,257.651Z" style="fill:rgb(255,1,0);fill-rule:nonzero;"/>
            <path d="M267.107,257.612C267.107,209.449 267.107,161.287 267.107,113.125C187.179,87.525 185.406,98.031 100.444,108.861L93.733,110.152C93.714,118.497 94.283,128.076 94.376,129.632C77.804,131.524 66.395,131.529 63.956,131.53L62.687,133.814C61.865,135.427 57.377,144.235 58.828,156.107C63.944,197.942 72.315,220.563 72.09,257.094C119.886,257.574 136.079,247.009 180.635,242.378C213.994,238.91 240.539,248.874 267.107,257.612Z" style="fill:rgb(0,36,125);fill-rule:nonzero;"/>
            <path d="M267.107,113.125C265.041,112.463 247.858,106.96 241.209,105.051C216.783,113.56 193.077,130.803 189.241,133.593C189.24,117.734 189.333,97.822 189.333,97.638C169.624,98.26 138.196,103.202 133.778,103.897C133.778,118.894 134.226,129.995 134.317,132.263C127.585,128.652 110.437,119.653 93.733,110.152C83.329,112.875 76.569,118.107 75.271,119.112C92.714,130.141 120.563,144.699 129.021,149.228C117.314,151.219 112.008,152.024 110.526,152.248C106.991,150.34 82.88,137.326 67.122,126.996L63.956,131.53C78.689,141.279 98.079,151.921 101.109,153.584C78.35,156.567 61.502,156.11 58.828,156.107C60.94,173.373 67.212,207.275 68.032,211.709C69.945,211.712 87.858,212.269 109.734,209.074C85.22,237.155 73.267,242.631 71.794,243.538L72.09,257.094C72.231,257.096 88.394,257.761 107.637,255.053C120.985,242.611 138.474,222.853 140.933,220.124C141.067,222.406 141.754,234.076 141.709,248.688C145.506,247.903 171.236,242.585 189.685,241.772C189.692,222.802 189.563,208.335 189.537,205.428C201.232,213.494 215.591,223.838 241.198,249.318C247.851,251.279 265.04,256.932 267.107,257.612L267.107,235.067C264.624,232.511 244.418,211.717 235.832,203.343C244.418,205.706 264.616,212.348 267.107,213.167L267.107,157.612C264.617,156.793 244.426,150.152 235.843,147.79C244.425,144.141 264.594,136.646 267.107,135.712C267.107,128.183 267.107,120.654 267.107,113.125Z" style="fill:rgb(238,238,238);fill-rule:nonzero;"/>
            <path d="M178.222,98.234C175.544,98.433 164.459,99.255 144.889,102.184C144.889,103.365 144.629,125.907 146.303,157.544C110.456,163.426 96.255,167.295 60.316,167.246C60.702,169.917 62.38,181.545 65.916,200.521C102.073,200.548 113.932,196.866 148.394,190.854C148.603,193.851 150.96,219.926 150.892,246.831C167.145,243.652 177.198,242.7 179.503,242.482C179.525,218.178 178.796,192.58 178.704,186.777C213.182,183.976 231.688,190.408 267.107,202.056L267.107,168.723C231.036,156.86 213.313,150.691 178.256,153.453C177.942,122.116 178.222,99.52 178.222,98.234Z" style="fill:rgb(207,27,43);fill-rule:nonzero;"/>
            <path d="M267.107,113.125L250.875,107.952C217.538,119.741 193.746,137.089 189.245,140.372L189.246,141.717C199.24,141.387 205.391,141.972 206.789,142.105C228.124,129.195 256.258,119.398 267.107,115.367L267.107,113.125ZM75.271,119.112C70.622,122.654 67.691,126.289 67.122,126.996C82.88,137.326 106.991,150.34 110.526,152.248C112.007,152.024 117.313,151.22 129.01,149.23C122.012,145.482 93.081,130.375 75.271,119.112ZM134.305,204.79C123.362,217.39 103.702,240.966 81.418,257.164C82.838,257.143 90.098,257.034 99.139,256.096C115.619,241.737 136.317,217.864 140.471,213.205L139.66,203.769L134.305,204.79ZM267.107,255.412L267.107,241.856C263.878,238.532 238.101,212.002 226.144,200.889C215.79,198.517 208.341,197.809 206.778,197.66C228.147,214.656 256.039,244.021 267.107,255.412Z" style="fill:rgb(207,27,43);fill-rule:nonzero;"/>
        </g>
    </g>
</svg>
