<?xml version="1.0" encoding="UTF-8" standalone="no"?>
<!DOCTYPE svg PUBLIC "-//W3C//DTD SVG 1.1//EN" "http://www.w3.org/Graphics/SVG/1.1/DTD/svg11.dtd">
<svg width="100%" height="100%" viewBox="0 0 512 512" version="1.1" xmlns="http://www.w3.org/2000/svg" xmlns:xlink="http://www.w3.org/1999/xlink" xml:space="preserve" xmlns:serif="http://www.serif.com/" style="fill-rule:evenodd;clip-rule:evenodd;stroke-linejoin:round;stroke-miterlimit:2;">
    <g>
        <g>
            <path d="M160.933,99.971C147.022,101.684 113.618,107.181 100.444,108.861C77.104,111.835 55.74,130.85 58.828,156.107C61.77,180.163 68.101,211.684 69.061,217.661C112.227,217.885 129.337,210.467 163.519,205.373C160.354,139.265 160.933,116.905 160.933,99.971ZM466.764,217.221C465.175,195.066 461.564,173.042 459.378,156.216C456.362,133 437.012,112.436 411.553,116.384C386.614,120.253 350.633,127.429 321.524,125.793C297.547,124.445 258.283,109.841 239.332,104.518C239.332,139.64 239.332,174.763 239.332,209.885C273.665,219.788 302.544,234.302 342.042,231.7C385.699,228.824 430.316,218.414 466.764,217.221Z" style="fill:rgb(238,238,238);fill-rule:nonzero;"/>
            <path d="M467.755,233.885L466.764,217.221C428.471,218.475 371.251,231.352 333.921,232.002C299.815,232.596 270.612,218.907 239.332,209.885C239.332,174.763 239.332,139.64 239.332,104.518C230.277,101.975 224.011,100.698 222.666,100.424C222.666,141.066 222.666,181.707 222.666,222.349C258.715,229.888 293.869,249.255 333.464,248.678C370.913,248.131 429.08,235.143 467.755,233.885ZM178.222,98.234C176.836,98.337 170.201,98.829 160.933,99.971C160.933,116.303 160.337,138.908 163.519,205.373C129.615,210.425 112.267,217.886 69.061,217.661C70.456,226.359 71.084,233.573 71.205,234.963C119.03,235.486 140.773,223.93 179.374,220.273C178.585,159.226 178.222,159.415 178.222,98.234Z" style="fill:rgb(0,101,189);fill-rule:nonzero;"/>
            <path d="M69.264,294.99C67.553,307.868 61.832,340.619 59.699,355.921C56.353,379.924 75.267,400.977 100.472,397.677C113.64,395.953 147.006,390.309 160.913,388.549C160.614,357.442 162.385,314.809 163.577,283.023C128.566,288.105 114.108,295.033 69.264,294.99ZM239.332,287.663L239.332,393.218C294.158,409.032 303.009,424.205 412.318,408.636C435.684,405.308 458.974,381.556 461.247,357.894C461.73,352.866 466.765,300.444 467.163,295.031C428.746,296.275 371.409,309.137 333.934,309.781C299.784,310.368 270.662,296.699 239.332,287.663Z" style="fill:rgb(238,238,238);fill-rule:nonzero;"/>
            <path d="M222.666,222.349C222.666,181.707 222.666,141.066 222.666,100.424C206.964,97.227 193.213,97.122 178.222,98.234C178.222,159.29 178.584,159.1 179.374,220.273C140.939,223.915 119.03,235.486 71.205,234.963C71.509,238.45 73.027,255.895 71.062,278.724C121.453,278.958 140.388,268.068 179.353,264.617C179.22,275.451 177.785,344.836 178.202,386.766C193.271,385.619 207.01,385.742 222.666,389.015L222.666,266.793C258.743,274.339 293.824,293.692 333.473,293.123C371.052,292.585 429.296,279.616 468.072,278.371C468.201,274.814 468.84,257.174 467.755,233.885C427.096,235.207 361.427,250.092 325.485,248.627C292.617,247.287 253.801,228.86 222.666,222.349Z" style="fill:rgb(237,41,57);fill-rule:nonzero;"/>
            <path d="M222.666,266.793L222.666,389.015C224.012,389.297 230.277,390.607 239.332,393.218L239.332,287.663C273.729,297.584 302.498,312.071 342.08,309.481C385.869,306.615 430.602,296.215 467.163,295.031L468.072,278.371C427.324,279.68 361.525,294.542 325.485,293.071C292.607,291.729 253.806,273.306 222.666,266.793ZM179.353,264.617C140.554,268.053 121.454,278.958 71.062,278.724L69.264,294.99C114.067,295.032 128.286,288.146 163.577,283.023C162.506,311.58 160.606,356.612 160.913,388.549C170.178,387.377 176.816,386.872 178.202,386.766C177.785,344.895 179.224,275.117 179.353,264.617Z" style="fill:rgb(0,101,189);fill-rule:nonzero;"/>
        </g>
    </g>
</svg>
