<?xml version="1.0" encoding="UTF-8" standalone="no"?>
<!DOCTYPE svg PUBLIC "-//W3C//DTD SVG 1.1//EN" "http://www.w3.org/Graphics/SVG/1.1/DTD/svg11.dtd">
<svg width="100%" height="100%" viewBox="0 0 512 512" version="1.1" xmlns="http://www.w3.org/2000/svg" xmlns:xlink="http://www.w3.org/1999/xlink" xml:space="preserve" xmlns:serif="http://www.serif.com/" style="fill-rule:evenodd;clip-rule:evenodd;stroke-linejoin:round;stroke-miterlimit:2;">
    <g>
        <g>
            <path d="M411.553,116.384C327.618,129.405 325.974,131.604 259.985,110.838C187.662,88.078 182.392,98.415 100.444,108.861L93.733,110.152C93.714,118.497 94.283,128.076 94.376,129.632C77.804,131.524 66.395,131.529 63.956,131.53C60.157,137.828 57.668,146.622 58.828,156.107C63.896,197.549 72.023,219.664 72.094,255.171C72.162,289.17 64.081,324.492 59.699,355.921C56.353,379.924 75.267,400.977 100.472,397.677C182.335,386.958 187.634,376.33 259.985,399.708C297.334,411.775 314.968,422.501 412.318,408.636C435.684,405.308 458.974,381.556 461.247,357.894C471.973,246.225 470.846,244.48 459.378,156.216C456.362,133 437.012,112.436 411.553,116.384Z" style="fill:rgb(104,191,229);fill-rule:nonzero;"/>
            <path d="M364.326,197.781C339.17,200.748 323.117,200.644 309.005,198.203L309.005,289.869C309.005,312.589 336.457,332.534 364.493,338.397C381.475,331.588 425.594,305.538 426.164,280.91C427.227,234.885 423.494,196.609 422.782,189.311C414.287,190.498 378.915,196.06 364.326,197.781Z" style="fill-rule:nonzero;"/>
            <path d="M364.525,336.013C333.229,328.809 311.227,309.294 311.227,290.237L311.227,200.792C341.738,205.596 384.5,197.004 420.597,191.868C421.259,198.992 424.694,235.93 423.673,281.25C423.168,303.696 382.884,328.179 364.525,336.013Z" style="fill:white;fill-rule:nonzero;"/>
            <path d="M422.96,225.9C422.84,223.174 422.234,209.472 420.597,191.868C385.31,196.888 341.867,205.616 311.227,200.792L311.227,234.914C328.999,237.712 350.734,235.563 356.965,234.953C357.231,254.653 357.238,269.672 357.239,272.691C350.999,273.296 329.009,275.447 311.227,272.648L311.227,287.225C329.019,290.027 351.013,287.872 357.202,287.272C357.072,310.634 356.851,310.39 356.641,333.824L364.525,336.002L372.317,332.352C372.786,308.833 373.079,309.017 373.284,285.445C383.322,284.163 418.875,278.907 423.735,278.238L423.856,263.651C418.99,264.32 383.392,269.58 373.341,270.863C373.339,267.843 373.33,252.821 372.915,233.121C382.871,231.837 418.141,226.57 422.96,225.9Z" style="fill:rgb(210,16,52);fill-rule:nonzero;"/>
            <path d="M324.704,222.948C324.704,225.864 321.861,228.361 318.349,228.001C314.943,227.651 311.994,224.491 311.994,221.655C311.994,218.762 315.007,216.591 318.349,216.934C321.602,217.268 324.704,220.082 324.704,222.948Z" style="fill:white;fill-rule:nonzero;"/>
            <path d="M319.538,218.195C316.078,218.479 314.2,215.898 314.849,214.025C315.311,212.692 318.445,210.581 322.315,210.431C324.377,210.358 330.104,213.737 331.343,213.806C334.945,214.024 335.785,211 335.905,210.568C337.159,206.054 342.19,205.117 337.837,203.24C338.505,203.215 339.373,203.373 339.879,203.881C340.48,204.484 340.877,207.083 340.874,206.232C341.257,205.84 344.265,202.756 346.782,202.757C348.248,205.094 346.651,209.092 346.826,208.654C347.277,208.449 350.444,207.007 353.017,208.338C348.09,209.464 347.262,212.79 347.395,212.258C347.848,213.335 347.868,214.909 347.053,215.747C345.808,217.029 357.33,218.326 363.524,215.931C381.816,208.847 381.387,207.902 390.089,206.606C393.843,206.046 400.464,207.191 401.765,205.189C403.177,203.016 399.846,200.369 392.358,202.076C388.867,202.872 373.733,212.051 369.571,208.22C368.84,208.312 367.628,210.356 367.906,209.674C365.069,209.153 362.692,208.249 362.253,208.082C359.714,207.11 359.767,211.521 361.583,212.148C360.605,212.218 359.367,212.174 358.468,211.711C357.726,211.328 357.086,208.811 357.051,209.646C356.567,209.363 351.309,206.288 354.967,202.955C355.338,208.713 362.53,205.174 363.132,204.878C365.62,203.65 369.572,204.018 371.187,205.107C372.642,206.089 378.049,206.723 383.973,202.65C390.203,198.362 406.854,194.926 407.503,201.555C408.054,207.18 401.964,209.759 399.522,210.276C399.678,210.809 400.694,214.28 406.056,212.604C406.858,212.353 415.141,209.763 416.556,212.62C417.389,214.302 421.538,216.729 420.802,219.171C419.178,224.479 411.621,224.431 410.711,224.425C408.088,224.408 408.459,223.846 406.022,223.22L409.012,221.236C413.324,219.889 413.658,216.784 412.296,216.378C411.293,216.079 407.263,218.984 403.999,218.31C398.301,217.132 387.922,212.76 394.919,215.495C395.145,217.039 393.161,218.287 391.739,218.93C388.629,220.34 391.17,221.151 392.274,223.037C393.682,225.441 385.015,228.308 384.277,228.552C383.158,228.922 376.538,233.11 371.721,228.518C367.355,224.344 372.743,222.148 375.045,223.383C379.259,225.642 379.357,227.466 381.656,225.443C383.484,223.835 380.103,222.588 379.776,220.822C379.135,217.275 380.495,210.655 379.822,215.089C378.5,217.229 371.889,225.21 361.057,227.855C349.413,230.697 345.019,230.995 346.228,230.913L342.575,228.703L338.271,231.684L338.072,228.569C337.33,229.165 331.371,233.95 327.871,234.696C324.036,235.513 314.902,232.09 314.705,229.618C314.411,225.963 317.852,225.4 318.66,225.21C321.848,224.463 321.565,225.518 323.871,227.705C324.206,228.023 327.353,231.008 329.427,229.256L332.915,226.631L333.608,223.319L330.283,223.178L331.499,219.36C330.096,219.665 328.38,219.261 327.327,218.285C326.497,217.516 325.535,215.079 323.86,215.549C321.99,216.092 322.065,217.986 319.538,218.195Z" style="fill:rgb(255,209,1);fill-rule:nonzero;"/>
            <path d="M327.871,269.007C324.945,270.154 320.488,260.051 323.004,257.521C325.553,254.97 330.73,267.882 327.871,269.007ZM333.685,267.775C330.934,268.062 331.934,254.607 333.675,254.574C335.46,254.541 337.502,267.37 333.685,267.775ZM338.738,269.749C335.256,269.276 340.538,260.952 342.003,260.876C343.514,260.798 342.753,270.297 338.738,269.749ZM399.208,265.193C397.737,265.447 394.572,266.684 394.73,265.2C394.846,264.116 396.235,263.558 396.641,262.547C397.477,260.416 396.829,248.184 396.763,246.937L401.155,246.285C401.049,247.42 400.016,258.392 401.351,260.537C403.241,263.543 402.798,264.578 399.208,265.193ZM414.083,286.941C415.847,284.986 411.374,282.66 408.305,283.113C402.267,284.004 399.2,291.653 398.799,292.653C398.53,293.327 397.067,296.813 398.904,296.961C399.841,297.037 402.275,295.242 403.146,293.047C403.389,292.435 405.545,287.004 408.049,286.442C409.473,286.115 411.28,290.063 414.083,286.941ZM383.499,314.408C379.486,314.71 376.278,323.858 375.937,324.83C382.363,320.862 382.459,321.131 386.898,315.086L383.499,314.408Z" style="fill:rgb(150,75,54);fill-rule:nonzero;"/>
            <path d="M324.704,261.092C325.291,263.001 316.723,261.062 316.593,264.797C313.064,263.846 318.238,257.369 321.46,258.635C320.788,254.857 315.821,252.911 315.349,258.879C309.971,253.457 316.94,249.618 320.027,251.917C318.155,245.214 314.995,246.539 314.705,249.073C310.62,245.145 314.836,240.189 318.36,243.08C321.988,246.056 322.301,249.343 322.249,248.793C322.983,246.227 325.96,240.672 331.212,242.995C322.464,246.701 322.395,253.592 324.704,261.092Z" style="fill:rgb(0,166,81);fill-rule:nonzero;"/>
            <path d="M333.907,257.303C330.591,254.273 328.317,249.571 330.133,252.701C330.401,253.41 332.628,259.299 328.749,262.075C328.859,258.062 325.37,253.175 327.004,251.455C329.241,249.1 333.568,251.715 333.147,251.461C334.042,250.074 330.422,246.924 330.076,246.623C328.253,245.041 323.33,242.64 323.182,240.176C325.265,241.543 333.211,243.172 333.896,249.192C334.412,244.342 336.107,241.4 340.042,240.834C347.168,239.808 347.078,239.871 347.22,239.727C347.229,240.881 346.843,240.554 341.747,242.841C344.683,244.612 344.876,250.061 344.9,250.741C344.532,250.155 340.634,243.956 338.855,244.541C336.502,245.319 334.911,254.663 335.878,250.378C342.474,250.001 340.291,257.848 340.094,258.557C339.988,258.081 338.945,253.404 336.712,253.475C335.131,253.525 333.307,258.767 333.907,257.303Z" style="fill:rgb(0,166,81);fill-rule:nonzero;"/>
            <path d="M340.115,262.99C340.404,259.046 342.469,253.959 343.808,253.564C343.964,252.624 345.201,245.167 350.39,243.647C354.354,242.488 355.459,246.339 354.544,248.674C353.027,246.779 348.853,243.799 348.042,252.853C351.423,251.775 353.649,254.139 352.732,257.696C352.317,257.284 347.681,252.692 345.481,256.807C351.262,258.576 347.822,263.367 347.481,263.842C346.576,259.258 343.86,260.476 342.701,264.14C341.725,267.194 340.551,264.893 340.115,262.99ZM398.26,250.504C393.842,251.159 387.957,256.294 387.616,262.547C383.28,257.434 388.029,249.474 394.505,245.877C393.03,246.119 381.65,247.988 378.77,255.945C377.37,247.226 390.333,241.444 394.433,242.398C391.911,238.986 381.697,240.551 376.666,244.559C376.543,237.046 391.681,233.081 398.019,238.934C397.112,233.453 400.092,231.347 399.607,231.689L399.822,239.156C404.207,234.754 415.323,227.955 421.809,238.381C410.426,234.796 404.036,240.289 403.17,241.279C406.541,240.051 415.927,238.902 414.635,250.214C411.029,243.846 403.8,244.287 401.716,244.807C403.857,245.341 411.321,248.791 408.018,257.801C403.617,247.971 396.642,250.978 398.26,250.504Z" style="fill:rgb(0,166,81);fill-rule:nonzero;"/>
            <path d="M388.52,295.379C388.051,290.253 394.72,286.661 395.533,286.223C396.675,286.675 407.923,291.124 409.655,292.259C411.265,293.313 408.244,299.648 402.849,301.943C397.423,304.245 389.413,296.269 388.52,295.379Z" style="fill:rgb(255,242,2);fill-rule:nonzero;"/>
            <path d="M384.53,314.382C381.75,313.179 380.277,304.128 384.922,302.623C383.365,297.656 387.024,294.064 388.562,293.457C389.822,292.959 395.18,294.364 398.683,296.874C400.267,298.004 405.803,300.382 405.938,301.041C406.193,302.277 402.861,306.578 398.732,307.503C399.975,311.047 388.828,316.254 384.53,314.382Z" style="fill:rgb(0,166,81);fill-rule:nonzero;"/>
            <path d="M323.182,297.476C324.703,296.952 326.194,296.161 327.349,295.041C327.67,294.73 330.228,292.247 332.784,296.345C335.32,300.41 337.606,307.587 335.867,302.791C335.78,302.028 335.278,297.63 340.886,294.612L347.46,290.757L345.449,298.311C346.158,297.856 352.31,293.911 353.479,291.492C354.833,299.67 348.074,307.014 343.361,309.11C345.695,312.747 344.385,316.456 344.57,315.933L352.568,321.614L343.785,324.883L339.978,317.036C336.774,317.291 329.87,316.18 328.749,310.33C327.837,305.572 329.932,299.026 328.749,298.83L323.182,297.476Z" style="fill-rule:nonzero;"/>
            <path d="M340.712,315.869L339.94,315.938C339.01,315.98 331.05,316.339 329.85,310.134C329.102,306.275 330.014,302.297 330.166,301.634C330.369,300.712 330.786,299.384 330.155,298.478L329.885,298.079L328.927,297.743L326.371,297.192L328.138,295.834C328.511,295.478 329.01,295.123 329.56,295.123C330.549,295.124 331.404,296.251 331.818,296.924C332.111,297.395 331.861,297.493 334.803,303.174L337.027,302.622C336.902,301.572 337.541,297.667 341.431,295.563L345.605,293.225L343.603,300.789L346.068,299.204C350.165,296.516 351.985,294.816 352.453,294.379C352.169,301.101 346.244,306.621 342.926,308.091L341.678,308.646L342.367,309.732C344.163,312.532 343.593,315.172 343.491,315.643L343.241,316.379L350.145,321.347L344.427,323.472L340.712,315.869Z" style="fill:white;fill-rule:nonzero;"/>
            <path d="M325.493,296.394C324.462,293.937 324.283,293.415 322.227,292.369L322.227,295.491C321.802,294.082 320.802,291.838 319.36,292.134C318.302,296.253 322.501,297.54 322.049,297.401C320.865,297.701 320.502,299.534 320.571,300.753C321.053,300.989 321.909,301.337 322.484,301.105C323.011,300.892 323.095,298.978 323.171,299.542C322.828,301.018 323.491,302.904 324.693,303.825C326.553,300.959 324.968,292.073 325.493,296.394Z" style="fill:rgb(0,166,81);fill-rule:nonzero;"/>
            <path d="M267.107,257.612C267.107,209.449 267.107,161.287 267.107,113.125C187.179,87.525 185.406,98.031 100.444,108.861L93.733,110.152C93.714,118.497 94.283,128.076 94.376,129.632C77.804,131.524 66.395,131.529 63.956,131.53L62.687,133.814C61.865,135.427 57.377,144.235 58.828,156.107C63.964,198.102 72.314,220.622 72.09,257.094C119.886,257.574 136.079,247.009 180.635,242.378C213.994,238.91 240.539,248.874 267.107,257.612Z" style="fill:rgb(0,36,125);fill-rule:nonzero;"/>
            <path d="M267.107,113.125C265.041,112.463 247.858,106.96 241.209,105.051C216.783,113.56 193.077,130.803 189.241,133.593C189.24,117.734 189.333,97.822 189.333,97.638C169.624,98.26 138.196,103.202 133.778,103.897C133.778,118.894 134.226,129.995 134.317,132.263C127.585,128.652 110.437,119.653 93.733,110.152C83.329,112.875 76.569,118.107 75.271,119.112C92.714,130.141 120.563,144.699 129.021,149.228C117.314,151.219 112.008,152.024 110.526,152.248C106.991,150.34 82.88,137.326 67.122,126.996L63.956,131.53C78.689,141.279 98.079,151.921 101.109,153.584C78.35,156.567 61.502,156.11 58.828,156.107C60.94,173.373 67.212,207.275 68.032,211.709C69.945,211.712 87.858,212.269 109.734,209.074C85.22,237.155 73.267,242.631 71.794,243.538L72.09,257.094C72.231,257.096 88.394,257.761 107.637,255.053C120.985,242.611 138.474,222.853 140.933,220.124C141.067,222.406 141.754,234.076 141.709,248.688C145.506,247.903 171.236,242.585 189.685,241.772C189.692,222.802 189.563,208.335 189.537,205.428C201.232,213.494 215.591,223.838 241.198,249.318C247.851,251.279 265.04,256.932 267.107,257.612L267.107,235.067C264.624,232.511 244.418,211.717 235.832,203.343C244.418,205.706 264.616,212.348 267.107,213.167L267.107,157.612C264.617,156.793 244.426,150.152 235.843,147.79C244.425,144.141 264.594,136.646 267.107,135.712C267.107,128.183 267.107,120.654 267.107,113.125Z" style="fill:rgb(238,238,238);fill-rule:nonzero;"/>
            <path d="M178.222,98.234C175.544,98.433 164.459,99.255 144.889,102.184C144.889,103.365 144.629,125.907 146.303,157.544C110.456,163.426 96.255,167.295 60.316,167.246C60.702,169.917 62.38,181.545 65.916,200.521C102.073,200.548 113.932,196.866 148.394,190.854C148.603,193.851 150.96,219.926 150.892,246.831C167.145,243.652 177.198,242.7 179.503,242.482C179.525,218.178 178.796,192.58 178.704,186.777C213.182,183.976 231.688,190.408 267.107,202.056L267.107,168.723C231.036,156.86 213.313,150.691 178.256,153.453C177.942,122.116 178.222,99.52 178.222,98.234Z" style="fill:rgb(207,27,43);fill-rule:nonzero;"/>
            <path d="M267.107,113.125L250.875,107.952C217.538,119.741 193.746,137.089 189.245,140.372L189.246,141.717C199.24,141.387 205.391,141.972 206.789,142.105C228.124,129.195 256.258,119.398 267.107,115.367L267.107,113.125ZM75.271,119.112C70.622,122.654 67.691,126.289 67.122,126.996C82.88,137.326 106.991,150.34 110.526,152.248C112.007,152.024 117.313,151.22 129.01,149.23C122.012,145.482 93.081,130.375 75.271,119.112ZM134.305,204.79C123.362,217.39 103.702,240.966 81.418,257.164C82.838,257.143 90.098,257.034 99.139,256.096C115.619,241.737 136.317,217.864 140.471,213.205L139.66,203.769L134.305,204.79ZM267.107,255.412L267.107,241.856C263.878,238.532 238.101,212.002 226.144,200.889C215.79,198.517 208.341,197.809 206.778,197.66C228.147,214.656 256.039,244.021 267.107,255.412Z" style="fill:rgb(207,27,43);fill-rule:nonzero;"/>
        </g>
    </g>
</svg>
