<?xml version="1.0" encoding="UTF-8" standalone="no"?>
<!DOCTYPE svg PUBLIC "-//W3C//DTD SVG 1.1//EN" "http://www.w3.org/Graphics/SVG/1.1/DTD/svg11.dtd">
<svg width="100%" height="100%" viewBox="0 0 512 512" version="1.1" xmlns="http://www.w3.org/2000/svg" xmlns:xlink="http://www.w3.org/1999/xlink" xml:space="preserve" xmlns:serif="http://www.serif.com/" style="fill-rule:evenodd;clip-rule:evenodd;stroke-linejoin:round;stroke-miterlimit:2;">
    <g>
        <g>
            <path d="M411.553,116.384C327.524,129.42 326.039,131.832 255.997,109.563C255.997,146.583 255.997,183.602 255.997,220.621C284.788,230.02 306.7,238.338 336.107,237.503C373.311,236.447 429.456,224.004 467.141,222.773C465.41,195.618 461.797,174.839 459.378,156.216C456.362,133 437.012,112.436 411.553,116.384Z" style="fill:rgb(237,236,236);fill-rule:nonzero;"/>
            <path d="M178.222,98.234C154.648,99.983 121.024,106.238 100.444,108.861C77.104,111.835 55.74,130.85 58.828,156.107C62.082,182.717 68.24,211.099 69.928,223.515C119.072,223.905 140.163,212.653 179.187,209.113C177.741,139.09 178.222,139.248 178.222,98.234Z" style="fill:rgb(238,238,238);fill-rule:nonzero;"/>
            <path d="M412.318,408.636C315.476,422.429 298.374,412.232 255.997,398.399L255.997,287.288C284.875,296.715 306.688,304.997 336.127,304.172C373.463,303.126 429.733,290.7 467.535,289.48C467.202,294.966 467.049,297.49 461.247,357.894C458.974,381.556 435.684,405.308 412.318,408.636ZM178.202,386.766C154.617,388.563 121.043,394.984 100.472,397.677C75.267,400.977 56.353,379.924 59.699,355.921C61.92,339.991 68.124,304.918 69.949,289.544C121.56,289.646 139.826,279.037 179.19,275.686C179.039,284.571 177.869,353.279 178.202,386.766Z" style="fill:rgb(237,236,236);fill-rule:nonzero;"/>
            <path d="M255.997,109.563C222.5,98.914 206.357,96.147 178.222,98.234C178.222,133.37 177.62,133.249 179.187,209.113C140.636,212.61 118.768,223.902 69.928,223.515C73.704,251.294 71.618,275.486 69.949,289.544C121.56,289.646 139.826,279.037 179.19,275.686C179.039,284.571 177.869,353.279 178.202,386.766C206.376,384.622 222.525,387.473 255.997,398.399L255.997,287.288C284.875,296.715 306.688,304.997 336.127,304.172C373.463,303.126 429.733,290.7 467.535,289.48C469.415,258.48 467.48,228.099 467.141,222.773C429.48,224.004 373.347,236.446 336.107,237.503C307.015,238.329 285.648,230.3 255.997,220.621C255.997,183.602 255.997,146.583 255.997,109.563Z" style="fill:rgb(0,53,128);fill-rule:nonzero;"/>
        </g>
    </g>
</svg>
