<?xml version="1.0" encoding="UTF-8" standalone="no"?>
<!DOCTYPE svg PUBLIC "-//W3C//DTD SVG 1.1//EN" "http://www.w3.org/Graphics/SVG/1.1/DTD/svg11.dtd">
<svg width="100%" height="100%" viewBox="0 0 512 512" version="1.1" xmlns="http://www.w3.org/2000/svg" xmlns:xlink="http://www.w3.org/1999/xlink" xml:space="preserve" xmlns:serif="http://www.serif.com/" style="fill-rule:evenodd;clip-rule:evenodd;stroke-linejoin:round;stroke-miterlimit:2;">
    <g>
        <g>
            <path d="M411.553,116.384C327.618,129.405 325.974,131.604 259.985,110.838C187.662,88.078 182.392,98.415 100.444,108.861C97.91,109.184 83.807,110.981 71.567,122.491C124.567,157.67 175.705,173.133 236.31,233.697L245.509,236.395C249.005,226.744 252.501,217.094 255.997,207.443C259.493,219.357 262.989,231.271 266.485,243.185C269.173,244.069 288.159,250.32 300.438,253.096C298.29,254.172 289.358,258.642 272.974,265.259L275.74,274.668C341.03,342.589 357.986,340.017 442.589,392.772C459.433,376.773 460.944,361.044 461.247,357.894C471.963,246.325 470.85,244.51 459.378,156.216C456.362,133 437.012,112.436 411.553,116.384Z" style="fill:rgb(7,137,48);fill-rule:nonzero;"/>
            <path d="M283.462,300.823C272.452,289.531 272.671,289.579 255.997,272.021C239.238,278.727 230.687,282.873 228.532,283.918C229.365,281.556 233.463,269.93 239.021,254.418C223.623,238.807 213.849,230.401 211.555,228.429C213.562,228.697 222.628,229.906 236.31,233.697C175.707,173.134 124.576,157.676 71.567,122.491C60.887,132.524 57.492,145.182 58.828,156.107C63.749,196.349 71.735,219.194 72.083,253.166C72.44,288.108 64.155,323.962 59.699,355.921C56.353,379.924 75.267,400.977 100.472,397.677C182.335,386.958 187.634,376.33 259.985,399.708C297.334,411.775 314.968,422.501 412.318,408.636C422.187,407.23 433.178,401.737 442.588,392.783C357.867,339.953 341.007,342.576 275.74,274.679C278.314,283.393 280.888,292.108 283.462,300.823Z" style="fill:rgb(252,221,9);fill-rule:nonzero;"/>
            <path d="M239.021,254.418C233.463,269.93 229.365,281.556 228.532,283.918C230.687,282.873 239.238,278.727 255.997,272.021C274.216,291.206 273.968,291.086 283.462,300.823C280.888,292.108 278.314,283.393 275.74,274.679L272.974,265.259C289.358,258.642 298.29,254.172 300.438,253.096C288.159,250.32 269.173,244.069 266.485,243.185C262.989,231.271 259.493,219.357 255.997,207.443C252.501,217.094 249.005,226.744 245.509,236.395C242.842,235.575 225.749,230.322 211.555,228.429C213.849,230.401 223.623,238.807 239.021,254.418Z" style="fill:rgb(218,18,26);fill-rule:nonzero;"/>
        </g>
    </g>
</svg>
