<?xml version="1.0" encoding="UTF-8" standalone="no"?>
<!DOCTYPE svg PUBLIC "-//W3C//DTD SVG 1.1//EN" "http://www.w3.org/Graphics/SVG/1.1/DTD/svg11.dtd">
<svg width="100%" height="100%" viewBox="0 0 512 512" version="1.1" xmlns="http://www.w3.org/2000/svg" xmlns:xlink="http://www.w3.org/1999/xlink" xml:space="preserve" xmlns:serif="http://www.serif.com/" style="fill-rule:evenodd;clip-rule:evenodd;stroke-linejoin:round;stroke-miterlimit:2;">
    <g transform="matrix(1.11593,-4.03717e-17,4.03717e-17,1.11593,-13.9687,-19.1113)">
        <g transform="matrix(11.1111,-1.36955e-31,4.93038e-32,11.1111,-2411.79,-2528.08)">
            <g>
                <g transform="matrix(0.896117,3.24196e-17,-3.24196e-17,0.896117,222.704,233.585)">
                    <path d="M32,5.435C24.437,6.608 24.303,6.825 18,4.821C18,8.786 18.737,12.558 18.871,16.826C10.362,14.109 9.423,17.203 1.432,17.112C1.567,20.551 0.763,23.908 0.333,26.993C0.033,29.147 1.724,31.049 4.002,30.751C11.374,29.786 11.848,28.83 18.359,30.934C21.72,32.019 23.309,32.985 32.068,31.737C34.174,31.437 36.262,29.289 36.469,27.17C37.446,17.169 37.37,17.149 36.301,9.019C36.029,6.947 34.301,5.078 32,5.435Z" style="fill:rgb(0,35,149);fill-rule:nonzero;"/>
                </g>
                <g transform="matrix(0.896117,3.24196e-17,-3.24196e-17,0.896117,222.704,233.585)">
                    <path d="M1.368,16.107C5.687,16.154 7.602,15.203 11.919,14.781C14.969,14.483 17.2,15.297 19.85,16.149C19.903,17.183 19.91,17.999 19.912,18.16C16.044,16.917 14.561,16.42 10.635,16.942C7.462,17.364 5.386,18.138 1.448,18.098C1.454,17.093 1.382,16.266 1.368,16.107Z" style="fill:rgb(238,238,238);fill-rule:nonzero;"/>
                </g>
                <g transform="matrix(0.896117,3.24196e-17,-3.24196e-17,0.896117,222.704,233.585)">
                    <path d="M7.223,16.526C4.259,17.073 3.029,17.13 1.432,17.112C1.329,14.495 0.666,12.371 0.255,9.01C-0.023,6.74 1.891,5.026 4,4.757C4.16,4.737 4.796,4.656 6,4.468C6,9.178 7.087,12.957 7.223,16.526Z" style="fill:rgb(0,35,149);fill-rule:nonzero;"/>
                </g>
                <g transform="matrix(0.896117,3.24196e-17,-3.24196e-17,0.896117,222.704,233.585)">
                    <path d="M6,4.468C6.745,4.352 9.877,3.814 12,3.747C12,7.935 12.685,11.831 12.817,15.733C10.798,15.819 8.066,16.371 7.223,16.526C7.087,12.961 6,9.182 6,4.468ZM17,4.511C17.473,4.652 18.84,5.09 19,5.141C19,9.376 19.866,13.277 19.912,18.16C19.749,18.108 18.355,17.66 17.873,17.515C17.824,12.781 17,8.806 17,4.511Z" style="fill:rgb(238,238,238);fill-rule:nonzero;"/>
                </g>
                <g transform="matrix(0.896117,3.24196e-17,-3.24196e-17,0.896117,222.704,233.585)">
                    <path d="M12,3.747C13.975,3.685 15.481,4.02 18,4.821C18,8.786 18.737,12.558 18.871,16.826C16.422,16.044 14.786,15.649 12.817,15.733C12.685,11.834 12,7.942 12,3.747Z" style="fill:rgb(237,41,57);fill-rule:nonzero;"/>
                </g>
                <g transform="matrix(0.896117,3.24196e-17,-3.24196e-17,0.896117,222.704,233.585)">
                    <path d="M30.975,20.887C30.261,22.017 29.175,23.593 29.046,23.786C29.084,23.406 29.298,21.302 29.279,19.019C29.464,18.993 30.079,18.907 31.587,18.657L32.422,17.552C30.903,17.799 26.974,18.541 24.572,18.297L25.431,19.315C26.401,19.334 27.53,19.225 27.711,19.207C27.73,21.544 27.517,23.588 27.477,23.967C27.066,23.242 26.086,21.649 25.963,21.449C25.256,22.497 24.421,23.614 23.132,25.089C23.786,25.212 24.28,25.255 24.38,25.264C25.146,24.274 25.731,23.434 25.844,23.272C26.113,23.821 27.236,26.231 27.87,27.503C29.417,25.127 29.379,25.122 30.856,22.714C31.177,23.254 31.159,23.249 31.907,24.653L33.166,24.472C32.847,23.903 32.424,23.007 30.975,20.887Z" style="fill:white;fill-rule:nonzero;"/>
                    <path d="M27.995,20.224C29.179,20.099 30.923,19.811 31.177,19.769L30.451,20.825C28.997,21.057 28.168,21.145 27.969,21.166L27.995,20.224ZM24.489,24.327C24.687,24.345 25.487,24.414 26.976,24.309L26.908,24.934C25.411,25.029 24.617,24.96 24.418,24.943L24.489,24.327ZM29.486,24.033C30.069,23.951 31.805,23.68 32.007,23.648L31.941,24.312C31.74,24.342 30.102,24.588 29.42,24.678L29.486,24.033ZM27.775,28.429L27.987,29.431L29.048,29.328L28.157,30.074L28.393,31.066L27.599,30.513L26.731,31.175L27.1,30.155L26.318,29.543L27.347,29.482L27.775,28.429ZM23.119,19.065L23.418,20.156L24.461,20.317L23.624,20.83L23.881,21.879L23.087,21.101L22.232,21.504L22.577,20.608L21.763,19.758L22.785,20.021L23.119,19.065ZM33.922,18.324L34.223,19.309L35.271,19.178L34.43,19.912L34.691,20.872L33.891,20.358L33.035,21.083L33.379,20.063L32.563,19.562L33.588,19.401L33.922,18.324ZM25.026,26.49L25.206,27.519L26.255,27.5L25.357,28.16L25.559,29.16L24.794,28.539L23.918,29.099L24.317,28.139L23.567,27.417C24.09,27.488 24.496,27.506 24.577,27.509L25.026,26.49ZM30.983,26.007L31.186,27.016L32.242,26.871L31.345,27.636L31.558,28.609L30.779,28.09L29.889,28.801L30.286,27.774L29.514,27.229L30.546,27.101L30.983,26.007Z" style="fill:white;fill-rule:nonzero;"/>
                </g>
            </g>
        </g>
    </g>
</svg>
