<?xml version="1.0" encoding="UTF-8" standalone="no"?>
<!DOCTYPE svg PUBLIC "-//W3C//DTD SVG 1.1//EN" "http://www.w3.org/Graphics/SVG/1.1/DTD/svg11.dtd">
<svg width="100%" height="100%" viewBox="0 0 512 512" version="1.1" xmlns="http://www.w3.org/2000/svg" xmlns:xlink="http://www.w3.org/1999/xlink" xml:space="preserve" xmlns:serif="http://www.serif.com/" style="fill-rule:evenodd;clip-rule:evenodd;stroke-linejoin:round;stroke-miterlimit:2;">
    <g transform="matrix(1.11593,-4.03717e-17,4.03717e-17,1.11593,-13.9687,-19.1113)">
        <g transform="matrix(11.1111,-8.76512e-32,4.93038e-32,11.1111,-2411.79,-2528.08)">
            <g>
                <g transform="matrix(0.896117,3.24196e-17,-3.24196e-17,0.896117,222.704,233.585)">
                    <path d="M36.469,27.17C36.262,29.289 34.174,31.437 32.068,31.737C22.767,33.063 21.617,31.929 16.923,30.475C12.025,28.957 9.41,30.043 4.002,30.751C1.724,31.049 0.033,29.147 0.333,26.993C0.731,24.136 1.48,20.893 1.447,17.745C1.416,14.7 0.699,12.641 0.255,9.01C-0.023,6.74 1.891,5.026 4,4.757C11.375,3.817 11.85,2.887 18.359,4.935C24.284,6.8 24.43,6.609 32,5.435C34.301,5.078 36.029,6.947 36.301,9.019C37.37,17.151 37.446,17.168 36.469,27.17Z" style="fill:rgb(206,17,38);fill-rule:nonzero;"/>
                </g>
                <g transform="matrix(0.896117,3.24196e-17,-3.24196e-17,0.896117,222.704,233.585)">
                    <path d="M0.712,12.012C6.673,12.019 10.368,10.316 14.494,10.847C17.403,11.221 21.042,12.923 23.973,13.256C27.541,13.662 32.808,12.142 36.718,12.02C37.555,18.369 36.848,23.242 36.76,24.151C27.986,24.554 27.796,26.759 18.877,23.931C10.15,21.163 9.966,23.986 0.807,23.993C1.878,17.552 1.482,16.379 0.712,12.012Z" style="fill:rgb(238,238,238);fill-rule:nonzero;"/>
                </g>
                <g transform="matrix(0.896117,3.24196e-17,-3.24196e-17,0.896117,222.704,233.585)">
                    <path d="M15.785,18.754C15.664,18.375 15.627,18.008 15.632,18.064C15.575,17.971 15.416,17.976 15.311,18.006C15.121,18.059 14.944,18.153 14.756,18.212C14.654,18.245 14.549,18.269 14.443,18.281C14.281,18.3 14.136,18.209 14.024,18.101L14.167,18.524C14.297,18.534 14.924,18.58 15.785,18.755L15.785,18.754ZM19.416,19.778C19.409,19.762 19.284,19.372 18.883,19.244C18.518,19.128 18.347,19.403 18.326,19.431L19.416,19.778ZM23.593,20.933L23.775,20.501C23.443,20.775 22.923,20.547 22.766,20.306C22.599,20.05 22.149,19.894 22.201,19.912C22.147,20.219 22.048,20.511 22.031,20.562L22.024,20.576C22.873,20.805 23.467,20.912 23.593,20.934L23.593,20.933ZM23.201,21.613L23.451,21.248C23.341,21.171 23.226,21.11 23.093,21.079C22.656,20.976 22.66,21.227 22.212,21.114C22.057,21.075 21.889,21.007 21.795,20.87C21.762,20.899 21.609,21.034 21.324,21.136C22.371,21.444 23.049,21.582 23.201,21.613ZM17.733,20.009C18.257,20.165 19.671,20.62 19.839,20.674L19.726,20.501L19.728,20.514C19.675,20.444 19.312,19.965 18.864,19.822C18.788,19.798 18.293,19.64 17.878,19.929L17.892,19.909L17.733,20.009ZM16.271,19.616C16.066,19.391 15.959,19.171 15.938,19.128C15.901,19.145 15.649,19.259 15.44,19.207C15.186,19.142 14.678,18.649 14.509,18.711L14.261,18.807L14.495,19.305C14.638,19.32 15.315,19.392 16.271,19.616ZM15.106,20.278C17.284,20.631 20.551,21.879 22.47,22.347L22.842,22.028C22.797,21.977 22.488,21.629 22.14,21.538C21.734,21.431 21.315,21.753 20.975,21.65C20.636,21.547 20.428,21.085 19.975,20.939C19.524,20.795 19.071,21.107 18.742,21.002C18.496,20.924 17.889,20.277 17.651,20.206C17.412,20.136 16.76,20.414 16.494,20.348C16.242,20.285 15.709,19.665 15.482,19.623C15.198,19.57 14.814,19.749 14.761,19.773L15.106,20.278ZM21.506,22.836L21.879,22.702C21.809,22.648 21.261,22.228 20.938,22.13C20.424,21.974 20.406,22.204 19.892,22.039C19.262,21.837 19.397,21.608 18.75,21.401C18.193,21.223 18.183,21.567 17.63,21.403C17.341,21.317 16.843,20.797 16.465,20.703C16.388,20.684 16.06,20.602 15.474,20.73L15.925,21.175C17.538,21.533 20.215,22.469 21.506,22.836ZM19.853,22.599C19.395,22.452 18.919,22.764 18.638,22.674C18.362,22.585 17.925,21.966 17.583,21.864C17.28,21.774 16.862,21.881 16.802,21.897C17.69,22.516 18.467,22.765 18.623,22.814C19.587,23.123 20.379,23.058 20.532,23.045C20.486,22.999 20.186,22.706 19.853,22.599Z" style="fill:rgb(8,62,157);fill-rule:nonzero;"/>
                </g>
                <g transform="matrix(0.896117,3.24196e-17,-3.24196e-17,0.896117,222.704,233.585)">
                    <path d="M15.581,15.614C14.826,15.168 14.262,14.899 14.144,14.843C14.112,14.929 13.971,15.303 13.887,15.958C14.026,15.975 14.69,16.053 15.603,16.292L15.581,15.614ZM16.63,16.266L16.639,16.596L17.606,16.928L17.606,16.921L16.63,16.266ZM22.041,18.151C23.048,18.351 23.736,18.411 23.884,18.424C23.76,17.736 23.558,17.28 23.516,17.186C23.397,17.213 22.829,17.343 22.02,17.455L22.041,18.151ZM21.047,17.572L20.186,17.652L20.191,17.727L21.056,17.937L21.047,17.572ZM22.509,15.601L21.943,15.966L21.992,16.814L23.123,16.492C22.818,15.979 22.564,15.668 22.509,15.601ZM21.005,16.53L20.145,17.018L20.159,17.221L21.028,17.04L21.005,16.53ZM17.575,16.349L16.59,15.27L16.616,15.843L17.59,16.605L17.575,16.349ZM15.504,14.145L14.923,13.577C14.874,13.629 14.654,13.867 14.41,14.317C14.504,14.375 14.961,14.654 15.557,15.07L15.504,14.145ZM20.958,15.713C20.945,15.513 21.275,15.561 21.375,15.581L22.023,15.06C21.602,14.629 21.242,14.338 21.17,14.28C21.085,14.421 20.65,15.142 20.073,16.022L20.113,16.539L20.971,15.896L20.958,15.713ZM16.526,14.175L16.556,14.636L17.545,15.899L17.507,15.395C17.393,15.186 16.674,13.865 16.035,12.808C15.976,12.83 15.694,12.934 15.348,13.182L15.936,13.877C16.312,13.913 16.52,14.091 16.526,14.175ZM20.007,15.088L20.589,13.845C20.097,13.505 19.797,13.347 19.725,13.309L19.543,14.333C19.581,14.347 20.134,14.544 20.014,14.525C19.971,14.518 20.004,15.043 20.007,15.088ZM17.225,12.615C17.037,12.614 16.679,12.672 16.631,12.679C16.696,12.809 17.011,13.449 17.411,14.316C17.398,14.18 17.336,13.536 17.225,12.615ZM15.613,16.832C14.667,16.626 13.982,16.58 13.839,16.571L13.825,16.731L13.886,17.315C14.026,17.321 14.696,17.35 15.618,17.526L15.613,16.832ZM22.052,19.386C23.073,19.661 23.768,19.77 23.919,19.794C23.925,19.749 23.978,19.39 23.977,19.223L23.959,19.06C23.805,19.042 23.096,18.958 22.05,18.715L22.052,19.386Z" style="fill:rgb(255,157,17);fill-rule:nonzero;"/>
                </g>
                <g transform="matrix(0.896117,3.24196e-17,-3.24196e-17,0.896117,222.704,233.585)">
                    <path d="M15.783,14.28C15.905,16.202 15.892,17.591 15.889,17.879C15.884,18.396 16.151,19.575 16.884,19.77C17.771,20.005 18.239,19.212 18.34,18.883C18.053,19.041 17.402,19.21 17.016,18.953C16.359,18.517 16.452,17.861 16.452,17.567C16.451,17.321 16.45,16.118 16.35,14.497C16.334,14.223 15.768,14.034 15.783,14.28ZM21.75,16.035C21.869,17.907 21.852,19.342 21.849,19.629C21.841,20.25 21.444,21.177 20.747,20.961C19.867,20.689 19.462,19.571 19.381,19.215C19.461,19.311 20.139,20.129 20.685,20.088C21.319,20.041 21.287,19.499 21.288,19.029C21.288,18.783 21.289,17.553 21.191,15.962C21.175,15.695 21.734,15.791 21.75,16.035ZM19.708,17.389C19.56,17.297 18.432,16.598 17.858,16.255C17.849,16.025 17.807,14.89 17.678,13.378C17.638,12.914 17.868,12.111 19.431,13.109C18.532,12.901 18.317,13.708 19.568,14.661C19.675,16.079 19.702,17.17 19.708,17.389Z" style="fill:rgb(206,17,38);fill-rule:nonzero;"/>
                </g>
                <g transform="matrix(0.896117,3.24196e-17,-3.24196e-17,0.896117,222.704,233.585)">
                    <path d="M20.932,19.196C20.932,19.271 20.863,19.309 20.795,19.288C17.103,18.145 17.114,18.144 16.864,18.079C16.793,18.06 16.73,17.986 16.73,17.91C16.73,17.836 16.797,17.793 16.866,17.812C17.836,18.066 20.726,18.999 20.797,19.021C20.868,19.043 20.933,19.119 20.932,19.196ZM17.88,18.938L16.972,18.68L17.37,18.279L18.279,18.549L17.88,18.938ZM19.768,19.535L20.678,19.825L20.297,19.194L19.386,18.901L19.768,19.535ZM17.526,17.711L17.298,17.403L17.521,17.224C17.574,17.182 17.52,17.109 17.484,17.082C17.444,17.051 17.354,17.015 17.302,17.057L17.201,17.138L17.199,16.988C17.198,16.952 17.168,16.917 17.134,16.907C17.1,16.898 17.07,16.916 17.071,16.953L17.073,17.103L16.97,16.966C16.933,16.917 16.852,16.876 16.787,16.891C16.727,16.905 16.716,16.963 16.755,17.014L16.984,17.317L16.759,17.502C16.707,17.543 16.756,17.614 16.794,17.643C16.837,17.675 16.924,17.704 16.975,17.663L17.142,17.528L17.309,17.754C17.346,17.804 17.426,17.846 17.491,17.834C17.551,17.821 17.564,17.764 17.526,17.711ZM18.37,17.965L18.141,17.651L18.364,17.477C18.418,17.437 18.362,17.362 18.328,17.335C18.289,17.304 18.198,17.264 18.146,17.306L18.044,17.384L18.042,17.234C18.041,17.197 18.011,17.161 17.977,17.151C17.943,17.141 17.913,17.158 17.914,17.195L17.916,17.345L17.813,17.205C17.776,17.155 17.695,17.111 17.63,17.124C17.568,17.136 17.559,17.195 17.597,17.246L17.826,17.556L17.601,17.733C17.548,17.774 17.601,17.848 17.636,17.876C17.677,17.907 17.765,17.941 17.818,17.901L17.984,17.772L18.152,18.002C18.189,18.053 18.269,18.098 18.334,18.087C18.396,18.075 18.408,18.018 18.37,17.965ZM19.215,18.234L18.986,17.916L19.21,17.746C19.264,17.705 19.206,17.63 19.173,17.603C19.135,17.572 19.043,17.531 18.991,17.571L18.89,17.649L18.887,17.499C18.887,17.462 18.856,17.426 18.822,17.415C18.789,17.405 18.758,17.421 18.759,17.458L18.761,17.608L18.658,17.466C18.621,17.416 18.54,17.37 18.475,17.382C18.412,17.392 18.405,17.452 18.442,17.502L18.671,17.817L18.445,17.99C18.391,18.03 18.447,18.106 18.48,18.133C18.521,18.165 18.609,18.202 18.663,18.162L18.829,18.036L18.997,18.269C19.034,18.32 19.114,18.366 19.18,18.356C19.241,18.344 19.253,18.286 19.215,18.234ZM20.063,18.507L19.834,18.189L20.058,18.019C20.112,17.978 20.054,17.903 20.021,17.876C19.983,17.845 19.891,17.804 19.839,17.845L19.737,17.921L19.735,17.771C19.734,17.734 19.704,17.698 19.67,17.687C19.637,17.676 19.606,17.692 19.607,17.73L19.609,17.879L19.505,17.737C19.469,17.687 19.388,17.64 19.322,17.651C19.259,17.661 19.252,17.721 19.289,17.771L19.519,18.088L19.293,18.259C19.238,18.299 19.295,18.375 19.327,18.402C19.368,18.434 19.456,18.472 19.51,18.433L19.677,18.307L19.844,18.541C19.881,18.592 19.961,18.638 20.027,18.628C20.089,18.617 20.101,18.559 20.063,18.507ZM20.907,18.772L20.678,18.458L20.902,18.285C20.955,18.244 20.9,18.169 20.865,18.142C20.826,18.111 20.735,18.072 20.683,18.113L20.582,18.19L20.58,18.041C20.579,18.004 20.548,17.968 20.514,17.957C20.481,17.947 20.451,17.962 20.451,18L20.453,18.15L20.35,18.008C20.313,17.958 20.232,17.911 20.167,17.923C20.104,17.933 20.097,17.993 20.134,18.043L20.363,18.359L20.137,18.53C20.083,18.57 20.139,18.647 20.172,18.674C20.213,18.706 20.301,18.744 20.354,18.704L20.521,18.577L20.689,18.809C20.726,18.86 20.805,18.905 20.871,18.894C20.932,18.882 20.945,18.825 20.907,18.772Z" style="fill:rgb(99,8,16);fill-rule:nonzero;"/>
                </g>
            </g>
        </g>
    </g>
</svg>
