<?xml version="1.0" encoding="UTF-8" standalone="no"?>
<!DOCTYPE svg PUBLIC "-//W3C//DTD SVG 1.1//EN" "http://www.w3.org/Graphics/SVG/1.1/DTD/svg11.dtd">
<svg width="100%" height="100%" viewBox="0 0 512 512" version="1.1" xmlns="http://www.w3.org/2000/svg" xmlns:xlink="http://www.w3.org/1999/xlink" xml:space="preserve" xmlns:serif="http://www.serif.com/" style="fill-rule:evenodd;clip-rule:evenodd;stroke-linejoin:round;stroke-miterlimit:2;">
    <g>
        <g>
            <path d="M411.553,116.384C327.618,129.405 325.974,131.604 259.985,110.838C187.662,88.078 182.392,98.415 100.444,108.861C77.104,111.835 55.74,130.85 58.828,156.107C61.097,174.663 65.256,196.984 65.916,200.521C131.114,200.57 165.98,180.937 212,187.156C244.121,191.497 283.613,210.626 315.993,214.514C354.345,219.119 420.451,202.083 465.285,200.634C464.175,190.582 459.73,158.925 459.378,156.216C456.362,133 437.012,112.436 411.553,116.384Z" style="fill:rgb(204,22,43);fill-rule:nonzero;"/>
            <path d="M59.699,355.921C56.353,379.924 75.267,400.977 100.472,397.677C182.335,386.958 187.634,376.33 259.985,399.708C297.334,411.775 314.968,422.501 412.318,408.636C435.684,405.308 458.974,381.556 461.247,357.894C461.556,354.672 464.496,323.152 465.573,312.341C365.774,315.923 363.543,344.276 259.997,310.822C166.652,280.665 164.705,311.49 66.784,311.522C60.764,348.771 60.713,348.65 59.699,355.921Z" style="fill:rgb(60,118,44);fill-rule:nonzero;"/>
            <path d="M69.949,289.544C134.417,289.672 165.747,269.794 212,276.045C244.121,280.385 283.613,299.515 315.993,303.403C354.309,308.004 422.171,290.944 467.535,289.48C466.836,301 466.718,300.853 465.573,312.341C365.774,315.923 363.543,344.276 259.997,310.822C166.652,280.665 164.705,311.49 66.784,311.522C68.881,298.546 69.74,291.308 69.949,289.544ZM65.916,200.521C131.114,200.57 165.98,180.937 212,187.156C244.121,191.497 283.613,210.626 315.993,214.514C354.345,219.119 420.451,202.083 465.285,200.634C465.48,202.4 466.338,210.181 467.141,222.773C405.339,224.792 347.621,247.48 291.995,231.893C251.646,220.587 221.862,204.96 180.819,208.971C134.859,213.462 119.358,223.907 69.928,223.515C68.337,211.809 68.063,212.046 65.916,200.521Z" style="fill:rgb(238,238,238);fill-rule:nonzero;"/>
            <path d="M69.928,223.515C147.543,224.13 169.667,194.015 243.998,216.822C292.563,231.724 305.813,241.009 357.233,236.083C385.478,233.378 435.571,223.805 467.141,222.773C467.48,228.099 469.415,258.48 467.535,289.48C378.769,292.345 359.24,320.61 267.996,291.237C235.245,280.694 214.43,271.788 173.553,276.236C135.574,280.369 119.846,289.643 69.949,289.544C71.618,275.486 73.704,251.294 69.928,223.515Z" style="fill:rgb(13,33,138);fill-rule:nonzero;"/>
        </g>
    </g>
</svg>
