<?xml version="1.0" encoding="UTF-8" standalone="no"?>
<!DOCTYPE svg PUBLIC "-//W3C//DTD SVG 1.1//EN" "http://www.w3.org/Graphics/SVG/1.1/DTD/svg11.dtd">
<svg width="100%" height="100%" viewBox="0 0 512 512" version="1.1" xmlns="http://www.w3.org/2000/svg" xmlns:xlink="http://www.w3.org/1999/xlink" xml:space="preserve" xmlns:serif="http://www.serif.com/" style="fill-rule:evenodd;clip-rule:evenodd;stroke-linejoin:round;stroke-miterlimit:2;">
    <g>
        <g>
            <path d="M411.553,116.384C353.883,125.331 330.568,131.855 283.773,118.269C283.773,157.218 283.773,196.167 283.773,235.115C351.181,255.209 396.407,230.645 467.471,228.328C465.763,197.455 462.269,178.471 459.378,156.216C456.362,133 437.012,112.436 411.553,116.384Z" style="fill:rgb(238,238,238);fill-rule:nonzero;"/>
            <path d="M283.773,118.269C273.233,115.209 244.358,105.416 228.221,101.642C228.221,140.442 228.221,179.242 228.221,218.043C169.839,204.025 138.463,229.944 70.641,229.279C73.53,255.214 71.001,279.761 70.551,284.126C141.615,284.355 170.341,259.701 228.221,273.599L228.221,390.265C244.26,394.117 271.563,403.698 283.773,407.338L283.773,290.671C351.176,310.763 396.643,286.218 467.837,283.927C468.051,279.484 469.1,257.762 467.471,228.328C396.407,230.645 351.181,255.209 283.773,235.115C283.773,196.167 283.773,157.218 283.773,118.269Z" style="fill:rgb(232,17,45);fill-rule:nonzero;"/>
            <path d="M378.441,173.128C378.539,162.513 379.91,153.728 380.17,152.057C369.989,154.873 361.763,154.819 360.146,154.809C362.284,164.932 362.941,173.55 363.066,175.193C351.955,175.986 343.549,174.863 341.867,174.639C343.165,184.498 342.168,192.746 341.98,194.308C352.92,191.687 361.708,190.238 363.436,189.953C363.145,200.656 361.569,209.247 361.265,210.905C372.034,208.473 380.887,208.209 382.608,208.158C382.203,206.563 380.106,198.305 379.088,187.89C390.786,186.758 399.621,186.944 401.407,186.982C401.081,185.438 399.38,177.377 399.966,167.303C389.112,171.069 380.193,172.79 378.441,173.128Z" style="fill:rgb(232,17,45);fill-rule:nonzero;"/>
            <path d="M228.221,101.642C185.923,91.75 149.508,102.607 100.444,108.861C77.104,111.835 55.74,130.85 58.828,156.107C62.382,185.169 68.788,212.643 70.641,229.279C138.404,229.944 169.84,204.025 228.221,218.043C228.221,179.242 228.221,140.442 228.221,101.642Z" style="fill:rgb(238,238,238);fill-rule:nonzero;"/>
            <path d="M150.454,152.229C150.506,141.521 151.889,132.847 152.155,131.178C142.332,133.88 134.493,134.181 132.937,134.241C133.317,135.845 135.262,144.05 136.448,154.542C126.156,155.759 118.217,155.463 116.631,155.404C116.966,156.952 118.7,164.963 118.716,175.088C128.215,171.453 135.972,169.661 137.505,169.308C137.557,170.99 137.832,179.735 137.066,190.347C145.792,187.478 153.107,187.311 154.525,187.279C152.162,177.156 151.318,168.629 151.155,166.992C161.163,165.928 169.109,166.645 170.664,166.786C169.262,156.941 170.127,148.679 170.291,147.113C159.825,150.288 152.059,151.896 150.454,152.229Z" style="fill:rgb(232,17,45);fill-rule:nonzero;"/>
            <path d="M461.247,357.894C467.317,294.695 467.551,289.861 467.837,283.927C396.643,286.218 351.176,310.763 283.773,290.671L283.773,407.338C302.032,412.781 324.048,421.208 412.318,408.636C435.684,405.308 458.974,381.556 461.247,357.894Z" style="fill:rgb(238,238,238);fill-rule:nonzero;"/>
            <path d="M379.133,361.468C379.438,371.8 380.917,380.334 381.199,381.957C379.552,381.942 371.048,381.864 360.709,383.89C362.838,373.53 363.397,364.689 363.503,363.007C361.773,363.235 352.719,364.433 342.009,366.753C343.273,356.868 342.23,348.639 342.032,347.077C343.746,347.336 352.338,348.633 363.673,348.147C363.241,337.56 361.615,328.963 361.303,327.315C363.028,327.348 371.817,327.515 382.719,324.776C380.303,335.623 379.612,344.755 379.48,346.507C381.304,346.211 390.575,344.707 401.952,341.166C400.204,351.392 400.943,359.675 401.086,361.28C399.332,361.186 390.633,360.724 379.133,361.468Z" style="fill:rgb(232,17,45);fill-rule:nonzero;"/>
            <path d="M228.221,273.599C170.34,259.701 141.68,284.356 70.551,284.126C68.566,303.384 62.402,336.532 59.699,355.921C56.353,379.924 75.267,400.977 100.472,397.677C149.178,391.3 185.857,380.093 228.221,390.265L228.221,273.599Z" style="fill:rgb(238,238,238);fill-rule:nonzero;"/>
            <path d="M150.788,339.148C150.78,349.744 152.075,357.862 152.332,359.473C150.786,359.503 142.998,359.659 133.24,362.518C135.675,352.039 136.721,343.136 136.921,341.436C135.323,341.793 127.574,343.524 117.28,347.18C119.443,337.22 119.469,329.091 119.474,327.507C120.959,327.57 128.192,327.877 138.041,326.677C138.391,316.32 137.679,308.045 137.54,306.431C138.942,306.37 145.864,306.068 154.82,303.385C152.544,314.12 151.703,322.697 151.537,324.39C153.099,324.056 160.668,322.442 170.85,319.313C169.455,329.429 170.28,337.416 170.442,338.981C168.876,338.835 160.874,338.089 150.788,339.148Z" style="fill:rgb(232,17,45);fill-rule:nonzero;"/>
        </g>
    </g>
</svg>
