<?xml version="1.0" encoding="UTF-8" standalone="no"?>
<!DOCTYPE svg PUBLIC "-//W3C//DTD SVG 1.1//EN" "http://www.w3.org/Graphics/SVG/1.1/DTD/svg11.dtd">
<svg width="100%" height="100%" viewBox="0 0 512 512" version="1.1" xmlns="http://www.w3.org/2000/svg" xmlns:xlink="http://www.w3.org/1999/xlink" xml:space="preserve" xmlns:serif="http://www.serif.com/" style="fill-rule:evenodd;clip-rule:evenodd;stroke-linejoin:round;stroke-miterlimit:2;">
    <g>
        <g>
            <path d="M411.553,116.384C327.618,129.405 325.974,131.604 259.985,110.838C187.662,88.078 182.392,98.415 100.444,108.861C77.104,111.835 55.74,130.85 58.828,156.107C60.94,173.373 67.212,207.275 68.032,211.709C132.759,211.803 165.825,192.027 212,198.267C244.121,202.608 283.613,221.737 315.993,225.625C354.242,230.218 421.296,213.15 466.345,211.672C465.053,195.403 460.635,165.894 459.378,156.216C456.362,133 437.012,112.436 411.553,116.384Z" style="fill:rgb(204,33,45);fill-rule:nonzero;"/>
            <path d="M227.366,290.062C244.065,293.997 271.566,303.747 284.973,307.693C279.719,302.328 258.472,279.944 256.175,277.524C238.518,284.587 229.622,288.954 227.366,290.062ZM267.219,247.193C270.042,248.121 289.896,254.649 302.938,257.411C300.684,258.57 291.22,263.44 274.04,270.402C277.71,282.84 281.38,295.278 285.051,307.716C350.981,327.101 396.883,302.853 466.719,300.578C470.195,260.452 467.116,221.379 466.345,211.672C428.94,212.899 373.181,225.317 336.176,226.389C307.134,227.231 285.784,219.239 256.175,209.568C259.856,222.11 263.537,234.651 267.219,247.193ZM238.31,259.014C222.085,242.61 211.834,233.97 209.411,231.928C224.299,233.664 242.329,239.187 245.131,240.045C248.812,229.886 252.494,219.727 256.175,209.568C165.036,179.801 158.751,211.841 68.032,211.709C74.564,247.023 71.847,277.477 68.5,300.472C140.991,300.491 170.669,276.726 227.288,290.043C228.162,287.558 232.464,275.335 238.31,259.014Z" style="fill:rgb(251,209,22);fill-rule:nonzero;"/>
            <path d="M285.073,307.789L284.973,307.693C271.912,303.849 244.153,294.017 227.355,290.059L227.255,290.102L227.288,290.043C170.66,276.724 141.099,300.491 68.5,300.472C67.36,308.302 61.51,342.933 59.699,355.921C56.353,379.924 75.267,400.977 100.472,397.677C182.335,386.958 187.634,376.33 259.985,399.708C297.334,411.775 314.968,422.501 412.318,408.636C435.684,405.308 458.974,381.556 461.247,357.894C461.687,353.309 466.412,304.116 466.719,300.578C396.928,302.851 350.983,327.102 285.051,307.716L285.073,307.789Z" style="fill:rgb(40,133,65);fill-rule:nonzero;"/>
            <path d="M209.411,231.928C211.834,233.97 222.085,242.61 238.31,259.014C237.421,261.494 232.464,275.335 227.288,290.043L227.266,290.105L227.366,290.062C229.622,288.954 238.518,284.587 256.175,277.524C272.163,294.367 271.851,294.293 284.973,307.693L285.073,307.789L285.051,307.716C281.38,295.278 277.71,282.84 274.04,270.402C291.22,263.44 300.684,258.57 302.938,257.411C289.896,254.649 270.042,248.121 267.219,247.193C263.537,234.651 259.856,222.11 256.175,209.568C252.494,219.727 248.812,229.886 245.131,240.045C242.329,239.187 224.299,233.664 209.411,231.928Z" style="fill-rule:nonzero;"/>
        </g>
    </g>
</svg>
