<?xml version="1.0" encoding="UTF-8" standalone="no"?>
<!DOCTYPE svg PUBLIC "-//W3C//DTD SVG 1.1//EN" "http://www.w3.org/Graphics/SVG/1.1/DTD/svg11.dtd">
<svg width="100%" height="100%" viewBox="0 0 512 512" version="1.1" xmlns="http://www.w3.org/2000/svg" xmlns:xlink="http://www.w3.org/1999/xlink" xml:space="preserve" xmlns:serif="http://www.serif.com/" style="fill-rule:evenodd;clip-rule:evenodd;stroke-linejoin:round;stroke-miterlimit:2;">
    <g>
        <g>
            <path d="M461.247,357.894C458.974,381.556 435.684,405.308 412.318,408.636C308.939,423.36 296.194,410.772 244.032,394.61C189.598,377.745 160.51,389.816 100.472,397.677C75.267,400.977 56.353,379.924 59.699,355.921C61.547,342.664 67.138,309.825 68.5,300.472C133.928,300.489 165.784,280.91 212,287.156C244.121,291.497 283.613,310.626 315.993,314.514C354.413,319.127 421.374,302.055 466.719,300.578C466.412,304.116 461.687,353.309 461.247,357.894Z" style="fill:rgb(218,28,11);fill-rule:nonzero;"/>
            <path d="M411.553,116.384C327.618,129.405 325.974,131.604 259.985,110.838C187.662,88.078 182.392,98.415 100.444,108.861C77.104,111.835 55.74,130.85 58.828,156.107C66.365,217.738 79.444,233.18 66.784,311.522C164.905,311.49 166.842,280.726 259.997,310.822C363.509,344.265 365.736,315.924 465.573,312.341C472.889,238.95 464.234,193.59 459.378,156.216C456.362,133 437.012,112.436 411.553,116.384Z" style="fill:rgb(238,238,238);fill-rule:nonzero;"/>
            <path d="M216.566,158.557L216.566,167.212L207.922,166.019L207.922,157.363C206.541,157.219 200.204,156.556 190.567,156.823L190.588,165.479L182.044,165.879L181.97,157.223L173.532,157.907L173.849,175.205L182.129,174.522C182.394,199.8 182.63,206.27 182.763,217.884C186.807,217.568 200.749,216.416 216.566,219.101L216.566,175.857L225.221,177.569L225.221,160.269L216.566,158.557Z" style="fill:rgb(218,28,11);fill-rule:nonzero;"/>
            <path d="M225.344,203.541L225.344,212.196L216.688,210.478L216.688,201.822L208.044,200.62L208.044,209.276C206.681,209.132 200.087,208.436 190.914,208.753L190.851,200.075L182.595,200.486L182.756,209.198L174.858,209.929L174.598,201.182L166.809,202.116C166.873,203.516 167.208,210.754 167.428,219.614L167.428,219.603L167.428,219.614L175.048,218.625C175.116,222.396 175.446,240.668 175.046,265.769L167.316,271.301L167.07,279.905C197.286,275.854 214.897,278.414 233.988,283.52L233.988,274.864L225.344,268.107L225.344,220.841L233.988,222.976L233.988,205.676L225.344,203.541Z" style="fill:rgb(218,28,11);fill-rule:nonzero;"/>
            <path d="M190.675,191.419C200.206,191.156 206.549,191.819 207.922,191.963L207.922,209.263C206.559,209.12 199.992,208.434 190.797,208.757L190.675,191.419Z" style="fill-rule:nonzero;"/>
            <path d="M207.922,191.963C207.922,196.6 204.004,200.159 199.278,200.025C194.407,199.888 190.703,195.961 190.685,191.418C190.667,186.584 194.754,182.609 199.278,182.736C203.919,182.857 207.922,187.252 207.922,191.963ZM207.922,246.441C207.922,246.205 208.681,233.625 199.278,233.359C190.359,233.107 190.904,244.842 190.903,245.941L190.87,260.644C200.052,260.34 206.575,261.022 207.933,261.164L207.933,246.442L207.922,246.441Z" style="fill-rule:nonzero;"/>
            <path d="M332.765,186.058L332.773,194.714L324.127,194.586L324.127,185.93C322.734,185.857 315.952,185.499 306.827,183.788L306.827,192.443L298.183,190.595L298.183,181.939L289.528,179.698L289.528,196.998L298.183,199.239L298.183,242.484C316.411,246.826 329.562,246.648 332.823,246.599C332.809,232.186 332.795,217.772 332.781,203.358L341.603,203.062L341.512,185.763L332.765,186.058Z" style="fill:rgb(218,28,11);fill-rule:nonzero;"/>
            <path d="M341.697,228.995L341.753,237.65L332.811,237.955L332.796,229.299L324.127,229.175L324.127,237.83C322.734,237.757 315.952,237.399 306.827,235.688L306.827,227.032L298.183,225.184L298.183,233.839L289.528,231.598L289.528,222.942L280.884,220.409L280.884,237.709L280.884,237.698L280.884,237.709L289.528,240.242L289.528,287.509L280.884,289.598L280.884,298.253C310.555,307.344 326.118,308.244 350.905,306.231L350.985,297.576L341.835,293.565C341.848,289.783 341.914,271.117 341.799,246.294L350.954,245.681L350.778,228.382L341.697,228.995Z" style="fill:rgb(218,28,11);fill-rule:nonzero;"/>
            <path d="M306.827,218.388C315.952,220.099 322.734,220.457 324.127,220.53L324.127,237.83C322.734,237.757 315.952,237.399 306.827,235.688L306.827,218.388Z" style="fill-rule:nonzero;"/>
            <path d="M324.127,220.53C324.127,225.216 320.148,228.982 315.482,228.396C310.828,227.81 306.838,223.086 306.838,218.39C306.838,213.758 310.762,210.513 315.482,211.107C320.157,211.683 324.127,215.867 324.127,220.53ZM324.127,275.008C324.127,271.095 323.773,262.77 315.482,261.729C306.984,260.661 306.838,269.45 306.838,272.867L306.838,287.59C315.963,289.3 322.745,289.657 324.138,289.731L324.138,275.009L324.127,275.008Z" style="fill-rule:nonzero;"/>
            <path d="M278.218,150.083L278.218,161.194L267.107,157.612L267.107,146.501C265.333,145.917 250.145,140.922 244.887,139.315L244.887,150.426L233.776,147.23L233.776,136.119L222.666,133.46L222.666,155.682L233.776,158.341L233.776,213.897C244.673,216.802 276.788,227.413 278.218,227.861L278.218,172.305L289.328,175.609L289.328,153.386L278.218,150.083Z" style="fill:rgb(218,28,11);fill-rule:nonzero;"/>
            <path d="M289.328,208.942L289.328,220.053L278.218,216.749L278.218,205.638L267.107,202.056L267.107,213.167C265.333,212.584 250.145,207.589 244.887,205.982L244.887,194.87L233.776,191.675L233.776,202.786L222.666,200.126L222.666,189.015L211.555,187.096L211.555,287.096C238.624,290.706 274.937,305.996 300.438,311.763L300.438,211.763L289.328,208.942Z" style="fill:rgb(218,28,11);fill-rule:nonzero;"/>
            <path d="M244.887,183.759C250.145,185.367 265.333,190.361 267.107,190.945L267.107,213.167C265.333,212.584 250.145,207.589 244.887,205.982L244.887,183.759Z" style="fill-rule:nonzero;"/>
            <path d="M255.997,176.177C262.011,178.14 267.107,184.964 267.107,190.945C267.107,196.841 262.121,200.398 255.997,198.399C249.976,196.434 244.887,189.733 244.887,183.759C244.887,177.845 249.893,174.184 255.997,176.177Z"/>
            <path d="M272.04,262.535C272.04,253.857 264.642,244.032 255.997,241.21C247.139,238.318 239.954,243.728 239.954,252.265L239.954,276.343C247.231,278.458 247.032,278.508 272.051,286.616L272.051,262.538L272.04,262.535Z" style="fill-rule:nonzero;"/>
            <path d="M257.797,313.977L257.797,315.455C261.793,320.763 265.789,326.07 269.785,331.378L257.797,339.41L257.797,391.821L253.931,390.56L253.931,384.705L240.698,380.593L240.698,372.738L244.565,373.894L244.565,377.905L253.931,380.86L253.931,369.205L244.565,366.25L244.565,370.194L240.698,369.038L240.698,361.238L253.931,365.349L253.931,338.127C247.137,329.157 242.899,323.675 241.931,322.424L253.931,314.238L253.931,312.716L257.797,313.977Z" style="fill:rgb(255,241,0);fill-rule:nonzero;"/>
            <path d="M247.553,324.106L255.864,318.455L264.174,329.512L255.853,335.085L247.553,324.106Z" style="fill:rgb(218,28,11);fill-rule:nonzero;"/>
            <path d="M257.63,291.378L254.364,290.312C252.093,289.575 249.475,291.749 249.475,296.177L249.475,311.043C249.475,315.032 251.951,319.262 254.364,320.045L257.63,321.111C259.897,321.854 262.519,319.718 262.519,315.288L262.519,300.421C262.519,296.434 260.045,292.17 257.63,291.378ZM258.852,314.324C258.852,315.755 258.089,318.26 256.108,317.613C254.959,317.238 253.353,314.999 253.353,312.529L253.353,297.54C253.353,296.1 254.131,293.623 256.108,294.268C257.258,294.644 258.852,296.869 258.852,299.335L258.852,314.324Z" style="fill:rgb(255,241,0);fill-rule:nonzero;"/>
            <path d="M270.729,283.964C269.956,283.279 268.292,282.218 267.196,282.841L255.997,289.254L244.798,275.599C243.999,274.638 242.463,274.197 241.265,274.504C240.177,274.778 239.71,275.783 240.465,276.692C241.57,278.009 246.316,283.665 254.153,293.254C254.604,293.804 255.333,294.134 255.997,294.31C256.475,294.495 257.308,294.748 257.841,294.458L271.529,286.647C272.669,285.993 271.256,284.416 270.729,283.964Z" style="fill:rgb(255,241,0);fill-rule:nonzero;"/>
        </g>
    </g>
</svg>
