<?xml version="1.0" encoding="UTF-8" standalone="no"?>
<!DOCTYPE svg PUBLIC "-//W3C//DTD SVG 1.1//EN" "http://www.w3.org/Graphics/SVG/1.1/DTD/svg11.dtd">
<svg width="100%" height="100%" viewBox="0 0 512 512" version="1.1" xmlns="http://www.w3.org/2000/svg" xmlns:xlink="http://www.w3.org/1999/xlink" xml:space="preserve" xmlns:serif="http://www.serif.com/" style="fill-rule:evenodd;clip-rule:evenodd;stroke-linejoin:round;stroke-miterlimit:2;">
    <g>
        <g>
            <path d="M59.699,355.921C56.353,379.924 75.267,400.977 100.472,397.677C182.335,386.958 187.634,376.33 259.985,399.708C297.334,411.775 314.968,422.501 412.318,408.636C435.684,405.308 458.974,381.556 461.247,357.894C467.616,291.579 468.579,281.512 468.374,256.129C427.062,257.459 360.009,272.689 323.993,270.779C283.777,268.645 235.131,241.016 196.013,241.598C149.03,242.297 126.759,257.643 72.09,257.094C71.884,290.423 64.016,324.953 59.699,355.921Z" style="fill:rgb(208,12,51);fill-rule:nonzero;"/>
            <path d="M411.553,116.384C327.618,129.405 325.974,131.604 259.985,110.838C187.662,88.078 182.392,98.415 100.444,108.861C77.104,111.835 55.74,130.85 58.828,156.107C63.944,197.942 72.315,220.563 72.09,257.094C148.135,257.857 169.306,227.237 243.998,250.155C292.768,265.12 305.729,274.327 357.49,269.421C385.992,266.72 436.505,257.155 468.374,256.129C467.996,209.569 461.861,175.326 459.378,156.216C456.362,133 437.012,112.436 411.553,116.384Z" style="fill:rgb(238,238,238);fill-rule:nonzero;"/>
            <path d="M206,153.144C246.574,156.74 294.883,213.511 294.883,265.981C294.883,285.642 288.306,301.966 278.476,312.717C257.88,335.241 223.919,332.51 206,330.922C181.737,328.774 127.677,325.336 127.967,251.511C128.264,175.425 176.333,150.518 206,153.144Z" style="fill:rgb(238,238,238);"/>
            <path d="M206,153.144C176.43,150.526 128.265,175.266 127.967,251.511C136.773,249.756 181.162,239.006 207.975,242.224C238.563,245.895 268.212,259.188 294.883,265.981C294.883,213.457 246.576,156.74 206,153.144Z" style="fill:rgb(208,12,51);fill-rule:nonzero;"/>
        </g>
    </g>
</svg>
