<?xml version="1.0" encoding="UTF-8" standalone="no"?>
<!DOCTYPE svg PUBLIC "-//W3C//DTD SVG 1.1//EN" "http://www.w3.org/Graphics/SVG/1.1/DTD/svg11.dtd">
<svg width="100%" height="100%" viewBox="0 0 512 512" version="1.1" xmlns="http://www.w3.org/2000/svg" xmlns:xlink="http://www.w3.org/1999/xlink" xml:space="preserve" xmlns:serif="http://www.serif.com/" style="fill-rule:evenodd;clip-rule:evenodd;stroke-linejoin:round;stroke-miterlimit:2;">
    <g>
        <g>
            <path d="M100.472,397.677C182.335,386.958 187.634,376.33 259.985,399.708C297.334,411.775 314.968,422.501 412.318,408.636C414.209,408.366 423.642,407.023 434.419,399.616C313.779,418.581 303.361,407.935 246.051,389.673C180.429,368.762 144.06,389.901 79.131,394.318C80.679,395.087 88.941,399.187 100.472,397.677Z" style="fill:rgb(13,94,176);fill-rule:nonzero;"/>
            <path d="M155.296,262.455C124.943,267.925 109.214,273.56 71.478,273.33C71.33,275.509 70.63,285.837 68.5,300.472C133.928,300.489 165.784,280.91 212,287.156C244.121,291.497 283.613,310.626 315.993,314.514C354.413,319.127 421.374,302.055 466.719,300.578C466.911,298.361 467.89,287.059 468.241,272.812C427.032,274.135 354.516,290.192 321.943,287.316C283.096,283.885 246.91,264.034 211.555,259.318C188.578,256.255 159.996,261.608 155.296,262.455ZM59.699,355.921L59.352,361.487C159.896,361.416 161.977,329.152 259.995,360.822C344.459,388.112 346.393,375.308 460.346,363.333L461.247,357.894C461.937,350.547 462.627,343.199 463.317,335.852C401.578,339.511 344.202,357.632 291.995,343.004C250.832,331.47 222.955,316.33 180.215,319.957C130.833,324.147 117.43,333.63 63.124,333.682C60.966,346.832 59.947,354.138 59.699,355.921ZM211.555,198.207C246.331,202.845 292.2,225.727 325.886,226.42C366.987,227.265 424.739,213.037 466.345,211.672C467.486,226.039 467.905,237.22 467.989,239.445C426.84,240.779 354.472,256.855 321.943,253.982C283.096,250.552 246.91,230.7 211.555,225.985L211.555,198.207ZM211.555,137.096L211.555,164.874C246.352,169.515 292.13,192.378 325.886,193.087C367.148,193.952 421.304,179.795 462.445,178.473C460.496,164.486 460.485,164.736 459.378,156.216L458.287,150.658C418.803,152.028 354.589,168.027 321.767,165.081C282.985,161.599 246.85,141.803 211.555,137.096Z" style="fill:rgb(238,238,238);fill-rule:nonzero;"/>
            <path d="M211.555,164.874C246.352,169.515 292.13,192.378 325.886,193.087C367.148,193.952 421.304,179.795 462.445,178.473C462.815,181.121 465.381,199.533 466.345,211.672C425.631,213.008 354.352,229.067 321.943,226.205C283.096,222.774 246.91,202.922 211.555,198.207L211.555,164.874ZM68.5,300.472C133.928,300.489 165.784,280.91 212,287.156C244.121,291.497 283.613,310.626 315.993,314.514C354.413,319.127 421.374,302.055 466.719,300.578C466.474,303.402 466.357,303.315 463.317,335.852C401.578,339.511 344.202,357.632 291.995,343.004C250.832,331.47 222.955,316.33 180.215,319.957C130.833,324.147 117.43,333.63 63.124,333.682C67.236,308.631 67.3,308.714 68.5,300.472ZM79.131,394.318C161.268,388.731 172.357,365.927 257.986,393.495C303.413,408.119 317.218,418.04 434.419,399.616C446.707,391.171 457.25,377.162 460.346,363.333C346.444,375.303 344.503,388.126 259.995,360.822C162.022,329.167 159.949,361.416 59.352,361.487C59.334,375.576 67.425,388.508 79.131,394.318ZM68.032,211.709C79.429,211.726 95.392,211.951 125.373,206.466C125.967,211.348 128.948,235.883 127.576,267.902C98.864,273.473 84.469,273.409 71.478,273.33C72.07,264.591 73.366,240.546 68.032,211.709ZM211.555,225.985L211.555,198.207C187.549,195.007 155.563,200.893 154.019,201.155C154.371,206.048 156.095,230.02 155.296,262.455C225.198,249.858 244.546,270.512 297.264,283.24C350.671,296.135 407.947,274.748 468.241,272.812C468.306,270.143 468.636,256.717 467.989,239.445C426.84,240.779 354.472,256.855 321.943,253.982C283.096,250.552 246.91,230.7 211.555,225.985ZM433.117,119.036C431.521,118.348 422.892,114.626 411.553,116.384C327.618,129.405 325.974,131.604 259.985,110.838C187.662,88.078 182.392,98.415 100.444,108.861C98.637,109.091 88.864,110.337 79.005,116.545C58.944,129.18 58.623,147.361 58.568,150.534L58.828,156.107C59.046,157.892 60.099,166.501 62.025,178.367C72.872,178.383 88.818,178.675 121.346,173.127C120.811,168.248 117.523,138.265 117.148,111.924C122.08,111.152 127.005,110.334 131.934,109.547C141.203,108.069 141.055,108.027 150.42,106.654C150.306,132.939 151.834,162.93 152.083,167.819C161.269,166.36 189.839,161.979 211.555,164.874L211.555,137.096C246.287,141.728 292.077,164.551 325.704,165.302C366.684,166.217 417.726,152.065 458.287,150.658C457.513,147.518 452.558,127.423 433.117,119.036Z" style="fill:rgb(13,94,176);fill-rule:nonzero;"/>
            <path d="M152.083,167.819C150.099,128.873 150.444,105.79 150.444,101.371C147.773,101.752 147.829,101.827 117.111,106.503C117.111,134.504 120.764,167.818 121.346,173.127C89.328,178.588 73.756,178.384 62.025,178.367C64.631,194.424 64.79,194.188 68.032,211.709C79.429,211.726 95.392,211.951 125.373,206.466C125.967,211.348 128.948,235.883 127.576,267.902C132.702,266.908 137.812,265.836 142.935,264.829C147.052,264.02 151.167,263.199 155.296,262.455C156.095,230.02 154.371,206.048 154.019,201.155C155.563,200.893 187.549,195.007 211.555,198.207L211.555,164.874C190.486,162.065 162.993,166.086 152.083,167.819Z" style="fill:rgb(238,238,238);fill-rule:nonzero;"/>
        </g>
    </g>
</svg>
