<?xml version="1.0" encoding="UTF-8" standalone="no"?>
<!DOCTYPE svg PUBLIC "-//W3C//DTD SVG 1.1//EN" "http://www.w3.org/Graphics/SVG/1.1/DTD/svg11.dtd">
<svg width="100%" height="100%" viewBox="0 0 512 512" version="1.1" xmlns="http://www.w3.org/2000/svg" xmlns:xlink="http://www.w3.org/1999/xlink" xml:space="preserve" xmlns:serif="http://www.serif.com/" style="fill-rule:evenodd;clip-rule:evenodd;stroke-linejoin:round;stroke-miterlimit:2;">
    <g>
        <g>
            <path d="M411.553,116.384C327.618,129.405 325.974,131.604 259.985,110.838C187.662,88.078 182.392,98.415 100.444,108.861C77.104,111.835 55.74,130.85 58.828,156.107C63.749,196.349 71.735,219.194 72.083,253.166C72.44,288.108 64.155,323.962 59.699,355.921C56.353,379.924 75.267,400.977 100.472,397.677C182.335,386.958 187.634,376.33 259.985,399.708C297.334,411.775 314.968,422.501 412.318,408.636C435.684,405.308 458.974,381.556 461.247,357.894C471.963,246.325 470.85,244.51 459.378,156.216C456.362,133 437.012,112.436 411.553,116.384Z" style="fill:rgb(206,17,38);fill-rule:nonzero;"/>
            <path d="M97.132,148.442C174.846,139.027 183.061,124.928 257.986,149.05C331.119,172.595 332.794,167.252 419.117,154.593C427.14,245.318 428.784,245.382 420.827,368.283C313.66,382.788 312.746,377.284 246.053,356.34C186.383,337.602 157.823,352.183 97.808,359.425C101.008,332.302 109.758,285.897 109.253,252.86C108.579,208.812 102.005,196.108 97.132,148.442Z" style="fill:rgb(0,122,94);fill-rule:nonzero;"/>
            <path d="M97.132,148.442C174.846,139.027 183.061,124.928 257.986,149.05C331.119,172.595 332.794,167.252 419.117,154.593C321.137,235.977 308.413,236.484 251.015,255.609C178.935,279.625 165.434,309.596 97.808,359.425C180.827,349.407 182.497,335.744 261.964,361.471C314.429,378.456 322.697,381.565 420.827,368.283C330.909,321.923 328.198,324.766 257.658,255.586C192.308,191.496 177.2,189.639 97.132,148.442Z" style="fill:rgb(252,209,22);fill-rule:nonzero;"/>
            <path d="M255.997,215.066C275.884,221.557 294.883,243.785 294.883,265.981C294.883,286.271 278.9,300.32 255.997,292.843C236.495,286.477 217.111,265.95 217.111,243.506C217.111,223.17 233.212,207.628 255.997,215.066Z" style="fill:rgb(206,17,38);"/>
            <path d="M255.997,218.377C258.66,227.449 261.323,236.521 263.985,245.594C266.042,246.272 280.911,251.18 289.828,253.647C288.174,254.391 281.599,257.348 268.918,262.406C271.581,271.457 274.244,280.508 276.907,289.559C275.225,287.807 275.369,287.939 255.997,267.543C243.46,272.558 236.74,275.61 235.088,276.361C237.75,268.933 240.413,261.505 243.076,254.077C231.424,242.111 223.883,235.08 222.166,233.478C224.262,233.91 233.097,235.731 248.009,240.404C250.672,233.061 253.334,225.719 255.997,218.377ZM255.997,111.532L260.286,126.14L274.162,130.686L262.941,135.171L267.23,149.785L255.997,137.932L244.765,142.522L249.053,130.654L237.832,119.123L251.709,123.344L255.997,111.532ZM345.103,127.959L349.327,140.832L363.24,139.351L352.002,148.754L356.454,161.531L345.051,154.365L333.851,163.027L338.115,149.696L326.938,141.675C332.757,141.83 339.654,141.475 340.758,141.419L345.103,127.959ZM166.887,100.973L171.075,113.723L184.972,112.667L173.703,121.63L178.008,134.476L166.833,127.385L155.917,136.962L159.92,123.176L148.726,116.581L162.522,114.68L166.887,100.973ZM255.997,361.532L260.286,376.14L274.162,380.686L262.941,385.171L267.23,399.785L255.997,387.932L244.765,392.522L249.053,380.654L237.832,369.123L251.709,373.344L255.997,361.532ZM345.325,378.232L349.668,391.2L363.945,390.241L352.326,399.206L356.537,412.203L345.229,404.595L333.891,413.044L338.227,399.772L326.938,391.675L340.921,391.557L345.325,378.232ZM167.045,350.957L171.115,363.713L184.955,362.662L173.721,371.62L178.07,384.463L166.808,377.37L155.623,386.935L159.918,373.159L148.985,366.562L162.63,364.666L167.045,350.957Z" style="fill:rgb(252,209,22);fill-rule:nonzero;"/>
            <path d="M133.444,262.044C137.876,266.782 141.226,267.801 142.027,268.044C142.077,267.06 142.31,262.418 140.871,255.775C136.901,252.072 133.706,251.264 132.995,251.085C132.895,251.956 132.399,256.263 133.444,262.044Z" style="fill:rgb(206,17,38);fill-rule:nonzero;"/>
            <path d="M147.31,264.649C155.503,232.098 128.058,237.612 121.175,229.33C126.46,239.876 110.142,271.709 137.245,272.558C136.757,271.809 134.62,268.525 133.453,262.043C132.408,256.261 132.904,251.954 133.004,251.083C133.716,251.261 136.902,252.061 140.88,255.774C141.521,256.372 145.262,259.86 147.31,264.649Z" style="fill:rgb(252,209,22);fill-rule:nonzero;"/>
        </g>
    </g>
</svg>
