<?xml version="1.0" encoding="UTF-8" standalone="no"?>
<!DOCTYPE svg PUBLIC "-//W3C//DTD SVG 1.1//EN" "http://www.w3.org/Graphics/SVG/1.1/DTD/svg11.dtd">
<svg width="100%" height="100%" viewBox="0 0 512 512" version="1.1" xmlns="http://www.w3.org/2000/svg" xmlns:xlink="http://www.w3.org/1999/xlink" xml:space="preserve" xmlns:serif="http://www.serif.com/" style="fill-rule:evenodd;clip-rule:evenodd;stroke-linejoin:round;stroke-miterlimit:2;">
    <g>
        <g>
            <path d="M461.247,357.894C458.974,381.556 435.684,405.308 412.318,408.636C308.939,423.36 296.194,410.772 244.032,394.61C189.598,377.745 160.51,389.816 100.472,397.677C75.267,400.977 56.353,379.924 59.699,355.921C64.124,324.182 72.441,288.14 72.083,253.166C71.737,219.335 63.762,196.456 58.828,156.107C55.74,130.85 77.104,111.835 100.444,108.861C182.392,98.415 187.662,88.078 259.985,110.838C325.827,131.557 327.444,129.432 411.553,116.384C437.012,112.436 456.362,133 459.378,156.216C470.836,244.4 471.98,246.152 461.247,357.894Z" style="fill:rgb(0,36,136);fill-rule:nonzero;"/>
            <path d="M59.699,355.921C56.353,379.924 75.267,400.977 100.472,397.677C182.335,386.958 187.634,376.33 259.985,399.708C297.334,411.775 314.968,422.501 412.318,408.636C435.684,405.308 458.974,381.556 461.247,357.894C467.226,295.644 470.865,268.595 466.345,211.672C378.211,214.563 359.233,242.83 267.996,213.459C237.569,203.664 216.805,195.052 180.569,197.768C139.516,200.845 121.528,211.787 68.032,211.709C78.34,267.439 66.11,309.936 59.699,355.921Z" style="fill:rgb(20,20,20);fill-rule:nonzero;"/>
            <path d="M379.557,384.405C291.227,348.68 297.698,337.249 239.798,301.453C235.755,298.954 191.478,271.582 180.544,297.038C181.058,295.567 185.277,283.509 190.2,280.117C183.936,281.999 173.428,288.487 173.435,296.969C170.259,287.526 182.192,273.324 197.678,273.303C181.245,270.774 160.475,277.264 155.907,291.754C156.837,277.695 177.08,269.362 189.83,269.477C164.329,261.985 147.009,267.895 145.252,278.173C143.938,273.667 147.823,269.477 148.354,268.903C147.198,269.01 139.787,269.697 135.253,275.152C135.276,271.33 149.479,264.126 156.633,263.793C154.765,263.246 136.584,257.928 132.725,268.316C132.286,261.283 154.08,254.136 165.233,255.307C144.238,249.615 132.519,246.752 122.864,260.006C123.043,252.641 130.743,247.751 136.377,247.276C136.268,247.163 129.455,238.896 122.801,239.857C125.647,237.923 131.17,239.271 131.876,239.443C131.019,238.555 124.784,232.092 119.583,230.124C127.363,230.189 142.444,244.212 145.529,247.893C146.639,249.217 152.736,249.721 153.38,249.774C151.286,248.129 131.269,232.404 130.141,225.943C135.796,228.086 148.119,238.743 157.452,249.253C158.327,249.682 161.944,251.284 162.142,249.127C162.318,247.211 135.419,230.239 134.963,218.743C141.004,226.796 147.721,234.155 148.893,235.44C148.081,234.353 143.145,227.748 143.255,219.449C144.618,221.837 156.018,241.803 164.921,246.144C163.41,244.65 149.808,231.207 152.038,222.912C158.591,234.999 169.922,248.634 171.71,249.315C172.603,249.656 175.457,249.334 174.556,249.653C173.639,248.665 166.741,241.233 165.497,235.442C169.971,238.393 175.327,248.851 175.985,249.028C176.882,249.268 179.42,247.735 178.672,248.285C177.438,246.98 166.921,235.848 166.825,229.213C171.391,232.64 178.91,244.412 181.17,248.754C182.162,250.662 187.153,253.932 187.738,252.459C188.054,251.664 171.18,233.918 175.561,230.837C182.586,236.533 189.298,248.578 189.699,248.663C191.06,248.95 194.46,250.253 193.86,248.997C184.759,229.949 182.526,230.052 184.503,223.757C185.153,232.4 193.14,248.683 210.422,254.972C231.087,262.494 278.128,313.544 308.327,327.917C329.526,338.005 356.631,342.761 403.679,346.479L401.552,349.591C397.055,349.049 363.152,344.961 345.529,341.38C323.536,336.911 311.56,331.813 311.56,331.933C311.56,333.344 315.08,336.334 314.105,335.315C345.585,347.867 400.539,352.295 400.159,353.306L397.993,357.587C365.417,352.069 334.422,346.196 310.86,335.089L308.316,334.66C343.509,352.774 394.978,359.433 394.928,360.778C394.874,362.235 392.347,366.004 393.063,364.734C349.597,354.434 326.492,346.963 303.916,333.804L306.694,337.596C342.794,358.142 391.943,366.339 391.48,367.943C391.074,369.35 387.942,372.607 388.911,371.508C351.512,361.297 328.282,353.197 308.083,341.318L303.449,339.262C324.361,352.665 345.294,361.24 387.376,373.784L384.603,377.123C346.617,365.216 325.814,356.637 306.694,344.551L304.149,344.051C323.666,357.712 342.842,367.013 382.78,381.748L379.557,384.405Z" style="fill:rgb(0,128,0);fill-rule:nonzero;"/>
            <path d="M337.754,341.392C335.282,333.149 317.72,330.613 315.771,330.331L315.816,330.293C328.351,319.299 338.981,322.888 340.953,323.553C336.775,316.356 319.812,317.575 317.916,317.711C319.134,316.119 327.431,305.273 340.506,306.871C334.506,300.143 317.527,305.179 315.616,305.746L315.982,305.035C321.186,292.058 330.927,289.274 335.907,288.912C334.91,288.203 326.98,284.333 312.716,291.93C313.107,290.061 315.839,277.024 328.504,274.039C327.264,273.409 317.937,270.637 305.96,281.045L305.983,280.516C305.887,278.562 305.148,263.448 317.249,258.816C316.334,258.489 306.509,256.267 297.461,269.077L297.45,269.019C296.965,267.105 292.966,251.305 303.505,245.096C293.276,242.696 287.772,256.93 287.162,258.507C286.345,256.64 279.475,240.929 287.984,233.053C278.02,232.117 275.882,248.16 275.662,249.809C274.508,247.979 265.025,232.95 271.229,223.127C261.877,223.985 263.25,241.446 263.385,243.162C261.891,241.427 250.175,227.822 253.808,216.187C245.445,219.229 250.316,237.2 250.798,238.975C249.001,237.458 235.593,226.136 236.465,213.318C229.443,218.723 237.666,236.12 238.51,237.905C236.464,236.763 221.597,228.468 219.766,215.401C214.567,222.809 225.407,238.024 226.577,239.666C224.471,239.025 209.261,234.395 205.067,222.498C201.765,231.265 215.279,243.853 216.777,245.248L216.522,245.227C201.455,245.05 194.777,238.97 192.214,234.782C191.108,243.67 205.412,252.056 207.033,253.007C205.556,253.342 191.214,256.998 183.613,248.749C184.06,257.954 200.512,262.787 202.333,263.322L201.6,263.672C199.9,264.684 186.527,272.651 177.033,266.492C179.245,275.1 195.767,275.643 197.567,275.702L197.511,275.746C196.081,277.161 185.058,288.071 173.873,284.329C177.666,291.845 193.689,288.883 195.417,288.564C194.281,290.186 185.961,302.066 173.977,300.936C179.477,307.714 195.953,300.978 197.711,300.259L197.344,301.011C196.593,302.972 191.217,317.007 177.912,318.668C184.94,323.767 199.035,314.77 200.6,313.771C200.201,315.73 197.412,329.424 184.828,333.157C186.186,333.772 195.161,335.716 207.367,323.973L207.344,324.504C207.448,326.541 208.207,341.502 196.085,347.373C196.939,347.578 206.821,348.739 215.877,335.219L215.888,335.277C216.393,337.224 220.373,352.585 209.844,359.69C220.096,361.19 225.558,346.736 226.177,345.096C227.013,346.958 233.869,362.219 225.355,370.599C235.33,370.934 237.452,354.944 237.676,353.257C238.845,355.064 248.358,369.774 242.109,379.788C251.455,378.673 250.099,361.326 249.964,359.598C251.466,361.322 263.216,374.807 259.541,386.528C267.895,383.534 263.031,365.549 262.552,363.776C264.357,365.321 277.723,376.76 276.884,389.775C283.906,384.637 275.684,366.933 274.851,365.14C276.918,366.364 291.632,375.083 293.594,388.593C298.822,381.513 287.961,365.617 286.806,363.927C288.955,364.703 303.93,370.109 308.305,382.724C311.663,374.144 298.087,360.469 296.594,358.965L296.828,359.012C299.032,359.204 314.475,360.548 321.327,371.859C322.509,363.046 307.961,353.134 306.316,352.013C308.31,351.748 322.26,349.893 330.573,358.655C330.065,349.716 312.929,342.905 311.027,342.149L311.749,341.884C326.84,334.511 335.994,340.282 337.754,341.392ZM129.462,176.423C129.18,172.486 126.737,158.795 117.535,152.795C107.014,145.927 100.826,155.623 101.979,161.247C103.044,166.381 108.55,172.934 116.535,174.17C110.307,164.44 117.717,163.749 119.544,164.48C124.765,166.563 125.756,175.939 125.874,177.059L129.462,176.423ZM130.446,118.382C119.475,126.022 120.419,143.563 124.913,152.506C129.048,160.745 131.083,174.148 131.377,176.081L136.44,175.175C136.382,173.159 135.994,159.793 139.036,150.101C142.183,140.058 141.438,122.306 130.446,118.382ZM138.345,174.836C137.881,170.525 138.13,156.66 146.283,147.974C155.734,137.895 163.019,145.899 162.69,151.621C162.392,156.764 158.133,164.531 150.497,168.308C155.067,156.547 147.324,158.897 145.99,159.94C141.155,163.712 141.837,173.02 141.924,174.204L138.345,174.836ZM134.095,177.704L125.335,180.095L134.244,179.325L142.996,176.94L134.095,177.704ZM146.452,187.692C140.782,185.34 138.501,179.85 138.82,180.619L130.044,182.206C129.729,183.813 127.683,188.641 124.001,191.77C128.83,191.786 132.856,188.609 133.495,188.105C133.204,189.276 131.555,195.912 136.532,202.885C136.978,201.742 139.886,194.279 136.574,187.54C137.318,187.807 141.745,189.394 146.452,187.692ZM251.131,179.237C251.253,175.075 249.802,160.777 240.954,150.868C230.38,139.019 223.603,147.247 224.055,152.511C224.485,157.514 228.946,165.701 237.576,170.729C232.614,159.585 240.227,161.548 241.876,162.952C247.198,167.475 247.198,176.718 247.198,177.995L251.131,179.237ZM255.997,123.632C245.03,125.757 244.637,143.243 248.587,154.119C252.285,164.313 253.094,177.815 253.22,179.908L258.775,181.72C258.889,179.864 259.697,166.745 263.408,158.936C267.308,150.712 266.952,132.896 255.997,123.632ZM260.863,182.408C260.728,177.695 262.348,164.873 271.04,160.521C281.226,155.413 288.417,166.288 287.939,171.751C287.495,176.692 282.842,182.613 274.407,182.442C279.548,174.014 272.39,171.507 270.107,172.028C264.785,173.235 264.785,182.676 264.785,183.702L260.863,182.408ZM255.997,182.888L246.253,180.591L255.997,184.51L265.741,186.906L255.997,182.888ZM268.674,199.104C262.601,193.816 260.559,187.175 260.875,188.201L251.131,185.026C250.701,186.146 248.095,189.78 243.331,190.932C247.154,192.7 252.39,192.786 254.264,192.457C253.517,194.034 252.013,200.708 255.997,208.121C259.64,203.721 258.787,196.508 257.73,193.588C258.485,194.214 263.31,198.209 268.674,199.104ZM379.772,193.426C379.721,189.068 377.505,175.798 368.114,169.662C357.096,162.471 350.282,172.382 350.82,177.609C351.339,182.651 356.232,189.498 365.178,190.949C359.494,181.542 367.057,180.417 369.452,181.353C375.179,183.582 375.532,192.892 375.575,194.016L379.772,193.426ZM382.632,135.434C371.513,143.02 371.654,160.585 376.077,169.489C380.354,178.134 381.814,191.164 382.031,193.1L388.018,192.213C388.041,190.187 388.194,176.753 391.518,167.131C394.921,157.326 393.905,139.419 382.632,135.434ZM390.273,191.872C389.914,187.812 390.611,173.829 399.448,164.933C409.919,154.38 417.611,163.039 417.633,168.216C417.653,173.29 413.554,181.236 404.564,185.223C409.33,174.238 401.517,175.342 399.292,176.915C393.847,180.754 394.424,190.021 394.499,191.226L390.273,191.872ZM385.125,194.737L374.656,197.044L385.204,196.358L395.726,193.952L385.125,194.737ZM399.599,204.68C391.2,201.902 388.98,194.087 390.594,197.656L380.028,199.209C379.595,200.59 376.883,205.476 371.853,208.685C377.73,208.793 382.856,205.651 383.7,205.134C382.938,207.123 381.457,214.396 386.145,219.918C391.174,211.873 387.573,204.732 387.492,204.579C388.42,204.859 393.7,206.453 399.599,204.68Z" style="fill:rgb(252,221,9);fill-rule:nonzero;"/>
        </g>
    </g>
</svg>
