<?xml version="1.0" encoding="UTF-8" standalone="no"?>
<!DOCTYPE svg PUBLIC "-//W3C//DTD SVG 1.1//EN" "http://www.w3.org/Graphics/SVG/1.1/DTD/svg11.dtd">
<svg width="100%" height="100%" viewBox="0 0 512 512" version="1.1" xmlns="http://www.w3.org/2000/svg" xmlns:xlink="http://www.w3.org/1999/xlink" xml:space="preserve" xmlns:serif="http://www.serif.com/" style="fill-rule:evenodd;clip-rule:evenodd;stroke-linejoin:round;stroke-miterlimit:2;">
    <g transform="matrix(1.11593,-4.03717e-17,4.03717e-17,1.11593,-13.9687,-19.1113)">
        <g transform="matrix(11.1111,-2.35563e-31,0,11.1111,-2368.64,-2415.24)">
            <g>
                <g transform="matrix(0.896117,3.24196e-17,-3.24196e-17,0.896117,218.821,223.429)">
                    <path d="M36.472,27.17C36.268,29.3 34.172,31.438 32.069,31.737C22.764,33.062 21.617,31.929 16.923,30.475C12.024,28.957 9.406,30.043 4.002,30.751C1.734,31.048 0.032,29.153 0.333,26.993C0.76,23.929 1.552,20.621 1.436,17.229C1.343,14.486 0.678,12.475 0.255,9.01C-0.023,6.737 1.899,5.025 4,4.757C11.375,3.817 11.85,2.887 18.359,4.935C24.284,6.8 24.43,6.609 32,5.435C34.291,5.079 36.033,6.93 36.304,9.019C37.336,16.96 37.438,17.112 36.472,27.17Z" style="fill:rgb(221,46,68);fill-rule:nonzero;"/>
                </g>
                <g transform="matrix(0.896117,3.24196e-17,-3.24196e-17,0.896117,218.821,223.429)">
                    <path d="M35.462,27.276C35.318,28.901 33.777,30.474 32.147,30.705C22.766,32.037 21.978,31.041 16.923,29.475C12.011,27.953 9.375,29.048 4.037,29.75C2.375,29.969 1.116,28.641 1.362,26.989C1.812,23.972 2.651,20.659 2.529,17.23C2.43,14.458 1.732,12.459 1.279,9.006C1.056,7.307 2.442,5.959 4.02,5.752C11.352,4.789 11.837,3.827 18.359,5.934C24.279,7.847 24.415,7.651 32.015,6.447C33.763,6.17 35.105,7.527 35.296,9.076C36.272,16.997 36.357,17.156 35.462,27.276Z" style="fill:rgb(0,41,123);fill-rule:nonzero;"/>
                </g>
                <g transform="matrix(0.896117,3.24196e-17,-3.24196e-17,0.896117,218.821,223.429)">
                    <path d="M17.519,26.286C18.893,25.582 23.147,23.801 23.147,19.424C23.147,16.452 21.074,13.504 17.519,9.417C16.757,9.806 11.933,11.966 11.928,16.915C11.925,20.088 14.049,22.298 17.519,26.286Z" style="fill:rgb(221,46,68);fill-rule:nonzero;"/>
                </g>
                <g transform="matrix(0.896117,3.24196e-17,-3.24196e-17,0.896117,218.821,223.429)">
                    <path d="M12.727,18.33C13.279,20.633 15.42,23.029 17.519,25.489C18.751,24.83 21.603,23.517 22.31,20.712C19.382,20.109 15.822,18.362 12.727,18.33Z" style="fill:rgb(1,123,221);fill-rule:nonzero;"/>
                </g>
                <g transform="matrix(0.896117,3.24196e-17,-3.24196e-17,0.896117,218.821,223.429)">
                    <path d="M22.309,20.712C22.337,20.602 22.481,20.039 22.481,19.311C22.481,16.398 20.3,13.474 17.519,10.214C16.848,10.572 12.56,12.576 12.56,16.895C12.56,17.633 12.7,18.218 12.727,18.33C15.821,18.362 19.361,20.104 22.309,20.712Z" style="fill:rgb(102,175,235);fill-rule:nonzero;"/>
                </g>
                <g transform="matrix(0.896117,3.24196e-17,-3.24196e-17,0.896117,218.821,223.429)">
                    <path d="M22.462,19.78C22.425,20.266 22.329,20.639 22.31,20.712C20.611,20.362 17.852,19.368 16.553,18.991L16.809,18.356C17.236,18.542 20.452,19.949 22.462,19.78Z" style="fill:rgb(156,132,49);fill-rule:nonzero;"/>
                </g>
                <g transform="matrix(0.896117,3.24196e-17,-3.24196e-17,0.896117,218.821,223.429)">
                    <path d="M14.938,22.382C14.208,21.439 13.829,20.817 13.742,20.675C15.113,20.889 16.56,21.623 17.121,22.284C17.226,22.407 17.25,22.539 17.079,22.463C16.655,22.274 15.528,22.192 14.938,22.382Z" style="fill:rgb(255,241,0);fill-rule:nonzero;"/>
                </g>
                <g transform="matrix(0.896117,3.24196e-17,-3.24196e-17,0.896117,218.821,223.429)">
                    <path d="M21.788,22.02C20.744,23.876 18.577,24.923 17.519,25.489C17.398,25.347 16.329,24.093 16.01,23.71C16.634,22.889 18.6,23.988 18.6,23.131C18.6,22.657 18.123,22.027 17.434,21.76C17.271,21.697 17.182,21.647 17.334,21.581C18.037,21.271 19.067,22.136 20.248,21.961C20.37,21.943 21.392,21.793 21.788,22.02Z" style="fill:rgb(255,241,0);fill-rule:nonzero;"/>
                </g>
                <g transform="matrix(0.896117,3.24196e-17,-3.24196e-17,0.896117,218.821,223.429)">
                    <path d="M18.542,14.444L18.496,14.33C18.544,14.389 18.761,14.509 18.791,14.523L18.695,14.385C18.785,14.452 18.878,14.572 18.99,14.552L18.812,14.323L19.11,14.547L19.061,14.375L19.301,14.573L19.26,14.389L19.514,14.635L19.465,14.449L19.729,14.712L19.657,14.519L19.907,14.746L19.835,14.582L20.126,14.874L20.064,14.676L20.441,14.984C20.197,14.423 19.025,13.853 18.378,13.845C18.562,13.815 18.539,13.745 18.735,13.762L18.55,13.601L18.898,13.678L18.742,13.494C18.808,13.521 19.038,13.582 19.119,13.581L18.961,13.463L19.238,13.561L19.068,13.342C19.167,13.399 19.356,13.457 19.466,13.479L19.28,13.316L19.643,13.359L19.457,13.218C19.542,13.24 19.702,13.21 19.769,13.171C19.628,13.128 18.54,12.798 17.976,13.546C17.978,13.501 17.952,13.516 17.917,12.988L17.818,13.081C17.847,12.991 17.848,12.722 17.831,12.63L17.742,12.775C17.75,12.666 17.719,12.386 17.693,12.284L17.592,12.426C17.616,12.267 17.506,11.88 17.493,11.834C17.494,11.89 17.444,12.013 17.424,12.049C17.422,11.978 17.319,11.528 17.291,11.467L17.275,11.732L17.104,11.338L17.105,11.504C17.048,11.405 16.887,11.188 16.805,11.104L16.959,11.469L16.867,11.405L17.068,11.786L16.924,11.724L17.194,12.098L17.037,12.054C17.103,12.109 17.251,12.292 17.295,12.366L17.142,12.276L17.375,12.62C17.337,12.585 17.198,12.499 17.144,12.488L17.42,12.877L17.238,12.819L17.513,13.209L17.32,13.103L17.549,13.497L17.393,13.42C17.018,12.682 16.33,12.103 15.887,11.954C15.973,12.015 16.183,12.215 16.242,12.294L16.078,12.234L16.384,12.51L16.242,12.49L16.587,12.78L16.431,12.742C16.527,12.807 16.694,12.974 16.751,13.076L16.605,13.018L16.882,13.304L16.733,13.249L17.017,13.523L16.861,13.464L17.182,13.84C16.047,12.939 14.757,12.933 14.081,13.773L14.564,13.613L14.507,13.773L14.827,13.602L14.756,13.773L15.154,13.574L15.09,13.73L15.489,13.554L15.389,13.716L15.851,13.571L15.78,13.722C15.892,13.689 16.06,13.685 16.172,13.722L16.072,13.828C16.216,13.817 16.37,13.851 16.502,13.906C15.752,13.938 15.037,14.597 15.056,15.091C15.118,14.994 15.248,14.866 15.344,14.8L15.341,14.995C15.378,14.887 15.46,14.763 15.518,14.674L15.543,14.876C15.579,14.774 15.714,14.582 15.763,14.516C15.743,14.579 15.771,14.72 15.781,14.765C15.837,14.664 15.947,14.524 16.034,14.45L16.02,14.668C16.078,14.579 16.222,14.44 16.304,14.376L16.275,14.62C16.348,14.525 16.545,14.381 16.645,14.323L16.592,14.54C16.667,14.48 16.902,14.398 17.001,14.4C16.912,14.435 16.651,14.732 16.624,14.764L16.762,14.778C16.69,14.805 16.537,14.943 16.495,15.007L16.656,14.987C16.588,15.037 16.456,15.205 16.421,15.278L16.588,15.267C16.496,15.324 16.361,15.594 16.339,15.643L16.521,15.573C16.465,15.629 16.323,15.887 16.308,15.967L16.472,15.836L16.397,16.155L16.489,16.066C16.482,16.159 16.499,16.38 16.521,16.472L16.596,16.18L16.638,16.274L16.681,15.942L16.77,16.069L16.749,15.697L16.859,15.822C16.835,15.754 16.81,15.562 16.813,15.49L16.895,15.636L16.888,15.305L17.013,15.524L16.995,15.142L17.119,15.291L17.101,14.908L17.208,15.09L17.233,14.735L17.325,14.879C17.339,14.723 17.439,14.588 17.552,14.485C17.734,14.733 17.648,14.768 17.812,15.024L17.858,14.92L17.9,15.251L17.971,15.148L17.992,15.459L18.063,15.371C18.042,15.45 18.057,15.674 18.063,15.719L18.148,15.632C18.098,15.767 18.195,15.915 18.205,16.058L18.283,15.951L18.318,16.398L18.408,16.28C18.389,16.386 18.447,16.613 18.482,16.707L18.532,16.554C18.564,16.629 18.663,16.866 18.667,16.979C18.726,16.851 18.69,16.628 18.653,16.513L18.738,16.593C18.724,16.533 18.648,16.291 18.599,16.233L18.709,16.332C18.686,16.221 18.607,16.012 18.557,15.908L18.699,15.999C18.662,15.911 18.527,15.675 18.464,15.6L18.621,15.704C18.605,15.671 18.396,15.401 18.29,15.299L18.493,15.359C18.425,15.25 18.262,15.082 18.166,14.999L18.325,15.084C18.294,14.981 18.1,14.738 18.066,14.696C18.124,14.746 18.336,14.921 18.4,15.01C18.417,14.956 18.4,14.827 18.382,14.778C18.435,14.829 18.596,15.027 18.627,15.099L18.638,14.929C18.667,14.959 18.844,15.143 18.948,15.357L18.944,15.119L19.137,15.422L19.133,15.254L19.278,15.578L19.303,15.379L19.492,15.759L19.527,15.585C19.562,15.648 19.646,15.899 19.654,15.977C19.68,15.941 19.704,15.791 19.701,15.755L19.861,16.199L19.892,16.013L20.038,16.439L20.061,16.254C20.088,16.378 20.215,16.604 20.278,16.691C20.371,15.838 19.413,14.864 18.542,14.444Z" style="fill:rgb(2,146,112);fill-rule:nonzero;"/>
                </g>
                <g transform="matrix(0.896117,3.24196e-17,-3.24196e-17,0.896117,218.821,223.429)">
                    <path d="M16.894,20.15C16.816,20.127 16.824,20.147 15.894,19.97C15.893,19.792 15.886,17.756 15.849,17.746C15.811,17.736 15.804,19.773 15.804,19.949L15.523,19.89C15.105,19.789 14.416,19.541 14.15,19.503C14.123,19.802 14.832,20.037 14.903,20.06L14.88,20.201L14.672,20.129C14.637,20.306 15.449,20.502 15.522,20.519C16.355,20.72 16.383,20.603 16.371,20.536L16.163,20.509L16.14,20.359C16.202,20.367 16.922,20.471 16.894,20.15ZM16.041,20.489L15.522,20.38L15.002,20.239L15.021,20.098L15.521,20.235L16.02,20.338L16.041,20.489Z" style="fill:rgb(123,72,0);fill-rule:nonzero;"/>
                </g>
                <g transform="matrix(0.896117,3.24196e-17,-3.24196e-17,0.896117,218.821,223.429)">
                    <path d="M17.661,14.413C17.713,15.938 16.938,20.419 19.707,22.671C20.069,22.95 19.639,23.197 19.326,22.934C16.696,20.587 17.531,16.083 17.49,14.347L17.661,14.413Z" style="fill:rgb(123,72,0);fill-rule:nonzero;"/>
                    <path d="M17.449,14.215C17.556,14.249 17.647,14.362 17.647,14.477C17.647,14.587 17.549,14.643 17.449,14.611C17.341,14.577 17.251,14.466 17.251,14.351C17.251,14.241 17.348,14.183 17.449,14.215Z" style="fill:rgb(123,72,0);"/>
                    <path d="M17.682,14.22C17.789,14.254 17.88,14.367 17.88,14.482C17.88,14.592 17.782,14.648 17.682,14.616C17.574,14.581 17.484,14.469 17.484,14.354C17.484,14.244 17.581,14.188 17.682,14.22Z" style="fill:rgb(123,72,0);"/>
                    <path d="M17.782,14.064C17.889,14.099 17.98,14.212 17.98,14.326C17.98,14.437 17.882,14.492 17.782,14.46C17.674,14.425 17.584,14.313 17.584,14.198C17.584,14.088 17.682,14.032 17.782,14.064Z" style="fill:rgb(123,72,0);"/>
                    <path d="M17.436,13.89C17.543,13.924 17.634,14.037 17.634,14.151C17.634,14.262 17.536,14.318 17.436,14.286C17.328,14.252 17.238,14.14 17.238,14.026C17.238,13.916 17.335,13.858 17.436,13.89Z" style="fill:rgb(123,72,0);"/>
                </g>
                <g transform="matrix(0.896117,3.24196e-17,-3.24196e-17,0.896117,218.821,223.429)">
                    <path d="M14.825,17.63C14.982,18.236 14.826,19.036 14.505,19.582C15.47,19.653 16.351,19.932 16.567,20.075C16.225,19.072 15.473,17.912 14.825,17.63Z" style="fill:white;fill-rule:nonzero;"/>
                </g>
                <g transform="matrix(0.896117,3.24196e-17,-3.24196e-17,0.896117,218.821,223.429)">
                    <path d="M14.845,16.507C14.805,16.386 14.722,16.264 14.588,16.24C14.292,16.187 14.292,16.608 14.292,16.648C14.292,16.696 14.292,17.112 14.592,17.161C14.753,17.189 14.847,17.074 14.856,16.923L14.623,16.878L14.623,16.663L15.055,16.749L15.055,17.448L14.917,17.419L14.897,17.261C14.829,17.367 14.71,17.407 14.589,17.391C14.334,17.362 14.078,17.034 14.078,16.614C14.078,16.552 14.078,15.928 14.589,16.02C14.822,16.062 15.039,16.32 15.039,16.547L14.845,16.507ZM16.456,17.613C16.593,17.652 16.664,17.566 16.664,17.433L16.664,16.527L16.894,16.596L16.894,17.499C16.894,17.544 16.894,17.966 16.455,17.84C16.016,17.714 16.016,17.307 16.016,17.248L16.016,16.345L16.247,16.408L16.247,17.314C16.249,17.453 16.318,17.573 16.456,17.613ZM18.545,17.988L18.399,17.941L18.55,17.433L18.7,18.04L18.545,17.988L18.545,18.217L18.765,18.29L18.839,18.593L19.064,18.667L18.683,17.169L18.417,17.081L18.036,18.329L18.261,18.402L18.336,18.148L18.545,18.217L18.545,17.988ZM20.326,19.069L20.113,17.958L20.113,19.004L19.891,18.934L19.891,17.561L20.236,17.669L20.441,18.784L20.646,17.792L20.992,17.891L20.992,19.264L20.77,19.201L20.77,18.155L20.557,19.138L20.326,19.069Z" style="fill:rgb(221,46,68);fill-rule:nonzero;"/>
                </g>
            </g>
        </g>
    </g>
</svg>
