<?xml version="1.0" encoding="UTF-8" standalone="no"?>
<!DOCTYPE svg PUBLIC "-//W3C//DTD SVG 1.1//EN" "http://www.w3.org/Graphics/SVG/1.1/DTD/svg11.dtd">
<svg width="100%" height="100%" viewBox="0 0 512 512" version="1.1" xmlns="http://www.w3.org/2000/svg" xmlns:xlink="http://www.w3.org/1999/xlink" xml:space="preserve" xmlns:serif="http://www.serif.com/" style="fill-rule:evenodd;clip-rule:evenodd;stroke-linejoin:round;stroke-miterlimit:2;">
    <g>
        <g>
            <path d="M411.553,116.384C327.618,129.405 325.974,131.604 259.985,110.838C187.662,88.078 182.392,98.415 100.444,108.861C77.104,111.835 55.74,130.85 58.828,156.107C63.749,196.349 71.735,219.194 72.083,253.166C72.44,288.108 64.155,323.962 59.699,355.921C56.353,379.924 75.267,400.977 100.472,397.677C182.335,386.958 187.634,376.33 259.985,399.708C297.334,411.775 314.968,422.501 412.318,408.636C435.684,405.308 458.974,381.556 461.247,357.894C471.963,246.325 470.85,244.51 459.378,156.216C456.362,133 437.012,112.436 411.553,116.384Z" style="fill:rgb(238,238,238);fill-rule:nonzero;"/>
            <path d="M289.328,408.942C272.86,404.352 242.349,393.132 222.666,389.015L222.666,277.904C169.968,266.886 138.322,289.679 69.949,289.544C71.618,275.486 73.704,251.294 69.928,223.515C136.203,224.04 169.272,200.074 222.666,211.237C222.666,174.3 222.666,137.362 222.666,100.424C242.254,104.414 272.535,115.273 289.328,119.832C289.328,156.942 289.328,194.053 289.328,231.164C350.516,248.215 400.911,224.937 467.141,222.773C467.48,228.099 469.415,258.48 467.535,289.48C401.174,291.622 350.512,314.881 289.328,297.831L289.328,408.942Z" style="fill:rgb(232,17,45);fill-rule:nonzero;"/>
            <path d="M363.528,257.671C321.145,262.382 305.144,259.009 267.107,246.501L267.107,163.167L278.218,155.638C276.788,155.191 244.673,144.579 233.776,141.675L244.887,155.982L244.887,239.315C215.191,230.238 195.096,227.498 155.456,234.891L145.884,225.568C146.026,229.096 146.726,246.41 145.818,269.699L155.412,256.958C195.377,249.674 215.665,252.606 244.887,261.537L244.887,344.87L233.776,352.786C244.673,355.691 276.788,366.302 278.218,366.749L267.107,352.056L267.107,268.723C305.127,281.226 321.127,284.604 363.572,279.9L375.815,289.512C375.858,285.956 376.076,268.328 375.707,245.054L363.528,257.671Z" style="fill:rgb(249,221,22);fill-rule:nonzero;"/>
        </g>
    </g>
</svg>
