<?xml version="1.0" encoding="UTF-8" standalone="no"?>
<!DOCTYPE svg PUBLIC "-//W3C//DTD SVG 1.1//EN" "http://www.w3.org/Graphics/SVG/1.1/DTD/svg11.dtd">
<svg width="100%" height="100%" viewBox="0 0 512 512" version="1.1" xmlns="http://www.w3.org/2000/svg" xmlns:xlink="http://www.w3.org/1999/xlink" xml:space="preserve" xmlns:serif="http://www.serif.com/" style="fill-rule:evenodd;clip-rule:evenodd;stroke-linejoin:round;stroke-miterlimit:2;">
    <g transform="matrix(1.11593,-4.03717e-17,4.03717e-17,1.11593,-13.9687,-19.1113)">
        <g transform="matrix(11.1111,-3.0404e-31,0,11.1111,-2371.15,-2417.74)">
            <g>
                <g transform="matrix(0.896117,3.24196e-17,-3.24196e-17,0.896117,219.046,223.655)">
                    <path d="M32,5.435C30.525,5.663 25.92,6.545 23.499,6.245C20.52,5.875 17.672,4.542 15,3.998C15,8.323 15,12.647 15,16.971C18.248,17.651 21.404,19.393 24.973,19.341C28.362,19.292 33.616,18.124 37.114,18.012C37.08,13.819 36.533,10.784 36.304,9.019C36.033,6.93 34.291,5.079 32,5.435Z" style="fill:rgb(252,209,22);fill-rule:nonzero;"/>
                </g>
                <g transform="matrix(0.896117,3.24196e-17,-3.24196e-17,0.896117,219.046,223.655)">
                    <path d="M15,29.971C20.867,31.199 20.749,33.349 32.069,31.737C34.172,31.438 36.268,29.3 36.472,27.17C37.051,21.144 37.132,20.264 37.114,18.012C33.439,18.13 27.5,19.469 24.254,19.336C21.296,19.216 17.802,17.557 15,16.971L15,29.971Z" style="fill:rgb(0,158,73);fill-rule:nonzero;"/>
                </g>
                <g transform="matrix(0.896117,3.24196e-17,-3.24196e-17,0.896117,219.046,223.655)">
                    <path d="M15,3.998C11.54,3.294 7.947,4.254 4,4.757C1.899,5.025 -0.023,6.737 0.255,9.01C0.711,12.739 1.442,14.73 1.448,17.925C1.455,20.985 0.727,24.164 0.333,26.993C0.032,29.153 1.734,31.048 4.002,30.751C7.917,30.238 11.534,29.247 15,29.971C15,21.314 15,12.656 15,3.998ZM10.157,20.864C9.027,20.068 8.209,19.505 8.038,19.388C7.859,19.57 6.677,20.772 5.76,21.626C6.34,20.037 6.702,18.775 6.774,18.524C6.062,18.043 5.35,17.561 4.638,17.08C5.588,16.945 7.069,16.636 7.28,16.592C7.34,16.338 7.633,15.11 7.932,13.393C8.017,13.62 8.424,14.71 8.891,16.266C9.109,16.225 10.413,15.98 11.636,15.897C11.448,16.058 10.69,16.71 9.391,18.014C9.585,18.716 9.581,18.71 10.157,20.864Z" style="fill:rgb(206,17,38);fill-rule:nonzero;"/>
                </g>
                <g transform="matrix(0.896117,3.24196e-17,-3.24196e-17,0.896117,219.046,223.655)">
                    <path d="M8.891,16.266C8.424,14.71 8.017,13.62 7.932,13.393C7.633,15.11 7.34,16.338 7.28,16.592C7.069,16.636 5.588,16.945 4.638,17.08C5.35,17.561 6.062,18.043 6.774,18.524C6.702,18.775 6.34,20.037 5.76,21.626C5.947,21.451 6.677,20.772 8.038,19.388C8.209,19.505 9.027,20.068 10.157,20.864C10.096,20.636 9.488,18.363 9.391,18.014C10.69,16.71 11.448,16.058 11.636,15.897C10.413,15.98 9.109,16.225 8.891,16.266Z" style="fill-rule:nonzero;"/>
                </g>
            </g>
        </g>
    </g>
</svg>
