<?xml version="1.0" encoding="UTF-8" standalone="no"?>
<!DOCTYPE svg PUBLIC "-//W3C//DTD SVG 1.1//EN" "http://www.w3.org/Graphics/SVG/1.1/DTD/svg11.dtd">
<svg width="100%" height="100%" viewBox="0 0 512 512" version="1.1" xmlns="http://www.w3.org/2000/svg" xmlns:xlink="http://www.w3.org/1999/xlink" xml:space="preserve" xmlns:serif="http://www.serif.com/" style="fill-rule:evenodd;clip-rule:evenodd;stroke-linejoin:round;stroke-miterlimit:2;">
    <g transform="matrix(1.11593,-4.03717e-17,4.03717e-17,1.11593,-13.9687,-19.1113)">
        <g transform="matrix(11.1111,-2.35563e-31,0,11.1111,-2371.15,-2417.74)">
            <g>
                <g transform="matrix(0.896117,3.24196e-17,-3.24196e-17,0.896117,219.046,223.655)">
                    <path d="M32,5.435C24.446,6.606 24.298,6.804 18.359,4.935C11.85,2.887 11.375,3.817 4,4.757C1.899,5.025 -0.023,6.737 0.255,9.01C0.711,12.739 1.442,14.73 1.448,17.925C1.455,20.985 0.727,24.164 0.333,26.993C0.032,29.153 1.734,31.048 4.002,30.751C11.37,29.786 11.847,28.83 18.359,30.934C21.72,32.02 23.307,32.985 32.069,31.737C34.172,31.438 36.268,29.3 36.472,27.17C37.438,17.12 37.336,16.963 36.304,9.019C36.033,6.93 34.291,5.079 32,5.435Z" style="fill:rgb(0,158,73);fill-rule:nonzero;"/>
                </g>
                <g transform="matrix(0.896117,3.24196e-17,-3.24196e-17,0.896117,219.046,223.655)">
                    <path d="M1.817,5.619L1.387,5.975C1.573,10.844 2.879,13.989 2.887,17.91C2.896,21.937 1.637,26.004 1.406,29.997C1.608,30.173 1.796,30.289 1.832,30.312C9.577,27.129 10.112,24.611 18.396,24.303C27.26,23.974 27.523,21.664 37.114,18.012C29.268,15.545 27.731,17.978 19.073,12.057C16.957,10.61 14.691,8.907 11.956,8.037C8.403,6.906 4.937,6.557 1.817,5.619Z" style="fill:white;fill-rule:nonzero;"/>
                </g>
                <g transform="matrix(0.896117,3.24196e-17,-3.24196e-17,0.896117,219.046,223.655)">
                    <path d="M3.307,28.56C11.266,24.875 10.921,23.399 19.688,23.048C24.297,22.863 25.919,21.781 33.307,18.369C24.937,16.776 24.671,17.132 17.665,12.29C11.712,8.175 9.752,8.781 3.265,7.142C3.596,11.472 4.474,13.987 4.504,17.583C4.537,21.428 3.65,24.931 3.307,28.56Z" style="fill:rgb(252,209,22);fill-rule:nonzero;"/>
                </g>
                <g transform="matrix(0.896117,3.24196e-17,-3.24196e-17,0.896117,219.046,223.655)">
                    <path d="M18,17.816C11.822,11.337 10.029,11.117 3.265,7.142C2.212,6.523 1.534,6.073 1.387,5.975C0.92,6.413 0.685,6.848 0.639,6.933C0.935,11.214 2.03,14.113 2.127,17.396C2.244,21.337 1.051,25.165 0.698,29.053C0.741,29.137 1.004,29.642 1.406,29.996C1.561,29.884 2.365,29.3 3.307,28.559C10.384,22.993 10.784,20.672 18,17.816Z" style="fill:rgb(20,20,20);fill-rule:nonzero;"/>
                </g>
                <g transform="matrix(0.896117,3.24196e-17,-3.24196e-17,0.896117,219.046,223.655)">
                    <path d="M0.639,6.933L0.638,6.935C0.119,7.897 0.234,8.842 0.255,9.01C0.711,12.739 1.442,14.73 1.448,17.925C1.455,20.985 0.727,24.164 0.333,26.993C0.31,27.159 0.184,28.064 0.697,29.054C8.204,24.04 10.112,19.867 16,17.211C10.578,11.874 5.172,10.025 0.639,6.933Z" style="fill:rgb(206,17,38);fill-rule:nonzero;"/>
                </g>
            </g>
        </g>
    </g>
</svg>
