<?xml version="1.0" encoding="UTF-8" standalone="no"?>
<!DOCTYPE svg PUBLIC "-//W3C//DTD SVG 1.1//EN" "http://www.w3.org/Graphics/SVG/1.1/DTD/svg11.dtd">
<svg width="100%" height="100%" viewBox="0 0 512 512" version="1.1" xmlns="http://www.w3.org/2000/svg" xmlns:xlink="http://www.w3.org/1999/xlink" xml:space="preserve" xmlns:serif="http://www.serif.com/" style="fill-rule:evenodd;clip-rule:evenodd;stroke-linejoin:round;stroke-miterlimit:2;">
    <g transform="matrix(1.11593,-4.03717e-17,4.03717e-17,1.11593,-13.9687,-19.1113)">
        <g transform="matrix(11.1111,-2.35563e-31,0,11.1111,-2371.15,-2417.74)">
            <g>
                <g transform="matrix(0.896117,3.24196e-17,-3.24196e-17,0.896117,219.046,223.655)">
                    <path d="M36.472,27.17C36.268,29.3 34.172,31.438 32.069,31.737C22.764,33.062 21.617,31.929 16.923,30.475C12.024,28.957 9.406,30.043 4.002,30.751C1.734,31.048 0.032,29.153 0.333,26.993C0.731,24.136 1.48,20.893 1.447,17.745C1.416,14.7 0.699,12.641 0.255,9.01C-0.023,6.737 1.899,5.025 4,4.757C11.375,3.817 11.85,2.887 18.359,4.935C24.284,6.8 24.43,6.609 32,5.435C34.291,5.079 36.033,6.93 36.304,9.019C37.335,16.956 37.438,17.114 36.472,27.17Z" style="fill:rgb(210,28,51);fill-rule:nonzero;"/>
                </g>
                <g transform="matrix(0.896117,3.24196e-17,-3.24196e-17,0.896117,219.046,223.655)">
                    <path d="M32,5.435C24.446,6.606 24.298,6.804 18.359,4.935C11.85,2.887 11.375,3.817 4,4.757C1.899,5.025 -0.023,6.737 0.255,9.01C0.715,12.775 1.468,14.811 1.448,18.098C8.275,18.167 10.205,15.414 16.92,17.474C21.309,18.821 22.476,19.649 27.134,19.208C29.699,18.965 34.245,18.104 37.114,18.012C37.08,13.821 36.527,10.739 36.304,9.019C36.033,6.93 34.291,5.079 32,5.435Z" style="fill:rgb(0,32,159);fill-rule:nonzero;"/>
                </g>
                <g transform="matrix(0.896117,3.24196e-17,-3.24196e-17,0.896117,219.046,223.655)">
                    <path d="M12.005,11.755C16.414,11.607 19.967,14.061 23.905,14.357L23.905,24.316C19.971,24.021 16.421,21.569 12.007,21.714C12.024,16.733 12.029,16.754 12.005,11.755Z" style="fill:white;fill-rule:nonzero;"/>
                </g>
                <g transform="matrix(0.896117,3.24196e-17,-3.24196e-17,0.896117,219.046,223.655)">
                    <path d="M23.905,22.938C22.716,22.245 20.048,20.87 18.005,20.203C16.382,19.673 14.081,19.18 12.016,20.336L12.007,21.714C16.42,21.569 19.968,24.02 23.905,24.316L23.905,22.938Z" style="fill:rgb(0,106,22);fill-rule:nonzero;"/>
                </g>
                <g transform="matrix(0.896117,3.24196e-17,-3.24196e-17,0.896117,219.046,223.655)">
                    <path d="M15.523,15.809C15.617,15.939 16.061,16.544 16.688,17.436L16.542,18.215L16.29,18L16.063,18.796L16.004,18.78L15.897,19.205C14.82,18.832 14.079,18.676 13.918,18.642L13.966,17.236L14.443,17.445L14.501,16.137L15.194,16.745L15.229,15.955L15.523,15.809Z" style="fill:rgb(0,32,159);fill-rule:nonzero;"/>
                </g>
                <g transform="matrix(0.896117,3.24196e-17,-3.24196e-17,0.896117,219.046,223.655)">
                    <path d="M18.005,19.1L18.005,21.102C17.119,20.552 16.626,20.265 16.505,20.194L16.123,19.527L15.861,19.266L16.004,18.798L16.23,17.983L16.576,18.082L16.661,17.368C16.769,17.505 17.217,18.074 18.005,19.1ZM13.692,17.138C13.854,16.962 14.203,17.121 14.216,17.205C14.227,17.275 14.007,17.306 13.954,17.348C13.914,17.379 13.796,17.802 13.632,17.751C13.405,17.68 13.669,17.181 13.692,17.138ZM14.501,16.137C14.703,16.035 15.014,16.306 15.005,16.379C14.997,16.444 14.765,16.4 14.704,16.418C14.651,16.434 14.421,16.781 14.272,16.678C14.064,16.535 14.466,16.168 14.501,16.137ZM15.455,15.652C15.673,15.594 15.955,15.915 15.936,15.983C15.924,16.027 15.653,15.887 15.576,15.894C15.416,15.909 15.338,16.3 15.153,16.127C14.96,15.948 15.416,15.675 15.455,15.652Z" style="fill:rgb(210,28,51);fill-rule:nonzero;"/>
                </g>
                <g transform="matrix(0.896117,3.24196e-17,-3.24196e-17,0.896117,219.046,223.655)">
                    <path d="M14.945,14.983L15.718,15.632L15.633,15.836C15.803,16.067 16.491,16.999 17.72,18.756L17.72,18.935C17.549,18.688 16.439,17.087 15.551,15.875L15.268,15.762L14.945,14.983ZM13.835,15.498C13.899,15.53 14.61,15.888 14.61,15.949L14.752,16.25C15.895,17.395 17.356,19.046 17.576,19.295L17.493,19.376C17.275,19.129 15.835,17.495 14.692,16.346L14.287,16.097L13.835,15.498ZM13.013,16.605C13.468,16.687 13.918,16.841 13.919,16.843L13.991,17.091C15.331,18 17.014,19.445 17.267,19.662L17.124,19.701C16.878,19.489 15.254,18.09 13.931,17.19L13.562,17.125L13.013,16.605Z" style="fill:rgb(241,181,23);fill-rule:nonzero;"/>
                </g>
                <g transform="matrix(0.896117,3.24196e-17,-3.24196e-17,0.896117,219.046,223.655)">
                    <path d="M13.788,18.364C15.173,18.693 16.893,19.436 17.155,19.549L16.836,19.836L16.337,19.74L16.71,20.349L16.53,20.499L16.029,19.811C15.993,19.987 15.776,20.533 15.195,20.404C14.535,20.258 14.3,19.565 14.3,19.327C14.3,19.214 14.415,18.893 14.36,18.992L13.716,18.904L13.788,18.364Z" style="fill:rgb(241,181,23);fill-rule:nonzero;"/>
                </g>
                <g transform="matrix(0.896117,3.24196e-17,-3.24196e-17,0.896117,219.046,223.655)">
                    <path d="M20.445,17.252C20.348,17.338 19.938,17.7 19.228,18.311L19.278,19.16L19.591,19.048L19.817,19.978L19.877,19.997L19.984,20.483C21.112,20.742 21.802,20.841 21.961,20.864L21.913,19.441L21.437,19.461L21.378,18.128L20.687,18.408L20.65,17.599L20.445,17.252Z" style="fill:rgb(0,32,159);fill-rule:nonzero;"/>
                </g>
                <g transform="matrix(0.896117,3.24196e-17,-3.24196e-17,0.896117,219.046,223.655)">
                    <path d="M18.005,19.1L18.005,21.102L19.441,21.132L19.79,20.684L20.036,20.571L19.885,20.017L19.65,19.067L19.384,19.179L19.292,18.332L18.005,19.1ZM22.187,19.436C22.023,19.205 21.674,19.243 21.662,19.315C21.649,19.395 21.873,19.496 21.925,19.557C21.968,19.606 22.083,20.068 22.247,20.069C22.473,20.068 22.208,19.482 22.187,19.436ZM21.378,18.128C21.166,17.929 20.866,18.059 20.875,18.137C20.887,18.238 21.097,18.259 21.177,18.319C21.225,18.356 21.46,18.807 21.608,18.766C21.809,18.708 21.411,18.172 21.378,18.128ZM20.426,17.177C20.364,17.128 19.893,17.012 19.945,17.239C19.963,17.319 20.224,17.302 20.304,17.353C20.353,17.385 20.603,17.863 20.728,17.81C20.914,17.732 20.463,17.219 20.426,17.177Z" style="fill:rgb(210,28,51);fill-rule:nonzero;"/>
                </g>
                <g transform="matrix(0.896117,3.24196e-17,-3.24196e-17,0.896117,219.046,223.655)">
                    <path d="M20.935,16.77L20.163,17.012L20.312,17.284C19.809,17.706 18.454,18.811 18.292,18.943L18.292,19.122C18.461,18.982 19.861,17.824 20.395,17.368L20.646,17.396L20.935,16.77ZM22.044,17.749C21.982,17.759 21.271,17.874 21.271,17.893L21.128,18.128C20.328,18.557 18.531,19.422 18.304,19.532L18.388,19.667C18.613,19.557 20.353,18.709 21.188,18.252L21.591,18.179L22.044,17.749ZM22.866,19.083C21.963,19.06 21.964,19.056 21.961,19.065L21.89,19.288C20.804,19.627 18.878,20.042 18.614,20.099L18.757,20.23C19.014,20.173 20.846,19.765 21.949,19.408L22.319,19.465L22.866,19.083Z" style="fill:rgb(241,181,23);fill-rule:nonzero;"/>
                </g>
                <g transform="matrix(0.896117,3.24196e-17,-3.24196e-17,0.896117,219.046,223.655)">
                    <path d="M22.092,20.631C20.94,20.518 18.994,20.114 18.727,20.058L19.046,20.547L19.544,20.759L19.171,21.139L19.352,21.401L19.853,21.014C19.902,21.283 20.161,21.913 20.687,22.067C21.328,22.253 21.58,21.656 21.58,21.405C21.58,21.333 21.573,21.262 21.562,21.191C21.554,21.141 21.521,21.045 21.521,21.045L22.164,21.196L22.092,20.631Z" style="fill:rgb(241,181,23);fill-rule:nonzero;"/>
                </g>
                <g transform="matrix(0.896117,3.24196e-17,-3.24196e-17,0.896117,219.046,223.655)">
                    <path d="M22.859,23.33C22.274,23.254 21.742,23.008 21.65,22.965C21.334,22.818 20.825,22.388 20.656,22.372C20.355,22.345 20.051,22.365 19.749,22.346C19.583,22.335 19.416,22.317 19.252,22.285C18.771,22.188 18.104,21.99 18.005,21.961L16.817,21.5C16.11,21.197 16.186,21.097 15.47,20.783C15.294,20.705 14.803,20.885 14.473,20.9C14.376,20.904 13.863,20.928 13.261,20.867L13.423,21.164L13.261,21.293C13.424,21.306 14.797,21.422 15.309,21.181C15.754,21.578 17.274,22.193 18.005,22.437C18.217,22.504 20.07,23.098 20.761,22.839C20.92,22.991 21.734,23.588 22.836,23.752L22.688,23.587L22.859,23.33Z" style="fill:white;fill-rule:nonzero;"/>
                </g>
                <g transform="matrix(0.896117,3.24196e-17,-3.24196e-17,0.896117,219.046,223.655)">
                    <path d="M18.292,17.806C18.292,19.834 18.076,20.434 18,20.409C17.917,20.382 17.708,19.544 17.708,17.615C17.708,15.601 17.923,14.986 18,15.011C18.082,15.038 18.292,15.861 18.292,17.806Z" style="fill:rgb(241,181,23);fill-rule:nonzero;"/>
                </g>
                <g transform="matrix(0.896117,3.24196e-17,-3.24196e-17,0.896117,219.046,223.655)">
                    <path d="M17.434,20.06L18.578,20.432L18.578,21.577L17.434,21.205L17.434,20.06Z" style="fill:rgb(210,28,51);fill-rule:nonzero;"/>
                </g>
                <g transform="matrix(0.896117,3.24196e-17,-3.24196e-17,0.896117,219.046,223.655)">
                    <path d="M18.649,20.383C18.649,20.62 18.082,20.435 18.035,20.419C17.602,20.278 17.421,20.05 17.421,19.983C17.421,19.919 17.592,19.799 18.035,19.943C18.461,20.083 18.649,20.315 18.649,20.383Z" style="fill:white;fill-rule:nonzero;"/>
                </g>
                <g transform="matrix(0.896117,3.24196e-17,-3.24196e-17,0.896117,219.046,223.655)">
                    <path d="M18.649,21.527C18.649,21.764 18.082,21.579 18.035,21.563C17.598,21.421 17.421,21.193 17.421,21.127C17.421,21.064 17.588,20.941 18.035,21.087C18.464,21.228 18.649,21.459 18.649,21.527Z" style="fill:rgb(210,28,51);fill-rule:nonzero;"/>
                </g>
                <g transform="matrix(0.896117,3.24196e-17,-3.24196e-17,0.896117,219.046,223.655)">
                    <path d="M20.514,15.319C20.318,15.026 19.4,14.699 19.296,14.662C19.202,14.629 18.661,14.62 18.874,14.465C18.991,14.379 19.562,14.537 19.62,14.553C19.765,14.594 19.958,14.612 19.784,14.463C19.351,14.096 18.953,14.067 18.874,14.062C18.646,14.045 18.081,14.186 17.989,14.174C17.902,14.129 17.31,13.609 17.089,13.484C16.6,13.207 16.243,13.302 16.171,13.321C15.907,13.388 16.256,13.483 16.332,13.508C16.344,13.512 16.887,13.623 17.076,13.883C17.293,14.181 16.762,13.843 16.653,13.814C16.559,13.789 15.655,13.551 15.435,13.762C15.183,14.004 15.841,13.925 15.861,13.927L16.421,14.033C16.362,14.034 15.866,14.039 15.706,14.222C15.494,14.461 15.866,14.601 16.04,14.546C16.114,14.523 16.686,14.343 17.005,14.408C16.932,14.416 16.396,14.475 16.111,14.63C15.829,14.783 16.201,14.853 16.332,14.89C16.642,14.977 16.889,14.87 16.933,14.851C17.103,14.778 16.789,15.201 16.766,15.314C16.724,15.523 17.079,15.625 17.154,15.432C17.248,15.185 17.73,14.512 17.433,14.947C17.42,15.018 17.339,15.465 17.351,15.839C17.354,15.925 17.415,16.375 17.58,16.138C17.614,16.088 17.682,16.11 17.72,16.132C17.829,16.193 18.087,16.468 18.005,16.375C18.12,16.31 18.343,16.286 18.4,16.405C18.536,16.687 18.592,16.418 18.598,16.245C18.61,15.879 18.527,15.374 18.515,15.299L18.795,15.964C18.838,16.104 19.233,16.377 19.182,16.091C19.1,15.632 18.686,15.174 19.016,15.523C19.31,15.835 19.561,15.916 19.617,15.934C19.821,16 19.989,15.977 19.839,15.806C19.567,15.499 19.02,15.091 18.945,15.035C19.239,15.162 19.838,15.699 19.91,15.764C20.093,15.929 20.427,15.941 20.243,15.63C20.09,15.372 19.591,15.063 19.528,15.023L20.089,15.248C20.567,15.475 20.564,15.477 20.57,15.472C20.615,15.442 20.544,15.364 20.514,15.319Z" style="fill:rgb(0,106,22);fill-rule:nonzero;"/>
                </g>
            </g>
        </g>
    </g>
</svg>
