<?xml version="1.0" encoding="UTF-8" standalone="no"?>
<!DOCTYPE svg PUBLIC "-//W3C//DTD SVG 1.1//EN" "http://www.w3.org/Graphics/SVG/1.1/DTD/svg11.dtd">
<svg width="100%" height="100%" viewBox="0 0 512 512" version="1.1" xmlns="http://www.w3.org/2000/svg" xmlns:xlink="http://www.w3.org/1999/xlink" xml:space="preserve" xmlns:serif="http://www.serif.com/" style="fill-rule:evenodd;clip-rule:evenodd;stroke-linejoin:round;stroke-miterlimit:2;">
    <g transform="matrix(1.11593,-4.03717e-17,4.03717e-17,1.11593,-13.9687,-19.1113)">
        <g transform="matrix(11.1111,-2.35563e-31,0,11.1111,-2371.15,-2417.74)">
            <g>
                <g transform="matrix(0.896117,3.24196e-17,-3.24196e-17,0.896117,219.046,223.655)">
                    <path d="M32,5.435C24.446,6.606 24.298,6.804 18.359,4.935C11.85,2.887 11.375,3.817 4,4.757L3.396,4.874C3.394,5.625 3.445,6.487 3.454,6.627C1.962,6.797 0.936,6.798 0.716,6.798C0.374,7.365 0.15,8.156 0.255,9.01C0.711,12.739 1.442,14.73 1.448,17.925C1.455,20.985 0.727,24.164 0.333,26.993C0.032,29.153 1.734,31.048 4.002,30.751C11.37,29.786 11.847,28.83 18.359,30.934C21.72,32.02 23.307,32.985 32.069,31.737C34.172,31.438 36.268,29.3 36.472,27.17C37.438,17.12 37.336,16.963 36.304,9.019C36.033,6.93 34.291,5.079 32,5.435Z" style="fill:rgb(0,36,125);fill-rule:nonzero;"/>
                </g>
                <g transform="matrix(0.896117,3.24196e-17,-3.24196e-17,0.896117,219.046,223.655)">
                    <path d="M9.1,25.008C8.696,25.445 8.293,25.881 7.89,26.317C7.906,26.183 7.967,25.682 8.1,24.638L6.61,24.649C6.717,24.557 7.176,24.161 7.93,23.49L7.31,22.182L8.669,22.419C8.948,21.686 9.233,20.917 9.282,20.786L9.764,22.253C10.555,21.884 11.124,21.659 11.244,21.612C10.976,22.116 10.709,22.62 10.441,23.124L11.75,23.964C11.621,23.99 10.995,24.114 10.158,24.342C10.198,25.219 10.233,25.858 10.24,25.99L9.1,25.008ZM28.012,10.658L27.199,11.494L27.259,10.399L26.157,10.336L27.064,9.639L26.506,8.747L27.561,8.956L27.952,7.89L28.376,8.849L29.429,8.37L28.906,9.4L29.863,9.874L28.75,10.207L28.877,11.282L28.012,10.658ZM23.949,16.881L23.15,17.534L23.229,16.459C23.142,16.434 22.715,16.311 22.152,16.104L23.051,15.654L22.509,14.617L23.549,15.094L23.949,14.116L24.35,15.15L25.402,14.82L24.85,15.778L25.778,16.362L24.671,16.559L24.751,17.645L23.949,16.881ZM33.648,13.866L32.809,14.723L32.831,13.628L31.632,13.639L32.575,12.879L31.908,12.024L33.06,12.178L33.383,11.108L33.92,12.065L34.986,11.624L34.519,12.626L35.538,13.145L34.404,13.424L34.57,14.496L33.648,13.866ZM28.041,28.746L27.201,29.553L27.293,28.461L26.178,28.365L27.114,27.695L26.553,26.786L27.643,27.026L28.082,25.962L28.494,26.946L29.616,26.497L29.011,27.52L29.949,28.031L28.806,28.325L28.864,29.405L28.041,28.746ZM31.583,16.61L31.929,17.157L32.672,17.145L32.145,17.685L32.279,18.322L31.611,18.11L30.947,18.518L31.068,17.844L30.524,17.46L31.265,17.255L31.583,16.61Z" style="fill:white;fill-rule:nonzero;"/>
                </g>
                <g transform="matrix(0.896117,3.24196e-17,-3.24196e-17,0.896117,219.046,223.655)">
                    <path d="M19,18.145C19,13.81 19,9.476 19,5.141C11.806,2.837 11.647,3.783 4,4.757L3.396,4.874C3.394,5.625 3.445,6.487 3.454,6.627C1.962,6.797 0.936,6.798 0.716,6.798L0.602,7.003C0.528,7.148 0.124,7.941 0.255,9.01C0.717,12.789 1.468,14.816 1.448,18.098C5.75,18.142 7.207,17.191 11.217,16.774C14.219,16.462 16.608,17.359 19,18.145Z" style="fill:rgb(0,36,125);fill-rule:nonzero;"/>
                </g>
                <g transform="matrix(0.896117,3.24196e-17,-3.24196e-17,0.896117,219.046,223.655)">
                    <path d="M19,5.141C18.814,5.082 17.267,4.586 16.669,4.415C14.47,5.18 12.337,6.732 11.992,6.983C11.992,5.556 12,3.764 12,3.747C10.226,3.803 7.398,4.248 7,4.311C7,5.66 7.04,6.66 7.049,6.864C6.443,6.539 4.899,5.729 3.396,4.874C2.46,5.119 1.851,5.59 1.734,5.68C3.304,6.673 5.811,7.983 6.572,8.391C5.518,8.57 5.041,8.642 4.907,8.662C4.589,8.491 2.419,7.319 1.001,6.39L0.716,6.798C2.042,7.675 3.787,8.633 4.06,8.783C2.011,9.051 0.495,9.01 0.255,9.01C0.445,10.564 1.009,13.615 1.083,14.014C1.255,14.014 2.867,14.064 4.836,13.777C2.63,16.304 1.554,16.797 1.421,16.878L1.448,18.098C1.461,18.099 2.915,18.158 4.647,17.915C5.849,16.795 7.423,15.017 7.644,14.771C7.656,14.977 7.718,16.027 7.714,17.342C8.056,17.271 10.371,16.793 12.032,16.72C12.032,15.012 12.021,13.71 12.018,13.449C13.071,14.174 14.363,15.105 16.668,17.399C17.267,17.575 18.814,18.084 19,18.145L19,16.116C18.776,15.886 16.958,14.015 16.185,13.261C16.958,13.474 18.775,14.071 19,14.145L19,9.145C18.776,9.071 16.958,8.474 16.186,8.261C16.958,7.933 18.773,7.258 19,7.174C19,6.496 19,5.819 19,5.141Z" style="fill:rgb(238,238,238);fill-rule:nonzero;"/>
                </g>
                <g transform="matrix(0.896117,3.24196e-17,-3.24196e-17,0.896117,219.046,223.655)">
                    <path d="M11,3.801C10.759,3.819 9.761,3.893 8,4.157C8,4.263 7.977,6.292 8.127,9.139C4.901,9.668 3.623,10.017 0.388,10.012C0.423,10.253 0.574,11.299 0.892,13.007C4.147,13.009 5.214,12.678 8.315,12.137C8.334,12.407 8.546,14.753 8.54,17.175C10.003,16.889 10.908,16.803 11.115,16.783C11.117,14.596 11.052,12.292 11.043,11.77C14.146,11.518 15.812,12.097 19,13.145L19,10.145C15.753,9.077 14.158,8.522 11.003,8.771C10.975,5.95 11,3.917 11,3.801Z" style="fill:rgb(207,27,43);fill-rule:nonzero;"/>
                </g>
                <g transform="matrix(0.896117,3.24196e-17,-3.24196e-17,0.896117,219.046,223.655)">
                    <path d="M19,5.141L17.539,4.676C14.538,5.737 12.397,7.298 11.992,7.593L11.992,7.714C12.892,7.685 13.445,7.738 13.571,7.749C15.491,6.588 18.023,5.706 19,5.343L19,5.141ZM1.734,5.68C1.316,5.999 1.052,6.326 1.001,6.39C2.419,7.319 4.589,8.491 4.907,8.662C5.041,8.642 5.518,8.57 6.571,8.391C5.941,8.053 3.337,6.694 1.734,5.68ZM7.047,13.391C6.063,14.525 4.293,16.647 2.288,18.105C2.415,18.103 3.069,18.093 3.882,18.009C5.366,16.716 7.229,14.568 7.602,14.148L7.529,13.299L7.047,13.391ZM19,17.947L19,16.727C18.709,16.428 16.389,14.04 15.313,13.04C14.381,12.827 13.711,12.763 13.57,12.749C15.493,14.279 18.004,16.922 19,17.947Z" style="fill:rgb(207,27,43);fill-rule:nonzero;"/>
                </g>
            </g>
        </g>
    </g>
</svg>
