<?xml version="1.0" encoding="UTF-8" standalone="no"?>
<!DOCTYPE svg PUBLIC "-//W3C//DTD SVG 1.1//EN" "http://www.w3.org/Graphics/SVG/1.1/DTD/svg11.dtd">
<svg width="100%" height="100%" viewBox="0 0 512 512" version="1.1" xmlns="http://www.w3.org/2000/svg" xmlns:xlink="http://www.w3.org/1999/xlink" xml:space="preserve" xmlns:serif="http://www.serif.com/" style="fill-rule:evenodd;clip-rule:evenodd;stroke-linejoin:round;stroke-miterlimit:2;">
    <g transform="matrix(1.11593,-4.03717e-17,4.03717e-17,1.11593,-13.9687,-19.1113)">
        <g transform="matrix(11.1111,-2.35563e-31,0,11.1111,-2371.15,-2417.74)">
            <g>
                <g transform="matrix(0.896117,3.24196e-17,-3.24196e-17,0.896117,219.046,223.655)">
                    <path d="M1.083,14.014C7.768,14.024 10.59,11.692 16.039,13.221C19.63,14.229 21.929,15.447 25.316,15.332C28.633,15.219 33.586,14.12 36.931,14.011C37,14.884 37.278,18.399 36.965,22.012C28.77,22.279 27.429,24.869 18.891,22.109C16.136,21.219 14.079,20.36 10.139,20.866C6.64,21.315 5.444,22.004 1.125,22.002C1.426,19.933 1.671,17.192 1.083,14.014Z" style="fill:rgb(238,238,238);fill-rule:nonzero;"/>
                </g>
                <g transform="matrix(0.896117,3.24196e-17,-3.24196e-17,0.896117,219.046,223.655)">
                    <path d="M32,5.435C24.446,6.606 24.298,6.804 18.359,4.935C11.85,2.887 11.375,3.817 4,4.757C1.899,5.025 -0.023,6.737 0.255,9.01C0.445,10.564 1.009,13.615 1.083,14.014C7.768,14.024 10.59,11.692 16.039,13.221C19.63,14.229 21.929,15.447 25.316,15.332C28.633,15.219 33.586,14.12 36.931,14.011C36.815,12.546 36.417,9.89 36.304,9.019C36.033,6.93 34.291,5.079 32,5.435ZM0.333,26.993C0.032,29.153 1.734,31.048 4.002,30.751C11.37,29.786 11.847,28.83 18.359,30.934C21.72,32.02 23.307,32.985 32.069,31.737C34.172,31.438 36.268,29.3 36.472,27.17C36.512,26.758 36.937,22.33 36.965,22.012C28.77,22.279 27.429,24.869 18.891,22.109C16.136,21.219 14.079,20.36 10.139,20.866C6.64,21.315 5.444,22.004 1.125,22.002C1.022,22.707 0.496,25.824 0.333,26.993Z" style="fill:rgb(1,86,163);fill-rule:nonzero;"/>
                </g>
                <g transform="matrix(0.896117,3.24196e-17,-3.24196e-17,0.896117,219.046,223.655)">
                    <path d="M18.265,17.663L18.016,16.815L17.767,17.5L16.961,17.246L17.613,17.924L17.364,18.611L18.016,18.347L18.668,19.036L18.419,18.186L19.071,17.928L18.265,17.663ZM23.596,21.529L23.347,22.266L23.999,21.856L24.652,22.35L24.402,21.581L25.064,21.106L24.248,21.103L23.999,20.323L23.75,21.07L22.944,20.969L23.596,21.529ZM24.248,17.096L23.999,16.317L23.75,17.063L22.944,16.962L23.596,17.522L23.347,18.26L23.999,17.849L24.652,18.344L24.402,17.574L25.063,17.099L24.248,17.096ZM11.596,18.977L11.357,19.757L11.972,19.251L12.598,19.71L12.357,18.947L13,18.478L12.211,18.478L11.979,17.72L11.743,18.497L11.005,18.553L11.596,18.977ZM12.21,14.473L11.968,13.714L11.74,14.495L11.001,14.553L11.601,14.977L11.378,15.762L11.978,15.249L12.598,15.704L12.358,14.941L13,14.471L12.21,14.473Z" style="fill:rgb(38,87,167);fill-rule:nonzero;"/>
                </g>
            </g>
        </g>
    </g>
</svg>
