<?xml version="1.0" encoding="UTF-8" standalone="no"?>
<!DOCTYPE svg PUBLIC "-//W3C//DTD SVG 1.1//EN" "http://www.w3.org/Graphics/SVG/1.1/DTD/svg11.dtd">
<svg width="100%" height="100%" viewBox="0 0 512 512" version="1.1" xmlns="http://www.w3.org/2000/svg" xmlns:xlink="http://www.w3.org/1999/xlink" xml:space="preserve" xmlns:serif="http://www.serif.com/" style="fill-rule:evenodd;clip-rule:evenodd;stroke-linejoin:round;stroke-miterlimit:2;">
    <g transform="matrix(1.11593,-4.03717e-17,4.03717e-17,1.11593,-13.9687,-19.1113)">
        <g transform="matrix(11.1111,-2.35563e-31,0,11.1111,-2371.15,-2417.74)">
            <g>
                <g transform="matrix(0.896117,3.24196e-17,-3.24196e-17,0.896117,219.046,223.655)">
                    <path d="M36.472,27.17C36.268,29.3 34.172,31.438 32.069,31.737C22.764,33.062 21.617,31.929 16.923,30.475C12.024,28.957 9.406,30.043 4.002,30.751C1.734,31.048 0.032,29.153 0.333,26.993C0.76,23.929 1.552,20.621 1.436,17.229C1.343,14.486 0.678,12.475 0.255,9.01C-0.023,6.737 1.899,5.025 4,4.757C11.375,3.817 11.85,2.887 18.359,4.935C24.284,6.8 24.43,6.609 32,5.435C34.291,5.079 36.033,6.93 36.304,9.019C37.336,16.96 37.438,17.112 36.472,27.17Z" style="fill:rgb(222,41,16);fill-rule:nonzero;"/>
                </g>
                <g transform="matrix(0.896117,3.24196e-17,-3.24196e-17,0.896117,219.046,223.655)">
                    <path d="M19.626,9.55C19.61,9.537 18.65,8.671 17.591,8.575C16.657,8.49 15.569,9.176 15.279,10.163C15.248,10.268 15.018,11.052 15.025,11.499L15.064,12.759C15.082,13.012 15.25,13.852 15.525,14.581L15.542,14.579C15.742,15.296 16.548,16.591 16.651,16.757C17.249,17.718 17.672,18.112 17.71,18.124L17.548,17.935C17.245,17.459 16.915,16.568 16.86,16.134C16.713,14.969 17.051,14.079 17.157,13.781C17.199,13.66 17.324,13.549 17.446,13.66L17.464,13.685C17.541,13.781 17.539,13.902 17.504,14.012C17.45,14.184 17.069,15.397 17.236,16.249C17.263,16.388 17.433,17.261 17.853,17.901C17.641,17.409 17.631,16.922 17.63,16.835C17.629,16.785 17.621,16.36 17.719,16.217C17.934,15.901 18.428,15.797 18.498,15.783L19.112,15.585C19.927,15.333 20.262,14.346 20.237,13.874L20.216,13.54C20.228,13.461 20.185,13.098 20.037,12.711C20.011,12.644 19.917,12.4 19.625,11.908L19.479,11.589C19.329,11.281 19.333,10.878 19.334,10.815C19.334,10.642 19.335,10.621 19.425,10.501C19.507,10.39 19.557,10.335 19.693,10.305C19.789,10.286 20.085,10.382 20.252,10.518L20.487,10.692C20.555,10.749 20.73,10.931 20.708,10.845C20.675,10.725 20.151,9.991 19.626,9.55ZM15.888,18.249C14.746,17.795 13.761,17.004 13.608,16.89C13.525,16.828 13.357,16.655 13.478,16.545L13.484,16.543C13.584,16.463 13.739,16.555 13.816,16.611C13.98,16.729 15.318,17.694 15.986,17.913C16.096,17.949 16.881,18.206 17.416,18.173C16.972,18.078 16.593,17.871 16.526,17.834C16.474,17.806 16.063,17.578 15.926,17.408C15.614,17.016 15.491,16.448 15.472,16.358L15.252,15.608C14.972,14.618 14.045,13.841 13.562,13.689L13.242,13.596C13.162,13.555 12.817,13.486 12.452,13.542C12.391,13.551 12.153,13.588 11.727,13.785L11.447,13.871C11.181,13.965 10.823,13.888 10.77,13.876C10.608,13.841 10.59,13.83 10.489,13.724C10.383,13.615 10.334,13.556 10.299,13.408C10.272,13.296 10.342,12.998 10.446,12.853L10.586,12.635C10.635,12.572 10.793,12.424 10.714,12.434C10.587,12.446 9.992,12.853 9.651,13.359C9.556,13.5 9.011,14.306 8.997,15.379C8.986,16.284 9.5,17.532 10.318,17.99C10.404,18.038 11.073,18.411 11.448,18.49L12.594,18.746C12.718,18.771 13.895,18.895 14.37,18.916L14.37,18.897C14.984,18.986 16.308,18.844 16.476,18.826C17.497,18.713 17.818,18.489 17.779,18.457L17.767,18.463L17.723,18.465L17.598,18.511C17.197,18.554 16.329,18.426 15.888,18.249ZM18.404,20.188C18.338,19.241 18.137,18.702 18.098,18.648L18.12,18.723C18.18,19.233 18.042,20.033 17.873,20.355C17.4,21.255 16.521,21.704 16.338,21.81C16.252,21.859 16.142,21.88 16.05,21.83C16.003,21.805 15.966,21.764 15.956,21.711C15.935,21.603 16.024,21.513 16.106,21.46C16.241,21.372 17.293,20.691 17.553,20.054C17.592,19.957 17.834,19.364 17.803,18.77C17.79,18.836 17.721,19.201 17.46,19.532C17.432,19.567 17.209,19.851 17.031,19.89C16.652,19.973 16.08,19.769 16.002,19.741C15.93,19.716 15.934,19.72 15.269,19.558C14.26,19.316 13.411,19.999 13.193,20.362L13.032,20.639C12.973,20.702 12.821,21.015 12.758,21.376C12.747,21.439 12.707,21.664 12.733,22.165L12.707,22.472C12.689,22.77 12.461,23.111 12.428,23.16C12.326,23.314 12.309,23.328 12.164,23.402C12.024,23.473 11.945,23.511 11.79,23.504C11.677,23.498 11.442,23.34 11.358,23.19L11.224,22.985C11.189,22.919 11.118,22.729 11.097,22.8C11.062,22.915 11.167,23.675 11.445,24.17C11.943,25.064 12.689,25.402 12.97,25.517C13.75,25.833 15.321,25.94 16.132,25.447C16.216,25.397 16.884,24.992 17.108,24.709C17.449,24.275 17.455,24.3 17.763,23.849C17.884,23.671 18.184,23.002 18.319,22.343L18.302,22.332C18.508,21.703 18.415,20.359 18.404,20.188Z" style="fill:white;fill-rule:nonzero;"/>
                    <path d="M24.491,24.411C24.453,24.303 24.157,23.476 23.895,23.1L23.141,22.016C22.965,21.776 22.332,21.1 21.774,20.614L21.765,20.626C21.245,20.096 19.942,19.271 19.776,19.166C19.666,19.096 18.681,18.473 18.323,18.439C18.405,18.459 18.467,18.485 18.541,18.532C18.979,18.805 19.714,19.498 20.014,19.918C20.799,21.025 21.107,22.22 21.169,22.433C21.194,22.521 21.227,22.782 21.049,22.737L21.043,22.741L21.034,22.73C20.914,22.686 20.85,22.542 20.816,22.433C20.752,22.231 20.297,20.783 19.707,20.036C19.615,19.92 18.996,19.138 18.368,18.757L18.222,18.63L18.207,18.634L18.35,18.766C18.769,19.129 19.057,19.615 19.106,19.698C19.136,19.749 19.385,20.177 19.406,20.377C19.457,20.875 19.178,21.296 19.169,21.313L18.898,21.904C18.533,22.673 18.878,23.866 19.173,24.334L19.379,24.656C19.501,24.941 19.917,25.323 19.972,25.374C20.024,25.423 20.221,25.606 20.699,25.908L20.974,26.123C21.246,26.324 21.477,26.719 21.511,26.777C21.612,26.948 21.623,26.97 21.635,27.142C21.646,27.289 21.652,27.385 21.579,27.512C21.529,27.599 21.286,27.703 21.103,27.68L20.852,27.662C20.776,27.65 20.569,27.595 20.622,27.651C20.718,27.759 21.477,28.139 22.055,28.188C22.932,28.264 23.531,27.932 23.897,27.552C24.488,26.931 24.872,25.475 24.491,24.411Z" style="fill:white;fill-rule:nonzero;"/>
                    <path d="M27.123,16.275C26.631,15.616 25.314,14.94 24.131,14.956C23.169,14.97 23.181,14.926 22.736,15.011L21.566,15.208C21.324,15.252 20.599,15.503 20.099,15.793L20.11,15.81C19.515,16.057 18.797,16.908 18.702,17.022C18.206,17.608 18.069,18.059 18.067,18.126L18.14,17.961C18.382,17.654 19.01,17.28 19.414,17.208C20.429,17.03 21.634,17.344 21.819,17.383C21.933,17.407 22.152,17.497 22.112,17.655L22.087,17.695C22.021,17.773 21.902,17.764 21.816,17.748C21.637,17.716 20.113,17.442 19.536,17.601C19.431,17.63 18.7,17.833 18.363,18.277C18.33,18.321 18.298,18.339 18.246,18.359L18.25,18.376L18.372,18.301C18.701,18.072 19.164,18.051 19.236,18.047C19.287,18.045 19.679,18.028 19.878,18.124C20.307,18.333 20.723,18.833 20.785,18.907L21.364,19.513C22.157,20.345 23.254,20.466 23.69,20.328L23.992,20.223C24.044,20.218 24.334,20.118 24.664,19.821C24.712,19.778 24.889,19.617 25.177,19.202L25.393,18.968C25.592,18.739 26.006,18.58 26.064,18.557C26.249,18.487 26.271,18.483 26.444,18.504C26.604,18.522 26.698,18.534 26.826,18.631C26.918,18.701 27.016,18.976 26.988,19.157L26.969,19.414C26.955,19.492 26.896,19.7 26.959,19.652C27.086,19.558 27.474,18.817 27.557,18.256C27.575,18.133 27.752,17.119 27.123,16.275Z" style="fill:white;fill-rule:nonzero;"/>
                </g>
                <g transform="matrix(0.896117,3.24196e-17,-3.24196e-17,0.896117,219.046,223.655)">
                    <path d="M17.79,12.366L17.424,12.8L16.797,12.46L16.78,12.451L17.191,13.095L16.857,13.543L16.848,13.556L17.469,13.518L17.902,14.159L17.873,13.487L18.467,13.431L18.484,13.43L17.845,13.043L17.79,12.366ZM13.211,15.399L13.209,15.381L12.867,15.934L12.233,15.814L12.648,16.308L12.35,16.876L12.342,16.893L12.94,16.636L13.38,17.129L13.393,17.144L13.337,16.48L13.92,16.264L13.937,16.258L13.292,16.044L13.211,15.399ZM23.558,17.771L22.915,17.521L22.845,16.85L22.492,17.346L21.861,17.078L21.844,17.07L22.267,17.674L21.944,18.161L21.936,18.175L22.551,18.059L22.982,18.612L22.995,18.627L22.953,17.96L23.541,17.777L23.558,17.771ZM15.719,21.208L15.717,21.19L15.377,21.676L14.745,21.424L14.727,21.417L15.162,22.005L14.856,22.508L14.847,22.522L15.456,22.394L15.899,22.972L15.912,22.989L15.852,22.315L16.434,22.195L16.45,22.191L15.804,21.869L15.719,21.208ZM21.495,22.46L21.494,22.442L21.122,22.892L20.497,22.557L20.479,22.548L20.884,23.19L20.543,23.638L20.534,23.651L21.157,23.604L21.569,24.205L21.581,24.223L21.563,23.556L22.159,23.453L22.177,23.451L21.541,23.116L21.495,22.46Z" style="fill:rgb(222,41,16);fill-rule:nonzero;"/>
                </g>
            </g>
        </g>
    </g>
</svg>
