<?xml version="1.0" encoding="UTF-8" standalone="no"?>
<!DOCTYPE svg PUBLIC "-//W3C//DTD SVG 1.1//EN" "http://www.w3.org/Graphics/SVG/1.1/DTD/svg11.dtd">
<svg width="100%" height="100%" viewBox="0 0 512 512" version="1.1" xmlns="http://www.w3.org/2000/svg" xmlns:xlink="http://www.w3.org/1999/xlink" xml:space="preserve" xmlns:serif="http://www.serif.com/" style="fill-rule:evenodd;clip-rule:evenodd;stroke-linejoin:round;stroke-miterlimit:2;">
    <g transform="matrix(1.11593,-4.03717e-17,4.03717e-17,1.11593,-13.9687,-19.1113)">
        <g transform="matrix(11.1111,-2.35563e-31,0,11.1111,-2371.15,-2417.74)">
            <g>
                <g transform="matrix(0.896117,3.24196e-17,-3.24196e-17,0.896117,219.046,223.655)">
                    <path d="M10,3.893C8.442,4.061 5.312,4.59 4,4.757C1.899,5.025 -0.023,6.737 0.255,9.01C0.547,11.405 1.102,13.959 1.254,15.076C5.25,15.108 7.171,14.283 10.187,13.881C10.021,8.868 10,8.889 10,3.893ZM32,5.435C29.704,5.791 26.45,6.442 23.822,6.275C21.591,6.134 17.857,4.713 16,4.231C16,7.558 16,10.884 16,14.211C19.103,15.038 21.987,16.548 25.668,16.317C29.635,16.068 33.686,15.118 37.003,15.01C36.847,12.566 36.522,10.696 36.304,9.019C36.033,6.93 34.291,5.079 32,5.435ZM9.998,29.863C8.44,30.036 5.314,30.579 4.002,30.751C1.734,31.048 0.032,29.153 0.333,26.993C0.533,25.559 1.091,22.403 1.255,21.019C5.472,21.027 7.08,20.264 10.188,19.868C10.158,20.935 9.962,26.498 9.998,29.863ZM32.069,31.737C21.734,33.209 21.226,31.604 16,30.211L16,20.211C19.108,21.039 21.982,22.547 25.672,22.317C29.65,22.069 33.712,21.121 37.038,21.013C37.008,21.507 36.994,21.734 36.472,27.17C36.268,29.3 34.172,31.438 32.069,31.737Z" style="fill:rgb(0,56,151);fill-rule:nonzero;"/>
                </g>
                <g transform="matrix(0.896117,3.24196e-17,-3.24196e-17,0.896117,219.046,223.655)">
                    <path d="M14.5,3.905C13.113,3.671 11.841,3.751 11.556,3.766C11.54,9.519 11.569,9.505 11.593,15.245C7.976,15.497 5.842,16.663 1.406,16.612C1.421,16.847 1.496,18.038 1.393,19.56C6.057,19.588 7.918,18.478 11.586,18.241C11.578,19.17 11.475,25.805 11.499,29.736C11.825,29.718 13.11,29.634 14.5,29.876L14.5,18.376C17.374,18.874 21.361,20.747 24.174,20.833C27.887,20.947 33.27,19.636 37.102,19.513C37.108,19.273 37.137,18.064 37.079,16.51C33.255,16.634 27.883,17.946 24.174,17.833C21.363,17.747 17.378,15.875 14.5,15.376C14.5,11.552 14.5,7.728 14.5,3.905Z" style="fill:rgb(215,40,40);fill-rule:nonzero;"/>
                </g>
                <g transform="matrix(0.896117,3.24196e-17,-3.24196e-17,0.896117,219.046,223.655)">
                    <path d="M14.5,29.876C14.621,29.897 15.195,29.996 16,30.211L16,20.211C19.108,21.039 21.982,22.547 25.672,22.317C29.65,22.069 33.712,21.121 37.038,21.013L37.102,19.513C33.271,19.636 27.891,20.947 24.174,20.833C21.363,20.747 17.378,18.875 14.5,18.376L14.5,29.876ZM16,4.231C15.195,4.022 14.621,3.925 14.5,3.905C14.5,7.728 14.5,11.552 14.5,15.376C17.374,15.874 21.362,17.747 24.174,17.833C27.878,17.946 33.254,16.634 37.079,16.51L37.003,15.01C33.532,15.123 28.283,16.301 24.932,16.342C21.75,16.38 18.779,14.952 16,14.211C16,10.884 16,7.558 16,4.231ZM11.5,3.769L10,3.893C10,8.889 10.021,8.868 10.187,13.881C7.053,14.299 5.268,15.108 1.254,15.076C1.358,15.846 1.399,16.489 1.406,16.612C5.87,16.663 7.919,15.507 11.564,15.247C11.528,9.5 11.5,9.522 11.5,3.769ZM1.393,19.56L1.255,21.019C5.472,21.027 7.08,20.264 10.188,19.868C10.158,20.935 9.962,26.498 9.998,29.863C10.793,29.775 11.378,29.743 11.499,29.736C11.466,25.755 11.557,19.149 11.563,18.242C7.875,18.485 6.094,19.588 1.393,19.56Z" style="fill:rgb(238,238,238);fill-rule:nonzero;"/>
                </g>
            </g>
        </g>
    </g>
</svg>
