<?xml version="1.0" encoding="UTF-8" standalone="no"?>
<!DOCTYPE svg PUBLIC "-//W3C//DTD SVG 1.1//EN" "http://www.w3.org/Graphics/SVG/1.1/DTD/svg11.dtd">
<svg width="100%" height="100%" viewBox="0 0 512 512" version="1.1" xmlns="http://www.w3.org/2000/svg" xmlns:xlink="http://www.w3.org/1999/xlink" xml:space="preserve" xmlns:serif="http://www.serif.com/" style="fill-rule:evenodd;clip-rule:evenodd;stroke-linejoin:round;stroke-miterlimit:2;">
    <g transform="matrix(1.11593,-4.03717e-17,4.03717e-17,1.11593,-13.9687,-19.1113)">
        <g transform="matrix(11.1111,-2.35563e-31,0,11.1111,-2371.15,-2417.74)">
            <g>
                <g transform="matrix(0.896117,3.24196e-17,-3.24196e-17,0.896117,219.046,223.655)">
                    <path d="M0.333,26.993C0.034,29.14 1.748,31.046 4.002,30.751C11.37,29.786 11.847,28.83 18.359,30.934C21.72,32.02 23.307,32.985 32.069,31.737C34.158,31.44 36.269,29.284 36.472,27.17C36.512,26.758 36.937,22.33 36.965,22.012C29.007,22.271 27.296,24.816 19.08,22.171C16.122,21.219 14.273,20.425 10.554,20.818C7.067,21.187 5.709,22.004 1.125,22.002C1.022,22.707 0.496,25.824 0.333,26.993Z" style="fill:rgb(19,136,8);fill-rule:nonzero;"/>
                </g>
                <g transform="matrix(0.896117,3.24196e-17,-3.24196e-17,0.896117,219.046,223.655)">
                    <path d="M36.931,14.011C36.815,12.546 36.417,9.89 36.304,9.019C36.034,6.943 34.275,5.082 32,5.435C24.446,6.606 24.298,6.804 18.359,4.935C11.85,2.887 11.375,3.817 4,4.757C1.915,5.023 -0.022,6.75 0.255,9.01C0.445,10.564 1.009,13.615 1.083,14.014C6.932,14.022 9.875,12.241 14.04,12.804C16.931,13.195 20.485,14.916 23.399,15.266C26.842,15.68 32.877,14.143 36.931,14.011Z" style="fill:rgb(255,153,51);fill-rule:nonzero;"/>
                </g>
                <g transform="matrix(0.896117,3.24196e-17,-3.24196e-17,0.896117,219.046,223.655)">
                    <path d="M1.017,13.669C6.925,13.67 9.882,11.909 14.04,12.471C16.931,12.862 20.485,14.583 23.399,14.933C26.857,15.348 32.837,13.812 36.903,13.679C37.325,18.265 37,21.655 36.934,22.345C28.992,22.605 27.296,25.15 19.08,22.505C16.114,21.551 14.276,20.76 10.544,21.152C7.009,21.523 5.696,22.334 1.075,22.334C1.651,18.577 1.488,16.136 1.017,13.669Z" style="fill:rgb(247,247,247);fill-rule:nonzero;"/>
                </g>
                <g transform="matrix(0.896117,3.24196e-17,-3.24196e-17,0.896117,219.046,223.655)">
                    <path d="M18,13.816C19.994,14.467 21.999,16.708 21.999,19.019C21.999,21.073 20.4,22.599 18,21.816C16.062,21.183 14,19.144 14,16.799C14,14.734 15.62,13.039 18,13.816Z" style="fill:rgb(0,0,128);"/>
                </g>
                <g transform="matrix(0.896117,3.24196e-17,-3.24196e-17,0.896117,219.046,223.655)">
                    <path d="M18,14.441C19.735,15.007 21.374,16.945 21.374,18.866C21.374,20.633 19.979,21.837 18,21.191C16.295,20.634 14.625,18.839 14.625,16.898C14.625,15.128 16.03,13.798 18,14.441Z" style="fill:rgb(247,247,247);"/>
                </g>
                <g transform="matrix(0.896117,3.24196e-17,-3.24196e-17,0.896117,219.046,223.655)">
                    <path d="M18.1,16.599L18,17.216L17.9,16.533C17.933,15.894 17.966,15.255 18,14.616C18.033,15.277 18.066,15.938 18.1,16.599ZM17.172,14.46C17.308,15.14 17.444,15.819 17.58,16.498L17.845,17.185L17.773,16.509C17.572,15.826 17.372,15.143 17.172,14.46ZM16.4,14.55C16.696,15.218 16.992,15.886 17.288,16.555L17.7,17.199L17.462,16.509C16.876,15.419 16.485,14.706 16.4,14.55ZM15.737,14.879C15.843,15.024 16.327,15.683 17.045,16.699L17.576,17.255L17.187,16.601C16.381,15.624 15.855,15.015 15.737,14.879ZM15.229,15.421C15.363,15.538 15.961,16.06 16.867,16.92L17.48,17.348L16.967,16.776C15.999,15.987 15.371,15.525 15.229,15.421ZM14.909,16.125C15.061,16.205 15.735,16.56 16.767,17.201L17.42,17.474L16.818,17.023C15.754,16.477 15.065,16.19 14.909,16.125ZM14.8,16.931C14.958,16.97 15.664,17.144 16.75,17.523L17.4,17.623L16.75,17.323C15.664,17.055 14.957,16.954 14.8,16.931ZM14.909,17.781C15.062,17.779 15.754,17.772 16.818,17.863L17.42,17.784L16.767,17.655C15.735,17.681 15.057,17.763 14.909,17.781ZM15.229,18.621C15.366,18.581 15.999,18.4 16.967,18.2L17.48,17.948L16.867,17.996C15.961,18.31 15.358,18.566 15.229,18.621ZM15.737,19.405C15.851,19.331 16.381,18.987 17.187,18.511L17.576,18.103L17.045,18.325C16.327,18.9 15.84,19.317 15.737,19.405ZM16.4,20.092C16.484,19.986 16.876,19.493 17.462,18.775L17.7,18.239L17.288,18.621C16.807,19.411 16.47,19.974 16.4,20.092ZM17.172,20.642C17.372,20.087 17.572,19.531 17.773,18.975L17.845,18.345L17.58,18.862C17.444,19.455 17.308,20.049 17.172,20.642ZM18,21.016C18.033,20.377 18.066,19.738 18.1,19.099L18,18.416L17.9,19.033C17.933,19.694 17.966,20.355 18,21.016ZM18.828,21.179C18.692,20.498 18.556,19.817 18.42,19.136L18.155,18.447L18.227,19.123C18.427,19.809 18.627,20.494 18.828,21.179ZM19.6,21.111C19.304,20.435 19.008,19.759 18.712,19.083L18.3,18.434L18.538,19.126C18.892,19.788 19.246,20.45 19.6,21.111ZM20.263,20.812C20.157,20.663 19.754,20.093 18.955,18.943L18.424,18.379L18.813,19.038C19.731,20.17 20.146,20.671 20.263,20.812ZM20.771,20.3C20.638,20.176 20.121,19.691 19.133,18.727L18.52,18.287L19.033,18.868C20.1,19.764 20.63,20.187 20.771,20.3ZM21.091,19.618C20.94,19.528 20.349,19.175 19.233,18.448L18.58,18.162L19.182,18.625C20.338,19.25 20.936,19.542 21.091,19.618ZM21.2,18.82C21.042,18.769 20.423,18.57 19.25,18.127L18.6,18.013L19.25,18.327C20.423,18.65 21.042,18.785 21.2,18.82ZM21.091,17.962C20.937,17.953 20.338,17.916 19.182,17.785L18.58,17.852L19.233,17.994C20.349,17.998 20.942,17.969 21.091,17.962ZM20.771,17.1C20.632,17.131 20.1,17.249 19.033,17.444L18.52,17.687L19.133,17.651C20.121,17.334 20.64,17.147 20.771,17.1ZM20.263,16.286C20.147,16.355 19.731,16.603 18.813,17.128L18.424,17.531L18.955,17.317C19.754,16.694 20.159,16.369 20.263,16.286ZM19.6,15.569C19.246,16 18.892,16.43 18.538,16.86L18.3,17.394L18.712,17.017C19.008,16.535 19.304,16.052 19.6,15.569ZM18.828,14.997C18.627,15.551 18.427,16.104 18.227,16.657L18.155,17.287L18.42,16.772C18.556,16.18 18.692,15.589 18.828,14.997Z" style="fill:rgb(102,102,179);fill-rule:nonzero;"/>
                </g>
                <g transform="matrix(0.896117,3.24196e-17,-3.24196e-17,0.896117,219.046,223.655)">
                    <path d="M17.56,14.133C17.668,14.167 17.76,14.281 17.76,14.397C17.76,14.509 17.661,14.565 17.56,14.533C17.451,14.498 17.36,14.385 17.36,14.269C17.36,14.158 17.458,14.1 17.56,14.133Z" style="fill:rgb(0,0,128);"/>
                    <path d="M16.71,14.098C16.819,14.13 16.91,14.243 16.91,14.358C16.91,14.469 16.812,14.528 16.71,14.498C16.601,14.466 16.51,14.355 16.51,14.24C16.51,14.129 16.607,14.068 16.71,14.098Z" style="fill:rgb(0,0,128);"/>
                    <path d="M15.948,14.323C16.057,14.352 16.148,14.463 16.148,14.577C16.148,14.687 16.051,14.75 15.948,14.723C15.839,14.694 15.748,14.585 15.748,14.471C15.748,14.361 15.844,14.296 15.948,14.323Z" style="fill:rgb(0,0,128);"/>
                    <path d="M15.326,14.791C15.435,14.816 15.526,14.925 15.526,15.038C15.526,15.148 15.43,15.215 15.326,15.191C15.217,15.166 15.126,15.06 15.126,14.946C15.126,14.837 15.221,14.767 15.326,14.791Z" style="fill:rgb(0,0,128);"/>
                    <path d="M14.887,15.458C14.997,15.48 15.087,15.587 15.087,15.7C15.087,15.809 14.992,15.879 14.887,15.858C14.778,15.836 14.687,15.732 14.687,15.619C14.687,15.51 14.781,15.437 14.887,15.458Z" style="fill:rgb(0,0,128);"/>
                    <path d="M14.659,16.264C14.769,16.284 14.859,16.39 14.859,16.503C14.859,16.612 14.764,16.684 14.659,16.664C14.55,16.644 14.459,16.541 14.459,16.428C14.459,16.32 14.553,16.244 14.659,16.264Z" style="fill:rgb(0,0,128);"/>
                    <path d="M14.659,17.144C14.769,17.164 14.859,17.27 14.859,17.383C14.859,17.492 14.764,17.564 14.659,17.544C14.55,17.524 14.459,17.421 14.459,17.308C14.459,17.2 14.553,17.124 14.659,17.144Z" style="fill:rgb(0,0,128);"/>
                    <path d="M14.887,18.038C14.997,18.06 15.087,18.167 15.087,18.28C15.087,18.389 14.992,18.459 14.887,18.438C14.778,18.416 14.687,18.312 14.687,18.199C14.687,18.09 14.781,18.017 14.887,18.038Z" style="fill:rgb(0,0,128);"/>
                    <path d="M15.326,18.895C15.435,18.92 15.526,19.029 15.526,19.142C15.526,19.252 15.43,19.319 15.326,19.295C15.217,19.27 15.126,19.164 15.126,19.05C15.126,18.941 15.221,18.871 15.326,18.895Z" style="fill:rgb(0,0,128);"/>
                    <path d="M15.948,19.671C16.057,19.7 16.148,19.811 16.148,19.925C16.148,20.035 16.051,20.098 15.948,20.071C15.839,20.042 15.748,19.933 15.748,19.819C15.748,19.709 15.844,19.644 15.948,19.671Z" style="fill:rgb(0,0,128);"/>
                    <path d="M16.71,20.324C16.819,20.356 16.91,20.469 16.91,20.584C16.91,20.695 16.812,20.754 16.71,20.724C16.601,20.692 16.51,20.581 16.51,20.466C16.51,20.355 16.607,20.294 16.71,20.324Z" style="fill:rgb(0,0,128);"/>
                    <path d="M17.56,20.815C17.668,20.849 17.76,20.963 17.76,21.079C17.76,21.191 17.661,21.247 17.56,21.215C17.451,21.18 17.36,21.067 17.36,20.951C17.36,20.84 17.458,20.782 17.56,20.815Z" style="fill:rgb(0,0,128);"/>
                    <path d="M18.44,21.101C18.548,21.137 18.64,21.251 18.64,21.367C18.64,21.479 18.541,21.535 18.44,21.501C18.331,21.466 18.24,21.352 18.24,21.236C18.24,21.124 18.339,21.068 18.44,21.101Z" style="fill:rgb(0,0,128);"/>
                    <path d="M19.29,21.153C19.398,21.188 19.49,21.302 19.49,21.418C19.49,21.53 19.391,21.586 19.29,21.553C19.181,21.518 19.09,21.404 19.09,21.288C19.09,21.176 19.189,21.12 19.29,21.153Z" style="fill:rgb(0,0,128);"/>
                    <path d="M20.052,20.958C20.16,20.991 20.252,21.104 20.252,21.219C20.252,21.331 20.153,21.389 20.052,21.358C19.943,21.324 19.852,21.21 19.852,21.095C19.852,20.983 19.95,20.926 20.052,20.958Z" style="fill:rgb(0,0,128);"/>
                    <path d="M20.674,20.524C20.782,20.555 20.874,20.666 20.874,20.781C20.874,20.892 20.776,20.954 20.674,20.924C20.565,20.892 20.474,20.78 20.474,20.665C20.474,20.554 20.571,20.494 20.674,20.524Z" style="fill:rgb(0,0,128);"/>
                    <path d="M21.113,19.886C21.221,19.916 21.313,20.025 21.313,20.14C21.313,20.25 21.216,20.314 21.113,20.286C21.003,20.256 20.913,20.145 20.913,20.03C20.913,19.92 21.01,19.858 21.113,19.886Z" style="fill:rgb(0,0,128);"/>
                    <path d="M21.341,19.097C21.449,19.126 21.54,19.235 21.54,19.349C21.54,19.459 21.444,19.524 21.341,19.497C21.231,19.468 21.141,19.358 21.141,19.244C21.141,19.133 21.237,19.07 21.341,19.097Z" style="fill:rgb(0,0,128);"/>
                    <path d="M21.341,18.217C21.449,18.246 21.54,18.355 21.54,18.469C21.54,18.579 21.444,18.644 21.341,18.617C21.231,18.588 21.141,18.478 21.141,18.364C21.141,18.253 21.237,18.19 21.341,18.217Z" style="fill:rgb(0,0,128);"/>
                    <path d="M21.113,17.306C21.221,17.336 21.313,17.445 21.313,17.56C21.313,17.67 21.216,17.734 21.113,17.706C21.003,17.676 20.913,17.565 20.913,17.45C20.913,17.34 21.01,17.278 21.113,17.306Z" style="fill:rgb(0,0,128);"/>
                    <path d="M20.674,16.42C20.782,16.451 20.874,16.562 20.874,16.677C20.874,16.788 20.776,16.85 20.674,16.82C20.565,16.788 20.474,16.676 20.474,16.561C20.474,16.45 20.571,16.39 20.674,16.42Z" style="fill:rgb(0,0,128);"/>
                    <path d="M20.052,15.61C20.16,15.643 20.252,15.756 20.252,15.871C20.252,15.983 20.153,16.041 20.052,16.01C19.943,15.976 19.852,15.862 19.852,15.747C19.852,15.635 19.95,15.578 20.052,15.61Z" style="fill:rgb(0,0,128);"/>
                    <path d="M19.29,14.927C19.398,14.962 19.49,15.076 19.49,15.192C19.49,15.304 19.391,15.36 19.29,15.327C19.181,15.292 19.09,15.178 19.09,15.062C19.09,14.95 19.189,14.894 19.29,14.927Z" style="fill:rgb(0,0,128);"/>
                    <path d="M18.44,14.419C18.548,14.455 18.64,14.569 18.64,14.685C18.64,14.797 18.541,14.853 18.44,14.819C18.331,14.784 18.24,14.67 18.24,14.554C18.24,14.442 18.339,14.386 18.44,14.419Z" style="fill:rgb(0,0,128);"/>
                    <path d="M18,16.916C18.487,17.075 18.9,17.628 18.9,18.112C18.9,18.59 18.495,18.878 18,18.716C17.512,18.557 17.1,18.013 17.1,17.529C17.1,17.05 17.506,16.755 18,16.916Z" style="fill:rgb(0,0,128);"/>
                </g>
            </g>
        </g>
    </g>
</svg>
