<?xml version="1.0" encoding="UTF-8" standalone="no"?>
<!DOCTYPE svg PUBLIC "-//W3C//DTD SVG 1.1//EN" "http://www.w3.org/Graphics/SVG/1.1/DTD/svg11.dtd">
<svg width="100%" height="100%" viewBox="0 0 512 512" version="1.1" xmlns="http://www.w3.org/2000/svg" xmlns:xlink="http://www.w3.org/1999/xlink" xml:space="preserve" xmlns:serif="http://www.serif.com/" style="fill-rule:evenodd;clip-rule:evenodd;stroke-linejoin:round;stroke-miterlimit:2;">
    <g transform="matrix(1.11593,-4.03717e-17,4.03717e-17,1.11593,-13.9687,-19.1113)">
        <g transform="matrix(11.1111,-2.35563e-31,0,11.1111,-2371.15,-2417.74)">
            <g>
                <g transform="matrix(0.896117,3.24196e-17,-3.24196e-17,0.896117,219.046,223.655)">
                    <path d="M32,5.435C24.446,6.606 24.298,6.804 18.359,4.935C11.85,2.887 11.375,3.817 4,4.757C1.899,5.025 -0.023,6.737 0.255,9.01C0.715,12.775 1.468,14.811 1.448,18.098C8.275,18.167 10.205,15.414 16.92,17.474C21.309,18.821 22.476,19.649 27.134,19.208C29.699,18.965 34.245,18.104 37.114,18.012C37.08,13.821 36.527,10.739 36.304,9.019C36.033,6.93 34.291,5.079 32,5.435Z" style="fill:rgb(220,31,38);fill-rule:nonzero;"/>
                </g>
                <g transform="matrix(0.896117,3.24196e-17,-3.24196e-17,0.896117,219.046,223.655)">
                    <path d="M36.472,27.17C36.268,29.3 34.172,31.438 32.069,31.737C22.764,33.062 21.617,31.929 16.923,30.475C12.024,28.957 9.406,30.043 4.002,30.751C1.734,31.048 0.032,29.153 0.333,26.993C0.719,24.226 1.43,21.101 1.448,18.098C8.275,18.167 10.205,15.414 16.92,17.474C21.309,18.821 22.476,19.649 27.134,19.208C29.699,18.965 34.245,18.104 37.114,18.012C37.132,20.306 37.043,21.232 36.472,27.17Z" style="fill:rgb(238,238,238);fill-rule:nonzero;"/>
                </g>
            </g>
        </g>
    </g>
</svg>
