<?xml version="1.0" encoding="UTF-8" standalone="no"?>
<!DOCTYPE svg PUBLIC "-//W3C//DTD SVG 1.1//EN" "http://www.w3.org/Graphics/SVG/1.1/DTD/svg11.dtd">
<svg width="100%" height="100%" viewBox="0 0 512 512" version="1.1" xmlns="http://www.w3.org/2000/svg" xmlns:xlink="http://www.w3.org/1999/xlink" xml:space="preserve" xmlns:serif="http://www.serif.com/" style="fill-rule:evenodd;clip-rule:evenodd;stroke-linejoin:round;stroke-miterlimit:2;">
    <g transform="matrix(1.11593,-4.03717e-17,4.03717e-17,1.11593,-13.9687,-19.1113)">
        <g transform="matrix(11.1111,-2.35563e-31,0,11.1111,-2371.15,-2417.74)">
            <g>
                <g transform="matrix(0.896117,3.24196e-17,-3.24196e-17,0.896117,219.046,223.655)">
                    <path d="M0.333,26.993C0.032,29.153 1.734,31.048 4.002,30.751C11.37,29.786 11.847,28.83 18.359,30.934C21.72,32.02 23.307,32.985 32.069,31.737C34.172,31.438 36.268,29.3 36.472,27.17C36.5,26.88 36.765,24.044 36.862,23.071C27.88,23.393 27.679,25.945 18.36,22.934C9.959,20.22 9.783,22.994 0.971,22.997C0.429,26.349 0.424,26.338 0.333,26.993Z" style="fill:rgb(218,0,1);fill-rule:nonzero;"/>
                </g>
                <g transform="matrix(0.896117,3.24196e-17,-3.24196e-17,0.896117,219.046,223.655)">
                    <path d="M0.892,13.007C6.763,13.011 9.897,11.244 14.04,11.804C16.931,12.195 20.485,13.916 23.399,14.266C26.851,14.681 32.801,13.147 36.836,13.017C37.376,17.912 36.941,22.27 36.862,23.071C27.88,23.393 27.679,25.945 18.36,22.934C9.959,20.22 9.783,22.994 0.971,22.997C1.792,17.917 1.408,15.774 0.892,13.007Z" style="fill:rgb(238,238,238);fill-rule:nonzero;"/>
                </g>
                <g transform="matrix(0.896117,3.24196e-17,-3.24196e-17,0.896117,219.046,223.655)">
                    <path d="M36.836,13.017C36.736,12.112 36.336,9.263 36.304,9.019C36.033,6.93 34.291,5.079 32,5.435C24.446,6.606 24.298,6.804 18.359,4.935C11.85,2.887 11.375,3.817 4,4.757C1.899,5.025 -0.023,6.737 0.255,9.01C0.459,10.68 0.833,12.689 0.892,13.007C6.763,13.011 9.897,11.244 14.04,11.804C16.931,12.195 20.485,13.916 23.399,14.266C26.851,14.681 32.801,13.147 36.836,13.017Z" style="fill:rgb(35,159,64);fill-rule:nonzero;"/>
                </g>
                <g transform="matrix(0.896117,3.24196e-17,-3.24196e-17,0.896117,219.046,223.655)">
                    <path d="M0.971,22.997C9.801,22.994 9.976,20.225 18.36,22.934C27.676,25.944 27.876,23.393 36.862,23.071L36.756,24.151C27.609,24.568 27.409,26.858 18.36,23.934C9.89,21.198 9.71,23.986 0.807,23.993L0.971,22.997Z" style="fill:rgb(233,102,103);fill-rule:nonzero;"/>
                </g>
                <g transform="matrix(0.896117,3.24196e-17,-3.24196e-17,0.896117,219.046,223.655)">
                    <path d="M19.465,15.266C20.522,16.149 22.431,19.222 20.263,21.249C21.497,21.353 23.563,17.962 19.465,15.266ZM16.528,14.327C12.862,14.491 14.087,19.061 15.73,19.841C13.433,16.411 15.699,14.511 16.528,14.327ZM17.981,14.636C18.024,14.861 19.077,15.394 18.955,14.383C18.814,14.679 18.354,14.612 17.987,14.272C17.557,14.371 17.146,14.171 16.999,13.731C16.854,14.427 17.6,14.879 17.981,14.636Z" style="fill:rgb(190,25,49);fill-rule:nonzero;"/>
                    <path d="M20.538,18.536C20.523,17.306 19.841,15.959 19.209,15.319C19.691,16.068 20.899,19.359 18.424,20.411C18.439,18.717 18.455,17.023 18.471,15.33L17.996,14.756L17.521,15C17.547,16.724 17.574,18.448 17.601,20.172L17.583,20.151C14.914,17.304 16.484,14.812 16.781,14.537C16.141,14.785 15.466,15.749 15.452,16.976C15.429,18.891 17.14,20.547 17.286,20.696C16.535,20.661 15.74,20.454 15.608,20.42C16.056,20.775 17.449,21.094 17.615,21.132L17.616,21.201L18.014,21.766L18.414,21.443L18.414,21.391C18.569,21.456 19.952,22.04 20.453,21.917C20.307,21.876 19.562,21.664 18.721,21.151C20.06,20.635 20.55,19.561 20.538,18.536Z" style="fill:rgb(190,25,49);fill-rule:nonzero;"/>
                </g>
                <g transform="matrix(0.896117,3.24196e-17,-3.24196e-17,0.896117,219.046,223.655)">
                    <path d="M0.712,12.012C6.547,12.019 9.917,10.247 14.04,10.804C16.931,11.195 20.485,12.916 23.399,13.266C26.86,13.682 32.703,12.15 36.715,12.021L36.836,13.017C28.966,13.271 27.295,15.816 19.08,13.171C16.066,12.201 14.278,11.428 10.519,11.819C6.974,12.187 5.462,13.01 0.892,13.007L0.712,12.012Z" style="fill:rgb(123,197,140);fill-rule:nonzero;"/>
                </g>
            </g>
        </g>
    </g>
</svg>
