<?xml version="1.0" encoding="UTF-8" standalone="no"?>
<!DOCTYPE svg PUBLIC "-//W3C//DTD SVG 1.1//EN" "http://www.w3.org/Graphics/SVG/1.1/DTD/svg11.dtd">
<svg width="100%" height="100%" viewBox="0 0 512 512" version="1.1" xmlns="http://www.w3.org/2000/svg" xmlns:xlink="http://www.w3.org/1999/xlink" xml:space="preserve" xmlns:serif="http://www.serif.com/" style="fill-rule:evenodd;clip-rule:evenodd;stroke-linejoin:round;stroke-miterlimit:2;">
    <g transform="matrix(1.11593,-4.03717e-17,4.03717e-17,1.11593,-13.9687,-19.1113)">
        <g transform="matrix(11.1111,-2.35563e-31,0,11.1111,-2371.15,-2417.74)">
            <g>
                <g transform="matrix(0.896117,3.24196e-17,-3.24196e-17,0.896117,219.046,223.655)">
                    <path d="M0.333,26.993C0.032,29.153 1.734,31.048 4.002,30.751C11.37,29.786 11.847,28.83 18.359,30.934C21.72,32.02 23.307,32.985 32.069,31.737C34.172,31.438 36.268,29.3 36.472,27.17C36.5,26.88 36.765,24.044 36.862,23.071C27.88,23.393 27.679,25.945 18.36,22.934C9.959,20.22 9.783,22.994 0.971,22.997C0.429,26.349 0.424,26.338 0.333,26.993Z" style="fill:rgb(20,20,20);fill-rule:nonzero;"/>
                </g>
                <g transform="matrix(0.896117,3.24196e-17,-3.24196e-17,0.896117,219.046,223.655)">
                    <path d="M0.892,13.007C6.763,13.011 9.897,11.244 14.04,11.804C16.931,12.195 20.485,13.916 23.399,14.266C26.851,14.681 32.801,13.147 36.836,13.017C37.376,17.912 36.941,22.27 36.862,23.071C27.88,23.393 27.679,25.945 18.36,22.934C9.959,20.22 9.783,22.994 0.971,22.997C1.792,17.917 1.408,15.774 0.892,13.007Z" style="fill:rgb(238,238,238);fill-rule:nonzero;"/>
                </g>
                <g transform="matrix(0.896117,3.24196e-17,-3.24196e-17,0.896117,219.046,223.655)">
                    <path d="M32,5.435C24.446,6.606 24.298,6.804 18.359,4.935C11.85,2.887 11.375,3.817 4,4.757C1.899,5.025 -0.023,6.737 0.255,9.01C0.459,10.68 0.833,12.689 0.892,13.007C6.763,13.011 9.897,11.244 14.04,11.804C16.931,12.195 20.485,13.916 23.399,14.266C26.851,14.681 32.801,13.147 36.836,13.017C36.736,12.112 36.336,9.263 36.304,9.019C36.033,6.93 34.291,5.079 32,5.435Z" style="fill:rgb(221,46,68);fill-rule:nonzero;"/>
                </g>
                <g transform="matrix(0.896117,3.24196e-17,-3.24196e-17,0.896117,219.046,223.655)">
                    <path d="M11.32,16.825L11.315,18.05C13.02,17.913 14.41,18.005 16.878,18.75L16.878,18.013C16.878,17.8 16.509,17.542 16.509,17.842L16.509,18.394C14.314,17.76 13.039,17.723 12.111,17.757L12.112,16.898C12.336,16.651 13.388,15.494 15.188,14.092L15.659,14.704C14.101,15.891 13.056,16.924 12.844,17.133C14.143,17.163 15.542,17.52 15.772,17.578C15.805,17.374 16.037,16.779 16.703,16.976L17.615,17.893L17.615,20.207C14.849,19.321 13.033,18.953 9.663,19.462C9.608,19.753 9.264,20.563 8.378,20.606C8.682,20.326 9.148,19.709 9.163,19.239C9.184,18.571 8.797,18.193 8.728,18.127L9.389,17.523C9.396,17.565 9.455,17.93 9.522,18.037C9.588,18.143 9.972,18.251 9.851,18.218L10.764,18.099L10.756,17.557L10.623,17.508L11.32,16.825ZM19.529,19.38L19.363,19.553L18.876,19.393C18.876,19.118 18.882,15.977 18.875,15.952C18.852,15.873 19.166,15.798 19.09,15.829L18.108,14.963L18.108,20.369C19.567,20.847 19.553,20.845 19.951,20.97C19.81,20.44 19.669,19.91 19.529,19.38ZM24.993,17.313C24.994,18.418 24.994,19.524 24.995,20.63L24.495,20.632L24.495,17.683L23.88,18.269L23.88,20.604L23.389,20.555L23.389,18.589L22.776,19.113L22.776,19.119L22.642,19.222L22.776,19.298L22.776,19.755C22.201,19.36 21.547,19.665 21.547,20.201L21.547,21.429C23.539,21.931 24.886,21.874 25.63,21.838C25.632,21.426 25.64,19.416 25.627,16.679L24.993,17.313ZM22.422,20.398L22.386,20.39C22.084,20.33 22.246,20.036 22.509,20.087C22.641,20.112 22.749,20.19 22.776,20.326L22.776,20.463L22.422,20.398ZM23.737,16.383C23.737,16.392 23.73,16.66 23.624,16.649C23.522,16.639 23.512,16.387 23.512,16.36C23.512,16.352 23.52,16.086 23.624,16.096C23.728,16.107 23.737,16.354 23.737,16.383ZM22.703,16.989C22.89,17.201 23.181,17.196 23.226,17.195C23.563,17.19 23.692,16.849 23.676,16.89C23.697,16.925 23.871,17.226 24.085,17.187C24.364,17.137 24.647,16.55 24.495,16.813C24.496,16.866 24.505,17.36 24.187,17.397C24.105,17.406 24.019,17.397 23.943,17.364C23.86,17.329 23.694,17.113 23.737,17.191C23.713,17.225 23.571,17.425 23.266,17.404C22.96,17.386 22.673,16.943 22.703,16.989ZM27.845,20.166L27.552,20.454L27.081,20.502C27.082,20.223 27.088,18.83 27.069,17.01L27.345,16.87L26.272,16.392C26.297,19.269 26.283,21.366 26.28,21.798C26.442,21.787 27.18,21.734 28.296,21.595L27.845,20.166Z" style="fill:rgb(0,122,60);fill-rule:nonzero;"/>
                    <path d="M10.826,19.927C10.823,20.064 10.72,20.202 10.578,20.217C10.439,20.232 10.343,20.11 10.347,19.979C10.35,19.844 10.449,19.702 10.591,19.686C10.732,19.67 10.829,19.795 10.826,19.927Z" style="fill:rgb(0,122,60);fill-rule:nonzero;"/>
                </g>
            </g>
        </g>
    </g>
</svg>
