<?xml version="1.0" encoding="UTF-8" standalone="no"?>
<!DOCTYPE svg PUBLIC "-//W3C//DTD SVG 1.1//EN" "http://www.w3.org/Graphics/SVG/1.1/DTD/svg11.dtd">
<svg width="100%" height="100%" viewBox="0 0 512 512" version="1.1" xmlns="http://www.w3.org/2000/svg" xmlns:xlink="http://www.w3.org/1999/xlink" xml:space="preserve" xmlns:serif="http://www.serif.com/" style="fill-rule:evenodd;clip-rule:evenodd;stroke-linejoin:round;stroke-miterlimit:2;">
    <g transform="matrix(1.11593,-4.03717e-17,4.03717e-17,1.11593,-13.9687,-19.1113)">
        <g transform="matrix(11.1111,-2.35563e-31,0,11.1111,-2371.15,-2417.74)">
            <g>
                <g transform="matrix(0.896117,3.24196e-17,-3.24196e-17,0.896117,219.046,223.655)">
                    <path d="M36.472,27.17C36.268,29.3 34.172,31.438 32.069,31.737C22.764,33.062 21.617,31.929 16.923,30.475C12.024,28.957 9.406,30.043 4.002,30.751C1.734,31.048 0.032,29.153 0.333,26.993C0.731,24.136 1.48,20.893 1.447,17.745C1.416,14.7 0.699,12.641 0.255,9.01C-0.023,6.737 1.899,5.025 4,4.757C11.375,3.817 11.85,2.887 18.359,4.935C24.284,6.8 24.43,6.609 32,5.435C34.291,5.079 36.033,6.93 36.304,9.019C37.335,16.956 37.438,17.114 36.472,27.17Z" style="fill:rgb(207,27,43);fill-rule:nonzero;"/>
                </g>
                <g transform="matrix(0.896117,3.24196e-17,-3.24196e-17,0.896117,219.046,223.655)">
                    <path d="M17.635,14.89C18.379,15.129 19.018,15.979 19.018,16.726C19.018,17.457 18.401,17.902 17.635,17.656C16.889,17.416 16.252,16.6 16.252,15.854C16.252,15.118 16.874,14.645 17.635,14.89Z" style="fill:rgb(248,220,21);"/>
                </g>
                <g transform="matrix(0.896117,3.24196e-17,-3.24196e-17,0.896117,219.046,223.655)">
                    <path d="M17.635,15.631C18.379,15.87 19.018,16.72 19.018,17.467C19.018,18.198 18.401,18.643 17.635,18.397C16.889,18.157 16.252,17.341 16.252,16.595C16.252,15.859 16.874,15.386 17.635,15.631Z" style="fill:rgb(248,220,21);"/>
                </g>
                <g transform="matrix(0.896117,3.24196e-17,-3.24196e-17,0.896117,219.046,223.655)">
                    <path d="M9.953,10.992C10.284,10.769 11.305,12.389 11.927,12.328C12.336,12.288 14.51,11.017 15.563,11.175C15.563,10.719 16.353,10.945 16.421,10.964C17.329,11.223 17.426,11.824 17.493,12.276C17.584,12.447 18.175,13.56 18.479,14.484C18.723,15.226 18.78,15.845 18.78,15.957C18.707,16.005 18.137,16.387 17.75,16.305C17.409,16.233 16.404,15.589 16.292,15.518C16.269,15.341 16.078,13.835 15.992,13.315L15.692,12.913C15.6,12.991 15.123,13.261 14.491,13.257C12.27,13.244 12.275,13.226 12.102,13.268C11.791,13.344 11.672,13.925 11.381,13.912C11.091,13.899 11.192,12.943 10.634,12.59C9.956,12.161 9.525,11.281 9.953,10.992ZM17.421,25.819C17.093,25.498 18.046,24.023 17.692,23.371C17.319,22.685 15.002,20.883 14.539,20.148C14.161,20.3 13.77,19.579 13.731,19.507C13.313,18.737 13.615,18.415 14.049,18.124C14.125,17.988 14.63,17.083 15.191,16.535C15.629,16.104 16.114,15.882 16.229,15.848C16.328,15.902 17.095,16.321 17.338,16.726C17.568,17.111 17.748,18.171 17.77,18.3C17.633,18.361 16.605,18.816 16.083,19.112L15.952,19.499C16.128,19.584 16.691,19.981 17.072,20.561C17.327,20.949 18.314,22.831 18.422,22.989C18.645,23.317 19.2,23.322 19.329,23.657C19.458,23.993 18.582,24.042 18.526,24.746C18.457,25.602 17.863,26.25 17.421,25.819ZM25.807,13.975C25.783,14.382 23.705,14.501 23.455,14.97C23.189,15.47 23.333,18.078 22.963,18.827C23.343,19.106 22.954,19.716 22.912,19.78C22.445,20.514 21.904,20.168 21.522,19.923C21.347,19.887 20.353,19.68 19.395,19.203C18.753,18.885 18.188,18.457 18.057,18.339C18.033,18.24 17.822,17.383 17.976,17.077C18.131,16.774 18.912,16.37 19.003,16.323C19.159,16.439 20.374,17.342 20.99,17.74L21.421,17.759C21.391,17.658 21.226,17.101 21.501,16.439C21.631,16.124 22.494,14.672 22.553,14.508C22.659,14.216 22.236,13.727 22.419,13.512C22.589,13.314 23.358,14.005 23.992,13.744C24.781,13.422 25.838,13.443 25.807,13.975Z" style="fill:white;fill-rule:nonzero;"/>
                </g>
                <g transform="matrix(0.896117,3.24196e-17,-3.24196e-17,0.896117,219.046,223.655)">
                    <path d="M11.667,13.628L12.026,13.938L12.488,13.8L12.301,14.263L12.558,14.676L12.084,14.645L11.788,15.044L11.681,14.564L11.253,14.413L11.645,14.127L11.667,13.628ZM18.946,23.393L19.041,22.934L18.693,22.464L19.187,22.567L19.417,22.201L19.626,22.722L20.117,22.959L19.753,23.184L19.824,23.697L19.391,23.316L18.946,23.393ZM22.491,13.928L22.02,13.992L21.887,14.441L21.588,13.971L21.092,13.861L21.378,13.532L21.205,13.019L21.679,13.286L22.069,13.069L22.076,13.569L22.491,13.928Z" style="fill:rgb(248,220,21);fill-rule:nonzero;"/>
                </g>
            </g>
        </g>
    </g>
</svg>
