<?xml version="1.0" encoding="UTF-8" standalone="no"?>
<!DOCTYPE svg PUBLIC "-//W3C//DTD SVG 1.1//EN" "http://www.w3.org/Graphics/SVG/1.1/DTD/svg11.dtd">
<svg width="100%" height="100%" viewBox="0 0 512 512" version="1.1" xmlns="http://www.w3.org/2000/svg" xmlns:xlink="http://www.w3.org/1999/xlink" xml:space="preserve" xmlns:serif="http://www.serif.com/" style="fill-rule:evenodd;clip-rule:evenodd;stroke-linejoin:round;stroke-miterlimit:2;">
    <g transform="matrix(1.11593,-4.03717e-17,4.03717e-17,1.11593,-13.9687,-19.1113)">
        <g transform="matrix(11.1111,-3.72518e-31,0,11.1111,-2371.15,-2417.74)">
            <g>
                <g transform="matrix(0.896117,3.24196e-17,-3.24196e-17,0.896117,219.046,223.655)">
                    <path d="M20.666,19.669L20.199,20.338L21.133,20.61L20.666,19.669ZM18,21.434L18.467,20.778L17.533,20.474L18,21.434Z" style="fill:rgb(237,236,236);fill-rule:nonzero;"/>
                </g>
                <g transform="matrix(0.896117,3.24196e-17,-3.24196e-17,0.896117,219.046,223.655)">
                    <path d="M0.641,24.991C9.617,24.983 9.803,22.17 18.36,24.934C21.196,25.85 22.856,26.551 26.691,26.284C29.939,26.058 33.775,25.358 36.659,25.187C36.977,21.784 37.542,17.928 36.58,11.023C28.863,11.271 27.306,13.82 19.08,11.171C15.982,10.174 14.284,9.434 10.475,9.82C6.892,10.183 5.04,11.02 0.542,11.013C1.544,17.187 1.914,17.234 0.641,24.991ZM0.397,7.505C5.473,7.508 10.015,5.812 13.887,6.284C16.863,6.647 20.548,8.462 23.544,8.783C26.896,9.142 32.109,7.704 35.838,7.527C35.045,5.973 33.557,5.193 32,5.435C24.446,6.606 24.298,6.804 18.359,4.935C11.85,2.887 11.375,3.817 4,4.757C2.34,4.969 0.858,6.084 0.397,7.505Z" style="fill:rgb(238,238,238);fill-rule:nonzero;"/>
                </g>
                <g transform="matrix(0.896117,3.24196e-17,-3.24196e-17,0.896117,219.046,223.655)">
                    <path d="M21.133,16.992L20.199,16.72L20.666,17.669L21.133,16.992ZM15.801,15.35L14.867,15.135L15.334,16.045L15.801,15.35ZM19.044,19.969C19.663,19.099 20.005,18.613 20.089,18.495C19.74,17.78 19.392,17.065 19.044,16.351C18.877,16.296 17.426,15.819 16.956,15.676C16.392,16.48 15.994,17.066 15.911,17.187C15.995,17.355 16.392,18.146 16.956,19.294C18.016,19.617 17.999,19.625 19.044,19.969ZM15.334,18.045L14.867,18.753L15.801,18.968L15.334,18.045ZM18,14.198L17.533,14.856L18.467,15.16L18,14.198Z" style="fill:rgb(237,236,236);fill-rule:nonzero;"/>
                </g>
                <g transform="matrix(0.896117,3.24196e-17,-3.24196e-17,0.896117,219.046,223.655)">
                    <path d="M0.397,7.505C0.36,7.62 0.16,8.237 0.255,9.01C0.274,9.17 0.369,9.945 0.542,11.013C6.359,11.022 9.936,9.249 14.04,9.804C16.931,10.195 20.485,11.916 23.399,12.266C26.868,12.683 32.594,11.151 36.58,11.023C36.405,9.764 36.404,9.786 36.304,9.019C36.288,8.895 36.203,8.245 35.837,7.527C28.141,7.893 27.274,10.319 18.894,7.61C15.775,6.602 14.183,5.937 10.301,6.331C6.999,6.667 4.234,7.507 0.397,7.505Z" style="fill:rgb(0,56,184);fill-rule:nonzero;"/>
                </g>
                <g transform="matrix(0.896117,3.24196e-17,-3.24196e-17,0.896117,219.046,223.655)">
                    <path d="M0.448,28.496C8.705,28.492 9.576,25.605 18.179,28.375C25.049,30.586 25.201,30.047 36.035,28.663C35.339,30.082 33.76,31.496 32.069,31.737C22.764,33.062 21.617,31.929 16.923,30.475C12.024,28.957 9.406,30.043 4.002,30.751C2.281,30.976 0.888,29.941 0.448,28.496Z" style="fill:rgb(238,238,238);fill-rule:nonzero;"/>
                </g>
                <g transform="matrix(0.896117,3.24196e-17,-3.24196e-17,0.896117,219.046,223.655)">
                    <path d="M0.448,28.496C0.413,28.381 0.225,27.765 0.333,26.993C0.355,26.832 0.447,26.175 0.641,24.991C9.617,24.983 9.803,22.17 18.36,24.934C21.196,25.85 22.856,26.551 26.691,26.284C29.939,26.058 33.775,25.358 36.659,25.187C36.596,25.848 36.534,26.509 36.472,27.17C36.46,27.294 36.401,27.916 36.034,28.663C25.404,30.022 25.015,30.59 18.536,28.492C9.32,25.508 9.121,28.492 0.448,28.496ZM16.378,20.124C16.509,20.388 17.037,21.452 18,23.434C18.54,22.675 19.081,21.916 19.622,21.157C19.877,21.238 21.578,21.785 22.864,21.998C22.732,21.746 22.118,20.581 21.244,18.831C22.118,17.55 22.739,16.578 22.865,16.38C21.579,16.167 19.878,15.621 19.623,15.539C19.082,14.425 18.541,13.312 18,12.198C17.037,13.551 16.506,14.32 16.378,14.506C16.124,14.434 14.53,13.982 13.135,13.908C13.269,14.147 13.899,15.272 14.756,16.922C13.898,18.243 13.26,19.315 13.134,19.526C14.53,19.6 16.124,20.052 16.378,20.124ZM18,21.434L17.533,20.474L18.467,20.778L18,21.434ZM21.133,16.992L20.666,17.669L20.199,16.721L21.133,16.993L21.133,16.992ZM20.666,19.669L21.133,20.609L20.199,20.337L20.666,19.669ZM18,14.198L18.467,15.16L17.533,14.856L18,14.198ZM16.956,15.676C18.017,15.999 17.999,16.007 19.045,16.351C19.393,17.066 19.741,17.78 20.089,18.495C20.005,18.613 19.664,19.099 19.045,19.969C18.878,19.914 17.425,19.437 16.956,19.294C16.392,18.146 15.995,17.355 15.911,17.187C15.994,17.066 16.392,16.48 16.956,15.676ZM15.801,15.35L15.334,16.045L14.867,15.136L15.801,15.351L15.801,15.35ZM15.334,18.045L15.801,18.967L14.867,18.752L15.334,18.045Z" style="fill:rgb(0,56,184);fill-rule:nonzero;"/>
                </g>
            </g>
        </g>
    </g>
</svg>
