<?xml version="1.0" encoding="UTF-8" standalone="no"?>
<!DOCTYPE svg PUBLIC "-//W3C//DTD SVG 1.1//EN" "http://www.w3.org/Graphics/SVG/1.1/DTD/svg11.dtd">
<svg width="100%" height="100%" viewBox="0 0 512 512" version="1.1" xmlns="http://www.w3.org/2000/svg" xmlns:xlink="http://www.w3.org/1999/xlink" xml:space="preserve" xmlns:serif="http://www.serif.com/" style="fill-rule:evenodd;clip-rule:evenodd;stroke-linejoin:round;stroke-miterlimit:2;">
    <g transform="matrix(1.11593,-4.03717e-17,4.03717e-17,1.11593,-13.9687,-19.1113)">
        <g transform="matrix(11.1111,-2.35563e-31,0,11.1111,-2371.15,-2417.74)">
            <g>
                <g transform="matrix(0.896117,3.24196e-17,-3.24196e-17,0.896117,219.046,223.655)">
                    <path d="M32,5.435C24.446,6.606 24.298,6.804 18.359,4.935C11.85,2.887 11.375,3.817 4,4.757C1.899,5.025 -0.023,6.737 0.255,9.01C0.697,12.631 1.416,14.687 1.447,17.745C1.48,20.89 0.734,24.117 0.333,26.993C0.032,29.153 1.734,31.048 4.002,30.751C11.37,29.786 11.847,28.83 18.359,30.934C21.72,32.02 23.307,32.985 32.069,31.737C34.172,31.438 36.268,29.3 36.472,27.17C37.437,17.129 37.336,16.966 36.304,9.019C36.033,6.93 34.291,5.079 32,5.435Z" style="fill:rgb(0,155,58);fill-rule:nonzero;"/>
                </g>
                <g transform="matrix(0.896117,3.24196e-17,-3.24196e-17,0.896117,219.046,223.655)">
                    <path d="M36.104,28.52C36.407,27.849 36.462,27.282 36.472,27.17C37.437,17.129 37.336,16.966 36.304,9.019C36.289,8.908 36.213,8.318 35.908,7.666L35.907,7.664C32.81,10.237 26.343,16.594 21.415,18.877C25.813,23.192 27.744,23.288 36.104,28.52ZM14.584,16.89C10.309,13.034 4.292,10.296 0.353,7.644L0.353,7.645C0.324,7.751 0.169,8.308 0.255,9.01C0.697,12.631 1.416,14.687 1.447,17.745C1.48,20.89 0.734,24.117 0.333,26.993C0.235,27.695 0.379,28.251 0.406,28.357C8.114,23.277 9.75,19.513 14.584,16.89Z" style="fill:rgb(20,20,20);fill-rule:nonzero;"/>
                </g>
                <g transform="matrix(0.896117,3.24196e-17,-3.24196e-17,0.896117,219.046,223.655)">
                    <path d="M32.535,5.391C23.927,13.228 22.963,13.384 18,15.349C11.982,9.038 10.709,9.112 3.465,4.856L3.464,4.856C2.081,5.194 0.741,6.24 0.352,7.643C4.292,10.296 10.308,13.033 14.584,16.89C9.751,19.512 8.116,23.275 0.406,28.357L0.407,28.36C0.76,29.722 1.95,30.755 3.465,30.782L3.469,30.781C11.046,24.512 11.684,22.783 18,20.283C24.419,27.015 24.794,26.592 32.608,31.622C34.059,31.21 35.482,29.897 36.103,28.522L36.104,28.519C27.742,23.286 25.813,23.191 21.415,18.877C26.343,16.594 32.801,10.245 35.907,7.664C35.769,7.369 34.835,5.375 32.535,5.391Z" style="fill:rgb(255,210,2);fill-rule:nonzero;"/>
                </g>
            </g>
        </g>
    </g>
</svg>
