<?xml version="1.0" encoding="UTF-8" standalone="no"?>
<!DOCTYPE svg PUBLIC "-//W3C//DTD SVG 1.1//EN" "http://www.w3.org/Graphics/SVG/1.1/DTD/svg11.dtd">
<svg width="100%" height="100%" viewBox="0 0 512 512" version="1.1" xmlns="http://www.w3.org/2000/svg" xmlns:xlink="http://www.w3.org/1999/xlink" xml:space="preserve" xmlns:serif="http://www.serif.com/" style="fill-rule:evenodd;clip-rule:evenodd;stroke-linejoin:round;stroke-miterlimit:2;">
    <g transform="matrix(1.11593,-4.03717e-17,4.03717e-17,1.11593,-13.9687,-19.1113)">
        <g transform="matrix(11.1111,-2.35563e-31,0,11.1111,-2371.15,-2417.74)">
            <g>
                <g transform="matrix(0.896117,3.24196e-17,-3.24196e-17,0.896117,219.046,223.655)">
                    <path d="M36.472,27.17C36.268,29.3 34.172,31.438 32.069,31.737C22.764,33.062 21.617,31.929 16.923,30.475C12.024,28.957 9.406,30.043 4.002,30.751C1.734,31.048 0.032,29.153 0.333,26.993C0.731,24.136 1.48,20.893 1.447,17.745C1.416,14.7 0.699,12.641 0.255,9.01C-0.023,6.737 1.899,5.025 4,4.757C11.375,3.817 11.85,2.887 18.359,4.935C24.284,6.8 24.43,6.609 32,5.435C34.291,5.079 36.033,6.93 36.304,9.019C37.335,16.956 37.438,17.114 36.472,27.17Z" style="fill:rgb(238,238,238);fill-rule:nonzero;"/>
                </g>
                <g transform="matrix(0.896117,3.24196e-17,-3.24196e-17,0.896117,219.046,223.655)">
                    <path d="M18,10.816C20.614,11.669 25.007,14.94 25.008,19.34C25.009,22.275 22.896,26.414 18,24.816C15.976,24.155 13.833,22.606 12.708,21.284C12.509,21.05 11.113,19.51 11.115,16.783C11.119,13.038 13.691,9.409 18,10.816Z" style="fill:rgb(237,27,47);"/>
                </g>
            </g>
        </g>
    </g>
</svg>
