<?xml version="1.0" encoding="UTF-8" standalone="no"?>
<!DOCTYPE svg PUBLIC "-//W3C//DTD SVG 1.1//EN" "http://www.w3.org/Graphics/SVG/1.1/DTD/svg11.dtd">
<svg width="100%" height="100%" viewBox="0 0 512 512" version="1.1" xmlns="http://www.w3.org/2000/svg" xmlns:xlink="http://www.w3.org/1999/xlink" xml:space="preserve" xmlns:serif="http://www.serif.com/" style="fill-rule:evenodd;clip-rule:evenodd;stroke-linejoin:round;stroke-miterlimit:2;">
    <g transform="matrix(1.11593,-4.03717e-17,4.03717e-17,1.11593,-13.9687,-19.1113)">
        <g transform="matrix(11.1111,-2.35563e-31,0,11.1111,-2371.15,-2417.74)">
            <g>
                <g transform="matrix(0.896117,3.24196e-17,-3.24196e-17,0.896117,219.046,223.655)">
                    <path d="M36.472,27.17C36.268,29.3 34.172,31.438 32.069,31.737C22.764,33.062 21.617,31.929 16.923,30.475C12.024,28.957 9.406,30.043 4.002,30.751C1.734,31.048 0.032,29.153 0.333,26.993C0.731,24.136 1.48,20.893 1.447,17.745C1.416,14.7 0.699,12.641 0.255,9.01C-0.023,6.737 1.899,5.025 4,4.757C11.375,3.817 11.85,2.887 18.359,4.935C24.284,6.8 24.43,6.609 32,5.435C34.291,5.079 36.033,6.93 36.304,9.019C37.335,16.956 37.438,17.114 36.472,27.17Z" style="fill:rgb(238,238,238);fill-rule:nonzero;"/>
                </g>
                <g transform="matrix(0.896117,3.24196e-17,-3.24196e-17,0.896117,219.046,223.655)">
                    <path d="M3.186,4.935C2.926,5.015 1.328,5.51 0.573,7.108C4.592,9.905 10.488,12.407 15.286,17.034C10.034,19.71 8.094,23.797 0.616,28.893C0.721,29.125 1.381,30.585 3.19,30.766C10.993,24.274 11.499,22.485 18,19.816C20.847,22.844 22.64,24.842 25.414,26.799C27.406,28.203 30.688,30.074 32.894,31.53C34.691,30.884 35.633,29.336 35.791,29.077C27.501,23.798 25.697,23.802 20.714,18.683C26.282,16.197 31.679,10.47 35.597,7.14C34.962,6.158 33.969,5.486 32.814,5.401C24.206,13.296 23.621,13.509 18,15.816C11.65,9.064 10.219,9.243 3.186,4.935Z" style="fill:rgb(213,32,72);fill-rule:nonzero;"/>
                </g>
                <g transform="matrix(0.896117,3.24196e-17,-3.24196e-17,0.896117,219.046,223.655)">
                    <path d="M20.531,7.63C20.476,7.635 20.435,7.665 20.397,7.703C20.34,7.762 20.252,7.996 20.277,7.918C20.257,7.868 20.127,7.535 19.672,7.611C19.698,7.646 19.919,7.938 19.867,8.129C19.805,8.353 19.599,8.335 19.424,8.254C19.137,8.122 19.077,7.725 19.084,7.772C19.16,7.782 19.271,7.729 19.281,7.653C19.298,7.524 19.206,7.404 19.092,7.357C18.979,7.311 18.857,7.35 18.857,7.488C18.857,7.579 19.051,7.791 18.988,7.726C18.93,7.832 18.764,7.882 18.648,7.849C18.591,7.833 18.218,7.726 18.212,7.262C18.205,6.849 18.689,7.003 18.733,7.017C18.702,6.872 18.615,6.735 18.505,6.636C18.459,6.595 18.403,6.56 18.342,6.545C18.281,6.53 18.096,6.588 18.153,6.559C18.226,6.418 18.272,6.249 18.244,6.093C18.206,5.887 18.055,5.655 18.033,5.621L18.033,5.602L18.025,5.609L18.017,5.596L18.017,5.617C17.922,5.701 17.832,5.824 17.806,5.952C17.75,6.223 18.067,6.917 17.897,6.477C17.814,6.38 17.669,6.293 17.545,6.325C17.439,6.351 17.29,6.664 17.316,6.558C17.375,6.578 17.844,6.73 17.837,7.142C17.833,7.426 17.674,7.544 17.4,7.445C17.332,7.42 17.269,7.379 17.217,7.328C17.152,7.264 17.027,7.02 17.061,7.104C17.124,7.08 17.191,7.017 17.191,6.949C17.191,6.815 17.085,6.697 16.957,6.669C16.836,6.643 16.752,6.724 16.768,6.846C16.781,6.949 17.057,7.134 16.964,7.088C16.94,7.231 16.767,7.381 16.625,7.358C16.26,7.301 16.193,7.011 16.182,6.965C16.167,6.9 16.176,6.834 16.204,6.773C16.242,6.691 16.45,6.511 16.377,6.563C15.922,6.213 15.75,6.562 15.772,6.518C15.73,6.357 15.66,6.177 15.519,6.088C15.417,6.025 15.061,5.963 15.18,5.971C15.227,6.056 15.491,6.532 15.701,7.071C15.733,7.153 15.91,7.605 15.988,8.124C16.062,8.091 16.457,7.972 16.926,8.001C17.379,8.029 17.94,8.204 18.026,8.231C18.116,8.262 18.668,8.45 19.124,8.711C19.709,9.045 20.129,9.47 20.064,9.403C20.141,8.933 20.317,8.581 20.351,8.514C20.558,8.099 20.824,7.752 20.872,7.69C20.766,7.644 20.646,7.62 20.531,7.63Z" style="fill:rgb(255,204,77);fill-rule:nonzero;"/>
                </g>
                <g transform="matrix(0.896117,3.24196e-17,-3.24196e-17,0.896117,219.046,223.655)">
                    <path d="M20.062,9.403C19.991,9.335 19.582,8.938 19.085,8.665C18.605,8.401 18.111,8.24 18.024,8.212C17.941,8.185 17.432,8.018 16.964,7.979C16.46,7.937 16.06,8.094 15.987,8.123C15.851,8.591 15.637,9.826 15.818,10.705C16.226,12.695 17.541,14.13 18.017,14.547L18.017,14.557L18.025,14.556L18.033,14.563L18.033,14.553C18.429,14.466 19.802,13.938 20.232,12.081C20.401,11.354 20.223,10.05 20.062,9.403Z" style="fill:rgb(221,46,68);fill-rule:nonzero;"/>
                </g>
                <g transform="matrix(0.896117,3.24196e-17,-3.24196e-17,0.896117,219.046,223.655)">
                    <path d="M18.018,14.559L18.014,14.545C17.594,14.182 16.231,12.735 15.815,10.704C15.629,9.8 15.941,8.324 15.984,8.121C16.026,8.097 16.542,7.941 16.963,7.976C17.431,8.015 17.941,8.182 18.024,8.209C18.112,8.237 18.605,8.399 19.086,8.662C19.171,8.71 19.509,8.895 20.063,9.4L20.064,9.401C20.133,9.631 20.436,11.213 20.234,12.081C19.804,13.938 18.427,14.467 18.034,14.553L18.035,14.561L18.023,14.555L18.018,14.559ZM18.024,14.553L18.035,14.561L18.031,14.552C18.466,14.453 19.807,13.907 20.231,12.081C20.394,11.374 20.218,10.029 20.061,9.404C19.99,9.337 19.559,8.929 19.085,8.668C18.605,8.405 18.112,8.244 18.025,8.215C17.942,8.188 17.433,8.022 16.965,7.983C16.527,7.946 16.063,8.101 15.988,8.126C15.942,8.327 15.621,9.739 15.82,10.706C16.23,12.706 17.56,14.146 18.017,14.545L18.018,14.554L18.024,14.553Z" style="fill:rgb(35,31,32);fill-rule:nonzero;"/>
                </g>
                <g transform="matrix(0.896117,3.24196e-17,-3.24196e-17,0.896117,219.046,223.655)">
                    <path d="M19.406,9.2C19.31,9.298 19.125,9.232 18.995,9.189L18.565,9.006C18.521,8.991 18.2,8.879 18.2,9.028C18.2,9.155 18.592,9.285 18.631,9.297C18.998,9.419 18.999,9.334 19.367,9.454C19.405,9.467 19.744,9.577 19.744,9.798C19.744,10.041 19.424,10.01 19.287,9.93C19.405,10.027 19.544,10.107 19.693,10.145C19.826,10.18 20.053,10.132 20.09,10.266C20.117,10.361 20.187,10.59 20.176,10.709C20.157,10.887 19.927,10.908 19.797,10.851C19.717,10.816 19.586,10.835 19.518,10.892L19.543,10.763L19.438,10.768L19.497,10.618L19.368,10.576C19.399,10.523 19.477,10.481 19.536,10.5C19.65,10.537 19.865,10.685 19.89,10.568C19.91,10.454 19.763,10.361 19.675,10.337C19.536,10.298 19.391,10.291 19.251,10.256C19.185,10.239 19.12,10.217 19.062,10.182C19.029,10.219 19.029,10.289 19.056,10.33C19.097,10.397 19.206,10.499 19.146,10.549C19.094,10.592 18.927,10.517 18.919,10.513C18.823,10.476 18.453,10.401 18.404,10.403L18.189,10.43L18.241,10.297C18.196,10.268 18.131,10.233 18.085,10.259C18.094,10.215 18.145,10.172 18.189,10.176L18.091,10.118C18.113,10.059 18.216,10.049 18.274,10.074C18.355,10.108 18.459,10.206 18.528,10.15C18.586,10.104 18.364,9.906 18.417,9.958L18.04,9.919L17.61,9.806C17.59,9.966 17.318,10.015 17.16,9.983C16.787,9.907 16.831,9.847 16.437,9.578C16.369,9.531 16.12,9.503 16.202,9.506L16.267,9.4L16.11,9.389C16.106,9.335 16.155,9.249 16.208,9.26L16.065,9.182C16.126,9.126 16.238,9.121 16.312,9.159C16.454,9.231 16.548,9.39 16.664,9.481C16.759,9.557 17.409,9.742 17.017,9.543C16.953,9.51 16.827,9.331 16.864,9.392C16.819,9.388 16.585,9.308 16.43,9.024C16.407,8.981 16.201,8.601 16.006,8.587C16.061,8.531 16.174,8.511 16.241,8.553C16.2,8.49 16.133,8.434 16.059,8.419C16.087,8.355 16.206,8.357 16.267,8.392C16.224,8.34 16.169,8.287 16.104,8.275C16.133,8.194 16.292,8.269 16.358,8.325C16.498,8.442 16.399,8.477 16.48,8.644C16.531,8.747 16.629,8.87 16.702,8.957C16.727,8.986 17.08,9.43 16.975,9.088C16.902,9.017 16.856,8.882 16.832,8.793C16.804,8.695 16.66,8.574 16.734,8.503C16.771,8.47 16.898,8.611 16.864,8.575C16.961,8.563 17.063,8.583 17.157,8.612C17.246,8.639 17.442,8.84 17.391,8.763C17.432,8.744 17.511,8.719 17.528,8.761C17.55,8.822 17.457,8.869 17.424,8.924C17.395,8.973 17.452,9.148 17.43,9.095C17.507,9.22 17.641,9.314 17.779,9.363C17.834,9.382 18.161,9.497 18.486,9.536C18.629,9.553 18.83,9.582 18.968,9.653C19.152,9.746 19.513,9.823 19.503,9.739C19.484,9.594 19.308,9.55 19.191,9.527C18.783,9.446 18.786,9.483 18.441,9.345C18.398,9.327 17.984,9.162 18.056,8.911C18.102,8.751 18.394,8.823 18.493,8.856L19.076,9.13L19.406,9.2Z" style="fill:rgb(255,204,77);fill-rule:nonzero;"/>
                </g>
                <g transform="matrix(0.896117,3.24196e-17,-3.24196e-17,0.896117,219.046,223.655)">
                    <path d="M16.995,8.989L17.119,9.06L17.246,9.054L17.22,9.14C17.22,9.199 17.195,9.225 17.132,9.207C17.04,9.181 17.04,9.153 17.025,9.07L16.995,8.989Z" style="fill:rgb(221,46,68);fill-rule:nonzero;"/>
                </g>
                <g transform="matrix(0.896117,3.24196e-17,-3.24196e-17,0.896117,219.046,223.655)">
                    <path d="M17.19,9.47C17.19,9.504 17.162,9.52 17.131,9.511L17.118,9.507C17.087,9.497 17.06,9.463 17.06,9.43L17.06,9.176C17.06,9.142 17.087,9.125 17.118,9.135L17.131,9.139C17.163,9.148 17.19,9.182 17.19,9.216L17.19,9.47ZM16.161,9.133L16.063,9.18L16.206,9.258C16.153,9.246 16.111,9.441 16.108,9.387L16.263,9.396L16.161,9.133ZM19.475,10.496C19.431,10.505 19.345,10.615 19.368,10.576L19.497,10.618L19.438,10.768L19.543,10.763L19.518,10.892L19.631,10.842L19.475,10.496ZM18.282,10.411L18.175,10.054C18.14,10.058 18.078,10.148 18.09,10.115L18.188,10.173C18.144,10.169 18.075,10.3 18.084,10.256C18.131,10.231 18.285,10.323 18.24,10.295L18.188,10.427L18.282,10.411ZM16.102,8.271L16.227,8.348L16.245,8.247C16.201,8.227 16.085,8.316 16.102,8.271ZM16.264,9.399L16.2,9.504L16.312,9.522L16.264,9.399ZM16.201,8.503L16.224,8.369C16.17,8.347 16.032,8.468 16.056,8.415C16.112,8.427 16.162,8.462 16.201,8.503ZM16.004,8.584C16.067,8.588 16.125,8.606 16.177,8.643L16.197,8.53C16.134,8.509 15.957,8.631 16.004,8.584Z" style="fill:rgb(17,66,154);fill-rule:nonzero;"/>
                </g>
                <g transform="matrix(0.896117,3.24196e-17,-3.24196e-17,0.896117,219.046,223.655)">
                    <path d="M19.219,10.936C19.134,11.025 18.967,10.964 18.851,10.926L18.464,10.76C18.424,10.747 18.137,10.647 18.137,10.782C18.137,10.924 18.514,11.02 18.523,11.023C18.851,11.131 18.853,11.056 19.183,11.164C19.319,11.209 19.523,11.3 19.523,11.474C19.523,11.693 19.236,11.664 19.115,11.593C19.22,11.68 19.343,11.752 19.476,11.786C19.596,11.818 19.803,11.775 19.833,11.896C19.855,11.987 19.918,12.185 19.909,12.295C19.892,12.455 19.685,12.473 19.569,12.42C19.497,12.389 19.375,12.407 19.317,12.456L19.34,12.34L19.246,12.345L19.299,12.21L19.182,12.172C19.21,12.124 19.281,12.087 19.334,12.104C19.436,12.138 19.63,12.271 19.65,12.166C19.67,12.063 19.536,11.979 19.457,11.957C19.345,11.925 19.227,11.921 19.114,11.893C19.043,11.875 18.97,11.855 18.907,11.818C18.877,11.852 18.878,11.914 18.902,11.952C18.939,12.012 19.037,12.102 18.983,12.147C18.936,12.187 18.786,12.118 18.779,12.115C18.69,12.081 18.411,12.014 18.317,12.016L18.124,12.039L18.17,11.92C18.129,11.894 18.071,11.862 18.029,11.885C18.037,11.846 18.083,11.806 18.123,11.81L18.035,11.758C18.054,11.706 18.147,11.697 18.199,11.719C18.272,11.75 18.366,11.839 18.428,11.788C18.479,11.745 18.28,11.567 18.328,11.614L17.988,11.579L17.602,11.477C17.584,11.621 17.34,11.665 17.198,11.636C16.858,11.567 16.898,11.512 16.548,11.271C16.488,11.229 16.265,11.203 16.338,11.205L16.396,11.11L16.256,11.1C16.253,11.052 16.295,10.973 16.343,10.984L16.215,10.913C16.27,10.863 16.371,10.86 16.437,10.894C16.564,10.959 16.649,11.103 16.753,11.185C16.839,11.254 17.421,11.419 17.069,11.24C17.012,11.21 16.897,11.049 16.931,11.104C16.891,11.101 16.682,11.028 16.542,10.772C16.521,10.733 16.335,10.391 16.162,10.378C16.212,10.327 16.313,10.31 16.372,10.348C16.335,10.291 16.274,10.241 16.208,10.226C16.234,10.169 16.34,10.171 16.395,10.203C16.357,10.156 16.308,10.109 16.249,10.098C16.276,10.025 16.418,10.093 16.477,10.143C16.604,10.251 16.515,10.283 16.588,10.433L16.787,10.715C16.819,10.754 17.127,11.137 17.033,10.832C16.967,10.769 16.926,10.648 16.905,10.568C16.88,10.48 16.749,10.37 16.817,10.308C16.85,10.278 16.965,10.405 16.934,10.373C17.022,10.363 17.112,10.381 17.197,10.407C17.277,10.432 17.452,10.614 17.407,10.544C17.444,10.527 17.515,10.503 17.53,10.541C17.55,10.595 17.466,10.638 17.437,10.688C17.411,10.732 17.463,10.889 17.443,10.841C17.511,10.954 17.631,11.039 17.756,11.083C17.805,11.1 18.097,11.201 18.39,11.237C18.517,11.252 18.7,11.279 18.823,11.342C18.87,11.366 19.316,11.529 19.303,11.419C19.286,11.289 19.127,11.249 19.022,11.228C18.638,11.151 18.64,11.181 18.35,11.065C18.311,11.049 17.94,10.901 18.005,10.677C18.046,10.532 18.309,10.598 18.397,10.627L18.921,10.873L19.219,10.936Z" style="fill:rgb(255,204,77);fill-rule:nonzero;"/>
                </g>
                <g transform="matrix(0.896117,3.24196e-17,-3.24196e-17,0.896117,219.046,223.655)">
                    <path d="M17.042,10.745L17.153,10.809L17.267,10.803L17.244,10.881C17.244,10.943 17.216,10.956 17.164,10.941C17.079,10.917 17.083,10.894 17.068,10.818L17.042,10.745Z" style="fill:rgb(221,46,68);fill-rule:nonzero;"/>
                </g>
                <g transform="matrix(0.896117,3.24196e-17,-3.24196e-17,0.896117,219.046,223.655)">
                    <path d="M17.218,11.177C17.218,11.208 17.193,11.222 17.165,11.213L17.154,11.21C17.125,11.201 17.101,11.171 17.101,11.14L17.101,10.912C17.101,10.881 17.126,10.867 17.154,10.876L17.165,10.879C17.193,10.888 17.218,10.918 17.218,10.949L17.218,11.177ZM16.253,10.858L16.165,10.899L16.294,10.97C16.246,10.959 16.209,11.135 16.206,11.087L16.345,11.096L16.253,10.858ZM19.229,12.081C19.189,12.089 19.109,12.186 19.131,12.152L19.248,12.19L19.197,12.326L19.291,12.321L19.268,12.437L19.37,12.392L19.229,12.081ZM18.158,12.006L18.062,11.685C18.03,11.689 17.974,11.771 17.985,11.741L18.072,11.792C18.032,11.789 17.971,11.907 17.979,11.868C18.02,11.844 18.159,11.928 18.119,11.902L18.072,12.021L18.158,12.006ZM16.201,10.083L16.314,10.153L16.33,10.061C16.29,10.043 16.186,10.124 16.201,10.083ZM16.346,11.097L16.288,11.19L16.389,11.208L16.346,11.097ZM16.29,10.292L16.311,10.171C16.263,10.152 16.14,10.26 16.161,10.212C16.211,10.223 16.255,10.256 16.29,10.292ZM16.113,10.363C16.169,10.368 16.222,10.383 16.268,10.417L16.286,10.316C16.229,10.297 16.071,10.406 16.113,10.363Z" style="fill:rgb(17,66,154);fill-rule:nonzero;"/>
                </g>
                <g transform="matrix(0.896117,3.24196e-17,-3.24196e-17,0.896117,219.046,223.655)">
                    <path d="M18.864,12.562C18.799,12.627 18.676,12.583 18.59,12.554L18.303,12.431C18.226,12.406 18.06,12.365 18.06,12.447C18.06,12.553 18.338,12.623 18.347,12.626L18.838,12.731C18.932,12.762 19.09,12.834 19.09,12.962C19.09,13.125 18.875,13.101 18.786,13.049C18.864,13.113 18.956,13.168 19.055,13.194C19.144,13.218 19.299,13.187 19.321,13.277C19.337,13.345 19.385,13.492 19.378,13.574C19.365,13.691 19.212,13.705 19.126,13.665C19.072,13.641 18.983,13.655 18.939,13.691L18.956,13.605L18.887,13.608L18.927,13.508L18.839,13.479C18.86,13.444 18.912,13.416 18.951,13.429C19.027,13.454 19.173,13.555 19.187,13.476C19.2,13.399 19.101,13.337 19.043,13.321C18.915,13.284 18.756,13.288 18.635,13.217C18.613,13.241 18.613,13.288 18.631,13.315C18.659,13.36 18.732,13.428 18.692,13.463C18.657,13.49 18.543,13.439 18.539,13.437C18.473,13.411 18.266,13.361 18.196,13.363L18.053,13.381L18.088,13.292C18.058,13.273 18.015,13.249 17.984,13.267C17.99,13.238 18.024,13.209 18.054,13.212L17.989,13.172C18.003,13.133 18.071,13.126 18.11,13.142C18.164,13.165 18.233,13.231 18.28,13.194C18.318,13.162 18.171,13.029 18.206,13.064L17.954,13.039L17.667,12.964C17.653,13.071 17.472,13.103 17.367,13.081C17.144,13.036 17.17,13.002 16.884,12.807C16.839,12.776 16.673,12.753 16.728,12.756L16.772,12.686L16.668,12.678C16.666,12.642 16.698,12.584 16.733,12.593L16.637,12.539C16.678,12.501 16.753,12.501 16.802,12.526C16.897,12.577 16.958,12.682 17.037,12.746C17.102,12.798 17.53,12.92 17.272,12.788L17.17,12.686C17.043,12.674 16.941,12.548 16.88,12.436C16.811,12.309 16.759,12.155 16.598,12.139C16.635,12.102 16.711,12.091 16.755,12.12C16.727,12.077 16.683,12.039 16.633,12.027C16.652,11.985 16.731,11.988 16.772,12.011L16.663,11.931C16.684,11.877 16.789,11.932 16.833,11.97C16.933,12.056 16.861,12.075 16.916,12.187L17.064,12.397C17.073,12.408 17.315,12.712 17.246,12.486C17.197,12.439 17.168,12.349 17.151,12.29C17.133,12.224 17.035,12.141 17.086,12.095C17.111,12.073 17.196,12.168 17.173,12.144L17.369,12.17C17.428,12.189 17.56,12.324 17.526,12.272C17.553,12.259 17.606,12.242 17.617,12.271C17.632,12.311 17.569,12.342 17.547,12.38C17.527,12.412 17.566,12.529 17.551,12.494C17.602,12.577 17.691,12.64 17.784,12.673L18.256,12.788C18.35,12.798 18.487,12.819 18.578,12.865C18.685,12.92 18.949,13.043 18.935,12.924C18.923,12.827 18.801,12.796 18.726,12.781C18.461,12.731 18.472,12.758 18.226,12.66C18.125,12.619 17.929,12.515 17.97,12.371C18.001,12.264 18.219,12.32 18.261,12.333L18.65,12.517L18.864,12.562Z" style="fill:rgb(255,204,77);fill-rule:nonzero;"/>
                </g>
                <g transform="matrix(0.896117,3.24196e-17,-3.24196e-17,0.896117,219.046,223.655)">
                    <path d="M17.255,12.42L17.338,12.467L17.422,12.463L17.405,12.521C17.405,12.567 17.384,12.576 17.346,12.565C17.283,12.547 17.285,12.529 17.274,12.472L17.255,12.42Z" style="fill:rgb(221,46,68);fill-rule:nonzero;"/>
                </g>
                <g transform="matrix(0.896117,3.24196e-17,-3.24196e-17,0.896117,219.046,223.655)">
                    <path d="M17.385,12.741C17.385,12.764 17.366,12.774 17.346,12.768L17.338,12.765L17.299,12.714L17.299,12.545C17.299,12.522 17.317,12.511 17.338,12.517L17.346,12.52C17.368,12.527 17.385,12.549 17.385,12.572L17.385,12.741ZM16.699,12.508L16.634,12.538L16.73,12.592C16.695,12.583 16.667,12.712 16.665,12.677L16.768,12.685L16.699,12.508ZM18.909,13.426L18.838,13.48L18.926,13.509L18.886,13.609L18.955,13.605L18.938,13.692L19.014,13.659L18.909,13.426ZM18.114,13.37L18.043,13.132L17.986,13.173L18.051,13.213C18.021,13.21 17.975,13.297 17.981,13.268C18.013,13.252 18.115,13.311 18.085,13.293L18.05,13.382L18.114,13.37ZM16.659,11.931L16.743,11.985L16.755,11.918C16.726,11.904 16.647,11.961 16.659,11.931ZM16.768,12.687L16.725,12.755L16.8,12.769L16.768,12.687ZM16.726,12.088L16.741,11.998C16.705,11.983 16.613,12.062 16.629,12.027L16.726,12.088ZM16.594,12.139L16.709,12.181L16.722,12.106C16.68,12.091 16.562,12.17 16.594,12.139Z" style="fill:rgb(17,66,154);fill-rule:nonzero;"/>
                </g>
            </g>
        </g>
    </g>
</svg>
