<?xml version="1.0" encoding="UTF-8" standalone="no"?>
<!DOCTYPE svg PUBLIC "-//W3C//DTD SVG 1.1//EN" "http://www.w3.org/Graphics/SVG/1.1/DTD/svg11.dtd">
<svg width="100%" height="100%" viewBox="0 0 512 512" version="1.1" xmlns="http://www.w3.org/2000/svg" xmlns:xlink="http://www.w3.org/1999/xlink" xml:space="preserve" xmlns:serif="http://www.serif.com/" style="fill-rule:evenodd;clip-rule:evenodd;stroke-linejoin:round;stroke-miterlimit:2;">
    <g transform="matrix(1.11593,-4.03717e-17,4.03717e-17,1.11593,-13.9687,-19.1113)">
        <g transform="matrix(11.1111,-2.35563e-31,0,11.1111,-2371.15,-2417.74)">
            <g>
                <g transform="matrix(0.896117,3.24196e-17,-3.24196e-17,0.896117,219.046,223.655)">
                    <path d="M36.472,27.17C36.268,29.3 34.172,31.438 32.069,31.737C22.764,33.062 21.617,31.929 16.923,30.475C12.024,28.957 9.406,30.043 4.002,30.751C1.734,31.048 0.032,29.153 0.333,26.993C0.731,24.136 1.48,20.893 1.447,17.745C1.416,14.7 0.699,12.641 0.255,9.01C-0.023,6.737 1.899,5.025 4,4.757C11.375,3.817 11.85,2.887 18.359,4.935C24.284,6.8 24.43,6.609 32,5.435C34.291,5.079 36.033,6.93 36.304,9.019C37.335,16.956 37.438,17.114 36.472,27.17Z" style="fill:rgb(0,175,202);fill-rule:nonzero;"/>
                </g>
                <g transform="matrix(0.896117,3.24196e-17,-3.24196e-17,0.896117,219.046,223.655)">
                    <path d="M19.035,13.805C20.526,14.295 21.899,15.887 21.899,17.509C21.899,19.03 20.682,20.076 19.035,19.535C17.534,19.041 16.17,17.385 16.17,15.77C16.17,14.25 17.384,13.262 19.035,13.805Z" style="fill:rgb(255,204,77);"/>
                    <path d="M19.037,13.589C19.169,13.631 19.269,13.577 19.269,13.429C19.269,13.259 19.057,11.983 19.037,11.857C19.015,11.97 18.801,13.106 18.801,13.275C18.801,13.427 18.896,13.543 19.037,13.589ZM19.037,19.767C18.905,19.725 18.801,19.775 18.801,19.924C18.801,20.096 19.016,21.357 19.037,21.481C19.058,21.369 19.269,20.248 19.269,20.078C19.27,19.929 19.176,19.813 19.037,19.767ZM18.236,19.382C18.124,19.317 17.994,19.31 17.951,19.457C17.907,19.607 17.798,20.793 17.788,20.91C17.839,20.817 18.36,19.871 18.403,19.726C18.447,19.58 18.356,19.454 18.236,19.382ZM19.836,13.937C19.947,14.002 20.081,14.009 20.125,13.861C20.169,13.71 20.269,12.534 20.279,12.419C20.228,12.512 19.714,13.455 19.672,13.598C19.629,13.742 19.715,13.866 19.836,13.937ZM17.493,18.831C17.399,18.749 17.261,18.693 17.174,18.82C17.085,18.945 16.668,19.966 16.627,20.067C16.704,19.997 17.517,19.269 17.579,19.182C17.667,19.057 17.592,18.92 17.493,18.831ZM20.582,14.473C20.677,14.556 20.817,14.607 20.904,14.48C20.994,14.35 21.398,13.328 21.438,13.227C21.362,13.298 20.548,14.055 20.497,14.127C20.412,14.252 20.482,14.385 20.582,14.473ZM16.855,18.144C16.775,18.042 16.648,17.961 16.524,18.049C16.372,18.158 15.699,18.95 15.63,19.031C16.385,18.69 16.41,18.786 16.855,18.478C16.98,18.391 16.933,18.245 16.855,18.144ZM21.224,15.146C21.305,15.249 21.434,15.324 21.556,15.233C21.714,15.116 22.368,14.302 22.435,14.218C22.045,14.414 21.651,14.602 21.26,14.796C21.248,14.802 21.237,14.809 21.227,14.817C21.105,14.906 21.143,15.045 21.224,15.146ZM16.367,17.363C16.304,17.24 16.19,17.148 16.046,17.191C15.799,17.267 14.957,17.803 14.866,17.861C15.301,17.791 15.74,17.742 16.177,17.68C16.211,17.676 16.246,17.671 16.28,17.661C16.428,17.617 16.425,17.479 16.367,17.363ZM21.716,15.914C21.779,16.036 21.896,16.127 22.038,16.076C22.299,15.983 23.112,15.409 23.201,15.346C22.773,15.442 22.338,15.509 21.907,15.593C21.873,15.6 21.838,15.605 21.804,15.616C21.662,15.665 21.658,15.797 21.716,15.914ZM16.06,16.535C16.024,16.396 15.92,16.294 15.771,16.295C15.427,16.3 14.495,16.58 14.386,16.612C14.852,16.649 15.315,16.718 15.78,16.77C15.817,16.774 15.854,16.779 15.892,16.779C16.041,16.777 16.093,16.668 16.06,16.535ZM22.025,16.733C22.061,16.87 22.165,16.971 22.314,16.962C22.673,16.94 23.576,16.602 23.682,16.562C22.286,16.548 22.312,16.478 22.192,16.484C22.045,16.491 21.992,16.6 22.025,16.733ZM15.955,15.71C15.953,15.563 15.861,15.453 15.719,15.417C15.32,15.316 14.343,15.339 14.223,15.341C15.622,15.803 15.595,15.854 15.719,15.885C15.857,15.92 15.955,15.854 15.955,15.71ZM22.132,17.559C22.133,17.705 22.224,17.815 22.367,17.845C22.46,17.863 23.231,17.884 23.846,17.823C22.467,17.467 22.489,17.401 22.367,17.377C22.229,17.347 22.132,17.416 22.132,17.559ZM16.06,14.941C16.099,14.797 16.016,14.677 15.892,14.611C15.503,14.405 14.509,14.153 14.386,14.122C14.757,14.357 15.119,14.606 15.485,14.847C15.58,14.909 15.67,14.979 15.771,15.032C15.89,15.094 16.019,15.084 16.06,14.941ZM22.026,18.338C21.986,18.48 22.065,18.601 22.192,18.663C22.286,18.708 23.071,18.944 23.682,19.053C23.315,18.846 22.959,18.621 22.597,18.405C22.503,18.348 22.413,18.282 22.313,18.236C22.192,18.178 22.067,18.196 22.026,18.338ZM16.368,14.283C16.451,14.159 16.381,14.025 16.279,13.939C15.966,13.67 14.983,13.115 14.867,13.049C15.179,13.374 15.487,13.705 15.799,14.031C15.88,14.115 15.956,14.204 16.045,14.28C16.143,14.363 16.282,14.407 16.368,14.283ZM21.718,19.013C21.635,19.137 21.699,19.27 21.804,19.355C22.133,19.625 23.087,20.1 23.202,20.158C22.893,19.854 22.59,19.544 22.282,19.239C22.202,19.16 22.126,19.075 22.038,19.003C21.937,18.923 21.801,18.89 21.718,19.013ZM16.857,13.788C16.979,13.7 16.933,13.558 16.855,13.456C16.649,13.19 15.733,12.32 15.632,12.224C15.702,12.342 16.442,13.585 16.523,13.689C16.603,13.792 16.734,13.875 16.857,13.788ZM21.227,19.529C21.106,19.618 21.145,19.76 21.227,19.862C21.443,20.139 22.339,20.936 22.439,21.026C22.37,20.913 21.628,19.706 21.556,19.617C21.475,19.515 21.347,19.44 21.227,19.529ZM17.497,13.498C17.642,13.457 17.635,13.318 17.58,13.203C17.474,12.986 16.709,11.847 16.631,11.731C16.672,11.858 17.092,13.142 17.174,13.309C17.234,13.434 17.351,13.535 17.497,13.498ZM20.586,19.841C20.441,19.882 20.441,20.019 20.499,20.136C20.614,20.369 21.364,21.45 21.442,21.563C21.401,21.439 20.985,20.181 20.905,20.019C20.843,19.897 20.729,19.799 20.586,19.841ZM18.239,13.431C18.387,13.438 18.435,13.329 18.403,13.196C18.358,13.013 17.842,11.737 17.791,11.611C17.801,11.736 17.906,12.99 17.95,13.169C17.985,13.311 18.088,13.422 18.239,13.431ZM19.839,19.921C19.691,19.915 19.638,20.022 19.672,20.157C19.718,20.346 20.231,21.592 20.282,21.716C20.271,21.592 20.168,20.356 20.124,20.178C20.09,20.038 19.988,19.928 19.839,19.921Z" style="fill:rgb(255,204,77);fill-rule:nonzero;"/>
                </g>
                <g transform="matrix(0.896117,3.24196e-17,-3.24196e-17,0.896117,219.046,223.655)">
                    <path d="M21.845,24.628L21.808,24.635L21.767,24.632L21.736,24.63L21.679,24.604L21.654,24.588L21.631,24.571L21.604,24.548L21.559,24.504L21.518,24.461L21.495,24.439L21.466,24.42L21.446,24.41L21.417,24.402L21.305,24.608L21.282,24.635L21.26,24.656L21.237,24.667L21.217,24.678L21.188,24.681L21.161,24.674L21.136,24.656L21.101,24.63L21.091,24.61L21.079,24.59L21.067,24.564L21.055,24.535L21.039,24.448L21.006,24.465L20.975,24.496L20.913,24.572L20.876,24.611L20.837,24.638L20.816,24.655L20.789,24.664L20.762,24.668L20.729,24.669L20.713,24.664L20.684,24.662L20.657,24.648L20.636,24.632L20.572,24.536L20.5,24.437L20.451,24.5L20.394,24.548L20.367,24.566L20.342,24.586L20.315,24.6L20.264,24.612L20.237,24.61L20.21,24.602L20.187,24.589L20.165,24.57L20.149,24.548L20.128,24.515L20.083,24.38L20.077,24.35L20.067,24.326L20.055,24.312L20.043,24.308L19.895,24.503L19.874,24.518L19.835,24.522L19.749,24.516L19.698,24.5L19.659,24.476L19.647,24.467L19.631,24.444L19.627,24.433L19.627,24.411L19.647,24.176L19.631,24.176L19.588,24.184L19.473,24.273L19.424,24.318L19.363,24.349L19.306,24.373L19.274,24.381L19.208,24.369L19.181,24.354L19.169,24.347L19.158,24.331L19.152,24.312L19.152,24.295L19.158,24.227L19.175,24.121L19.164,24.053L19.141,24.007L19.108,24.046L19.054,24.099L18.916,24.197L18.839,24.227L18.779,24.228L18.767,24.218L18.75,24.213L18.738,24.199L18.734,24.191L18.722,24.17L18.718,24.152L18.718,24.131L18.712,24.101L18.718,23.895L18.415,23.992L18.377,23.997L18.334,24.004L18.213,23.997L18.173,23.984L18.136,23.966L18.102,23.943L18.119,23.905L18.152,23.839L18.173,23.814L18.197,23.788L18.218,23.762L18.274,23.726L18.335,23.703L18.405,23.681L18.477,23.672L18.56,23.672L18.642,23.678L18.829,23.707L18.922,23.725L19.751,23.979L20.054,24.057L20.148,24.075L20.322,24.096L20.406,24.098L20.484,24.09L20.556,24.078L20.673,24.024L20.726,23.978L20.669,23.852L20.714,23.859L20.757,23.862L20.802,23.853L20.839,23.835L20.855,23.83L20.873,23.818L20.885,23.799L20.897,23.787L20.901,23.766L20.901,23.728L20.889,23.703L20.983,23.712L21.083,23.729L21.188,23.751L21.297,23.781L21.753,23.923L22.445,24.147L22.652,24.197L22.652,24.273L22.648,24.307L22.636,24.336L22.626,24.368L22.614,24.392L22.598,24.411L22.537,24.465L22.488,24.487L22.435,24.499L22.382,24.501L22.321,24.499L22.204,24.464L22.143,24.434L22.09,24.394L22.033,24.354L21.99,24.306L21.947,24.253L21.947,24.347L21.92,24.523L21.899,24.575L21.887,24.595L21.871,24.607L21.859,24.621L21.845,24.628M17.428,22.76L17.553,22.854L17.63,22.819L17.679,22.809L17.723,22.795L17.888,22.782L18.03,22.763L18.102,22.759L18.224,22.734L18.273,22.716L18.647,22.6L18.756,22.559L18.839,22.52L19.081,22.375L19.114,22.363L19.152,22.354L19.29,22.333L19.383,22.331L19.948,22.391L20.53,22.498L20.788,22.53L20.981,22.535L21.047,22.471L21.153,22.385L21.225,22.333L21.305,22.288L21.398,22.241L21.507,22.197L21.673,22.141L22.028,22.042L22.651,21.861L22.749,21.813L22.776,21.734L22.815,21.66L22.864,21.585L22.991,21.436L23.161,21.273L23.37,21.109L23.476,21.034L23.529,21.001L23.586,20.969L23.707,20.916L23.768,20.893L23.827,20.877L23.956,20.853L24.02,20.853L24.081,20.851L24.145,20.86L24.206,20.873L24.202,20.939L24.186,21.003L24.137,21.139L24.096,21.208L24.047,21.277L23.987,21.349L23.915,21.421L23.972,21.419L24.021,21.411L24.06,21.402L24.097,21.388L24.169,21.37L24.272,21.363L24.278,21.402L24.278,21.44L24.272,21.478L24.262,21.511L24.246,21.543L24.223,21.575L24.202,21.6L24.175,21.627L23.944,21.827L24.009,21.838L24.154,21.889L24.207,21.903L24.143,21.95L23.989,22.04L23.813,22.126L23.725,22.173L23.637,22.226L23.555,22.283L23.592,22.292L23.643,22.319L23.665,22.327L23.686,22.341L23.704,22.347L23.72,22.344L23.611,22.394L23.408,22.47L23.324,22.51L23.308,22.525L23.298,22.541L23.286,22.555L23.29,22.578L23.302,22.596L23.323,22.615L23.343,22.635L23.335,22.655L23.323,22.672L23.302,22.685L23.282,22.699L23.229,22.718L23.165,22.737L23.04,22.763L22.962,22.79L23.071,22.916L23.032,22.948L22.995,22.97L22.962,22.982L22.923,22.992L22.847,22.99L22.739,22.972L22.751,23.024L22.767,23.076L22.79,23.191L22.581,23.306L22.454,23.364L22.313,23.418L22.229,23.439L22.147,23.459L21.866,23.495L21.653,23.489L21.536,23.477L21.917,23.574L22.229,23.61L22.366,23.611L22.487,23.602L22.723,23.558L22.875,23.514L23.025,23.455L23.166,23.387L23.316,23.32L23.226,23.264L23.14,23.225L23.005,23.143L22.954,23.107L22.997,23.082L23.05,23.068L23.107,23.055L23.306,23.038L23.564,23.036L23.673,23.036L23.757,23.023L23.779,23.013L23.795,22.997L23.791,22.991L23.779,22.979L23.763,22.972L23.742,22.96L23.681,22.942L23.603,22.923L23.527,22.909L23.451,22.889L23.383,22.864L23.342,22.842L23.879,22.777L23.973,22.756L24.094,22.715L24.147,22.684L24.17,22.664L24.164,22.658L24.154,22.646L24.103,22.632L24.033,22.622L23.949,22.616L23.779,22.593L23.709,22.575L23.664,22.559L23.742,22.535L24.094,22.461L24.297,22.404L24.401,22.363L24.45,22.337L24.495,22.311L24.511,22.294L24.528,22.273L24.544,22.257L24.55,22.24L24.544,22.223L24.528,22.211L24.511,22.206L24.359,22.203L24.287,22.205L24.189,22.201L24.16,22.195L24.141,22.182L24.117,22.17L24.724,21.793L24.885,21.681L25.013,21.57L25.064,21.514L25.11,21.458L25.144,21.397L25.172,21.337L25.189,21.269L25.189,21.198L25.151,21.199L25.111,21.206L25.022,21.24L24.784,21.382L24.74,21.41L24.688,21.431L24.638,21.448L24.593,21.459L24.55,21.465L24.499,21.464L24.456,21.446L24.589,21.349L24.913,21.072L25.265,20.723L25.429,20.541L25.58,20.353L25.701,20.177L25.714,20.155L25.718,20.138L25.714,20.115L25.708,20.1L25.702,20.082L25.685,20.072L25.667,20.056L25.65,20.051L25.628,20.042L25.603,20.037L25.558,20.039L25.536,20.046L25.505,20.051L25.488,20.07L25.464,20.088L25.119,20.44L24.981,20.569L24.711,20.798L24.582,20.88L24.461,20.94L24.498,20.907L24.615,20.793L25.031,20.289L25.294,19.925L25.365,19.803L25.436,19.69L25.494,19.588L25.539,19.492L25.567,19.414L25.573,19.387L25.573,19.343L25.567,19.326L25.546,19.294L25.533,19.284L25.515,19.28L25.482,19.263L25.439,19.254L25.361,19.257L25.339,19.263L25.322,19.269L25.298,19.282L25.282,19.298L25.235,19.339L25.087,19.525L24.731,20.035L24.59,20.2L24.52,20.271L24.444,20.336L24.542,20.155L24.698,19.832L24.8,19.595L24.844,19.474L24.922,19.225L24.974,18.983L24.993,18.757L24.984,18.702L24.98,18.653L24.974,18.602L24.957,18.538L24.945,18.521L24.917,18.494L24.879,18.478L24.837,18.467L24.8,18.467L24.764,18.474L24.754,18.48L24.737,18.484L24.731,18.496L24.469,19.44L24.371,19.701L24.289,19.858L24.238,19.927L24.271,19.77L24.314,19.497L24.337,19.271L24.343,19.178L24.331,19.034L24.321,18.979L24.305,18.934L24.282,18.901L24.27,18.889L24.237,18.877L24.221,18.87L24.203,18.869L24.187,18.875L24.142,18.883L24.099,18.903L23.978,19.401L23.748,20.003L23.56,20.353L23.439,20.548L23.308,20.729L23.035,21.052L22.754,21.314L22.451,21.545L22.129,21.736L21.721,21.917L21.479,21.998L21.095,22.073L20.699,22.103L20.371,22.106L20.031,22.077L19.861,22.052L19.513,21.984L19.337,21.938L19.32,21.939L19.303,21.938L19.27,21.946L19.233,21.959L19.106,22.033L19.018,22.093L18.699,22.344L18.578,22.425L18.436,22.487L18.38,22.507L18.325,22.522L18.205,22.538L17.643,22.575L17.594,22.587L17.55,22.595L17.518,22.606L17.457,22.648L17.44,22.669L17.428,22.693L17.424,22.73L17.424,22.758" style="fill:rgb(255,204,77);fill-rule:nonzero;"/>
                    <path d="M19.441,23.664L19.533,23.706L19.578,23.737L19.588,23.746L19.588,23.752L19.578,23.748L19.566,23.75L19.478,23.738L19.408,23.715L19.178,23.623L18.595,23.421L18.133,23.279L17.726,23.18L17.621,23.163L17.528,23.154L17.463,23.156L17.435,23.159L17.413,23.169L17.423,23.116L17.447,23.068L17.37,23.065L17.304,23.078L17.278,23.086L17.255,23.101L17.238,23.122L17.234,23.149L17.218,23.106L17.206,23.068L17.194,22.993L17.21,22.911L17.228,22.889L17.238,22.87L17.261,22.851L17.305,22.821L17.365,22.801L17.433,22.784L17.547,22.87L17.664,22.896C17.706,22.947 17.878,23.029 17.905,22.919L17.905,22.809L17.971,22.825L18.048,22.839L18.218,22.85L18.307,22.863L18.389,22.869L18.466,22.883L18.531,22.898L18.504,22.912L18.361,22.974L18.307,22.995L18.377,23.036L18.438,23.067L18.308,23.172L18.274,23.205L18.317,23.236L18.361,23.262L18.411,23.29L18.51,23.322L18.608,23.333L18.647,23.323L18.692,23.361L18.736,23.392L18.822,23.442L19.027,23.531L19.441,23.666M18.94,21.83L18.891,21.913L18.835,22.022L18.754,22.153L18.726,22.172L18.661,22.095L18.589,22.022L18.512,21.957L18.431,21.898L18.254,21.795L18.167,21.751L17.881,21.63L17.502,21.49L17.326,21.413L17.227,21.365L17.134,21.316L17.036,21.251L16.953,21.183L16.892,21.125L16.766,20.994L16.211,20.317L16.102,20.211L16.052,20.176L16,20.146L15.907,20.1L15.743,20.003L15.588,19.893L15.325,19.649L15.27,19.585L15.161,19.452L15.056,19.314L14.551,18.572L14.304,18.278L14.233,18.202L14.161,18.131L14.003,17.994L13.987,17.997L13.969,18.012L13.952,18.031L13.926,18.105L13.92,18.126L13.88,18.103L13.847,18.082L13.807,18.06L13.774,18.046L13.703,18.038L13.664,18.045L13.626,18.058L13.713,18.182L13.762,18.264L13.851,18.445L13.883,18.532L13.895,18.577L13.907,18.612L13.912,18.65L13.912,18.682L13.616,18.649L13.659,18.719L13.762,18.862L13.944,19.066L14.005,19.123L14.061,19.17L13.918,19.163L13.774,19.162L13.823,19.212L13.95,19.321L14.021,19.379L14.093,19.433L14.164,19.483L14.23,19.514L14.291,19.54L14.34,19.559L14.356,19.567L14.368,19.581L14.372,19.587L14.372,19.608L14.356,19.65L14.352,19.682L14.345,19.703L14.345,19.719L14.352,19.748L14.356,19.77L14.368,19.782L14.384,19.797L14.405,19.811L14.433,19.822L14.489,19.854L14.516,19.868L14.538,19.889L14.543,19.896L14.543,19.907L14.538,19.912L14.494,19.936L14.472,19.955L14.45,19.978L14.45,20.001L14.445,20.022L14.456,20.083L14.648,20.183L14.692,20.201L14.736,20.228L14.769,20.251L14.797,20.273L14.615,20.382L14.664,20.435L14.725,20.479L14.802,20.532L14.968,20.622L15.05,20.655L15.122,20.687L15.187,20.702L15.126,20.732L15.049,20.765L14.967,20.793L14.906,20.824L14.961,20.873L15.473,21.224L16.401,21.797L16.609,21.912L16.697,21.955L16.52,21.886L16.191,21.743L16.037,21.669L15.734,21.503L15.592,21.417C15.502,21.36 14.68,20.838 14.46,20.718L14.488,20.706L14.565,20.692L14.614,20.69L14.812,20.661L14.421,20.52L14.218,20.427L14.179,20.404L14.146,20.382L14.119,20.36L14.101,20.342L14.101,20.337L14.107,20.331L14.124,20.328L14.14,20.319L14.184,20.309L14.376,20.283L14.487,20.263L14.008,20.108L13.931,20.08L13.87,20.051L13.848,20.036L13.827,20.017L13.809,20.005L13.798,19.985L13.815,19.976L13.864,19.971L14.018,19.964L14.106,19.965L14.254,19.942L14.277,19.93L14.299,19.915L14.212,19.869L14.156,19.85L14.101,19.831L13.849,19.764L13.783,19.741L13.722,19.722L13.601,19.666L13.545,19.633L13.5,19.597L13.456,19.554L13.423,19.502L13.435,19.497L13.456,19.493L13.484,19.496L13.528,19.505L13.737,19.538L13.859,19.564L14.012,19.583L14.055,19.583L14.089,19.577L14.111,19.568L13.803,19.396L13.599,19.275L13.391,19.148L13.292,19.08L13.111,18.937L13.034,18.867L13,18.828L12.966,18.794L12.945,18.76L12.922,18.72L12.9,18.687L12.888,18.649L12.879,18.578L12.916,18.579L12.96,18.585L13.004,18.605L13.048,18.623L13.135,18.682L13.234,18.743L13.278,18.774L13.327,18.803L13.376,18.829L13.42,18.849L13.469,18.865L13.513,18.874L13.563,18.879L13.606,18.866L13.476,18.754L13.157,18.458L12.656,17.926L12.588,17.833L12.518,17.746L12.407,17.577L12.398,17.555L12.398,17.517L12.402,17.5L12.407,17.484L12.424,17.472L12.439,17.455L12.456,17.443L12.476,17.436L12.497,17.432L12.54,17.431L12.565,17.435L12.589,17.441L12.609,17.458L12.959,17.821L13.355,18.195L13.481,18.286L13.546,18.326L13.607,18.353L13.564,18.322L13.449,18.197L13.042,17.671L12.871,17.423L12.717,17.184L12.597,16.975L12.53,16.806L12.523,16.779L12.523,16.734L12.53,16.718L12.55,16.684L12.562,16.672L12.578,16.662L12.647,16.639L12.724,16.639L12.746,16.644L12.762,16.65L12.784,16.663L12.845,16.719L12.988,16.905L13.34,17.43L13.47,17.605L13.542,17.683L13.619,17.756L13.367,17.23L13.268,16.987L13.224,16.863L13.147,16.611L13.12,16.488L13.1,16.364L13.088,16.249L13.083,16.139L13.088,16.085L13.095,16.035L13.1,15.985L13.111,15.937L13.122,15.919L13.128,15.904L13.144,15.887L13.155,15.877L13.193,15.862L13.232,15.855L13.27,15.857L13.303,15.865L13.319,15.87L13.331,15.877L13.337,15.89L13.343,15.906L13.595,16.858L13.695,17.126L13.733,17.212L13.777,17.294L13.826,17.377L13.794,17.213L13.75,16.935L13.723,16.613L13.734,16.471L13.745,16.416L13.762,16.375L13.784,16.345L13.795,16.334L13.811,16.325L13.827,16.322L13.877,16.328L13.922,16.349L13.965,16.377L14.042,16.733L14.135,17.059L14.317,17.554L14.394,17.726L14.504,17.954L14.624,18.184L14.757,18.407L14.899,18.632L15.032,18.824L15.312,19.194L15.615,19.551L15.774,19.724L16.225,20.168L16.593,20.482L16.971,20.776L17.553,21.166L18.136,21.487C18.199,21.518 18.523,21.676 18.94,21.83" style="fill:rgb(255,204,77);fill-rule:nonzero;"/>
                </g>
                <g transform="matrix(0.896117,3.24196e-17,-3.24196e-17,0.896117,219.046,223.655)">
                    <path d="M3.61,28.337C3.524,28.414 3.359,28.563 3.288,28.471C3.227,28.39 3.804,27.258 3.813,27.183C3.882,26.607 3.323,26.609 3.229,26.602C2.893,26.575 1.985,26.809 2.571,26.678C2.635,26.782 2.683,26.807 2.806,26.802C2.762,26.828 2.492,26.985 2.446,27.327C2.378,27.831 2.54,27.819 2.485,28.326C2.446,28.684 1.916,29.342 2.224,28.907C2.581,28.847 2.794,28.485 2.725,28.234C2.78,28.222 2.83,28.227 2.872,28.268C2.907,28.189 2.872,28.104 2.828,28.041C2.878,28.012 2.917,28.026 2.975,28.032C2.977,27.935 2.916,27.865 2.84,27.814C3.102,27.86 3.368,27.638 3.399,27.385C3.414,27.259 3.352,27.086 3.196,27.101L3.062,27.155C3.044,27.104 3.072,27.033 3.095,26.991C3.006,27.022 2.945,27.09 2.968,27.189C2.903,27.199 2.844,27.227 2.8,27.277C2.835,27.326 2.891,27.343 2.949,27.335C2.9,27.419 2.921,27.491 3.008,27.536C2.998,27.456 3.033,27.327 3.113,27.319C3.188,27.312 3.22,27.348 3.212,27.416C3.197,27.531 3.081,27.607 2.973,27.613C2.774,27.623 2.721,27.45 2.742,27.285C2.786,26.951 3.156,26.903 3.204,26.897C3.405,26.87 3.56,26.979 3.533,27.194C3.517,27.322 2.98,28.359 2.967,28.487C2.948,28.676 3.115,28.781 3.289,28.762C3.515,28.738 3.751,28.456 3.725,28.488L3.61,28.337ZM4.294,22.941C4.363,22.466 4.805,22.136 5.111,22.089C5.748,21.99 5.678,22.574 5.671,22.636C5.665,22.684 5.639,22.901 5.484,23.2C5.383,23.394 4.928,24.271 4.183,25.602C4.129,25.698 4.108,25.801 4.093,25.908C4.066,26.107 4.237,26.252 4.428,26.231C4.591,26.213 4.823,25.985 4.846,25.797C4.863,25.663 4.837,25.446 4.647,25.474C4.524,25.491 4.425,25.555 4.408,25.685C4.401,25.741 4.412,25.797 4.482,25.788C4.559,25.777 4.596,25.508 4.601,25.586C4.684,25.595 4.696,25.683 4.667,25.75C4.714,25.754 4.755,25.773 4.785,25.81C4.747,25.85 4.702,25.886 4.648,25.903C4.664,25.998 4.621,26.064 4.525,26.101L4.552,25.983C4.359,26.065 4.205,25.949 4.232,25.75C4.265,25.506 4.485,25.258 4.768,25.265C4.692,25.238 4.672,25.155 4.676,25.081L4.79,25.092C4.744,24.985 4.724,24.956 4.741,24.841C4.813,24.869 4.845,24.902 4.918,24.861C4.837,24.641 5.036,24.276 5.384,24.144C5.16,24.422 5.131,24.65 5.124,24.698C5.056,25.232 5.205,25.222 5.143,25.753C5.108,26.043 4.88,26.234 4.843,26.264L4.844,26.257C4.929,26.269 5.004,26.306 5.041,26.387C4.772,26.504 4.387,26.537 4.244,26.495C4.087,26.497 3.918,26.403 3.858,26.253C3.824,26.166 3.798,25.822 3.957,25.539C4.068,25.342 4.693,24.238 5.299,23.053C5.354,22.947 5.394,22.833 5.409,22.713C5.434,22.511 5.304,22.341 5.084,22.375C4.926,22.4 4.73,22.589 4.71,22.739C4.699,22.813 4.72,22.911 4.817,22.897C4.972,22.875 5.023,22.727 4.993,22.589C5.096,22.63 5.153,22.726 5.121,22.835C5.193,22.835 5.248,22.866 5.291,22.922C5.241,22.991 5.179,23.052 5.091,23.066C5.104,23.21 5.008,23.31 4.888,23.371C4.931,23.257 4.966,23.097 4.786,23.123C4.684,23.138 4.547,23.145 4.489,23.04L4.377,23.705C4.334,23.938 4.67,23.828 4.761,23.784C4.742,23.832 4.613,24.164 4.24,24.171C4.336,24.204 4.365,24.3 4.352,24.393C4.327,24.561 4.149,24.808 4.051,24.879C4.132,24.233 4.213,23.587 4.294,22.941Z" style="fill:rgb(255,204,77);fill-rule:nonzero;"/>
                    <path d="M4.384,22.93C4.453,22.45 4.085,22.23 3.764,22.262C3.339,22.305 3.044,22.611 2.985,22.971C2.978,23.013 2.942,23.233 3.024,23.504C3.077,23.677 3.446,24.896 3.699,25.661C3.729,25.752 3.717,25.865 3.704,25.956C3.679,26.133 3.455,26.347 3.264,26.371C3.069,26.395 2.911,26.214 2.94,26.025C2.964,25.863 3.059,25.661 3.247,25.643C3.363,25.632 3.458,25.671 3.438,25.802C3.429,25.864 3.399,25.92 3.331,25.927C3.267,25.933 3.283,25.688 3.262,25.748C3.188,25.773 3.128,25.85 3.145,25.933C3.09,25.95 3.041,25.982 3.002,26.024C3.034,26.06 3.073,26.082 3.122,26.086C3.086,26.17 3.098,26.245 3.198,26.26L3.202,26.145C3.326,26.17 3.571,26.065 3.606,25.825C3.638,25.603 3.52,25.371 3.181,25.456C3.263,25.413 3.312,25.332 3.333,25.244L3.208,25.283C3.277,25.178 3.317,25.135 3.335,25.012C3.28,25.042 3.211,25.104 3.138,25.077C3.29,24.832 3.201,24.505 2.847,24.451C2.871,24.485 3.008,24.681 2.963,24.959C2.869,25.539 2.722,25.485 2.635,26.05C2.608,26.222 2.673,26.4 2.815,26.505L2.816,26.497C2.717,26.531 2.629,26.588 2.57,26.677C2.805,26.73 3.204,26.685 3.388,26.597C3.572,26.556 3.783,26.371 3.855,26.253C3.936,26.118 4.027,25.762 3.954,25.538C3.683,24.716 3.328,23.485 3.276,23.305C3.245,23.199 3.239,23.092 3.257,22.983C3.297,22.736 3.558,22.566 3.715,22.55C3.877,22.534 4.036,22.654 4.01,22.828C3.997,22.914 3.944,23.01 3.848,23.02C3.666,23.04 3.697,22.857 3.749,22.747C3.647,22.805 3.534,22.906 3.536,23.035C3.452,23.055 3.382,23.107 3.323,23.169C3.364,23.236 3.417,23.273 3.5,23.266C3.451,23.393 3.495,23.491 3.627,23.529C3.611,23.384 3.65,23.264 3.813,23.246C3.943,23.232 4.07,23.194 4.152,23.082L4.069,23.743C4.045,23.945 3.786,23.964 3.636,23.924C3.677,24.279 4.028,24.2 4.067,24.191C3.967,24.244 3.901,24.336 3.883,24.449C3.862,24.591 3.918,24.799 4.05,24.877C4.219,23.89 4.219,23.908 4.384,22.93ZM3.61,28.337C3.691,28.401 3.849,28.477 3.913,28.397C4.001,28.287 3.639,27.351 3.658,27.201C3.722,26.672 4.322,26.486 4.402,26.461C4.756,26.351 5.574,26.391 5.04,26.387C4.96,26.496 4.909,26.543 4.775,26.569C5.04,26.685 5.009,26.987 5.005,27.028C4.95,27.565 4.798,27.516 4.751,28.062C4.729,28.314 4.929,28.637 4.906,28.599C4.567,28.615 4.405,28.305 4.529,28.023C4.467,28.023 4.417,28.048 4.374,28.091C4.352,28.01 4.424,27.903 4.465,27.848C4.417,27.829 4.361,27.86 4.319,27.873C4.339,27.768 4.422,27.681 4.502,27.619C4.204,27.737 4.008,27.544 4.035,27.309C4.051,27.168 4.155,26.99 4.31,26.969L4.431,26.992C4.457,26.944 4.456,26.881 4.437,26.831C4.54,26.844 4.555,26.92 4.518,27.005C4.573,27.001 4.628,27.011 4.665,27.057C4.625,27.107 4.567,27.145 4.502,27.151C4.538,27.247 4.475,27.317 4.395,27.372C4.417,27.307 4.408,27.164 4.34,27.174C4.269,27.183 4.226,27.221 4.217,27.297C4.205,27.413 4.316,27.46 4.413,27.443C4.606,27.407 4.7,27.232 4.719,27.052C4.744,26.819 4.551,26.739 4.351,26.76C4.307,26.765 3.984,26.798 3.943,27.145C3.92,27.335 4.248,28.189 4.235,28.338C4.221,28.499 4.045,28.672 3.859,28.695C3.791,28.704 3.732,28.692 3.667,28.667C3.589,28.636 3.411,28.454 3.464,28.519L3.61,28.337ZM4.469,14.235C4.396,13.711 4.748,13.394 5.062,13.346C5.71,13.247 5.782,13.846 5.791,13.92C5.797,13.966 5.824,14.194 5.738,14.507C5.381,15.804 5.033,16.762 4.963,16.955C4.928,17.052 4.924,17.156 4.926,17.258C4.929,17.441 5.087,17.598 5.274,17.573C5.416,17.553 5.605,17.329 5.602,17.14C5.6,17.012 5.552,16.791 5.373,16.822C5.256,16.842 5.181,16.913 5.184,17.035C5.185,17.085 5.201,17.146 5.266,17.135C5.338,17.123 5.333,16.863 5.348,16.934C5.426,16.94 5.449,17.028 5.432,17.093C5.477,17.097 5.517,17.118 5.547,17.152C5.518,17.193 5.481,17.228 5.434,17.247C5.459,17.332 5.437,17.402 5.347,17.443L5.357,17.326C5.177,17.417 5.035,17.277 5.031,17.1C5.026,16.843 5.202,16.609 5.453,16.612C5.377,16.583 5.346,16.502 5.337,16.43L5.446,16.437C5.387,16.335 5.361,16.305 5.357,16.188C5.42,16.21 5.464,16.249 5.527,16.206C5.407,15.973 5.544,15.607 5.84,15.477C5.679,15.76 5.691,15.993 5.694,16.04C5.712,16.387 5.863,16.883 5.866,17.092C5.871,17.377 5.684,17.569 5.654,17.601L5.653,17.594C5.737,17.606 5.802,17.643 5.842,17.718C5.617,17.835 5.273,17.875 5.135,17.834C4.982,17.838 4.824,17.738 4.755,17.602C4.709,17.509 4.644,17.166 4.742,16.896C5.169,15.71 5.463,14.562 5.516,14.356C5.545,14.238 5.556,14.12 5.541,13.999C5.507,13.722 5.248,13.616 5.113,13.637C4.939,13.664 4.808,13.847 4.832,14.021C4.843,14.099 4.889,14.205 4.987,14.19C5.157,14.164 5.137,13.982 5.081,13.864C5.192,13.904 5.284,14.001 5.28,14.125C5.359,14.125 5.422,14.163 5.475,14.219C5.441,14.29 5.393,14.352 5.309,14.368C5.354,14.503 5.301,14.616 5.183,14.688C5.199,14.559 5.189,14.403 5.017,14.43C4.901,14.448 4.774,14.442 4.695,14.343L4.76,15.037C4.775,15.255 5.039,15.186 5.158,15.116C5.151,15.161 5.104,15.505 4.741,15.515C4.839,15.547 4.89,15.638 4.898,15.741C4.911,15.915 4.787,16.166 4.711,16.234C4.698,16.074 4.63,15.234 4.469,14.235Z" style="fill:rgb(255,204,77);fill-rule:nonzero;"/>
                    <path d="M4.557,14.224C4.486,13.709 4.041,13.486 3.706,13.52C3.632,13.528 3.04,13.587 3.151,14.264C3.159,14.311 3.196,14.542 3.364,14.829C3.993,15.912 4.438,16.84 4.523,17.019C4.566,17.108 4.572,17.215 4.574,17.31C4.577,17.49 4.396,17.699 4.227,17.725C4.038,17.752 3.879,17.565 3.875,17.389C3.872,17.244 3.918,17.028 4.097,17.007C4.213,16.994 4.3,17.039 4.304,17.164C4.305,17.218 4.288,17.279 4.224,17.287C4.158,17.295 4.14,17.045 4.13,17.111C4.059,17.137 4.026,17.222 4.051,17.293C4.003,17.311 3.963,17.344 3.933,17.386C3.967,17.419 4.007,17.442 4.055,17.447C4.034,17.532 4.056,17.602 4.15,17.617L4.137,17.504C4.334,17.542 4.466,17.36 4.462,17.183C4.456,16.943 4.281,16.741 4,16.823C4.072,16.775 4.101,16.691 4.103,16.609L3.992,16.648C4.039,16.536 4.066,16.495 4.058,16.376C4.003,16.411 3.957,16.468 3.884,16.443C3.977,16.195 3.816,15.862 3.457,15.812C3.672,16.047 3.688,16.282 3.691,16.327C3.729,16.888 3.582,16.865 3.594,17.417C3.595,17.458 3.6,17.702 3.83,17.863L3.83,17.856C3.742,17.891 3.67,17.946 3.628,18.033C3.856,18.084 4.216,18.032 4.371,17.945C4.534,17.903 4.704,17.72 4.755,17.602C4.809,17.476 4.85,17.123 4.742,16.896C4.183,15.724 3.656,14.8 3.554,14.621C3.493,14.514 3.451,14.402 3.431,14.279C3.384,13.983 3.618,13.828 3.753,13.815C3.931,13.797 4.119,13.935 4.146,14.114C4.158,14.193 4.141,14.307 4.041,14.319C3.868,14.339 3.834,14.16 3.854,14.027C3.755,14.095 3.692,14.214 3.731,14.334C3.652,14.355 3.598,14.408 3.559,14.478C3.614,14.539 3.678,14.586 3.766,14.579C3.756,14.723 3.836,14.819 3.972,14.857C3.924,14.731 3.9,14.581 4.075,14.56C4.193,14.546 4.317,14.506 4.368,14.388L4.468,15.077C4.498,15.291 4.228,15.303 4.089,15.266C4.093,15.275 4.196,15.636 4.578,15.538C4.489,15.596 4.451,15.698 4.46,15.804C4.472,15.957 4.57,16.159 4.71,16.234C4.705,16.073 4.674,15.231 4.557,14.224Z" style="fill:rgb(255,204,77);fill-rule:nonzero;"/>
                    <path d="M4.313,12.698C4.391,13.173 4.038,13.501 3.709,13.534C3.284,13.577 2.974,13.304 2.906,12.94C2.898,12.897 2.857,12.681 2.936,12.39C3.292,11.081 3.557,10.222 3.615,10.035C3.645,9.936 3.636,9.829 3.623,9.73C3.6,9.555 3.379,9.383 3.184,9.398C3.011,9.412 2.826,9.631 2.852,9.815C2.874,9.97 2.968,10.17 3.158,10.151C3.278,10.139 3.371,10.078 3.353,9.946C3.345,9.886 3.314,9.835 3.246,9.842C3.176,9.849 3.198,10.106 3.174,10.04C3.094,10.03 3.043,9.951 3.058,9.873C3.004,9.869 2.955,9.843 2.915,9.806C2.947,9.766 2.987,9.735 3.037,9.72C2.998,9.631 3.023,9.56 3.116,9.527L3.118,9.644C3.309,9.567 3.496,9.694 3.523,9.888C3.558,10.15 3.395,10.378 3.09,10.357C3.174,10.388 3.223,10.463 3.242,10.546L3.116,10.532C3.189,10.631 3.226,10.665 3.243,10.786C3.176,10.762 3.117,10.717 3.045,10.756C3.198,10.983 3.104,11.343 2.75,11.448C2.912,11.185 2.875,10.951 2.868,10.907C2.813,10.565 2.575,10.044 2.545,9.841C2.504,9.555 2.702,9.374 2.733,9.346L2.734,9.353C2.636,9.334 2.548,9.291 2.49,9.207C2.734,9.115 3.141,9.091 3.313,9.14C3.507,9.142 3.714,9.29 3.78,9.387C3.849,9.488 3.954,9.835 3.873,10.101C3.542,11.185 3.244,12.356 3.193,12.553C3.165,12.664 3.159,12.774 3.18,12.887C3.226,13.136 3.492,13.264 3.65,13.248C3.819,13.231 3.97,13.072 3.94,12.897C3.926,12.814 3.87,12.723 3.773,12.734C3.6,12.753 3.616,12.918 3.68,13.037C3.571,12.999 3.46,12.909 3.46,12.783C3.376,12.779 3.304,12.739 3.243,12.683C3.282,12.612 3.333,12.561 3.419,12.552C3.363,12.42 3.421,12.316 3.543,12.253C3.53,12.396 3.563,12.526 3.734,12.507C3.855,12.494 3.991,12.498 4.078,12.596L3.986,11.931C3.959,11.715 3.671,11.784 3.548,11.844C3.588,11.454 3.955,11.467 3.982,11.466C3.878,11.435 3.812,11.347 3.796,11.242C3.769,11.07 3.887,10.824 3.965,10.758C3.991,10.913 4.11,11.615 4.313,12.698ZM4.576,21.441C4.523,21.918 4.089,22.242 3.762,22.275C3.341,22.318 3.129,22.048 3.177,21.684C3.184,21.638 3.212,21.427 3.37,21.14C4.005,19.985 4.432,19.022 4.515,18.833C4.557,18.739 4.565,18.637 4.568,18.535C4.573,18.348 4.41,18.198 4.224,18.215C4.075,18.229 3.874,18.441 3.869,18.625C3.865,18.757 3.907,18.97 4.088,18.95C4.205,18.937 4.292,18.872 4.296,18.749C4.298,18.696 4.282,18.641 4.217,18.648C4.145,18.657 4.132,18.914 4.121,18.842C4.045,18.831 4.021,18.749 4.044,18.681C3.997,18.676 3.957,18.652 3.927,18.616C3.96,18.578 4,18.545 4.049,18.53C4.027,18.443 4.052,18.376 4.146,18.34L4.132,18.455C4.313,18.378 4.461,18.506 4.455,18.69C4.447,18.932 4.256,19.167 3.99,19.15C4.064,19.183 4.09,19.26 4.091,19.335L3.981,19.32C4.03,19.423 4.054,19.454 4.045,19.567C3.978,19.54 3.942,19.502 3.872,19.54C3.969,19.767 3.781,20.118 3.447,20.214C3.66,19.962 3.676,19.734 3.679,19.688C3.715,19.163 3.57,19.185 3.587,18.651C3.596,18.371 3.796,18.195 3.829,18.166L3.828,18.172C3.741,18.156 3.669,18.114 3.628,18.033C3.867,17.939 4.23,17.915 4.371,17.96C4.524,17.96 4.685,18.058 4.752,18.197C4.797,18.289 4.85,18.626 4.733,18.894C4.647,19.09 4.206,20.099 3.566,21.299C3.511,21.403 3.471,21.512 3.456,21.63C3.429,21.839 3.572,22.011 3.795,21.988C3.959,21.972 4.154,21.789 4.172,21.638C4.181,21.563 4.155,21.468 4.06,21.479C3.904,21.496 3.855,21.641 3.885,21.778C3.783,21.737 3.719,21.637 3.751,21.527C3.677,21.523 3.62,21.489 3.575,21.429C3.629,21.364 3.691,21.311 3.779,21.298C3.762,21.156 3.856,21.062 3.976,21.005C3.934,21.123 3.909,21.274 4.086,21.254C4.189,21.242 4.324,21.238 4.383,21.343L4.467,20.686C4.496,20.464 4.182,20.558 4.086,20.603C4.093,20.582 4.19,20.241 4.57,20.232C4.477,20.2 4.443,20.109 4.45,20.014C4.463,19.85 4.616,19.607 4.7,19.539C4.694,19.692 4.666,20.435 4.576,21.441Z" style="fill:rgb(255,204,77);fill-rule:nonzero;"/>
                    <path d="M4.488,21.453C4.434,21.935 4.803,22.149 5.109,22.102C5.477,22.045 5.773,21.74 5.81,21.348C5.814,21.306 5.835,21.087 5.743,20.83C5.337,19.694 5.022,18.934 4.955,18.771C4.919,18.683 4.918,18.577 4.92,18.485C4.925,18.306 5.108,18.096 5.272,18.064C5.455,18.028 5.6,18.211 5.596,18.38C5.593,18.525 5.539,18.74 5.365,18.769C5.252,18.788 5.173,18.744 5.177,18.623C5.179,18.569 5.198,18.51 5.26,18.499C5.322,18.489 5.328,18.731 5.341,18.669C5.409,18.64 5.446,18.557 5.425,18.484C5.474,18.465 5.513,18.429 5.542,18.386C5.511,18.356 5.474,18.334 5.429,18.333C5.451,18.253 5.438,18.179 5.344,18.168L5.353,18.28C5.16,18.249 5.03,18.438 5.024,18.608C5.017,18.855 5.18,19.037 5.444,18.946C5.373,18.996 5.338,19.078 5.328,19.161L5.437,19.117C5.383,19.224 5.351,19.269 5.346,19.386C5.391,19.356 5.45,19.29 5.517,19.312C5.399,19.569 5.522,19.877 5.832,19.895C5.807,19.863 5.669,19.687 5.684,19.413C5.702,19.085 5.856,18.533 5.861,18.332C5.865,18.166 5.793,17.999 5.652,17.905L5.652,17.911C5.739,17.869 5.805,17.806 5.844,17.717C5.636,17.686 5.285,17.756 5.137,17.848C4.977,17.895 4.807,18.08 4.754,18.196C4.698,18.32 4.645,18.672 4.734,18.893C5.126,19.853 5.468,20.868 5.527,21.042C5.562,21.145 5.573,21.248 5.562,21.356C5.537,21.609 5.295,21.789 5.151,21.811C4.991,21.836 4.84,21.715 4.858,21.547C4.867,21.464 4.915,21.367 5.006,21.353C5.182,21.327 5.155,21.511 5.11,21.618C5.208,21.556 5.308,21.447 5.299,21.323C5.379,21.298 5.44,21.244 5.49,21.178C5.449,21.118 5.398,21.085 5.321,21.094C5.359,20.97 5.316,20.876 5.188,20.843C5.21,20.979 5.186,21.104 5.029,21.128C4.9,21.148 4.786,21.186 4.711,21.299L4.76,20.646C4.771,20.453 5.011,20.423 5.155,20.457C5.113,20.224 4.957,20.153 4.733,20.209C4.827,20.153 4.88,20.06 4.888,19.952C4.898,19.811 4.829,19.614 4.7,19.538C4.687,19.692 4.625,20.443 4.488,21.453ZM3.566,7.301C3.644,7.22 3.794,7.082 3.872,7.162C3.958,7.252 3.579,8.309 3.594,8.456C3.657,9.046 4.27,9.022 4.335,9.024C4.698,9.04 5.503,8.746 4.979,8.912C4.892,8.819 4.841,8.795 4.712,8.805C4.751,8.777 4.981,8.609 4.951,8.262C4.905,7.748 4.747,7.795 4.71,7.274C4.684,6.915 5.109,6.232 4.875,6.677C4.525,6.766 4.369,7.133 4.485,7.378C4.429,7.395 4.378,7.388 4.331,7.352C4.31,7.436 4.368,7.52 4.419,7.577C4.373,7.61 4.327,7.596 4.273,7.591C4.29,7.692 4.367,7.758 4.453,7.803C4.163,7.768 3.951,8.005 3.975,8.252C3.988,8.385 4.093,8.548 4.248,8.527L4.371,8.468C4.399,8.516 4.392,8.585 4.375,8.634C4.466,8.596 4.501,8.522 4.458,8.431C4.519,8.416 4.572,8.388 4.608,8.335C4.563,8.29 4.505,8.274 4.443,8.284C4.477,8.189 4.427,8.124 4.339,8.087C4.364,8.159 4.355,8.297 4.28,8.307C4.206,8.317 4.165,8.284 4.159,8.215C4.147,8.099 4.254,8.019 4.358,8.01C4.555,7.99 4.646,8.153 4.662,8.325C4.693,8.661 4.329,8.723 4.285,8.731C4.082,8.765 3.902,8.657 3.88,8.443C3.86,8.254 4.205,7.286 4.194,7.138C4.181,6.948 3.999,6.849 3.822,6.871C3.75,6.88 3.689,6.909 3.629,6.948C3.548,7 3.367,7.227 3.422,7.148L3.566,7.301Z" style="fill:rgb(255,204,77);fill-rule:nonzero;"/>
                    <path d="M3.566,7.301C3.476,7.239 3.305,7.145 3.244,7.236C3.179,7.335 3.743,8.361 3.751,8.438C3.812,9.026 3.233,9.145 3.152,9.168C2.794,9.269 1.94,9.164 2.49,9.207C2.554,9.095 2.601,9.061 2.729,9.042C2.685,9.024 2.415,8.912 2.374,8.565C2.314,8.05 2.48,8.064 2.433,7.539C2.401,7.184 1.888,6.595 2.182,6.987C2.543,6.998 2.747,7.325 2.672,7.591C2.732,7.594 2.781,7.575 2.821,7.53C2.857,7.609 2.813,7.706 2.772,7.771C2.823,7.793 2.87,7.767 2.92,7.751C2.92,7.854 2.854,7.938 2.78,8C3.061,7.898 3.31,8.084 3.335,8.329C3.35,8.463 3.281,8.645 3.125,8.661L2.992,8.633C2.975,8.686 2.996,8.751 3.024,8.796C2.928,8.781 2.876,8.714 2.898,8.618C2.837,8.618 2.776,8.603 2.731,8.558C2.764,8.505 2.819,8.474 2.882,8.47C2.828,8.382 2.868,8.308 2.945,8.253C2.935,8.328 2.973,8.461 3.047,8.454C3.121,8.447 3.155,8.405 3.148,8.335C3.136,8.219 3.014,8.167 2.911,8.181C2.714,8.208 2.653,8.384 2.673,8.559C2.712,8.896 3.087,8.871 3.132,8.868C3.172,8.866 3.506,8.841 3.468,8.491C3.454,8.363 2.933,7.419 2.922,7.287C2.906,7.095 3.072,6.957 3.251,6.938C3.322,6.93 3.385,6.944 3.452,6.968C3.538,6.999 3.749,7.18 3.684,7.116L3.566,7.301ZM4.222,12.709C4.301,13.182 4.746,13.409 5.064,13.36C5.469,13.298 5.663,12.968 5.613,12.604C5.607,12.559 5.578,12.342 5.418,12.082C5.086,11.542 4.208,10.143 4.103,9.975C4.049,9.888 4.029,9.781 4.017,9.682C3.995,9.508 4.166,9.289 4.359,9.257C4.525,9.23 4.756,9.398 4.777,9.584C4.794,9.735 4.759,9.953 4.572,9.979C4.453,9.997 4.349,9.958 4.333,9.828C4.325,9.768 4.34,9.711 4.408,9.701C4.478,9.691 4.522,9.946 4.527,9.876C4.602,9.847 4.63,9.76 4.596,9.688C4.645,9.67 4.686,9.633 4.714,9.589C4.673,9.557 4.628,9.536 4.576,9.534C4.592,9.439 4.551,9.376 4.454,9.365L4.48,9.479C4.277,9.449 4.129,9.618 4.154,9.811C4.184,10.047 4.392,10.257 4.691,10.161C4.618,10.212 4.593,10.296 4.597,10.379L4.713,10.336C4.67,10.449 4.644,10.492 4.662,10.611C4.719,10.572 4.763,10.514 4.841,10.536C4.759,10.789 4.95,11.113 5.311,11.135C5.084,10.917 5.055,10.685 5.049,10.641C4.978,10.076 5.134,10.089 5.074,9.538C5.043,9.251 4.814,9.122 4.777,9.101L4.778,9.108C4.868,9.067 4.941,9.006 4.979,8.912C4.723,8.878 4.327,8.949 4.172,9.037C3.986,9.085 3.819,9.279 3.78,9.387C3.738,9.502 3.723,9.862 3.873,10.101C3.983,10.276 4.684,11.393 5.231,12.297C5.29,12.396 5.331,12.5 5.347,12.614C5.383,12.869 5.172,13.049 5.027,13.072C4.859,13.097 4.67,12.979 4.643,12.807C4.63,12.726 4.652,12.623 4.748,12.609C4.915,12.585 4.954,12.744 4.931,12.877C5.024,12.811 5.093,12.697 5.055,12.581C5.132,12.557 5.186,12.503 5.225,12.434C5.169,12.376 5.106,12.338 5.021,12.35C5.032,12.208 4.945,12.123 4.813,12.093C4.865,12.219 4.884,12.358 4.713,12.382C4.597,12.399 4.468,12.436 4.416,12.553L4.294,11.892C4.252,11.677 4.553,11.674 4.682,11.701C4.612,11.537 4.46,11.374 4.156,11.446C4.247,11.391 4.283,11.288 4.268,11.185C4.243,11.014 4.059,10.805 3.965,10.76C3.984,10.916 4.071,11.642 4.222,12.709Z" style="fill:rgb(255,204,77);fill-rule:nonzero;"/>
                </g>
            </g>
        </g>
    </g>
</svg>
