<?xml version="1.0" encoding="UTF-8" standalone="no"?>
<!DOCTYPE svg PUBLIC "-//W3C//DTD SVG 1.1//EN" "http://www.w3.org/Graphics/SVG/1.1/DTD/svg11.dtd">
<svg width="100%" height="100%" viewBox="0 0 512 512" version="1.1" xmlns="http://www.w3.org/2000/svg" xmlns:xlink="http://www.w3.org/1999/xlink" xml:space="preserve" xmlns:serif="http://www.serif.com/" style="fill-rule:evenodd;clip-rule:evenodd;stroke-linejoin:round;stroke-miterlimit:2;">
    <g transform="matrix(1.11593,-4.03717e-17,4.03717e-17,1.11593,-13.9687,-19.1113)">
        <g transform="matrix(11.1111,-2.35563e-31,0,11.1111,-2371.15,-2417.74)">
            <g>
                <g transform="matrix(0.896117,3.24196e-17,-3.24196e-17,0.896117,219.046,223.655)">
                    <path d="M36.472,27.17C36.268,29.3 34.172,31.438 32.069,31.737C22.764,33.062 21.617,31.929 16.923,30.475C12.024,28.957 9.406,30.043 4.002,30.751C1.734,31.048 0.032,29.153 0.333,26.993C0.731,24.136 1.48,20.893 1.447,17.745C1.416,14.7 0.699,12.641 0.255,9.01C-0.023,6.737 1.899,5.025 4,4.757C11.375,3.817 11.85,2.887 18.359,4.935C24.284,6.8 24.43,6.609 32,5.435C34.291,5.079 36.033,6.93 36.304,9.019C37.335,16.956 37.438,17.114 36.472,27.17Z" style="fill:rgb(0,102,0);fill-rule:nonzero;"/>
                </g>
                <g transform="matrix(0.896117,3.24196e-17,-3.24196e-17,0.896117,219.046,223.655)">
                    <path d="M0.892,13.007C6.763,13.011 9.897,11.244 14.04,11.804C16.931,12.195 20.485,13.916 23.399,14.266C26.851,14.681 32.801,13.147 36.836,13.017C37.376,17.912 36.941,22.27 36.862,23.071C27.88,23.393 27.679,25.945 18.36,22.934C9.959,20.22 9.783,22.994 0.971,22.997C1.792,17.917 1.408,15.774 0.892,13.007Z" style="fill:rgb(187,22,0);fill-rule:nonzero;"/>
                </g>
                <g transform="matrix(0.896117,3.24196e-17,-3.24196e-17,0.896117,219.046,223.655)">
                    <path d="M32,5.435C24.446,6.606 24.298,6.804 18.359,4.935C11.85,2.887 11.375,3.817 4,4.757C1.899,5.025 -0.023,6.737 0.255,9.01C0.459,10.68 0.833,12.689 0.892,13.007C6.763,13.011 9.897,11.244 14.04,11.804C16.931,12.195 20.485,13.916 23.399,14.266C26.851,14.681 32.801,13.147 36.836,13.017C36.736,12.112 36.336,9.263 36.304,9.019C36.033,6.93 34.291,5.079 32,5.435Z" style="fill:rgb(20,20,20);fill-rule:nonzero;"/>
                </g>
                <g transform="matrix(0.896117,3.24196e-17,-3.24196e-17,0.896117,219.046,223.655)">
                    <path d="M0.892,13.007C6.763,13.011 9.897,11.244 14.04,11.804C16.931,12.195 20.485,13.916 23.399,14.266C26.851,14.681 32.801,13.147 36.836,13.017L36.931,14.011C28.999,14.271 27.291,16.815 19.08,14.171C16.102,13.213 14.268,12.424 10.546,12.82C7.036,13.194 5.634,14.02 1.083,14.014L0.892,13.007ZM1.125,22.002C7.017,22.004 9.879,20.242 14.04,20.804C16.931,21.195 20.485,22.916 23.399,23.266C26.857,23.681 32.884,22.145 36.965,22.012L36.862,23.071C27.88,23.393 27.679,25.945 18.36,22.934C9.959,20.22 9.783,22.994 0.971,22.997L1.125,22.002Z" style="fill:rgb(238,238,238);fill-rule:nonzero;"/>
                </g>
                <g transform="matrix(0.896117,3.24196e-17,-3.24196e-17,0.896117,219.046,223.655)">
                    <path d="M23.053,10.623C22.996,10.58 22.319,11.189 22.259,11.243L21.474,11.92C21.233,12.117 20.152,12.928 20.692,13.64C18.542,16.627 15.809,20.101 13.427,23.911C13.409,23.939 13.416,23.971 13.43,23.998C13.475,24.083 13.628,24.191 13.724,24.203L13.727,24.203C13.757,24.207 13.788,24.201 13.806,24.173C16.162,20.488 18.871,17.065 21.074,13.969C21.837,14.36 22.316,12.839 22.378,12.668L22.759,11.639C22.789,11.56 23.122,10.674 23.053,10.623Z" style="fill:rgb(20,20,20);fill-rule:nonzero;"/>
                </g>
                <g transform="matrix(0.896117,3.24196e-17,-3.24196e-17,0.896117,219.046,223.655)">
                    <path d="M22.304,11.293L21.518,11.972C21.214,12.222 20.234,12.988 20.75,13.631L20.768,13.652C18.607,16.661 15.864,20.143 13.478,23.946L13.483,23.973C13.517,24.038 13.652,24.133 13.725,24.142L13.727,24.142L13.755,24.136C16.117,20.429 18.83,17 21.034,13.907L21.046,13.891L21.068,13.903C21.774,14.298 22.245,12.848 22.321,12.635L22.702,11.607C22.73,11.534 23.016,10.775 23.016,10.675C22.964,10.697 22.36,11.242 22.304,11.293Z" style="fill:white;fill-rule:nonzero;"/>
                </g>
                <g transform="matrix(0.896117,3.24196e-17,-3.24196e-17,0.896117,219.046,223.655)">
                    <path d="M15.308,12.002C15.854,11.566 14.637,10.047 14.525,9.908L13.74,8.935C13.682,8.864 13.028,8.067 12.946,8.113C12.881,8.151 13.21,9.106 13.239,9.19L13.62,10.321C13.673,10.485 14.154,12.164 14.925,12.139C17.226,16.475 19.896,22.107 22.192,26.459C22.209,26.491 22.238,26.508 22.271,26.515L22.274,26.515C22.371,26.534 22.515,26.483 22.568,26.397C22.585,26.369 22.587,26.339 22.571,26.31C20.257,21.985 17.59,16.36 15.308,12.002Z" style="fill:rgb(20,20,20);fill-rule:nonzero;"/>
                </g>
                <g transform="matrix(0.896117,3.24196e-17,-3.24196e-17,0.896117,219.046,223.655)">
                    <path d="M15.25,11.963C15.788,11.569 14.589,10.076 14.481,9.941L13.695,8.97C13.641,8.904 13.093,8.238 12.981,8.173C12.981,8.264 13.268,9.094 13.295,9.174L13.676,10.308C13.776,10.615 14.236,12.132 14.93,12.077L14.952,12.075L14.964,12.098C17.266,16.443 19.94,22.084 22.242,26.44L22.27,26.456L22.272,26.456C22.34,26.469 22.476,26.422 22.514,26.36L22.519,26.333C20.2,21.991 17.524,16.345 15.23,11.975L15.25,11.963Z" style="fill:white;fill-rule:nonzero;"/>
                </g>
                <g transform="matrix(0.896117,3.24196e-17,-3.24196e-17,0.896117,219.046,223.655)">
                    <path d="M18.018,10.28L18,10.26L17.982,10.268C17.069,10.655 14.278,11.989 14.278,16.82C14.278,19.466 15.109,22.221 17.982,25.315L18,25.334L18.018,25.327C19.394,24.743 21.721,23.337 21.721,18.935C21.721,17.262 21.432,13.955 18.018,10.28Z" style="fill:rgb(20,20,20);fill-rule:nonzero;"/>
                </g>
                <g transform="matrix(0.896117,3.24196e-17,-3.24196e-17,0.896117,219.046,223.655)">
                    <path d="M20.879,14.79C20.282,13.271 19.264,11.7 17.999,10.335C17.434,10.576 15.998,11.268 15.122,13.049C15.533,14.063 15.904,15.471 15.904,17.174C15.904,17.923 15.841,19.459 15.125,20.915C15.659,22.229 16.597,23.746 17.998,25.259C18.629,24.99 20.029,24.304 20.874,22.639C20.418,21.48 20.098,20.064 20.098,18.487C20.099,17.816 20.147,16.237 20.879,14.79Z" style="fill:rgb(187,22,0);fill-rule:nonzero;"/>
                </g>
                <g transform="matrix(0.896117,3.24196e-17,-3.24196e-17,0.896117,219.046,223.655)">
                    <path d="M18,18.743C18.263,18.829 18.555,18.549 18.555,17.979C18.555,17.435 18.279,16.941 18,16.85C17.736,16.764 17.446,17.047 17.446,17.618C17.445,18.163 17.721,18.652 18,18.743ZM17.769,16.171C17.058,14.894 17.023,13.588 17.023,13.114C17.023,12.874 17.003,11.409 17.769,10.527L17.769,16.171ZM18.231,16.322C18.989,15.452 18.975,14.017 18.975,13.746C18.975,13.312 18.949,11.975 18.231,10.678L18.231,16.322ZM17.769,19.271C17.001,20.151 17.023,21.625 17.023,21.856C17.023,22.348 17.061,23.643 17.769,24.914L17.769,19.271ZM18.231,19.422C18.952,20.721 18.975,22.067 18.975,22.488C18.975,22.772 18.987,24.196 18.231,25.065L18.231,19.422Z" style="fill:white;fill-rule:nonzero;"/>
                </g>
            </g>
        </g>
    </g>
</svg>
