<?xml version="1.0" encoding="UTF-8" standalone="no"?>
<!DOCTYPE svg PUBLIC "-//W3C//DTD SVG 1.1//EN" "http://www.w3.org/Graphics/SVG/1.1/DTD/svg11.dtd">
<svg width="100%" height="100%" viewBox="0 0 512 512" version="1.1" xmlns="http://www.w3.org/2000/svg" xmlns:xlink="http://www.w3.org/1999/xlink" xml:space="preserve" xmlns:serif="http://www.serif.com/" style="fill-rule:evenodd;clip-rule:evenodd;stroke-linejoin:round;stroke-miterlimit:2;">
    <g transform="matrix(1.11593,-4.03717e-17,4.03717e-17,1.11593,-13.9687,-19.1113)">
        <g transform="matrix(11.1111,-2.35563e-31,0,11.1111,-2371.15,-2417.74)">
            <g>
                <g transform="matrix(0.896117,3.24196e-17,-3.24196e-17,0.896117,219.046,223.655)">
                    <path d="M36.472,27.17C36.268,29.3 34.172,31.438 32.069,31.737C22.764,33.062 21.617,31.929 16.923,30.475C12.024,28.957 9.406,30.043 4.002,30.751C1.734,31.048 0.032,29.153 0.333,26.993C0.731,24.136 1.48,20.893 1.447,17.745C1.416,14.7 0.699,12.641 0.255,9.01C-0.023,6.737 1.899,5.025 4,4.757C11.375,3.817 11.85,2.887 18.359,4.935C24.284,6.8 24.43,6.609 32,5.435C34.291,5.079 36.033,6.93 36.304,9.019C37.335,16.956 37.438,17.114 36.472,27.17Z" style="fill:rgb(238,238,238);fill-rule:nonzero;"/>
                </g>
                <g transform="matrix(0.896117,3.24196e-17,-3.24196e-17,0.896117,219.046,223.655)">
                    <path d="M32,5.435C24.446,6.606 24.298,6.804 18.359,4.935C11.85,2.887 11.375,3.817 4,4.757C1.899,5.025 -0.023,6.737 0.255,9.01C0.715,12.775 1.468,14.811 1.448,18.098C9.605,18.18 9.777,15.162 18.322,17.922C27.703,20.951 27.906,18.34 37.037,18.014C37.039,13.812 36.52,10.793 36.304,9.019C36.033,6.93 34.291,5.079 32,5.435Z" style="fill:rgb(206,17,38);fill-rule:nonzero;"/>
                </g>
                <g transform="matrix(0.896117,3.24196e-17,-3.24196e-17,0.896117,219.046,223.655)">
                    <path d="M20.878,18.467C21.253,18.063 21.929,18.567 22.001,18.621C21.94,18.02 21.203,17.427 20.88,17.284C21.088,16.642 21.873,16.924 21.957,16.954C21.708,16.377 20.822,16.089 20.483,16.056C20.443,15.308 21.204,15.334 21.291,15.337C20.885,14.83 20.047,14.825 19.736,14.915C19.557,14.428 19.757,14.028 20.178,13.883C19.657,13.486 18.96,13.776 18.729,13.992C18.403,13.531 18.459,13.037 18.75,12.746C18.188,12.518 17.708,13.079 17.583,13.41C17.169,13.065 17.032,12.535 17.177,12.1C16.652,12.09 16.426,12.847 16.436,13.266C16.004,13.091 15.683,12.627 15.656,12.086C15.22,12.3 15.273,13.158 15.427,13.592C15.024,13.595 14.581,13.285 14.367,12.738C14.061,13.151 14.409,13.98 14.678,14.34C14.336,14.503 13.843,14.381 13.466,13.937C13.329,14.486 13.963,15.159 14.28,15.383C14.154,15.535 13.904,16.006 13.376,15.694C13.442,16.338 14.084,16.505 14.281,16.566C16.316,16.888 19.196,17.988 20.878,18.467Z" style="fill:rgb(255,172,51);fill-rule:nonzero;"/>
                </g>
                <g transform="matrix(0.896117,3.24196e-17,-3.24196e-17,0.896117,219.046,223.655)">
                    <path d="M19.922,17.585C21.231,17.522 22.007,17.406 22.187,17.379C21.992,17.338 21.19,17.17 19.784,16.73C20.846,16.171 21.488,15.787 21.633,15.7C21.454,15.723 20.731,15.816 19.377,15.884C20.074,14.897 20.493,14.29 20.59,14.151C20.444,14.233 19.942,14.518 18.754,15.149C18.897,14.394 19.04,13.639 19.183,12.884C18.785,13.461 18.387,14.038 17.99,14.615C17.854,13.768 17.718,12.921 17.583,12.074C17.447,12.834 17.311,13.594 17.176,14.355C16.522,12.987 16.08,12.083 15.984,11.885C16.127,12.727 16.27,13.568 16.413,14.41C15.406,13.255 14.729,12.551 14.578,12.393C14.677,12.583 15.148,13.49 15.79,14.772C14.555,13.991 13.72,13.601 13.533,13.514C13.687,13.658 14.39,14.316 15.384,15.387C14.072,15.075 13.172,15.037 12.977,15.029C13.165,15.104 14.016,15.444 15.245,16.167C16.685,16.491 19.422,17.428 19.922,17.585Z" style="fill:rgb(255,241,0);fill-rule:nonzero;"/>
                </g>
                <g transform="matrix(0.896117,3.24196e-17,-3.24196e-17,0.896117,219.046,223.655)">
                    <path d="M17.583,19.202C18.911,19.627 19.922,18.864 19.922,17.587C19.922,16.272 18.826,14.846 17.583,14.448C16.257,14.024 15.244,14.89 15.244,16.168C15.244,17.491 16.357,18.81 17.583,19.202Z" style="fill:rgb(255,241,0);fill-rule:nonzero;"/>
                </g>
                <g transform="matrix(0.896117,3.24196e-17,-3.24196e-17,0.896117,219.046,223.655)">
                    <path d="M17.583,19.232C16.344,18.836 15.214,17.5 15.214,16.162C15.214,14.871 16.241,13.99 17.583,14.419C18.839,14.821 19.952,16.268 19.952,17.596C19.952,18.887 18.926,19.662 17.583,19.232ZM17.583,14.478C16.278,14.06 15.273,14.915 15.273,16.175C15.273,17.479 16.373,18.785 17.583,19.172C18.89,19.59 19.892,18.837 19.892,17.578C19.892,16.283 18.809,14.87 17.583,14.478Z" style="fill:rgb(241,90,41);fill-rule:nonzero;"/>
                </g>
                <g transform="matrix(0.896117,3.24196e-17,-3.24196e-17,0.896117,219.046,223.655)">
                    <path d="M17.438,9.139C17.392,9.062 17.067,8.521 16.736,8.274C16.147,7.835 15.522,7.852 15.411,7.855C14.265,7.884 14.254,8.056 13.51,7.773C13.297,7.693 13.492,7.949 13.541,7.982C13.858,8.196 14.757,8.258 14.865,8.266C15.283,8.296 15.812,8.467 15.972,8.572C16.197,8.72 16.665,9.213 16.837,9.57L17.438,9.139ZM18.669,10.918C18.809,10.909 19.257,11.019 19.377,11.077C19.624,11.199 19.909,11.16 19.956,11.154C19.999,11.148 20.069,10.984 19.293,10.775C19.243,10.762 18.736,10.623 18.669,10.918Z" style="fill:rgb(255,172,51);fill-rule:nonzero;"/>
                </g>
                <g transform="matrix(0.896117,3.24196e-17,-3.24196e-17,0.896117,219.046,223.655)">
                    <path d="M21.094,9.282C19.731,8.844 19.265,8.949 18.748,8.822C18.709,8.813 17.954,8.581 17.47,8.991C17.418,9.035 16.975,9.408 16.776,9.482L16.732,9.507C16.68,9.487 16.367,9.372 16.16,9.115C16.123,9.07 15.793,8.657 15.459,8.915C15.383,8.975 15.341,8.991 15.244,8.969C15.194,8.958 14.668,8.84 14.663,9.226C14.827,9.05 15.146,9.152 15.24,9.173C15.327,9.193 15.388,9.269 15.427,9.343C15.508,9.5 15.723,9.676 15.895,9.725C16.046,9.768 16.266,10.066 16.292,10.102C16.659,10.601 17.515,11.11 18.241,11.07C18.47,11.058 19.08,10.685 19.676,10.891C20.146,11.053 20.317,10.949 20.401,10.957C20.238,10.814 20.275,10.792 20.097,10.691C19.443,10.32 18.834,10.252 18.748,10.24C18.607,10.22 18.465,10.149 18.344,10.081C18.391,10.084 18.437,10.071 18.451,10.019C18.525,10.071 18.689,10.097 18.728,9.983C18.798,10.036 18.958,10.069 19.005,9.965C19.092,10.025 19.251,10.085 19.323,9.966C19.394,10.032 19.553,10.049 19.58,9.926C19.642,9.987 19.795,10.058 19.83,9.927C19.898,9.995 20.072,10.05 20.064,9.889C20.106,9.923 20.217,9.942 20.227,9.861C20.263,9.873 20.686,10.042 20.686,9.848C20.81,9.89 21.099,9.918 21.094,9.708C21.211,9.732 21.365,9.683 21.402,9.556C21.454,9.403 21.187,9.312 21.094,9.282Z" style="fill:rgb(252,209,22);fill-rule:nonzero;"/>
                </g>
                <g transform="matrix(0.896117,3.24196e-17,-3.24196e-17,0.896117,219.046,223.655)">
                    <path d="M15,16.971C16.549,17.295 19.159,18.204 20,18.467L20,20.467C19.291,20.246 16.569,19.3 15,18.971L15,16.971Z" style="fill:rgb(238,238,238);fill-rule:nonzero;"/>
                </g>
                <g transform="matrix(0.896117,3.24196e-17,-3.24196e-17,0.896117,219.046,223.655)">
                    <path d="M36.329,27.89C35.727,28.259 34.855,28.374 34.722,28.392C32.825,28.644 32.892,27.667 30.989,27.912C29.214,28.141 28.807,29.204 27.083,29.322C25.497,29.431 25.338,28.56 23.426,28.332C21.618,28.116 21.43,28.984 19.82,28.473C18.19,27.956 17.774,26.76 16.183,26.322C14.631,25.895 14.403,26.758 12.546,26.766C10.794,26.773 10.506,25.839 8.976,26.06C7.432,26.282 7.017,27.375 5.426,27.627C3.853,27.876 3.689,26.945 1.992,27.029C1.059,27.075 0.444,27.38 0.321,27.439C0.289,29.392 1.887,31.028 4.002,30.751C11.37,29.786 11.847,28.83 18.359,30.934C21.72,32.02 23.307,32.985 32.069,31.737C34.001,31.462 35.823,29.674 36.329,27.89ZM36.622,25.574C36.686,24.9 36.75,24.225 36.814,23.551C36.114,23.976 35.297,24.054 35.076,24.075C33.078,24.268 33.173,23.197 31.184,23.49C29.332,23.762 28.913,24.891 27.116,25.044C25.507,25.181 25.336,24.303 23.425,24.075C21.617,23.859 21.429,24.727 19.819,24.216C18.189,23.699 17.773,22.504 16.182,22.066C14.63,21.639 14.4,22.502 12.546,22.51C10.832,22.517 10.576,21.583 9.156,21.806C7.742,22.027 7.343,23.118 5.879,23.37C4.426,23.62 4.324,22.694 2.694,22.778C1.735,22.828 0.972,23.191 0.938,23.206C0.775,24.205 0.773,24.19 0.608,25.201C0.689,25.164 1.391,24.82 2.353,24.772C4.015,24.689 4.134,25.618 5.649,25.368C7.177,25.117 7.592,24.025 9.067,23.804C10.541,23.583 10.809,24.516 12.545,24.51C14.399,24.503 14.63,23.639 16.182,24.066C17.772,24.503 18.188,25.699 19.819,26.216C21.428,26.727 21.61,25.862 23.447,26.078C25.335,26.3 25.502,27.185 27.156,27.061C28.863,26.934 29.283,25.849 31.086,25.61C33.54,25.284 33.616,26.283 34.91,26.142C35.833,26.042 36.498,25.643 36.622,25.574ZM37.03,21.139C37.04,20.984 37.091,20.187 37.108,19.195C36.387,19.608 35.402,19.671 35.358,19.675C33.291,19.871 33.35,18.902 31.306,19.205C29.429,19.483 28.987,20.573 27.168,20.753C25.527,20.914 25.319,20.043 23.425,19.817C21.617,19.601 21.429,20.469 19.819,19.958C18.189,19.441 17.773,18.246 16.182,17.808C14.63,17.381 14.445,18.233 12.549,18.252C10.905,18.269 10.658,17.341 9.298,17.577C7.948,17.811 7.623,18.894 6.251,19.155C4.897,19.412 4.698,18.509 3.127,18.607C2.987,18.616 2.294,18.659 1.425,19.027C1.417,19.183 1.382,19.952 1.262,20.972C1.393,20.916 2.132,20.6 2.995,20.552C4.587,20.462 4.731,21.372 6.118,21.122C7.518,20.868 7.885,19.784 9.254,19.558C10.633,19.331 10.87,20.261 12.547,20.252C14.409,20.242 14.63,19.381 16.182,19.808C17.772,20.245 18.188,21.441 19.819,21.958C21.428,22.469 21.61,21.604 23.447,21.82C25.316,22.039 25.526,22.916 27.206,22.747C28.96,22.57 29.407,21.484 31.278,21.206C33.293,20.906 33.241,21.839 35.277,21.644C36.209,21.557 36.802,21.257 37.03,21.139Z" style="fill:rgb(0,36,125);fill-rule:nonzero;"/>
                </g>
                <g transform="matrix(0.896117,3.24196e-17,-3.24196e-17,0.896117,219.046,223.655)">
                    <path d="M37.109,19.138C37.112,18.979 37.125,18.17 37.099,17.157C36.856,17.3 36.291,17.615 35.365,17.702C33.282,17.9 33.355,16.861 31.287,17.169C29.416,17.447 28.991,18.538 27.17,18.717C25.526,18.879 25.318,18.008 23.425,17.782C21.617,17.566 21.429,18.434 19.819,17.923C18.189,17.406 17.773,16.211 16.182,15.773C14.629,15.346 14.483,16.189 12.549,16.218C10.915,16.242 10.65,15.312 9.288,15.551C7.929,15.789 7.651,16.884 6.288,17.152C4.943,17.416 4.665,16.496 3.096,16.598C2.958,16.606 2.269,16.651 1.43,17.029C1.436,17.186 1.471,17.991 1.426,18.993C2.295,18.625 2.988,18.582 3.128,18.573C4.697,18.475 4.898,19.378 6.253,19.12C7.624,18.859 7.948,17.777 9.299,17.542C10.658,17.307 10.905,18.234 12.549,18.217C14.446,18.198 14.63,17.346 16.182,17.773C17.772,18.21 18.188,19.406 19.819,19.923C21.428,20.434 21.61,19.569 23.447,19.785C25.313,20.004 25.535,20.881 27.227,20.712C28.998,20.535 29.429,19.448 31.306,19.17C33.35,18.867 33.293,19.823 35.361,19.628C36.174,19.551 36.725,19.339 37.109,19.138Z" style="fill:rgb(238,238,238);fill-rule:nonzero;"/>
                </g>
            </g>
        </g>
    </g>
</svg>
