<?xml version="1.0" encoding="UTF-8" standalone="no"?>
<!DOCTYPE svg PUBLIC "-//W3C//DTD SVG 1.1//EN" "http://www.w3.org/Graphics/SVG/1.1/DTD/svg11.dtd">
<svg width="100%" height="100%" viewBox="0 0 512 512" version="1.1" xmlns="http://www.w3.org/2000/svg" xmlns:xlink="http://www.w3.org/1999/xlink" xml:space="preserve" xmlns:serif="http://www.serif.com/" style="fill-rule:evenodd;clip-rule:evenodd;stroke-linejoin:round;stroke-miterlimit:2;">
    <g transform="matrix(1.11593,-4.03717e-17,4.03717e-17,1.11593,-13.9687,-19.1113)">
        <g transform="matrix(11.1111,-1.36955e-31,4.93038e-32,11.1111,-2411.79,-2528.08)">
            <g>
                <g transform="matrix(0.896117,3.24196e-17,-3.24196e-17,0.896117,222.704,233.585)">
                    <path d="M36.469,27.17C36.262,29.289 34.174,31.437 32.068,31.737C22.767,33.063 21.617,31.929 16.923,30.475C12.025,28.957 9.41,30.043 4.002,30.751C1.724,31.049 0.033,29.147 0.333,26.993C0.76,23.929 1.552,20.621 1.436,17.229C1.343,14.486 0.678,12.475 0.255,9.01C-0.023,6.74 1.891,5.026 4,4.757C11.375,3.817 11.85,2.887 18.359,4.935C24.284,6.8 24.43,6.609 32,5.435C34.301,5.078 36.029,6.947 36.301,9.019C37.368,17.137 37.447,17.156 36.469,27.17Z" style="fill:rgb(36,74,165);fill-rule:nonzero;"/>
                </g>
                <g transform="matrix(0.896117,3.24196e-17,-3.24196e-17,0.896117,222.704,233.585)">
                    <path d="M17.66,13.201L17.873,13.261L18.288,13.754C18.295,13.862 18.351,13.94 18.443,13.994L18.176,13.949C18.141,13.989 18.098,14.013 18.047,14.023C18.074,14.174 18.23,14.316 18.31,14.419C18.42,14.464 18.516,14.493 18.592,14.585L18.802,14.658L18.822,14.927C18.879,14.939 19.017,15.002 19.037,14.897L19.497,15.047C19.542,15.143 19.636,15.177 19.716,15.238L19.765,15.437C19.845,15.354 19.916,15.266 20.043,15.303L20.19,15.525C20.28,15.56 20.356,15.596 20.395,15.687L20.538,15.737L20.577,16.243L20.663,16.319L20.683,16.722C20.736,16.781 20.906,16.948 20.988,16.828L21.109,16.865C21.165,16.956 21.231,17.04 21.31,17.111L21.326,17.506C21.498,17.617 21.393,17.802 21.436,17.978C21.525,18.062 21.599,18.162 21.644,18.277L21.719,18.165L22.025,18.255L22.169,18.452L22.254,18.563C22.328,18.601 22.397,18.64 22.453,18.701L22.634,18.757C22.683,18.875 22.799,18.887 22.903,18.932L22.771,18.999C22.765,19.618 22.767,19.616 22.761,19.657L22.68,19.683C22.677,19.786 22.658,19.898 22.579,19.971L22.766,20.014L22.772,20.118L22.858,20.138L22.87,20.038L23.032,20.074L23.036,20.173C23.135,20.213 23.276,20.192 23.326,20.309L24.073,20.439L24.08,20.572L24.191,20.721L24.442,20.754L24.43,20.899C24.502,20.973 24.585,21.046 24.695,21.056L24.702,20.873L24.865,20.888L24.88,20.788C25.002,20.804 25.153,20.783 25.174,20.933L25.274,20.793C25.352,20.819 25.415,20.872 25.478,20.921L25.476,21.054C25.607,21.083 25.552,21.232 25.56,21.326L25.385,21.458L25.363,21.872L25.197,21.872L25.169,22.344L24.881,22.575L24.86,22.863L24.658,23.007L24.648,23.128C24.575,23.183 24.493,23.223 24.4,23.225L24.258,23.364L24.137,23.38L24.275,23.483L24.213,24.049C24.085,24.133 23.933,24.107 23.793,24.085L23.623,24.242C23.52,24.224 23.438,24.277 23.36,24.342L23.337,24.615C23.398,24.66 23.58,24.979 23.733,24.995C23.718,25.14 23.721,25.326 23.567,25.401L23.372,25.368C23.252,25.497 22.997,25.355 22.891,25.351L22.911,25.185L22.77,25.152L22.606,25.282C22.524,25.274 22.451,25.298 22.379,25.334L22.077,25.265L22.057,25.366L21.831,25.303C21.759,25.35 21.7,25.41 21.684,25.498L21.512,25.588C21.504,25.688 21.491,25.813 21.372,25.83C21.382,25.963 21.273,26.148 21.438,26.226L21.417,26.357L20.71,26.159L20.732,25.923C20.574,25.829 20.697,25.649 20.68,25.505L20.579,25.469L20.599,25.313C20.521,25.281 20.431,25.266 20.41,25.171L20.27,25.127L20.28,24.935L19.848,24.797L19.823,24.925L19.687,25.019L19.468,24.95L19.336,25.077L19.015,24.98L18.878,25.062L18.858,25.193C18.785,25.176 18.686,25.145 18.653,25.234L18.442,25.165L18.293,25.292L17.903,25.169C17.825,25.302 17.598,25.162 17.525,25.153C17.464,25.21 17.394,25.253 17.314,25.279L17.287,25.524L17.184,25.5L17.159,25.737L16.974,25.822L16.919,26.462L17.081,26.65L17.038,27.214L16.911,27.296L16.765,27.256L16.751,27.403L16.63,27.481L16.16,27.352L15.922,27.561L15.608,27.481C15.597,27.392 15.585,27.31 15.535,27.235L15.573,26.611L15.854,26.422L15.875,26.151L15.792,26.08L15.859,25.229L15.702,25.192C15.696,25.09 15.716,24.988 15.605,24.954L15.669,24.316L15.525,24.147C15.518,24.056 15.527,23.967 15.436,23.917L15.451,23.733C15.358,23.669 15.367,23.484 15.504,23.485L15.242,23.156L15.253,23.04L14.945,22.878C14.923,22.797 14.85,22.777 14.776,22.762L14.714,22.676C14.648,22.658 14.593,22.623 14.551,22.569L14.428,22.549C14.379,22.152 14.359,22.158 14.387,22.038L14.279,21.902L13.63,21.846C13.576,21.845 13.53,21.827 13.496,21.784L13.362,21.64L13.407,21.21C13.382,21.114 13.327,21.026 13.278,20.942L13.287,20.813L13.193,20.8L13.208,20.667C13.11,20.607 13.163,20.463 13.157,20.38L12.903,20.378L12.914,20.247L12.798,20.129L12.662,20.125L12.67,19.991C12.596,19.943 12.582,19.859 12.591,19.775L12.763,19.762L12.787,19.29C12.744,19.197 12.705,19.09 12.628,19.016L12.552,18.918L12.433,18.915L12.328,18.807L12.335,18.613C12.209,18.594 12.259,18.43 12.248,18.351C12.094,18.254 12.248,18.027 12.284,17.923L12.378,17.811L12.536,17.611L12.757,17.6L12.887,17.77L13.036,17.755L13.033,17.933L13.886,17.938C13.895,17.853 13.886,17.749 13.989,17.737L13.999,17.244C14.091,17.242 14.214,17.271 14.29,17.189L14.426,17.193L14.425,16.926L14.844,16.966L14.89,16.873C14.981,16.881 15.042,16.94 15.067,17.03L15.223,16.873C15.306,16.868 15.39,16.847 15.45,16.783C15.541,16.723 15.662,16.706 15.76,16.671L15.656,16.55C15.649,16.422 15.558,16.318 15.465,16.24L15.454,15.875L15.662,15.708L15.851,15.747C15.957,15.618 16.091,15.52 16.235,15.437L16.228,15.298L16.375,15.336C16.392,15.425 16.462,15.453 16.544,15.476L16.66,15.374L16.663,15.265C16.801,15.208 16.708,14.89 16.714,14.851C16.776,14.804 16.872,14.776 16.897,14.689C16.864,14.587 16.755,14.501 16.693,14.427C16.72,14.263 16.669,14.287 16.386,13.887L16.228,13.832C16.202,13.74 16.204,13.662 16.127,13.599L16.101,13.285L16.78,13.445L16.818,13.381L17.093,13.287L17.377,13.364L17.5,13.236L17.655,13.286L17.66,13.201Z" style="fill:rgb(208,166,80);fill-rule:nonzero;"/>
                </g>
                <g transform="matrix(0.896117,3.24196e-17,-3.24196e-17,0.896117,222.704,233.585)">
                    <path d="M28.289,10.287L28.041,11.516L26.806,11.63L27.908,12.26L27.651,13.465L28.581,12.613L29.666,13.201L29.134,12.076L30.054,11.214L28.797,11.403L28.289,10.287ZM24.161,9.448L23.893,10.595C23.794,10.584 23.307,10.532 22.663,10.401L23.753,11.286L23.495,12.394L24.417,11.77L25.488,12.511L24.965,11.334L25.885,10.605C25.786,10.61 25.19,10.639 24.642,10.627L24.161,9.448ZM20.1,8.078L19.811,9.141L18.578,8.733L19.66,9.79L19.385,10.827L20.322,10.413L21.395,11.43L20.88,10.14L21.813,9.699L20.565,9.359L20.1,8.078ZM8.203,8.381L8.706,9.513L9.901,9.337L9.002,10.2L9.516,11.297L8.46,10.718L7.615,11.594L7.825,10.359L6.766,9.808L7.973,9.613L8.203,8.381ZM12.094,6.875L12.572,8.064C13.259,8.049 13.699,8.085 13.797,8.093C13.417,8.352 12.93,8.729 12.856,8.786L13.354,9.954L12.278,9.229L11.369,10.01L11.637,8.8L10.58,8.163L11.817,8.073L12.094,6.875ZM16.077,6.828L16.55,8.123L17.78,8.478L16.834,8.907L17.341,10.187L16.256,9.172L15.335,9.676L15.611,8.571L14.55,7.66C14.651,7.676 15.137,7.754 15.796,7.913L16.077,6.828Z" style="fill:rgb(237,237,237);fill-rule:nonzero;"/>
                </g>
            </g>
        </g>
    </g>
</svg>
