<?xml version="1.0" encoding="UTF-8" standalone="no"?>
<!DOCTYPE svg PUBLIC "-//W3C//DTD SVG 1.1//EN" "http://www.w3.org/Graphics/SVG/1.1/DTD/svg11.dtd">
<svg width="100%" height="100%" viewBox="0 0 512 512" version="1.1" xmlns="http://www.w3.org/2000/svg" xmlns:xlink="http://www.w3.org/1999/xlink" xml:space="preserve" xmlns:serif="http://www.serif.com/" style="fill-rule:evenodd;clip-rule:evenodd;stroke-linejoin:round;stroke-miterlimit:2;">
    <g transform="matrix(1.11593,-4.03717e-17,4.03717e-17,1.11593,-13.9687,-19.1113)">
        <g transform="matrix(11.1111,-2.35563e-31,0,11.1111,-2371.15,-2417.74)">
            <g>
                <g transform="matrix(0.896117,3.24196e-17,-3.24196e-17,0.896117,219.046,223.655)">
                    <path d="M32,5.435C24.446,6.606 24.298,6.804 18.359,4.935C11.85,2.887 11.375,3.817 4,4.757C1.899,5.025 -0.023,6.737 0.255,9.01C0.475,10.813 0.918,13.145 0.986,13.503C6.883,13.505 9.886,11.743 14.04,12.304C16.931,12.695 20.485,14.416 23.399,14.766C26.845,15.18 32.842,13.645 36.887,13.514C36.773,12.339 36.367,9.504 36.304,9.019C36.033,6.93 34.291,5.079 32,5.435Z" style="fill:rgb(0,122,61);fill-rule:nonzero;"/>
                </g>
                <g transform="matrix(0.896117,3.24196e-17,-3.24196e-17,0.896117,219.046,223.655)">
                    <path d="M0.333,26.993C0.032,29.153 1.734,31.048 4.002,30.751C11.37,29.786 11.847,28.83 18.359,30.934C21.72,32.02 23.307,32.985 32.069,31.737C34.172,31.438 36.268,29.3 36.472,27.17C36.583,26.016 36.697,24.718 36.918,22.511C28.985,22.771 27.296,25.316 19.08,22.671C16.109,21.715 14.277,20.926 10.539,21.318C6.999,21.689 5.675,22.5 1.05,22.5C0.974,22.984 0.488,25.883 0.333,26.993Z" style="fill:rgb(206,17,38);fill-rule:nonzero;"/>
                </g>
                <g transform="matrix(0.896117,3.24196e-17,-3.24196e-17,0.896117,219.046,223.655)">
                    <path d="M0.986,13.503C6.883,13.505 9.886,11.743 14.04,12.304C16.931,12.695 20.485,14.416 23.399,14.766C26.845,15.18 32.842,13.645 36.887,13.514C37.346,18.242 36.99,21.795 36.918,22.511C28.985,22.771 27.296,25.316 19.08,22.671C16.109,21.715 14.277,20.926 10.539,21.318C6.999,21.689 5.675,22.5 1.05,22.5C1.726,18.186 1.414,15.757 0.986,13.503Z" style="fill:rgb(238,238,238);fill-rule:nonzero;"/>
                </g>
                <g transform="matrix(0.896117,3.24196e-17,-3.24196e-17,0.896117,219.046,223.655)">
                    <path d="M1.229,6.13C0.385,7.014 0.143,8.101 0.255,9.01C0.697,12.631 1.416,14.687 1.447,17.745C1.48,20.89 0.734,24.117 0.333,26.993C0.096,28.69 1.082,29.682 1.251,29.852C5.484,25.982 7.412,23.624 9.248,21.488C9.511,16.334 9.295,13.764 9.231,12.489C6.565,10.195 3.415,8.045 1.229,6.13Z" style="fill:rgb(20,20,20);fill-rule:nonzero;"/>
                </g>
            </g>
        </g>
    </g>
</svg>
