<?xml version="1.0" encoding="UTF-8" standalone="no"?>
<!DOCTYPE svg PUBLIC "-//W3C//DTD SVG 1.1//EN" "http://www.w3.org/Graphics/SVG/1.1/DTD/svg11.dtd">
<svg width="100%" height="100%" viewBox="0 0 512 512" version="1.1" xmlns="http://www.w3.org/2000/svg" xmlns:xlink="http://www.w3.org/1999/xlink" xml:space="preserve" xmlns:serif="http://www.serif.com/" style="fill-rule:evenodd;clip-rule:evenodd;stroke-linejoin:round;stroke-miterlimit:2;">
    <g transform="matrix(1.11593,-4.03717e-17,4.03717e-17,1.11593,-13.9687,-19.1113)">
        <g transform="matrix(11.1111,-2.35563e-31,0,11.1111,-2371.15,-2417.74)">
            <g>
                <g transform="matrix(0.896117,3.24196e-17,-3.24196e-17,0.896117,219.046,223.655)">
                    <path d="M36.472,27.17C36.268,29.3 34.172,31.438 32.069,31.737C22.764,33.062 21.617,31.929 16.923,30.475C12.024,28.957 9.406,30.043 4.002,30.751C1.734,31.048 0.032,29.153 0.333,26.993C0.731,24.136 1.48,20.893 1.447,17.745C1.416,14.7 0.699,12.641 0.255,9.01C-0.023,6.737 1.899,5.025 4,4.757C11.375,3.817 11.85,2.887 18.359,4.935C24.284,6.8 24.43,6.609 32,5.435C34.291,5.079 36.033,6.93 36.304,9.019C37.335,16.956 37.438,17.114 36.472,27.17Z" style="fill:rgb(232,17,45);fill-rule:nonzero;"/>
                </g>
                <g transform="matrix(0.896117,3.24196e-17,-3.24196e-17,0.896117,219.046,223.655)">
                    <path d="M18.473,11.957C18.485,11.041 19.417,10.356 19.452,9.123C20.058,10.082 19.063,11.498 19.408,12.412C19.561,11.574 20.638,11.054 20.869,9.899C21.349,10.885 20.094,12.082 20.308,12.99C20.598,12.221 21.785,11.903 22.213,10.794C22.564,11.808 21.071,12.764 21.152,13.663C21.573,12.976 22.833,12.831 23.456,11.762C23.657,12.767 21.972,13.583 21.917,14.413C22.379,13.902 23.815,13.746 24.564,12.779C24.609,13.801 22.768,14.457 22.587,15.222C23.21,14.731 24.52,14.834 25.522,13.866C25.407,14.891 23.444,15.371 23.142,16.08C23.751,15.738 25.237,15.844 26.318,15.061C26.049,16.015 23.945,16.394 23.574,16.978C24.386,16.664 25.685,17.024 26.93,16.356C26.49,17.319 24.398,17.306 23.865,17.905C24.661,17.721 26.034,18.214 27.314,17.737C26.707,18.648 24.65,18.334 24.014,18.851C24.824,18.785 26.142,19.467 27.445,19.176C26.694,20.006 24.731,19.391 24.014,19.797C24.836,19.861 26.019,20.742 27.316,20.641C26.449,21.36 24.632,20.451 23.865,20.721C24.658,20.921 25.707,21.994 26.937,22.095C25.994,22.672 24.357,21.479 23.572,21.594C24.335,21.934 25.18,23.188 26.323,23.49C25.334,23.913 23.963,22.427 23.142,22.384C23.981,22.945 24.414,24.232 25.522,24.789C24.512,25.025 23.461,23.278 22.585,23.058C23.33,23.752 23.605,25.163 24.564,25.909C23.603,25.944 22.76,23.973 21.917,23.588C22.553,24.386 22.625,25.807 23.456,26.783C22.483,26.56 21.982,24.508 21.152,23.95C21.618,24.738 21.564,26.251 22.213,27.338C21.287,26.886 21.055,24.809 20.308,24.138C20.708,25.068 20.34,26.295 20.869,27.559C19.988,26.908 20.076,24.918 19.408,24.144C19.675,25.095 19.104,26.168 19.452,27.464C18.64,26.662 19.047,24.831 18.473,23.986C18.602,24.923 17.842,25.825 18,27.1C17.28,26.207 17.992,24.564 17.527,23.678C17.514,24.592 16.583,25.297 16.548,26.533C15.94,25.595 16.936,24.145 16.591,23.242C16.437,24.093 15.365,24.634 15.131,25.83C14.651,24.877 15.904,23.598 15.691,22.706C15.403,23.481 14.216,23.886 13.785,25.044C13.433,24.063 14.928,22.972 14.848,22.083C14.441,22.776 13.168,23.076 12.542,24.214C12.341,23.233 14.028,22.22 14.082,21.398C13.615,21.957 12.207,22.257 11.451,23.304C11.415,22.294 13.234,21.432 13.413,20.654C12.847,21.159 11.429,21.324 10.567,22.269C10.696,21.227 12.548,20.625 12.857,19.858C12.209,20.3 10.83,20.302 9.907,21.109C10.193,20.074 12.02,19.736 12.433,19.013C11.763,19.366 10.416,19.189 9.467,19.841C9.873,18.843 11.646,18.782 12.156,18.121C11.348,18.411 10.239,17.962 9.217,18.483C9.719,17.546 11.42,17.777 12.018,17.192C11.159,17.363 10.196,16.71 9.139,17.062C9.723,16.206 11.339,16.736 12.018,16.248C11.161,16.274 10.279,15.445 9.222,15.598C9.866,14.86 11.424,15.668 12.157,15.306C11.303,15.183 10.536,14.182 9.468,14.121C10.188,13.51 11.639,14.624 12.434,14.397C11.603,14.122 10.952,12.955 9.893,12.68C10.724,12.217 11.963,13.615 12.857,13.554C12.032,13.1 11.593,11.849 10.555,11.358C11.459,11.067 12.522,12.688 13.414,12.818C12.673,12.205 12.406,10.874 11.443,10.177C12.416,10.074 13.226,11.91 14.083,12.223C13.51,11.555 13.327,10.008 12.542,9.194C13.515,9.297 14.014,11.299 14.849,11.798C14.327,10.956 14.473,9.585 13.786,8.501C14.729,8.87 14.923,10.908 15.693,11.558C15.294,10.649 15.659,9.397 15.132,8.172C16.008,8.761 15.923,10.759 16.593,11.512C16.325,10.571 16.897,9.48 16.549,8.195C17.359,8.965 16.953,10.812 17.528,11.649C17.397,10.712 18.158,9.808 18.001,8.533C18.719,9.425 18.008,11.066 18.473,11.957Z" style="fill:rgb(255,204,77);fill-rule:nonzero;"/>
                </g>
                <g transform="matrix(0.896117,3.24196e-17,-3.24196e-17,0.896117,219.046,223.655)">
                    <path d="M18.001,22.722C21.058,23.72 22.905,21.63 22.905,19.196C22.905,16.281 20.301,13.662 18.001,12.911C14.99,11.928 13.096,14.252 13.096,16.715C13.096,19.699 15.83,22.014 18.001,22.722Z" style="fill:rgb(232,17,45);fill-rule:nonzero;"/>
                </g>
                <g transform="matrix(0.896117,3.24196e-17,-3.24196e-17,0.896117,219.046,223.655)">
                    <path d="M18,13.267C19.857,13.873 20.972,15.397 21.16,15.653C20.91,15.61 19.179,15.315 18,15.515C17.777,15.332 16.497,14.279 14.841,13.783C15.512,13.181 16.616,12.815 18,13.267ZM17.677,15.584L17.387,15.663C16.442,14.863 15.378,14.358 14.5,14.143L14.663,13.958C15.573,14.208 16.683,14.752 17.677,15.584ZM18.326,15.796L18.615,16.062C19.724,15.84 21.274,16.124 21.501,16.166L21.34,15.91C21.102,15.869 19.464,15.584 18.326,15.796ZM14.357,14.338L14.228,14.543C15.083,14.693 16.045,15.12 16.898,15.849L17.13,15.753C16.242,14.994 15.243,14.526 14.357,14.338ZM14.227,18.576C13.731,17.648 13.723,16.753 13.723,16.494C13.723,15.543 14.048,14.884 14.111,14.756C14.95,14.87 15.877,15.262 16.686,15.95C15.966,16.328 14.927,17.061 14.227,18.576ZM16.257,20.914C16.204,20.879 16.252,20.844 15.678,20.377C15.762,19.057 16.358,17.794 17.579,16.889L17.804,17.194C17.558,17.402 16.179,18.569 16.257,20.914ZM21.645,16.422L21.774,16.678C21.566,16.633 20.151,16.326 19.105,16.562L18.872,16.318C19.946,16.086 21.428,16.379 21.645,16.422Z" style="fill:rgb(255,204,77);fill-rule:nonzero;"/>
                    <path d="M21.774,20.712C22.298,19.935 22.278,18.996 22.278,18.808C22.278,18.655 22.278,17.871 21.889,16.935C21.689,16.887 20.328,16.561 19.315,16.794C19.963,17.536 21.074,18.915 21.774,20.712ZM18.001,17.624C18.865,19.296 18.903,20.939 18.873,22.02C18.512,21.99 18.069,21.845 18.001,21.823C17.929,21.8 17.493,21.658 17.129,21.455C17.107,20.702 17.072,18.872 18.001,17.624ZM19.74,22.018C19.833,22.012 19.824,22.006 20.324,21.88C20.247,20.635 19.716,18.963 18.422,17.164L18.198,17.324C19.817,19.744 19.753,21.623 19.74,22.018ZM17.324,16.58L17.031,16.267C16.242,16.725 15.22,17.58 14.688,19.263C14.778,19.383 14.831,19.526 14.912,19.652C14.952,19.714 14.998,19.773 15.05,19.826C15.407,17.87 16.847,16.891 17.324,16.58ZM18.679,17.02L18.972,16.895C19.624,17.688 20.754,19.21 21.313,21.225C21.23,21.297 21.169,21.392 21.088,21.467C21.038,21.513 20.982,21.556 20.921,21.588C20.584,19.57 19.266,17.782 18.679,17.02ZM18.001,15.87L18.287,16.143L18.001,16.238L17.715,15.956L18.001,15.87ZM17.46,16.053L17.234,16.158L17.525,16.46L17.749,16.345L17.46,16.053ZM18.542,16.405L18.768,16.656L18.477,16.771L18.253,16.51L18.542,16.405ZM18.001,16.626L18.224,16.899L18.001,17.042L17.779,16.754L18.001,16.626Z" style="fill:rgb(255,204,77);fill-rule:nonzero;"/>
                </g>
            </g>
        </g>
    </g>
</svg>
