<?xml version="1.0" encoding="UTF-8" standalone="no"?>
<!DOCTYPE svg PUBLIC "-//W3C//DTD SVG 1.1//EN" "http://www.w3.org/Graphics/SVG/1.1/DTD/svg11.dtd">
<svg width="100%" height="100%" viewBox="0 0 512 512" version="1.1" xmlns="http://www.w3.org/2000/svg" xmlns:xlink="http://www.w3.org/1999/xlink" xml:space="preserve" xmlns:serif="http://www.serif.com/" style="fill-rule:evenodd;clip-rule:evenodd;stroke-linejoin:round;stroke-miterlimit:2;">
    <g transform="matrix(1.11593,-4.03717e-17,4.03717e-17,1.11593,-13.9687,-19.1113)">
        <g transform="matrix(11.1111,-2.35563e-31,0,11.1111,-2371.15,-2417.74)">
            <g>
                <g transform="matrix(0.896117,3.24196e-17,-3.24196e-17,0.896117,219.046,223.655)">
                    <path d="M0.333,26.993C0.032,29.153 1.734,31.048 4.002,30.751C11.37,29.786 11.847,28.83 18.359,30.934C21.72,32.02 23.307,32.985 32.069,31.737C34.172,31.438 36.268,29.3 36.472,27.17C36.567,26.164 36.662,25.157 36.756,24.151C27.609,24.568 27.409,26.858 18.36,23.934C9.89,21.198 9.71,23.986 0.807,23.993C0.767,24.233 0.463,26.061 0.333,26.993ZM32,5.435C24.446,6.606 24.298,6.804 18.359,4.935C11.85,2.887 11.375,3.817 4,4.757C1.899,5.025 -0.023,6.737 0.255,9.01C0.284,9.251 0.418,10.346 0.712,12.012C6.547,12.019 9.917,10.247 14.04,10.804C16.931,11.195 20.485,12.916 23.399,13.266C26.86,13.682 32.703,12.15 36.715,12.021C36.52,10.512 36.501,10.532 36.304,9.019C36.033,6.93 34.291,5.079 32,5.435Z" style="fill:rgb(206,17,38);fill-rule:nonzero;"/>
                </g>
                <g transform="matrix(0.896117,3.24196e-17,-3.24196e-17,0.896117,219.046,223.655)">
                    <path d="M0.807,23.993C9.704,23.986 9.885,21.196 18.36,23.934C27.383,26.849 27.579,24.569 36.756,24.151C36.818,23.509 37.538,18.362 36.715,12.021C28.919,12.271 27.3,14.818 19.08,12.171C16.021,11.187 14.28,10.431 10.496,10.82C6.936,11.186 5.236,12.017 0.712,12.012C1.475,16.343 1.882,17.528 0.807,23.993ZM18,12.816C20.326,13.575 22.999,16.233 22.999,19.211C22.999,21.679 21.133,23.839 18,22.816C15.815,22.103 13,19.765 13,16.711C13,14.209 14.921,11.811 18,12.816Z" style="fill:rgb(0,40,104);fill-rule:nonzero;"/>
                </g>
                <g transform="matrix(0.896117,3.24196e-17,-3.24196e-17,0.896117,219.046,223.655)">
                    <path d="M18,12.816C20.326,13.575 22.999,16.235 22.999,19.211C22.999,21.679 21.131,23.838 18,22.816C15.815,22.103 13,19.763 13,16.711C13,14.209 14.923,11.812 18,12.816Z" style="fill:white;"/>
                </g>
            </g>
        </g>
    </g>
</svg>
