<?xml version="1.0" encoding="UTF-8" standalone="no"?>
<!DOCTYPE svg PUBLIC "-//W3C//DTD SVG 1.1//EN" "http://www.w3.org/Graphics/SVG/1.1/DTD/svg11.dtd">
<svg width="100%" height="100%" viewBox="0 0 512 512" version="1.1" xmlns="http://www.w3.org/2000/svg" xmlns:xlink="http://www.w3.org/1999/xlink" xml:space="preserve" xmlns:serif="http://www.serif.com/" style="fill-rule:evenodd;clip-rule:evenodd;stroke-linejoin:round;stroke-miterlimit:2;">
    <g transform="matrix(1.11593,-4.03717e-17,4.03717e-17,1.11593,-13.9687,-19.1113)">
        <g transform="matrix(11.1111,-2.35563e-31,0,11.1111,-2371.15,-2417.74)">
            <g>
                <g transform="matrix(0.896117,3.24196e-17,-3.24196e-17,0.896117,219.046,223.655)">
                    <path d="M32,5.435C24.446,6.606 24.298,6.804 18.359,4.935C11.85,2.887 11.375,3.817 4,4.757C1.899,5.025 -0.023,6.737 0.255,9.01C0.547,11.405 1.102,13.959 1.254,15.076C9.614,15.143 9.789,12.165 18.36,14.934C21.9,16.078 23.167,16.585 27.111,16.208C29.653,15.964 34.161,15.102 37.003,15.01C36.847,12.566 36.522,10.696 36.304,9.019C36.033,6.93 34.291,5.079 32,5.435ZM32.069,31.737C22.764,33.062 21.617,31.929 16.923,30.475C12.024,28.957 9.406,30.043 4.002,30.751C1.734,31.048 0.032,29.153 0.333,26.993C0.533,25.559 1.091,22.403 1.255,21.019C7.061,21.03 9.882,19.242 14.04,19.804C16.931,20.195 20.485,21.916 23.399,22.266C26.848,22.68 32.955,21.145 37.038,21.013C37.008,21.507 36.994,21.734 36.472,27.17C36.268,29.3 34.172,31.438 32.069,31.737Z" style="fill:rgb(158,48,57);fill-rule:nonzero;"/>
                </g>
                <g transform="matrix(0.896117,3.24196e-17,-3.24196e-17,0.896117,219.046,223.655)">
                    <path d="M1.254,15.076C9.614,15.143 9.789,12.165 18.36,14.934C21.9,16.078 23.167,16.585 27.111,16.208C29.653,15.964 34.161,15.102 37.003,15.01C37.033,15.489 37.207,18.223 37.038,21.013C29.049,21.271 27.292,23.815 19.08,21.171C16.132,20.222 14.259,19.421 10.58,19.821C7.173,20.192 5.757,21.028 1.255,21.019C1.406,19.754 1.593,17.576 1.254,15.076Z" style="fill:rgb(238,238,238);fill-rule:nonzero;"/>
                </g>
            </g>
        </g>
    </g>
</svg>
