<?xml version="1.0" encoding="UTF-8" standalone="no"?>
<!DOCTYPE svg PUBLIC "-//W3C//DTD SVG 1.1//EN" "http://www.w3.org/Graphics/SVG/1.1/DTD/svg11.dtd">
<svg width="100%" height="100%" viewBox="0 0 512 512" version="1.1" xmlns="http://www.w3.org/2000/svg" xmlns:xlink="http://www.w3.org/1999/xlink" xml:space="preserve" xmlns:serif="http://www.serif.com/" style="fill-rule:evenodd;clip-rule:evenodd;stroke-linejoin:round;stroke-miterlimit:2;">
    <g transform="matrix(1.11593,-4.03717e-17,4.03717e-17,1.11593,-13.9687,-19.1113)">
        <g transform="matrix(11.1111,-2.35563e-31,0,11.1111,-2371.15,-2417.74)">
            <g>
                <g transform="matrix(0.896117,3.24196e-17,-3.24196e-17,0.896117,219.046,223.655)">
                    <path d="M36.472,27.17C36.268,29.3 34.172,31.438 32.069,31.737C22.764,33.062 21.617,31.929 16.923,30.475C12.024,28.957 9.406,30.043 4.002,30.751C1.734,31.048 0.032,29.153 0.333,26.993C0.731,24.136 1.48,20.893 1.447,17.745C1.416,14.7 0.699,12.641 0.255,9.01C-0.023,6.737 1.899,5.025 4,4.757C11.375,3.817 11.85,2.887 18.359,4.935C24.284,6.8 24.43,6.609 32,5.435C34.291,5.079 36.033,6.93 36.304,9.019C37.335,16.956 37.438,17.114 36.472,27.17Z" style="fill:rgb(237,28,35);fill-rule:nonzero;"/>
                </g>
                <g transform="matrix(0.896117,3.24196e-17,-3.24196e-17,0.896117,219.046,223.655)">
                    <path d="M0.892,13.007C6.763,13.011 9.897,11.244 14.04,11.804C16.931,12.195 20.485,13.916 23.399,14.266C26.851,14.681 32.801,13.147 36.836,13.017C37.376,17.912 36.941,22.27 36.862,23.071C27.88,23.393 27.679,25.945 18.36,22.934C9.959,20.22 9.783,22.994 0.971,22.997C1.792,17.917 1.408,15.774 0.892,13.007Z" style="fill:rgb(238,238,238);fill-rule:nonzero;"/>
                </g>
                <g transform="matrix(0.896117,3.24196e-17,-3.24196e-17,0.896117,219.046,223.655)">
                    <path d="M16.993,12.7C16.83,12.831 16.63,12.907 16.452,13.017C16.399,13.049 16.316,13.109 16.28,13.17C16.21,13.289 15.921,13.44 15.699,13.48C15.509,13.513 15.751,13.635 15.862,13.594C16.005,13.543 16.181,13.588 16.308,13.501C16.407,13.433 16.562,13.573 16.42,13.599C16.28,13.626 16.242,13.7 16.145,13.8C16.061,13.887 16.004,13.892 15.893,13.865C15.746,13.83 15.599,13.838 15.497,13.962L15.2,14.316C15.111,14.429 15.264,14.427 15.329,14.394C15.439,14.337 15.625,14.261 15.702,14.408C15.775,14.546 15.733,14.602 15.58,14.626C15.528,14.634 15.088,14.703 14.985,14.912C14.896,15.093 14.893,15.126 14.702,15.151C14.397,15.192 13.84,15.547 13.77,15.591C13.606,15.696 13.653,15.789 13.86,15.804C13.965,15.811 14.63,15.715 14.784,15.812C14.851,15.952 14.919,16.109 15.014,16.236C14.979,16.278 14.684,16.809 14.288,16.756C14.044,16.724 13.623,17.145 13.576,17.192C13.543,17.226 13.255,17.514 13.117,17.568C13.028,17.603 12.924,17.666 13.053,17.736C13.161,17.797 13.261,17.665 13.367,17.723C13.486,17.789 13.577,17.745 13.697,17.678C13.74,17.654 14.068,17.471 14.278,17.478C14.386,17.62 14.454,17.72 14.6,17.823C14.241,18.249 13.77,18.363 13.687,18.383C13.339,18.466 13.144,18.8 13.102,18.851C12.9,19.1 12.978,19.218 12.66,19.224C12.52,19.227 12.418,19.262 12.563,19.371C12.681,19.462 12.81,19.426 12.954,19.462C13.005,19.475 13.36,19.562 13.597,19.329C13.886,19.043 14.469,18.754 14.885,18.875C15.174,18.959 15.224,19.065 15.003,19.228C14.761,19.407 14.313,19.562 14.061,19.577C13.777,19.595 13.209,19.802 13.157,19.797C12.923,19.775 12.95,19.94 13.094,20.033C13.274,20.15 13.388,20.228 13.665,20.133C13.733,20.11 14.302,19.916 14.525,19.896C14.643,19.884 14.815,19.83 14.94,19.889C15.06,19.945 15.165,19.923 15.287,19.871C15.391,19.826 15.512,19.835 15.621,19.805C15.678,19.789 15.734,19.767 15.783,19.734C15.985,19.595 16.281,19.923 16.312,19.957C16.473,20.136 16.667,20.634 16.467,20.832C16.419,20.879 15.964,21.325 15.896,21.436C15.835,21.536 15.79,21.565 15.671,21.579C15.407,21.613 15.027,21.753 14.948,21.805C14.846,21.87 14.923,21.908 15.019,21.945C15.134,21.99 15.168,21.971 15.28,21.903C15.306,21.888 15.523,21.715 15.828,21.803C15.981,21.847 16.12,21.784 16.24,21.691C16.37,21.593 16.678,21.556 16.805,21.62C16.925,21.682 16.963,21.686 17.076,21.637C17.196,21.585 17.271,21.646 17.357,21.744C17.459,21.862 17.579,21.913 17.732,21.873C17.845,21.842 18.004,21.893 18.048,22.012C18.099,22.152 18.121,22.208 18.223,22.312L18.913,22.95C19.033,23.054 19.139,22.958 19.037,22.835C18.989,22.778 18.873,22.647 18.896,22.545C18.925,22.415 19.181,22.557 19.225,22.577C19.501,22.706 20.05,23.115 20.307,23.347C20.344,23.381 20.657,23.667 20.823,23.71C20.971,23.749 20.978,23.672 20.888,23.564C20.84,23.508 20.551,23.3 20.516,23.218C20.4,22.947 20.232,23.091 20.127,22.819C20.074,22.683 19.986,22.597 19.843,22.565C19.64,22.52 19.476,22.215 19.455,22.177C19.391,22.06 18.882,21.125 19.089,20.55C19.212,20.211 19.589,20.202 19.805,20.435C20.048,20.699 20.316,20.86 20.389,20.875C20.536,20.905 20.618,20.945 20.738,21.047C20.782,21.085 21.048,21.31 21.436,21.249C21.56,21.23 21.556,21.251 22.039,21.374C22.369,21.455 22.499,21.586 22.529,21.617C22.728,21.822 23.1,21.931 23.154,21.947C23.259,21.978 23.727,22.023 23.414,21.805C23.37,21.774 22.936,21.474 22.878,21.382C22.802,21.259 22.674,21.2 22.535,21.176C22.293,21.135 22.06,20.849 22.028,20.81C22.002,20.777 21.81,20.54 21.581,20.517C21.427,20.501 21.283,20.409 21.197,20.281C21.311,20.175 21.392,20.038 21.497,19.923C21.524,19.893 21.556,19.865 21.592,19.848C21.746,19.874 21.873,19.943 21.977,20.059C22.075,20.165 22.192,20.178 22.329,20.204C22.436,20.224 22.582,20.302 22.663,20.371C22.758,20.452 22.897,20.463 23.012,20.431C23.177,20.386 23.024,20.262 22.956,20.211C22.857,20.138 22.725,20.042 22.66,19.928C22.596,19.812 22.513,19.777 22.377,19.753C22.185,19.718 21.981,19.45 21.954,19.415C21.89,19.332 21.597,18.929 21.189,18.874C21.124,18.865 20.784,18.857 20.59,18.522C20.716,18.497 21.045,18.748 21.269,18.639C21.428,18.561 21.559,18.586 21.709,18.674C21.811,18.733 22.053,18.847 22.176,18.779C22.252,18.739 22.317,18.694 22.405,18.702C22.526,18.712 22.422,18.579 22.349,18.573C22.029,18.545 22.096,18.381 21.786,18.367C21.524,18.354 21.398,18.25 21.275,18.13C21.12,17.98 20.944,17.833 20.489,17.771C20.514,17.602 20.53,17.463 20.736,17.481C20.891,17.618 21.187,17.691 21.23,17.702L22.012,17.913C22.25,18.002 22.031,17.786 21.974,17.743C21.704,17.537 21.397,17.44 21.343,17.423C21.213,17.382 21.157,17.25 21.107,17.134C20.981,16.848 20.562,16.72 20.506,16.703C20.452,16.687 20.192,16.607 19.932,16.293C19.904,16.26 19.699,16.014 19.527,15.934C19.432,15.89 19.215,15.739 19.3,15.601C19.348,15.522 19.609,15.511 19.801,15.692C19.903,15.79 20.045,15.917 20.201,15.876C20.333,15.841 20.42,15.868 20.542,15.946C20.601,15.984 20.711,16.084 20.742,16.02C20.775,15.951 20.667,15.885 20.615,15.829C20.403,15.608 19.839,15.36 19.774,15.258C19.694,15.134 19.612,15.091 19.467,15.107C19.361,15.117 19.259,14.976 19.412,14.945C19.549,14.917 19.69,14.931 19.803,15.019C19.898,15.095 20.035,15.146 20.159,15.123C20.375,15.086 20.128,14.941 20.062,14.908C19.761,14.757 19.317,14.417 19.185,14.254C18.962,13.978 18.744,13.949 18.698,13.943C18.522,13.92 18.383,13.854 18.185,13.665C18.115,13.599 17.541,13.053 17.38,12.776C17.246,12.551 17.199,12.538 16.993,12.7Z" style="fill:rgb(0,128,0);fill-rule:nonzero;"/>
                </g>
                <g transform="matrix(0.896117,3.24196e-17,-3.24196e-17,0.896117,219.046,223.655)">
                    <path d="M16.152,14.269C16.067,14.235 15.832,14.213 15.939,14.382C16.009,14.494 16.048,14.462 16.175,14.434C16.35,14.394 16.276,14.317 16.152,14.269ZM16.607,14.758C16.473,14.783 16.311,14.828 16.263,14.973C16.228,15.076 16.208,15.251 16.364,15.255C16.543,15.259 16.585,15.008 16.752,15.028C16.703,14.941 16.684,14.829 16.607,14.758ZM16.872,14.702C16.887,14.776 16.908,14.88 16.959,14.944C17.083,14.922 17.514,14.902 17.586,14.909C17.595,14.828 17.577,14.761 17.543,14.685C17.49,14.673 17.145,14.596 16.872,14.702ZM18.063,15.68L18.124,16.125L18.407,16.314C18.465,16.22 18.478,16.06 18.476,15.961C18.423,15.91 18.212,15.652 18.063,15.68ZM17.76,15.717L17.783,15.979C17.67,15.945 17.488,15.953 17.385,15.954C17.253,15.957 17.161,15.711 17.337,15.694C17.487,15.679 17.61,15.685 17.76,15.717ZM15.037,15.724C15.248,15.656 15.27,15.755 15.528,15.74L15.789,16.088C15.725,16.18 15.274,16.083 15.247,16.097C15.153,15.975 15.094,15.868 15.037,15.724ZM15.858,15.712L16.008,16.004C16.134,16.049 16.208,16.004 16.285,15.904C16.371,15.792 16.302,15.68 16.178,15.655C16.073,15.634 15.931,15.611 15.858,15.712ZM14.531,17.381C14.572,17.488 14.698,17.547 14.74,17.653C14.861,17.601 14.945,17.611 15.071,17.662C15.17,17.702 15.521,17.667 15.695,17.53C15.877,17.385 15.706,17.368 15.547,17.352C15.505,17.348 15.116,17.309 15.029,17.271C14.879,17.208 14.643,17.254 14.531,17.381ZM16.409,16.932C16.307,16.965 16.272,17.014 16.337,17.108C16.399,17.199 16.438,17.197 16.55,17.164C16.635,17.14 16.683,17.072 16.631,16.99C16.577,16.909 16.502,16.901 16.409,16.932ZM16.907,16.921C16.835,16.901 16.805,16.929 16.827,17.013C16.844,17.081 16.864,17.106 16.937,17.127C17.027,17.152 17.029,17.127 17.005,17.044C16.983,16.972 16.981,16.941 16.907,16.921ZM17.215,17.104C17.218,17.223 17.216,17.215 17.313,17.26C17.412,17.306 17.467,17.322 17.47,17.211C17.474,17.097 17.468,17.063 17.345,17.02C17.23,16.982 17.214,17.005 17.215,17.104ZM17.69,17.346C17.641,17.467 17.651,17.517 17.752,17.588C17.866,17.67 17.894,17.664 17.941,17.544C17.984,17.432 17.977,17.372 17.879,17.313C17.779,17.255 17.731,17.245 17.69,17.346ZM18.195,17.545L18.13,17.761L18.324,17.916C18.405,17.995 18.45,17.846 18.435,17.791C18.413,17.71 18.318,17.494 18.195,17.545ZM18.793,16.216L18.692,16.517C18.808,16.584 18.966,16.673 19.102,16.707L19.491,16.805C19.658,16.891 19.503,16.642 19.48,16.617C19.377,16.507 19.286,16.425 19.145,16.381C19.141,16.379 18.891,16.18 18.793,16.216ZM19.429,17.214C19.338,17.17 19.247,17.226 19.331,17.318C19.354,17.344 19.501,17.452 19.521,17.357C19.539,17.274 19.501,17.249 19.429,17.214ZM19.685,17.266L19.708,17.477C19.777,17.565 19.899,17.55 19.972,17.638C20.034,17.713 20.123,17.714 20.148,17.605C20.164,17.537 20.181,17.488 20.101,17.465C19.956,17.423 19.844,17.232 19.685,17.266ZM17.874,14.709L17.949,14.929C18.027,15.005 18.195,15.133 18.256,15.042C18.31,14.958 18.316,14.929 18.239,14.864C18.183,14.819 17.978,14.571 17.874,14.709ZM18.56,15.092C18.492,15.146 18.59,15.221 18.627,15.253C18.675,15.296 18.764,15.295 18.753,15.209C18.743,15.134 18.635,15.031 18.56,15.092ZM16.04,18.658C16.091,18.718 16.146,18.807 16.13,18.893C16.116,18.971 16.166,19.021 16.227,19.063C16.239,19.071 16.443,19.302 16.474,19.144C16.502,19.005 16.364,18.696 16.277,18.658C16.2,18.624 16.144,18.61 16.097,18.544C16.031,18.452 15.973,18.581 16.04,18.658ZM21.285,19.604C21.24,19.752 21.054,20.026 20.989,20.049C20.525,19.698 20.528,19.703 20.526,19.695L20.68,19.363C20.731,19.367 21.094,19.394 21.285,19.604ZM20.326,19.112C20.322,19.221 20.257,19.448 20.226,19.526C20.018,19.487 19.83,19.377 19.629,19.312C19.58,19.295 19.529,19.278 19.477,19.281C19.479,19.244 19.476,19.015 19.512,18.941C19.633,18.978 20.106,18.973 20.326,19.112Z" style="fill:rgb(238,238,238);fill-rule:nonzero;"/>
                </g>
            </g>
        </g>
    </g>
</svg>
