<?xml version="1.0" encoding="UTF-8" standalone="no"?>
<!DOCTYPE svg PUBLIC "-//W3C//DTD SVG 1.1//EN" "http://www.w3.org/Graphics/SVG/1.1/DTD/svg11.dtd">
<svg width="100%" height="100%" viewBox="0 0 512 512" version="1.1" xmlns="http://www.w3.org/2000/svg" xmlns:xlink="http://www.w3.org/1999/xlink" xml:space="preserve" xmlns:serif="http://www.serif.com/" style="fill-rule:evenodd;clip-rule:evenodd;stroke-linejoin:round;stroke-miterlimit:2;">
    <g transform="matrix(1.11593,-4.03717e-17,4.03717e-17,1.11593,-13.9687,-19.1113)">
        <g transform="matrix(11.1111,-2.35563e-31,0,11.1111,-2371.15,-2417.74)">
            <g>
                <g transform="matrix(0.896117,3.24196e-17,-3.24196e-17,0.896117,219.046,223.655)">
                    <path d="M36.472,27.17C36.268,29.3 34.172,31.438 32.069,31.737C22.764,33.062 21.617,31.929 16.923,30.475C12.024,28.957 9.406,30.043 4.002,30.751C1.734,31.048 0.032,29.153 0.333,26.993C0.731,24.136 1.48,20.893 1.447,17.745C1.416,14.7 0.699,12.641 0.255,9.01C-0.023,6.737 1.899,5.025 4,4.757C11.375,3.817 11.85,2.887 18.359,4.935C24.284,6.8 24.43,6.609 32,5.435C34.291,5.079 36.033,6.93 36.304,9.019C37.335,16.956 37.438,17.114 36.472,27.17Z" style="fill:rgb(0,149,67);fill-rule:nonzero;"/>
                </g>
                <g transform="matrix(0.896117,3.24196e-17,-3.24196e-17,0.896117,219.046,223.655)">
                    <path d="M0.892,13.007C6.763,13.011 9.897,11.244 14.04,11.804C16.931,12.195 20.485,13.916 23.399,14.266C26.851,14.681 32.801,13.147 36.836,13.017C37.376,17.912 36.941,22.27 36.862,23.071C27.88,23.393 27.679,25.945 18.36,22.934C9.959,20.22 9.783,22.994 0.971,22.997C1.792,17.917 1.408,15.774 0.892,13.007Z" style="fill:rgb(238,238,238);fill-rule:nonzero;"/>
                </g>
                <g transform="matrix(0.896117,3.24196e-17,-3.24196e-17,0.896117,219.046,223.655)">
                    <path d="M32,5.435C24.446,6.606 24.298,6.804 18.359,4.935C11.85,2.887 11.375,3.817 4,4.757C1.899,5.025 -0.023,6.737 0.255,9.01C0.459,10.68 0.833,12.689 0.892,13.007C6.763,13.011 9.897,11.244 14.04,11.804C16.931,12.195 20.485,13.916 23.399,14.266C26.851,14.681 32.801,13.147 36.836,13.017C36.736,12.112 36.336,9.263 36.304,9.019C36.033,6.93 34.291,5.079 32,5.435Z" style="fill:rgb(0,32,159);fill-rule:nonzero;"/>
                </g>
                <g transform="matrix(0.896117,3.24196e-17,-3.24196e-17,0.896117,219.046,223.655)">
                    <path d="M21.199,20.678C21.158,20.542 20.632,20.724 20.773,20.7C20.083,19.619 19.073,17.995 18.927,17.759C19.008,17.639 19.417,17.042 19.417,16.015C19.417,14.849 18.801,14.255 18.34,14.007L18.34,13.952C18.34,13.798 18.19,13.592 18.029,13.539L17.97,13.52C17.812,13.469 17.659,13.557 17.659,13.73L17.659,13.786C16.583,13.664 16.583,14.972 16.583,15.109C16.583,15.28 16.583,16.15 17.087,17.19C16.101,18.195 15.466,18.892 15.328,19.043C15.212,18.956 15.003,18.684 14.953,18.821L14.203,19.905C14.609,20.231 16.378,21.384 18,21.914C19.82,22.508 21.406,22.212 21.872,22.067C21.818,21.957 21.225,20.762 21.199,20.678ZM19.094,15.957C19.094,16.709 18.734,17.25 18.67,17.346L18.318,16.78L18.34,16.733L18.34,16.005L18.828,16.166L18.34,15.517L18.34,14.396C18.805,14.714 19.094,15.35 19.094,15.957ZM16.906,15.251C16.906,14.582 17.238,14.188 17.659,14.174L17.659,15.295L17.171,15.629L17.659,15.783L17.659,16.511L17.685,16.584L17.34,16.932C17.281,16.806 16.906,16.008 16.906,15.251Z" style="fill:rgb(41,47,51);"/>
                    <path d="M20.797,21.051C20.348,21.088 19.097,21.044 18,20.686C17.13,20.402 15.686,19.645 15.203,19.359L14.859,19.936C15.312,20.229 16.902,21.099 18,21.458C19.501,21.948 20.789,21.858 21.141,21.797L20.797,21.051Z" style="fill:rgb(83,100,109);"/>
                </g>
            </g>
        </g>
    </g>
</svg>
