<?xml version="1.0" encoding="UTF-8" standalone="no"?>
<!DOCTYPE svg PUBLIC "-//W3C//DTD SVG 1.1//EN" "http://www.w3.org/Graphics/SVG/1.1/DTD/svg11.dtd">
<svg width="100%" height="100%" viewBox="0 0 512 512" version="1.1" xmlns="http://www.w3.org/2000/svg" xmlns:xlink="http://www.w3.org/1999/xlink" xml:space="preserve" xmlns:serif="http://www.serif.com/" style="fill-rule:evenodd;clip-rule:evenodd;stroke-linejoin:round;stroke-miterlimit:2;">
    <g transform="matrix(1.11593,-4.03717e-17,4.03717e-17,1.11593,-13.9687,-19.1113)">
        <g transform="matrix(11.1111,-2.35563e-31,0,11.1111,-2371.15,-2417.74)">
            <g>
                <g transform="matrix(0.896117,3.24196e-17,-3.24196e-17,0.896117,219.046,223.655)">
                    <path d="M36.017,28.702C25.368,30.072 24.975,30.615 18.536,28.53C9.294,25.538 9.1,28.53 0.458,28.534C0.912,29.96 2.296,30.974 4.002,30.751C11.37,29.786 11.847,28.83 18.359,30.934C21.72,32.02 23.307,32.985 32.069,31.737C33.746,31.498 35.313,30.106 36.017,28.702ZM0.838,23.805C9.719,23.798 9.899,21.012 18.36,23.745C27.44,26.679 27.637,24.347 36.775,23.95C36.694,24.819 36.612,25.688 36.531,26.556C26.796,27.361 26.611,28.972 18.36,26.306C9.706,23.51 9.525,26.356 0.424,26.364C0.526,25.684 0.804,24.009 0.838,23.805ZM11.494,8.366C16.4,8.088 19.498,10.488 23.572,10.915C26.972,11.271 32.52,9.776 36.388,9.65C36.564,10.931 36.575,10.915 36.74,12.211C32.34,12.352 26.687,14.008 22.862,13.379C19.019,12.747 16.084,10.662 11.512,10.927C11.506,10.073 11.5,9.22 11.494,8.366ZM35.819,7.489C35.029,5.975 33.555,5.193 32,5.435C28.806,5.93 25.545,6.631 22.649,6.122C18.838,5.452 16.044,3.524 11.5,3.769C11.5,3.963 11.491,3.955 11.489,6.198C16.416,5.925 19.111,8.216 23.595,8.75C26.644,9.114 32.237,7.662 35.819,7.489ZM11.538,13.096C16.285,12.799 19.548,15.22 23.572,15.642C26.938,15.995 32.987,14.496 36.958,14.366C37.056,15.691 37.087,16.722 37.093,16.927C32.594,17.073 26.677,18.733 22.862,18.106C19.088,17.485 15.91,15.355 11.567,15.664C11.561,14.342 11.542,13.301 11.538,13.096ZM1.417,19.155C8.363,19.206 10.243,16.508 16.92,18.557C21.307,19.903 22.475,20.732 27.133,20.291C29.698,20.048 34.243,19.188 37.11,19.096C37.09,20.411 37.01,21.452 36.994,21.657C29.029,21.915 27.291,24.459 19.08,21.815C16.128,20.865 14.269,20.067 10.564,20.463C7.081,20.835 5.742,21.654 1.175,21.651C1.357,20.314 1.407,19.355 1.417,19.155Z" style="fill:rgb(191,10,48);fill-rule:nonzero;"/>
                </g>
                <g transform="matrix(0.896117,3.24196e-17,-3.24196e-17,0.896117,219.046,223.655)">
                    <path d="M11.512,10.926C16.361,10.645 19.52,13.05 23.572,13.475C26.955,13.829 32.81,12.336 36.739,12.21C36.882,13.333 36.946,14.193 36.958,14.366C32.5,14.512 26.673,16.172 22.862,15.545C19.054,14.918 16.013,12.816 11.538,13.096C11.535,12.922 11.525,12.355 11.512,10.926ZM1.429,17.029C1.436,17.199 1.473,18.067 1.417,19.155C8.363,19.206 10.243,16.508 16.92,18.557C21.307,19.903 22.475,20.732 27.133,20.291C29.698,20.048 34.243,19.188 37.11,19.096C37.113,18.922 37.126,18.039 37.093,16.927C33.025,17.059 26.888,18.583 23.462,18.191C19.766,17.767 16.082,15.454 12.031,15.637C8.211,15.81 6.033,17.082 1.429,17.029ZM11.489,6.198C11.489,6.372 11.488,7.219 11.494,8.366C16.4,8.088 19.498,10.488 23.572,10.915C26.972,11.271 32.52,9.776 36.388,9.65L36.304,9.019C36.287,8.892 36.2,8.222 35.819,7.489C31.657,7.69 26.654,9.268 22.884,8.654C18.999,8.022 16.149,5.939 11.489,6.198ZM1.175,21.651C7.021,21.655 9.894,19.888 14.04,20.448C16.931,20.839 20.485,22.56 23.399,22.91C26.846,23.324 32.923,21.789 36.994,21.657C36.975,21.9 36.975,21.88 36.775,23.95C27.667,24.346 27.465,26.687 18.36,23.745C9.904,21.013 9.725,23.798 0.838,23.805C0.867,23.633 1.078,22.36 1.175,21.651ZM0.333,26.993C0.222,27.788 0.421,28.416 0.458,28.534C8.683,28.53 9.579,25.644 18.178,28.412C25.002,30.609 25.155,30.099 36.016,28.702C36.398,27.938 36.46,27.298 36.472,27.17L36.531,26.555C26.796,27.36 26.612,28.971 18.36,26.305C9.707,23.509 9.525,26.355 0.424,26.363L0.333,26.993Z" style="fill:rgb(238,238,238);fill-rule:nonzero;"/>
                </g>
                <g transform="matrix(0.896117,3.24196e-17,-3.24196e-17,0.896117,219.046,223.655)">
                    <path d="M4,4.757C1.899,5.025 -0.023,6.737 0.255,9.01C0.655,12.288 1.319,14.484 1.429,17.029C6.03,17.082 8.206,15.81 12.031,15.637C12.016,9.683 12,9.698 12,3.747C9.531,3.825 6.033,4.498 4,4.757Z" style="fill:rgb(0,40,104);fill-rule:nonzero;"/>
                </g>
                <g transform="matrix(0.896117,3.24196e-17,-3.24196e-17,0.896117,219.046,223.655)">
                    <path d="M7.012,9.577C6.937,9.392 6.277,7.749 6.084,7.259C6.034,7.464 5.773,8.523 5.526,9.832C4.13,10.061 3.276,10.141 3.079,10.16C3.731,10.544 5.078,11.316 5.252,11.415C5.049,12.7 5.063,12.687 4.899,13.982C4.911,13.967 5.413,13.367 6.522,12.147C6.68,12.239 7.714,12.841 8.472,13.332C8.145,12.434 7.655,11.193 7.582,11.007C8.522,10.024 9.274,9.329 9.427,9.189C8.566,9.306 7.204,9.543 7.012,9.577Z" style="fill:white;fill-rule:nonzero;"/>
                </g>
            </g>
        </g>
    </g>
</svg>
