<?xml version="1.0" encoding="UTF-8" standalone="no"?>
<!DOCTYPE svg PUBLIC "-//W3C//DTD SVG 1.1//EN" "http://www.w3.org/Graphics/SVG/1.1/DTD/svg11.dtd">
<svg width="100%" height="100%" viewBox="0 0 512 512" version="1.1" xmlns="http://www.w3.org/2000/svg" xmlns:xlink="http://www.w3.org/1999/xlink" xml:space="preserve" xmlns:serif="http://www.serif.com/" style="fill-rule:evenodd;clip-rule:evenodd;stroke-linejoin:round;stroke-miterlimit:2;">
    <g transform="matrix(1.11593,-4.03717e-17,4.03717e-17,1.11593,-13.9687,-19.1113)">
        <g transform="matrix(11.1111,-2.35563e-31,0,11.1111,-2371.15,-2417.74)">
            <g>
                <g transform="matrix(0.896117,3.24196e-17,-3.24196e-17,0.896117,219.046,223.655)">
                    <path d="M0.807,23.993C9.704,23.986 9.885,21.196 18.36,23.934C27.383,26.849 27.579,24.569 36.756,24.151C36.818,23.509 37.538,18.362 36.715,12.021C28.919,12.271 27.3,14.818 19.08,12.171C16.021,11.187 14.28,10.431 10.496,10.82C6.936,11.186 5.236,12.017 0.712,12.012C1.475,16.343 1.882,17.528 0.807,23.993ZM21.25,16.535C21.794,17.429 22.198,18.069 22.281,18.202C23.168,18.098 23.82,17.933 23.951,17.9C23.871,18.005 23.454,18.549 22.919,19.198C23.454,20.02 23.867,20.618 23.951,20.74C23.814,20.685 23.168,20.43 22.281,19.958C22.2,20.053 21.794,20.528 21.25,21.131L21.25,19.375C21.114,19.295 20.545,18.958 19.58,18.334C20.545,18.331 21.116,18.298 21.25,18.29L21.25,16.535ZM18,14.566C19.338,15.003 20.167,16.091 20.307,16.273C19.559,15.506 18.807,15.258 18.658,15.208C17.032,14.672 15.834,15.666 15.834,17.167C15.834,18.762 17.179,20.368 18.658,20.856C19.572,21.158 20.185,20.902 20.307,20.851C19.816,21.196 19.008,21.395 18,21.066C16.345,20.526 14.75,18.785 14.75,16.921C14.75,15.208 16.11,13.949 18,14.566Z" style="fill:rgb(20,20,20);fill-rule:nonzero;"/>
                </g>
                <g transform="matrix(0.896117,3.24196e-17,-3.24196e-17,0.896117,219.046,223.655)">
                    <path d="M32,5.435C24.446,6.606 24.298,6.804 18.359,4.935C11.85,2.887 11.375,3.817 4,4.757C1.899,5.025 -0.023,6.737 0.255,9.01C0.284,9.251 0.418,10.346 0.712,12.012C6.547,12.019 9.917,10.247 14.04,10.804C16.931,11.195 20.485,12.916 23.399,13.266C26.86,13.682 32.703,12.15 36.715,12.021C36.52,10.512 36.501,10.532 36.304,9.019C36.033,6.93 34.291,5.079 32,5.435Z" style="fill:rgb(231,0,19);fill-rule:nonzero;"/>
                </g>
                <g transform="matrix(0.896117,3.24196e-17,-3.24196e-17,0.896117,219.046,223.655)">
                    <path d="M32.069,31.737C22.764,33.062 21.617,31.929 16.923,30.475C12.024,28.957 9.406,30.043 4.002,30.751C1.734,31.048 0.032,29.153 0.333,26.993C0.463,26.061 0.767,24.233 0.807,23.993C9.704,23.986 9.885,21.196 18.36,23.934C27.383,26.849 27.579,24.569 36.756,24.151C36.61,25.679 36.617,25.66 36.472,27.17C36.268,29.3 34.172,31.438 32.069,31.737Z" style="fill:rgb(35,158,70);fill-rule:nonzero;"/>
                </g>
                <g transform="matrix(0.896117,3.24196e-17,-3.24196e-17,0.896117,219.046,223.655)">
                    <path d="M18,21.066C19.008,21.395 19.816,21.196 20.307,20.851C20.185,20.902 19.572,21.158 18.658,20.856C17.179,20.368 15.834,18.762 15.834,17.167C15.834,15.666 17.032,14.672 18.658,15.208C18.807,15.258 19.559,15.506 20.307,16.273C20.167,16.091 19.338,15.003 18,14.566C16.11,13.949 14.75,15.208 14.75,16.921C14.75,18.785 16.345,20.526 18,21.066Z" style="fill:white;fill-rule:nonzero;"/>
                </g>
                <g transform="matrix(0.896117,3.24196e-17,-3.24196e-17,0.896117,219.046,223.655)">
                    <path d="M21.25,19.375L21.25,21.131L22.281,19.958C23.168,20.43 23.814,20.685 23.951,20.74C23.867,20.618 23.454,20.02 22.919,19.198C23.004,19.096 23.454,18.549 23.951,17.9C23.82,17.933 23.168,18.098 22.281,18.202C22.198,18.069 21.794,17.429 21.25,16.535L21.25,18.29C21.116,18.298 20.545,18.331 19.58,18.334C20.545,18.958 21.114,19.295 21.25,19.375Z" style="fill:white;fill-rule:nonzero;"/>
                </g>
            </g>
        </g>
    </g>
</svg>
