<?xml version="1.0" encoding="UTF-8" standalone="no"?>
<!DOCTYPE svg PUBLIC "-//W3C//DTD SVG 1.1//EN" "http://www.w3.org/Graphics/SVG/1.1/DTD/svg11.dtd">
<svg width="100%" height="100%" viewBox="0 0 512 512" version="1.1" xmlns="http://www.w3.org/2000/svg" xmlns:xlink="http://www.w3.org/1999/xlink" xml:space="preserve" xmlns:serif="http://www.serif.com/" style="fill-rule:evenodd;clip-rule:evenodd;stroke-linejoin:round;stroke-miterlimit:2;">
    <g transform="matrix(1.11593,-4.03717e-17,4.03717e-17,1.11593,-13.9687,-19.1113)">
        <g transform="matrix(11.1111,-2.35563e-31,0,11.1111,-2371.15,-2417.74)">
            <g>
                <g transform="matrix(0.896117,3.24196e-17,-3.24196e-17,0.896117,219.046,223.655)">
                    <path d="M36.472,27.17C36.268,29.3 34.172,31.438 32.069,31.737C22.764,33.062 21.617,31.929 16.923,30.475C12.024,28.957 9.406,30.043 4.002,30.751C1.734,31.048 0.032,29.153 0.333,26.993C0.731,24.136 1.48,20.893 1.447,17.745C1.416,14.7 0.699,12.641 0.255,9.01C-0.023,6.737 1.899,5.025 4,4.757C11.375,3.817 11.85,2.887 18.359,4.935C24.284,6.8 24.43,6.609 32,5.435C34.291,5.079 36.033,6.93 36.304,9.019C37.335,16.956 37.438,17.114 36.472,27.17Z" style="fill:rgb(206,27,38);fill-rule:nonzero;"/>
                </g>
                <g transform="matrix(0.896117,3.24196e-17,-3.24196e-17,0.896117,219.046,223.655)">
                    <path d="M32,5.435C24.446,6.606 24.298,6.804 18.359,4.935C11.85,2.887 11.375,3.817 4,4.757C1.899,5.025 -0.023,6.737 0.255,9.01C0.715,12.775 1.468,14.811 1.448,18.098C8.275,18.167 10.205,15.414 16.92,17.474C21.309,18.821 22.476,19.649 27.134,19.208C29.699,18.965 34.245,18.104 37.114,18.012C37.08,13.821 36.527,10.739 36.304,9.019C36.033,6.93 34.291,5.079 32,5.435Z" style="fill:rgb(0,43,127);fill-rule:nonzero;"/>
                </g>
                <g transform="matrix(0.896117,3.24196e-17,-3.24196e-17,0.896117,219.046,223.655)">
                    <path d="M12.515,10.119C12.514,9.388 11.899,8.784 11.09,8.845C10.382,8.898 8.786,9.54 8.592,9.618L8.061,9.704C7.863,9.69 6.119,9.567 5.572,9.657C4.803,9.784 4.294,10.454 4.401,11.196C4.549,12.219 5.303,13.256 5.4,13.405C6.659,13.2 9.617,12.55 11.804,12.454C11.891,12.273 12.515,11.141 12.515,10.119Z" style="fill:rgb(178,137,20);fill-rule:nonzero;"/>
                </g>
                <g transform="matrix(0.896117,3.24196e-17,-3.24196e-17,0.896117,219.046,223.655)">
                    <path d="M7.987,9.574L7.985,9.906C7.241,9.91 7.26,9.802 6.511,9.797C6.452,9.796 6.038,9.793 5.771,9.838C4.922,9.98 4.547,10.476 4.636,11.115C4.76,12.006 5.51,13.009 5.618,13.154L5.258,13.428C5.162,13.281 4.401,12.239 4.251,11.216C4.142,10.479 4.629,9.668 5.56,9.516C6.621,9.342 6.615,9.478 7.987,9.574ZM8.653,9.466L8.69,9.791C9.454,9.545 9.4,9.465 10.152,9.228C10.566,9.098 10.848,9.075 10.909,9.07C11.043,9.059 12.253,8.958 12.255,10.076C12.257,10.951 11.622,12.096 11.533,12.257L11.963,12.448C12.058,12.252 12.678,11.138 12.678,10.119C12.678,9.352 12.026,8.634 11.088,8.704C10.447,8.752 8.843,9.391 8.653,9.466ZM8.192,6.134L7.946,6.666L8.217,7.117L8.461,6.587L8.192,6.134ZM8.225,7.377L7.99,7.908L8.263,8.36L8.497,7.828L8.225,7.377ZM7.313,7.394L7.725,7.59L8.115,7.264L7.705,7.064L7.313,7.394ZM8.328,7.23L8.736,7.432L9.134,7.112L8.723,6.907L8.328,7.23Z" style="fill:rgb(255,216,61);fill-rule:nonzero;"/>
                </g>
                <g transform="matrix(0.896117,3.24196e-17,-3.24196e-17,0.896117,219.046,223.655)">
                    <path d="M8.215,7.054C8.321,7.037 8.412,7.116 8.415,7.222C8.418,7.33 8.336,7.434 8.228,7.451C8.122,7.468 8.031,7.388 8.027,7.283C8.024,7.174 8.107,7.071 8.215,7.054ZM8.248,7.991C8.522,7.948 8.769,8.153 8.78,8.446C8.789,8.699 8.574,9.011 8.295,9.056C8.028,9.099 7.779,8.89 7.764,8.607C7.748,8.324 7.982,8.033 8.248,7.991ZM8.424,11.311C7.916,11.396 7.421,11.745 7.472,12.593C7.224,12.211 6.544,11.588 6.056,11.78C5.755,11.899 5.492,12.458 5.631,13.07C5.229,12.221 4.344,12.233 3.842,12.801C4.427,13.194 5.118,14.907 5.411,15.252C6.912,14.994 9.723,14.293 12.045,14.195C12.354,13.771 12.892,12.021 13.379,11.658C12.71,11.075 11.79,11.287 11.509,12.177C11.557,11.559 11.201,11.066 10.867,11.03C10.338,10.973 9.74,11.776 9.536,12.242C9.472,11.416 8.948,11.222 8.424,11.311Z" style="fill:rgb(255,216,61);fill-rule:nonzero;"/>
                </g>
                <g transform="matrix(0.896117,3.24196e-17,-3.24196e-17,0.896117,219.046,223.655)">
                    <path d="M11.756,13.985C10.755,13.746 8.861,14.097 8.613,14.143C8.429,14.177 7.347,14.379 6.339,14.706C5.888,14.851 5.702,14.95 5.649,14.977C5.551,15.032 5.387,15.115 5.388,15.256C5.409,15.392 5.576,15.432 5.686,15.461C6.547,15.668 8.428,15.307 8.662,15.262C8.851,15.225 9.922,15.02 11.005,14.714C11.512,14.571 11.703,14.485 11.762,14.459C11.854,14.416 12.057,14.337 12.067,14.195C12.056,14.052 11.864,14.013 11.756,13.985Z" style="fill-rule:nonzero;"/>
                </g>
                <g transform="matrix(0.896117,3.24196e-17,-3.24196e-17,0.896117,219.046,223.655)">
                    <path d="M7.882,9.567C7.952,9.566 8.435,9.558 8.755,9.425C8.774,9.554 8.933,10.589 9.065,11.03C9.014,11.022 8.686,10.971 8.419,11.016C8.038,11.08 7.237,11.501 7.764,11.247L7.832,10.327L7.882,9.567ZM3.995,11.863C3.733,11.192 3.517,10.308 4.443,9.437C5.36,8.574 7.345,8.94 7.454,8.95C7.89,8.989 7.929,9.499 7.395,9.45C7.38,9.448 5.334,9.144 4.629,10.014C3.989,10.804 4.213,11.319 4.377,11.694C4.628,12.268 4.481,12.283 4.511,12.454C4.18,12.221 4.15,12.261 3.995,11.863ZM13.051,10.777C13.167,10.29 13.38,9.209 12.229,8.448C11.117,7.714 9.178,8.708 9.121,8.732C8.707,8.901 8.694,9.421 9.229,9.203C9.442,9.116 11.307,8.355 12.108,9.045C12.901,9.728 12.718,10.301 12.62,10.652C12.606,10.701 12.46,11.226 12.639,11.294C12.731,11.328 12.964,11.142 13.051,10.777Z" style="fill:rgb(255,216,61);fill-rule:nonzero;"/>
                </g>
            </g>
        </g>
    </g>
</svg>
