<?xml version="1.0" encoding="UTF-8" standalone="no"?>
<!DOCTYPE svg PUBLIC "-//W3C//DTD SVG 1.1//EN" "http://www.w3.org/Graphics/SVG/1.1/DTD/svg11.dtd">
<svg width="100%" height="100%" viewBox="0 0 512 512" version="1.1" xmlns="http://www.w3.org/2000/svg" xmlns:xlink="http://www.w3.org/1999/xlink" xml:space="preserve" xmlns:serif="http://www.serif.com/" style="fill-rule:evenodd;clip-rule:evenodd;stroke-linejoin:round;stroke-miterlimit:2;">
    <g transform="matrix(1.11593,-4.03717e-17,4.03717e-17,1.11593,-13.9687,-19.1113)">
        <g transform="matrix(11.1111,-2.35563e-31,0,11.1111,-2371.15,-2417.74)">
            <g>
                <g transform="matrix(0.896117,3.24196e-17,-3.24196e-17,0.896117,219.046,223.655)">
                    <path d="M1.083,14.014C6.932,14.022 9.875,12.241 14.04,12.804C16.931,13.195 20.485,14.916 23.399,15.266C26.842,15.68 32.877,14.143 36.931,14.011C37,14.884 37.278,18.399 36.965,22.012C29.007,22.271 27.296,24.816 19.08,22.171C16.122,21.219 14.273,20.425 10.554,20.818C7.067,21.187 5.709,22.004 1.125,22.002C1.426,19.933 1.671,17.192 1.083,14.014Z" style="fill:rgb(238,238,238);fill-rule:nonzero;"/>
                </g>
                <g transform="matrix(0.896117,3.24196e-17,-3.24196e-17,0.896117,219.046,223.655)">
                    <path d="M32,5.435C24.446,6.606 24.298,6.804 18.359,4.935C11.85,2.887 11.375,3.817 4,4.757C1.899,5.025 -0.023,6.737 0.255,9.01C0.445,10.564 1.009,13.615 1.083,14.014C6.932,14.022 9.875,12.241 14.04,12.804C16.931,13.195 20.485,14.916 23.399,15.266C26.842,15.68 32.877,14.143 36.931,14.011C36.815,12.546 36.417,9.89 36.304,9.019C36.033,6.93 34.291,5.079 32,5.435Z" style="fill:rgb(237,41,57);fill-rule:nonzero;"/>
                </g>
                <g transform="matrix(0.896117,3.24196e-17,-3.24196e-17,0.896117,219.046,223.655)">
                    <path d="M4.002,30.751C11.37,29.786 11.847,28.83 18.359,30.934C21.72,32.02 23.307,32.985 32.069,31.737C34.172,31.438 36.268,29.3 36.472,27.17C36.512,26.758 36.937,22.33 36.965,22.012C29.007,22.271 27.296,24.816 19.08,22.171C16.122,21.219 14.273,20.425 10.554,20.818C7.067,21.187 5.709,22.004 1.125,22.002C1.022,22.707 0.496,25.824 0.333,26.993C0.032,29.153 1.734,31.048 4.002,30.751Z" style="fill:rgb(0,161,222);fill-rule:nonzero;"/>
                </g>
            </g>
        </g>
    </g>
</svg>
