<?xml version="1.0" encoding="UTF-8" standalone="no"?>
<!DOCTYPE svg PUBLIC "-//W3C//DTD SVG 1.1//EN" "http://www.w3.org/Graphics/SVG/1.1/DTD/svg11.dtd">
<svg width="100%" height="100%" viewBox="0 0 512 512" version="1.1" xmlns="http://www.w3.org/2000/svg" xmlns:xlink="http://www.w3.org/1999/xlink" xml:space="preserve" xmlns:serif="http://www.serif.com/" style="fill-rule:evenodd;clip-rule:evenodd;stroke-linejoin:round;stroke-miterlimit:2;">
    <g transform="matrix(1.11593,-4.03717e-17,4.03717e-17,1.11593,-13.9687,-19.1113)">
        <g transform="matrix(11.1111,-2.35563e-31,0,11.1111,-2371.15,-2417.74)">
            <g>
                <g transform="matrix(0.896117,3.24196e-17,-3.24196e-17,0.896117,219.046,223.655)">
                    <path d="M36.472,27.17C36.268,29.3 34.172,31.438 32.069,31.737C22.764,33.062 21.617,31.929 16.923,30.475C12.024,28.957 9.406,30.043 4.002,30.751C1.734,31.048 0.032,29.153 0.333,26.993C0.731,24.136 1.48,20.893 1.447,17.745C1.416,14.7 0.699,12.641 0.255,9.01C-0.023,6.737 1.899,5.025 4,4.757C11.375,3.817 11.85,2.887 18.359,4.935C24.284,6.8 24.43,6.609 32,5.435C34.291,5.079 36.033,6.93 36.304,9.019C37.335,16.956 37.438,17.114 36.472,27.17Z" style="fill:rgb(0,120,94);fill-rule:nonzero;"/>
                </g>
                <g transform="matrix(0.896117,3.24196e-17,-3.24196e-17,0.896117,219.046,223.655)">
                    <path d="M17.976,8.375C18.142,8.748 18.112,8.75 18.383,9.683L19.655,10.099L18.647,10.513C18.669,10.616 18.697,10.6 19.007,11.781C18.928,11.787 18.77,11.587 18.767,11.583L18.025,10.787C17.827,10.821 17.131,11.127 16.994,11.155L17.354,10.115C17.017,9.705 16.431,9.15 16.347,9.07C16.45,9.083 16.438,9.098 17.593,9.425C17.848,8.838 17.952,8.461 17.976,8.375ZM12.534,10.675L13.23,10.215C13.066,9.814 13.15,9.797 12.966,9.411C13.031,9.435 12.986,9.475 13.661,9.938L14.356,9.552C14.351,9.615 14.281,9.585 14.117,10.307C14.214,10.433 14.217,10.419 14.787,10.947C14.632,10.955 14.645,10.94 13.949,10.811C13.917,10.869 13.804,11.077 13.661,11.592C13.549,11.374 13.414,10.822 13.397,10.753L12.75,10.723C12.729,10.636 12.558,10.759 12.534,10.675ZM23.248,13.266L22.625,13.166L22.361,13.93L22.072,13.054C22.002,13.045 21.695,13.004 21.211,12.866L21.881,12.508C21.866,12.436 21.857,12.451 21.617,11.629L22.312,12.266C22.374,12.247 22.339,12.18 23.031,11.893C22.949,12.076 22.91,12.275 22.843,12.464C22.822,12.524 22.798,12.584 22.767,12.64C22.947,12.847 23.404,13.2 23.462,13.245C23.441,13.326 23.271,13.183 23.248,13.266ZM11.302,12.231C11.334,12.291 11.285,12.291 11.497,13.061L12.324,13.122L11.618,13.56C11.62,13.581 11.617,13.562 11.763,14.37C11.65,14.404 11.557,14.252 11.47,14.172L11.179,13.883L10.495,14.365C10.785,13.611 10.783,13.611 10.799,13.58C10.662,13.387 10.265,13.077 10.215,13.037C10.247,13.027 10.225,13.031 10.982,13.028C11.012,12.966 11.134,12.712 11.302,12.231ZM25.074,15.586L25.966,15.451L25.32,16.083L25.698,16.81C25.643,16.8 25.646,16.795 24.928,16.453C24.834,16.514 24.39,16.95 24.278,16.999C24.309,16.799 24.361,16.602 24.397,16.403C24.409,16.332 24.417,16.261 24.422,16.19C24.364,16.152 23.931,15.87 23.679,15.737C23.745,15.722 23.747,15.759 24.518,15.664C24.546,15.602 24.462,15.582 24.711,14.826L25.074,15.586Z" style="fill:rgb(251,209,22);"/>
                    <path d="M21.426,24.091C19.715,23.56 18.488,22.141 17.976,21.556C16.808,22.249 15.59,22.218 14.574,22.1C14.028,22.002 12.648,21.774 10.184,22.066L10.203,22.11C10.225,22.146 10.379,22.396 10.504,22.531C11.46,22.502 13.146,22.363 14.908,22.69C16.273,22.885 17.138,22.677 18,22.331C18.486,22.846 19.594,24.025 21.091,24.528C22.341,24.891 23.76,25.231 25.586,25.044L25.935,24.57L25.961,24.569C25.886,24.528 25.884,24.546 24.927,24.555C24.347,24.56 23.184,24.545 21.426,24.091ZM25.023,25.705C25.069,25.712 25.1,25.613 25.023,25.634C19.714,25.706 16.896,22.472 10.966,23.11L11.011,23.13C11.062,23.186 11.146,23.307 11.239,23.328C11.303,23.342 11.295,23.31 12.056,23.288C16.81,23.149 20.173,25.908 24.829,25.922L25.023,25.705ZM24.158,26.531L24.206,26.509L24.229,26.439C20.238,26.346 16.486,23.574 12.079,23.815C12.007,23.819 11.812,23.759 11.794,23.896L11.842,23.918L12.27,24.241C16.331,24.212 20,26.533 23.727,26.835L24.158,26.531ZM23.057,27.209C23.104,27.182 23.115,27.185 23.057,27.162C22.961,27.124 22.948,27.189 21.786,26.911C19.31,26.32 16.102,24.902 13.447,24.68C12.934,24.638 12.913,24.672 12.944,24.698L13.831,25.246C16.388,25.587 19.698,27.028 22.169,27.525C22.243,27.508 22.603,27.424 23.057,27.209ZM21.475,27.674L21.522,27.686C21.521,27.644 21.513,27.64 21.475,27.625C21.34,27.571 21.327,27.625 19.726,27.114C18.894,26.848 16.179,25.854 14.477,25.654L14.526,25.662C14.753,25.786 16.309,26.633 17.45,27.043C17.546,27.129 17.836,27.185 17.881,27.205L18.121,27.283C18.266,27.314 18.407,27.436 18.552,27.401C18.778,27.466 20.084,27.838 21.475,27.674Z" style="fill:white;"/>
                    <path d="M15.915,15.832C15.959,16.952 16.284,17.974 16.754,18.8C16.655,18.552 16.005,17.061 16.131,15.602C16.155,15.317 16.321,13.371 18.025,12.562C19.67,14.582 19.836,16.394 19.87,16.76C20.004,18.235 19.475,19.208 19.127,19.731C20.024,18.872 20.078,17.359 20.086,17.138C20.147,17.094 20.108,16.88 20.086,16.85C20.079,16.665 20.043,15.673 19.583,14.582C19.682,14.414 19.83,14.279 19.944,14.12C19.996,14.047 20.039,13.937 20.061,13.847C20.156,14.029 20.655,14.975 20.756,16.31L20.756,17.053C20.684,18.247 20.212,18.988 19.846,19.46C19.823,19.456 19.799,19.52 19.822,19.524L20.014,19.369C21.449,18.595 22.789,18.553 24.111,18.574L24.543,18.588C24.6,18.679 24.417,18.762 24.351,18.848L24.135,19.175C22.849,19.133 21.225,19.089 19.775,20.012C20.083,19.898 21.347,19.43 22.914,19.544C24.903,19.689 25.891,20.011 26.139,20.092C25.734,21.142 25.125,21.77 25.007,21.892C24.891,21.988 24.785,22.092 24.688,22.207C24.163,22.677 23.12,23.483 21.38,23.145L20.806,22.987L20.854,23.024C20.96,23.12 21.167,23.159 21.285,23.191C21.369,23.243 21.718,23.326 21.788,23.319C23.548,23.671 24.645,22.765 25.327,22.195C25.363,22.219 26.006,22.273 25.928,22.358C25.895,22.386 25.726,22.53 25.549,22.737C24.779,23.416 23.727,24.105 22.147,23.855L21.643,23.738C19.781,23.17 18.549,21.659 18.242,21.285C18.156,21.166 18.099,21.046 17.978,20.96L17.763,21.129C16.588,21.793 15.356,21.76 14.36,21.656L13.857,21.584C12.613,21.359 11.531,21.07 10.583,20.208C10.495,20.099 10.399,19.999 10.291,19.909C10.301,19.881 10.211,19.859 10.271,19.84C10.599,19.762 10.751,19.683 10.79,19.663C11.451,20.182 12.281,20.819 14.217,21.179C14.293,21.217 14.65,21.276 14.72,21.264C14.783,21.276 15.043,21.349 15.151,21.304L15.199,21.314C15.158,21.29 15.156,21.316 14.625,21.175C12.575,20.667 11.737,19.939 11.381,19.612C11.297,19.507 11.203,19.411 11.099,19.325C10.997,19.215 10.474,18.651 10.165,17.693C11.246,17.024 12.368,16.97 13.066,17.061C14.608,17.263 15.993,18.667 16.182,18.853L16.35,19.045C16.341,18.963 16.281,18.924 16.23,18.866C15.196,17.656 13.84,16.51 11.93,16.569L11.509,15.997L11.929,15.971C13.563,15.965 14.858,16.829 15.942,18.07C16.043,18.203 16.117,18.342 16.253,18.442C16.264,18.379 16.205,18.422 16.205,18.381L16.109,18.211C16.102,18.198 15.329,16.827 15.246,15.384L15.246,14.641C15.323,13.502 15.825,12.701 15.918,12.552C16.037,12.893 16.376,13.476 16.421,13.553C16.356,13.677 16.021,14.316 15.942,15.242C15.868,15.269 15.935,15.4 15.918,15.476L15.918,15.547C15.856,15.587 15.877,15.784 15.915,15.832ZM16.754,18.8C16.772,18.888 16.813,18.962 16.874,19.027C16.855,18.939 16.814,18.866 16.754,18.8Z" style="fill:white;"/>
                </g>
            </g>
        </g>
    </g>
</svg>
