<?xml version="1.0" encoding="UTF-8" standalone="no"?>
<!DOCTYPE svg PUBLIC "-//W3C//DTD SVG 1.1//EN" "http://www.w3.org/Graphics/SVG/1.1/DTD/svg11.dtd">
<svg width="100%" height="100%" viewBox="0 0 512 512" version="1.1" xmlns="http://www.w3.org/2000/svg" xmlns:xlink="http://www.w3.org/1999/xlink" xml:space="preserve" xmlns:serif="http://www.serif.com/" style="fill-rule:evenodd;clip-rule:evenodd;stroke-linejoin:round;stroke-miterlimit:2;">
    <g transform="matrix(1.11593,-4.03717e-17,4.03717e-17,1.11593,-13.9687,-19.1113)">
        <g transform="matrix(11.1111,-2.35563e-31,0,11.1111,-2371.15,-2417.74)">
            <g>
                <g transform="matrix(0.896117,3.24196e-17,-3.24196e-17,0.896117,219.046,223.655)">
                    <path d="M32,5.435C28.84,5.925 25.56,6.627 22.679,6.127C19.745,5.617 16.101,3.863 13,3.744C13,8.067 13,12.389 13,16.711C16.337,16.842 20.175,18.885 23.421,19.269C26.867,19.676 33.014,18.144 37.114,18.012C37.08,13.821 36.527,10.739 36.304,9.019C36.033,6.93 34.291,5.079 32,5.435Z" style="fill:rgb(252,61,50);fill-rule:nonzero;"/>
                </g>
                <g transform="matrix(0.896117,3.24196e-17,-3.24196e-17,0.896117,219.046,223.655)">
                    <path d="M13,29.711C15.786,29.82 19.103,31.306 21.603,31.924C22.278,32.091 24.311,32.842 32.069,31.737C34.172,31.438 36.268,29.3 36.472,27.17C37.045,21.202 37.132,20.296 37.114,18.012C33.017,18.144 26.869,19.676 23.421,19.269C20.175,18.885 16.337,16.842 13,16.711L13,29.711Z" style="fill:rgb(0,126,58);fill-rule:nonzero;"/>
                </g>
                <g transform="matrix(0.896117,3.24196e-17,-3.24196e-17,0.896117,219.046,223.655)">
                    <path d="M13,3.744C10.421,3.646 6.097,4.49 4,4.757C1.899,5.025 -0.023,6.737 0.255,9.01C0.697,12.631 1.416,14.687 1.447,17.745C1.48,20.89 0.734,24.117 0.333,26.993C0.032,29.153 1.734,31.048 4.002,30.751C6.096,30.477 10.418,29.61 13,29.711C13,21.055 13,12.4 13,3.744Z" style="fill:rgb(238,238,238);fill-rule:nonzero;"/>
                </g>
            </g>
        </g>
    </g>
</svg>
