<?xml version="1.0" encoding="UTF-8" standalone="no"?>
<!DOCTYPE svg PUBLIC "-//W3C//DTD SVG 1.1//EN" "http://www.w3.org/Graphics/SVG/1.1/DTD/svg11.dtd">
<svg width="100%" height="100%" viewBox="0 0 512 512" version="1.1" xmlns="http://www.w3.org/2000/svg" xmlns:xlink="http://www.w3.org/1999/xlink" xml:space="preserve" xmlns:serif="http://www.serif.com/" style="fill-rule:evenodd;clip-rule:evenodd;stroke-linejoin:round;stroke-miterlimit:2;">
    <g transform="matrix(1.11593,-4.03717e-17,4.03717e-17,1.11593,-13.9687,-19.1113)">
        <g transform="matrix(11.1111,-1.36955e-31,1.02716e-31,11.1111,-2371.15,-2417.74)">
            <g>
                <g transform="matrix(0.896117,3.24196e-17,-3.24196e-17,0.896117,219.046,223.655)">
                    <path d="M36.472,27.17C36.268,29.3 34.172,31.438 32.069,31.737C22.764,33.062 21.617,31.929 16.923,30.475C12.024,28.957 9.406,30.043 4.002,30.751C1.734,31.048 0.032,29.153 0.333,26.993C0.731,24.136 1.48,20.893 1.447,17.745C1.416,14.7 0.699,12.641 0.255,9.01C-0.023,6.737 1.899,5.025 4,4.757C11.375,3.817 11.85,2.887 18.359,4.935C24.284,6.8 24.43,6.609 32,5.435C34.291,5.079 36.033,6.93 36.304,9.019C37.335,16.956 37.438,17.114 36.472,27.17Z" style="fill:rgb(119,178,85);fill-rule:nonzero;"/>
                </g>
                <g transform="matrix(0.896117,3.24196e-17,-3.24196e-17,0.896117,219.046,223.655)">
                    <path d="M0.892,13.007C6.76,13.011 9.898,11.244 14.04,11.804C16.931,12.195 20.485,13.916 23.399,14.266C26.851,14.681 32.801,13.147 36.836,13.017C37.376,17.912 36.941,22.27 36.862,23.071C27.88,23.393 27.679,25.945 18.36,22.934C9.959,20.22 9.783,22.994 0.971,22.997C1.792,17.917 1.408,15.774 0.892,13.007Z" style="fill:rgb(221,46,68);fill-rule:nonzero;"/>
                </g>
                <g transform="matrix(0.896117,3.24196e-17,-3.24196e-17,0.896117,219.046,223.655)">
                    <path d="M32,5.435C24.446,6.606 24.298,6.804 18.359,4.935C11.85,2.887 11.375,3.817 4,4.757C1.899,5.025 -0.023,6.737 0.255,9.01C0.459,10.68 0.833,12.689 0.892,13.007C6.76,13.011 9.898,11.244 14.04,11.804C16.931,12.195 20.485,13.916 23.399,14.266C26.851,14.681 32.801,13.147 36.836,13.017C36.736,12.112 36.336,9.263 36.304,9.019C36.033,6.93 34.291,5.079 32,5.435Z" style="fill:rgb(20,20,20);fill-rule:nonzero;"/>
                </g>
                <g transform="matrix(0.896117,3.24196e-17,-3.24196e-17,0.896117,219.046,223.655)">
                    <path d="M23.19,13.239C22.136,11.271 19.997,9.468 18,8.816C15.414,7.972 13.692,9.197 12.809,10.705C16.134,10.769 19.963,12.789 23.19,13.239ZM17.698,5.718L18.301,5.915C18.2,6.603 18.1,7.291 18,7.979C17.899,7.225 17.798,6.472 17.698,5.718ZM16.184,5.441L16.778,5.509C16.8,6.244 16.823,6.978 16.846,7.713C16.625,6.955 16.405,6.198 16.184,5.441ZM14.721,5.529L15.29,5.447C15.435,6.195 15.58,6.943 15.725,7.691C15.198,6.541 14.802,5.701 14.721,5.529ZM13.353,6.017L13.88,5.776C13.944,5.949 14.263,6.811 14.67,7.935C13.98,6.894 13.461,6.168 13.353,6.017ZM12.111,6.892L12.587,6.507C13.04,7.249 13.622,8.284 13.71,8.44C13.587,8.311 12.99,7.686 12.111,6.892ZM11.047,8.038L11.443,7.559C11.559,7.687 12.389,8.606 12.873,9.184C12.186,8.711 11.195,8.125 11.047,8.038ZM10.22,9.372L10.517,8.827C10.652,8.927 11.341,9.441 12.18,10.115C12.026,10.051 11.235,9.722 10.22,9.372ZM10.93,10.779L9.846,10.243L9.653,10.829L9.995,10.877L10.93,10.779ZM26.288,13.279L26.515,13.207L26.279,12.668L25.179,13.337L26.288,13.279ZM25.524,11.373L25.844,11.869C24.613,12.468 23.998,12.685 23.832,12.744C24.5,12.251 25.392,11.486 25.524,11.373ZM24.578,10.195L24.971,10.643C24.83,10.738 24.026,11.282 23.146,11.733C23.895,10.978 24.468,10.322 24.578,10.195ZM23.446,9.1L23.91,9.525C23.787,9.63 23.16,10.168 22.314,10.782C22.407,10.648 22.906,9.928 23.446,9.1ZM22.158,8.066L22.679,8.465C22.576,8.582 22.061,9.165 21.357,9.904C21.775,8.955 22.095,8.213 22.158,8.066ZM20.751,7.118L21.315,7.478C21.234,7.61 20.848,8.247 20.304,9.123C20.453,8.455 20.602,7.786 20.751,7.118ZM19.264,6.315L19.854,6.611C19.63,7.231 19.407,7.851 19.184,8.471C19.21,7.752 19.237,7.034 19.264,6.315Z" style="fill:rgb(221,46,68);fill-rule:nonzero;"/>
                </g>
            </g>
        </g>
    </g>
</svg>
