<?xml version="1.0" encoding="UTF-8" standalone="no"?>
<!DOCTYPE svg PUBLIC "-//W3C//DTD SVG 1.1//EN" "http://www.w3.org/Graphics/SVG/1.1/DTD/svg11.dtd">
<svg width="100%" height="100%" viewBox="0 0 512 512" version="1.1" xmlns="http://www.w3.org/2000/svg" xmlns:xlink="http://www.w3.org/1999/xlink" xml:space="preserve" xmlns:serif="http://www.serif.com/" style="fill-rule:evenodd;clip-rule:evenodd;stroke-linejoin:round;stroke-miterlimit:2;">
    <g transform="matrix(1.11593,-4.03717e-17,4.03717e-17,1.11593,-13.9687,-19.1113)">
        <g transform="matrix(11.1111,-2.53275e-31,0,11.1111,-2371.15,-2417.74)">
            <g>
                <g transform="matrix(0.896117,3.24196e-17,-3.24196e-17,0.896117,219.046,223.655)">
                    <path d="M36.472,27.17C36.268,29.3 34.172,31.438 32.069,31.737C22.764,33.062 21.617,31.929 16.923,30.475C12.024,28.957 9.406,30.043 4.002,30.751C1.734,31.048 0.032,29.153 0.333,26.993C0.76,23.929 1.552,20.621 1.436,17.229C1.343,14.486 0.678,12.475 0.255,9.01C-0.023,6.737 1.899,5.025 4,4.757C11.375,3.817 11.85,2.887 18.359,4.935C24.284,6.8 24.43,6.609 32,5.435C34.291,5.079 36.033,6.93 36.304,9.019C37.336,16.96 37.438,17.112 36.472,27.17Z" style="fill:rgb(221,46,68);fill-rule:nonzero;"/>
                </g>
                <g transform="matrix(0.896117,3.24196e-17,-3.24196e-17,0.896117,219.046,223.655)">
                    <path d="M0.663,28.997C8.344,28.995 9.598,26.112 18.18,28.875C24.391,30.874 24.534,30.741 35.724,29.188C36.376,28.169 36.456,27.342 36.472,27.17C26.594,28.106 26.202,29.474 18.534,26.992C9.751,24.148 9.561,26.985 0.333,26.993C0.31,27.154 0.187,28.036 0.663,28.997ZM0.971,22.997C9.655,22.994 9.823,20.184 18.178,22.874C20.846,23.733 22.612,24.458 25.681,24.322C28.917,24.178 33.635,23.186 36.862,23.071C36.845,23.24 36.776,23.925 36.659,25.187C27.522,25.728 27.033,27.744 18.534,24.992C9.904,22.197 9.71,24.983 0.641,24.991C0.806,23.985 0.807,24.007 0.971,22.997ZM1.421,19.074C8.191,19.125 10.369,16.475 16.752,18.424C19.959,19.403 22.384,20.524 25.7,20.316C29.695,20.065 33.771,19.12 37.111,19.013C37.097,20.034 37.048,20.853 37.038,21.013C28.803,21.279 27.429,23.869 18.891,21.109C16.14,20.22 14.064,19.357 10.17,19.87C6.749,20.321 5.471,21.027 1.255,21.019C1.377,19.998 1.414,19.23 1.421,19.074ZM1.254,15.076C8.055,15.13 10.367,12.474 16.752,14.424C19.94,15.397 22.391,16.526 25.69,16.316C29.649,16.064 33.694,15.118 37.003,15.01C37.068,16.036 37.091,16.85 37.095,17.01C31.614,17.188 26.234,19.197 21.386,17.869C17.709,16.862 15.246,15.536 11.809,15.732C8.131,15.941 5.97,17.163 1.432,17.112C1.425,16.948 1.392,16.094 1.254,15.076ZM0.542,11.013C7.311,11.023 10.617,8.699 16.039,10.221C19.619,11.226 21.928,12.445 25.31,12.333C28.589,12.223 33.273,11.129 36.58,11.023C36.75,12.243 36.818,12.857 36.836,13.017C28.722,13.279 27.433,15.871 18.891,13.109C15.956,12.161 14.171,11.424 10.423,11.829C6.894,12.21 5.421,13.01 0.892,13.007C0.686,11.901 0.568,11.173 0.542,11.013ZM0.622,7.003C0.127,7.964 0.235,8.848 0.255,9.01C7.078,9.017 10.64,6.706 16.039,8.221C19.603,9.222 21.938,10.447 25.304,10.332C28.547,10.222 33.032,9.127 36.304,9.019C36.282,8.851 36.167,7.966 35.531,7.04C27.862,7.498 27.104,9.763 18.899,7.112C9.406,4.045 9.194,7.006 0.622,7.003Z" style="fill:rgb(238,238,238);fill-rule:nonzero;"/>
                </g>
                <g transform="matrix(0.896117,3.24196e-17,-3.24196e-17,0.896117,219.046,223.655)">
                    <path d="M18,4.821C11.98,2.907 10.669,3.907 4,4.757C1.899,5.025 -0.023,6.737 0.255,9.01C0.748,13.047 1.608,15.197 1.421,19.074C9.163,19.132 9.704,16.108 18,18.816C18,14.151 18,9.486 18,4.821Z" style="fill:rgb(1,0,102);fill-rule:nonzero;"/>
                </g>
                <g transform="matrix(0.896117,3.24196e-17,-3.24196e-17,0.896117,219.046,223.655)">
                    <path d="M9.829,16.182C6.479,16.706 5.11,13.164 4.905,11.719C4.451,8.532 6.973,6.006 9.527,5.686C10.573,5.555 11.388,5.85 11.541,5.906C10.57,5.243 9.325,4.93 8,5.134C5.159,5.573 2.096,8.306 2.747,11.964C2.998,13.369 4.733,17.92 8.54,17.175C9.495,16.988 10.62,16.439 11.613,15.572C10.716,16.043 9.978,16.158 9.829,16.182Z" style="fill:rgb(255,204,77);fill-rule:nonzero;"/>
                </g>
                <g transform="matrix(0.896117,3.24196e-17,-3.24196e-17,0.896117,219.046,223.655)">
                    <path d="M12.922,7.537C13.033,8.082 13.145,8.628 13.256,9.173C13.334,9.075 13.74,8.57 14.259,7.97C14.125,8.486 13.991,9.002 13.857,9.518C13.973,9.474 14.55,9.251 15.332,9.033L14.273,10.098C14.407,10.116 15.035,10.201 15.927,10.416C15.12,10.572 14.541,10.739 14.422,10.773C14.545,10.85 15.12,11.208 15.927,11.788C15.035,11.535 14.407,11.424 14.273,11.4C14.359,11.517 14.778,12.085 15.332,12.877C14.55,12.3 13.978,11.941 13.857,11.864C13.991,12.418 14.125,12.971 14.259,13.525C13.74,12.764 13.338,12.21 13.256,12.097C13.145,12.632 13.033,13.167 12.922,13.702C12.811,13.16 12.699,12.618 12.588,12.077C12.086,12.736 11.698,13.316 11.624,13.426C11.802,12.605 11.796,12.626 11.993,11.799C11.879,11.862 11.297,12.184 10.605,12.644C11.075,11.96 11.502,11.401 11.583,11.295C11.458,11.305 10.836,11.352 10.023,11.472C10.736,11.025 11.319,10.714 11.434,10.653L9.982,10.101C10.816,10.018 11.446,9.998 11.573,9.993C11.49,9.897 11.041,9.377 10.526,8.802C10.644,8.851 11.272,9.116 11.983,9.453C11.848,8.924 11.712,8.395 11.577,7.866C11.658,7.969 12.058,8.472 12.587,9.153C12.699,8.614 12.81,8.076 12.922,7.537Z" style="fill:rgb(255,204,77);fill-rule:nonzero;"/>
                </g>
            </g>
        </g>
    </g>
</svg>
