<?xml version="1.0" encoding="UTF-8" standalone="no"?>
<!DOCTYPE svg PUBLIC "-//W3C//DTD SVG 1.1//EN" "http://www.w3.org/Graphics/SVG/1.1/DTD/svg11.dtd">
<svg width="100%" height="100%" viewBox="0 0 512 512" version="1.1" xmlns="http://www.w3.org/2000/svg" xmlns:xlink="http://www.w3.org/1999/xlink" xml:space="preserve" xmlns:serif="http://www.serif.com/" style="fill-rule:evenodd;clip-rule:evenodd;stroke-linejoin:round;stroke-miterlimit:2;">
    <g transform="matrix(1.11593,-4.03717e-17,4.03717e-17,1.11593,-13.9687,-19.1113)">
        <g transform="matrix(11.1111,-2.35563e-31,0,11.1111,-2371.15,-2417.74)">
            <g>
                <g transform="matrix(0.896117,3.24196e-17,-3.24196e-17,0.896117,219.046,223.655)">
                    <path d="M32,5.435C24.437,6.608 24.303,6.825 18,4.821C18,13.486 18,22.151 18,30.816C21.791,32.054 23.332,32.982 32.069,31.737C34.172,31.438 36.268,29.3 36.472,27.17C37.437,17.129 37.336,16.966 36.304,9.019C36.033,6.93 34.291,5.079 32,5.435Z" style="fill:rgb(207,20,43);fill-rule:nonzero;"/>
                </g>
                <g transform="matrix(0.896117,3.24196e-17,-3.24196e-17,0.896117,219.046,223.655)">
                    <path d="M4,4.757C1.899,5.025 -0.023,6.737 0.255,9.01C0.697,12.631 1.416,14.687 1.447,17.745C1.48,20.89 0.734,24.117 0.333,26.993C0.032,29.153 1.734,31.048 4.002,30.751C10.663,29.879 11.977,28.85 18,30.816C18,22.151 18,13.486 18,4.821C11.98,2.907 10.669,3.907 4,4.757Z" style="fill:rgb(238,238,238);fill-rule:nonzero;"/>
                </g>
                <g transform="matrix(0.896117,3.24196e-17,-3.24196e-17,0.896117,219.046,223.655)">
                    <path d="M2.026,9.641C4.671,9.504 7.912,8.739 10.359,8.485C10.362,8.7 10.378,9.67 10.414,11.173C8.016,11.432 5.079,12.19 2.475,12.328C2.198,10.836 2.057,9.856 2.026,9.641Z" style="fill:rgb(207,20,43);fill-rule:nonzero;"/>
                </g>
                <g transform="matrix(0.896117,3.24196e-17,-3.24196e-17,0.896117,219.046,223.655)">
                    <path d="M4.7,6.316C5.6,6.185 5.58,6.18 7.358,5.892C7.435,9.349 7.85,13.293 7.927,14.625C6.357,14.939 6.369,14.944 5.668,15.07C5.524,13.398 4.869,9.777 4.7,6.316Z" style="fill:rgb(207,20,43);fill-rule:nonzero;"/>
                </g>
                <g transform="matrix(0.896117,3.24196e-17,-3.24196e-17,0.896117,219.046,223.655)">
                    <path d="M5.194,11.012C5.642,10.941 6.085,11.279 6.145,11.79C6.204,12.29 5.878,12.777 5.444,12.849C5.007,12.921 4.553,12.555 4.476,12.058C4.398,11.549 4.744,11.083 5.194,11.012Z" style="fill:rgb(207,20,43);"/>
                    <path d="M7.615,10.591C8.059,10.513 8.482,10.855 8.514,11.367C8.545,11.866 8.192,12.351 7.763,12.43C7.331,12.509 6.914,12.158 6.864,11.661C6.812,11.149 7.17,10.67 7.615,10.591Z" style="fill:rgb(207,20,43);"/>
                    <path d="M4.917,8.562C5.391,8.49 5.836,8.836 5.884,9.344C5.93,9.843 5.578,10.335 5.118,10.407C4.654,10.48 4.194,10.108 4.133,9.611C4.07,9.106 4.442,8.634 4.917,8.562Z" style="fill:rgb(207,20,43);"/>
                    <path d="M7.455,8.143C7.926,8.064 8.356,8.413 8.379,8.921C8.403,9.418 8.028,9.907 7.571,9.986C7.11,10.066 6.68,9.71 6.641,9.214C6.601,8.707 6.984,8.222 7.455,8.143Z" style="fill:rgb(207,20,43);"/>
                </g>
                <g transform="matrix(0.896117,3.24196e-17,-3.24196e-17,0.896117,219.046,223.655)">
                    <path d="M5.22,11.225C5.563,11.17 5.904,11.432 5.952,11.824C5.999,12.209 5.747,12.582 5.412,12.637C5.075,12.692 4.727,12.414 4.67,12.03C4.611,11.64 4.875,11.28 5.22,11.225Z" style="fill:rgb(153,170,181);"/>
                    <path d="M7.631,10.804C7.971,10.744 8.296,11.006 8.322,11.4C8.347,11.784 8.077,12.157 7.745,12.218C7.413,12.278 7.091,12.01 7.054,11.626C7.016,11.234 7.29,10.864 7.631,10.804Z" style="fill:rgb(153,170,181);"/>
                    <path d="M4.936,8.776C5.299,8.721 5.643,8.988 5.68,9.378C5.718,9.762 5.446,10.138 5.091,10.194C4.733,10.25 4.381,9.967 4.335,9.584C4.288,9.196 4.572,8.831 4.936,8.776Z" style="fill:rgb(153,170,181);"/>
                    <path d="M7.467,8.356C7.828,8.295 8.158,8.564 8.178,8.953C8.197,9.336 7.909,9.712 7.556,9.773C7.201,9.835 6.87,9.562 6.842,9.18C6.812,8.791 7.105,8.417 7.467,8.356Z" style="fill:rgb(153,170,181);"/>
                </g>
                <g transform="matrix(0.896117,3.24196e-17,-3.24196e-17,0.896117,219.046,223.655)">
                    <path d="M6.212,8.67C7.131,8.514 7.982,9.183 8.047,10.195C8.108,11.168 7.42,12.147 6.568,12.302C5.695,12.462 4.821,11.725 4.692,10.764C4.557,9.751 5.297,8.825 6.212,8.67Z" style="fill:rgb(204,214,221);"/>
                </g>
                <g transform="matrix(0.896117,3.24196e-17,-3.24196e-17,0.896117,219.046,223.655)">
                    <path d="M5.058,6.612C5.525,6.541 6.871,6.32 7.028,6.294C7.128,9.481 7.547,13.346 7.616,14.331C6.77,14.5 6.783,14.504 5.929,14.662C5.804,13.342 5.229,9.814 5.058,6.612Z" style="fill:rgb(204,214,221);fill-rule:nonzero;"/>
                </g>
                <g transform="matrix(0.896117,3.24196e-17,-3.24196e-17,0.896117,219.046,223.655)">
                    <path d="M2.419,9.965C4.802,9.804 7.883,9.116 10.031,8.866C10.035,9.026 10.051,9.778 10.082,10.866C8.02,11.113 5.075,11.804 2.747,11.964C2.555,10.883 2.443,10.125 2.419,9.965Z" style="fill:rgb(204,214,221);fill-rule:nonzero;"/>
                </g>
                <g transform="matrix(0.896117,3.24196e-17,-3.24196e-17,0.896117,219.046,223.655)">
                    <path d="M6.267,9.335C6.867,9.232 7.435,9.675 7.486,10.344C7.535,10.993 7.08,11.638 6.506,11.742C5.925,11.847 5.349,11.373 5.269,10.727C5.187,10.06 5.665,9.438 6.267,9.335Z" style="fill:rgb(178,192,201);"/>
                </g>
                <g transform="matrix(0.896117,3.24196e-17,-3.24196e-17,0.896117,219.046,223.655)">
                    <path d="M6.939,10.379L6.979,10.325L6.987,10.316L7.106,10.368C7.185,10.405 7.405,10.246 7.297,10.195C7.198,10.149 7.103,10.096 6.993,10.136C6.908,10.168 6.84,10.229 6.784,10.297L6.74,10.118L6.758,10.045C6.742,9.988 6.768,9.914 6.781,9.863C6.787,9.838 6.776,9.821 6.753,9.812L6.772,9.771L6.875,9.785C6.938,9.788 7.012,9.745 7.052,9.701C7.087,9.663 7.083,9.623 7.025,9.621L6.766,9.56C6.707,9.544 6.628,9.588 6.587,9.621C6.574,9.631 6.506,9.698 6.566,9.718L6.571,9.948C6.55,10.015 6.484,9.772 6.461,9.882C6.436,9.998 6.456,10.397 6.458,10.441L6.442,10.444C6.421,10.448 6.278,10.113 6.277,10.052C6.376,10.012 6.282,9.838 6.272,9.732L6.269,9.703L6.364,9.653C6.392,9.628 6.474,9.592 6.443,9.572C6.398,9.542 6.34,9.582 6.307,9.602L6.279,9.593L6.258,9.596C6.284,9.58 6.35,9.532 6.329,9.484L6.323,9.413C6.375,9.29 6.113,9.368 6.081,9.446C6.059,9.5 6.056,9.547 6.079,9.602C6.097,9.646 6.158,9.638 6.189,9.63L6.132,9.706L6.13,9.715L6.021,9.759L5.591,10.044C5.589,10.047 5.502,10.12 5.571,10.132L5.693,10.105L5.701,10.123C5.742,10.167 5.8,10.205 5.857,10.225C5.92,10.246 5.993,10.212 6.037,10.171C6.057,10.152 6.104,10.081 6.054,10.054L6.111,9.982L6.154,10.162L6.179,10.196L6.099,10.244C6.083,10.259 6.034,10.317 6.07,10.347L5.887,10.442C5.866,10.456 5.818,10.497 5.817,10.533L5.73,10.56C5.683,10.576 5.609,10.613 5.599,10.674L5.534,10.696C5.516,10.701 5.38,10.746 5.382,10.808C5.386,10.9 5.436,10.966 5.484,11.041C5.453,11.085 5.436,11.131 5.433,11.184C5.425,11.314 5.677,11.212 5.683,11.113L5.695,11.068C5.715,11.047 5.755,10.987 5.718,10.954L5.73,10.927C5.689,10.864 5.648,10.804 5.634,10.729L5.679,10.732C5.708,10.829 5.788,10.907 5.866,10.965L5.947,10.964L5.921,11.011L5.897,11.283C5.898,11.318 5.926,11.352 5.962,11.356C6.071,11.365 6.161,11.405 6.253,11.462C6.352,11.522 6.551,11.344 6.428,11.269C6.342,11.216 6.25,11.175 6.15,11.156L6.165,11.001L6.166,10.952L6.222,10.911C6.258,10.879 6.278,10.923 6.737,10.598C6.732,10.632 6.756,10.652 6.788,10.654C6.848,10.659 7,10.632 7.034,10.724C7.06,10.795 7.048,10.934 7.111,11.008C7.173,11.082 7.405,10.943 7.334,10.857L7.304,10.728L7.258,10.558C7.195,10.456 7.012,10.48 6.929,10.474L6.821,10.449L6.795,10.382L6.789,10.383L6.795,10.429C6.845,10.417 6.907,10.433 6.939,10.379Z" style="fill:rgb(153,170,181);fill-rule:nonzero;"/>
                </g>
            </g>
        </g>
    </g>
</svg>
