<?xml version="1.0" encoding="UTF-8" standalone="no"?>
<!DOCTYPE svg PUBLIC "-//W3C//DTD SVG 1.1//EN" "http://www.w3.org/Graphics/SVG/1.1/DTD/svg11.dtd">
<svg width="100%" height="100%" viewBox="0 0 512 512" version="1.1" xmlns="http://www.w3.org/2000/svg" xmlns:xlink="http://www.w3.org/1999/xlink" xml:space="preserve" xmlns:serif="http://www.serif.com/" style="fill-rule:evenodd;clip-rule:evenodd;stroke-linejoin:round;stroke-miterlimit:2;">
    <g transform="matrix(1.11593,-4.03717e-17,4.03717e-17,1.11593,-13.9687,-19.1113)">
        <g transform="matrix(11.1111,-2.35563e-31,0,11.1111,-2371.15,-2417.74)">
            <g>
                <g transform="matrix(0.896117,3.24196e-17,-3.24196e-17,0.896117,219.046,223.655)">
                    <path d="M36.472,27.17C36.268,29.3 34.172,31.438 32.069,31.737C22.764,33.062 21.617,31.929 16.923,30.475C12.024,28.957 9.406,30.043 4.002,30.751C1.734,31.048 0.032,29.153 0.333,26.993C0.731,24.136 1.48,20.893 1.447,17.745C1.416,14.7 0.699,12.641 0.255,9.01C-0.023,6.737 1.899,5.025 4,4.757C11.375,3.817 11.85,2.887 18.359,4.935C24.284,6.8 24.43,6.609 32,5.435C34.291,5.079 36.033,6.93 36.304,9.019C37.335,16.956 37.438,17.114 36.472,27.17Z" style="fill:rgb(0,56,147);fill-rule:nonzero;"/>
                </g>
                <g transform="matrix(0.896117,3.24196e-17,-3.24196e-17,0.896117,219.046,223.655)">
                    <path d="M34.615,6.081C27.899,11.55 26.461,14.198 18.741,17.045C8.802,20.71 10.191,23.267 0.91,29.417L0.983,29.514C9.194,25.264 9.462,22.056 18.299,20.256C26.616,18.563 27.134,16.66 36.58,11.023C36.405,9.764 36.404,9.786 36.304,9.019C36.269,8.751 36.061,7.148 34.615,6.081Z" style="fill:rgb(244,144,12);fill-rule:nonzero;"/>
                </g>
                <g transform="matrix(0.896117,3.24196e-17,-3.24196e-17,0.896117,219.046,223.655)">
                    <path d="M1.072,29.63C7.34,27.319 10.635,23.704 16.824,23.37C19.941,23.201 22.219,23.403 25.247,22.222C29.413,20.597 33.594,18.355 37.095,17.01C37.003,13.713 36.591,11.1 36.58,11.023C26.406,17.095 26.941,18.489 17.667,20.384C10.091,21.932 8.462,25.643 0.983,29.514L1.072,29.63Z" style="fill:rgb(238,238,238);fill-rule:nonzero;"/>
                </g>
                <g transform="matrix(0.896117,3.24196e-17,-3.24196e-17,0.896117,219.046,223.655)">
                    <path d="M9,5.906C9.13,7.794 9.402,10.614 9.442,11.024C9.51,10.84 9.857,9.907 10.347,8.746C10.316,8.937 10.152,9.946 9.984,11.141C10.715,10.181 11.395,9.407 11.524,9.261C10.944,10.381 10.534,11.27 10.453,11.446C11.459,10.74 12.306,10.272 12.473,10.179C11.6,11.006 10.927,11.762 10.799,11.905C10.979,11.852 12.079,11.528 13.085,11.387C12.09,11.81 11.149,12.373 10.986,12.47C12.777,12.431 14.136,12.591 16.083,13.233C14.187,12.833 12.83,12.804 11.003,13.086C11.172,13.158 12.322,13.645 13.085,14.043C12.195,13.832 11.026,13.708 10.845,13.688C10.978,13.81 11.613,14.395 12.481,15.231C12.327,15.146 11.541,14.714 10.535,14.221C10.621,14.38 10.925,14.944 11.591,16.22C10.759,15.32 10.229,14.765 10.109,14.64C10.144,14.823 10.307,15.668 10.519,16.934C9.99,15.724 9.686,15.067 9.611,14.906C9.602,15.32 9.554,17.372 9.312,20.076C9.306,19.669 9.275,17.231 9.089,14.995C8.638,16.315 8.336,17.128 8.268,17.313C8.298,17.12 8.454,16.125 8.593,14.897C8.488,15.058 7.554,16.499 7.28,16.911C7.354,16.729 7.688,15.907 8.161,14.613C7.304,15.375 7.322,15.375 6.472,16.126C6.867,15.572 7.72,14.327 7.828,14.17C6.854,14.592 6.871,14.598 5.886,15.012C6.026,14.901 6.022,14.899 7.621,13.605C7.601,13.607 4.909,13.973 3.042,13.972C4.766,13.737 7.472,12.999 7.562,12.976C7.402,12.921 7.417,12.928 5.555,12.301C6.615,12.344 6.6,12.335 7.675,12.367C7.539,12.257 6.924,11.756 5.957,11.012C6.117,11.076 7.295,11.545 7.952,11.818C7.857,11.664 7.413,10.947 6.737,9.909C7.631,10.695 8.239,11.263 8.367,11.383C8.183,10.624 7.998,9.864 7.813,9.105C8.406,10.193 8.798,10.947 8.882,11.108C8.882,10.692 8.886,8.251 9,5.906Z" style="fill:white;fill-rule:nonzero;"/>
                </g>
            </g>
        </g>
    </g>
</svg>
