<?xml version="1.0" encoding="UTF-8" standalone="no"?>
<!DOCTYPE svg PUBLIC "-//W3C//DTD SVG 1.1//EN" "http://www.w3.org/Graphics/SVG/1.1/DTD/svg11.dtd">
<svg width="100%" height="100%" viewBox="0 0 512 512" version="1.1" xmlns="http://www.w3.org/2000/svg" xmlns:xlink="http://www.w3.org/1999/xlink" xml:space="preserve" xmlns:serif="http://www.serif.com/" style="fill-rule:evenodd;clip-rule:evenodd;stroke-linejoin:round;stroke-miterlimit:2;">
    <g transform="matrix(1.11593,-4.03717e-17,4.03717e-17,1.11593,-13.9687,-19.1113)">
        <g transform="matrix(11.1111,-2.35563e-31,0,11.1111,-2371.15,-2417.74)">
            <g>
                <g transform="matrix(0.896117,3.24196e-17,-3.24196e-17,0.896117,219.046,223.655)">
                    <path d="M36.472,27.17C36.268,29.3 34.172,31.438 32.069,31.737C22.764,33.062 21.617,31.929 16.923,30.475C12.024,28.957 9.406,30.043 4.002,30.751C1.734,31.048 0.032,29.153 0.333,26.993C0.731,24.136 1.48,20.893 1.447,17.745C1.416,14.7 0.699,12.641 0.255,9.01C-0.023,6.737 1.899,5.025 4,4.757C11.375,3.817 11.85,2.887 18.359,4.935C24.284,6.8 24.43,6.609 32,5.435C34.291,5.079 36.033,6.93 36.304,9.019C37.335,16.956 37.438,17.114 36.472,27.17Z" style="fill:rgb(33,66,142);fill-rule:nonzero;"/>
                </g>
                <g transform="matrix(0.896117,3.24196e-17,-3.24196e-17,0.896117,219.046,223.655)">
                    <path d="M16,4.231C16.981,4.486 19.871,5.416 20,5.455C20,14.126 20,22.797 20,31.467C19.871,31.427 16.981,30.472 16,30.211C16,21.551 16,12.891 16,4.231Z" style="fill:rgb(238,238,238);fill-rule:nonzero;"/>
                </g>
                <g transform="matrix(0.896117,3.24196e-17,-3.24196e-17,0.896117,219.046,223.655)">
                    <path d="M1.368,16.107C9.557,16.196 9.731,13.146 18.36,15.934C21.908,17.08 23.167,17.585 27.122,17.208C29.676,16.964 34.203,16.102 37.058,16.01C37.156,18.106 37.098,19.693 37.086,20.013C31.493,20.193 26.246,22.233 21.24,20.83C17.701,19.839 15.255,18.574 11.913,18.721C8.125,18.888 6.246,20.068 1.356,20.045C1.532,17.991 1.396,16.421 1.368,16.107Z" style="fill:rgb(238,238,238);fill-rule:nonzero;"/>
                </g>
                <g transform="matrix(0.896117,3.24196e-17,-3.24196e-17,0.896117,219.046,223.655)">
                    <path d="M11.463,11.99C11.083,11.32 8.098,11.431 7.025,12.287C7.826,11.25 10.924,11.288 10.997,9.897C11.062,8.625 8.513,8.988 7.977,8.932C7.872,8.922 7.506,8.899 7.605,8.701C7.666,8.576 8.425,8.117 8.5,8.072C8.971,7.786 9.888,7.36 9.706,6.343C9.517,5.284 7.33,5.734 7.096,5.759C6.258,5.85 5.397,6.334 5.622,6.734C5.035,7.083 4.324,7.131 3.918,6.983C3.923,7.095 4.303,7.19 4.191,7.179L3.758,7.342C4.283,7.525 5.341,7.244 5.778,6.941C5.927,7.097 7.135,6.829 7.251,6.803C7.74,6.694 8.509,6.367 8.741,6.548C8.863,6.643 8.896,6.749 8.796,6.876C8.738,6.95 8.727,6.938 7.115,7.835C5.998,8.456 6.562,9.447 7.194,9.677C7.435,9.765 7.441,9.731 9.44,9.8C9.782,9.811 9.94,9.919 9.976,9.927C9.953,9.94 9.768,10.146 9.165,10.278C8.936,10.329 7.223,10.711 6.435,11.357C5.506,12.117 5.766,12.905 5.71,13.012C5.645,13.135 4.745,13.256 4.007,13.112C4.374,13.809 5.765,13.641 5.923,13.622C6.35,13.571 6.672,14.599 9.121,14.131C9.37,14.083 12.327,13.517 11.463,11.99ZM6.797,6.301C6.708,6.409 6.605,6.361 6.686,6.24C6.774,6.109 6.891,6.185 6.797,6.301ZM7.194,12.972C7.425,12.569 10.729,11.945 10.547,12.498C10.345,13.113 6.956,13.39 7.194,12.972ZM32.879,13.657C32.409,13.04 28.703,13.378 27.486,14.084C28.513,13.133 32.227,13.095 32.202,11.609C32.182,10.382 29.463,10.83 28.79,10.762C28.702,10.753 28.266,10.733 28.385,10.526C28.441,10.429 29.284,9.947 29.365,9.9C29.854,9.621 30.833,9.17 30.6,8.134C30.378,7.144 28.332,7.544 27.916,7.578C27.071,7.645 26.183,8.062 26.391,8.475C25.786,8.776 25.07,8.756 24.666,8.553C24.663,8.668 25.037,8.804 24.925,8.78L24.479,8.885C24.994,9.14 26.068,8.968 26.538,8.691C26.704,8.88 27.937,8.646 28.056,8.623C28.573,8.526 29.362,8.198 29.604,8.373C29.731,8.464 29.77,8.569 29.667,8.699C29.557,8.838 28.031,9.579 27.886,9.65C26.652,10.249 27.228,11.249 27.892,11.489C28.596,11.744 28.597,11.614 30.437,11.607C30.925,11.606 30.904,11.692 31.051,11.719C31.046,11.722 30.851,11.94 30.128,12.096C29.863,12.154 27.731,12.619 26.895,13.123C25.715,13.836 25.938,14.581 25.837,14.704C25.743,14.818 24.724,14.859 23.937,14.569C24.214,15.354 25.816,15.323 25.991,15.319C26.449,15.311 26.999,16.401 29.988,15.926C33.153,15.422 33.303,14.213 32.879,13.657ZM27.6,8.108C27.499,8.221 27.403,8.162 27.489,8.043C27.582,7.915 27.7,7.995 27.6,8.108ZM27.617,14.775C27.875,14.468 32.007,13.722 31.816,14.244C31.559,14.944 27.236,15.228 27.617,14.775ZM11.431,26.531C11.048,25.864 7.982,25.959 6.692,26.822C7.748,25.755 10.887,25.85 10.997,24.436C11.095,23.171 8.607,23.52 8.135,23.466C8.007,23.451 7.711,23.418 7.817,23.234C7.884,23.119 8.628,22.654 8.702,22.608C9.16,22.321 10.014,21.904 9.898,20.884C9.776,19.824 7.815,20.292 7.686,20.309C6.996,20.4 6.207,20.878 6.347,21.277C5.795,21.629 5.172,21.67 4.852,21.527C4.839,21.619 5.148,21.73 5.055,21.72L4.648,21.88C5.068,22.059 6.025,21.791 6.45,21.481C6.557,21.636 7.623,21.368 7.722,21.343C8.145,21.236 8.842,20.908 9.033,21.088C9.15,21.199 9.201,21.374 7.485,22.37C6.422,22.988 6.731,23.974 7.299,24.207C7.525,24.3 7.514,24.263 9.456,24.333C9.792,24.346 9.941,24.453 9.978,24.462C9.962,24.473 9.812,24.67 9.147,24.812C8.906,24.866 7.169,25.251 6.262,25.887C5.152,26.666 5.236,27.439 5.151,27.547C5.049,27.676 4.047,27.789 3.342,27.645C3.513,28.339 5.084,28.168 5.241,28.151C5.696,28.102 5.948,29.091 8.774,28.644C9.042,28.602 12.322,28.085 11.431,26.531ZM7.387,20.846C7.309,20.943 7.23,20.89 7.3,20.786C7.377,20.669 7.468,20.743 7.387,20.846ZM6.754,27.51C7.062,27.118 10.667,26.48 10.452,27.038C10.215,27.65 6.425,27.927 6.754,27.51ZM32.576,28.432C32.227,27.815 28.619,28.04 27.442,28.694C28.449,27.788 32.026,27.871 32.216,26.343C32.373,25.079 29.574,25.468 28.886,25.381C28.794,25.369 28.352,25.336 28.485,25.128C28.548,25.03 29.456,24.547 29.543,24.501C29.898,24.313 31.181,23.772 31.019,22.674C30.873,21.683 28.531,22.089 28.121,22.119C27.213,22.185 26.242,22.594 26.46,23.016C25.814,23.317 25.077,23.297 24.667,23.094C24.665,23.144 24.688,23.188 24.725,23.221C24.782,23.272 25.005,23.337 24.93,23.321L24.479,23.426C24.999,23.683 26.116,23.505 26.612,23.232C26.782,23.418 28.107,23.186 28.235,23.164C28.79,23.066 29.672,22.738 29.921,22.912C30.057,23.008 30.079,23.114 29.962,23.239C29.827,23.383 28.166,24.141 28.007,24.213C26.688,24.816 27.282,25.84 27.934,26.098C28.651,26.381 28.658,26.246 30.478,26.293C30.878,26.303 31.013,26.402 31.074,26.415C31.068,26.418 30.87,26.643 30.126,26.782C29.861,26.832 27.708,27.24 26.886,27.712C25.711,28.388 25.927,29.143 25.827,29.263C25.731,29.379 24.665,29.379 23.937,29.11C24.247,29.989 25.95,29.881 25.974,29.881C26.388,29.884 27.011,30.99 29.71,30.641C32.433,30.29 32.939,29.073 32.576,28.432ZM27.763,22.65C27.66,22.754 27.542,22.711 27.645,22.585C27.745,22.461 27.877,22.534 27.763,22.65ZM27.552,29.389C27.796,29.102 31.747,28.491 31.521,29.006C31.202,29.727 27.183,29.822 27.552,29.389Z" style="fill:white;fill-rule:nonzero;"/>
                </g>
            </g>
        </g>
    </g>
</svg>
