<?xml version="1.0" encoding="UTF-8" standalone="no"?>
<!DOCTYPE svg PUBLIC "-//W3C//DTD SVG 1.1//EN" "http://www.w3.org/Graphics/SVG/1.1/DTD/svg11.dtd">
<svg width="100%" height="100%" viewBox="0 0 512 512" version="1.1" xmlns="http://www.w3.org/2000/svg" xmlns:xlink="http://www.w3.org/1999/xlink" xml:space="preserve" xmlns:serif="http://www.serif.com/" style="fill-rule:evenodd;clip-rule:evenodd;stroke-linejoin:round;stroke-miterlimit:2;">
    <g transform="matrix(1.11593,-4.03717e-17,4.03717e-17,1.11593,-13.9687,-19.1113)">
        <g transform="matrix(11.1111,-2.35563e-31,0,11.1111,-2371.15,-2417.74)">
            <g>
                <g transform="matrix(0.896117,3.24196e-17,-3.24196e-17,0.896117,219.046,223.655)">
                    <path d="M32,5.435C24.446,6.606 24.298,6.804 18.359,4.935C11.85,2.887 11.375,3.817 4,4.757C1.899,5.025 -0.023,6.737 0.255,9.01C0.279,9.211 0.394,10.152 0.625,11.513C6.449,11.521 9.926,9.748 14.04,10.304C16.931,10.695 20.485,12.416 23.399,12.766C26.864,13.182 32.65,11.651 36.649,11.522C36.478,10.266 36.468,10.285 36.304,9.019C36.033,6.93 34.291,5.079 32,5.435Z" style="fill:rgb(234,40,57);fill-rule:nonzero;"/>
                </g>
                <g transform="matrix(0.896117,3.24196e-17,-3.24196e-17,0.896117,219.046,223.655)">
                    <path d="M0.625,11.513C6.449,11.521 9.926,9.748 14.04,10.304C16.931,10.695 20.485,12.416 23.399,12.766C26.864,13.182 32.65,11.651 36.649,11.522C36.719,12.038 37.087,14.751 37.114,18.012C33.595,18.125 28.204,19.323 24.844,19.343C20.671,19.368 17.189,16.931 12.96,16.709C9.587,16.532 6.358,18.148 1.448,18.098C1.465,15.42 0.933,13.323 0.625,11.513Z" style="fill:rgb(26,32,109);fill-rule:nonzero;"/>
                </g>
                <g transform="matrix(0.896117,3.24196e-17,-3.24196e-17,0.896117,219.046,223.655)">
                    <path d="M1.448,18.098C8.275,18.167 10.205,15.414 16.92,17.474C21.309,18.821 22.476,19.649 27.134,19.208C29.699,18.965 34.245,18.104 37.114,18.012C37.137,20.846 36.869,22.953 36.707,24.674C27.416,25.157 27.224,27.298 18.36,24.434C9.851,21.685 9.667,24.484 0.724,24.492C0.89,23.494 1.433,20.55 1.448,18.098Z" style="fill:rgb(255,213,0);fill-rule:nonzero;"/>
                </g>
                <g transform="matrix(0.896117,3.24196e-17,-3.24196e-17,0.896117,219.046,223.655)">
                    <path d="M0.724,24.492C0.691,24.692 0.461,26.074 0.333,26.993C0.032,29.153 1.734,31.048 4.002,30.751C11.37,29.786 11.847,28.83 18.359,30.934C21.72,32.02 23.307,32.985 32.069,31.737C34.172,31.438 36.268,29.3 36.472,27.17C36.55,26.338 36.629,25.506 36.707,24.674C27.416,25.157 27.224,27.298 18.36,24.434C9.851,21.685 9.667,24.484 0.724,24.492Z" style="fill:rgb(0,165,81);fill-rule:nonzero;"/>
                </g>
            </g>
        </g>
    </g>
</svg>
