<?xml version="1.0" encoding="UTF-8" standalone="no"?>
<!DOCTYPE svg PUBLIC "-//W3C//DTD SVG 1.1//EN" "http://www.w3.org/Graphics/SVG/1.1/DTD/svg11.dtd">
<svg width="100%" height="100%" viewBox="0 0 512 512" version="1.1" xmlns="http://www.w3.org/2000/svg" xmlns:xlink="http://www.w3.org/1999/xlink" xml:space="preserve" xmlns:serif="http://www.serif.com/" style="fill-rule:evenodd;clip-rule:evenodd;stroke-linejoin:round;stroke-miterlimit:2;">
    <g transform="matrix(1.11593,-4.03717e-17,4.03717e-17,1.11593,-13.9687,-19.1113)">
        <g transform="matrix(11.1111,-2.35563e-31,0,11.1111,-2371.15,-2417.74)">
            <g>
                <g transform="matrix(0.896117,3.24196e-17,-3.24196e-17,0.896117,219.046,223.655)">
                    <path d="M32,5.435C24.446,6.606 24.298,6.804 18.359,4.935C11.85,2.887 11.375,3.817 4,4.757C1.899,5.025 -0.023,6.737 0.255,9.01C0.697,12.631 1.416,14.687 1.447,17.745C1.48,20.89 0.734,24.117 0.333,26.993C0.032,29.153 1.734,31.048 4.002,30.751C11.37,29.786 11.847,28.83 18.359,30.934C21.72,32.02 23.307,32.985 32.069,31.737C34.172,31.438 36.268,29.3 36.472,27.17C37.437,17.129 37.336,16.966 36.304,9.019C36.033,6.93 34.291,5.079 32,5.435Z" style="fill:rgb(206,37,64);fill-rule:nonzero;"/>
                </g>
                <g transform="matrix(0.896117,3.24196e-17,-3.24196e-17,0.896117,219.046,223.655)">
                    <path d="M0.255,9.01C0.697,12.631 1.416,14.687 1.447,17.745C1.48,20.89 0.734,24.117 0.333,26.993C9.45,26.985 9.638,24.116 18.36,26.934C26.288,29.496 26.467,28.117 36.472,27.17C37.437,17.129 37.336,16.966 36.304,9.019C28.743,9.267 27.318,11.824 19.08,9.171C15.923,8.155 14.293,7.44 10.443,7.819C6.802,8.179 4.735,9.015 0.255,9.01Z" style="fill:rgb(15,100,51);fill-rule:nonzero;"/>
                </g>
                <g transform="matrix(0.896117,3.24196e-17,-3.24196e-17,0.896117,219.046,223.655)">
                    <path d="M14.936,11.622C15.092,11.767 15.774,12.402 16.83,13.486C16.589,14.157 16.349,14.828 16.108,15.5L16.106,15.504L16.113,15.501C16.262,15.433 16.868,15.158 18,14.705C18.36,15.084 18.718,15.464 19.078,15.843C19.347,16.127 19.616,16.41 19.887,16.692L19.893,16.699L19.892,16.694C19.651,15.876 19.41,15.058 19.17,14.24C20.318,13.782 20.914,13.514 21.064,13.447C20.255,13.223 18.909,12.779 18.723,12.718C18.482,11.896 18.241,11.075 18,10.253C17.759,10.918 17.518,11.583 17.277,12.248C15.926,11.825 15.126,11.661 14.936,11.622Z" style="fill:rgb(255,197,20);fill-rule:nonzero;"/>
                </g>
                <g transform="matrix(0.896117,3.24196e-17,-3.24196e-17,0.896117,219.046,223.655)">
                    <path d="M26.137,14.93C26.131,18.014 23.87,23.44 18,21.524C10.287,19.006 10.079,13.477 10.042,12.516C9.835,13.539 9.862,14.572 9.867,14.751C9.921,16.783 10.534,18.899 12.078,20.462C13.102,21.499 15.696,23.273 18.001,24.025C24.298,26.081 26.492,19.913 26.47,17.079C26.46,16.046 26.186,15.097 26.137,14.93Z" style="fill:rgb(255,197,20);fill-rule:nonzero;"/>
                </g>
            </g>
        </g>
    </g>
</svg>
