<?xml version="1.0" encoding="UTF-8" standalone="no"?>
<!DOCTYPE svg PUBLIC "-//W3C//DTD SVG 1.1//EN" "http://www.w3.org/Graphics/SVG/1.1/DTD/svg11.dtd">
<svg width="100%" height="100%" viewBox="0 0 512 512" version="1.1" xmlns="http://www.w3.org/2000/svg" xmlns:xlink="http://www.w3.org/1999/xlink" xml:space="preserve" xmlns:serif="http://www.serif.com/" style="fill-rule:evenodd;clip-rule:evenodd;stroke-linejoin:round;stroke-miterlimit:2;">
    <g transform="matrix(1.11593,-4.03717e-17,4.03717e-17,1.11593,-13.9687,-19.1113)">
        <g transform="matrix(11.1111,-1.36955e-31,4.93038e-32,11.1111,-2411.79,-2528.08)">
            <g>
                <g transform="matrix(0.896117,3.24196e-17,-3.24196e-17,0.896117,222.704,233.585)">
                    <path d="M36.469,27.17C36.262,29.289 34.174,31.437 32.068,31.737C22.767,33.063 21.617,31.929 16.923,30.475C12.025,28.957 9.41,30.043 4.002,30.751C1.724,31.049 0.033,29.147 0.333,26.993C0.76,23.929 1.552,20.621 1.436,17.229C1.343,14.486 0.678,12.475 0.255,9.01C-0.023,6.74 1.891,5.026 4,4.757C11.375,3.817 11.85,2.887 18.359,4.935C24.284,6.8 24.43,6.609 32,5.435C34.301,5.078 36.029,6.947 36.301,9.019C37.368,17.137 37.447,17.156 36.469,27.17Z" style="fill:rgb(238,238,238);fill-rule:nonzero;"/>
                </g>
                <g transform="matrix(0.896117,3.24196e-17,-3.24196e-17,0.896117,222.704,233.585)">
                    <path d="M8.892,7.173L9.444,7.098C9.525,7.288 9.862,8.082 10.48,9.451C10.787,8.064 11.029,7.129 11.081,6.928L11.634,6.893C11.65,7.125 11.712,8.05 11.881,9.788L11.513,9.809C11.416,8.832 11.366,8.243 11.354,8.106L11.334,7.812L11.303,7.37C11.253,7.57 11.022,8.48 10.711,9.876L10.333,9.915C9.694,8.521 9.365,7.766 9.283,7.578L9.291,7.667L9.325,7.991L9.36,8.31C9.373,8.447 9.431,9.066 9.537,10.013L9.176,10.063C8.985,8.401 8.909,7.404 8.892,7.173ZM13.466,6.889L13.904,6.93C14.004,7.175 14.397,8.131 15.198,9.981L14.769,9.906L14.387,9C13.801,8.92 13.349,8.906 13.259,8.903L13.027,9.761L12.627,9.763C13.165,7.854 13.394,7.118 13.466,6.889ZM14.248,8.666L13.699,7.336L13.345,8.588L14.248,8.666ZM14.781,7.06L15.235,7.15C15.678,7.902 16.101,8.61 16.177,8.737L16.891,7.576L17.35,7.714C17.273,7.826 16.9,8.366 16.405,9.125L16.518,10.284L16.125,10.184L16.013,9.024C15.602,8.369 15.192,7.715 14.781,7.06ZM20.092,8.99C20.143,9.065 20.412,9.462 20.473,10.055C20.481,10.134 20.539,10.702 20.257,11.025C19.923,11.406 19.287,11.203 19.206,11.177C18.533,10.963 18.171,10.49 18.105,10.404C17.719,9.873 17.667,9.329 17.658,9.229C17.651,9.154 17.602,8.643 17.859,8.318C18.188,7.902 18.838,8.113 18.92,8.14C19.681,8.387 20.027,8.895 20.092,8.99ZM19.929,10.716C20.12,10.419 20.078,10.002 20.071,9.94C20.02,9.434 19.772,9.101 19.726,9.039C19.43,8.644 19.041,8.518 18.97,8.495C18.916,8.477 18.522,8.349 18.265,8.566C18.007,8.783 18.058,9.315 18.065,9.382C18.072,9.457 18.111,9.859 18.389,10.266C18.434,10.333 18.666,10.672 19.214,10.847C19.27,10.864 19.736,11.012 19.929,10.716ZM22.901,9.298L22.932,9.639L21.962,9.442C22.044,10.327 22.209,11.766 22.232,11.968L21.835,11.873C21.812,11.671 21.649,10.235 21.567,9.345L20.596,9.077L20.566,8.734C21.888,9.125 22.711,9.265 22.901,9.298ZM25.503,9.452L25.535,9.793L24.568,9.803C24.65,10.657 24.824,12.122 24.848,12.323L24.455,12.308C24.431,12.106 24.258,10.645 24.175,9.787L23.208,9.683L23.176,9.342C23.361,9.369 24.229,9.499 25.503,9.452ZM26.139,9.419C26.307,9.408 27.082,9.357 28.229,9.202L28.264,9.553C27.336,9.678 26.69,9.731 26.553,9.742L26.644,10.61C26.772,10.6 27.376,10.551 28.229,10.439L28.268,10.77C27.414,10.882 26.809,10.931 26.682,10.941L26.797,11.912C26.937,11.901 27.596,11.848 28.546,11.721L28.588,12.062C27.415,12.219 26.627,12.27 26.456,12.281C26.429,12.052 26.225,10.355 26.139,9.419Z" style="fill:rgb(212,46,17);fill-rule:nonzero;"/>
                </g>
                <g transform="matrix(0.896117,3.24196e-17,-3.24196e-17,0.896117,222.704,233.585)">
                    <path d="M18.409,24.722C18.343,24.701 18.288,24.629 18.296,24.557L18.296,24.556C18.319,24.34 18.249,23.629 17.501,23.405C16.354,23.061 15.633,22.912 15.469,22.878C15.244,22.831 13.653,22.503 13.839,20.516C14.161,17.079 13.836,13.358 13.723,12.073C13.717,12.004 13.771,11.955 13.838,11.959C16.837,12.152 20.484,13.862 23.401,14.369C23.47,14.381 23.533,14.446 23.54,14.516C23.873,17.819 23.852,20.74 23.658,22.976C23.556,24.138 22.733,24.989 21.576,24.672C21.412,24.627 20.807,24.461 19.539,24.052C18.76,23.8 18.569,24.462 18.55,24.638L18.55,24.639C18.542,24.709 18.473,24.742 18.409,24.722Z" style="fill:rgb(35,31,32);fill-rule:nonzero;"/>
                </g>
                <g transform="matrix(0.896117,3.24196e-17,-3.24196e-17,0.896117,222.704,233.585)">
                    <path d="M13.985,12.21C14.09,13.435 14.409,17.114 14.09,20.532C14.071,20.734 13.924,22.304 15.496,22.628C15.661,22.662 16.381,22.811 17.529,23.155C18.256,23.374 18.449,23.963 18.482,24.063C18.836,23.566 19.483,23.775 19.568,23.802C20.836,24.211 21.441,24.377 21.605,24.422C22.551,24.681 23.309,24.034 23.405,22.932C23.632,20.333 23.575,17.389 23.3,14.597C20.457,14.075 16.908,12.436 13.985,12.21Z" style="fill:rgb(238,238,238);fill-rule:nonzero;"/>
                </g>
                <g transform="matrix(0.896117,3.24196e-17,-3.24196e-17,0.896117,222.704,233.585)">
                    <path d="M21.404,17.152C21.425,17.668 20.98,18 20.414,17.821C19.859,17.645 19.384,17.038 19.363,16.512C19.342,15.998 19.766,15.68 20.336,15.86C20.893,16.038 21.383,16.629 21.404,17.152Z" style="fill:rgb(34,102,153);fill-rule:nonzero;"/>
                </g>
                <g transform="matrix(0.896117,3.24196e-17,-3.24196e-17,0.896117,222.704,233.585)">
                    <path d="M21.441,18.66C21.445,19.176 20.985,19.506 20.419,19.327C19.864,19.152 19.406,18.546 19.401,18.021C19.396,17.506 19.834,17.188 20.403,17.368C20.96,17.545 21.437,18.137 21.441,18.66Z" style="fill:rgb(34,102,153);fill-rule:nonzero;"/>
                </g>
                <g transform="matrix(0.896117,3.24196e-17,-3.24196e-17,0.896117,222.704,233.585)">
                    <path d="M19.874,16.677C19.895,17.191 19.453,17.511 18.884,17.329C18.328,17.152 17.854,16.556 17.833,16.031C17.812,15.515 18.237,15.187 18.805,15.369C19.361,15.547 19.853,16.153 19.874,16.677Z" style="fill:rgb(34,102,153);fill-rule:nonzero;"/>
                </g>
                <g transform="matrix(0.896117,3.24196e-17,-3.24196e-17,0.896117,222.704,233.585)">
                    <path d="M19.912,18.186C19.917,18.7 19.458,19.018 18.89,18.836C18.334,18.659 17.877,18.064 17.872,17.54C17.867,17.023 18.306,16.696 18.873,16.877C19.429,17.055 19.907,17.662 19.912,18.186Z" style="fill:rgb(34,102,153);fill-rule:nonzero;"/>
                </g>
                <g transform="matrix(0.896117,3.24196e-17,-3.24196e-17,0.896117,222.704,233.585)">
                    <path d="M18.344,16.187C18.365,16.702 17.923,17.025 17.355,16.864C16.8,16.707 16.329,16.142 16.307,15.617C16.285,15.096 16.714,14.744 17.275,14.903C17.828,15.06 18.322,15.662 18.344,16.187Z" style="fill:rgb(34,102,153);fill-rule:nonzero;"/>
                </g>
                <g transform="matrix(0.896117,3.24196e-17,-3.24196e-17,0.896117,222.704,233.585)">
                    <path d="M18.382,17.696C18.387,18.211 17.929,18.532 17.362,18.371C16.807,18.215 16.352,17.651 16.347,17.127C16.341,16.606 16.783,16.253 17.344,16.411C17.897,16.569 18.377,17.171 18.382,17.696Z" style="fill:rgb(34,102,153);fill-rule:nonzero;"/>
                </g>
                <g transform="matrix(0.896117,3.24196e-17,-3.24196e-17,0.896117,222.704,233.585)">
                    <path d="M22.929,17.549C22.926,17.474 22.912,17.103 22.502,16.705C22.554,16.676 22.879,16.5 22.847,16.044C22.811,15.522 22.311,14.966 21.756,14.814C21.313,14.693 21.079,14.887 21.034,14.924C20.986,14.858 20.692,14.456 20.223,14.308C19.769,14.164 19.53,14.376 19.485,14.416C19.145,13.96 18.768,13.84 18.693,13.816C18.24,13.671 18.001,13.892 17.957,13.932C17.614,13.477 17.24,13.371 17.164,13.349C16.713,13.222 16.472,13.46 16.43,13.502C16.087,13.063 15.715,12.987 15.64,12.971C15.09,12.858 14.668,13.258 14.705,13.8C14.71,13.872 14.735,14.24 15.111,14.606C15.061,14.642 14.769,14.857 14.789,15.308C14.792,15.38 14.807,15.749 15.174,16.116C15.124,16.152 14.825,16.367 14.83,16.818C14.837,17.372 15.301,18.135 15.836,18.245C17.62,18.612 20.407,19.613 21.942,20.033C22.487,20.182 22.968,19.717 22.966,19.182C22.964,18.673 22.619,18.331 22.563,18.275C22.95,18.068 22.932,17.614 22.929,17.549Z" style="fill:rgb(23,23,150);fill-rule:nonzero;"/>
                </g>
                <g transform="matrix(0.896117,3.24196e-17,-3.24196e-17,0.896117,222.704,233.585)">
                    <path d="M22.961,20.06C22.962,20.013 22.966,19.777 22.804,19.497C20.557,18.976 17.37,17.686 14.994,17.343C14.968,17.377 14.833,17.563 14.829,17.848C14.828,17.918 14.823,18.299 15.184,18.653C15.129,18.687 14.805,18.887 14.78,19.347C14.777,19.416 14.756,19.795 15.104,20.146C15.048,20.179 14.712,20.377 14.666,20.832C14.614,21.347 15.017,21.856 15.57,21.97C16.027,22.064 16.317,21.848 16.369,21.809C16.408,21.87 16.636,22.218 17.094,22.348C17.551,22.478 17.842,22.276 17.896,22.239C17.935,22.302 18.165,22.668 18.623,22.814C19.079,22.961 19.372,22.762 19.426,22.726C19.465,22.789 19.696,23.162 20.153,23.307C20.608,23.451 20.902,23.245 20.955,23.208C20.994,23.27 21.227,23.639 21.681,23.763C22.243,23.917 22.753,23.557 22.8,23.05C22.807,22.979 22.842,22.606 22.489,22.219C22.544,22.191 22.886,22.017 22.91,21.56C22.914,21.488 22.934,21.112 22.568,20.724C22.623,20.695 22.954,20.52 22.961,20.06Z" style="fill:rgb(212,46,17);fill-rule:nonzero;"/>
                </g>
                <g transform="matrix(0.896117,3.24196e-17,-3.24196e-17,0.896117,222.704,233.585)">
                    <path d="M18.871,16.826C17.968,16.538 17.114,15.659 16.835,14.732C16.8,14.894 16.783,15.05 16.791,15.216C16.847,16.304 17.801,17.484 18.892,17.832C20.02,18.192 20.926,17.573 20.871,16.472C20.869,16.429 20.859,16.242 20.771,15.947C20.609,16.679 19.86,17.142 18.871,16.826Z" style="fill:rgb(238,238,238);fill-rule:nonzero;"/>
                </g>
                <g transform="matrix(0.896117,3.24196e-17,-3.24196e-17,0.896117,222.704,233.585)">
                    <path d="M17.682,20.106L17.398,19.895L17.696,19.853C18.081,19.753 18.172,19.571 18.143,19.51C18.116,19.452 17.884,19.346 17.508,19.449L17.244,19.559L17.29,19.258C17.305,18.836 17.16,18.616 17.103,18.601C16.905,18.546 16.885,19.1 16.883,19.147L16.904,19.467L16.655,19.217C16.293,18.912 16.063,18.896 16.031,18.941C15.928,19.087 16.394,19.476 16.437,19.511L16.72,19.71L16.424,19.764C16.066,19.876 15.936,20.068 15.968,20.136C16.054,20.325 16.556,20.173 16.605,20.159L16.874,20.043L16.82,20.343C16.816,20.396 16.778,20.938 16.976,20.992C17.039,21.01 17.198,20.863 17.227,20.453L17.213,20.136L17.459,20.392C17.501,20.429 17.969,20.843 18.081,20.706C18.118,20.659 18.029,20.413 17.682,20.106ZM21.248,21.226L20.965,21.012L21.261,20.973C21.626,20.878 21.741,20.692 21.709,20.624C21.614,20.426 21.123,20.553 21.073,20.566L20.809,20.671L20.855,20.371C20.87,19.955 20.727,19.725 20.669,19.707C20.47,19.645 20.449,20.198 20.448,20.244L20.469,20.566L20.219,20.3C19.846,19.963 19.622,19.931 19.592,19.97C19.558,20.014 19.642,20.255 19.999,20.58L20.284,20.8L19.986,20.833C19.607,20.923 19.5,21.102 19.528,21.166C19.554,21.224 19.785,21.334 20.169,21.243L20.438,21.142L20.385,21.44C20.381,21.494 20.343,22.038 20.542,22.1C20.604,22.12 20.763,21.981 20.792,21.567L20.778,21.249L21.023,21.51C21.388,21.837 21.614,21.861 21.646,21.82C21.679,21.778 21.615,21.551 21.248,21.226Z" style="fill:rgb(255,172,51);fill-rule:nonzero;"/>
                </g>
                <g transform="matrix(0.896117,3.24196e-17,-3.24196e-17,0.896117,222.704,233.585)">
                    <path d="M9.254,27.619C9.499,27.457 11.528,26.117 12.497,25.887C13.55,25.634 14.075,25.889 13.777,26.268C13.483,26.638 13.709,27.416 13.228,27.331C12.648,27.228 11.102,28.007 10.928,28.095C10.433,28.343 9.858,28.703 9.768,28.76L9.254,27.619Z" style="fill:rgb(204,214,221);fill-rule:nonzero;"/>
                </g>
                <g transform="matrix(0.896117,3.24196e-17,-3.24196e-17,0.896117,222.704,233.585)">
                    <path d="M14.107,26.641L13.845,25.944C13.748,26.13 13.472,26.233 13.433,26.247C13.053,26.389 12.919,26.625 12.952,26.703C13.018,26.864 14.017,26.659 14.107,26.641Z" style="fill:rgb(102,117,127);fill-rule:nonzero;"/>
                </g>
                <g transform="matrix(0.896117,3.24196e-17,-3.24196e-17,0.896117,222.704,233.585)">
                    <path d="M27.303,29.908C24.616,28.623 24.479,28.582 24.219,28.504C24.116,28.473 22.536,27.992 22.884,28.67C23.112,29.111 22.789,29.839 23.276,29.849C23.559,29.855 25.331,30.581 25.506,30.653L26.639,31.157L27.303,29.908Z" style="fill:rgb(204,214,221);fill-rule:nonzero;"/>
                </g>
                <g transform="matrix(0.896117,3.24196e-17,-3.24196e-17,0.896117,222.704,233.585)">
                    <path d="M22.5,28.934L22.87,28.333C22.938,28.553 23.191,28.713 23.227,28.736C23.273,28.765 23.758,29.071 23.635,29.274C23.503,29.497 22.583,28.98 22.5,28.934Z" style="fill:rgb(102,117,127);fill-rule:nonzero;"/>
                </g>
                <g transform="matrix(0.896117,3.24196e-17,-3.24196e-17,0.896117,222.704,233.585)">
                    <path d="M22.172,28.346C21.77,28.115 19.855,27.38 19.425,27.241C17.812,26.719 17.833,26.722 17.314,26.563C16.469,26.304 15.06,26.1 14.518,26.19C14.142,26.252 13.223,26.717 12.953,26.703L13.132,27.481C13.305,28.134 14.059,27.847 14.179,27.805C14.998,27.519 15.908,27.759 16.053,27.798C17.092,28.072 19.813,28.977 20.452,29.17C20.608,29.217 21.522,29.492 22.282,30.053C22.351,30.104 23.097,30.651 23.356,30.016L23.637,29.273C23.329,29.247 22.382,28.468 22.172,28.346Z" style="fill:rgb(204,214,221);fill-rule:nonzero;"/>
                </g>
                <g transform="matrix(0.896117,3.24196e-17,-3.24196e-17,0.896117,222.704,233.585)">
                    <path d="M15.726,26.601C15.867,26.636 16.482,26.785 17.469,27.093L17.411,27.913C16.426,27.605 15.812,27.456 15.672,27.421L15.726,26.601ZM18.34,27.371C18.577,27.448 20.544,28.088 21.315,28.297L21.246,29.117C20.478,28.908 18.516,28.268 18.28,28.191L18.34,27.371Z" style="fill:rgb(153,170,181);fill-rule:nonzero;"/>
                </g>
                <g transform="matrix(0.896117,3.24196e-17,-3.24196e-17,0.896117,222.704,233.585)">
                    <path d="M7.205,12.275L8.176,12.362L8.882,11.58C9.283,11.352 9.979,11.142 10.354,11.295C10.759,11.46 10.396,11.553 9.994,11.713C9.54,11.893 9.491,12.405 9.629,12.568C9.838,12.813 10.379,12.747 10.27,12.358C10.22,12.179 11.052,12.495 11.02,12.958L10.986,13.432C11.002,13.716 11.148,14.511 11.678,14.633C12.304,14.778 12.284,15.418 11.691,15.434C11.111,15.449 10.187,14.868 10.069,14.794C10.031,14.83 9.59,15.25 9.458,15.019C9.255,15.004 8.267,14.809 8.277,13.714C8.219,14.085 8.182,15.159 8.813,15.409C9.691,15.756 10.18,15.484 10.993,16.059C12.172,16.891 13.04,18.697 12.523,20.913C11.986,23.218 11.158,24.844 8.553,25.247C7.057,25.479 6.384,24.482 6.559,23.319C6.721,22.238 7.775,21.321 8.404,21.215C9.114,21.095 9.274,21.798 9.161,22C9.14,22.038 8.909,22.448 8.763,22.363C8.622,22.282 8.753,22.045 8.82,21.963C8.981,21.765 8.743,21.505 8.385,21.58C7.719,21.72 7.196,22.506 7.091,23.228C6.986,23.943 7.632,24.868 8.573,24.721C9.503,24.576 10.726,23.515 10.893,22.118C11.005,21.184 10.906,20.101 9.748,19.216L9.231,20.201C8.881,20.205 7.442,20.111 6.669,19.338C5.814,18.484 5.843,17.055 6.025,17.177C6.439,17.453 7.282,17.344 7.391,17.33C7.351,17.248 7.004,16.535 6.713,16.409C6.427,16.286 5.855,15.44 6.129,14.335C6.471,12.955 7.058,12.874 7.193,13.072C7.391,13.361 7.77,13.069 7.61,12.772C7.378,12.34 6.907,12.038 7.205,12.275Z" style="fill:rgb(204,214,221);fill-rule:nonzero;"/>
                </g>
                <g transform="matrix(0.896117,3.24196e-17,-3.24196e-17,0.896117,222.704,233.585)">
                    <path d="M7.174,16.943C7.295,17.094 8.279,18.556 9.235,18.95C10.096,19.306 11.127,20.505 10.957,21.915C10.793,23.273 9.739,24.538 8.573,24.72C7.42,24.901 6.966,23.887 7.08,23.107C7.189,22.361 7.768,21.921 7.862,21.85C7.7,21.913 7.12,22.281 6.882,23.081C6.629,23.928 7.198,25.153 8.468,24.953C10.291,24.667 11.173,23.36 11.35,21.879C11.563,20.085 9.922,18.539 9.694,18.324C9.194,17.853 7.624,16.622 7.358,16.375C6.867,15.921 7.16,16.897 7.174,16.943Z" style="fill:rgb(153,170,181);fill-rule:nonzero;"/>
                </g>
                <g transform="matrix(0.896117,3.24196e-17,-3.24196e-17,0.896117,222.704,233.585)">
                    <path d="M30.21,13.735L29.231,14.138L28.311,13.581C27.885,13.479 27.092,13.425 26.743,13.651C26.654,13.708 26.442,13.843 26.536,13.891C26.584,13.916 26.586,13.897 27.204,13.995C27.722,14.076 27.879,14.571 27.773,14.766C27.609,15.071 27.037,15.128 27.065,14.705C27.078,14.513 26.296,15.006 26.415,15.443L26.536,15.897C26.579,16.259 26.498,17 25.991,17.174C25.332,17.399 25.471,18.021 26.058,17.968C26.703,17.909 27.594,17.124 27.708,17.024C27.756,17.051 28.274,17.345 28.39,17.075C28.775,16.942 29.647,16.381 29.436,15.463C29.605,15.867 29.768,16.817 29.132,17.253C28.049,17.996 27.836,17.609 26.839,18.478C25.918,19.28 24.803,20.891 24.875,23.519C24.918,25.081 24.959,27.644 28.095,27.359C29.639,27.219 30.674,25.92 30.799,24.696C30.918,23.52 29.992,22.93 29.273,23.033C28.492,23.145 28.15,23.922 28.225,24.108C28.478,24.729 28.785,24.18 28.615,23.965C28.487,23.803 28.808,23.45 29.204,23.409C29.972,23.331 30.297,24.066 30.224,24.778C30.148,25.517 29.195,26.726 28.193,26.82C27.158,26.918 26.145,26.023 26.302,24.618C26.48,23.018 27.374,22.035 28.115,21.371L28.549,22.239C29.138,22.084 30.656,21.468 31.541,20.453C32.628,19.205 32.505,17.832 32.319,18.01C31.876,18.432 30.947,18.629 30.819,18.656C30.862,18.556 31.237,17.7 31.517,17.492C31.811,17.274 32.367,16.251 31.838,15.313C31.292,14.345 30.555,14.171 30.426,14.509C30.29,14.863 29.825,14.7 29.917,14.356C30.05,13.854 30.459,13.401 30.21,13.735Z" style="fill:rgb(204,214,221);fill-rule:nonzero;"/>
                </g>
                <g transform="matrix(0.896117,3.24196e-17,-3.24196e-17,0.896117,222.704,233.585)">
                    <path d="M31.048,18.187C30.892,18.43 29.663,20.337 28.713,20.946C27.713,21.585 26.429,23.104 26.285,24.418C26.129,25.836 26.964,26.935 28.196,26.818C29.407,26.704 30.189,25.454 30.272,24.641C30.341,23.964 29.863,23.59 29.728,23.518C29.833,23.526 30.449,23.67 30.502,24.543C30.555,25.412 29.568,26.907 28.257,27.032C26.461,27.203 25.696,26.063 25.877,24.432C26.056,22.816 28.002,20.713 28.254,20.441C28.482,20.195 30.346,18.272 30.812,17.691C31.348,17.021 31.059,18.144 31.048,18.187Z" style="fill:rgb(153,170,181);fill-rule:nonzero;"/>
                </g>
            </g>
        </g>
    </g>
</svg>
