<?xml version="1.0" encoding="UTF-8" standalone="no"?>
<!DOCTYPE svg PUBLIC "-//W3C//DTD SVG 1.1//EN" "http://www.w3.org/Graphics/SVG/1.1/DTD/svg11.dtd">
<svg width="100%" height="100%" viewBox="0 0 512 512" version="1.1" xmlns="http://www.w3.org/2000/svg" xmlns:xlink="http://www.w3.org/1999/xlink" xml:space="preserve" xmlns:serif="http://www.serif.com/" style="fill-rule:evenodd;clip-rule:evenodd;stroke-linejoin:round;stroke-miterlimit:2;">
    <g transform="matrix(1.11593,-4.03717e-17,4.03717e-17,1.11593,-13.9687,-19.1113)">
        <g transform="matrix(11.1111,-2.35563e-31,0,11.1111,-2371.15,-2417.74)">
            <g>
                <g transform="matrix(0.896117,3.24196e-17,-3.24196e-17,0.896117,219.046,223.655)">
                    <path d="M4,4.757C1.899,5.025 -0.023,6.737 0.255,9.01C0.697,12.631 1.416,14.687 1.447,17.745C1.48,20.89 0.734,24.117 0.333,26.993C0.032,29.153 1.734,31.048 4.002,30.751C5.824,30.512 8.869,29.931 10.998,29.769C10.948,24.724 11.144,19.893 11.108,15.182C11.065,9.477 11,9.494 11,3.801C8.878,3.959 5.852,4.521 4,4.757Z" style="fill:rgb(0,104,71);fill-rule:nonzero;"/>
                </g>
                <g transform="matrix(0.896117,3.24196e-17,-3.24196e-17,0.896117,219.046,223.655)">
                    <path d="M32,5.435C30.514,5.665 27.333,6.26 24.999,6.305C25,14.984 25,23.663 25,32.342C28.254,32.308 31.901,31.761 32.069,31.737C34.172,31.438 36.268,29.3 36.472,27.17C37.437,17.129 37.336,16.966 36.304,9.019C36.033,6.93 34.291,5.079 32,5.435Z" style="fill:rgb(206,17,38);fill-rule:nonzero;"/>
                </g>
                <g transform="matrix(0.896117,3.24196e-17,-3.24196e-17,0.896117,219.046,223.655)">
                    <path d="M11,3.801C17.121,3.347 19.908,6.404 24.999,6.305C25,14.984 25,23.663 25,32.342C19.723,32.397 17.134,29.302 10.998,29.769C10.948,24.724 11.144,19.893 11.108,15.182C11.065,9.477 11,9.494 11,3.801Z" style="fill:rgb(238,238,238);fill-rule:nonzero;"/>
                </g>
                <g transform="matrix(0.896117,3.24196e-17,-3.24196e-17,0.896117,219.046,223.655)">
                    <path d="M22.999,19.211C22.999,21.679 21.134,23.839 18,22.816C15.816,22.103 13,19.767 13,16.711C12.923,16.708 12.593,16.695 12.032,16.72C12.03,21.002 16.39,23.291 18,23.816C21.931,25.099 23.999,22.139 23.999,19.323L22.999,19.211Z" style="fill:rgb(166,211,136);fill-rule:nonzero;"/>
                </g>
                <g transform="matrix(0.896117,3.24196e-17,-3.24196e-17,0.896117,219.046,223.655)">
                    <path d="M13.543,19.016C13.523,18.976 13.395,18.712 13.075,18.712C13.004,18.711 12.934,18.727 12.87,18.758C12.62,18.878 12.546,19.22 12.651,19.428L12.947,19.949L12.947,19.95L12.951,19.956L12.951,19.957L12.959,19.968L12.959,19.969L12.963,19.977L12.967,19.983L12.967,19.984L12.97,19.989L12.97,19.991L12.977,20.003L12.978,20.005L12.985,20.015L12.986,20.018L12.989,20.023L12.99,20.024L12.992,20.028L12.996,20.036L13,20.043L13.007,20.053L13.007,20.054L13.012,20.061L13.012,20.062L13.173,20.296C13.27,20.432 13.428,20.519 13.594,20.529C13.691,20.534 13.788,20.512 13.87,20.46C14.086,20.327 14.121,19.991 13.973,19.774C13.717,19.374 13.573,19.079 13.543,19.016ZM13.046,17.4L13.003,16.921L13,16.565C13.007,16.324 12.786,16.049 12.519,16.045L12.485,16.047C12.266,16.06 12.039,16.293 12.033,16.546L12.032,16.856L12.032,16.946L12.032,16.951L12.032,16.979L12.033,16.982L12.032,16.984L12.032,16.987L12.033,16.989L12.033,17.018L12.034,17.021L12.034,17.032L12.035,17.051L12.036,17.06L12.036,17.071L12.078,17.545C12.109,17.783 12.346,17.974 12.568,17.963L12.614,17.958C12.871,17.918 13.083,17.665 13.046,17.4ZM18.34,22.914L18.334,22.913L18.21,22.881C17.843,22.774 17.555,22.653 17.5,22.63L17.429,22.605C17.191,22.539 16.974,22.697 16.953,22.907C16.929,23.138 17.135,23.482 17.4,23.593L17.525,23.643L17.529,23.646L17.531,23.645L17.534,23.647L17.536,23.648L17.542,23.651L17.548,23.653L17.551,23.655L17.552,23.655L17.558,23.656L17.561,23.658L17.566,23.66L17.577,23.665L17.59,23.669L17.596,23.672L17.609,23.676L18.068,23.837L18.107,23.85L18.114,23.851L18.12,23.854L18.135,23.859L18.14,23.86L18.159,23.866L18.165,23.867L18.166,23.867L18.171,23.87L18.172,23.869L18.178,23.872L18.179,23.872L18.184,23.873L18.192,23.876L18.198,23.877L18.204,23.879L18.205,23.88L18.211,23.881L18.218,23.883L18.223,23.884L18.243,23.891L18.248,23.891L18.252,23.892L18.256,23.893L18.26,23.895L18.265,23.897L18.269,23.897L18.274,23.899L18.401,23.934C18.665,23.999 18.871,23.827 18.854,23.557C18.847,23.312 18.596,22.989 18.34,22.914ZM15.901,21.724C15.841,21.68 15.526,21.452 15.177,21.137C15.092,21.06 14.988,21.005 14.874,20.987C14.727,20.963 14.574,21.009 14.481,21.13C14.336,21.318 14.398,21.664 14.611,21.847L14.612,21.848L14.618,21.853L14.624,21.86L14.63,21.865L14.636,21.871C14.701,21.927 15.03,22.212 15.478,22.526C15.547,22.575 15.625,22.61 15.708,22.628C15.875,22.663 16.057,22.612 16.141,22.453C16.253,22.248 16.133,21.892 15.901,21.724ZM20.931,22.886C20.849,22.867 20.762,22.867 20.683,22.895C20.626,22.915 20.33,23.016 19.949,23.059C19.71,23.084 19.578,23.35 19.682,23.63C19.7,23.679 19.817,23.992 20.162,24.086L20.335,24.101L20.469,24.081L20.471,24.082L20.477,24.08L20.483,24.078L20.487,24.08L20.491,24.079L20.493,24.077L20.499,24.078L20.501,24.077L20.504,24.076L20.517,24.074L20.526,24.073L20.533,24.071L20.539,24.07L20.541,24.071L20.555,24.068L20.562,24.066L20.568,24.065L20.569,24.064L20.576,24.065L20.585,24.063L20.589,24.061L20.591,24.061L20.597,24.059L20.605,24.059L20.611,24.057L20.612,24.058L20.619,24.056L20.62,24.055L20.641,24.052L20.655,24.048L20.663,24.048L20.669,24.046L20.67,24.047L20.684,24.043L20.684,24.042L20.69,24.041L20.691,24.042L20.713,24.036L20.72,24.036L20.741,24.03L20.742,24.03L20.749,24.031L20.755,24.027L20.769,24.024L20.769,24.023L20.783,24.021L20.784,24.022L20.791,24.02L20.792,24.019L20.797,24.017L20.798,24.018L20.805,24.016L20.811,24.014L20.813,24.015L20.819,24.013L20.819,24.012L20.826,24.011L20.827,24.01L20.833,24.009L20.833,24.008L20.839,24.007L20.841,24.007L20.845,24.005L20.848,24.005L20.862,24.001L20.868,24.001L20.869,24L20.877,23.998L20.881,23.996L20.891,23.994L20.895,23.992L20.898,23.992L20.902,23.991L20.905,23.99L20.909,23.989L20.915,23.987L20.918,23.985L20.927,23.985L20.929,23.984L20.933,23.983L20.937,23.981L20.943,23.98L20.95,23.977L20.955,23.977L20.957,23.976L20.961,23.975L20.967,23.973L20.971,23.972L20.975,23.97L20.977,23.969L20.985,23.969L20.985,23.968L20.989,23.967L20.996,23.964L21.005,23.962L21.005,23.961L21.017,23.959L21.025,23.956L21.045,23.95L21.046,23.951L21.236,23.885C21.45,23.804 21.532,23.499 21.387,23.235C21.363,23.197 21.206,22.953 20.931,22.886ZM23.501,18.801L23.477,18.8C23.227,18.781 22.999,18.992 22.998,19.233C22.998,19.645 22.938,19.986 22.926,20.05C22.884,20.288 23.083,20.611 23.334,20.686L23.44,20.707C23.653,20.723 23.876,20.551 23.913,20.336L23.913,20.331L23.915,20.327L23.914,20.325L23.915,20.323L23.915,20.321L23.916,20.319L23.916,20.316L23.917,20.314L23.917,20.305L23.919,20.301L23.919,20.295L23.971,19.908L23.97,19.907L23.971,19.904L23.971,19.903L23.972,19.899L23.972,19.888L23.974,19.885L23.974,19.884L23.973,19.881L23.973,19.879L23.974,19.876L23.974,19.872L23.976,19.871L23.974,19.868L23.974,19.864L23.976,19.861L23.976,19.842L23.978,19.839L23.978,19.838L23.999,19.345C23.999,19.099 23.76,18.831 23.501,18.801ZM23.058,21.439C22.981,21.384 22.89,21.346 22.795,21.335C22.634,21.314 22.467,21.373 22.378,21.515C22.17,21.849 21.958,22.064 21.915,22.106C21.756,22.271 21.794,22.621 21.995,22.827C22.086,22.919 22.2,22.986 22.328,23.007C22.463,23.028 22.604,22.991 22.698,22.89L23.028,22.489L23.039,22.471L23.04,22.47L23.044,22.465L23.044,22.464L23.048,22.457L23.052,22.452L23.053,22.453L23.057,22.448L23.057,22.447L23.06,22.44L23.062,22.439L23.066,22.434L23.066,22.433L23.069,22.428L23.07,22.428L23.074,22.422L23.077,22.416L23.08,22.414L23.082,22.409L23.084,22.41L23.086,22.404L23.087,22.402L23.091,22.399L23.095,22.392L23.096,22.389L23.1,22.387L23.102,22.384L23.102,22.38L23.105,22.379L23.109,22.372L23.112,22.367L23.114,22.365L23.116,22.361L23.122,22.353L23.125,22.349L23.126,22.346L23.132,22.338L23.134,22.334L23.142,22.324L23.142,22.321L23.147,22.315L23.15,22.312L23.15,22.309L23.154,22.305L23.154,22.302L23.157,22.298L23.159,22.297L23.166,22.287L23.166,22.285L23.17,22.28L23.172,22.277L23.173,22.275L23.176,22.271L23.178,22.267L23.18,22.265L23.182,22.261L23.184,22.259L23.186,22.254L23.188,22.253L23.19,22.247L23.192,22.246L23.194,22.243L23.196,22.241L23.198,22.236L23.2,22.234L23.202,22.229L23.202,22.227L23.206,22.222L23.207,22.22L23.211,22.216L23.211,22.215L23.214,22.209L23.216,22.208L23.218,22.202L23.218,22.201L23.223,22.197L23.226,22.191L23.226,22.19L23.23,22.183L23.232,22.183L23.257,22.139C23.38,21.933 23.281,21.596 23.058,21.439Z" style="fill:rgb(92,145,59);fill-rule:nonzero;"/>
                </g>
                <g transform="matrix(0.896117,3.24196e-17,-3.24196e-17,0.896117,219.046,223.655)">
                    <path d="M18,19.816C19.541,20.319 21,21.228 21,21.765C21,22.151 20.118,22.507 18,21.816C16.487,21.322 15,20.511 15,19.971C15,19.535 16.038,19.175 18,19.816Z" style="fill:rgb(85,172,238);"/>
                </g>
                <g transform="matrix(0.896117,3.24196e-17,-3.24196e-17,0.896117,219.046,223.655)">
                    <path d="M18.5,19.98C19.347,20.26 20,20.956 20,21.467C20,21.939 19.414,22.282 18.5,21.98C17.651,21.7 17,21.009 17,20.498C17,20.026 17.588,19.679 18.5,19.98Z" style="fill:rgb(255,204,77);"/>
                </g>
                <g transform="matrix(0.896117,3.24196e-17,-3.24196e-17,0.896117,219.046,223.655)">
                    <path d="M19.117,21.457C19.029,21.429 18.947,21.378 18.878,21.318C18.643,21.113 18.558,20.752 18.677,20.574C18.92,20.207 19.133,19.99 19.179,19.944L18.749,19.811C18.504,19.73 18.221,19.405 18.221,19.136C18.221,18.892 18.406,18.697 18.693,18.792L18.775,18.82C18.843,18.843 19.192,18.958 19.647,19.062C19.813,19.097 19.959,19.211 20.057,19.347L20.1,19.33L20.38,19.254C20.445,19.223 20.519,19.216 20.591,19.223L20.627,19.227C20.744,19.223 20.885,19.233 21,19.265C21.253,19.335 21.38,19.541 21.401,19.576C21.485,19.711 21.529,19.884 21.476,20.039C21.385,20.313 20.941,20.275 20.891,20.271L20.653,20.331C20.342,20.443 20.087,20.154 20.054,20.115C20.08,20.157 20.293,20.499 20.052,20.729C20.006,20.772 19.793,20.978 19.556,21.339C19.459,21.487 19.272,21.509 19.117,21.457ZM17.697,19.403L17.631,19.377C17.07,19.122 16.657,18.88 16.575,18.831C16.329,18.686 16.164,18.342 16.238,18.113L16.244,18.095L16.232,18.115C16.11,18.298 15.783,18.316 15.551,18.129C15.033,17.714 14.709,17.33 14.644,17.253C14.46,17.035 14.464,16.693 14.644,16.546C14.825,16.399 15.166,16.466 15.351,16.694C15.4,16.754 15.645,17.056 16.039,17.381C16.256,17.561 16.33,17.877 16.268,18.041C16.348,17.901 16.607,17.806 16.858,17.956C16.928,17.998 17.273,18.205 17.758,18.426C18.024,18.547 18.22,18.901 18.189,19.128C18.165,19.328 17.947,19.483 17.697,19.403ZM15.245,16.371C15.125,16.344 14.395,16.179 13.934,15.577C13.371,14.84 13.127,14.042 13.167,13.533C13.18,13.366 13.016,13.235 12.872,13.194C12.748,13.158 12.619,13.182 12.561,13.309C12.506,13.43 12.361,13.492 12.238,13.437C12.114,13.381 12.065,13.23 12.117,13.108C12.264,12.767 12.622,12.604 12.998,12.714C13.367,12.824 13.697,13.205 13.665,13.612C13.606,14.358 14.228,15.191 14.315,15.308C14.612,15.706 15.11,15.836 15.19,15.856C15.239,15.87 15.468,15.924 15.537,15.878C15.46,15.677 14.519,15.024 14.424,14.959C14.098,14.733 14.062,14.481 14.055,14.43C13.984,13.936 14.813,13.289 14.907,13.216L15.299,12.887C15.365,12.815 15.389,12.736 15.359,12.645C15.313,12.51 15.04,12.207 14.631,12.041C14.565,12.014 14.124,11.835 13.963,11.457C13.746,10.949 14.144,10.292 14.197,10.205C14.27,10.082 14.433,10.086 14.537,10.163C14.643,10.24 14.709,10.399 14.634,10.52C14.599,10.577 14.306,11.05 14.419,11.32C14.473,11.447 14.622,11.524 14.739,11.572C14.849,11.618 15.606,11.93 15.827,12.585C15.965,12.995 15.737,13.241 15.699,13.283C15.608,13.382 15.294,13.621 15.258,13.648C15.19,13.7 14.517,14.211 14.55,14.436C14.557,14.486 14.628,14.538 14.657,14.558C14.781,14.646 15.882,15.427 16.009,15.895C16.041,16.013 16.036,16.138 15.967,16.243C15.821,16.458 15.43,16.403 15.382,16.396L15.245,16.371Z" style="fill:rgb(92,145,59);fill-rule:nonzero;"/>
                </g>
                <g transform="matrix(0.896117,3.24196e-17,-3.24196e-17,0.896117,219.046,223.655)">
                    <path d="M19.5,17.308C19.73,17.383 20,17.884 20,18.467C20,19.084 19.73,19.383 19.5,19.308C19.269,19.234 19,18.728 19,18.145C19,17.528 19.27,17.234 19.5,17.308Z" style="fill:rgb(255,204,77);"/>
                </g>
                <g transform="matrix(0.896117,3.24196e-17,-3.24196e-17,0.896117,219.046,223.655)">
                    <path d="M17.292,16.777C17.292,17.025 16.988,17.2 16.521,17.065C16.09,16.94 15.75,16.588 15.75,16.334C15.75,16.08 16.064,15.89 16.521,16.023C16.954,16.148 17.292,16.516 17.292,16.777ZM16.105,11.8C16.14,11.958 15.951,12.195 15.486,12.195C15.07,12.194 14.726,11.985 14.685,11.807C14.645,11.629 14.882,11.386 15.303,11.382C15.701,11.379 16.062,11.607 16.105,11.8Z" style="fill:rgb(255,204,77);fill-rule:nonzero;"/>
                </g>
                <g transform="matrix(0.896117,3.24196e-17,-3.24196e-17,0.896117,219.046,223.655)">
                    <path d="M22.532,19.085C22.613,19.163 22.774,18.384 22.752,18.147C22.752,18.074 22.752,17.503 22.835,17.237C22.897,17.133 22.899,16.142 22.802,15.898C22.886,15.905 22.988,15.891 22.999,15.794C22.667,15.865 22.33,14.575 22.147,14.265C21.736,13.548 20.903,12.766 20.868,12.731C20.904,12.643 20.962,12.571 21.03,12.506C20.52,12.62 19.4,11.263 18.235,10.949C18.194,10.94 17.799,10.848 17.721,11.01C17.678,11 17.223,10.89 17.223,11.253C17.223,11.382 17.335,11.508 17.452,11.546C17.787,11.75 17.842,11.683 17.991,12.036L18.03,12.361C17.944,12.223 17.864,12.07 17.731,11.978L17.796,11.866C17.723,11.8 17.421,11.76 17.519,11.766C17.47,11.727 17.134,11.463 16.825,11.418L16.765,11.15C16.723,11.258 16.588,11.263 16.573,11.385L16.462,11.016C16.353,11.132 16.384,11.306 16.346,11.445C16.274,11.486 16.209,11.401 16.196,11.341L16.17,11.056C16.046,11.239 15.996,11.224 15.967,11.44L15.884,11.158C15.886,11.413 15.425,11.706 15.373,11.739C15.317,11.829 15.38,11.824 15.39,11.941L15.522,12.038L15.759,12.08C15.806,12.152 15.797,12.152 15.869,12.192C16.072,12.302 16.504,12.142 16.759,12.709C16.692,12.745 16.482,12.943 16.55,13.04C16.607,13.057 16.583,13.077 16.652,13.076C16.524,13.163 16.3,13.442 16.3,13.464C16.278,13.511 16.378,13.505 16.362,13.578L16.412,13.586C15.975,13.935 16.375,14.771 16.345,14.941C16.403,15.052 16.421,14.961 16.535,14.98C16.554,15.068 16.586,15.041 17.009,16.003L16.697,15.912C16.703,16.028 16.905,16.337 16.928,16.371L16.719,16.375C16.577,16.405 16.478,16.455 16.367,16.547C16.309,16.672 16.846,16.917 16.894,16.939L16.887,17.14C17.118,17.232 17.54,17.282 17.54,17.265L17.616,17.231L17.787,17.38C17.905,17.418 17.903,17.061 17.892,17.011L18.216,17.591L18.319,17.611L18.636,18.161L18.741,18.236C18.832,18.234 18.86,18.223 18.887,18.136L18.935,18.236L19.101,18.176L19.217,18.191L19.304,18.362C19.387,18.358 19.407,18.179 19.408,18.147C19.447,18.239 19.447,18.236 19.512,18.303L19.589,18.166L20.004,18.686L20.318,18.801C20.371,18.853 20.717,19.09 20.789,18.941C21.036,19.118 21.336,19.066 21.323,18.954C21.535,19.095 21.911,19.131 21.911,19.116C22.026,19.129 22.008,18.981 21.96,18.933C21.489,18.497 19.891,16.859 19.618,16.638C19.618,16.469 19.477,15.84 19.371,15.675L19.475,15.535C19.71,15.831 19.705,15.814 20.041,16.011C20.081,16.056 20.026,16.081 20.44,16.66L20.592,16.734C20.56,16.645 20.408,16.211 20.038,15.692C20.245,15.861 20.609,16.285 20.656,16.339C20.682,16.392 20.672,16.39 20.921,17.029C20.943,17.049 21.083,17.318 21.072,17.154C21.042,16.699 20.848,16.757 20.848,16.306C20.988,16.458 20.957,16.473 21.269,17.327C21.324,17.424 21.343,17.691 21.429,17.62L21.334,16.839L21.278,16.547C21.509,16.743 21.698,17.848 21.717,17.965L21.752,18.25C21.789,18.304 21.863,18.477 21.862,18.412C21.862,18.309 21.862,17.378 21.791,17.124C21.777,17.016 21.848,16.693 21.821,16.798L22.092,18.182L22.092,18.497L22.224,18.659L22.305,17.9L22.206,16.954L22.206,16.69C22.204,16.553 22.334,16.723 22.346,16.749L22.368,17.384C22.378,17.447 22.433,17.827 22.453,18.177C22.456,18.25 22.491,19.085 22.532,19.085Z" style="fill:rgb(193,105,79);fill-rule:nonzero;"/>
                </g>
            </g>
        </g>
    </g>
</svg>
