<?xml version="1.0" encoding="UTF-8" standalone="no"?>
<!DOCTYPE svg PUBLIC "-//W3C//DTD SVG 1.1//EN" "http://www.w3.org/Graphics/SVG/1.1/DTD/svg11.dtd">
<svg width="100%" height="100%" viewBox="0 0 512 512" version="1.1" xmlns="http://www.w3.org/2000/svg" xmlns:xlink="http://www.w3.org/1999/xlink" xml:space="preserve" xmlns:serif="http://www.serif.com/" style="fill-rule:evenodd;clip-rule:evenodd;stroke-linejoin:round;stroke-miterlimit:2;">
    <g>
        <g>
            <path d="M411.553,116.384C327.618,129.405 325.974,131.604 259.985,110.838C187.662,88.078 182.392,98.415 100.444,108.861C77.104,111.835 55.74,130.85 58.828,156.107C63.749,196.349 71.735,219.194 72.083,253.166C72.44,288.108 64.155,323.962 59.699,355.921C56.353,379.924 75.267,400.977 100.472,397.677C182.335,386.958 187.634,376.33 259.985,399.708C297.334,411.775 314.968,422.501 412.318,408.636C435.684,405.308 458.974,381.556 461.247,357.894C471.963,246.325 470.85,244.51 459.378,156.216C456.362,133 437.012,112.436 411.553,116.384Z" style="fill:rgb(117,178,221);fill-rule:nonzero;"/>
            <path d="M259.33,139.492C257.167,145.442 255.005,151.392 252.842,157.342C240.575,153.387 233.55,151.575 231.854,151.137C233.235,152.496 239.285,158.452 248.831,168.396C246.672,174.384 244.513,180.372 242.354,186.361C243.703,185.783 248.872,183.57 259.33,179.414C260.687,180.846 272.82,193.653 276.307,197.292C274.148,189.944 271.989,182.596 269.829,175.248C279.886,171.227 285.459,168.784 286.806,168.194C285.115,167.706 279.071,165.965 265.819,161.598C263.656,154.23 261.493,146.861 259.33,139.492ZM356.297,263.044C356.291,261.364 356.257,252.807 356.139,242.052C355.099,243.496 350.124,250.4 343.055,260.042C331.133,257.043 324.22,254.341 322.627,253.719C328.956,262.851 334.066,269.52 335.098,270.866C327.922,280.594 328.077,280.532 322.627,287.674C324.291,287.244 330.104,285.742 343.072,281.044C344.107,282.336 348.922,288.347 356.211,297.016C356.227,295.337 356.309,286.732 356.318,276.025C358.096,275.326 366.103,272.177 378.405,266.953C366.008,265.023 358.057,263.403 356.297,263.044ZM269.829,341.76C271.989,335.804 274.148,329.848 276.307,323.892C267.617,327.45 267.846,327.296 259.33,330.681C248.872,319.641 243.725,314.366 242.354,312.961C244.513,320.276 246.672,327.591 248.831,334.907C239.285,338.834 233.196,341.686 231.854,342.315C233.55,342.752 240.575,344.564 252.842,348.519C255.005,355.88 257.167,363.242 259.33,370.603C261.493,364.661 263.656,358.718 265.819,352.776C279.071,357.143 285.115,358.884 286.806,359.371C285.432,357.978 279.886,352.351 269.829,341.76ZM177.559,232.196C171.275,223.256 167.323,217.805 166.422,216.561C166.472,218.243 166.726,226.853 166.782,237.586C165.419,238.306 159.581,241.388 149.969,247.013C159.319,248.802 165.425,250.192 166.763,250.496C166.749,252.163 166.682,260.524 166.397,271.33C167.286,269.872 174.282,258.398 177.541,253.13C186.927,255.582 194.577,258.093 196.044,258.574C192.334,253.324 185.394,243.393 184.47,242.071C190.701,232.294 195.087,225.995 196.044,224.62C194.534,225.145 187.011,227.762 177.559,232.196Z" style="fill:white;fill-rule:nonzero;"/>
        </g>
    </g>
</svg>
