<?xml version="1.0" encoding="UTF-8" standalone="no"?>
<!DOCTYPE svg PUBLIC "-//W3C//DTD SVG 1.1//EN" "http://www.w3.org/Graphics/SVG/1.1/DTD/svg11.dtd">
<svg width="100%" height="100%" viewBox="0 0 512 512" version="1.1" xmlns="http://www.w3.org/2000/svg" xmlns:xlink="http://www.w3.org/1999/xlink" xml:space="preserve" xmlns:serif="http://www.serif.com/" style="fill-rule:evenodd;clip-rule:evenodd;stroke-linejoin:round;stroke-miterlimit:2;">
    <g transform="matrix(1.11593,-4.03717e-17,4.03717e-17,1.11593,-13.9687,-19.1113)">
        <g transform="matrix(11.1111,-3.72518e-31,0,11.1111,-2371.15,-2417.74)">
            <g>
                <g transform="matrix(0.896117,3.24196e-17,-3.24196e-17,0.896117,219.046,223.655)">
                    <path d="M32,5.435C30.593,5.653 26.415,6.443 23.999,6.288C23.999,14.967 23.999,23.645 23.999,32.323C26.706,32.501 31.428,31.828 32.069,31.737C34.172,31.438 36.268,29.3 36.472,27.17C37.437,17.129 37.336,16.966 36.304,9.019C36.033,6.93 34.291,5.079 32,5.435Z" style="fill:rgb(221,46,68);fill-rule:nonzero;"/>
                </g>
                <g transform="matrix(0.896117,3.24196e-17,-3.24196e-17,0.896117,219.046,223.655)">
                    <path d="M4,4.757C1.899,5.025 -0.023,6.737 0.255,9.01C0.697,12.631 1.416,14.687 1.447,17.745C1.48,20.89 0.734,24.117 0.333,26.993C0.032,29.153 1.734,31.048 4.002,30.751C6.166,30.468 9.47,29.796 11.999,29.714C11.988,27.637 12,27.65 12,3.747C9.531,3.825 6.033,4.498 4,4.757Z" style="fill:rgb(38,95,181);fill-rule:nonzero;"/>
                </g>
                <g transform="matrix(0.896117,3.24196e-17,-3.24196e-17,0.896117,219.046,223.655)">
                    <path d="M12,3.747C16.469,3.607 20.03,6.033 23.999,6.288C23.999,14.967 23.999,23.645 23.999,32.323C20.029,32.061 16.471,29.57 11.999,29.714C11.988,27.637 12,27.65 12,3.747Z" style="fill:rgb(255,204,77);fill-rule:nonzero;"/>
                </g>
                <g transform="matrix(0.896117,3.24196e-17,-3.24196e-17,0.896117,219.046,223.655)">
                    <path d="M16,14.211C16.981,14.472 19.871,15.427 20,15.467L20,18.467C19.871,18.427 16.981,17.472 16,17.211L16,14.211Z" style="fill:rgb(221,46,68);fill-rule:nonzero;"/>
                </g>
                <g transform="matrix(0.896117,3.24196e-17,-3.24196e-17,0.896117,219.046,223.655)">
                    <path d="M16,17.211L16,19.211C16.163,19.336 16.796,19.821 18,20.816C18.16,20.788 19.905,20.485 20,20.467L20,18.467C19.871,18.427 16.981,17.472 16,17.211Z" style="fill:rgb(34,102,153);fill-rule:nonzero;"/>
                </g>
                <g transform="matrix(0.896117,3.24196e-17,-3.24196e-17,0.896117,219.046,223.655)">
                    <path d="M16,10.211L16,11.211L17,11.498L17,13.498C17.473,13.643 18.84,14.093 19,14.145L19,11.145C18.761,11.067 16.838,10.434 16,10.211ZM19,21.145L18,21.441L17,20.498C16.667,21.402 16.333,22.307 16,23.211C16.163,23.336 16.796,23.821 18,24.816C18.16,24.788 19.905,24.485 20,24.467C19.666,23.36 19.333,22.253 19,21.145ZM15,11.971L14,10.799L13,11.711L13,21.711C13.153,21.564 13.928,20.819 15,19.971L15,12.971L16,13.211L15,11.971ZM21.999,13.019L21,13.765L20,14.467L21,14.765L21,21.765C22.098,23.17 22.834,24.02 22.999,24.211L22.999,14.211L21.999,13.019Z" style="fill:rgb(160,114,74);fill-rule:nonzero;"/>
                </g>
                <g transform="matrix(0.896117,3.24196e-17,-3.24196e-17,0.896117,219.046,223.655)">
                    <path d="M16.234,16.868L16.765,17.021L16.765,17.427L16.234,17.274L16.234,16.868ZM19.234,17.816L19.765,17.987L19.765,18.393L19.234,18.222L19.234,17.816Z" style="fill:rgb(255,204,77);fill-rule:nonzero;"/>
                </g>
                <g transform="matrix(0.896117,3.24196e-17,-3.24196e-17,0.896117,219.046,223.655)">
                    <path d="M15.637,21.86C15.489,21.91 15.343,21.726 15.287,21.618C14.078,19.249 13.241,17.762 13.055,17.431C12.995,17.324 12.954,17.123 13.092,17.05L13.228,16.979C13.367,16.907 13.518,17.058 13.577,17.166C14.588,19.014 15.636,21.099 15.809,21.444C15.856,21.537 15.924,21.767 15.773,21.816L15.637,21.86Z" style="fill:rgb(119,178,85);fill-rule:nonzero;"/>
                </g>
                <g transform="matrix(0.896117,3.24196e-17,-3.24196e-17,0.896117,219.046,223.655)">
                    <path d="M22.816,19.574C22.937,19.663 22.93,19.843 22.855,19.958C22.686,20.224 21.888,21.474 20.665,23.237C20.584,23.352 20.426,23.384 20.317,23.288L20.182,23.169C20.073,23.072 20.06,22.896 20.143,22.779C21.392,21 22.164,19.821 22.334,19.56C22.408,19.449 22.564,19.382 22.681,19.473L22.816,19.574Z" style="fill:rgb(255,204,77);fill-rule:nonzero;"/>
                </g>
                <g transform="matrix(0.896117,3.24196e-17,-3.24196e-17,0.896117,219.046,223.655)">
                    <path d="M16,20.211L15,20.971L15,21.971L16,21.211L16,20.211ZM20,21.467L20,22.467L21,23.765L21,22.765L20,21.467Z" style="fill:rgb(221,46,68);fill-rule:nonzero;"/>
                </g>
                <g transform="matrix(0.896117,3.24196e-17,-3.24196e-17,0.896117,219.046,223.655)">
                    <path d="M18,16.816L17,15.498L17,18.456C17.08,18.565 17.426,19.031 18,19.816L19,19.103L19,16.145L18,16.816Z" style="fill:rgb(255,204,77);fill-rule:nonzero;"/>
                </g>
            </g>
        </g>
    </g>
</svg>
