<?xml version="1.0" encoding="UTF-8" standalone="no"?>
<!DOCTYPE svg PUBLIC "-//W3C//DTD SVG 1.1//EN" "http://www.w3.org/Graphics/SVG/1.1/DTD/svg11.dtd">
<svg width="100%" height="100%" viewBox="0 0 512 512" version="1.1" xmlns="http://www.w3.org/2000/svg" xmlns:xlink="http://www.w3.org/1999/xlink" xml:space="preserve" xmlns:serif="http://www.serif.com/" style="fill-rule:evenodd;clip-rule:evenodd;stroke-linejoin:round;stroke-miterlimit:2;">
    <g transform="matrix(1.11593,-4.03717e-17,4.03717e-17,1.11593,-13.9687,-19.1113)">
        <g transform="matrix(11.1111,-2.35563e-31,0,11.1111,-2371.15,-2417.74)">
            <g>
                <g transform="matrix(0.896117,3.24196e-17,-3.24196e-17,0.896117,219.046,223.655)">
                    <path d="M36.472,27.17C36.268,29.3 34.172,31.438 32.069,31.737C22.764,33.062 21.617,31.929 16.923,30.475C12.024,28.957 9.406,30.043 4.002,30.751C1.734,31.048 0.032,29.153 0.333,26.993C0.731,24.136 1.48,20.893 1.447,17.745C1.416,14.7 0.699,12.641 0.255,9.01C-0.023,6.737 1.899,5.025 4,4.757C11.375,3.817 11.85,2.887 18.359,4.935C24.284,6.8 24.43,6.609 32,5.435C34.291,5.079 36.033,6.93 36.304,9.019C37.335,16.956 37.438,17.114 36.472,27.17Z" style="fill:rgb(196,39,47);fill-rule:nonzero;"/>
                </g>
                <g transform="matrix(0.896117,3.24196e-17,-3.24196e-17,0.896117,219.046,223.655)">
                    <path d="M12,3.747C16.469,3.607 20.03,6.033 23.999,6.288C23.999,14.967 23.999,23.645 23.999,32.323C20.029,32.061 16.471,29.57 11.999,29.714C11.988,27.637 12,27.65 12,3.747Z" style="fill:rgb(0,81,151);fill-rule:nonzero;"/>
                </g>
                <g transform="matrix(0.896117,3.24196e-17,-3.24196e-17,0.896117,219.046,223.655)">
                    <path d="M2.763,16.531C2.878,16.526 3.459,16.499 4.192,16.41C4.454,20.903 3.335,24.806 2.972,28.88C2.147,28.961 1.528,28.982 1.402,28.986C1.794,24.852 3.061,20.947 2.763,16.531ZM4.934,18.642C5.875,18.499 8.517,17.955 8.8,17.902L8.783,18.68C8.65,18.704 5.86,19.267 4.9,19.41L4.934,18.642ZM9.484,15.432L10.852,15.24C10.894,18.914 10.72,23.169 10.706,27.792C10.581,27.803 9.986,27.855 9.15,27.968C9.219,23.687 9.567,19.438 9.484,15.432ZM4.149,25.641C5.246,25.499 7.911,25.027 8.47,24.938L8.43,25.724C7.984,25.794 5.163,26.285 4.044,26.427L4.149,25.641ZM4.986,16.298C5.903,16.154 8.459,15.621 8.715,15.572C7.793,16.541 7.815,16.54 6.89,17.502C6.255,17.1 5.621,16.699 4.986,16.298ZM3.924,27.414C5.05,27.272 7.811,26.799 8.386,26.71C8.199,26.87 6.508,28.318 6.054,28.702C4.869,28.025 4.091,27.522 3.924,27.414ZM7.839,10.92C7.901,11.766 7.318,12.608 6.59,12.742C5.847,12.878 5.098,12.252 4.983,11.416C4.863,10.538 5.484,9.738 6.26,9.604C7.038,9.47 7.774,10.043 7.839,10.92ZM6.902,8.099C6.91,8.243 6.979,9.082 6.225,9.211C5.435,9.346 5.396,8.417 5.391,8.351C5.325,7.575 5.812,6.493 6.044,6.456C6.274,6.418 6.856,7.339 6.902,8.099Z" style="fill:rgb(249,207,1);fill-rule:nonzero;"/>
                    <path d="M6.718,13.884C5.416,14.135 4.293,13.368 3.778,12.81C4.122,13.785 5.236,15.322 6.812,15.004C8.117,14.741 9.114,13.312 9.278,11.907C8.813,12.741 7.853,13.665 6.718,13.884ZM8.859,21.762C8.916,20.587 8.277,19.827 7.586,19.648C7.706,19.751 8.054,19.967 8.016,20.603C8.005,20.781 7.928,22.093 6.616,22.334L6.615,22.343C6.073,22.466 5.537,23.084 5.458,23.712C5.376,24.368 5.819,24.798 6.374,24.724L6.374,24.732L6.4,24.724L6.412,24.725L6.451,24.71C7.665,24.456 8.79,23.197 8.859,21.762ZM6.164,23.592C6.188,23.372 6.398,23.147 6.574,23.115C6.79,23.076 6.919,23.263 6.901,23.46C6.88,23.682 6.671,23.908 6.491,23.94C6.273,23.979 6.142,23.793 6.164,23.592Z" style="fill:rgb(249,207,1);fill-rule:nonzero;"/>
                    <path d="M6.827,19.63L6.828,19.624L6.81,19.63L6.802,19.629L6.776,19.64C5.69,19.884 4.575,21.132 4.374,22.534C4.208,23.689 4.789,24.494 5.55,24.697C5.401,24.568 5.093,24.351 5.167,23.78C5.364,22.275 6.428,22.078 6.605,22.045L6.608,22.027L6.62,22.028C7.171,21.925 7.705,21.29 7.747,20.626C7.787,19.975 7.348,19.544 6.827,19.63ZM6.691,21.234C6.476,21.274 6.355,21.078 6.371,20.887C6.389,20.664 6.589,20.439 6.754,20.407C6.968,20.366 7.09,20.563 7.076,20.753C7.059,20.977 6.858,21.202 6.691,21.234Z" style="fill:rgb(249,207,1);fill-rule:nonzero;"/>
                </g>
            </g>
        </g>
    </g>
</svg>
