<?xml version="1.0" encoding="UTF-8" standalone="no"?>
<!DOCTYPE svg PUBLIC "-//W3C//DTD SVG 1.1//EN" "http://www.w3.org/Graphics/SVG/1.1/DTD/svg11.dtd">
<svg width="100%" height="100%" viewBox="0 0 512 512" version="1.1" xmlns="http://www.w3.org/2000/svg" xmlns:xlink="http://www.w3.org/1999/xlink" xml:space="preserve" xmlns:serif="http://www.serif.com/" style="fill-rule:evenodd;clip-rule:evenodd;stroke-linejoin:round;stroke-miterlimit:2;">
    <g transform="matrix(1.11593,-4.03717e-17,4.03717e-17,1.11593,-13.9687,-19.1113)">
        <g transform="matrix(11.1111,-2.35563e-31,0,11.1111,-2371.15,-2417.74)">
            <g>
                <g transform="matrix(0.896117,3.24196e-17,-3.24196e-17,0.896117,219.046,223.655)">
                    <path d="M36.472,27.17C36.268,29.3 34.172,31.438 32.069,31.737C22.764,33.062 21.617,31.929 16.923,30.475C12.024,28.957 9.406,30.043 4.002,30.751C1.734,31.048 0.032,29.153 0.333,26.993C0.731,24.136 1.48,20.893 1.447,17.745C1.416,14.7 0.699,12.641 0.255,9.01C-0.023,6.737 1.899,5.025 4,4.757C11.375,3.817 11.85,2.887 18.359,4.935C24.284,6.8 24.43,6.609 32,5.435C34.291,5.079 36.033,6.93 36.304,9.019C37.335,16.956 37.438,17.114 36.472,27.17Z" style="fill:rgb(255,204,77);fill-rule:nonzero;"/>
                </g>
                <g transform="matrix(0.896117,3.24196e-17,-3.24196e-17,0.896117,219.046,223.655)">
                    <path d="M35.462,27.276C35.318,28.901 33.777,30.474 32.147,30.705C22.766,32.037 21.978,31.041 16.923,29.475C12.011,27.953 9.375,29.048 4.037,29.75C2.375,29.969 1.116,28.641 1.362,26.989C1.776,24.209 2.574,20.916 2.541,17.746C2.508,14.686 1.747,12.577 1.279,9.006C1.056,7.307 2.442,5.959 4.02,5.752C11.352,4.789 11.837,3.827 18.359,5.934C24.279,7.847 24.415,7.651 32.015,6.447C33.763,6.17 35.105,7.527 35.296,9.076C36.272,16.994 36.357,17.155 35.462,27.276Z" style="fill:rgb(221,46,68);fill-rule:nonzero;"/>
                </g>
                <g transform="matrix(0.896117,3.24196e-17,-3.24196e-17,0.896117,219.046,223.655)">
                    <path d="M22.884,18.593C23.429,16.51 21.794,14.118 21.53,13.765C21.36,14.553 21.189,15.342 21.018,16.13L19.963,17.206L20.401,18.12L19.964,18.227C19.618,17.636 19.272,17.046 18.927,16.455L19.311,15.712L20.647,15.44C20.527,15.365 20.05,15.068 19.168,14.487L18.272,15.235L18,16.299L17.658,15.035L16.69,13.692C15.935,13.641 15.413,13.641 15.302,13.64L16.465,14.719L16.93,15.811L15.977,17.022L15.456,16.601L15.894,15.932C15.339,15.054 14.926,14.428 14.84,14.298C14.669,13.433 14.498,12.569 14.327,11.705C13.771,12.222 12.472,14.088 12.973,16.11C13.062,16.466 13.525,18.334 16.174,19.405C15.279,19.764 14.651,20.079 14.522,20.143L13.555,20.09L13.39,21.138L14.266,21.648L15.036,20.946C15.188,20.922 15.879,20.815 16.954,20.748C16.362,21.431 15.946,21.928 15.86,22.032C16.034,22.17 16.706,22.703 18,23.816C19.809,23.409 19.806,23.411 20.069,23.348C19.712,22.731 19.356,22.113 19,21.496L19,21.434C20.138,22.23 20.691,22.592 20.84,22.69L21.6,23.738L22.472,23.525L22.304,22.43L21.336,22.123C21.201,21.997 20.631,21.461 19.684,20.517C19.684,20.368 19.884,21.041 21.538,20.287C22.564,19.82 22.841,18.761 22.884,18.593Z" style="fill:rgb(255,204,77);fill-rule:nonzero;"/>
                </g>
                <g transform="matrix(0.896117,3.24196e-17,-3.24196e-17,0.896117,219.046,223.655)">
                    <path d="M18,19.316L18,20.613C17.963,20.545 17.706,20.211 17.25,19.935C16.668,19.583 16.408,18.991 16.375,18.814C16.506,18.851 17.035,19.001 18,19.316ZM18.002,19.317L18.002,20.614C18.017,20.596 18.248,20.404 18.752,20.422C19.421,20.448 19.606,19.947 19.627,19.849C19.496,19.807 19.5,19.806 18.002,19.317Z" style="fill:rgb(92,145,59);fill-rule:nonzero;"/>
                </g>
                <g transform="matrix(0.896117,3.24196e-17,-3.24196e-17,0.896117,219.046,223.655)">
                    <path d="M16.734,16.215C16.821,16.277 17.475,16.735 18,16.644L18,19.191C17.035,18.876 16.506,18.726 16.375,18.689C16.356,18.517 16.37,17.952 16.531,17.468C16.668,17.058 16.371,16.561 16.406,16.62L16.734,16.215ZM19.268,17.03C19.162,17.038 18.537,17.087 18.002,16.645L18.002,19.192C18.822,19.459 18.8,19.459 19.627,19.724C19.641,19.601 19.643,19.032 19.471,18.408C19.302,17.802 19.797,17.422 19.596,17.636L19.268,17.03ZM23.077,22.395C23.077,22.825 22.713,23.139 22.28,23.049C21.85,22.959 21.483,22.499 21.483,22.066C21.483,21.64 21.842,21.364 22.28,21.455C22.714,21.545 23.077,21.965 23.077,22.395Z" style="fill:rgb(34,102,153);fill-rule:nonzero;"/>
                </g>
                <g transform="matrix(0.896117,3.24196e-17,-3.24196e-17,0.896117,219.046,223.655)">
                    <path d="M19.031,14.178C19.031,14.288 18.777,14.491 18.054,14.255C17.436,14.053 17.077,13.701 17.077,13.545C17.077,13.426 17.354,13.23 18.054,13.459C18.656,13.655 19.031,14.017 19.031,14.178Z" style="fill:rgb(255,204,77);fill-rule:nonzero;"/>
                </g>
                <g transform="matrix(0.896117,3.24196e-17,-3.24196e-17,0.896117,219.046,223.655)">
                    <path d="M18.031,12.076C17.081,11.766 16.5,12.077 16.5,12.483C16.5,12.925 17.148,13.554 18.031,13.842C18.996,14.157 19.562,13.86 19.562,13.461C19.562,13.016 18.906,12.362 18.031,12.076ZM16.953,12.987C16.919,12.962 16.724,12.818 16.797,12.483C16.807,12.434 16.842,12.397 16.879,12.366C16.941,12.316 17.17,12.24 17.094,12.261C17.073,12.298 16.913,12.584 17.066,12.794C17.169,12.935 17.171,13.148 16.953,12.987ZM17.599,13.176C17.519,13.126 17.5,12.98 17.48,12.915C17.436,12.772 17.39,12.666 17.421,12.519C17.432,12.466 17.488,12.438 17.532,12.419C17.629,12.378 17.946,12.366 17.842,12.367C17.787,12.509 17.736,12.667 17.764,12.816C17.788,12.949 17.989,13.304 17.92,13.189C17.813,13.201 17.689,13.233 17.599,13.176ZM18.566,13.269C18.554,13.298 18.531,13.454 18.447,13.453C18.321,13.45 18.025,13.182 18.125,13.258C18.198,13.184 18.259,13.089 18.281,12.987C18.325,12.777 18.053,12.003 18.203,12.487C18.243,12.514 18.593,12.745 18.624,12.913C18.652,13.062 18.622,13.123 18.566,13.269ZM19.094,13.679C18.921,13.698 18.83,13.524 18.981,13.414C19.18,13.268 18.819,12.539 18.953,12.864C18.983,12.891 19.219,13.107 19.25,13.273C19.275,13.411 19.29,13.658 19.094,13.679ZM23.074,22.48C23.046,22.59 22.926,22.629 22.827,22.588L21.723,22.072C21.626,22.023 21.547,21.9 21.577,21.788C21.608,21.677 21.733,21.657 21.824,21.702L22.928,22.211C23.03,22.253 23.106,22.369 23.074,22.48Z" style="fill:rgb(255,204,77);fill-rule:nonzero;"/>
                </g>
                <g transform="matrix(0.896117,3.24196e-17,-3.24196e-17,0.896117,219.046,223.655)">
                    <path d="M22.494,22.254C22.468,22.353 22.36,22.378 22.275,22.339C22.186,22.297 22.121,22.191 22.147,22.091L22.394,21.012C22.421,20.914 22.529,20.889 22.613,20.926C22.703,20.966 22.768,21.069 22.741,21.168L22.494,22.254ZM14.835,22.813C14.704,22.837 14.646,22.615 14.6,22.49C13.565,19.672 12.816,17.768 12.655,17.36C12.61,17.247 12.524,17.041 12.637,16.996L12.736,16.957C12.872,16.907 13.075,17.073 13.12,17.188C14.023,19.529 14.913,21.98 15.065,22.398C15.103,22.502 15.077,22.763 14.934,22.794L14.835,22.813ZM17.184,17.803C17.315,17.844 17.649,17.948 18.815,18.332L18.815,19.459C18.684,19.416 17.649,19.075 17.184,18.93L17.184,17.803Z" style="fill:rgb(255,204,77);fill-rule:nonzero;"/>
                </g>
            </g>
        </g>
    </g>
</svg>
