<?xml version="1.0" encoding="UTF-8" standalone="no"?>
<!DOCTYPE svg PUBLIC "-//W3C//DTD SVG 1.1//EN" "http://www.w3.org/Graphics/SVG/1.1/DTD/svg11.dtd">
<svg width="100%" height="100%" viewBox="0 0 512 512" version="1.1" xmlns="http://www.w3.org/2000/svg" xmlns:xlink="http://www.w3.org/1999/xlink" xml:space="preserve" xmlns:serif="http://www.serif.com/" style="fill-rule:evenodd;clip-rule:evenodd;stroke-linejoin:round;stroke-miterlimit:2;">
    <g transform="matrix(1.11593,-4.03717e-17,4.03717e-17,1.11593,-13.9687,-19.1113)">
        <g transform="matrix(11.1111,-2.35563e-31,0,11.1111,-2371.15,-2417.74)">
            <g>
                <g transform="matrix(0.896117,3.24196e-17,-3.24196e-17,0.896117,219.046,223.655)">
                    <path d="M32,5.435C24.446,6.606 24.298,6.804 18.359,4.935C11.85,2.887 11.375,3.817 4,4.757L3.396,4.874C3.394,5.625 3.445,6.487 3.454,6.627C1.962,6.797 0.936,6.798 0.716,6.798C0.374,7.365 0.15,8.156 0.255,9.01C0.697,12.631 1.416,14.687 1.447,17.745C1.48,20.89 0.734,24.117 0.333,26.993C0.032,29.153 1.734,31.048 4.002,30.751C11.37,29.786 11.847,28.83 18.359,30.934C21.72,32.02 23.307,32.985 32.069,31.737C34.172,31.438 36.268,29.3 36.472,27.17C37.437,17.129 37.336,16.966 36.304,9.019C36.033,6.93 34.291,5.079 32,5.435Z" style="fill:rgb(0,36,125);fill-rule:nonzero;"/>
                </g>
                <g transform="matrix(0.896117,3.24196e-17,-3.24196e-17,0.896117,219.046,223.655)">
                    <path d="M33.571,12.805C30.233,13.242 25.915,14.155 23.025,13.713L23.025,21.233C23.978,21.762 25.359,22.411 28.184,23.105C29.52,22.456 32.358,21.021 33.803,20.32C33.857,18.319 33.802,15.259 33.571,12.805Z" style="fill:rgb(85,172,238);fill-rule:nonzero;"/>
                </g>
                <g transform="matrix(0.896117,3.24196e-17,-3.24196e-17,0.896117,219.046,223.655)">
                    <path d="M23.025,21.233L23.038,21.485C23.202,22.925 23.881,23.906 24.515,24.48C25.862,25.7 28.129,25.924 28.126,26.164C28.129,25.93 30.494,25.183 31.989,23.73C33.665,22.104 33.777,20.592 33.781,20.572L33.802,20.32C30.358,20.761 25.908,21.674 23.025,21.233Z" style="fill:rgb(159,29,34);fill-rule:nonzero;"/>
                </g>
                <g transform="matrix(0.896117,3.24196e-17,-3.24196e-17,0.896117,219.046,223.655)">
                    <path d="M28.575,15.791C28.744,15.769 29.375,15.687 30.685,15.491L30.663,14.863C29.357,15.059 28.728,15.141 28.56,15.163L28.541,14.322L27.819,14.411L27.833,15.253C26.697,15.386 25.941,15.427 25.776,15.436L25.781,16.064C25.946,16.055 26.705,16.014 27.846,15.881C27.928,20.417 27.833,23.282 27.823,23.844L28.547,23.756C28.559,23.262 28.675,20.335 28.575,15.791Z" style="fill-rule:nonzero;"/>
                </g>
                <g transform="matrix(0.896117,3.24196e-17,-3.24196e-17,0.896117,219.046,223.655)">
                    <path d="M28.593,16.727C28.633,16.69 28.762,16.543 28.861,16.543C28.943,16.544 29.049,16.523 29.124,16.491C29.236,16.444 29.688,16.376 29.754,16.386C29.839,16.383 29.927,16.427 29.996,16.468C30.307,16.648 30.233,17.068 30.232,17.073L30.184,17.889C30.178,17.954 30.115,18.643 29.866,18.641C30.161,19.051 30.008,19.117 30.294,19.544C30.59,19.984 30.49,20.774 30.476,20.881C30.449,21.097 30.236,22.809 30.66,23.596C30.524,23.707 30.297,23.569 30.198,23.477C30.051,23.339 29.942,23.338 29.792,23.466C29.76,23.493 28.988,24.372 28.279,23.998C28.091,23.9 28.14,23.699 28.206,23.535C28.475,22.872 28.631,21.869 28.6,21.499C28.606,21.117 28.635,19.246 28.592,16.727L28.593,16.727Z" style="fill:rgb(119,178,83);fill-rule:nonzero;"/>
                </g>
                <g transform="matrix(0.896117,3.24196e-17,-3.24196e-17,0.896117,219.046,223.655)">
                    <path d="M26.073,21.889C26.205,22.008 27.477,23.168 27.738,23.366C27.856,23.454 27.957,23.469 28.024,23.323C28.395,22.511 28.503,21.272 27.325,20.079C27.16,20.649 26.707,21.102 26.031,21.281C25.683,21.373 25.647,21.601 25.692,21.657C25.783,21.499 25.994,21.487 26.087,21.652C26.174,21.81 26.037,21.993 25.888,22.044C25.848,22.057 25.507,22.173 25.368,21.942C25.274,21.792 25.184,21.394 25.653,21.179C25.755,21.132 26.648,20.72 26.747,20.307C26.763,20.24 26.896,19.708 27.279,19.635C29.349,21.169 28.84,22.848 28.388,23.818C28.18,24.266 27.9,24.248 27.782,24.116C27.647,23.963 25.958,22.229 25.799,22.066C25.909,22.053 26.023,21.994 26.073,21.889Z" style="fill:rgb(250,170,52);fill-rule:nonzero;"/>
                </g>
                <g transform="matrix(0.896117,3.24196e-17,-3.24196e-17,0.896117,219.046,223.655)">
                    <path d="M29.02,16.262C29.061,16.365 29.07,16.479 29.023,16.581C28.962,16.713 28.976,16.854 29.055,16.974C29.222,16.735 29.315,16.871 29.522,16.654C29.541,16.634 29.659,16.424 29.755,16.387C29.623,16.306 29.525,16.233 29.546,16.063C29.558,15.957 29.858,15.614 29.587,15.367C29.433,15.225 29.147,15.269 29.011,15.38L28.893,15.521C28.857,15.607 28.907,15.629 28.859,15.689L28.753,15.795C28.73,15.814 28.708,15.843 28.739,15.87L28.795,15.885L28.754,15.958C28.739,15.976 28.746,15.991 28.765,16.001L28.757,16.124C28.721,16.194 28.723,16.233 28.796,16.26C28.838,16.276 28.968,16.275 29.02,16.262ZM27.869,17.489C27.821,17.506 27.83,17.428 27.233,17.553C27.164,17.567 27.074,17.543 27.086,17.454C27.099,17.354 27.106,17.235 27.089,17.133C27.055,16.919 27.252,16.474 27.275,16.42C27.295,16.376 27.465,15.994 27.463,15.851C27.461,15.76 27.47,15.669 27.549,15.613L27.643,15.502C27.664,15.47 27.738,15.409 27.743,15.447L27.718,15.53L27.88,15.409C27.915,15.381 28.004,15.333 28.009,15.377C28.012,15.374 28.075,15.337 28.089,15.369C28.102,15.392 28.091,15.403 28.074,15.419C28.145,15.395 28.087,15.497 28.082,15.502C28.106,15.491 28.11,15.564 28.09,15.582L27.948,15.712C27.924,15.758 27.773,15.872 27.734,15.892C27.673,15.923 27.677,15.964 27.678,16.025C27.688,16.584 27.582,16.992 27.582,17.005C27.582,17.045 27.566,17.111 27.63,17.085L27.864,17.018L27.87,17.489L27.869,17.489ZM27.917,19.283C28.184,19.13 28.182,19.161 28.663,18.984C28.868,18.911 29.172,18.726 29.214,18.7L29.517,18.496C29.598,18.461 29.676,18.401 29.717,18.32C29.76,18.24 30.077,17.64 30.07,17.239C30.067,17.066 29.996,16.856 29.804,17.027C29.611,17.199 29.397,17.538 29.352,17.71C29.288,17.954 29.249,17.927 29.18,18.164C29.16,18.233 29.057,18.246 29.01,18.262C28.612,18.395 28.629,18.393 28.306,18.651C27.963,18.926 27.625,19.133 27.563,19.171C27.47,19.229 27.351,19.28 27.297,19.386L27.182,19.571C27.15,19.606 27.135,19.647 27.144,19.694L27.129,19.948C27.128,19.974 27.126,20.015 27.165,20.014C27.209,20.014 27.226,19.968 27.232,19.934C27.219,20.002 27.319,19.965 27.324,19.92C27.32,20 27.427,19.915 27.432,19.873C27.432,19.902 27.508,19.884 27.516,19.856L27.574,19.693C27.61,19.621 27.648,19.539 27.714,19.487C27.838,19.392 27.789,19.356 27.917,19.283ZM29.793,23.468L29.851,23.637C29.862,23.677 29.843,23.687 29.825,23.723C29.77,23.833 29.687,24.051 29.671,24.178L29.594,24.347C29.566,24.396 29.582,24.427 29.629,24.454C29.662,24.474 29.739,24.422 29.745,24.394C29.785,24.425 29.838,24.383 29.854,24.352C29.891,24.386 29.946,24.32 29.957,24.304C29.989,24.321 30.033,24.265 30.04,24.253C30.102,24.278 30.128,24.197 30.13,24.158L30.155,24.095L30.173,24.004L30.227,23.857C30.26,23.804 30.309,23.721 30.29,23.65L30.22,23.494C30.161,23.44 30.072,23.356 29.977,23.366C29.892,23.373 29.855,23.417 29.793,23.468ZM28.086,24.18C28.207,24.286 28.401,24.176 28.486,24.082L28.289,24.004C28.251,24.044 28.156,24.151 28.086,24.18Z" style="fill:rgb(246,221,205);fill-rule:nonzero;"/>
                </g>
                <g transform="matrix(0.896117,3.24196e-17,-3.24196e-17,0.896117,219.046,223.655)">
                    <path d="M28.956,15.435C28.976,15.286 29.088,15.219 29.23,15.229C29.298,15.233 29.39,15.216 29.455,15.191C29.573,15.146 29.771,15.132 29.757,15.317C29.81,15.344 29.858,15.414 29.851,15.477C29.846,15.539 29.858,15.568 29.926,15.567C30.024,15.565 30.122,15.639 30.048,15.734C30.136,15.768 30.216,15.879 30.168,15.974C30.128,16.054 29.984,16.11 29.914,16.033C29.845,16.071 29.739,16.09 29.669,16.038C29.64,16.074 29.519,16.123 29.486,16.064C29.465,16.023 29.43,16.006 29.386,15.999C29.314,15.988 29.355,15.865 29.404,15.85C29.394,15.823 29.392,15.778 29.413,15.754C29.438,15.72 29.391,15.686 29.371,15.676C29.312,15.642 29.297,15.53 29.329,15.475C29.262,15.505 29.108,15.48 29.062,15.428C29.029,15.388 28.984,15.396 28.956,15.435Z" style="fill:rgb(149,92,15);fill-rule:nonzero;"/>
                </g>
                <g transform="matrix(0.896117,3.24196e-17,-3.24196e-17,0.896117,219.046,223.655)">
                    <path d="M30.03,16.074C29.99,16.08 29.943,16.073 29.912,16.043C29.842,16.08 29.741,16.096 29.671,16.05L29.573,16.095L29.551,16.097C29.529,16.097 29.492,16.093 29.48,16.069C29.459,16.03 29.427,16.013 29.385,16.008C29.351,16.003 29.342,15.959 29.342,15.934C29.343,15.898 29.36,15.862 29.396,15.847C29.387,15.818 29.387,15.776 29.409,15.751C29.43,15.722 29.38,15.689 29.368,15.683C29.312,15.651 29.296,15.54 29.316,15.489L29.296,15.493C29.245,15.5 29.1,15.483 29.057,15.434L29.007,15.41L29.006,15.41L28.963,15.439L28.948,15.436C28.958,15.372 28.982,15.31 29.035,15.269C29.092,15.225 29.164,15.217 29.234,15.221C29.3,15.224 29.39,15.209 29.453,15.184C29.522,15.158 29.633,15.13 29.707,15.174C29.756,15.204 29.771,15.258 29.767,15.312C29.821,15.341 29.868,15.412 29.862,15.476C29.856,15.535 29.866,15.56 29.929,15.559C29.978,15.557 30.054,15.581 30.079,15.629C30.097,15.663 30.082,15.701 30.061,15.729C30.151,15.767 30.226,15.879 30.177,15.976C30.151,16.026 30.097,16.06 30.044,16.071L30.03,16.074ZM29.917,16.023L29.921,16.028C29.95,16.059 30,16.066 30.04,16.057C30.087,16.047 30.137,16.018 30.159,15.973C30.205,15.881 30.127,15.774 30.042,15.741L30.033,15.738L30.04,15.73C30.059,15.705 30.077,15.671 30.061,15.638C30.038,15.595 29.967,15.573 29.924,15.574C29.849,15.576 29.836,15.542 29.841,15.477C29.848,15.417 29.802,15.349 29.75,15.324L29.747,15.322L29.747,15.318C29.752,15.267 29.74,15.217 29.694,15.188C29.627,15.148 29.518,15.176 29.456,15.199C29.391,15.224 29.296,15.241 29.227,15.237C29.164,15.233 29.095,15.239 29.043,15.28C29,15.313 28.978,15.36 28.967,15.412L29.002,15.396L29.005,15.395L29.068,15.425C29.107,15.469 29.249,15.485 29.293,15.479L29.325,15.47L29.346,15.461L29.336,15.481C29.305,15.533 29.32,15.64 29.375,15.672L29.421,15.715L29.419,15.76C29.4,15.783 29.402,15.824 29.41,15.85L29.414,15.857L29.405,15.86C29.372,15.87 29.357,15.903 29.356,15.934C29.356,15.949 29.36,15.991 29.386,15.995C29.432,16.001 29.47,16.021 29.492,16.063L29.551,16.083C29.588,16.083 29.637,16.067 29.662,16.037L29.668,16.03L29.674,16.035C29.742,16.085 29.842,16.065 29.91,16.029L29.917,16.023ZM29.021,16.27L29.018,16.255L29.146,16.196L29.253,16.149L29.263,16.147L29.263,16.162L29.155,16.207L29.021,16.27ZM28.884,18.311L28.873,18.301C29.064,18.118 28.948,17.608 28.934,17.55L28.931,17.535C28.864,17.222 29.02,17.008 29.047,16.971L29.06,16.978C29.034,17.015 28.881,17.225 28.949,17.53L28.951,17.544C28.965,17.604 29.083,18.121 28.884,18.311ZM29.188,18.845C29.127,18.854 29.059,18.853 28.999,18.834L29.006,18.819C29.136,18.86 29.305,18.826 29.412,18.742C29.532,18.648 29.728,18.628 29.869,18.635L29.865,18.651C29.729,18.645 29.536,18.664 29.42,18.754C29.356,18.805 29.268,18.835 29.188,18.845Z" style="fill-rule:nonzero;"/>
                </g>
                <g transform="matrix(0.896117,3.24196e-17,-3.24196e-17,0.896117,219.046,223.655)">
                    <path d="M19,18.145C19,13.81 19,9.476 19,5.141C11.806,2.837 11.647,3.783 4,4.757L3.396,4.874C3.394,5.625 3.445,6.487 3.454,6.627C1.962,6.797 0.936,6.798 0.716,6.798L0.602,7.003C0.528,7.148 0.124,7.941 0.255,9.01C0.715,12.775 1.468,14.811 1.448,18.098C5.75,18.142 7.207,17.191 11.217,16.774C14.219,16.462 16.608,17.359 19,18.145Z" style="fill:rgb(0,36,125);fill-rule:nonzero;"/>
                </g>
                <g transform="matrix(0.896117,3.24196e-17,-3.24196e-17,0.896117,219.046,223.655)">
                    <path d="M19,5.141C18.814,5.082 17.267,4.586 16.669,4.415C14.47,5.18 12.337,6.732 11.992,6.983C11.992,5.556 12,3.764 12,3.747C10.226,3.803 7.398,4.248 7,4.311C7,5.66 7.04,6.66 7.049,6.864C6.443,6.539 4.899,5.729 3.396,4.874C2.46,5.119 1.851,5.59 1.734,5.68C3.304,6.673 5.811,7.983 6.572,8.391C5.518,8.57 5.041,8.642 4.907,8.662C4.589,8.491 2.419,7.319 1.001,6.39L0.716,6.798C2.042,7.675 3.787,8.633 4.06,8.783C2.011,9.051 0.495,9.01 0.255,9.01C0.445,10.564 1.009,13.615 1.083,14.014C1.255,14.014 2.867,14.064 4.836,13.777C2.63,16.304 1.554,16.797 1.421,16.878L1.448,18.098C1.461,18.099 2.915,18.158 4.647,17.915C5.849,16.795 7.423,15.017 7.644,14.771C7.656,14.977 7.718,16.027 7.714,17.342C8.056,17.271 10.371,16.793 12.032,16.72C12.032,15.012 12.021,13.71 12.018,13.449C13.071,14.174 14.363,15.105 16.668,17.399C17.267,17.575 18.814,18.084 19,18.145L19,16.116C18.776,15.886 16.958,14.015 16.185,13.261C16.958,13.474 18.775,14.071 19,14.145L19,9.145C18.776,9.071 16.958,8.474 16.186,8.261C16.958,7.933 18.773,7.258 19,7.174C19,6.496 19,5.819 19,5.141Z" style="fill:rgb(238,238,238);fill-rule:nonzero;"/>
                </g>
                <g transform="matrix(0.896117,3.24196e-17,-3.24196e-17,0.896117,219.046,223.655)">
                    <path d="M11,3.801C10.759,3.819 9.761,3.893 8,4.157C8,4.263 7.977,6.292 8.127,9.139C4.901,9.668 3.623,10.017 0.388,10.012C0.423,10.253 0.574,11.299 0.892,13.007C4.147,13.009 5.214,12.678 8.315,12.137C8.334,12.407 8.546,14.753 8.54,17.175C10.003,16.889 10.908,16.803 11.115,16.783C11.117,14.596 11.052,12.292 11.043,11.77C14.146,11.518 15.812,12.097 19,13.145L19,10.145C15.753,9.077 14.158,8.522 11.003,8.771C10.975,5.95 11,3.917 11,3.801Z" style="fill:rgb(207,27,43);fill-rule:nonzero;"/>
                </g>
                <g transform="matrix(0.896117,3.24196e-17,-3.24196e-17,0.896117,219.046,223.655)">
                    <path d="M19,5.141L17.539,4.676C14.538,5.737 12.397,7.298 11.992,7.593L11.992,7.714C12.892,7.685 13.445,7.738 13.571,7.749C15.491,6.588 18.023,5.706 19,5.343L19,5.141ZM1.734,5.68C1.316,5.999 1.052,6.326 1.001,6.39C2.419,7.319 4.589,8.491 4.907,8.662C5.041,8.642 5.518,8.57 6.571,8.391C5.941,8.053 3.337,6.694 1.734,5.68ZM7.047,13.391C6.063,14.525 4.293,16.647 2.288,18.105C2.415,18.103 3.069,18.093 3.882,18.009C5.366,16.716 7.229,14.568 7.602,14.148L7.529,13.299L7.047,13.391ZM19,17.947L19,16.727C18.709,16.428 16.389,14.04 15.313,13.04C14.381,12.827 13.711,12.763 13.57,12.749C15.493,14.279 18.004,16.922 19,17.947Z" style="fill:rgb(207,27,43);fill-rule:nonzero;"/>
                </g>
            </g>
        </g>
    </g>
</svg>
