<?xml version="1.0" encoding="UTF-8" standalone="no"?>
<!DOCTYPE svg PUBLIC "-//W3C//DTD SVG 1.1//EN" "http://www.w3.org/Graphics/SVG/1.1/DTD/svg11.dtd">
<svg width="100%" height="100%" viewBox="0 0 512 512" version="1.1" xmlns="http://www.w3.org/2000/svg" xmlns:xlink="http://www.w3.org/1999/xlink" xml:space="preserve" xmlns:serif="http://www.serif.com/" style="fill-rule:evenodd;clip-rule:evenodd;stroke-linejoin:round;stroke-miterlimit:2;">
    <g transform="matrix(1.11593,-4.03717e-17,4.03717e-17,1.11593,-13.9687,-19.1113)">
        <g transform="matrix(11.1111,-2.35563e-31,0,11.1111,-2371.15,-2417.74)">
            <g>
                <g transform="matrix(0.896117,3.24196e-17,-3.24196e-17,0.896117,219.046,223.655)">
                    <path d="M32,5.435C24.446,6.606 24.298,6.804 18.359,4.935C11.85,2.887 11.375,3.817 4,4.757C1.899,5.025 -0.023,6.737 0.255,9.01C0.697,12.631 1.416,14.687 1.447,17.745C1.48,20.89 0.734,24.117 0.333,26.993C0.032,29.153 1.734,31.048 4.002,30.751C11.37,29.786 11.847,28.83 18.359,30.934C21.72,32.02 23.307,32.985 32.069,31.737C34.172,31.438 36.268,29.3 36.472,27.17C37.437,17.129 37.336,16.966 36.304,9.019C36.033,6.93 34.291,5.079 32,5.435Z" style="fill:rgb(193,39,45);fill-rule:nonzero;"/>
                </g>
                <g transform="matrix(0.896117,3.24196e-17,-3.24196e-17,0.896117,219.046,223.655)">
                    <path d="M15.047,21.146C15.136,20.89 15.576,19.631 16.175,17.952C15.949,17.726 14.514,16.289 13.222,15.271C14.737,15.365 16.586,15.922 16.871,16.008C17.247,14.969 17.623,13.929 18,12.89C18.376,14.172 18.752,15.454 19.129,16.735C19.416,16.83 21.431,17.49 22.777,17.722C21.573,18.39 20.066,19.006 19.825,19.105C20.201,20.375 20.577,21.646 20.953,22.916C20.336,22.295 18.235,20.082 18,19.835C17.76,19.931 16.179,20.564 15.047,21.146ZM18.63,19.585L19.546,20.55L19.196,19.359L18.63,19.585ZM16.804,18.589L16.454,19.563L17.37,19.175L16.804,18.589ZM17.045,17.922L18,18.92L18.955,18.54L18.59,17.298L17.408,16.913L17.045,17.922ZM15.5,16.372L16.415,17.278L16.631,16.676L15.5,16.372ZM19.369,17.554L19.585,18.289L20.5,17.908L19.369,17.554ZM18.35,16.479L18,15.286L17.65,16.251L18.35,16.48L18.35,16.479Z" style="fill:rgb(0,98,51);fill-rule:nonzero;"/>
                </g>
            </g>
        </g>
    </g>
</svg>
