<?xml version="1.0" encoding="UTF-8" standalone="no"?>
<!DOCTYPE svg PUBLIC "-//W3C//DTD SVG 1.1//EN" "http://www.w3.org/Graphics/SVG/1.1/DTD/svg11.dtd">
<svg width="100%" height="100%" viewBox="0 0 512 512" version="1.1" xmlns="http://www.w3.org/2000/svg" xmlns:xlink="http://www.w3.org/1999/xlink" xml:space="preserve" xmlns:serif="http://www.serif.com/" style="fill-rule:evenodd;clip-rule:evenodd;stroke-linejoin:round;stroke-miterlimit:2;">
    <g transform="matrix(1.11593,-4.03717e-17,4.03717e-17,1.11593,-13.9687,-19.1113)">
        <g transform="matrix(11.1111,-2.35563e-31,0,11.1111,-2371.15,-2417.74)">
            <g>
                <g transform="matrix(0.896117,3.24196e-17,-3.24196e-17,0.896117,219.046,223.655)">
                    <path d="M36.472,27.17C36.268,29.3 34.172,31.438 32.069,31.737C22.764,33.062 21.617,31.929 16.923,30.475C12.024,28.957 9.406,30.043 4.002,30.751C1.734,31.048 0.032,29.153 0.333,26.993C0.731,24.136 1.48,20.893 1.447,17.745C1.416,14.7 0.699,12.641 0.255,9.01C-0.023,6.737 1.899,5.025 4,4.757C11.375,3.817 11.85,2.887 18.359,4.935C24.284,6.8 24.43,6.609 32,5.435C34.291,5.079 36.033,6.93 36.304,9.019C37.335,16.956 37.438,17.114 36.472,27.17Z" style="fill:rgb(252,225,0);fill-rule:nonzero;"/>
                </g>
                <g transform="matrix(0.896117,3.24196e-17,-3.24196e-17,0.896117,219.046,223.655)">
                    <path d="M0.892,13.007C6.763,13.011 9.897,11.244 14.04,11.804C16.931,12.195 20.485,13.916 23.399,14.266C26.851,14.681 32.801,13.147 36.836,13.017C37.376,17.912 36.941,22.27 36.862,23.071C27.88,23.393 27.679,25.945 18.36,22.934C9.959,20.22 9.783,22.994 0.971,22.997C1.792,17.917 1.408,15.774 0.892,13.007Z" style="fill:rgb(20,20,20);fill-rule:nonzero;"/>
                </g>
                <g transform="matrix(0.896117,3.24196e-17,-3.24196e-17,0.896117,219.046,223.655)">
                    <path d="M32,5.435C24.446,6.606 24.298,6.804 18.359,4.935C11.85,2.887 11.375,3.817 4,4.757C1.899,5.025 -0.023,6.737 0.255,9.01C0.459,10.68 0.833,12.689 0.892,13.007C6.763,13.011 9.897,11.244 14.04,11.804C16.931,12.195 20.485,13.916 23.399,14.266C26.851,14.681 32.801,13.147 36.836,13.017C36.736,12.112 36.336,9.263 36.304,9.019C36.033,6.93 34.291,5.079 32,5.435Z" style="fill:rgb(0,113,104);fill-rule:nonzero;"/>
                </g>
                <g transform="matrix(0.896117,3.24196e-17,-3.24196e-17,0.896117,219.046,223.655)">
                    <path d="M0.892,13.007C6.763,13.011 9.897,11.244 14.04,11.804C16.931,12.195 20.485,13.916 23.399,14.266C26.851,14.681 32.801,13.147 36.836,13.017L36.931,14.011C28.999,14.271 27.291,16.815 19.08,14.171C16.102,13.213 14.268,12.424 10.546,12.82C7.036,13.194 5.634,14.02 1.083,14.014L0.892,13.007ZM1.125,22.002C7.017,22.004 9.879,20.242 14.04,20.804C16.931,21.195 20.485,22.916 23.399,23.266C26.857,23.681 32.884,22.145 36.965,22.012L36.862,23.071C27.88,23.393 27.679,25.945 18.36,22.934C9.959,20.22 9.783,22.994 0.971,22.997L1.125,22.002Z" style="fill:rgb(238,238,238);fill-rule:nonzero;"/>
                </g>
                <g transform="matrix(0.896117,3.24196e-17,-3.24196e-17,0.896117,219.046,223.655)">
                    <path d="M1.355,29.932C9.271,23.974 10.37,20.565 17.032,17.572C10.652,10.731 6.686,9.798 1.35,6.029C0.409,6.942 0.14,8.07 0.255,9.01C0.697,12.631 1.416,14.687 1.447,17.745C1.48,20.89 0.734,24.117 0.333,26.993C0.087,28.759 1.172,29.763 1.355,29.932Z" style="fill:rgb(221,46,68);fill-rule:nonzero;"/>
                </g>
                <g transform="matrix(0.896117,3.24196e-17,-3.24196e-17,0.896117,219.046,223.655)">
                    <path d="M9.653,21.986C9.226,21.691 9.235,21.695 6.971,20.103C6.734,20.341 5.269,21.813 3.875,22.934C4.75,20.958 5.267,19.308 5.368,18.986C5.133,18.825 3.576,17.756 2.441,16.961C4.02,16.925 5.741,16.604 6.025,16.551C6.383,14.956 6.643,13.015 6.74,12.426C6.861,12.718 7.513,14.295 8.072,16.135C8.349,16.077 10.146,15.7 11.564,15.592C10.495,16.511 8.921,18.117 8.699,18.344C8.888,19.04 9.518,21.496 9.653,21.986Z" style="fill:rgb(252,225,0);fill-rule:nonzero;"/>
                </g>
                <g transform="matrix(0.896117,3.24196e-17,-3.24196e-17,0.896117,219.046,223.655)">
                    <path d="M4.547,20.552C4.709,20.531 5.388,20.441 6.564,20.216C6.686,20.366 7.047,20.427 7.416,20.048C7.934,19.628 8.868,19.649 9.247,19.711L9.498,19.376C9.192,18.124 9.004,17.417 8.959,17.247L8.754,17.023C8.696,16.993 8.198,16.831 7.489,17.07C6.678,17.342 6.343,17.255 6.371,17.263C6.294,17.29 5.624,17.519 5.431,17.665L5.19,17.981C5.148,18.189 4.932,19.236 4.547,20.552Z" style="fill:rgb(20,20,20);fill-rule:nonzero;"/>
                </g>
                <g transform="matrix(0.896117,3.24196e-17,-3.24196e-17,0.896117,219.046,223.655)">
                    <path d="M4.574,20.233C4.736,20.212 5.412,20.121 6.585,19.895C6.708,20.045 7.068,20.105 7.434,19.726C7.948,19.307 8.879,19.326 9.258,19.388L9.507,19.053C9.201,17.817 9.006,17.093 8.96,16.923L8.753,16.699C8.693,16.668 8.193,16.508 7.486,16.746C6.674,17.018 6.338,16.932 6.368,16.94C6.291,16.966 5.621,17.196 5.429,17.343L5.192,17.66C5.151,17.868 4.946,18.922 4.574,20.233Z" style="fill:white;fill-rule:nonzero;"/>
                </g>
                <g transform="matrix(0.896117,3.24196e-17,-3.24196e-17,0.896117,219.046,223.655)">
                    <path d="M3.646,17.055C3.732,16.898 4.159,16.122 4.63,15.045L5.314,15.069L5.65,14.528C6.368,15.339 6.957,16.058 7.068,16.193L8.059,15.099L8.665,14.336L9.064,14.548C9.803,13.828 10.314,13.385 10.427,13.288C10.326,13.411 9.888,13.944 9.207,14.854L8.221,15.906L7.438,16.5C8.042,17.217 9.902,19.531 10.115,19.796L9.733,20.147C9.533,19.887 7.752,17.579 7.218,16.918L6.39,17.883L7.472,18.077L7.421,18.706C6.348,18.57 6.022,18.524 5.901,18.507L5.912,19.778L5.538,20.022L5.261,19.337C4.492,20.418 3.794,21.24 3.659,21.399L3.226,20.454C3.373,20.325 4.105,19.681 4.97,18.752L5.02,18.21L5.875,17.151L6.12,17.063L6.812,16.588C6.724,16.496 6.257,16.005 5.695,15.441C5.027,16.85 4.449,17.816 4.329,18.016L3.68,17.229" style="fill:rgb(20,20,20);fill-rule:nonzero;"/>
                </g>
            </g>
        </g>
    </g>
</svg>
