<?xml version="1.0" encoding="UTF-8" standalone="no"?>
<!DOCTYPE svg PUBLIC "-//W3C//DTD SVG 1.1//EN" "http://www.w3.org/Graphics/SVG/1.1/DTD/svg11.dtd">
<svg width="100%" height="100%" viewBox="0 0 512 512" version="1.1" xmlns="http://www.w3.org/2000/svg" xmlns:xlink="http://www.w3.org/1999/xlink" xml:space="preserve" xmlns:serif="http://www.serif.com/" style="fill-rule:evenodd;clip-rule:evenodd;stroke-linejoin:round;stroke-miterlimit:2;">
    <g transform="matrix(1.11593,-4.03717e-17,4.03717e-17,1.11593,-13.9687,-19.1113)">
        <g transform="matrix(11.1111,-2.35563e-31,0,11.1111,-2371.15,-2417.74)">
            <g>
                <g transform="matrix(0.896117,3.24196e-17,-3.24196e-17,0.896117,219.046,223.655)">
                    <path d="M1.123,29.695C1.285,29.879 2.249,30.981 4.002,30.751C11.37,29.786 11.847,28.83 18.359,30.934C21.72,32.02 23.307,32.985 32.069,31.737C34.172,31.438 36.268,29.3 36.472,27.17C37.437,17.129 37.336,16.966 36.304,9.019C36.274,8.79 36.106,7.495 35.022,6.428C28.307,11.81 26.601,14.744 18.761,17.588C9.015,21.123 10.374,23.457 1.123,29.695Z" style="fill:rgb(0,149,67);fill-rule:nonzero;"/>
                </g>
                <g transform="matrix(0.896117,3.24196e-17,-3.24196e-17,0.896117,219.046,223.655)">
                    <path d="M34.971,6.373C34.79,6.202 33.703,5.17 32,5.435C24.446,6.606 24.298,6.804 18.359,4.935C11.85,2.887 11.375,3.817 4,4.757C1.899,5.025 -0.023,6.737 0.255,9.01C0.697,12.631 1.416,14.687 1.447,17.745C1.48,20.89 0.734,24.117 0.333,26.993C0.123,28.495 0.938,29.469 1.079,29.637C9.679,23.869 9.552,20.853 18.123,17.726C26.955,14.503 27.231,12.583 34.971,6.373Z" style="fill:rgb(0,53,128);fill-rule:nonzero;"/>
                </g>
                <g transform="matrix(0.896117,3.24196e-17,-3.24196e-17,0.896117,219.046,223.655)">
                    <path d="M36.304,9.019C36.033,6.93 34.291,5.079 32,5.435L31.336,5.54C22.867,13.342 19.982,13.261 16.107,14.903C9.566,17.675 8.876,21.674 0.341,26.935L0.333,26.993C0.032,29.153 1.734,31.048 4.002,30.751L4.666,30.659C12.437,24.158 12.219,23.683 19.892,20.771C25.837,18.515 30.708,13.605 36.312,9.079L36.304,9.019Z" style="fill:rgb(238,238,238);fill-rule:nonzero;"/>
                </g>
                <g transform="matrix(0.896117,3.24196e-17,-3.24196e-17,0.896117,219.046,223.655)">
                    <path d="M32.984,5.432C24.047,13.239 23.851,13.079 16.872,15.876C9.507,18.829 9.321,22.412 0.37,28.103C0.607,29.423 1.657,30.558 3.092,30.744C11.542,24.046 10.895,22.931 18.88,19.932C26.542,17.055 29.138,13.517 36.02,7.971C35.906,7.676 35.144,5.701 32.984,5.432Z" style="fill:rgb(210,15,52);fill-rule:nonzero;"/>
                </g>
                <g transform="matrix(0.896117,3.24196e-17,-3.24196e-17,0.896117,219.046,223.655)">
                    <path d="M8.04,7.137C8.108,7.286 8.628,8.416 8.892,9C9.685,8.208 10.366,7.601 10.498,7.483C10.477,7.655 10.365,8.561 10.25,9.633C11.335,9.358 12.159,9.232 12.326,9.206C11.649,10.087 11.147,10.817 11.049,10.96C11.207,11.015 12.241,11.371 13,11.711C12.096,12.045 11.224,12.499 11.074,12.577C11.177,12.706 11.701,13.371 12.339,14.209C12.183,14.19 11.4,14.099 10.38,14.069C10.405,14.236 10.526,15.04 10.669,16.163C10.552,16.074 9.938,15.61 9.19,15.07C8.846,16.228 8.594,17.007 8.54,17.175C8.178,16.18 7.893,15.479 7.833,15.333C7.725,15.461 6.922,16.419 6.473,16.933C6.49,16.759 6.579,15.845 6.615,14.75C5.56,15.139 4.978,15.324 4.834,15.369C4.913,15.216 4.903,15.213 5.769,13.422C4.67,13.119 4.02,12.921 3.868,12.874C4.005,12.793 4.547,12.47 5.55,11.811C5.436,11.69 5.05,11.28 4.107,10.303C4.268,10.305 4.946,10.315 6.127,10.285C5.851,9.105 5.694,8.375 5.658,8.209C5.795,8.291 6.803,8.9 7.365,9.248C7.415,9.078 7.676,8.2 8.04,7.137Z" style="fill:rgb(255,206,0);fill-rule:nonzero;"/>
                </g>
                <g transform="matrix(0.896117,3.24196e-17,-3.24196e-17,0.896117,219.046,223.655)">
                    <path d="M8.118,8.964C9.787,8.691 11.185,10.003 11.209,11.757C11.233,13.477 9.951,15.073 8.513,15.354C6.763,15.696 5.702,13.955 5.519,12.641C5.261,10.783 6.56,9.219 8.118,8.964Z" style="fill:rgb(0,53,128);"/>
                </g>
                <g transform="matrix(0.896117,3.24196e-17,-3.24196e-17,0.896117,219.046,223.655)">
                    <path d="M8.157,9.672C9.419,9.463 10.511,10.439 10.544,11.816C10.574,13.113 9.633,14.419 8.485,14.64C7.179,14.891 6.283,13.639 6.146,12.532C5.969,11.109 6.942,9.874 8.157,9.672Z" style="fill:rgb(255,206,0);"/>
                </g>
            </g>
        </g>
    </g>
</svg>
