<?xml version="1.0" encoding="UTF-8" standalone="no"?>
<!DOCTYPE svg PUBLIC "-//W3C//DTD SVG 1.1//EN" "http://www.w3.org/Graphics/SVG/1.1/DTD/svg11.dtd">
<svg width="100%" height="100%" viewBox="0 0 512 512" version="1.1" xmlns="http://www.w3.org/2000/svg" xmlns:xlink="http://www.w3.org/1999/xlink" xml:space="preserve" xmlns:serif="http://www.serif.com/" style="fill-rule:evenodd;clip-rule:evenodd;stroke-linejoin:round;stroke-miterlimit:2;">
    <g transform="matrix(1.11593,-4.03717e-17,4.03717e-17,1.11593,-13.9687,-19.1113)">
        <g transform="matrix(11.1111,-2.35563e-31,0,11.1111,-2371.15,-2417.74)">
            <g>
                <g transform="matrix(0.896117,3.24196e-17,-3.24196e-17,0.896117,219.046,223.655)">
                    <path d="M36.469,27.17C36.262,29.289 34.174,31.437 32.068,31.737C22.767,33.063 21.617,31.929 16.923,30.475C12.025,28.957 9.41,30.043 4.002,30.751C1.724,31.049 0.033,29.147 0.333,26.993C0.731,24.136 1.48,20.893 1.447,17.745C1.416,14.7 0.699,12.641 0.255,9.01C-0.023,6.74 1.891,5.026 4,4.757C11.375,3.817 11.85,2.887 18.359,4.935C24.284,6.8 24.43,6.609 32,5.435C34.301,5.078 36.029,6.947 36.301,9.019C37.37,17.151 37.446,17.168 36.469,27.17Z" style="fill:rgb(0,43,127);fill-rule:nonzero;"/>
                </g>
                <g transform="matrix(0.896117,3.24196e-17,-3.24196e-17,0.896117,219.046,223.655)">
                    <path d="M1.432,17.112C9.968,17.209 10.143,14.069 19.238,16.944C28.421,19.847 28.604,17.3 37.112,17.011C37.142,18.035 37.131,18.853 37.128,19.013C28.623,19.306 28.441,21.856 19.257,18.954C10.367,16.145 10.185,19.14 1.421,19.074C1.47,18.072 1.438,17.269 1.432,17.112Z" style="fill:rgb(255,198,30);fill-rule:nonzero;"/>
                </g>
                <g transform="matrix(0.896117,3.24196e-17,-3.24196e-17,0.896117,219.046,223.655)">
                    <path d="M10.897,18.38C11.097,19.337 11.217,20.123 11.241,20.275C11.726,19.761 12.211,19.248 12.696,18.734C12.378,19.739 12.074,20.538 12.015,20.693C13.171,20.297 13.833,20.157 13.994,20.123C13.863,20.231 13.176,20.797 12.399,21.509C13.491,21.747 14.158,21.995 14.307,22.05C13.414,22.167 12.445,22.444 12.286,22.49C12.393,22.602 13.151,23.401 13.594,23.904C13.447,23.85 12.845,23.633 11.71,23.367C11.888,24.367 12.045,25.135 12.076,25.289C11.662,24.836 10.924,24.036 10.824,23.927C10.455,25.009 10.207,25.783 10.155,25.945C10.129,25.793 10.004,25.043 9.869,24.036C9.746,24.168 9.193,24.759 8.345,25.691C8.405,25.528 8.666,24.815 9.106,23.659C8.951,23.727 8.515,23.915 7.172,24.519C7.697,23.973 8.222,23.427 8.746,22.881C7.851,22.785 7.864,22.791 6.96,22.703C7.114,22.639 8.743,21.955 8.877,21.9C8.248,21.271 7.788,20.83 7.693,20.738C8.825,20.889 9.309,20.963 9.449,20.985C9.425,20.837 9.301,20.064 9.099,19.145C9.197,19.243 9.717,19.762 10.305,20.384C10.357,20.225 10.629,19.395 10.897,18.38Z" style="fill:white;fill-rule:nonzero;"/>
                </g>
            </g>
        </g>
    </g>
</svg>
