<?xml version="1.0" encoding="UTF-8" standalone="no"?>
<!DOCTYPE svg PUBLIC "-//W3C//DTD SVG 1.1//EN" "http://www.w3.org/Graphics/SVG/1.1/DTD/svg11.dtd">
<svg width="100%" height="100%" viewBox="0 0 512 512" version="1.1" xmlns="http://www.w3.org/2000/svg" xmlns:xlink="http://www.w3.org/1999/xlink" xml:space="preserve" xmlns:serif="http://www.serif.com/" style="fill-rule:evenodd;clip-rule:evenodd;stroke-linejoin:round;stroke-miterlimit:2;">
    <g transform="matrix(1.11593,-4.03717e-17,4.03717e-17,1.11593,-13.9687,-19.1113)">
        <g transform="matrix(11.1111,-2.35563e-31,0,11.1111,-2371.15,-2417.74)">
            <g>
                <g transform="matrix(0.896117,3.24196e-17,-3.24196e-17,0.896117,219.046,223.655)">
                    <path d="M1.083,14.014C6.955,14.022 10.556,12.253 14.67,12.804C17.585,13.194 21.247,14.916 24.183,15.266C27.706,15.686 33.007,14.142 36.938,14.011C37.01,14.867 37.305,18.388 36.973,22.012C29.444,22.267 28.252,24.835 19.832,22.179C16.676,21.183 14.95,20.448 11.155,20.826C7.459,21.194 5.756,22.004 1.125,22.002C1.426,19.933 1.671,17.192 1.083,14.014Z" style="fill:rgb(238,238,238);fill-rule:nonzero;"/>
                </g>
                <g transform="matrix(0.896117,3.24196e-17,-3.24196e-17,0.896117,219.046,223.655)">
                    <path d="M32,5.435C24.446,6.606 24.298,6.804 18.359,4.935C11.85,2.887 11.375,3.817 4,4.757C1.891,5.026 -0.023,6.74 0.255,9.01C0.445,10.564 1.009,13.615 1.083,14.014C6.955,14.022 10.556,12.253 14.67,12.804C17.585,13.194 21.247,14.916 24.183,15.266C27.706,15.686 33.007,14.142 36.938,14.011C36.805,12.429 36.432,10.014 36.301,9.019C36.029,6.947 34.301,5.078 32,5.435Z" style="fill:rgb(174,31,40);fill-rule:nonzero;"/>
                </g>
                <g transform="matrix(0.896117,3.24196e-17,-3.24196e-17,0.896117,219.046,223.655)">
                    <path d="M4.002,30.751C11.374,29.786 11.848,28.83 18.359,30.934C21.72,32.019 23.309,32.985 32.068,31.737C34.174,31.437 36.262,29.289 36.469,27.17C36.561,26.214 36.653,25.258 36.745,24.301C36.952,22.191 36.957,22.196 36.973,22.012C29.444,22.267 28.252,24.835 19.832,22.179C16.676,21.183 14.95,20.448 11.155,20.826C7.459,21.194 5.756,22.004 1.125,22.002C1.022,22.707 0.496,25.824 0.333,26.993C0.033,29.147 1.724,31.049 4.002,30.751Z" style="fill:rgb(32,71,139);fill-rule:nonzero;"/>
                </g>
            </g>
        </g>
    </g>
</svg>
