<?xml version="1.0" encoding="UTF-8" standalone="no"?>
<!DOCTYPE svg PUBLIC "-//W3C//DTD SVG 1.1//EN" "http://www.w3.org/Graphics/SVG/1.1/DTD/svg11.dtd">
<svg width="100%" height="100%" viewBox="0 0 512 512" version="1.1" xmlns="http://www.w3.org/2000/svg" xmlns:xlink="http://www.w3.org/1999/xlink" xml:space="preserve" xmlns:serif="http://www.serif.com/" style="fill-rule:evenodd;clip-rule:evenodd;stroke-linejoin:round;stroke-miterlimit:2;">
    <g transform="matrix(1.11593,-4.03717e-17,4.03717e-17,1.11593,-13.9687,-19.1113)">
        <g transform="matrix(11.1111,-2.35563e-31,0,11.1111,-2371.15,-2417.74)">
            <g>
                <g transform="matrix(0.896117,3.24196e-17,-3.24196e-17,0.896117,219.046,223.655)">
                    <path d="M36.472,27.17C36.268,29.3 34.172,31.438 32.069,31.737C22.764,33.062 21.617,31.929 16.923,30.475C12.024,28.957 9.406,30.043 4.002,30.751C1.734,31.048 0.032,29.153 0.333,26.993C0.731,24.136 1.48,20.893 1.447,17.745C1.416,14.7 0.699,12.641 0.255,9.01C-0.023,6.737 1.899,5.025 4,4.757C11.375,3.817 11.85,2.887 18.359,4.935C24.284,6.8 24.43,6.609 32,5.435C34.291,5.079 36.033,6.93 36.304,9.019C37.335,16.956 37.438,17.114 36.472,27.17Z" style="fill:rgb(0,149,67);fill-rule:nonzero;"/>
                </g>
                <g transform="matrix(0.896117,3.24196e-17,-3.24196e-17,0.896117,219.046,223.655)">
                    <path d="M0.892,13.007C6.763,13.011 9.897,11.244 14.04,11.804C16.931,12.195 20.485,13.916 23.399,14.266C26.851,14.681 32.801,13.147 36.836,13.017C37.376,17.912 36.941,22.27 36.862,23.071C27.88,23.393 27.679,25.945 18.36,22.934C9.959,20.22 9.783,22.994 0.971,22.997C1.792,17.917 1.408,15.774 0.892,13.007Z" style="fill:rgb(237,65,53);fill-rule:nonzero;"/>
                </g>
                <g transform="matrix(0.896117,3.24196e-17,-3.24196e-17,0.896117,219.046,223.655)">
                    <path d="M32,5.435C24.446,6.606 24.298,6.804 18.359,4.935C11.85,2.887 11.375,3.817 4,4.757C1.899,5.025 -0.023,6.737 0.255,9.01C0.459,10.68 0.833,12.689 0.892,13.007C6.763,13.011 9.897,11.244 14.04,11.804C16.931,12.195 20.485,13.916 23.399,14.266C26.851,14.681 32.801,13.147 36.836,13.017C36.736,12.112 36.336,9.263 36.304,9.019C36.033,6.93 34.291,5.079 32,5.435Z" style="fill:rgb(0,53,173);fill-rule:nonzero;"/>
                </g>
                <g transform="matrix(0.205938,-0.872133,0.872133,0.205938,212.32,247.417)">
                    <path d="M13.413,9.701C21.208,8.832 24.053,14.322 23.37,17.771C22.579,21.757 17.753,27.713 11.976,27.643C11.533,27.638 8.656,27.603 6.981,25.263C6.615,24.752 5.164,22.726 4.786,17.723C4.692,16.494 3.964,10.754 13.413,9.701Z" style="fill:rgb(20,20,20);"/>
                </g>
                <g transform="matrix(0.896117,3.24196e-17,-3.24196e-17,0.896117,219.046,223.655)">
                    <path d="M13,7.711C16.983,7.867 21.999,13.674 21.999,19.019C21.999,21.124 21.257,22.915 20.079,24.047C18.045,26.003 14.854,25.784 13,25.711C10.026,25.594 5.185,25.159 5.22,17.827C5.263,8.778 11.286,7.644 13,7.711Z" style="fill:rgb(250,230,0);"/>
                </g>
                <g transform="matrix(0.896117,3.24196e-17,-3.24196e-17,0.896117,219.046,223.655)">
                    <path d="M12.87,7.715L13.192,7.728L13.192,25.712L12.87,25.699L12.87,7.715Z" style="fill:rgb(20,20,20);fill-rule:nonzero;"/>
                    <path d="M14.25,13.554C14.25,14.202 13.704,14.679 13.031,14.65C12.32,14.62 11.846,14.065 11.839,13.444C11.831,12.74 12.407,12.186 13.031,12.212C13.682,12.24 14.25,12.887 14.25,13.554ZM14.031,21.069C14.031,21.889 13.534,22.421 13.031,22.4C12.519,22.378 12.035,21.796 12.041,20.979C12.048,20.164 12.524,19.535 13.031,19.556C13.538,19.578 14.031,20.251 14.031,21.069ZM14.25,17.116C14.25,17.451 13.804,17.76 13.031,17.727C12.182,17.691 11.856,17.299 11.856,17.009C11.857,16.646 12.336,16.23 13.031,16.259C13.72,16.288 14.25,16.741 14.25,17.116ZM11.701,11.727C11.687,11.627 11.573,10.854 11.815,10.472C12.036,10.122 12.691,9.725 13.251,9.63C13.771,9.541 14.414,8.954 14.5,8.876C14.485,9.051 14.329,10.038 13.531,10.621C13.112,10.927 12.067,11.55 11.701,11.727ZM11.01,13.561C11.075,13.6 11.463,13.836 11.585,14.301C11.811,15.163 12.585,15.221 13,15.237L13,15.799C12.899,15.802 12.095,15.83 11.74,15.699C11.367,15.56 11.19,14.791 11.183,14.363C11.178,14.046 11.032,13.623 11.01,13.561ZM15.109,13.771C15.043,13.799 14.627,13.977 14.5,14.433C14.268,15.264 13.412,15.254 13.031,15.238L13.031,15.8C13.135,15.812 13.948,15.906 14.343,15.812C14.745,15.716 14.937,14.983 14.937,14.546C14.937,14.232 15.087,13.83 15.109,13.771Z" style="fill:rgb(20,20,20);fill-rule:nonzero;"/>
                    <path d="M14.938,20.147C14.938,19.763 14.747,18.894 14.329,18.66C13.797,18.362 13.11,18.277 13,18.264C12.555,18.284 11.978,18.426 11.735,18.544C11.358,18.726 11.177,19.536 11.17,19.952C11.166,20.203 10.995,21.629 10.978,21.775C11.046,21.649 11.62,20.601 11.735,20.16C11.86,19.68 12.379,19.068 13,19.092C13.643,19.117 14.202,19.765 14.328,20.259C14.446,20.72 15.032,21.858 15.102,21.993C15.086,21.846 14.938,20.458 14.938,20.147ZM13,22.711L13,25.711C12.788,25.725 11.804,25.716 10.882,25.544C9.586,25.302 9.353,25.2 9.459,25.247C9.598,25.088 10.671,23.857 11.241,23.315C11.773,22.809 12.659,22.697 13,22.711ZM13,22.711L13,25.711C13.227,25.744 14.382,25.798 15.125,25.764C16.498,25.702 16.724,25.666 16.609,25.694C16.469,25.513 15.445,24.19 14.781,23.49C14.248,22.929 13.393,22.726 13,22.711Z" style="fill:rgb(20,20,20);fill-rule:nonzero;"/>
                </g>
            </g>
        </g>
    </g>
</svg>
