<?xml version="1.0" encoding="UTF-8" standalone="no"?>
<!DOCTYPE svg PUBLIC "-//W3C//DTD SVG 1.1//EN" "http://www.w3.org/Graphics/SVG/1.1/DTD/svg11.dtd">
<svg width="100%" height="100%" viewBox="0 0 512 512" version="1.1" xmlns="http://www.w3.org/2000/svg" xmlns:xlink="http://www.w3.org/1999/xlink" xml:space="preserve" xmlns:serif="http://www.serif.com/" style="fill-rule:evenodd;clip-rule:evenodd;stroke-linejoin:round;stroke-miterlimit:2;">
    <g transform="matrix(1.11593,-4.03717e-17,4.03717e-17,1.11593,-13.9687,-19.1113)">
        <g transform="matrix(11.1111,-2.35563e-31,0,11.1111,-2371.15,-2417.74)">
            <g>
                <g transform="matrix(0.896117,3.24196e-17,-3.24196e-17,0.896117,219.046,223.655)">
                    <path d="M32,5.435C24.446,6.606 24.298,6.804 18.359,4.935C11.85,2.887 11.375,3.817 4,4.757L3.396,4.874C3.396,5.014 3.394,5.712 3.451,6.629C1.954,6.798 0.935,6.798 0.716,6.798C0.338,7.429 0.158,8.22 0.255,9.01C0.697,12.631 1.416,14.687 1.447,17.745C1.48,20.89 0.734,24.117 0.333,26.993C0.033,29.147 1.724,31.049 4.002,30.751C11.374,29.786 11.848,28.83 18.359,30.934C21.72,32.019 23.309,32.985 32.068,31.737C34.174,31.437 36.262,29.289 36.469,27.17C37.445,17.176 37.371,17.158 36.301,9.019C36.029,6.947 34.301,5.078 32,5.435Z" style="fill:rgb(0,36,125);fill-rule:nonzero;"/>
                </g>
                <g transform="matrix(0.896117,3.24196e-17,-3.24196e-17,0.896117,219.046,223.655)">
                    <path d="M29.506,10.403L28.232,10.586L27.971,10.033L27.66,9.358L27.494,10.09L27.363,10.69L26.093,10.795L26.682,11.2L27.203,11.547L27.074,12.152L26.898,12.958L27.5,12.393L27.956,11.954L28.506,12.274L29.233,12.686L28.865,11.943L28.591,11.384L29.02,10.927L29.506,10.403Z" style="fill:rgb(238,237,237);fill-rule:nonzero;"/>
                </g>
                <g transform="matrix(0.896117,3.24196e-17,-3.24196e-17,0.896117,219.046,223.655)">
                    <path d="M27.741,10.142L27.573,10.919L26.819,10.994L27.488,11.435L27.321,12.21L27.917,11.639L28.636,12.055L28.285,11.341L28.836,10.757L28.08,10.859L27.741,10.142Z" style="fill:rgb(207,27,43);fill-rule:nonzero;"/>
                </g>
                <g transform="matrix(0.896117,3.24196e-17,-3.24196e-17,0.896117,219.046,223.655)">
                    <path d="M29.669,26.783L28.378,26.926L28.243,26.36L28.08,25.667L27.76,26.404L27.498,27.004L26.214,27.076L26.708,27.496L27.148,27.857L26.884,28.457L26.538,29.253L27.255,28.709L27.801,28.287L28.273,28.626L28.899,29.064L28.698,28.308L28.552,27.739L29.076,27.295L29.669,26.783Z" style="fill:rgb(238,237,237);fill-rule:nonzero;"/>
                </g>
                <g transform="matrix(0.896117,3.24196e-17,-3.24196e-17,0.896117,219.046,223.655)">
                    <path d="M27.992,26.463L27.655,27.24L26.891,27.293L27.454,27.754L27.118,28.522L27.832,27.972L28.448,28.412L28.262,27.686L28.933,27.119L28.167,27.196L27.992,26.463Z" style="fill:rgb(207,27,43);fill-rule:nonzero;"/>
                </g>
                <g transform="matrix(0.896117,3.24196e-17,-3.24196e-17,0.896117,219.046,223.655)">
                    <path d="M34.057,13.769L32.773,13.957L32.514,13.408L32.19,12.74L32.031,13.486L31.895,14.098L30.608,14.309L31.194,14.664L31.708,14.974L31.549,15.594L31.326,16.422L31.964,15.807L32.444,15.341L32.976,15.644L33.674,16.047L33.353,15.305L33.107,14.749L33.554,14.287L34.057,13.769Z" style="fill:rgb(238,237,237);fill-rule:nonzero;"/>
                </g>
                <g transform="matrix(0.896117,3.24196e-17,-3.24196e-17,0.896117,219.046,223.655)">
                    <path d="M32.282,13.527L32.102,14.319L31.339,14.444L31.998,14.843L31.795,15.635L32.421,15.026L33.119,15.422L32.803,14.713L33.376,14.118L32.613,14.236L32.282,13.527Z" style="fill:rgb(207,27,43);fill-rule:nonzero;"/>
                </g>
                <g transform="matrix(0.896117,3.24196e-17,-3.24196e-17,0.896117,219.046,223.655)">
                    <path d="M26.094,16.836C25.37,16.858 24.93,16.826 24.829,16.819L24.595,16.222L24.302,15.491L24.118,16.169L23.96,16.723C23.857,16.707 23.358,16.633 22.681,16.475L23.248,17.038L23.745,17.518L23.565,18.072L23.313,18.807L23.966,18.418L24.456,18.099L24.967,18.528L25.634,19.056L25.35,18.267L25.129,17.67L25.583,17.289L26.094,16.836Z" style="fill:rgb(238,237,237);fill-rule:nonzero;"/>
                </g>
                <g transform="matrix(0.896117,3.24196e-17,-3.24196e-17,0.896117,219.046,223.655)">
                    <path d="M24.362,16.278L24.156,16.999L23.399,16.876L24.036,17.482L23.806,18.194L24.445,17.783L25.116,18.338L24.832,17.57L25.414,17.095L24.662,17.055L24.362,16.278Z" style="fill:rgb(207,27,43);fill-rule:nonzero;"/>
                </g>
                <g transform="matrix(0.896117,3.24196e-17,-3.24196e-17,0.896117,219.046,223.655)">
                    <path d="M19.912,18.16C19.866,13.285 19,9.376 19,5.141C11.806,2.837 11.647,3.783 4,4.757L3.396,4.874C3.396,5.014 3.394,5.712 3.451,6.629C1.954,6.798 0.935,6.798 0.716,6.798L0.602,7.003C0.528,7.148 0.124,7.941 0.255,9.01C0.715,12.775 1.468,14.811 1.448,18.098C5.841,18.143 7.652,17.208 11.988,16.792C15.05,16.498 17.294,17.318 19.912,18.16Z" style="fill:rgb(0,36,125);fill-rule:nonzero;"/>
                </g>
                <g transform="matrix(0.896117,3.24196e-17,-3.24196e-17,0.896117,219.046,223.655)">
                    <path d="M19,5.141C18.814,5.082 17.267,4.586 16.669,4.415C14.496,5.171 12.449,6.757 12.117,7.013C12,5.326 12,4.009 12,3.747C10.226,3.803 7.398,4.248 7,4.311C7,5.604 7.077,6.67 7.092,6.875C6.075,6.341 4.972,5.77 3.396,4.874C2.458,5.119 1.849,5.59 1.732,5.68C3.536,6.825 6.373,8.265 6.655,8.411C5.573,8.586 5.085,8.657 4.948,8.677C4.625,8.506 2.56,7.418 0.999,6.39L0.716,6.798C2.13,7.74 3.807,8.645 4.082,8.794C2.026,9.051 0.541,9.01 0.255,9.01C0.445,10.564 1.009,13.615 1.083,14.014C1.325,14.014 2.869,14.061 4.95,13.777C2.953,15.936 1.742,16.681 1.421,16.878L1.448,18.098C1.531,18.099 2.939,18.155 4.774,17.919C6.063,16.808 7.786,15.033 8.039,14.773C8.156,16.07 8.16,17.146 8.161,17.353C8.532,17.285 11.121,16.809 12.84,16.739C12.837,16.476 12.823,15.197 12.689,13.449C13.793,14.162 15.27,15.211 17.534,17.416C18.144,17.592 19.722,18.099 19.912,18.16C19.91,17.997 19.903,17.169 19.849,16.12C19.611,15.888 17.918,14.235 16.843,13.261C17.629,13.473 19.484,14.071 19.713,14.145C19.619,13.038 19.302,10.181 19.207,9.157C18.981,9.085 17.15,8.496 16.373,8.287C17.253,7.881 18.839,7.263 19.055,7.178C19.046,7.015 19,6.183 19,5.141Z" style="fill:rgb(238,238,238);fill-rule:nonzero;"/>
                </g>
                <g transform="matrix(0.896117,3.24196e-17,-3.24196e-17,0.896117,219.046,223.655)">
                    <path d="M11,3.801C10.759,3.819 9.761,3.893 8,4.157C8,4.826 8.012,6.514 8.307,9.172C4.881,9.699 3.684,10.017 0.388,10.012C0.423,10.253 0.574,11.299 0.892,13.007C4.163,13.009 5.176,12.716 8.677,12.156C8.729,12.556 9.069,15.171 9.08,17.187C10.701,16.904 11.655,16.821 11.88,16.801C11.861,14.822 11.597,12.196 11.557,11.796C14.707,11.557 16.349,12.108 19.621,13.154C19.579,12.73 19.317,10.276 19.306,10.161C16.083,9.131 14.474,8.581 11.259,8.817C11.019,6.227 11,4.709 11,3.801Z" style="fill:rgb(207,27,43);fill-rule:nonzero;"/>
                </g>
                <g transform="matrix(0.896117,3.24196e-17,-3.24196e-17,0.896117,219.046,223.655)">
                    <path d="M19,5.141L17.539,4.676C14.262,5.835 12.254,7.561 12.163,7.632L12.172,7.754C13.087,7.727 13.623,7.776 13.748,7.787C15.657,6.538 18.103,5.676 19,5.343L19,5.141ZM1.732,5.68C1.313,5.999 1.05,6.326 0.999,6.39C2.56,7.418 4.625,8.506 4.948,8.677C5.085,8.657 5.573,8.586 6.654,8.411C6.455,8.308 3.556,6.839 1.732,5.68ZM7.344,13.391C6.426,14.384 4.435,16.582 2.29,18.105C2.423,18.103 3.087,18.095 3.953,18.012C5.688,16.592 7.771,14.364 7.976,14.149L7.87,13.299L7.344,13.391ZM19.91,17.961L19.877,16.735C19.821,16.68 17.553,14.422 15.958,13.04C15.012,12.826 14.339,12.763 14.196,12.749C16.335,14.348 18.937,16.986 19.91,17.961Z" style="fill:rgb(207,27,43);fill-rule:nonzero;"/>
                </g>
            </g>
        </g>
    </g>
</svg>
