<?xml version="1.0" encoding="UTF-8" standalone="no"?>
<!DOCTYPE svg PUBLIC "-//W3C//DTD SVG 1.1//EN" "http://www.w3.org/Graphics/SVG/1.1/DTD/svg11.dtd">
<svg width="100%" height="100%" viewBox="0 0 512 512" version="1.1" xmlns="http://www.w3.org/2000/svg" xmlns:xlink="http://www.w3.org/1999/xlink" xml:space="preserve" xmlns:serif="http://www.serif.com/" style="fill-rule:evenodd;clip-rule:evenodd;stroke-linejoin:round;stroke-miterlimit:2;">
    <g transform="matrix(1.11593,-4.03717e-17,4.03717e-17,1.11593,-13.9687,-19.1113)">
        <g transform="matrix(11.1111,-3.0404e-31,-4.93038e-32,11.1111,-2371.15,-2417.74)">
            <g>
                <g transform="matrix(0.896117,3.24196e-17,-3.24196e-17,0.896117,219.046,223.655)">
                    <path d="M36.469,27.17C36.262,29.289 34.174,31.437 32.068,31.737C22.767,33.063 21.617,31.929 16.923,30.475C12.025,28.957 9.41,30.043 4.002,30.751C1.724,31.049 0.033,29.147 0.333,26.993C0.731,24.136 1.48,20.893 1.447,17.745C1.416,14.7 0.699,12.641 0.255,9.01C-0.023,6.74 1.891,5.026 4,4.757C11.375,3.817 11.85,2.887 18.359,4.935C24.284,6.8 24.43,6.609 32,5.435C34.301,5.078 36.029,6.947 36.301,9.019C37.37,17.151 37.446,17.168 36.469,27.17Z" style="fill:rgb(38,95,181);fill-rule:nonzero;"/>
                </g>
                <g transform="matrix(0.896117,3.24196e-17,-3.24196e-17,0.896117,219.046,223.655)">
                    <path d="M0.892,13.007C6.863,13.011 10.459,11.29 14.586,11.83C17.499,12.211 21.15,13.92 24.084,14.26C27.64,14.673 32.914,13.142 36.841,13.017C37.389,17.917 36.948,22.27 36.867,23.071C28.303,23.382 28.115,25.823 18.99,22.933C10.289,20.176 10.108,22.994 0.971,22.997C1.792,17.917 1.408,15.774 0.892,13.007Z" style="fill:rgb(238,238,238);fill-rule:nonzero;"/>
                </g>
                <g transform="matrix(0.896117,3.24196e-17,-3.24196e-17,0.896117,219.046,223.655)">
                    <path d="M23.529,19.147C23.547,21.526 21.493,23.275 18.672,22.373C16.484,21.673 14.302,19.498 14.27,16.758C14.242,14.479 15.764,12.348 18.644,13.265C20.9,13.984 23.508,16.488 23.529,19.147Z" style="fill:rgb(169,191,76);fill-rule:nonzero;"/>
                </g>
                <g transform="matrix(0.896117,3.24196e-17,-3.24196e-17,0.896117,219.046,223.655)">
                    <path d="M18.693,13.816C20.721,14.465 22.946,16.716 22.965,19.032C22.982,21.137 21.161,22.601 18.731,21.824C16.708,21.177 14.857,19.154 14.83,16.818C14.806,14.741 16.257,13.036 18.693,13.816Z" style="fill:rgb(238,238,238);"/>
                </g>
                <g transform="matrix(0.896117,3.24196e-17,-3.24196e-17,0.896117,219.046,223.655)">
                    <path d="M15.564,19.102C17.221,16.754 18.481,14.76 18.724,14.375C19.918,16.511 21.144,18.902 22.131,20.996C20.427,20.547 17.522,19.473 15.564,19.102Z" style="fill:rgb(38,95,181);fill-rule:nonzero;"/>
                </g>
                <g transform="matrix(0.896117,3.24196e-17,-3.24196e-17,0.896117,219.046,223.655)">
                    <path d="M15.935,18.958C17.412,16.879 18.536,15.121 18.753,14.781C20.371,17.707 21.548,20.201 21.775,20.681C20.42,20.302 17.617,19.317 15.935,18.958Z" style="fill:rgb(85,172,238);fill-rule:nonzero;"/>
                </g>
                <g transform="matrix(0.896117,3.24196e-17,-3.24196e-17,0.896117,219.046,223.655)">
                    <path d="M15.935,18.958L16.663,17.921C17.788,18.191 20.555,19.062 21.066,19.211C21.123,19.328 21.427,19.944 21.775,20.681C20.42,20.302 17.617,19.317 15.935,18.958Z" style="fill:rgb(187,221,245);fill-rule:nonzero;"/>
                </g>
                <g transform="matrix(0.896117,3.24196e-17,-3.24196e-17,0.896117,219.046,223.655)">
                    <path d="M16.519,18.305L17.62,17.723L18.096,18.398L18.512,18.087L18.861,18.543L19.197,18.29L19.595,18.779L19.962,18.52L20.295,19.004L20.614,18.759L21.135,19.564L21.228,19.781C20.672,19.724 20.007,19.456 19.906,19.415C19.289,19.166 19.281,19.233 18.086,19.026C17.586,18.938 16.536,18.534 16.405,18.483L16.519,18.305Z" style="fill:rgb(92,145,59);fill-rule:nonzero;"/>
                </g>
                <g transform="matrix(0.896117,3.24196e-17,-3.24196e-17,0.896117,219.046,223.655)">
                    <path d="M17.604,17.907L18.329,18.911L17.962,18.83L17.557,18.113L17.604,17.907ZM18.48,18.235L19.065,18.939L18.793,18.9L18.511,18.417L18.48,18.235ZM19.228,18.442L19.735,19.077L19.606,19.114L19.196,18.541L19.228,18.442ZM19.897,18.657L19.69,18.779L19.785,18.92L19.897,18.657ZM20.535,18.877L20.294,19.098L20.372,19.265L20.551,18.991L20.535,18.877Z" style="fill:rgb(226,240,159);fill-rule:nonzero;"/>
                </g>
                <g transform="matrix(0.896117,3.24196e-17,-3.24196e-17,0.896117,219.046,223.655)">
                    <path d="M18.881,16.263L18.981,17.219L19.499,16.626L19.117,17.33L19.954,17.202L19.188,17.486L20.138,17.858L19.191,17.619L19.975,18.404L19.124,17.73L19.535,18.695L18.991,17.754L18.924,18.666L18.855,17.711L18.317,18.307L18.718,17.601L17.876,17.74L18.649,17.446L17.7,17.089L18.647,17.313L17.854,16.537L18.711,17.2L18.279,16.238L18.845,17.176L18.881,16.263Z" style="fill:rgb(187,221,245);fill-rule:nonzero;"/>
                </g>
                <g transform="matrix(0.896117,3.24196e-17,-3.24196e-17,0.896117,219.046,223.655)">
                    <path d="M18.877,17.031L18.69,17.159L18.728,17.499C18.688,17.616 18.956,17.938 18.892,17.832L19.127,17.626L19.056,17.229L18.877,17.031Z" style="fill:rgb(221,46,68);fill-rule:nonzero;"/>
                </g>
                <g transform="matrix(0.896117,3.24196e-17,-3.24196e-17,0.896117,219.046,223.655)">
                    <path d="M18.963,16.731C19.53,16.913 20.056,17.338 20.202,17.503L19.899,16.909C19.832,16.838 19.423,16.413 18.881,16.239C18.336,16.065 17.834,16.273 17.751,16.308L17.496,16.763C17.704,16.677 18.359,16.538 18.963,16.731Z" style="fill:rgb(34,102,153);fill-rule:nonzero;"/>
                </g>
                <g transform="matrix(0.896117,3.24196e-17,-3.24196e-17,0.896117,219.046,223.655)">
                    <path d="M18.963,16.731C19.53,16.913 20.056,17.338 20.202,17.503L19.984,17.076C19.906,17.006 19.412,16.565 18.872,16.392C18.324,16.217 17.766,16.411 17.676,16.442L17.495,16.764C17.534,16.736 18.261,16.506 18.963,16.731Z" style="fill:rgb(255,204,77);fill-rule:nonzero;"/>
                </g>
                <g transform="matrix(0.896117,3.24196e-17,-3.24196e-17,0.896117,219.046,223.655)">
                    <path d="M18.963,16.731C19.53,16.913 20.056,17.338 20.202,17.503L20.051,17.222C19.915,17.087 19.414,16.729 18.878,16.58C18.325,16.403 17.699,16.552 17.6,16.576L17.495,16.764C17.534,16.736 18.261,16.506 18.963,16.731Z" style="fill:rgb(221,46,68);fill-rule:nonzero;"/>
                </g>
                <g transform="matrix(0.896117,3.24196e-17,-3.24196e-17,0.896117,219.046,223.655)">
                    <path d="M18.333,21.441L19.348,21.765L19.251,22.709L18.235,22.384L18.333,21.441ZM18.137,13.973L17.407,13.753L16.97,12.784L17.692,12.916L18.137,13.973ZM19.833,14.905L19.334,14.588L19.48,13.518L20.421,13.893L19.833,14.905ZM15.585,18.585C14.841,18.612 14.284,18.696 14.171,18.713L14.154,17.754C14.267,17.746 14.82,17.706 15.56,17.739L15.585,18.585ZM15.906,19.651C15.28,19.77 14.805,19.898 14.71,19.924L14.474,19.14C14.561,19.12 15.001,19.022 15.573,18.943L15.906,19.651ZM23.755,20.953C23.651,20.906 23.157,20.682 22.476,20.321L22.487,19.644C23.263,19.729 23.823,19.739 23.939,19.741L23.755,20.953ZM23.045,22.139L21.867,21.287L22.302,20.679C23.006,21.073 23.511,21.317 23.618,21.369L23.045,22.139Z" style="fill:rgb(238,238,238);fill-rule:nonzero;"/>
                </g>
            </g>
        </g>
    </g>
</svg>
