<?xml version="1.0" encoding="UTF-8" standalone="no"?>
<!DOCTYPE svg PUBLIC "-//W3C//DTD SVG 1.1//EN" "http://www.w3.org/Graphics/SVG/1.1/DTD/svg11.dtd">
<svg width="100%" height="100%" viewBox="0 0 512 512" version="1.1" xmlns="http://www.w3.org/2000/svg" xmlns:xlink="http://www.w3.org/1999/xlink" xml:space="preserve" xmlns:serif="http://www.serif.com/" style="fill-rule:evenodd;clip-rule:evenodd;stroke-linejoin:round;stroke-miterlimit:2;">
    <g transform="matrix(1.11593,-4.03717e-17,4.03717e-17,1.11593,-13.9687,-19.1113)">
        <g transform="matrix(11.1111,-2.35563e-31,0,11.1111,-2371.15,-2417.74)">
            <g>
                <g transform="matrix(0.896117,3.24196e-17,-3.24196e-17,0.896117,219.046,223.655)">
                    <path d="M32,5.435C24.446,6.606 24.298,6.804 18.359,4.935C11.85,2.887 11.375,3.817 4,4.757L3.396,4.874C3.396,5.014 3.394,5.712 3.451,6.629C1.954,6.798 0.935,6.798 0.716,6.798C0.338,7.429 0.158,8.22 0.255,9.01C0.697,12.631 1.416,14.687 1.447,17.745C1.48,20.89 0.734,24.117 0.333,26.993C0.033,29.147 1.724,31.049 4.002,30.751C11.374,29.786 11.848,28.83 18.359,30.934C21.72,32.019 23.309,32.985 32.068,31.737C34.174,31.437 36.262,29.289 36.469,27.17C37.445,17.176 37.371,17.158 36.301,9.019C36.029,6.947 34.301,5.078 32,5.435Z" style="fill:rgb(255,225,80);fill-rule:nonzero;"/>
                </g>
                <g transform="matrix(0.896117,3.24196e-17,-3.24196e-17,0.896117,219.046,223.655)">
                    <path d="M19.912,18.16C19.866,13.285 19,9.376 19,5.141C11.806,2.837 11.647,3.783 4,4.757L3.396,4.874C3.396,5.014 3.394,5.712 3.451,6.629C1.954,6.798 0.935,6.798 0.716,6.798L0.602,7.003C0.528,7.148 0.124,7.941 0.255,9.01C0.715,12.775 1.468,14.811 1.448,18.098C5.841,18.143 7.652,17.208 11.988,16.792C15.05,16.498 17.294,17.318 19.912,18.16Z" style="fill:rgb(0,36,125);fill-rule:nonzero;"/>
                </g>
                <g transform="matrix(0.896117,3.24196e-17,-3.24196e-17,0.896117,219.046,223.655)">
                    <path d="M19,5.141C18.814,5.082 17.267,4.586 16.669,4.415C14.496,5.171 12.449,6.757 12.117,7.013C12,5.326 12,4.009 12,3.747C10.226,3.803 7.398,4.248 7,4.311C7,5.604 7.077,6.67 7.092,6.875C6.075,6.341 4.972,5.77 3.396,4.874C2.458,5.119 1.849,5.59 1.732,5.68C3.536,6.825 6.373,8.265 6.655,8.411C5.573,8.586 5.085,8.657 4.948,8.677C4.625,8.506 2.56,7.418 0.999,6.39L0.716,6.798C2.13,7.74 3.807,8.645 4.082,8.794C2.026,9.051 0.541,9.01 0.255,9.01C0.445,10.564 1.009,13.615 1.083,14.014C1.325,14.014 2.869,14.061 4.95,13.777C2.953,15.936 1.742,16.681 1.421,16.878L1.448,18.098C1.531,18.099 2.939,18.155 4.774,17.919C6.063,16.808 7.786,15.033 8.039,14.773C8.156,16.07 8.16,17.146 8.161,17.353C8.532,17.285 11.121,16.809 12.84,16.739C12.837,16.476 12.823,15.197 12.689,13.449C13.793,14.162 15.27,15.211 17.534,17.416C18.144,17.592 19.722,18.099 19.912,18.16C19.91,17.997 19.903,17.169 19.849,16.12C19.611,15.888 17.918,14.235 16.843,13.261C17.629,13.473 19.484,14.071 19.713,14.145C19.619,13.038 19.302,10.181 19.207,9.157C18.981,9.085 17.15,8.496 16.373,8.287C17.253,7.881 18.839,7.263 19.055,7.178C19.046,7.015 19,6.183 19,5.141Z" style="fill:rgb(238,238,238);fill-rule:nonzero;"/>
                </g>
                <g transform="matrix(0.896117,3.24196e-17,-3.24196e-17,0.896117,219.046,223.655)">
                    <path d="M11,3.801C10.759,3.819 9.761,3.893 8,4.157C8,4.826 8.012,6.514 8.307,9.172C4.881,9.699 3.684,10.017 0.388,10.012C0.423,10.253 0.574,11.299 0.892,13.007C4.163,13.009 5.176,12.716 8.677,12.156C8.729,12.556 9.069,15.171 9.08,17.187C10.701,16.904 11.655,16.821 11.88,16.801C11.861,14.822 11.597,12.196 11.557,11.796C14.707,11.557 16.349,12.108 19.621,13.154C19.579,12.73 19.317,10.276 19.306,10.161C16.083,9.131 14.474,8.581 11.259,8.817C11.019,6.227 11,4.709 11,3.801Z" style="fill:rgb(207,27,43);fill-rule:nonzero;"/>
                </g>
                <g transform="matrix(0.896117,3.24196e-17,-3.24196e-17,0.896117,219.046,223.655)">
                    <path d="M19,5.141L17.539,4.676C14.262,5.835 12.254,7.561 12.163,7.632L12.172,7.754C13.087,7.727 13.623,7.776 13.748,7.787C15.657,6.538 18.103,5.676 19,5.343L19,5.141ZM1.732,5.68C1.313,5.999 1.05,6.326 0.999,6.39C2.56,7.418 4.625,8.506 4.948,8.677C5.085,8.657 5.573,8.586 6.654,8.411C6.455,8.308 3.556,6.839 1.732,5.68ZM7.344,13.391C6.426,14.384 4.435,16.582 2.29,18.105C2.423,18.103 3.087,18.095 3.953,18.012C5.688,16.592 7.771,14.364 7.976,14.149L7.87,13.299L7.344,13.391ZM19.91,17.961L19.877,16.735C19.821,16.68 17.553,14.422 15.958,13.04C15.012,12.826 14.339,12.763 14.196,12.749C16.335,14.348 18.937,16.986 19.91,17.961Z" style="fill:rgb(207,27,43);fill-rule:nonzero;"/>
                </g>
                <g transform="matrix(0.896117,3.24196e-17,-3.24196e-17,0.896117,219.046,223.655)">
                    <path d="M9.681,7.956C11.076,7.784 12.27,8.932 12.4,10.267C12.541,11.732 11.367,12.773 10.217,12.926C8.95,13.095 7.709,12.204 7.523,10.828C7.333,9.417 8.359,8.12 9.681,7.956Z" style="fill:rgb(0,74,119);"/>
                </g>
                <g transform="matrix(0.896117,3.24196e-17,-3.24196e-17,0.896117,219.046,223.655)">
                    <path d="M9.678,7.922C9.737,8.046 9.996,8.591 10.424,9.466C11.385,9.385 12.092,9.376 12.237,9.375C12.129,9.477 11.587,9.993 10.919,10.689C11.149,11.244 11.38,11.799 11.61,12.354C11.487,12.283 10.872,11.93 10.054,11.489C9.948,11.586 9.435,12.053 8.752,12.716C8.925,11.612 9.015,11.066 9.038,10.923C8.914,10.842 8.405,10.51 7.481,9.921C8.56,9.722 9.108,9.634 9.25,9.611C9.466,8.717 9.642,8.057 9.678,7.922ZM4.299,10.284L4.649,10.96L5.377,10.874L4.871,11.407L5.197,12.089L4.534,11.746L4.013,12.241L4.1,11.505L3.439,11.115L4.17,11.02L4.299,10.284ZM15.493,9.535L15.81,10.297L16.567,10.499L16.009,10.799L16.297,11.561L15.635,10.995L15.056,11.298L15.205,10.628L14.561,10.079L15.313,10.191L15.493,9.535ZM9.503,4.745L9.767,5.427L10.515,5.363L9.938,5.882L10.193,6.583L9.556,6.221L8.972,6.734L9.146,5.981L8.531,5.608L9.276,5.488L9.503,4.745ZM10.345,14.237L10.627,14.92L11.331,14.848L10.795,15.372L11.026,16.067L10.437,15.714L9.882,16.23L10.054,15.478L9.474,15.112L10.167,14.986L10.345,14.237Z" style="fill:rgb(255,225,80);fill-rule:nonzero;"/>
                </g>
            </g>
        </g>
    </g>
</svg>
