<?xml version="1.0" encoding="UTF-8" standalone="no"?>
<!DOCTYPE svg PUBLIC "-//W3C//DTD SVG 1.1//EN" "http://www.w3.org/Graphics/SVG/1.1/DTD/svg11.dtd">
<svg width="100%" height="100%" viewBox="0 0 512 512" version="1.1" xmlns="http://www.w3.org/2000/svg" xmlns:xlink="http://www.w3.org/1999/xlink" xml:space="preserve" xmlns:serif="http://www.serif.com/" style="fill-rule:evenodd;clip-rule:evenodd;stroke-linejoin:round;stroke-miterlimit:2;">
    <g transform="matrix(1.11593,-4.03717e-17,4.03717e-17,1.11593,-13.9687,-19.1113)">
        <g transform="matrix(11.1111,-2.35563e-31,0,11.1111,-2371.15,-2417.74)">
            <g>
                <g transform="matrix(0.896117,3.24196e-17,-3.24196e-17,0.896117,219.046,223.655)">
                    <path d="M4,4.757C1.899,5.025 -0.023,6.737 0.255,9.01C0.697,12.631 1.416,14.687 1.447,17.745C1.48,20.89 0.734,24.117 0.333,26.993C0.032,29.153 1.734,31.048 4.002,30.751C6.166,30.468 9.47,29.796 11.999,29.714C11.988,27.637 12,27.65 12,3.747C9.531,3.825 6.033,4.498 4,4.757ZM32,5.435C30.593,5.653 26.415,6.443 23.999,6.288C23.999,14.967 23.999,23.645 23.999,32.323C26.706,32.501 31.428,31.828 32.069,31.737C34.172,31.438 36.268,29.3 36.472,27.17C37.437,17.129 37.336,16.966 36.304,9.019C36.033,6.93 34.291,5.079 32,5.435Z" style="fill:rgb(0,121,52);fill-rule:nonzero;"/>
                </g>
                <g transform="matrix(0.896117,3.24196e-17,-3.24196e-17,0.896117,219.046,223.655)">
                    <path d="M12,3.747C16.469,3.607 20.03,6.033 23.999,6.288C23.999,14.967 23.999,23.645 23.999,32.323C20.029,32.061 16.471,29.57 11.999,29.714C11.988,27.637 12,27.65 12,3.747Z" style="fill:rgb(238,238,238);fill-rule:nonzero;"/>
                </g>
                <g transform="matrix(0.896117,3.24196e-17,-3.24196e-17,0.896117,219.046,223.655)">
                    <path d="M20.016,22.129C20.198,22.172 21.583,22.746 21.961,22.798C22.259,22.838 22.474,22.817 22.269,22.612C22.132,22.475 21.957,22.448 21.798,22.567C21.753,22.601 21.497,22.617 21.599,22.511C21.718,22.393 21.475,22.339 21.408,22.326C21.202,22.288 21.161,22.319 20.938,22.315C20.901,22.315 20.642,22.185 20.766,22.164C20.835,22.152 20.882,22.111 20.773,22.07C20.726,22.053 20.86,22.006 20.91,22.013C21.123,22.042 21.385,22.203 21.422,22.227C21.532,22.296 21.68,22.316 21.799,22.26C21.902,22.211 21.951,22.152 22.064,22.184C22.24,22.234 22.174,22.101 22.099,22.034C21.958,21.906 21.714,21.845 21.6,21.871C21.497,21.893 21.418,21.855 21.361,21.767C21.288,21.651 21.056,21.663 20.946,21.682C20.77,21.712 20.63,21.771 20.529,21.602C20.463,21.494 19.92,21.482 19.867,21.481C19.768,21.478 19.533,21.402 19.783,21.365C19.903,21.348 20.388,21.444 20.569,21.429C20.717,21.417 21.259,21.648 21.778,21.475C22.03,21.391 21.834,21.317 21.663,21.269C21.562,21.241 21.394,21.183 21.302,21.28C21.257,21.327 21.149,21.332 21.158,21.241C21.171,21.111 20.889,21.11 20.823,21.134C20.79,21.146 20.565,21.246 20.474,21.244C20.415,21.243 20.378,21.231 20.399,21.166C20.42,21.098 20.323,21.117 20.294,21.127C20.223,21.152 20.107,21.172 20.034,21.144C19.886,21.084 19.988,21.003 20.089,20.982C20.133,20.973 20.481,20.858 20.823,20.983C21.157,21.106 21.417,21.007 21.546,21.044C21.717,21.094 21.744,20.943 21.584,20.901C21.442,20.864 21.301,20.833 21.165,20.895C21.113,20.917 20.977,20.924 21,20.832C21.022,20.742 20.958,20.734 20.875,20.749C20.742,20.769 20.535,20.726 20.416,20.654C20.312,20.593 20.355,20.534 20.468,20.562C20.56,20.585 21.026,20.601 21.172,20.677C21.366,20.78 21.374,20.662 21.572,20.738C21.73,20.797 21.659,20.629 21.607,20.575C21.517,20.481 21.145,20.332 20.993,20.313C20.93,20.306 20.799,20.274 20.83,20.22C20.864,20.154 20.739,20.129 20.713,20.122C20.64,20.103 20.266,20.08 20.188,20.091C20.114,20.1 19.857,19.977 20.035,19.917C20.157,19.874 20.365,19.89 20.488,19.943C20.564,19.975 20.681,20.045 20.638,19.928C20.601,19.832 20.695,19.873 20.755,19.904C20.927,19.996 21.217,20.053 21.335,20.017C21.576,19.943 21.158,19.784 21.123,19.775C20.775,19.69 20.255,19.649 20.105,19.701C19.989,19.741 19.814,19.622 19.945,19.593C20.017,19.578 20.052,19.548 19.999,19.498C19.933,19.435 20.006,19.423 20.086,19.419C20.288,19.408 20.489,19.464 20.691,19.474C20.767,19.477 20.843,19.472 20.918,19.459C20.966,19.45 21.387,19.378 21.471,19.192C21.544,19.033 21.404,19.063 21.293,19.077C21.209,19.089 21.075,19.098 21.075,19.21C21.075,19.322 20.962,19.236 20.967,19.159C20.974,19.011 20.841,18.979 20.72,18.993C20.655,19.001 20.116,19.064 19.908,18.973C19.859,18.951 19.628,18.762 19.846,18.823C20.063,18.883 20.342,18.869 20.386,18.867C20.472,18.864 20.615,18.819 20.501,18.724C20.391,18.632 20.509,18.603 20.591,18.627C20.788,18.686 20.793,18.577 20.993,18.661C21.148,18.726 21.241,18.658 21.116,18.551C21.081,18.521 20.944,18.403 21.061,18.372C21.224,18.33 20.994,18.135 20.946,18.115C20.827,18.066 20.69,18.039 20.562,18.045C20.487,18.048 20.412,18.022 20.392,17.946C20.361,17.836 20.071,17.794 19.995,17.79C19.952,17.787 19.669,17.704 19.832,17.677C19.936,17.66 20.315,17.704 20.487,17.756C20.605,17.791 20.782,17.817 20.911,17.804C21.076,17.787 20.897,17.588 20.823,17.567C20.679,17.526 20.322,17.505 20.412,17.385C20.494,17.282 20.127,17.21 20.099,17.207C19.992,17.197 19.698,17.128 19.799,17.092C19.941,17.04 20.274,17.029 20.4,17.072C20.502,17.108 20.646,17.127 20.55,16.981C20.493,16.895 20.477,16.809 20.612,16.829C20.755,16.85 20.648,16.694 20.591,16.665C20.541,16.641 20.083,16.416 19.936,16.452C19.905,16.46 19.497,16.465 19.601,16.393C19.692,16.33 19.568,16.324 19.503,16.32C19.42,16.316 18.632,16.28 18.48,16.218C18.404,16.186 18.302,16.168 18.304,16.07C18.305,15.928 18.586,16.03 18.609,16.034C18.921,16.088 19.237,16.112 19.55,16.163C19.648,16.179 19.748,16.197 19.839,16.237C19.865,16.248 20.195,16.395 20.099,16.216C20.058,16.14 19.86,16.118 19.936,16.021C20.016,15.915 19.831,15.876 19.771,15.853C19.677,15.817 19.567,15.744 19.503,15.665C19.44,15.585 19.168,15.511 18.995,15.52C18.86,15.528 18.471,15.472 18.412,15.448C18.287,15.399 18.253,15.392 18.246,15.273C18.242,15.21 18.271,15.199 18.33,15.195C18.463,15.186 19.129,15.374 19.321,15.473C19.349,15.488 19.848,15.68 19.644,15.438C19.523,15.293 19.043,15.219 18.988,15.21C18.947,15.204 18.55,15.145 18.493,15.074C18.407,14.971 18.618,14.995 18.647,14.999L19.307,15.175C19.436,15.155 19.354,15.042 19.292,15.005C19.173,14.934 18.775,14.848 18.654,14.85C18.545,14.852 18.345,14.819 18.284,14.711C18.181,14.528 18.468,14.597 18.524,14.62C18.716,14.699 19.303,14.885 19.354,14.893C19.436,14.906 19.45,14.848 19.406,14.777C19.373,14.724 19.302,14.627 19.357,14.597C19.41,14.569 19.387,14.522 19.362,14.479C19.339,14.441 19.35,14.419 19.389,14.395C19.446,14.361 19.406,14.327 19.354,14.32C19.29,14.311 18.862,14.129 18.795,14.134C18.712,14.138 18.333,14.064 18.261,14.029C18.212,14.006 18.201,13.913 18.275,13.928C18.317,13.937 18.689,14.012 18.808,13.991C18.93,13.967 19.037,13.972 19.157,14.014C19.264,14.051 19.356,14.022 19.246,13.934C19.124,13.837 18.936,13.773 18.78,13.795C18.676,13.81 18.439,13.854 18.316,13.796C18.197,13.74 18.192,13.645 18.231,13.532C18.262,13.439 18.435,13.518 18.522,13.562C18.79,13.703 18.819,13.57 19.075,13.711C19.194,13.776 19.267,13.723 19.172,13.619C19.063,13.502 18.932,13.465 18.775,13.475C18.732,13.478 18.373,13.505 18.257,13.359C18.2,13.289 18.147,13.053 18.308,13.178C18.388,13.241 18.961,13.368 19.004,13.404C19.099,13.485 19.163,13.4 19.065,13.322C18.923,13.209 18.571,13.171 18.527,13.166C18.429,13.156 18.267,13.162 18.267,13.029C18.267,12.938 18.459,13.026 18.537,13.073C18.612,13.118 18.985,13.094 19.046,13.129C19.131,13.179 19.146,13.111 19.088,13.047C19.003,12.955 18.768,12.9 18.65,12.937C18.573,12.961 18.408,12.958 18.329,12.927C18.25,12.896 18.241,12.853 18.241,12.768C18.241,12.673 18.29,12.648 18.381,12.633C18.438,12.624 18.575,12.524 18.435,12.511C18.272,12.496 18.224,12.494 18.224,12.318C18.224,12.222 18.252,12.142 18.363,12.156C18.399,12.16 18.556,12.127 18.473,12.059C18.43,12.024 18.355,12.06 18.318,12.063C18.215,12.07 18.213,12.017 18.209,11.904C18.207,11.834 18.24,11.786 18.321,11.808C18.368,11.821 18.43,11.81 18.465,11.774C18.518,11.719 18.399,11.691 18.377,11.694C18.297,11.701 18.204,11.683 18.203,11.585L18.165,10.722C18.161,10.653 18.073,10.522 18.073,10.678L18.046,11.53C18.038,11.617 17.975,11.586 17.922,11.537C17.877,11.496 17.654,11.436 17.793,11.544C17.876,11.608 18.017,11.684 18.025,11.81C18.034,11.95 17.911,11.868 17.854,11.822C17.766,11.752 17.713,11.82 17.8,11.901C17.934,12.026 18.027,12.075 18.018,12.245C18.011,12.404 17.873,12.29 17.807,12.238C17.715,12.166 17.573,12.18 17.698,12.278C17.731,12.304 18.022,12.533 18.012,12.708C17.99,12.92 17.806,12.694 17.767,12.633C17.623,12.408 17.361,12.24 17.221,12.214C17.141,12.199 17.27,12.381 17.337,12.428C17.388,12.463 17.812,12.756 17.932,12.927C18.055,13.102 17.84,12.994 17.788,12.955C17.736,12.916 17.237,12.544 17.084,12.554C16.877,12.567 17.026,12.663 17.119,12.695C17.183,12.717 17.569,12.849 17.877,13.066C17.941,13.111 18.165,13.41 17.911,13.254C17.518,13.015 17.117,12.88 17.03,12.907C16.816,12.972 16.958,13.055 17.092,13.076C17.155,13.085 17.601,13.154 17.844,13.335C17.926,13.396 17.993,13.433 17.988,13.539C17.978,13.7 17.775,13.537 17.729,13.503C17.444,13.294 17.02,13.124 16.922,13.175C16.741,13.268 16.906,13.297 17.018,13.313C17.318,13.357 17.656,13.53 17.708,13.557C17.831,13.621 18.03,13.778 17.797,13.703C16.941,13.426 16.941,13.444 16.841,13.375C16.763,13.323 16.533,13.175 16.403,13.193C16.308,13.205 16.435,13.27 16.457,13.276C16.478,13.282 16.6,13.354 16.532,13.4C16.42,13.479 16.596,13.53 16.649,13.536C16.7,13.542 17.024,13.58 17.257,13.742C17.298,13.77 17.541,13.94 17.796,14.05C17.956,14.119 17.994,14.131 17.987,14.283C17.98,14.433 17.559,14.054 17.55,14.045C17.331,13.834 16.904,13.649 16.737,13.712C16.539,13.788 16.717,13.851 16.833,13.864C16.954,13.877 17.482,14.113 17.687,14.246C17.821,14.335 17.984,14.356 17.974,14.53C17.967,14.625 17.784,14.486 17.707,14.43C17.278,14.12 16.662,13.896 16.464,13.863C16.418,13.856 16.289,13.825 16.354,13.9C16.4,13.95 16.327,13.98 16.282,13.979C16.224,13.977 16.101,13.978 16.044,14.009C15.94,14.064 16.138,14.103 16.143,14.104C16.223,14.119 16.427,14.201 16.351,14.23C16.244,14.273 16.194,14.325 16.328,14.375C16.663,14.498 17.322,14.939 17.619,15.201C17.703,15.275 17.897,15.383 17.892,15.535C17.888,15.685 17.677,15.511 17.642,15.481C17.43,15.301 16.733,14.957 16.641,14.865C16.596,14.82 16.178,14.404 15.945,14.492C15.787,14.552 15.788,14.649 15.958,14.674C15.997,14.679 16.34,14.75 16.245,14.847C16.122,14.974 16.303,15.034 16.409,15.079C16.885,15.281 17.552,15.776 17.646,15.845C17.663,15.858 18.02,16.103 17.762,16.061C17.665,16.044 17.446,15.855 17.297,15.803C17.012,15.703 16.806,15.481 16.771,15.444C16.638,15.301 16.553,15.237 16.362,15.202C16.314,15.194 15.882,15.115 15.754,15.156C15.602,15.202 15.675,15.288 15.781,15.32C15.817,15.33 16.103,15.498 15.905,15.516C15.795,15.525 15.659,15.489 15.577,15.563C15.513,15.62 15.699,15.696 15.782,15.717C16.129,15.806 16.455,16.059 16.507,16.1C16.6,16.172 17.561,16.919 17.689,16.968C17.816,17.018 17.91,17.046 17.901,17.181C17.891,17.322 17.684,17.151 17.662,17.137C17.596,17.097 17.038,16.754 16.883,16.573C16.852,16.537 16.593,16.234 16.443,16.184C16.361,16.157 16.338,16.187 16.391,16.258C16.434,16.316 16.427,16.438 16.344,16.337C16.313,16.3 16.041,15.969 15.897,15.929C15.783,15.897 15.557,15.82 15.419,15.865C15.255,15.916 15.466,16.029 15.518,16.048C15.566,16.067 15.89,16.191 16.082,16.357C16.157,16.422 16.161,16.509 16.041,16.469C15.894,16.419 16.058,16.582 16.075,16.597C16.132,16.647 16.246,16.806 16.17,16.805C16.113,16.803 15.767,16.491 15.733,16.487C15.694,16.483 15.748,16.569 15.777,16.595C15.829,16.641 15.83,16.766 15.743,16.678C15.711,16.645 15.446,16.372 15.241,16.401C15.107,16.419 14.938,16.487 15.115,16.602C15.178,16.643 15.428,16.778 15.323,16.887C15.225,16.985 15.427,17.044 15.486,17.063C15.611,17.101 15.787,17.195 15.869,17.305C15.947,17.41 15.814,17.387 15.76,17.349C15.666,17.285 15.484,17.212 15.377,17.287C15.236,17.383 15.526,17.49 15.572,17.506C16.334,17.783 16.273,17.887 17.02,18.18C17.081,18.204 17.421,18.336 17.744,18.566C17.859,18.648 17.86,18.891 17.697,18.756L17.307,18.463C17.23,18.426 17.236,18.463 17.248,18.524C17.258,18.572 17.132,18.54 17.102,18.502C17.072,18.464 16.89,18.235 16.637,18.12C16.56,18.084 16.495,18.051 16.535,18.14C16.58,18.244 16.494,18.204 16.453,18.151C16.364,18.037 16.042,17.804 15.879,17.772C15.785,17.753 15.778,17.768 15.811,17.846C15.854,17.944 15.739,17.93 15.702,17.871C15.621,17.738 15.469,17.579 15.296,17.643C15.194,17.68 15.142,17.715 15.036,17.713C14.87,17.708 15.069,17.828 15.1,17.842C15.289,17.923 15.752,18.013 15.907,18.114C16.127,18.26 16.316,18.331 16.354,18.345C16.387,18.358 16.497,18.434 16.399,18.436C16.278,18.441 16.378,18.574 16.412,18.614C16.481,18.695 16.435,18.835 16.35,18.709C16.184,18.461 16.074,18.612 15.91,18.388C15.882,18.351 15.797,18.248 15.797,18.352C15.797,18.439 15.73,18.399 15.684,18.35C15.436,18.096 15.085,18.051 14.953,18.115C14.758,18.208 15.01,18.281 15.097,18.313C15.297,18.387 16.493,18.833 17.464,19.547C17.498,19.572 17.87,19.847 17.834,19.93C17.791,20.02 17.638,19.866 17.567,19.796C17.476,19.706 16.748,19.261 16.655,19.176C16.637,19.16 16.309,18.929 16.429,19.132C16.482,19.22 16.406,19.244 16.341,19.168C16.208,19.012 15.9,18.79 15.802,18.763C15.661,18.724 15.766,18.816 15.84,18.885C15.902,18.943 15.925,19.11 15.802,19.001C15.747,18.953 15.317,18.574 14.985,18.588C14.801,18.596 14.735,18.661 14.883,18.786C14.994,18.88 15.168,19.014 15.509,19.086C15.577,19.1 16.037,19.195 16.298,19.439C16.393,19.529 16.286,19.542 16.209,19.475C16.144,19.42 15.814,19.272 15.734,19.262C15.636,19.249 15.673,19.308 15.72,19.374C15.773,19.448 15.698,19.564 15.624,19.462C15.464,19.245 15.19,19.121 15.146,19.102C15.088,19.075 14.601,19.035 14.822,19.157C14.88,19.189 14.959,19.249 14.9,19.317C14.814,19.411 14.902,19.45 14.995,19.455C15.427,19.48 16.205,19.717 16.563,19.935C16.648,19.987 16.841,20.205 16.747,20.171C16.712,20.158 16.551,20.049 16.603,20.162C16.642,20.246 16.603,20.3 16.528,20.226C16.3,20.002 15.93,19.825 15.783,19.793C15.701,19.775 15.741,19.837 15.773,19.887C15.834,19.98 15.705,19.96 15.664,19.918C15.596,19.849 15.413,19.683 15.289,19.651C15.183,19.624 15.181,19.662 15.23,19.722C15.285,19.791 15.236,19.84 15.165,19.773C15.125,19.736 14.834,19.464 14.578,19.436C14.356,19.414 14.591,19.588 14.643,19.619C14.709,19.659 15.117,19.905 15.514,20.038L16.047,20.265C16.123,20.291 16.174,20.36 16.053,20.342C16.017,20.336 15.521,20.13 15.445,20.148C15.37,20.164 15.469,20.247 15.476,20.263C15.506,20.331 15.473,20.423 15.398,20.344C15.161,20.095 15.1,20.193 14.844,19.954C14.806,19.919 14.621,19.853 14.707,19.978C14.741,20.028 14.577,19.977 14.53,19.94C14.435,19.865 14.266,19.781 14.134,19.801C13.936,19.834 14.126,19.958 14.202,20.009C14.252,20.043 14.613,20.289 14.859,20.385C14.91,20.404 15.182,20.641 14.995,20.579C14.881,20.54 14.848,20.611 14.931,20.689C14.97,20.726 14.999,20.817 14.992,20.87C14.982,20.942 14.848,20.817 14.804,20.76C14.579,20.466 14.035,20.328 13.745,20.38C13.453,20.432 13.658,20.645 13.783,20.777C13.879,20.878 14.123,21.193 14.664,21.227C14.81,21.236 16.112,21.321 16.475,21.521C16.49,21.53 16.997,21.945 16.714,21.906C16.423,21.863 16.546,21.672 16.264,21.578C16.105,21.525 16.006,21.555 15.881,21.659C15.751,21.767 15.635,21.696 15.512,21.608C15.245,21.416 14.935,21.531 14.849,21.496C14.966,21.584 15.231,21.741 15.123,21.84C15.029,21.926 14.906,21.705 14.795,21.642C14.748,21.616 14.428,21.435 14.132,21.57C13.876,21.687 14.292,21.877 14.364,21.907C14.545,21.98 15.106,22.092 15.485,22.079C15.87,22.067 16.447,22.145 16.571,22.178C16.641,22.197 16.799,22.289 16.677,22.366C16.786,22.43 16.946,22.471 17.07,22.43C17.188,22.391 17.309,22.423 17.216,22.564C17.255,22.579 17.669,22.567 17.722,22.619C17.731,22.802 17.711,22.8 17.711,24.914C17.711,25.073 17.991,25.067 18.142,25.116C18.403,25.202 18.626,25.384 18.606,25.083C18.499,23.293 18.485,23.295 18.504,23.096C18.532,22.795 18.576,22.668 18.839,22.811C19.54,23.187 19.537,23.191 19.585,23.205C19.574,23.19 19.389,22.908 19.564,23.007C19.673,23.067 19.821,23.077 19.932,23.015C19.84,22.979 19.803,22.848 19.941,22.868C19.976,22.873 19.957,22.868 20.424,23.161C20.831,23.416 21.782,23.796 22.31,23.567C22.528,23.473 22.197,23.386 22.132,23.372C21.966,23.336 21.879,23.338 21.708,23.363C21.687,23.367 21.508,23.406 21.534,23.31C21.57,23.18 21.261,23.176 21.207,23.186C21.119,23.203 20.901,23.214 20.944,23.135C21.008,23.01 20.727,22.976 20.701,22.97C20.466,22.916 19.948,22.67 19.967,22.605C19.994,22.503 20.184,22.612 20.278,22.66C20.669,22.863 21.635,23.172 22.024,23.234C22.239,23.268 22.453,23.164 22.184,23.03C22.093,22.984 21.832,22.877 21.737,22.972C21.699,23.009 21.523,23.024 21.565,22.933C21.655,22.744 21.175,22.766 21.112,22.784C21.103,22.786 20.863,22.824 20.975,22.719C21.073,22.626 20.779,22.556 20.753,22.551C20.676,22.534 20.085,22.408 19.827,22.217C19.603,22.049 19.865,22.094 20.016,22.129ZM18.388,14.485C18.336,14.483 18.262,14.491 18.262,14.417C18.262,14.337 18.361,14.408 18.388,14.42C18.449,14.449 18.467,14.49 18.388,14.485ZM18.385,14.163C18.442,14.201 18.553,14.249 18.621,14.255C18.67,14.26 18.779,14.344 18.665,14.338C18.583,14.333 18.257,14.335 18.252,14.174C18.25,14.093 18.345,14.137 18.385,14.163ZM17.801,13.911C17.762,13.882 17.68,13.79 17.78,13.785C17.868,13.782 17.948,13.855 17.944,13.945C17.942,13.994 17.84,13.94 17.801,13.911ZM15.946,21.046C15.869,20.913 16.081,21.085 16.083,21.086C16.127,21.11 16.225,21.18 16.22,21.249C16.213,21.342 15.967,21.083 15.946,21.046ZM17.323,20.068C17.433,20.173 17.586,20.223 17.713,20.308C17.751,20.334 17.801,20.387 17.801,20.439C17.801,20.495 17.689,20.43 17.636,20.413C17.444,20.352 17.259,20.132 17.233,20.101C17.153,20.005 17.25,19.998 17.323,20.068ZM17.78,21.688C17.76,21.854 17.398,21.532 17.363,21.501C17.259,21.409 17.342,21.348 17.452,21.412C17.53,21.459 17.6,21.482 17.691,21.489C17.804,21.501 17.794,21.574 17.78,21.688ZM17.671,21.258C17.532,21.213 17.097,20.898 17.049,20.863C16.909,20.763 17.054,20.725 17.165,20.804C17.332,20.923 17.635,21.021 17.678,21.034C17.822,21.081 17.849,21.316 17.671,21.258ZM17.473,18.052C17.399,18.018 16.851,17.625 16.557,17.472C16.472,17.428 16.44,17.356 16.543,17.386C16.604,17.404 17.431,17.904 17.643,18.005C17.756,18.059 17.881,18.13 17.875,18.271C17.87,18.42 17.565,18.094 17.473,18.052ZM17.674,17.556C17.462,17.329 17.043,17.117 16.984,17.086C16.944,17.066 16.711,16.927 16.892,16.956C17.128,16.993 17.384,17.206 17.421,17.236C17.445,17.256 17.674,17.443 17.763,17.472C17.869,17.506 17.889,17.534 17.889,17.653C17.89,17.846 17.694,17.578 17.674,17.556ZM16.968,14.328C17.146,14.45 17.358,14.512 17.55,14.611C17.641,14.659 17.745,14.729 17.822,14.802C17.871,14.848 17.679,14.797 17.624,14.758C17.318,14.541 17.285,14.623 16.961,14.413C16.902,14.376 16.745,14.267 16.814,14.264C16.866,14.262 16.934,14.305 16.968,14.328ZM17.487,15.644C17.368,15.564 17.105,15.478 17.173,15.352C17.239,15.224 17.441,15.464 17.562,15.542C17.664,15.608 17.891,15.692 17.88,15.86C17.869,16.009 17.61,15.729 17.487,15.644ZM16.927,15.754C17.174,15.829 17.606,16.174 17.661,16.217C17.71,16.256 17.881,16.355 17.876,16.468C17.873,16.523 17.758,16.449 17.719,16.41L16.937,15.877C16.873,15.831 16.808,15.785 16.755,15.726C16.716,15.683 16.871,15.737 16.927,15.754ZM17.904,16.835C17.899,16.873 17.825,16.829 17.788,16.817C17.725,16.797 17.808,16.689 17.104,16.358C17.055,16.335 17.096,16.296 16.561,15.969C16.462,15.909 16.532,15.827 16.62,15.904C16.704,15.978 16.861,16.051 16.951,16.094C17.086,16.161 17.572,16.502 17.652,16.581C17.712,16.643 17.919,16.698 17.904,16.835ZM17.935,15.209C17.928,15.319 17.86,15.29 17.808,15.225C17.726,15.125 17.489,14.99 17.418,14.946C17.322,14.888 17.364,14.801 17.446,14.866C17.566,14.962 17.737,15.052 17.89,15.081C17.966,15.095 17.938,15.151 17.935,15.209ZM18.238,15.659C18.243,15.534 18.257,15.502 18.357,15.555C18.535,15.65 18.9,15.736 18.949,15.747C19.052,15.771 19.073,15.85 18.966,15.835C18.925,15.829 18.621,15.788 18.46,15.802C18.351,15.811 18.231,15.797 18.238,15.659ZM19.592,19.311C19.542,19.347 18.753,19.34 18.683,19.349C18.522,19.369 18.382,19.367 18.382,19.174C18.382,19.009 18.557,19.165 18.649,19.132C18.68,19.121 19.369,19.203 19.442,19.187C19.504,19.174 19.729,19.206 19.592,19.311ZM19.175,20.009C19.13,20 19.133,20.011 18.6,20.017C18.524,20.018 18.272,19.924 18.484,19.864C18.556,19.843 18.952,19.868 19.147,19.917C19.253,19.945 19.292,20.033 19.175,20.009ZM19.071,18.929C18.99,18.985 18.729,18.96 18.675,18.955C18.567,18.945 18.381,18.932 18.381,18.783C18.381,18.651 18.514,18.752 18.586,18.783C18.623,18.799 18.965,18.947 19.071,18.929ZM18.6,18.163C18.546,18.18 18.361,18.176 18.365,18.086C18.367,18.029 18.355,18.018 18.406,18.031C18.562,18.069 18.732,18.012 18.888,18.05C18.948,18.065 19.105,18.123 19.048,18.147C18.91,18.206 18.742,18.119 18.6,18.163ZM18.46,16.562C18.547,16.593 18.78,16.62 18.868,16.616C18.93,16.612 18.996,16.636 18.914,16.662L18.539,16.682C18.457,16.681 18.331,16.692 18.327,16.584C18.322,16.482 18.384,16.535 18.46,16.562ZM18.478,17.187C18.518,17.202 18.873,17.336 18.997,17.303C19.081,17.282 19.191,17.313 19.264,17.346C19.337,17.379 19.239,17.413 19.205,17.422C19.171,17.432 18.75,17.367 18.704,17.38C18.609,17.408 18.472,17.382 18.386,17.358C18.318,17.338 18.311,17.33 18.311,17.258C18.31,17.13 18.377,17.149 18.478,17.187ZM18.32,17.65C18.322,17.579 18.326,17.553 18.403,17.578C18.713,17.681 18.723,17.539 19.042,17.636C19.099,17.653 19.26,17.772 19.08,17.737C18.922,17.706 18.554,17.694 18.529,17.702C18.508,17.708 18.315,17.745 18.32,17.65ZM18.58,18.393C18.713,18.455 18.678,18.539 18.539,18.516C18.425,18.497 18.372,18.494 18.362,18.375C18.353,18.302 18.514,18.361 18.58,18.393ZM18.491,19.565C18.583,19.6 18.784,19.627 18.865,19.63C18.946,19.632 18.981,19.681 18.898,19.699C18.768,19.726 18.583,19.723 18.457,19.666C18.339,19.615 18.372,19.52 18.491,19.565ZM18.806,22.06C18.725,22.009 18.662,21.977 18.566,21.968C18.471,21.958 18.416,21.855 18.416,21.768C18.453,21.808 18.812,21.906 18.921,22.002C19.02,22.091 18.853,22.091 18.806,22.06ZM18.894,21.55C18.677,21.479 18.665,21.589 18.505,21.503C18.412,21.455 18.368,21.299 18.519,21.385C18.63,21.449 18.733,21.43 18.861,21.442C18.96,21.453 19.01,21.588 18.894,21.55ZM18.491,20.903L18.71,20.949C18.799,20.95 18.774,21.003 18.724,21.015C18.634,21.033 18.566,21.057 18.485,21.004C18.44,20.976 18.389,20.87 18.491,20.903ZM18.546,20.334C18.396,20.351 18.305,20.223 18.491,20.2L19.14,20.175C19.416,20.159 19.395,20.192 19.667,20.244C19.799,20.269 19.805,20.316 19.713,20.396C19.594,20.5 19.416,20.387 19.305,20.346C19.109,20.275 18.606,20.328 18.546,20.334ZM19.488,20.855C19.476,20.852 19.248,20.745 19.413,20.749C19.468,20.751 19.601,20.767 19.653,20.819C19.692,20.86 19.542,20.871 19.488,20.855Z" style="fill:rgb(0,121,52);fill-rule:nonzero;"/>
                </g>
                <g transform="matrix(0.896117,3.24196e-17,-3.24196e-17,0.896117,219.046,223.655)">
                    <path d="M17.879,15.555C17.879,15.725 17.729,15.811 17.575,15.761L16.943,15.564C16.778,15.514 16.639,15.345 16.639,15.169C16.639,15 16.787,14.909 16.943,14.956L17.575,15.153C17.732,15.204 17.879,15.405 17.879,15.555ZM19.413,20.308C19.413,20.522 19.205,20.682 18.973,20.605L18.931,20.591C18.702,20.516 18.49,20.223 18.49,20.005C18.49,19.793 18.696,19.633 18.931,19.71L18.973,19.724C19.201,19.799 19.413,20.091 19.413,20.308ZM18.806,21.899C18.806,21.989 18.725,22.033 18.645,22.006C18.558,21.977 18.484,21.886 18.484,21.793L18.484,21.165C18.484,21.075 18.564,21.031 18.645,21.058C18.732,21.087 18.806,21.178 18.806,21.271L18.806,21.899ZM17.78,21.39C17.78,21.556 17.634,21.641 17.483,21.593L17.347,21.55C17.185,21.499 17.05,21.332 17.05,21.16C17.05,20.994 17.196,20.907 17.347,20.955L17.483,20.998C17.644,21.05 17.78,21.218 17.78,21.39ZM17.89,17.091C17.89,17.253 17.796,17.496 17.586,17.429C17.455,17.387 17.282,17.148 17.282,16.897L17.282,16.419C17.282,16.257 17.375,16.012 17.586,16.079C17.717,16.121 17.89,16.36 17.89,16.613L17.89,17.091ZM18.607,15.855C18.607,15.957 18.517,16.008 18.425,15.977C18.326,15.945 18.243,15.841 18.243,15.736L18.243,15.458C18.243,15.355 18.332,15.305 18.425,15.335C18.523,15.368 18.607,15.472 18.607,15.577L18.607,15.855ZM21.196,22.807C21.196,22.966 21.078,23.11 20.907,23.062L20.306,22.885C20.166,22.842 20.016,22.639 20.016,22.46C20.016,22.299 20.137,22.164 20.306,22.216L20.907,22.393C21.046,22.432 21.196,22.629 21.196,22.807ZM16.564,21.886C16.564,22.046 16.424,22.133 16.276,22.092L15.567,21.906C15.41,21.868 15.279,21.714 15.279,21.55C15.279,21.392 15.416,21.293 15.567,21.33L16.276,21.516C16.434,21.559 16.564,21.721 16.564,21.886Z" style="fill:rgb(238,238,238);fill-rule:nonzero;"/>
                </g>
            </g>
        </g>
    </g>
</svg>
