<?xml version="1.0" encoding="UTF-8" standalone="no"?>
<!DOCTYPE svg PUBLIC "-//W3C//DTD SVG 1.1//EN" "http://www.w3.org/Graphics/SVG/1.1/DTD/svg11.dtd">
<svg width="100%" height="100%" viewBox="0 0 512 512" version="1.1" xmlns="http://www.w3.org/2000/svg" xmlns:xlink="http://www.w3.org/1999/xlink" xml:space="preserve" xmlns:serif="http://www.serif.com/" style="fill-rule:evenodd;clip-rule:evenodd;stroke-linejoin:round;stroke-miterlimit:2;">
    <g transform="matrix(1.11593,-4.03717e-17,4.03717e-17,1.11593,-13.9687,-19.1113)">
        <g transform="matrix(11.1111,-2.35563e-31,0,11.1111,-2371.15,-2417.74)">
            <g>
                <g transform="matrix(0.896117,3.24196e-17,-3.24196e-17,0.896117,219.046,223.655)">
                    <path d="M34.641,6.099C34.43,6.119 33.545,6.203 32.015,6.447C31.137,6.012 31.136,6.042 30.5,5.676C25.357,6.517 23.658,6.57 20,5.455C19.489,5.573 19.509,5.554 18,5.816C17.842,5.686 16.535,4.605 16,4.231C12.481,3.318 10.079,3.848 5.5,4.545C5.329,4.677 4.138,5.655 4.02,5.752C2.571,5.941 1.611,5.976 1.401,5.984C0.44,6.887 0.134,8.026 0.255,9.01C0.574,11.625 1.151,14.098 1.318,15.595C1.736,16.344 2.161,17.112 2.541,18.099C2.042,19.382 1.997,19.344 1.31,20.531C1.131,22.265 0.576,25.248 0.333,26.993C0.079,28.812 1.229,29.819 1.421,29.987C1.631,29.978 2.591,29.941 4.037,29.75C4.153,29.815 4.701,30.121 5.501,30.533C10.073,29.818 12.48,29.272 16,30.211C16.159,30.174 16.796,30.025 18,29.816C18.16,29.948 19.905,31.391 20,31.467C22.151,32.141 23.943,32.753 30.556,31.939C31.086,31.528 31.616,31.116 32.147,30.705C32.359,30.675 33.149,30.564 34.793,30.31C36.309,28.869 36.445,27.454 36.472,27.17C37.019,21.483 37.04,21.047 37.065,20.513C36.992,20.315 36.634,19.351 36.057,18.069C36.59,16.762 36.959,15.716 37.032,15.51C36.879,12.731 36.564,11.022 36.304,9.019C36.269,8.753 36.063,7.167 34.641,6.099Z" style="fill:rgb(210,0,0);fill-rule:nonzero;"/>
                </g>
                <g transform="matrix(0.896117,3.24196e-17,-3.24196e-17,0.896117,219.046,223.655)">
                    <path d="M37.065,20.513C37.085,20.114 37.179,18.159 37.032,15.51C32.149,16.331 26.415,18.76 22.318,18.488C22.294,18.307 22.168,17.378 21.539,16.351C26.244,14.142 31.362,8.863 34.653,6.088C34.479,5.957 33.481,5.205 32,5.435L30.5,5.676C25.463,12.091 21.728,14.77 20.837,15.41C19.787,14.208 18.664,13.722 18.445,13.627C19.486,8.166 19.95,5.738 20,5.455C19.871,5.416 16.981,4.486 16,4.231C16.076,4.623 17.431,12.608 17.555,13.337C16.532,13.116 15.711,13.347 15.163,13.697C14.489,12.873 11.496,9.214 5.5,4.545L4,4.757C3.771,4.787 2.475,4.952 1.387,5.975C4.79,8.236 10.485,10.763 14.46,14.312C14.358,14.435 13.836,15.067 13.681,16.161C9.922,15.243 7.25,16.376 1.318,15.595C1.578,17.929 1.35,20.138 1.31,20.531C6.588,19.938 9.623,17.497 13.681,17.361C13.705,17.535 13.831,18.45 14.46,19.426C10.474,21.625 7.573,25.519 1.406,29.997L1.407,29.998C2.49,30.949 3.788,30.779 4.002,30.751L5.501,30.533C11.583,23.554 12.777,22.184 15.163,20.315C16.201,21.435 17.339,21.916 17.555,22.007C17.036,24.742 16.518,27.476 16,30.211C16.981,30.472 19.871,31.427 20,31.467C19.481,28.411 18.963,25.354 18.445,22.297C19.534,22.544 20.345,22.31 20.837,22.028C25.114,27.539 27.01,28.529 30.556,31.939L32.069,31.737C32.991,31.606 33.989,31.096 34.806,30.318C28.778,26.558 25.731,25.552 21.539,21.465C21.643,21.349 22.164,20.761 22.318,19.688C26.675,21.187 32.201,20.015 37.065,20.513Z" style="fill:rgb(255,230,0);fill-rule:nonzero;"/>
                </g>
                <g transform="matrix(0.896117,3.24196e-17,-3.24196e-17,0.896117,219.046,223.655)">
                    <path d="M18,13.436C15.364,12.575 13.62,14.52 13.62,16.754C13.62,19.355 15.948,21.526 18,22.196C20.664,23.066 22.379,21.319 22.379,19.1C22.379,16.547 20.134,14.133 18,13.436ZM18,21.173C16.303,20.619 14.643,18.828 14.643,16.901C14.643,15.141 16.043,13.82 18,14.459C19.726,15.022 21.357,16.954 21.357,18.861C21.357,20.619 19.965,21.814 18,21.173Z" style="fill:rgb(210,0,0);fill-rule:nonzero;"/>
                </g>
            </g>
        </g>
    </g>
</svg>
