<?xml version="1.0" encoding="UTF-8" standalone="no"?>
<!DOCTYPE svg PUBLIC "-//W3C//DTD SVG 1.1//EN" "http://www.w3.org/Graphics/SVG/1.1/DTD/svg11.dtd">
<svg width="100%" height="100%" viewBox="0 0 512 512" version="1.1" xmlns="http://www.w3.org/2000/svg" xmlns:xlink="http://www.w3.org/1999/xlink" xml:space="preserve" xmlns:serif="http://www.serif.com/" style="fill-rule:evenodd;clip-rule:evenodd;stroke-linejoin:round;stroke-miterlimit:2;">
    <g transform="matrix(1.11593,-4.03717e-17,4.03717e-17,1.11593,-13.9687,-19.1113)">
        <g transform="matrix(11.1111,-2.35563e-31,0,11.1111,-2371.15,-2417.74)">
            <g>
                <g transform="matrix(0.896117,3.24196e-17,-3.24196e-17,0.896117,219.046,223.655)">
                    <path d="M32,5.435C24.446,6.606 24.298,6.804 18.359,4.935C11.85,2.887 11.375,3.817 4,4.757C1.899,5.025 -0.023,6.737 0.255,9.01C0.697,12.631 1.416,14.687 1.447,17.745C1.48,20.89 0.734,24.117 0.333,26.993C0.032,29.153 1.734,31.048 4.002,30.751C11.37,29.786 11.847,28.83 18.359,30.934C21.72,32.02 23.307,32.985 32.069,31.737C34.172,31.438 36.268,29.3 36.472,27.17C37.437,17.129 37.336,16.966 36.304,9.019C36.033,6.93 34.291,5.079 32,5.435Z" style="fill:rgb(2,79,162);fill-rule:nonzero;"/>
                </g>
                <g transform="matrix(0.896117,3.24196e-17,-3.24196e-17,0.896117,219.046,223.655)">
                    <path d="M0.255,9.01C6.072,9.016 9.97,7.254 14.04,7.804C16.931,8.195 20.485,9.916 23.399,10.266C26.881,10.684 32.369,9.148 36.304,9.019L36.44,10.022C28.803,10.269 27.312,12.821 19.08,10.171C15.95,9.164 14.288,8.437 10.457,8.82C6.846,9.181 4.873,10.018 0.388,10.012L0.255,9.01ZM0.481,25.992C9.546,25.983 9.738,23.149 18.36,25.934C26.485,28.559 26.664,26.941 36.565,26.189L36.472,27.17C26.469,28.117 26.29,29.496 18.36,26.934C9.644,24.118 9.456,26.985 0.333,26.993L0.481,25.992Z" style="fill:rgb(238,238,238);fill-rule:nonzero;"/>
                </g>
                <g transform="matrix(0.896117,3.24196e-17,-3.24196e-17,0.896117,219.046,223.655)">
                    <path d="M0.388,10.012C6.201,10.02 9.953,8.252 14.04,8.804C16.931,9.195 20.485,10.916 23.399,11.266C26.874,11.684 32.48,10.15 36.44,10.022C37.487,17.53 37.185,19.558 36.565,26.189C26.664,26.941 26.484,28.559 18.36,25.934C9.731,23.146 9.54,25.983 0.481,25.992C0.84,23.677 1.454,20.723 1.448,17.924C1.442,15.021 0.823,13.022 0.388,10.012Z" style="fill:rgb(237,28,39);fill-rule:nonzero;"/>
                </g>
                <g transform="matrix(0.896117,3.24196e-17,-3.24196e-17,0.896117,219.046,223.655)">
                    <path d="M13.278,22.504C13.855,22.542 19.056,22.892 19.056,18.163C19.056,14.857 16.167,11.142 13.278,10.948C10.547,10.764 8.137,13.419 8.126,17.257C8.111,22.527 12.904,22.479 13.278,22.504ZM12.048,14.989C12.369,13.914 12.683,12.919 13.278,11.128C13.38,11.449 13.879,13.016 14.535,15.152C15.901,15.392 18.281,16.178 18.602,16.284C18.335,16.389 16.419,17.149 15.312,17.7C15.413,18.035 15.891,19.616 16.569,21.898C16.318,21.642 14.681,19.977 13.279,18.864C13.009,19.042 11.944,19.744 10.129,21.392C10.178,21.231 10.609,19.9 11.336,17.422C11.11,17.26 9.955,16.429 8.48,15.457C8.762,15.401 10.52,15.056 12.048,14.989Z" style="fill:white;fill-rule:nonzero;"/>
                </g>
            </g>
        </g>
    </g>
</svg>
