<?xml version="1.0" encoding="UTF-8" standalone="no"?>
<!DOCTYPE svg PUBLIC "-//W3C//DTD SVG 1.1//EN" "http://www.w3.org/Graphics/SVG/1.1/DTD/svg11.dtd">
<svg width="100%" height="100%" viewBox="0 0 512 512" version="1.1" xmlns="http://www.w3.org/2000/svg" xmlns:xlink="http://www.w3.org/1999/xlink" xml:space="preserve" xmlns:serif="http://www.serif.com/" style="fill-rule:evenodd;clip-rule:evenodd;stroke-linejoin:round;stroke-miterlimit:2;">
    <g transform="matrix(1.11593,-4.03717e-17,4.03717e-17,1.11593,-13.9687,-19.1113)">
        <g transform="matrix(11.1111,-2.35563e-31,0,11.1111,-2371.15,-2417.74)">
            <g>
                <g transform="matrix(0.896117,3.24196e-17,-3.24196e-17,0.896117,219.046,223.655)">
                    <path d="M36.472,27.17C36.268,29.3 34.172,31.438 32.069,31.737C22.764,33.062 21.617,31.929 16.923,30.475C12.024,28.957 9.406,30.043 4.002,30.751C1.734,31.048 0.032,29.153 0.333,26.993C0.731,24.136 1.48,20.893 1.447,17.745C1.416,14.7 0.699,12.641 0.255,9.01C-0.023,6.737 1.899,5.025 4,4.757C11.375,3.817 11.85,2.887 18.359,4.935C24.284,6.8 24.43,6.609 32,5.435C34.291,5.079 36.033,6.93 36.304,9.019C37.335,16.956 37.438,17.114 36.472,27.17Z" style="fill:rgb(38,95,181);fill-rule:nonzero;"/>
                </g>
                <g transform="matrix(0.896117,3.24196e-17,-3.24196e-17,0.896117,219.046,223.655)">
                    <path d="M25.987,19.62C25.969,19.299 25.719,19.016 25.752,19.052C25.798,19.009 26.078,18.744 26.057,18.316C26.037,17.897 25.659,17.645 25.603,17.607C25.748,17.446 25.761,17.161 25.763,17.12C25.779,16.797 25.454,16.675 25.492,16.689C25.545,16.55 25.541,16.353 25.437,16.246C25.389,16.197 25.337,16.166 25.272,16.141C25.197,16.111 24.951,16.112 25.032,16.105C25.062,16.074 25.259,15.878 25.1,15.573C24.944,15.272 24.623,15.192 24.667,15.203C24.677,15.149 24.735,14.83 24.462,14.553C24.197,14.281 23.646,14.268 23.71,14.27C23.72,14.204 23.794,13.717 23.557,13.451C23.324,13.194 22.851,13.251 22.788,13.258C22.867,13.081 22.704,12.654 22.463,12.447C22.224,12.242 21.571,12.136 21.489,12.123C21.529,11.987 21.362,11.674 21.028,11.47C20.719,11.281 20.363,11.352 20.413,11.342C20.379,11.292 20.122,10.912 19.866,10.814C19.796,10.788 19.723,10.768 19.649,10.762C19.574,10.755 19.422,10.775 19.422,10.775C19.403,10.728 19.284,10.423 18.977,10.321C18.667,10.22 18.125,10.405 18.055,10.429C17.978,10.368 17.358,9.878 17.013,9.789C16.672,9.702 16.451,9.899 16.483,9.871C16.434,9.829 16.123,9.56 15.714,9.646C15.305,9.73 15.264,10.045 15.27,10C15.008,9.801 14.658,9.811 14.603,9.813C14.194,9.823 14.136,10.301 14.142,10.25C14.097,10.225 13.817,10.066 13.493,10.259C13.417,10.305 13.339,10.368 13.294,10.445C13.252,10.515 13.283,10.761 13.254,10.685C13.011,10.479 12.666,10.658 12.621,10.682C12.227,10.886 12.228,11.305 12.228,11.25C12.215,11.247 11.943,11.229 11.677,11.612C11.384,12.034 11.452,12.256 11.437,12.207C11.387,12.212 11.095,12.327 10.963,12.74C10.771,13.344 11.112,13.628 10.983,13.466C10.936,13.493 10.707,13.687 10.563,14.046C10.392,14.479 10.542,14.942 10.521,14.879C10.434,14.935 10.203,15.204 10.231,15.586C10.267,16.077 10.601,16.174 10.55,16.159C10.48,16.211 10.291,16.44 10.268,16.741C10.238,17.137 10.5,17.282 10.461,17.26C10.426,17.288 10.238,17.441 10.219,17.768C10.202,18.087 10.643,18.205 10.694,18.218C10.565,18.315 10.509,18.503 10.507,18.665C10.502,18.967 10.907,19.075 10.865,19.064C10.839,19.093 10.723,19.299 10.794,19.617C10.878,19.996 11.251,19.967 11.208,19.97C11.186,20.035 11.176,20.125 11.214,20.189C11.258,20.265 11.509,20.369 11.424,20.347C11.309,20.435 11.438,20.656 11.53,20.769C11.783,21.075 12.091,20.929 12.051,20.948C11.932,21.309 12.305,21.434 12.266,21.421C12.298,22.03 12.929,21.916 12.998,21.904C13.116,22.481 13.62,22.373 13.562,22.386C13.539,22.415 13.414,22.668 13.665,22.96C13.952,23.295 14.482,23.262 14.417,23.266C14.794,23.935 15.739,24.03 15.87,24.043C16.196,24.076 17.372,24.295 17.511,24.303C17.743,24.316 19.793,25.055 19.99,25.126C20.081,25.176 20.802,25.567 21.254,25.445C21.698,25.323 21.657,25.045 21.663,25.088C21.718,25.137 22.001,25.279 22.364,25.179C22.827,25.048 22.73,24.489 22.74,24.547C22.794,24.556 23.163,24.621 23.407,24.425C23.461,24.382 23.519,24.324 23.549,24.26C23.574,24.207 23.532,24.033 23.561,24.084C23.606,24.066 23.929,23.939 24.072,23.768C24.108,23.726 24.133,23.673 24.138,23.616C24.143,23.551 24.054,23.372 24.09,23.426C24.091,23.427 24.284,23.504 24.568,23.254C24.88,22.979 24.839,22.472 24.844,22.534C24.882,22.539 25.103,22.513 25.266,22.252C25.462,21.936 25.318,21.626 25.338,21.669C25.606,21.469 25.747,21.123 25.769,21.069C25.932,20.667 25.767,20.202 25.789,20.263C25.819,20.218 26.005,19.944 25.987,19.62ZM23.746,20.273C23.791,20.412 23.494,20.43 23.405,20.546C23.2,20.81 23.355,21.272 23.337,21.221L22.943,21.524C22.893,21.572 22.864,21.633 22.84,21.697C22.806,21.791 22.79,22.094 22.79,21.994C22.587,21.976 22.33,22.133 22.294,22.155C22.004,22.334 22.004,22.811 22.004,22.758C21.965,22.739 21.743,22.695 21.491,22.841C21.184,23.019 21.184,23.406 21.184,23.358C21.135,23.308 20.87,23.146 20.499,23.214C20.033,23.3 19.692,23.504 19.628,23.542C18.67,23.226 16.064,22.247 15.902,21.967C15.639,21.513 15.044,21.539 14.962,21.542C14.969,21.522 14.986,21.291 14.689,21.044C14.347,20.758 13.967,20.827 14.022,20.817C14.108,20.781 14.163,20.64 14.124,20.556C14.1,20.504 14.06,20.46 14.011,20.43C13.949,20.39 13.726,20.359 13.8,20.362C13.915,20.332 13.882,20.124 13.851,20.009C13.763,19.68 13.217,19.681 13.27,19.681C13.395,19.613 13.403,19.386 13.338,19.259C13.181,18.95 12.779,19.001 12.825,18.996C12.894,18.74 12.836,18.523 12.825,18.484C12.806,18.413 12.769,18.347 12.716,18.296C12.654,18.237 12.405,18.159 12.489,18.174C12.615,18.152 12.675,17.955 12.654,17.83C12.603,17.519 12.234,17.356 12.277,17.375C12.343,17.169 12.343,16.871 12.343,16.827C12.343,16.744 12.331,16.654 12.298,16.578C12.267,16.508 12.078,16.378 12.148,16.406C12.183,16.387 12.391,16.276 12.424,15.988C12.456,15.697 12.251,15.352 12.276,15.394C12.384,15.299 12.465,15.167 12.505,15.029C12.522,14.972 12.525,14.911 12.527,14.851C12.528,14.793 12.434,14.644 12.471,14.688C12.606,14.599 12.72,14.462 12.774,14.31C12.8,14.239 12.816,14.165 12.824,14.09C12.833,13.999 12.825,13.816 12.825,13.816C12.965,13.78 13.089,13.682 13.184,13.574C13.228,13.524 13.264,13.463 13.28,13.398C13.296,13.329 13.242,13.121 13.27,13.186C13.317,13.191 13.668,13.23 13.851,13.053C13.904,13.001 13.943,12.935 13.982,12.871C14.028,12.795 14.063,12.529 14.057,12.617C14.115,12.634 14.364,12.646 14.604,12.517C14.677,12.478 14.753,12.424 14.804,12.357C14.85,12.297 14.865,12.067 14.877,12.142C14.915,12.161 15.168,12.286 15.406,12.19C15.475,12.161 15.536,12.113 15.596,12.068C15.669,12.012 15.805,11.768 15.765,11.85C15.844,11.982 16.056,11.977 16.209,11.968C16.572,11.947 16.74,11.851 16.705,11.872C16.841,12.116 17.14,12.148 17.184,12.153C17.527,12.192 17.843,12.037 17.799,12.059C17.809,12.109 17.921,12.324 18.227,12.369C18.602,12.424 18.794,12.337 18.756,12.355C18.734,12.51 18.86,12.68 18.996,12.759C19.269,12.917 19.569,12.893 19.526,12.897C19.546,13.018 19.638,13.136 19.748,13.191C19.844,13.239 20.16,13.129 20.072,13.191C20.081,13.269 20.176,13.534 20.398,13.718C20.692,13.963 21.231,14.012 21.166,14.006C21.151,14.12 21.262,14.226 21.354,14.296C21.423,14.349 21.498,14.396 21.574,14.441C21.635,14.476 21.763,14.536 21.763,14.536C21.746,14.605 21.769,14.852 22.021,14.989C22.339,15.161 22.577,15.206 22.533,15.198C22.568,15.445 22.669,15.667 22.686,15.705C22.808,15.97 23.157,16.138 23.114,16.117C23.03,16.23 23.037,16.398 23.063,16.537C23.116,16.825 23.553,17.007 23.506,16.988C23.434,17.116 23.436,17.286 23.472,17.429C23.569,17.806 23.965,18.156 23.729,17.9C23.658,18.045 23.605,18.204 23.592,18.365C23.575,18.588 23.821,19.144 23.849,19.209C23.813,19.227 23.577,19.341 23.592,19.647C23.611,19.982 23.646,19.962 23.746,20.273Z" style="fill:white;fill-rule:nonzero;"/>
                </g>
                <g transform="matrix(0.896117,3.24196e-17,-3.24196e-17,0.896117,219.046,223.655)">
                    <path d="M17.925,24.014C16.077,23.413 14.068,22.062 12.917,20.773C12.676,20.503 11.375,19.121 11.297,16.632L11.293,16.865C11.289,19.482 12.646,20.98 12.838,21.207C13.984,22.563 16.032,24.002 17.925,24.618C22.518,26.114 24.654,22.428 24.654,19.442L24.649,19.209C24.55,22.049 22.486,25.499 17.925,24.014Z" style="fill:rgb(255,182,54);fill-rule:nonzero;"/>
                </g>
                <g transform="matrix(0.896117,3.24196e-17,-3.24196e-17,0.896117,219.046,223.655)">
                    <path d="M19.867,11.226C19.835,11.168 19.651,10.828 19.207,10.74C18.659,10.631 17.926,10.016 17.828,9.934C17.469,9.631 16.929,9.765 16.929,10.186C16.929,10.275 16.929,10.841 17.623,11.064C18.012,11.189 18.635,11.183 18.979,11.064C19.296,10.953 19.801,11.194 19.867,11.226Z" style="fill:rgb(181,143,229);fill-rule:nonzero;"/>
                </g>
                <g transform="matrix(0.896117,3.24196e-17,-3.24196e-17,0.896117,219.046,223.655)">
                    <path d="M17.623,11.068C16.925,10.844 16.925,10.275 16.925,10.185C16.925,9.993 17.038,9.838 17.222,9.783C17.543,9.689 17.792,9.899 17.83,9.932C17.919,10.006 18.538,10.525 19.06,10.697L19.206,10.736L19.307,10.762C19.621,10.864 19.858,11.187 19.87,11.225L19.876,11.234L19.866,11.23C19.797,11.209 19.159,11.007 18.981,11.069C18.637,11.187 18.015,11.194 17.623,11.068ZM17.581,9.801C17.468,9.765 17.341,9.756 17.226,9.791C17.044,9.845 16.933,9.999 16.933,10.187C16.933,10.276 16.933,10.839 17.623,11.06C18.013,11.185 18.634,11.178 18.976,11.059C19.271,10.955 19.792,11.188 19.858,11.218C19.825,11.163 19.625,10.828 19.208,10.744L19.061,10.705C18.531,10.531 17.916,10.012 17.827,9.937C17.754,9.877 17.67,9.83 17.581,9.801Z" style="fill:rgb(107,38,181);fill-rule:nonzero;"/>
                </g>
                <g transform="matrix(0.896117,3.24196e-17,-3.24196e-17,0.896117,219.046,223.655)">
                    <path d="M24.242,14.951C24.9,14.978 24.868,15.656 24.871,15.71C24.886,15.977 25.014,16.424 25.128,16.559C25.261,16.713 25.462,17.168 25.485,17.344C25.509,17.526 25.435,17.638 25.319,17.475C25.259,17.391 24.859,16.83 24.403,16.561C24.314,16.509 23.594,16.087 23.594,15.55C23.593,15.108 23.977,14.94 24.242,14.951Z" style="fill:rgb(181,143,229);fill-rule:nonzero;"/>
                </g>
                <g transform="matrix(0.896117,3.24196e-17,-3.24196e-17,0.896117,219.046,223.655)">
                    <path d="M25.443,17.59C25.395,17.592 25.33,17.498 25.316,17.479C25.256,17.395 24.856,16.834 24.401,16.566C24.312,16.514 23.589,16.092 23.589,15.552C23.589,15.091 23.994,14.938 24.242,14.948C24.856,14.973 24.865,15.532 24.874,15.688L24.875,15.709C24.889,15.971 25.015,16.419 25.131,16.556C25.263,16.71 25.465,17.164 25.49,17.343C25.49,17.347 25.525,17.56 25.456,17.588L25.443,17.59ZM24.242,14.955C23.997,14.945 23.596,15.097 23.596,15.553C23.596,16.087 24.315,16.507 24.404,16.559C24.863,16.828 25.261,17.389 25.321,17.474C25.327,17.482 25.398,17.584 25.443,17.582L25.453,17.58C25.526,17.551 25.491,17.423 25.48,17.345C25.457,17.167 25.256,16.715 25.124,16.562C25.007,16.424 24.88,15.974 24.866,15.71L24.865,15.689C24.856,15.518 24.849,14.98 24.242,14.955Z" style="fill:rgb(107,38,181);fill-rule:nonzero;"/>
                </g>
                <g transform="matrix(0.896117,3.24196e-17,-3.24196e-17,0.896117,219.046,223.655)">
                    <path d="M25.263,18.8C25.885,18.78 25.885,19.372 25.885,19.444C25.886,19.529 25.831,19.501 25.572,20.462C25.53,20.618 25.466,21.426 25.438,21.494C25.398,21.591 25.197,21.837 25.272,21.763C25.193,21.653 25.157,21.513 25.143,21.378C25.136,21.305 25.071,20.642 24.969,20.469C24.924,20.394 24.55,19.778 24.55,19.459C24.55,19.138 24.987,18.809 25.263,18.8Z" style="fill:rgb(181,143,229);fill-rule:nonzero;"/>
                </g>
                <g transform="matrix(0.896117,3.24196e-17,-3.24196e-17,0.896117,219.046,223.655)">
                    <path d="M25.271,21.769L25.269,21.765C25.199,21.7 25.146,21.449 25.139,21.379L25.128,21.209C25.125,21.148 25.101,20.699 24.965,20.471L24.92,20.397C24.878,20.328 24.546,19.783 24.546,19.459C24.546,19.134 24.995,18.804 25.263,18.796C25.889,18.776 25.89,19.372 25.89,19.444C25.89,19.665 25.738,20.03 25.717,20.078L25.576,20.463C25.524,20.658 25.502,21.021 25.5,21.07C25.495,21.137 25.485,21.39 25.442,21.496C25.409,21.575 25.34,21.701 25.275,21.766L25.271,21.769ZM25.263,18.804C24.998,18.812 24.554,19.138 24.554,19.459C24.554,19.78 24.885,20.324 24.927,20.393L24.973,20.467C25.109,20.697 25.133,21.147 25.136,21.208L25.148,21.378C25.16,21.498 25.203,21.654 25.273,21.756C25.34,21.681 25.396,21.585 25.434,21.492C25.477,21.389 25.487,21.134 25.491,21.071C25.494,21.022 25.519,20.639 25.568,20.461L25.709,20.076C25.729,20.027 25.881,19.665 25.881,19.444C25.881,19.373 25.881,18.785 25.263,18.804Z" style="fill:rgb(107,38,181);fill-rule:nonzero;"/>
                </g>
                <g transform="matrix(0.896117,3.24196e-17,-3.24196e-17,0.896117,219.046,223.655)">
                    <path d="M10.507,14.456C10.609,14.564 10.692,14.692 10.748,14.83C10.822,15.01 10.858,15.204 10.922,15.388C10.948,15.465 11.001,15.564 11.054,15.631C11.255,15.885 11.605,16.574 11.604,16.813C11.604,17.091 11.391,17.416 11.055,17.449C10.713,17.481 10.33,17.193 10.314,16.844C10.288,16.308 10.595,16.176 10.56,15.823L10.533,15.279L10.507,14.456Z" style="fill:rgb(181,143,229);fill-rule:nonzero;"/>
                </g>
                <g transform="matrix(0.896117,3.24196e-17,-3.24196e-17,0.896117,219.046,223.655)">
                    <path d="M11.055,17.453C10.696,17.487 10.325,17.184 10.311,16.844C10.294,16.506 10.404,16.321 10.453,16.238C10.54,16.089 10.574,16 10.556,15.825L10.535,15.438L10.53,15.28L10.505,14.458L10.504,14.448L10.511,14.454C10.598,14.54 10.708,14.718 10.752,14.828L10.829,15.074C10.842,15.121 10.942,15.483 11.057,15.628C11.255,15.877 11.609,16.571 11.609,16.813C11.608,17.125 11.353,17.424 11.055,17.453ZM10.511,14.466L10.536,15.277L10.541,15.436L10.562,15.822C10.579,15.998 10.545,16.092 10.458,16.242C10.409,16.325 10.301,16.507 10.317,16.842C10.332,17.178 10.699,17.478 11.054,17.444C11.35,17.415 11.6,17.119 11.601,16.813C11.601,16.572 11.248,15.882 11.05,15.632C10.933,15.485 10.833,15.123 10.82,15.076L10.744,14.831C10.692,14.703 10.602,14.568 10.511,14.466Z" style="fill:rgb(107,38,181);fill-rule:nonzero;"/>
                </g>
                <g transform="matrix(0.896117,3.24196e-17,-3.24196e-17,0.896117,219.046,223.655)">
                    <path d="M14.262,10.229C13.867,10.518 13.689,10.975 13.659,11.051C13.609,11.178 13.132,12.397 12.611,12.398C12.11,12.398 11.956,11.977 11.955,11.692C11.954,11.458 12.287,11.114 12.656,10.996C12.724,10.974 13.139,10.841 13.408,10.525C13.688,10.197 14.148,10.208 14.217,10.21" style="fill:rgb(181,143,229);fill-rule:nonzero;"/>
                </g>
                <g transform="matrix(0.896117,3.24196e-17,-3.24196e-17,0.896117,219.046,223.655)">
                    <path d="M12.61,12.402C11.954,12.402 11.951,11.77 11.95,11.692C11.949,11.451 12.29,11.108 12.653,10.992C12.72,10.97 13.135,10.837 13.404,10.523C13.622,10.267 14.122,10.192 14.215,10.206L14.216,10.214C14.147,10.218 13.655,10.242 13.41,10.528C13.14,10.844 12.724,10.978 12.656,11C12.294,11.115 11.957,11.454 11.958,11.692C11.958,11.769 11.962,12.394 12.61,12.394C13.218,12.393 13.482,11.514 13.578,11.252L13.654,11.05C13.823,10.617 14.2,10.262 14.259,10.227L14.264,10.234C14.205,10.269 13.83,10.622 13.662,11.054L13.586,11.256C13.488,11.523 13.225,12.401 12.61,12.402Z" style="fill:rgb(107,38,181);fill-rule:nonzero;"/>
                </g>
                <g transform="matrix(0.896117,3.24196e-17,-3.24196e-17,0.896117,219.046,223.655)">
                    <path d="M16.826,12.469C16.986,12.517 16.962,12.518 18.808,13.127C18.903,13.158 19.72,13.428 19.72,13.994C19.72,14.415 19.451,14.505 19.493,14.491C19.506,14.541 19.584,14.838 19.436,15.134C19.185,15.626 18.573,15.374 18.558,15.369L17.031,14.889C16.605,14.758 16.481,14.301 16.439,14.143C16.369,13.883 15.855,12.177 16.826,12.469ZM17.088,14.917C17.226,14.96 17.588,15.072 18.808,15.474C19.088,15.566 19.179,15.745 19.195,16.148C19.215,16.626 20.195,24.826 20.232,25.206C20.289,25.797 19.758,25.703 19.81,25.713C19.672,25.934 19.11,25.912 19.047,25.909C18.44,25.886 18.146,25.714 17.976,25.614C17.921,25.582 17.514,25.341 17.213,25.37C16.787,25.41 16.425,25.118 16.369,25.073C16.107,24.863 16.08,24.611 16.084,24.651C15.942,24.575 15.82,24.464 15.708,24.349C15.44,24.075 15.556,23.572 15.571,23.505C15.615,23.312 16.528,15.842 16.562,15.591C16.571,15.523 16.673,14.79 17.088,14.917Z" style="fill:rgb(140,138,140);fill-rule:nonzero;"/>
                </g>
                <g transform="matrix(0.896117,3.24196e-17,-3.24196e-17,0.896117,219.046,223.655)">
                    <path d="M17.955,13.104C18.296,14.286 18.638,15.468 18.98,16.65C19.248,16.739 21.151,17.37 22.381,17.62C21.267,18.193 19.84,18.755 19.615,18.843C19.973,20.029 20.332,21.216 20.691,22.402C19.461,21.135 19.491,21.14 17.955,19.505C17.733,19.597 16.281,20.196 15.218,20.744C15.303,20.507 15.722,19.343 16.294,17.789C16.081,17.578 14.739,16.242 13.527,15.265C14.945,15.391 16.662,15.908 16.929,15.989C17.271,15.027 17.613,14.066 17.955,13.104Z" style="fill:white;fill-rule:nonzero;"/>
                </g>
                <g transform="matrix(0.896117,3.24196e-17,-3.24196e-17,0.896117,219.046,223.655)">
                    <path d="M12.134,15.999C12.115,15.937 11.941,15.355 11.518,15.476C11.316,15.533 11.221,15.682 11.395,15.838C11.475,15.91 11.499,16.001 11.592,15.925C11.679,15.857 11.827,15.846 11.909,15.929C11.964,15.985 12.212,15.996 12.134,15.999ZM10.8,14.283L10.937,14.476C11.015,14.611 11.275,14.657 11.406,14.594C11.553,14.524 11.51,14.963 11.453,15.024C11.315,15.17 11.169,15.141 11.028,15.016C10.738,14.761 10.808,14.223 10.8,14.283ZM11.783,14.26C11.983,14.176 12.089,14.405 12.076,14.566C12.055,14.789 11.858,15.209 11.833,15.262L11.758,15.061C11.72,14.93 11.852,14.846 11.777,14.706C11.745,14.649 11.737,14.589 11.735,14.524C11.733,14.435 11.816,14.177 11.783,14.26ZM11.297,12.639C11.404,12.74 11.516,12.851 11.657,12.894C11.771,12.927 12.051,12.808 12.129,12.987C12.222,13.2 12.196,13.543 11.926,13.463C11.555,13.354 11.427,13.03 11.423,13.022L11.297,12.639ZM12.952,12.084C13.091,11.939 13.432,11.974 13.453,12.239C13.476,12.523 13.265,12.972 13.237,13.032L13.157,12.765C13.139,12.631 13.069,12.426 12.929,12.368C12.841,12.332 13.01,12.009 12.952,12.084ZM13.567,11.417C13.731,11.317 13.973,11.429 14.035,11.619C14.085,11.778 13.959,12.416 13.864,12.531L13.796,12.295C13.716,11.996 13.832,11.915 13.545,11.813C13.474,11.789 13.429,11.745 13.434,11.665C13.441,11.572 13.631,11.349 13.567,11.417ZM14.649,9.816C14.464,9.95 14.082,10.386 14.387,10.796C14.48,10.922 14.949,11.283 14.774,10.729C14.726,10.573 14.765,10.582 14.683,10.438C14.62,10.328 14.591,10.185 14.649,10.067C14.686,9.992 14.625,9.736 14.649,9.816Z" style="fill:rgb(255,182,54);fill-rule:nonzero;"/>
                    <path d="M14.205,11.178C14.185,11.323 14.236,11.431 14.342,11.529C14.441,11.622 14.362,12.068 14.387,11.934C14.538,11.926 14.619,11.707 14.637,11.557C14.683,11.192 14.516,10.966 14.432,10.952C14.327,10.934 14.157,11.273 14.205,11.178ZM15.071,10.789C14.967,10.894 14.965,11.201 15.116,11.346C15.335,11.555 15.166,12.16 15.218,11.882C15.468,11.789 15.488,11.485 15.491,11.444C15.513,11.094 15.265,10.75 15.297,10.794L15.071,10.789ZM15.88,9.74C15.704,9.849 15.384,10.198 15.606,10.571C15.837,10.959 16.187,10.653 16.062,10.495C15.979,10.389 15.787,10.234 15.857,10.065C15.899,9.965 15.85,9.636 15.88,9.74Z" style="fill:rgb(255,182,54);fill-rule:nonzero;"/>
                    <path d="M15.926,10.812C16.125,10.802 16.228,10.995 16.256,11.163C16.29,11.365 16.034,11.807 16.005,11.858C15.938,11.779 15.901,11.652 15.936,11.555C15.996,11.395 15.867,11.239 15.777,11.127C15.671,10.993 15.76,10.82 15.926,10.812ZM17.236,10.839C16.965,10.818 16.952,11.039 17.088,11.192C17.186,11.303 17.282,11.422 17.213,11.572C17.178,11.65 17.253,11.906 17.224,11.827C17.384,11.793 17.498,11.604 17.531,11.444C17.597,11.134 17.414,10.853 17.236,10.839ZM20.038,11.062C20.009,11.117 19.834,11.455 20.072,11.825C20.117,11.895 20.556,12.269 20.528,11.861C20.517,11.693 20.364,11.612 20.255,11.505C20.188,11.441 20.094,11.396 20.118,11.293C20.138,11.214 19.988,10.998 20.038,11.062ZM20.051,12.012C19.905,12.031 19.917,12.375 19.959,12.463C20.015,12.581 19.874,12.684 19.845,12.781L19.811,12.895C19.852,12.895 20.095,12.894 20.279,12.676C20.308,12.641 20.57,12.33 20.358,12.119C20.281,12.042 19.942,12.017 20.051,12.012ZM21.03,11.55C20.972,11.583 20.528,11.832 20.574,12.24C20.619,12.65 20.999,12.66 21.064,12.495C21.128,12.326 21.013,12.166 20.985,12.005C20.963,11.893 20.995,11.853 21.041,11.747C21.048,11.73 21.076,11.563 21.03,11.55Z" style="fill:rgb(255,182,54);fill-rule:nonzero;"/>
                    <path d="M20.894,12.629C20.802,12.713 20.848,12.728 20.848,13.14C20.848,13.291 20.677,13.376 20.689,13.528C20.86,13.536 21.219,13.412 21.27,13.029C21.329,12.573 20.955,12.613 20.894,12.629ZM21.645,12.567C21.951,12.399 22.461,12.681 22.523,12.715C22.484,12.796 22.371,12.862 22.284,12.839C22.174,12.807 22.141,13.139 21.805,13.108C21.421,13.07 21.474,12.662 21.645,12.567ZM21.895,13.493C21.669,13.53 21.611,13.791 21.781,13.922C21.917,14.027 21.953,14.099 21.94,14.267C21.933,14.364 22.077,14.628 22.021,14.548C22.167,14.365 22.198,14.072 22.202,14.028C22.208,13.979 22.265,13.431 21.895,13.493ZM22.557,13.895C22.578,13.699 22.882,13.533 23.137,13.569C23.213,13.58 23.289,13.598 23.362,13.623C23.438,13.65 23.582,13.727 23.582,13.727C23.573,13.805 23.443,13.822 23.365,13.816C23.212,13.806 23.091,14.196 22.806,14.167C22.747,14.161 22.644,14.14 22.598,14.088C22.554,14.038 22.581,13.834 22.557,13.895ZM24.595,18.035C24.679,17.952 24.803,17.905 24.921,17.897C25.148,17.88 25.398,18.176 25.428,18.213C25.471,18.266 25.505,18.325 25.536,18.385C25.565,18.441 25.607,18.558 25.607,18.558C25.527,18.562 25.425,18.543 25.38,18.477C25.349,18.432 24.784,18.413 24.641,18.309L24.436,18.478C24.312,18.549 24.118,18.477 24.037,18.621C23.986,18.714 23.733,18.914 23.821,18.856C23.816,18.801 23.776,18.398 23.979,18.184C24.101,18.057 24.227,17.94 24.413,17.976L24.595,18.035Z" style="fill:rgb(255,182,54);fill-rule:nonzero;"/>
                </g>
                <g transform="matrix(0.896117,3.24196e-17,-3.24196e-17,0.896117,219.046,223.655)">
                    <path d="M12.747,12.296C12.772,12.313 12.938,12.495 12.849,12.856C12.824,12.958 12.62,13.795 12.701,14.153C12.664,14.108 12.421,13.815 12.454,13.47C12.467,13.334 12.706,12.792 12.655,12.626C12.637,12.566 12.626,12.495 12.641,12.433C12.655,12.377 12.801,12.276 12.747,12.296Z" style="fill:rgb(32,121,0);fill-rule:nonzero;"/>
                </g>
                <g transform="matrix(0.896117,3.24196e-17,-3.24196e-17,0.896117,219.046,223.655)">
                    <path d="M12.733,14.218L12.688,14.163C12.65,14.118 12.403,13.829 12.437,13.469C12.451,13.324 12.501,13.199 12.558,13.065C12.614,12.93 12.685,12.781 12.64,12.63C12.603,12.506 12.608,12.344 12.741,12.279L12.749,12.276L12.756,12.281C12.972,12.428 12.877,12.814 12.866,12.859C12.841,12.96 12.638,13.794 12.718,14.148L12.733,14.218ZM12.745,12.316C12.636,12.376 12.641,12.519 12.672,12.621C12.72,12.778 12.65,12.936 12.589,13.079C12.534,13.211 12.485,13.331 12.471,13.472C12.445,13.756 12.643,14.041 12.672,14.084C12.62,13.722 12.809,12.948 12.833,12.852C12.843,12.81 12.924,12.476 12.745,12.316Z" style="fill:rgb(16,56,0);fill-rule:nonzero;"/>
                </g>
                <g transform="matrix(0.896117,3.24196e-17,-3.24196e-17,0.896117,219.046,223.655)">
                    <path d="M12.242,13.11C12.261,13.201 12.402,13.858 12.357,14.26C12.325,14.542 12.019,14.815 12.055,14.783C12.08,14.723 12.216,14.409 12.17,13.98C12.13,13.603 12.226,13.178 12.242,13.11Z" style="fill:rgb(32,121,0);fill-rule:nonzero;"/>
                </g>
                <g transform="matrix(0.896117,3.24196e-17,-3.24196e-17,0.896117,219.046,223.655)">
                    <path d="M12.011,14.844L12.04,14.776C12.06,14.743 12.19,14.335 12.153,13.983C12.12,13.672 12.212,13.176 12.225,13.107L12.242,13.033L12.258,13.106C12.278,13.197 12.419,13.851 12.374,14.261C12.351,14.468 12.155,14.719 12.065,14.794L12.011,14.844ZM12.241,13.192C12.229,13.254 12.152,13.666 12.186,13.977C12.224,14.337 12.114,14.661 12.095,14.718C12.315,14.481 12.336,14.299 12.34,14.258C12.381,13.895 12.258,13.276 12.241,13.192Z" style="fill:rgb(16,56,0);fill-rule:nonzero;"/>
                </g>
                <g transform="matrix(0.896117,3.24196e-17,-3.24196e-17,0.896117,219.046,223.655)">
                    <path d="M11.239,15.681C11.169,15.803 11.104,15.94 11.107,16.081C11.109,16.194 11.206,16.333 11.333,16.322C11.661,16.295 11.628,15.874 11.508,15.693C11.593,15.611 11.641,15.49 11.663,15.374C11.674,15.316 11.671,15.255 11.652,15.199C11.629,15.131 11.481,14.971 11.535,15.018C11.655,15.009 11.766,14.888 11.798,14.773C11.816,14.705 11.814,14.634 11.814,14.565C11.814,14.48 11.714,14.242 11.751,14.318C11.881,14.288 11.984,14.156 12.028,14.03C12.051,13.964 12.057,13.894 12.062,13.824C12.068,13.751 11.978,13.544 12.014,13.608C12.137,13.595 12.247,13.489 12.309,13.381C12.342,13.324 12.36,13.26 12.378,13.196C12.397,13.127 12.353,12.912 12.374,12.981C12.488,12.999 12.595,12.887 12.666,12.796C12.708,12.741 12.736,12.677 12.763,12.613C12.792,12.547 12.763,12.328 12.78,12.398C12.892,12.392 13.003,12.334 13.088,12.26C13.191,12.169 13.255,11.745 13.248,11.882C13.36,11.897 13.478,11.839 13.567,11.77C13.652,11.704 13.719,11.383 13.727,11.49C13.846,11.541 14,11.52 14.114,11.459C14.169,11.431 14.218,11.389 14.252,11.337C14.291,11.278 14.319,11.066 14.319,11.136C14.423,11.213 14.584,11.191 14.706,11.148C14.766,11.126 14.829,11.093 14.873,11.045C14.914,11 14.941,10.813 14.945,10.875C15.044,10.965 15.215,10.968 15.343,10.928C15.448,10.895 15.615,10.619 15.605,10.728C15.687,10.814 15.829,10.837 15.947,10.827C16.007,10.821 16.064,10.799 16.119,10.777C16.177,10.753 16.283,10.593 16.255,10.648C16.307,10.774 16.472,10.846 16.608,10.852C16.676,10.855 16.749,10.846 16.811,10.816C16.874,10.786 16.988,10.609 16.962,10.673C17.028,10.805 17.151,10.925 17.293,10.969C17.353,10.988 17.418,10.989 17.481,10.991C17.554,10.994 17.755,10.901 17.692,10.936C17.754,11.05 17.877,11.133 18,11.173C18.119,11.212 18.487,11.101 18.376,11.159C18.445,11.277 18.59,11.334 18.717,11.386C18.784,11.414 18.854,11.439 18.926,11.452C18.981,11.461 19.094,11.453 19.094,11.453C19.154,11.575 19.249,11.689 19.367,11.758C19.48,11.826 19.886,11.842 19.754,11.849C19.794,11.984 19.901,12.101 20.017,12.183C20.073,12.223 20.136,12.255 20.202,12.276C20.274,12.298 20.427,12.309 20.427,12.309C20.418,12.445 20.539,12.577 20.655,12.649C20.717,12.688 20.787,12.716 20.856,12.743C20.921,12.768 21.133,12.753 21.065,12.766C21.11,12.918 21.22,13.056 21.349,13.15C21.415,13.199 21.488,13.241 21.563,13.276C21.614,13.3 21.725,13.325 21.725,13.325C21.734,13.456 21.822,13.578 21.917,13.667C21.968,13.713 22.025,13.755 22.086,13.787C22.152,13.821 22.294,13.864 22.294,13.864C22.294,14.001 22.368,14.143 22.465,14.24C22.522,14.296 22.586,14.345 22.653,14.39C22.705,14.424 22.819,14.476 22.819,14.476C22.772,14.583 22.795,14.731 22.865,14.825C22.913,14.89 22.974,14.945 23.035,14.996C23.095,15.047 23.228,15.13 23.228,15.13C23.207,15.252 23.234,15.387 23.297,15.493C23.368,15.612 23.729,15.829 23.605,15.768L23.672,16.083C23.692,16.142 23.731,16.189 23.775,16.232C23.84,16.296 24.087,16.42 24.003,16.383C23.944,16.485 23.916,16.619 23.946,16.733C23.983,16.872 24.338,17.149 24.219,17.067C24.157,17.136 24.15,17.246 24.161,17.338C24.18,17.484 24.481,17.828 24.378,17.723C24.327,17.838 24.326,17.971 24.32,18.097C24.318,18.167 24.327,18.241 24.353,18.306C24.379,18.372 24.541,18.514 24.48,18.477C24.401,18.563 24.362,18.687 24.355,18.804C24.345,18.998 24.545,19.206 24.699,19.195C24.886,19.183 24.951,19.032 24.933,18.863C24.915,18.712 24.635,18.339 24.733,18.454C24.821,18.362 24.882,18.227 24.875,18.1C24.861,17.912 24.578,17.64 24.607,17.668C24.704,17.614 24.704,17.46 24.699,17.35C24.696,17.28 24.676,17.211 24.638,17.152C24.595,17.086 24.386,16.965 24.459,16.995C24.547,16.922 24.505,16.766 24.481,16.654C24.467,16.583 24.438,16.511 24.395,16.452C24.35,16.39 24.148,16.278 24.219,16.305C24.266,16.187 24.231,16.044 24.185,15.926C24.16,15.861 24.119,15.802 24.068,15.753C24.007,15.696 23.774,15.595 23.854,15.62C23.854,15.486 23.822,15.352 23.775,15.227C23.754,15.169 23.716,15.118 23.666,15.08C23.606,15.036 23.382,14.995 23.456,15C23.476,14.845 23.427,14.664 23.319,14.55C23.271,14.499 23.216,14.454 23.156,14.418C23.09,14.378 22.943,14.325 22.943,14.325C22.995,14.194 22.9,14.031 22.806,13.926C22.756,13.87 22.693,13.816 22.626,13.782C22.563,13.751 22.35,13.757 22.418,13.741C22.418,13.48 22.22,13.301 22.189,13.272C22.134,13.221 22.07,13.178 22.004,13.14C21.952,13.109 21.766,13.115 21.825,13.099C21.816,12.966 21.703,12.852 21.597,12.771C21.538,12.725 21.475,12.684 21.406,12.653C21.337,12.622 21.189,12.585 21.189,12.585C21.18,12.44 21.058,12.311 20.938,12.23C20.873,12.188 20.804,12.151 20.731,12.126C20.658,12.101 20.504,12.082 20.504,12.082C20.504,11.938 20.361,11.819 20.242,11.74C20.174,11.696 20.1,11.662 20.027,11.629C19.962,11.599 19.748,11.594 19.819,11.586C19.763,11.465 19.654,11.371 19.546,11.294C19.488,11.253 19.419,11.23 19.352,11.207C19.273,11.179 19.02,11.212 19.102,11.196C19.078,11.163 18.942,10.972 18.714,10.874C18.655,10.848 18.591,10.836 18.528,10.824C18.469,10.812 18.296,10.872 18.35,10.845C18.288,10.722 18.146,10.652 18.019,10.599C17.954,10.573 17.885,10.56 17.815,10.552C17.756,10.546 17.6,10.644 17.643,10.602C17.593,10.499 17.464,10.453 17.358,10.41C17.293,10.383 17.221,10.374 17.152,10.388C17.069,10.404 16.866,10.564 16.926,10.504C16.815,10.384 16.666,10.274 16.504,10.253C16.446,10.245 16.386,10.257 16.329,10.268C16.264,10.281 16.119,10.422 16.162,10.373C16.071,10.281 15.926,10.244 15.797,10.242C15.734,10.241 15.672,10.258 15.611,10.276C15.549,10.295 15.42,10.451 15.456,10.396C15.369,10.327 15.234,10.335 15.125,10.355C15.063,10.366 15.005,10.394 14.958,10.437C14.903,10.487 14.822,10.699 14.84,10.627C14.735,10.533 14.549,10.552 14.419,10.606C14.354,10.633 14.293,10.673 14.237,10.716C14.194,10.75 14.161,10.915 14.157,10.861C14.056,10.806 13.92,10.85 13.815,10.895C13.754,10.922 13.702,10.965 13.669,11.024C13.63,11.095 13.631,11.341 13.621,11.261C13.5,11.196 13.325,11.241 13.211,11.319C13.154,11.359 13.102,11.411 13.073,11.475C13.043,11.539 13.073,11.754 13.051,11.687C12.907,11.674 12.731,11.739 12.652,11.861C12.575,11.979 12.563,12.411 12.549,12.271C12.414,12.284 12.27,12.364 12.2,12.481C12.168,12.533 12.155,12.596 12.141,12.656C12.124,12.729 12.181,12.954 12.158,12.882C12.028,12.885 11.899,12.993 11.843,13.111C11.814,13.172 11.8,13.239 11.787,13.306C11.773,13.377 11.829,13.594 11.805,13.525C11.673,13.568 11.569,13.705 11.53,13.839C11.511,13.904 11.507,13.972 11.503,14.04C11.498,14.107 11.579,14.297 11.546,14.238C11.413,14.286 11.296,14.419 11.267,14.557C11.238,14.694 11.377,15.1 11.313,14.975C11.213,15.052 11.162,15.187 11.141,15.31C11.131,15.373 11.139,15.437 11.147,15.5C11.156,15.567 11.286,15.729 11.239,15.681Z" style="fill:rgb(222,32,15);fill-rule:nonzero;"/>
                </g>
                <g transform="matrix(0.896117,3.24196e-17,-3.24196e-17,0.896117,219.046,223.655)">
                    <path d="M11.24,15.943C11.299,15.992 11.41,15.974 11.468,15.925C11.496,16.029 11.442,16.231 11.334,16.22C11.237,16.21 11.273,15.852 11.24,15.943ZM11.298,15.317C11.328,15.346 11.373,15.361 11.415,15.362L11.545,15.329L11.52,15.497C11.493,15.569 11.442,15.671 11.347,15.644C11.258,15.619 11.259,15.494 11.271,15.426L11.298,15.317ZM11.456,14.565C11.49,14.594 11.535,14.618 11.58,14.619L11.714,14.598L11.67,14.778C11.64,14.848 11.574,14.923 11.49,14.908C11.408,14.893 11.413,14.762 11.415,14.717L11.456,14.565ZM11.689,13.854L11.788,13.926L11.931,13.939L11.876,14.105C11.846,14.154 11.77,14.237 11.695,14.206C11.616,14.174 11.617,14.067 11.629,14L11.689,13.854ZM12.002,13.172C12.026,13.212 12.068,13.246 12.113,13.256L12.256,13.271L12.183,13.423C12.137,13.492 12.056,13.529 11.978,13.501C11.904,13.476 11.91,13.355 11.927,13.304L12.002,13.172ZM12.395,12.528L12.48,12.632L12.627,12.683L12.491,12.837C12.426,12.893 12.315,12.915 12.264,12.83C12.223,12.761 12.249,12.683 12.293,12.624L12.395,12.528ZM12.835,11.928C12.847,11.975 12.876,12.023 12.917,12.049L13.063,12.105C13.022,12.206 12.91,12.321 12.803,12.303C12.678,12.281 12.654,12.164 12.712,12.062L12.835,11.928ZM13.359,11.451L13.436,11.574L13.565,11.657C13.511,11.726 13.432,11.792 13.345,11.801C13.25,11.811 13.153,11.744 13.16,11.641C13.166,11.55 13.444,11.418 13.359,11.451ZM13.937,11.037L14.003,11.171L14.136,11.275C14.081,11.343 13.987,11.405 13.9,11.394C13.812,11.383 13.732,11.344 13.732,11.249C13.732,11.194 13.768,11.122 13.818,11.094L13.937,11.037ZM14.567,10.722L14.621,10.889L14.744,10.994C14.686,11.054 14.591,11.095 14.508,11.081C14.409,11.064 14.337,11.011 14.337,10.909C14.337,10.842 14.384,10.79 14.44,10.759L14.567,10.722ZM15.231,10.527L15.257,10.684L15.374,10.816C15.315,10.844 15.248,10.864 15.183,10.859C15.089,10.85 15.022,10.814 14.999,10.719C14.981,10.644 15.014,10.578 15.082,10.549L15.231,10.527ZM15.903,10.393C15.901,10.457 15.918,10.523 15.946,10.58L16.031,10.709C15.969,10.751 15.877,10.741 15.806,10.718C15.707,10.687 15.631,10.589 15.664,10.482C15.688,10.401 15.987,10.404 15.903,10.393ZM16.649,10.418C16.632,10.477 16.625,10.545 16.646,10.602L16.731,10.738C16.661,10.757 16.583,10.752 16.514,10.732C16.411,10.702 16.319,10.604 16.344,10.489C16.366,10.387 16.748,10.449 16.649,10.418ZM17.375,10.575L17.355,10.7C17.358,10.762 17.455,10.925 17.417,10.876C17.345,10.891 17.265,10.867 17.201,10.831C17.107,10.779 17.043,10.728 17.047,10.621C17.05,10.527 17.145,10.511 17.215,10.52L17.375,10.575ZM17.811,10.839C17.8,10.709 18.03,10.756 18.087,10.775L18.09,10.933C18.118,11.027 17.723,10.795 17.811,10.839ZM18.535,11.06C18.593,10.951 18.818,11.052 18.877,11.105C18.846,11.156 18.824,11.226 18.846,11.282C18.891,11.402 18.439,10.976 18.535,11.06ZM19.617,11.485C19.576,11.501 19.533,11.535 19.526,11.578L19.548,11.748L19.351,11.643C19.277,11.591 19.212,11.49 19.235,11.395C19.254,11.313 19.368,11.334 19.421,11.35C19.497,11.372 19.674,11.54 19.617,11.485ZM20.31,11.944C20.274,11.947 20.249,11.99 20.237,12.024C20.217,12.076 20.243,12.243 20.23,12.19C20.137,12.143 20.076,12.099 20.007,12.021C19.953,11.958 19.923,11.888 19.965,11.81C20.005,11.737 20.119,11.793 20.159,11.811L20.31,11.944ZM20.637,12.267C20.692,12.184 20.878,12.303 20.922,12.349L20.99,12.448C20.954,12.446 20.914,12.471 20.898,12.502C20.875,12.55 20.9,12.711 20.89,12.66L20.73,12.542C20.661,12.478 20.573,12.365 20.637,12.267ZM21.286,12.805C21.337,12.709 21.474,12.776 21.53,12.828L21.637,12.96C21.6,12.962 21.558,12.983 21.538,13.015L21.504,13.172L21.337,13.034C21.285,12.973 21.244,12.885 21.286,12.805ZM21.906,13.327C21.972,13.262 22.068,13.317 22.12,13.37L22.227,13.542L22.123,13.581C22.092,13.613 22.086,13.753 22.086,13.709C22.025,13.677 21.973,13.626 21.932,13.569C21.893,13.514 21.843,13.392 21.906,13.327ZM22.452,13.917C22.52,13.854 22.623,13.909 22.673,13.967L22.776,14.159C22.733,14.155 22.68,14.151 22.648,14.182L22.591,14.308L22.476,14.166C22.441,14.107 22.386,13.984 22.452,13.917ZM22.979,14.529C23.051,14.472 23.171,14.546 23.21,14.603L23.272,14.765L23.166,14.791L23.087,14.902L22.978,14.775C22.946,14.708 22.906,14.59 22.979,14.529ZM23.535,15.224C23.642,15.232 23.816,15.534 23.775,15.436C23.696,15.427 23.594,15.467 23.56,15.54C23.53,15.609 23.493,15.397 23.493,15.321L23.535,15.224ZM23.797,15.837C23.875,15.781 23.979,15.814 24.026,15.894L24.097,16.084L23.941,16.116L23.833,16.214L23.747,16.035C23.722,15.959 23.73,15.884 23.797,15.837ZM24.131,16.509C24.213,16.464 24.288,16.522 24.342,16.587L24.408,16.756L24.259,16.783L24.155,16.897L24.077,16.722C24.058,16.655 24.059,16.549 24.131,16.509ZM24.399,17.172C24.488,17.137 24.575,17.216 24.59,17.301L24.609,17.478L24.475,17.477L24.35,17.539L24.292,17.369C24.282,17.271 24.311,17.207 24.399,17.172ZM24.559,17.907C24.677,17.878 24.746,17.967 24.749,18.077L24.746,18.22L24.609,18.22C24.565,18.232 24.47,18.337 24.496,18.299L24.441,18.118C24.428,18.027 24.462,17.93 24.559,17.907ZM24.609,18.616C24.701,18.593 24.81,18.675 24.816,18.769L24.819,18.939L24.685,18.926L24.542,19.004L24.505,18.84C24.493,18.749 24.509,18.642 24.609,18.616Z" style="fill:rgb(255,227,1);fill-rule:nonzero;"/>
                </g>
                <g transform="matrix(0.896117,3.24196e-17,-3.24196e-17,0.896117,219.046,223.655)">
                    <path d="M22.875,14.76C23.178,14.723 23.087,14.866 23.206,15.14C23.255,15.254 23.133,15.648 23.011,15.761C22.958,15.722 22.944,15.635 22.955,15.57C22.966,15.504 22.685,15.017 22.681,14.977C22.671,14.867 22.772,14.773 22.875,14.76Z" style="fill:rgb(255,182,54);fill-rule:nonzero;"/>
                </g>
                <g transform="matrix(0.896117,3.24196e-17,-3.24196e-17,0.896117,219.046,223.655)">
                    <path d="M19.07,12.495C19.389,12.51 19.389,12.054 19.389,12.007C19.389,11.517 18.661,10.953 18.295,11.021L18.42,11.336C18.391,11.272 18.558,11.359 18.625,11.38C18.836,11.45 19.094,11.73 19.139,11.949C19.207,12.289 19.045,12.532 19.07,12.495Z" style="fill:rgb(32,121,0);fill-rule:nonzero;"/>
                </g>
                <g transform="matrix(0.896117,3.24196e-17,-3.24196e-17,0.896117,219.046,223.655)">
                    <path d="M19.036,12.511L19.056,12.481C19.186,12.263 19.131,11.988 19.123,11.945C19.079,11.729 18.827,11.463 18.626,11.397L18.434,11.348L18.437,11.332L18.406,11.337L18.402,11.327L18.273,11.005L18.288,11.003C18.621,10.939 19.001,11.294 19.05,11.339C19.094,11.381 19.407,11.675 19.407,12.013C19.407,12.061 19.407,12.512 19.075,12.514L19.036,12.511ZM18.626,11.363C18.84,11.434 19.11,11.719 19.156,11.95C19.164,11.991 19.215,12.25 19.104,12.473C19.372,12.426 19.372,12.044 19.372,12.001C19.372,11.682 19.074,11.402 19.032,11.363C18.986,11.32 18.641,10.995 18.318,11.035L18.428,11.312L18.626,11.363Z" style="fill:rgb(16,56,0);fill-rule:nonzero;"/>
                </g>
                <g transform="matrix(0.896117,3.24196e-17,-3.24196e-17,0.896117,219.046,223.655)">
                    <path d="M17.623,10.904C17.661,10.881 17.874,10.756 18.182,10.857C18.464,10.95 18.706,11.382 18.706,11.623C18.706,11.69 18.706,12.397 18.102,12.199C18.398,12.091 18.398,11.739 18.398,11.693C18.398,11.329 18.155,11.032 18.01,10.984L17.623,10.904Z" style="fill:rgb(32,121,0);fill-rule:nonzero;"/>
                </g>
                <g transform="matrix(0.896117,3.24196e-17,-3.24196e-17,0.896117,219.046,223.655)">
                    <path d="M18.102,12.216L18.047,12.198L18.092,12.182C18.155,12.16 18.381,11.994 18.381,11.687C18.381,11.309 18.119,11.038 18.01,11.002L17.626,10.923L17.566,10.916L17.61,10.889C17.893,10.748 18.136,10.828 18.18,10.842C18.482,10.941 18.722,11.389 18.722,11.63C18.722,11.699 18.728,12.421 18.102,12.216ZM18.011,10.967C18.172,11.02 18.416,11.336 18.416,11.698C18.416,12.051 18.191,12.175 18.152,12.197C18.689,12.335 18.689,11.681 18.689,11.618C18.689,11.362 18.425,10.954 18.182,10.874C18.02,10.821 17.842,10.832 17.687,10.896L18.011,10.967Z" style="fill:rgb(16,56,0);fill-rule:nonzero;"/>
                </g>
                <g transform="matrix(0.896117,3.24196e-17,-3.24196e-17,0.896117,219.046,223.655)">
                    <path d="M23.616,15.02C23.602,15.076 23.512,15.419 23.65,15.752C23.892,16.338 23.932,17.053 23.524,17.265C23.534,17.207 23.592,16.862 23.582,16.531C23.576,16.368 23.359,15.66 23.353,15.525C23.344,15.231 23.652,14.992 23.616,15.02Z" style="fill:rgb(32,121,0);fill-rule:nonzero;"/>
                </g>
                <g transform="matrix(0.896117,3.24196e-17,-3.24196e-17,0.896117,219.046,223.655)">
                    <path d="M23.501,17.297L23.508,17.26C23.508,16.883 23.577,16.909 23.566,16.529C23.559,16.354 23.46,16.043 23.447,16.002C23.403,15.861 23.344,15.679 23.338,15.522C23.33,15.301 23.518,15.068 23.606,15.005L23.648,14.973L23.634,15.024C23.62,15.08 23.533,15.421 23.667,15.746C23.931,16.384 23.93,17.074 23.534,17.28L23.501,17.297ZM23.588,15.069C23.362,15.287 23.369,15.485 23.37,15.526C23.377,15.678 23.437,15.86 23.479,15.996C23.493,16.038 23.592,16.355 23.598,16.532C23.608,16.833 23.555,17.176 23.546,17.231C23.93,16.997 23.847,16.283 23.634,15.757C23.512,15.458 23.578,15.123 23.588,15.069Z" style="fill:rgb(16,56,0);fill-rule:nonzero;"/>
                </g>
                <g transform="matrix(0.896117,3.24196e-17,-3.24196e-17,0.896117,219.046,223.655)">
                    <path d="M24.117,16.163L24.105,16.789C24.122,17.085 24.794,17.893 24.607,18.445C24.593,18.392 24.504,18.07 24.368,17.803C24.326,17.722 23.947,16.992 23.958,16.735C23.974,16.348 24.308,15.778 24.117,16.163Z" style="fill:rgb(32,121,0);fill-rule:nonzero;"/>
                </g>
                <g transform="matrix(0.896117,3.24196e-17,-3.24196e-17,0.896117,219.046,223.655)">
                    <path d="M24.605,18.504L24.59,18.45C24.478,18.113 24.513,18.125 24.352,17.811L24.319,17.747C24.279,17.67 23.929,16.998 23.941,16.733C23.952,16.471 24.081,16.198 24.101,16.155L24.14,16.075L24.133,16.165L24.121,16.789C24.131,16.956 24.329,17.304 24.353,17.346C24.367,17.37 24.78,17.984 24.623,18.45L24.605,18.504ZM24.094,16.259C24.037,16.401 23.983,16.579 23.975,16.736C23.965,16.99 24.311,17.656 24.35,17.732L24.383,17.796C24.406,17.841 24.497,18.019 24.608,18.384C24.702,18.022 24.367,17.436 24.325,17.362C24.301,17.319 24.098,16.959 24.09,16.789L24.094,16.259Z" style="fill:rgb(16,56,0);fill-rule:nonzero;"/>
                </g>
                <g transform="matrix(0.896117,3.24196e-17,-3.24196e-17,0.896117,219.046,223.655)">
                    <path d="M24.78,19.379C24.828,19.439 25.18,19.879 25.156,20.262C25.147,20.409 24.905,21.173 24.99,21.416C24.925,21.339 24.754,20.991 24.827,20.574C24.922,20.039 24.8,19.472 24.78,19.379Z" style="fill:rgb(32,121,0);fill-rule:nonzero;"/>
                </g>
                <g transform="matrix(0.896117,3.24196e-17,-3.24196e-17,0.896117,219.046,223.655)">
                    <path d="M25.038,21.499L24.975,21.427C24.716,21.103 24.798,20.641 24.81,20.572C24.879,20.177 24.777,19.477 24.763,19.383L24.747,19.31L24.794,19.368C24.842,19.43 25.197,19.882 25.173,20.263C25.163,20.42 25.114,20.589 25.073,20.736C25.058,20.788 24.937,21.218 25.006,21.41L25.038,21.499ZM24.812,19.45C24.828,19.539 24.928,20.1 24.845,20.577C24.771,20.995 24.921,21.268 24.95,21.32C24.924,21.139 25.028,20.772 25.041,20.726C25.083,20.581 25.131,20.415 25.14,20.26C25.159,19.934 24.853,19.507 24.812,19.45Z" style="fill:rgb(16,56,0);fill-rule:nonzero;"/>
                </g>
                <g transform="matrix(0.896117,3.24196e-17,-3.24196e-17,0.896117,219.046,223.655)">
                    <path d="M24.723,19.323C24.756,19.378 24.999,19.79 24.992,20.084C24.99,20.153 24.982,20.152 24.573,21.419C24.47,21.737 24.432,22.234 24.426,22.306C24.41,22.255 24.312,21.949 24.335,21.641C24.344,21.518 24.685,20.42 24.713,20.177C24.769,19.675 24.714,19.255 24.723,19.323Z" style="fill:rgb(32,121,0);fill-rule:nonzero;"/>
                </g>
                <g transform="matrix(0.896117,3.24196e-17,-3.24196e-17,0.896117,219.046,223.655)">
                    <path d="M24.436,22.393L24.409,22.31C24.392,22.259 24.294,21.962 24.318,21.64C24.328,21.498 24.458,21.088 24.473,21.041C24.495,20.973 24.664,20.445 24.696,20.175C24.715,20.001 24.707,20.014 24.707,19.325L24.696,19.241L24.738,19.314C24.773,19.369 25.018,19.769 25.009,20.083C25.002,20.435 24.748,21.029 24.715,21.108L24.59,21.423C24.568,21.491 24.61,21.479 24.443,22.306L24.436,22.393ZM24.748,19.405C24.775,19.768 24.735,20.117 24.728,20.179C24.698,20.445 24.527,20.983 24.505,21.051C24.49,21.098 24.36,21.505 24.35,21.643C24.347,21.688 24.332,21.88 24.415,22.212C24.471,21.673 24.535,21.475 24.555,21.414L24.681,21.096C24.714,21.018 24.965,20.424 24.972,20.084C24.98,19.84 24.775,19.455 24.748,19.405Z" style="fill:rgb(16,56,0);fill-rule:nonzero;"/>
                </g>
                <g transform="matrix(0.896117,3.24196e-17,-3.24196e-17,0.896117,219.046,223.655)">
                    <path d="M11.057,16.915L11.074,17.697C11.082,17.783 11.566,18.835 11.593,19.005C11.653,19.375 11.348,19.846 11.383,19.792C11.388,19.739 11.42,19.359 11.391,19.133C11.383,19.069 10.901,18.032 10.91,17.747C10.93,17.164 11.23,16.364 11.057,16.915Z" style="fill:rgb(32,121,0);fill-rule:nonzero;"/>
                </g>
                <g transform="matrix(0.896117,3.24196e-17,-3.24196e-17,0.896117,219.046,223.655)">
                    <path d="M11.362,19.854L11.367,19.792C11.376,19.137 11.377,19.146 11.376,19.137C11.363,19.029 11.218,18.733 11.206,18.707C11.172,18.634 10.887,18.011 10.895,17.747C10.908,17.321 10.946,17.341 11.042,16.91L11.071,16.815L11.071,16.913L11.089,17.693C11.097,17.795 11.285,18.192 11.305,18.234C11.333,18.293 11.575,18.802 11.607,19.001C11.662,19.348 11.429,19.744 11.395,19.801L11.362,19.854ZM11.041,17.024C11.026,17.08 10.936,17.421 10.926,17.746C10.918,18 11.201,18.617 11.234,18.69C11.25,18.724 11.393,19.017 11.408,19.129C11.434,19.337 11.408,19.679 11.404,19.726C11.433,19.675 11.627,19.321 11.578,19.009C11.547,18.817 11.307,18.312 11.28,18.253C11.259,18.21 11.069,17.808 11.06,17.7L11.041,17.024Z" style="fill:rgb(16,56,0);fill-rule:nonzero;"/>
                </g>
                <g transform="matrix(0.896117,3.24196e-17,-3.24196e-17,0.896117,219.046,223.655)">
                    <path d="M11.095,19.474C11.194,19.373 11.251,19.218 11.246,19.077C11.237,18.804 11.052,18.278 11.029,18.21C10.931,17.93 10.901,17.448 10.943,17.311L11.056,16.914C11.02,16.962 10.782,17.279 10.749,17.605C10.715,17.934 10.803,18.462 10.93,18.718C11.132,19.122 11.088,19.535 11.095,19.474Z" style="fill:rgb(32,121,0);fill-rule:nonzero;"/>
                </g>
                <g transform="matrix(0.896117,3.24196e-17,-3.24196e-17,0.896117,219.046,223.655)">
                    <path d="M11.075,19.516L11.079,19.473C11.08,19.412 11.086,19.066 10.917,18.727C10.776,18.445 10.705,17.9 10.734,17.605C10.757,17.381 10.943,17.037 11.045,16.905L11.091,16.844L11.072,16.918L10.958,17.317C10.918,17.446 10.945,17.92 11.044,18.204C11.068,18.272 11.254,18.803 11.263,19.076C11.267,19.197 11.214,19.403 11.105,19.486L11.075,19.516ZM11.019,16.996C10.99,17.04 10.792,17.342 10.764,17.606C10.735,17.896 10.805,18.431 10.944,18.71C10.97,18.762 11.121,19.064 11.113,19.428C11.188,19.329 11.235,19.205 11.231,19.079C11.222,18.813 11.038,18.285 11.014,18.218C10.918,17.938 10.884,17.449 10.929,17.308L11.019,16.996Z" style="fill:rgb(16,56,0);fill-rule:nonzero;"/>
                </g>
            </g>
        </g>
    </g>
</svg>
