<?xml version="1.0" encoding="UTF-8" standalone="no"?>
<!DOCTYPE svg PUBLIC "-//W3C//DTD SVG 1.1//EN" "http://www.w3.org/Graphics/SVG/1.1/DTD/svg11.dtd">
<svg width="100%" height="100%" viewBox="0 0 512 512" version="1.1" xmlns="http://www.w3.org/2000/svg" xmlns:xlink="http://www.w3.org/1999/xlink" xml:space="preserve" xmlns:serif="http://www.serif.com/" style="fill-rule:evenodd;clip-rule:evenodd;stroke-linejoin:round;stroke-miterlimit:2;">
    <g transform="matrix(1.11593,-4.03717e-17,4.03717e-17,1.11593,-13.9687,-19.1113)">
        <g transform="matrix(11.1111,-2.35563e-31,0,11.1111,-2371.15,-2417.74)">
            <g>
                <g transform="matrix(0.896117,3.24196e-17,-3.24196e-17,0.896117,219.046,223.655)">
                    <path d="M10,3.893C8.442,4.061 5.312,4.59 4,4.757C1.891,5.026 -0.023,6.74 0.255,9.01C0.547,11.405 1.102,13.959 1.254,15.076C5.297,15.108 7.335,14.313 10.791,13.882C10.567,11.261 10,7.786 10,3.893ZM32,5.435C29.704,5.791 26.45,6.442 23.822,6.275C21.591,6.134 17.857,4.713 16,4.231C16,7.652 16.515,11.043 16.731,14.212C20.142,15.105 22.678,16.512 26.513,16.317C29.679,16.156 33.813,15.117 37.014,15.01C36.851,12.586 36.528,10.746 36.301,9.019C36.029,6.947 34.301,5.078 32,5.435ZM9.999,29.863C8.441,30.036 5.313,30.579 4.002,30.751C1.724,31.049 0.033,29.147 0.333,26.993C0.533,25.559 1.091,22.403 1.255,21.019C5.598,21.028 7.247,20.304 10.83,19.885C10.694,21.57 9.995,25.938 9.999,29.863ZM32.068,31.737C21.737,33.209 21.225,31.604 16,30.211C16.01,26.348 16.656,22.019 16.776,20.23C20.185,21.122 22.713,22.527 26.545,22.329C29.713,22.166 33.849,21.124 37.051,21.014C37.019,21.508 37.014,21.589 36.469,27.17C36.262,29.289 34.174,31.437 32.068,31.737Z" style="fill:rgb(239,43,45);fill-rule:nonzero;"/>
                </g>
                <g transform="matrix(0.896117,3.24196e-17,-3.24196e-17,0.896117,219.046,223.655)">
                    <path d="M14.5,3.905C13.113,3.671 11.841,3.751 11.556,3.766C11.545,7.885 12.192,11.704 12.345,15.254C8.53,15.506 5.911,16.663 1.406,16.612C1.421,16.847 1.496,18.038 1.393,19.56C6.192,19.589 8.488,18.496 12.369,18.265C12.275,21.295 11.509,25.049 11.5,29.736C11.826,29.718 13.11,29.634 14.5,29.876C14.511,25.238 15.246,21.575 15.325,18.4C18.712,18.979 22.202,20.896 25.861,20.857C29.205,20.821 33.694,19.632 37.118,19.514C37.124,19.274 37.156,18.064 37.095,16.51C33.363,16.637 28.879,17.951 25.124,17.837C22.309,17.752 18.194,15.881 15.294,15.385C15.131,11.543 14.5,7.766 14.5,3.905Z" style="fill:rgb(0,40,104);fill-rule:nonzero;"/>
                </g>
                <g transform="matrix(0.896117,3.24196e-17,-3.24196e-17,0.896117,219.046,223.655)">
                    <path d="M14.5,29.876C14.621,29.897 15.195,29.996 16,30.211C16.01,26.348 16.656,22.019 16.776,20.23C20.185,21.122 22.713,22.527 26.545,22.329C29.713,22.166 33.849,21.124 37.051,21.014L37.118,19.514C33.386,19.643 28.897,20.96 25.143,20.848C22.333,20.765 18.222,18.895 15.325,18.4C15.247,21.539 14.511,25.242 14.5,29.876ZM16,4.231C15.195,4.022 14.621,3.925 14.5,3.905C14.5,7.761 15.131,11.549 15.294,15.385C18.684,15.965 22.179,17.884 25.841,17.847C29.185,17.812 33.671,16.626 37.095,16.51L37.014,15.01C33.811,15.117 29.69,16.155 26.513,16.317C22.678,16.512 20.142,15.105 16.731,14.212C16.517,11.074 16,7.656 16,4.231ZM11.5,3.769L10,3.893C10,7.781 10.56,11.179 10.791,13.882C7.371,14.309 5.297,15.108 1.254,15.076C1.358,15.846 1.399,16.489 1.406,16.612C5.884,16.663 8.529,15.511 12.315,15.256C12.154,11.685 11.5,7.945 11.5,3.769ZM1.393,19.56L1.255,21.019C5.598,21.028 7.247,20.304 10.83,19.885C10.694,21.57 9.995,25.938 9.999,29.863C10.795,29.775 11.379,29.743 11.5,29.736C11.499,25.048 12.256,21.323 12.345,18.266C8.499,18.5 6.174,19.589 1.393,19.56Z" style="fill:rgb(238,238,238);fill-rule:nonzero;"/>
                </g>
            </g>
        </g>
    </g>
</svg>
