<?xml version="1.0" encoding="UTF-8" standalone="no"?>
<!DOCTYPE svg PUBLIC "-//W3C//DTD SVG 1.1//EN" "http://www.w3.org/Graphics/SVG/1.1/DTD/svg11.dtd">
<svg width="100%" height="100%" viewBox="0 0 512 512" version="1.1" xmlns="http://www.w3.org/2000/svg" xmlns:xlink="http://www.w3.org/1999/xlink" xml:space="preserve" xmlns:serif="http://www.serif.com/" style="fill-rule:evenodd;clip-rule:evenodd;stroke-linejoin:round;stroke-miterlimit:2;">
    <g transform="matrix(1.11593,-4.03717e-17,4.03717e-17,1.11593,-13.9687,-19.1113)">
        <g transform="matrix(11.1111,-2.35563e-31,0,11.1111,-2371.15,-2417.74)">
            <g>
                <g transform="matrix(0.896117,3.24196e-17,-3.24196e-17,0.896117,219.046,223.655)">
                    <path d="M8,30.134C15.046,29.051 15.758,30.289 20.896,31.735C22.192,32.1 24.163,32.864 32.068,31.737C34.174,31.437 36.262,29.289 36.469,27.17C36.492,26.94 36.763,24.092 36.867,23.071C31.715,23.258 27.274,25.127 22.333,23.932C16.995,22.642 16.06,20.935 8.715,22.132C8.483,23.855 8.007,27.241 8,30.134Z" style="fill:rgb(0,128,0);fill-rule:nonzero;"/>
                </g>
                <g transform="matrix(0.896117,3.24196e-17,-3.24196e-17,0.896117,219.046,223.655)">
                    <path d="M32,5.435C26.749,6.249 24.615,6.865 20.179,5.509C15.217,3.994 14.227,3.225 8,4.157C8,6.905 8.309,9.328 8.677,12.156C16.656,10.879 17.526,13.016 23.033,14.093C27.358,14.939 32.225,13.164 36.841,13.017C36.741,12.123 36.335,9.279 36.301,9.019C36.029,6.947 34.301,5.078 32,5.435Z" style="fill:rgb(238,238,238);fill-rule:nonzero;"/>
                </g>
                <g transform="matrix(0.896117,3.24196e-17,-3.24196e-17,0.896117,219.046,223.655)">
                    <path d="M36.841,13.017C31.68,13.182 27.297,15.136 22.265,13.924C17.459,12.766 15.995,11.112 9.628,12.011C9.272,9.023 9,6.788 9,4.014C7.982,4.15 5.191,4.606 4,4.757C1.891,5.026 -0.023,6.74 0.255,9.01C0.697,12.631 1.416,14.687 1.447,17.745C1.48,20.89 0.734,24.117 0.333,26.993C0.033,29.147 1.724,31.049 4.002,30.751C5.197,30.594 7.892,30.139 9,29.988C9,27.012 9.47,23.468 9.66,21.986C15.979,21.075 17.433,22.737 22.291,23.922C27.272,25.137 31.681,23.259 36.867,23.071C36.948,22.27 37.389,17.917 36.841,13.017Z" style="fill:rgb(219,22,27);fill-rule:nonzero;"/>
                </g>
                <g transform="matrix(0.896117,3.24196e-17,-3.24196e-17,0.896117,219.046,223.655)">
                    <path d="M3.831,8.266C3.872,8.324 4.319,8.961 4.153,9.083C4.017,9.185 3.567,8.544 3.527,8.487C3.026,7.776 2.75,7.182 2.807,7.143C2.873,7.098 3.424,7.686 3.831,8.266ZM5.668,7.651C5.347,8.426 5.34,8.818 5.392,8.837C5.551,8.899 5.972,7.874 6.009,7.783C6.046,7.692 6.471,6.652 6.316,6.593C6.261,6.572 5.978,6.898 5.668,7.651ZM5.209,8.655L4.77,7.265L4.741,7.263C4.832,7.204 4.914,7.113 4.905,6.998C4.892,6.824 4.717,6.732 4.557,6.754C4.395,6.777 4.239,6.916 4.253,7.091C4.262,7.2 4.347,7.276 4.447,7.312L4.317,8.795L5.209,8.655Z" style="fill:rgb(238,238,238);fill-rule:nonzero;"/>
                    <path d="M7.275,11.14C7.105,11.034 5.949,10.314 5.232,9.711C5.271,9.43 5.232,9.225 5.224,9.183L5.241,9.181L5.242,9.189L6.115,9.054L6.136,9.227L7.206,9.054L7.146,8.519L6.073,8.692L6.093,8.866L5.219,9L5.22,9.008L5.19,9.013L5.157,8.742L4.356,8.855L4.39,9.125L4.066,9.167L4.068,9.183L3.435,9.255L3.405,9.034L2.38,9.122L2.461,9.702L3.484,9.614L3.454,9.396L4.087,9.323L4.089,9.339L4.361,9.305L4.377,9.685L3.09,9.92C2.857,9.98 2.896,10.023 2.669,10.143C2.699,10.157 2.879,10.324 3.26,10.413C3.321,10.427 3.608,10.494 4.03,10.467C3.738,10.892 3.025,11.633 2.848,11.76C2.551,11.973 2.911,11.986 3.082,11.933C3.432,11.822 4.235,10.901 4.506,10.412L4.782,10.363C4.933,10.336 5.037,10.214 5.109,10.088C5.573,10.51 6.557,11.169 6.869,11.302C6.895,11.313 7.254,11.482 7.522,11.389C7.633,11.351 7.374,11.202 7.275,11.14Z" style="fill:rgb(238,238,238);fill-rule:nonzero;"/>
                </g>
            </g>
        </g>
    </g>
</svg>
