<?xml version="1.0" encoding="UTF-8" standalone="no"?>
<!DOCTYPE svg PUBLIC "-//W3C//DTD SVG 1.1//EN" "http://www.w3.org/Graphics/SVG/1.1/DTD/svg11.dtd">
<svg width="100%" height="100%" viewBox="0 0 512 512" version="1.1" xmlns="http://www.w3.org/2000/svg" xmlns:xlink="http://www.w3.org/1999/xlink" xml:space="preserve" xmlns:serif="http://www.serif.com/" style="fill-rule:evenodd;clip-rule:evenodd;stroke-linejoin:round;stroke-miterlimit:2;">
    <g transform="matrix(1.11593,-4.03717e-17,4.03717e-17,1.11593,-13.9687,-19.1113)">
        <g transform="matrix(11.1111,-1.36955e-31,4.93038e-32,11.1111,-2411.79,-2528.08)">
            <g>
                <g transform="matrix(0.896117,3.24196e-17,-3.24196e-17,0.896117,222.704,233.585)">
                    <path d="M32,5.435C26.173,6.338 24.618,6.819 20.14,5.498C15.948,4.261 14.647,3.262 9,4.014C9,9.175 9.999,12.831 10.004,17.212C10.009,21.343 9,25.101 9,29.988C14.566,29.226 15.848,30.199 20.141,31.511C22.086,32.106 23.997,32.887 32.068,31.737C34.174,31.437 36.262,29.289 36.469,27.17C37.446,17.169 37.37,17.149 36.301,9.019C36.029,6.947 34.301,5.078 32,5.435ZM22.914,26.592C19.529,25.945 15.896,21.677 15.84,16.962C15.768,10.863 21.015,11.36 21.655,11.421C19.18,11.952 18.246,13.871 18.341,16.134C18.499,19.885 21.492,24.082 24.72,24.294C26.947,24.44 29.725,22.636 30.927,20.014C30.289,23.479 26.531,27.283 22.914,26.592ZM28.503,16.184C27.937,17.313 27.467,18.17 27.373,18.341C27.351,18.154 27.238,17.189 27.042,16.002C25.65,15.793 24.877,15.563 24.693,15.508C24.866,15.445 25.512,15.213 26.785,14.555C26.639,13.788 26.347,12.397 26.308,12.209C26.448,12.343 27.049,12.915 28.08,13.853C28.25,13.758 28.97,13.351 30.175,12.618C29.629,13.853 29.248,14.657 29.164,14.833C30.022,15.609 30.015,15.592 30.872,16.37C29.444,16.28 28.692,16.204 28.503,16.184Z" style="fill:rgb(0,70,0);fill-rule:nonzero;"/>
                </g>
                <g transform="matrix(0.896117,3.24196e-17,-3.24196e-17,0.896117,222.704,233.585)">
                    <path d="M4,4.757C1.891,5.026 -0.023,6.74 0.255,9.01C0.711,12.739 1.442,14.73 1.448,17.925C1.455,20.985 0.727,24.164 0.333,26.993C0.033,29.147 1.724,31.049 4.002,30.751C5.197,30.594 7.892,30.139 9,29.988C9,24.349 10.163,21.62 9.972,15.786C9.874,12.808 9,8.65 9,4.014C7.982,4.15 5.191,4.606 4,4.757Z" style="fill:rgb(238,238,238);fill-rule:nonzero;"/>
                </g>
                <g transform="matrix(0.896117,3.24196e-17,-3.24196e-17,0.896117,222.704,233.585)">
                    <path d="M30.175,12.618C28.97,13.351 28.25,13.758 28.08,13.853C27.049,12.915 26.448,12.343 26.308,12.209C26.347,12.397 26.639,13.788 26.785,14.555C25.512,15.213 24.866,15.445 24.693,15.508C24.877,15.563 25.65,15.793 27.042,16.002C27.238,17.189 27.351,18.154 27.373,18.341C27.467,18.17 27.937,17.313 28.503,16.184C28.692,16.204 29.444,16.28 30.872,16.37C30.014,15.591 30.021,15.608 29.164,14.833C29.248,14.657 29.629,13.853 30.175,12.618Z" style="fill:white;fill-rule:nonzero;"/>
                </g>
                <g transform="matrix(0.896117,3.24196e-17,-3.24196e-17,0.896117,222.704,233.585)">
                    <path d="M24.72,24.294C21.492,24.082 18.499,19.885 18.341,16.134C18.246,13.871 19.18,11.952 21.655,11.421C21.015,11.36 15.768,10.864 15.84,16.962C15.896,21.677 19.529,25.945 22.914,26.592C26.531,27.283 30.289,23.478 30.927,20.014C29.725,22.637 26.946,24.44 24.72,24.294Z" style="fill:white;fill-rule:nonzero;"/>
                </g>
            </g>
        </g>
    </g>
</svg>
