<?xml version="1.0" encoding="UTF-8" standalone="no"?>
<!DOCTYPE svg PUBLIC "-//W3C//DTD SVG 1.1//EN" "http://www.w3.org/Graphics/SVG/1.1/DTD/svg11.dtd">
<svg width="100%" height="100%" viewBox="0 0 512 512" version="1.1" xmlns="http://www.w3.org/2000/svg" xmlns:xlink="http://www.w3.org/1999/xlink" xml:space="preserve" xmlns:serif="http://www.serif.com/" style="fill-rule:evenodd;clip-rule:evenodd;stroke-linejoin:round;stroke-miterlimit:2;">
    <g transform="matrix(1.11593,-4.03717e-17,4.03717e-17,1.11593,-13.9687,-19.1113)">
        <g transform="matrix(11.1111,-1.36955e-31,4.93038e-32,11.1111,-2411.79,-2528.08)">
            <g>
                <g transform="matrix(0.896117,3.24196e-17,-3.24196e-17,0.896117,222.704,233.585)">
                    <path d="M32,5.435C24.446,6.606 24.298,6.804 18.359,4.935C11.85,2.887 11.375,3.817 4,4.757C1.891,5.026 -0.023,6.74 0.255,9.01C0.475,10.813 0.918,13.145 0.986,13.503C7.935,13.505 11.178,11.226 16.653,12.73C20.287,13.728 22.669,14.943 26.049,14.828C29.304,14.717 33.61,13.621 36.893,13.513C36.778,12.347 36.366,9.516 36.301,9.019C36.029,6.947 34.301,5.078 32,5.435Z" style="fill:rgb(20,20,20);fill-rule:nonzero;"/>
                </g>
                <g transform="matrix(0.896117,3.24196e-17,-3.24196e-17,0.896117,222.704,233.585)">
                    <path d="M0.333,26.993C0.033,29.147 1.724,31.049 4.002,30.751C11.374,29.786 11.848,28.83 18.359,30.934C21.72,32.019 23.309,32.985 32.068,31.737C34.174,31.437 36.262,29.289 36.469,27.17C36.477,27.091 36.818,23.515 36.924,22.511C29.168,22.77 28.341,25.384 19.588,22.609C16.49,21.627 14.781,20.936 10.997,21.328C7.318,21.709 5.624,22.5 1.05,22.5C0.974,22.984 0.488,25.883 0.333,26.993Z" style="fill:rgb(0,114,41);fill-rule:nonzero;"/>
                </g>
                <g transform="matrix(0.896117,3.24196e-17,-3.24196e-17,0.896117,222.704,233.585)">
                    <path d="M0.986,13.503C7.935,13.505 11.178,11.226 16.653,12.73C20.287,13.728 22.669,14.943 26.049,14.828C29.304,14.717 33.61,13.621 36.893,13.513C37.366,18.332 37,21.795 36.924,22.511C29.168,22.77 28.341,25.384 19.588,22.609C16.49,21.627 14.781,20.936 10.997,21.328C7.318,21.709 5.624,22.5 1.05,22.5C1.727,18.181 1.412,15.749 0.986,13.503Z" style="fill:rgb(238,238,238);fill-rule:nonzero;"/>
                </g>
                <g transform="matrix(0.896117,3.24196e-17,-3.24196e-17,0.896117,222.704,233.585)">
                    <path d="M1.368,5.992L1.367,5.992C1.18,6.169 0.04,7.255 0.255,9.01C0.711,12.739 1.442,14.73 1.448,17.925C1.455,20.985 0.727,24.164 0.333,26.993C0.079,28.816 1.197,29.814 1.387,29.983C8.969,24.315 11.014,20.797 18.382,17.671C11.336,10.368 7.893,10.479 1.368,5.992Z" style="fill:rgb(210,16,52);fill-rule:nonzero;"/>
                </g>
            </g>
        </g>
    </g>
</svg>
