<?xml version="1.0" encoding="UTF-8" standalone="no"?>
<!DOCTYPE svg PUBLIC "-//W3C//DTD SVG 1.1//EN" "http://www.w3.org/Graphics/SVG/1.1/DTD/svg11.dtd">
<svg width="100%" height="100%" viewBox="0 0 512 512" version="1.1" xmlns="http://www.w3.org/2000/svg" xmlns:xlink="http://www.w3.org/1999/xlink" xml:space="preserve" xmlns:serif="http://www.serif.com/" style="fill-rule:evenodd;clip-rule:evenodd;stroke-linejoin:round;stroke-miterlimit:2;">
    <g transform="matrix(1.11593,-4.03717e-17,4.03717e-17,1.11593,-13.9687,-19.1113)">
        <g transform="matrix(11.1111,-2.35563e-31,0,11.1111,-2371.15,-2417.74)">
            <g>
                <g transform="matrix(0.896117,3.24196e-17,-3.24196e-17,0.896117,219.046,223.655)">
                    <path d="M18.892,17.832C18.845,13.034 18,9.077 18,4.821C11.98,2.907 10.669,3.907 4,4.757C1.891,5.026 -0.023,6.74 0.255,9.01C0.715,12.775 1.468,14.811 1.448,18.098C9.518,18.179 10.419,15.127 18.892,17.832ZM18.892,17.832C18.938,22.536 18.021,25.942 18,30.816C21.791,32.053 23.334,32.982 32.068,31.737C34.174,31.437 36.262,29.289 36.469,27.17C37.046,21.262 37.151,20.335 37.131,18.012C33.828,18.125 29.459,19.248 26.185,19.346C23.576,19.423 21.564,18.685 18.892,17.832Z" style="fill:rgb(238,238,238);fill-rule:nonzero;"/>
                </g>
                <g transform="matrix(0.896117,3.24196e-17,-3.24196e-17,0.896117,219.046,223.655)">
                    <path d="M18.892,17.832C18.938,22.536 18.021,25.942 18,30.816C11.978,28.851 10.667,29.878 4.002,30.751C1.724,31.049 0.033,29.147 0.333,26.993C0.719,24.226 1.43,21.101 1.448,18.098C9.518,18.179 10.419,15.127 18.892,17.832Z" style="fill:rgb(0,82,147);fill-rule:nonzero;"/>
                </g>
                <g transform="matrix(0.896117,3.24196e-17,-3.24196e-17,0.896117,219.046,223.655)">
                    <path d="M18.892,17.832C18.845,13.034 18,9.077 18,4.821C24.29,6.821 24.421,6.61 32,5.435C34.301,5.078 36.029,6.947 36.301,9.019C36.508,10.595 37.096,13.873 37.131,18.012C33.828,18.125 29.459,19.248 26.185,19.346C23.576,19.423 21.564,18.685 18.892,17.832Z" style="fill:rgb(210,16,52);fill-rule:nonzero;"/>
                </g>
                <g transform="matrix(0.896117,3.24196e-17,-3.24196e-17,0.896117,219.046,223.655)">
                    <path d="M10.007,9.52C9.502,8.371 9.211,7.676 9.144,7.515C9.105,7.689 8.915,8.526 8.69,9.699C7.622,9.859 7.639,9.864 6.574,10.037C6.724,10.117 8.035,10.817 8.444,11.039C8.34,11.629 8.093,13.102 8.081,13.185C8.51,12.711 9.464,11.784 9.587,11.664C9.734,11.746 10.906,12.397 11.416,12.716C11.35,12.558 11.299,12.438 10.551,10.752C11.377,9.992 12.032,9.455 12.164,9.346C11.991,9.352 11.169,9.382 10.007,9.52Z" style="fill:rgb(0,82,147);fill-rule:nonzero;"/>
                </g>
                <g transform="matrix(0.896117,3.24196e-17,-3.24196e-17,0.896117,219.046,223.655)">
                    <path d="M26.423,26.175C25.963,27.226 25.964,27.212 25.507,28.267C26.504,27.591 27.287,27.016 27.439,26.904C27.571,26.996 28.2,27.435 29.108,28.023C29.069,27.862 28.885,27.102 28.637,26.003C28.795,25.881 29.6,25.26 30.573,24.447C29.269,24.638 28.533,24.719 28.356,24.739C28.128,23.713 28.146,23.732 27.879,22.716C27.555,23.537 27.063,24.691 26.99,24.862C26.815,24.873 25.7,24.948 24.799,24.902C25.481,25.477 26.29,26.076 26.423,26.175Z" style="fill:rgb(210,16,52);fill-rule:nonzero;"/>
                </g>
            </g>
        </g>
    </g>
</svg>
