<?xml version="1.0" encoding="UTF-8" standalone="no"?>
<!DOCTYPE svg PUBLIC "-//W3C//DTD SVG 1.1//EN" "http://www.w3.org/Graphics/SVG/1.1/DTD/svg11.dtd">
<svg width="100%" height="100%" viewBox="0 0 512 512" version="1.1" xmlns="http://www.w3.org/2000/svg" xmlns:xlink="http://www.w3.org/1999/xlink" xml:space="preserve" xmlns:serif="http://www.serif.com/" style="fill-rule:evenodd;clip-rule:evenodd;stroke-linejoin:round;stroke-miterlimit:2;">
    <g transform="matrix(1.11593,-4.03717e-17,4.03717e-17,1.11593,-13.9687,-19.1113)">
        <g transform="matrix(11.1111,-1.36955e-31,4.93038e-32,11.1111,-2411.79,-2528.08)">
            <g>
                <g transform="matrix(0.896117,3.24196e-17,-3.24196e-17,0.896117,222.704,233.585)">
                    <path d="M36.469,27.17C36.262,29.289 34.174,31.437 32.068,31.737C22.767,33.063 21.617,31.929 16.923,30.475C12.025,28.957 9.41,30.043 4.002,30.751C1.724,31.049 0.033,29.147 0.333,26.993C0.76,23.929 1.552,20.621 1.436,17.229C1.343,14.486 0.678,12.475 0.255,9.01C-0.023,6.74 1.891,5.026 4,4.757C11.375,3.817 11.85,2.887 18.359,4.935C24.284,6.8 24.43,6.609 32,5.435C34.301,5.078 36.029,6.947 36.301,9.019C37.368,17.137 37.447,17.156 36.469,27.17Z" style="fill:rgb(20,20,20);fill-rule:nonzero;"/>
                </g>
                <g transform="matrix(0.896117,3.24196e-17,-3.24196e-17,0.896117,222.704,233.585)">
                    <path d="M34.787,30.31C36.303,28.866 36.441,27.454 36.469,27.17C37.446,17.169 37.37,17.149 36.301,9.019C36.029,6.947 34.301,5.078 32,5.435C24.446,6.606 24.298,6.804 18.359,4.935C11.85,2.887 11.375,3.817 4,4.757C3.772,4.787 2.499,4.949 1.399,5.984C8.164,10.496 11.225,10.051 18.592,17.526C25.879,24.92 25.993,24.828 34.787,30.31Z" style="fill:rgb(206,17,38);fill-rule:nonzero;"/>
                </g>
                <g transform="matrix(0.896117,3.24196e-17,-3.24196e-17,0.896117,222.704,233.585)">
                    <path d="M8.482,12.722L9.002,13.999L10.239,13.804L9.334,14.773L9.763,16.003L8.757,15.359L7.839,16.309L8.113,14.991L7.067,14.345L8.26,14.129L8.482,12.722ZM5.115,18.53L5.405,19.765L6.637,19.57L5.596,20.513L5.802,21.717L4.921,21.067L3.824,21.935L4.347,20.676L3.425,19.983L4.653,19.865L5.115,18.53ZM8.111,24.773L8.335,26.03L9.628,25.844L8.534,26.793L8.823,28.019L7.844,27.37L6.756,28.305L7.235,26.999L6.301,26.363L7.555,26.155L8.111,24.773ZM10.172,21.727L10.273,22.359L10.909,22.286L10.358,22.745L10.469,23.361L10.012,23.02L9.465,23.472L9.724,22.827L9.278,22.497L9.89,22.409L10.172,21.727ZM12.568,17.057L12.922,18.358C13.661,18.335 14.133,18.373 14.238,18.381C14.15,18.44 13.725,18.726 13.163,19.154L13.454,20.421L12.486,19.646L11.412,20.475L11.876,19.215L10.92,18.515L12.147,18.397L12.568,17.057Z" style="fill:white;fill-rule:nonzero;"/>
                </g>
                <g transform="matrix(0.896117,3.24196e-17,-3.24196e-17,0.896117,222.704,233.585)">
                    <path d="M23.373,13.894C23.152,14.18 21.944,13.195 21.389,13.03C20.458,12.752 19.782,13.562 19.724,13.614C19.501,13.809 18.772,15.099 18.798,15.251C18.819,15.369 19.428,14.922 19.468,14.911C19.482,15.007 19.331,15.376 19.355,15.412C19.389,15.464 20.068,15.204 20.182,15.231C20.249,15.395 20.11,15.553 20.16,15.725C20.205,15.782 20.671,15.476 20.762,15.467C20.792,15.577 20.612,15.92 20.731,16.12C20.78,16.145 21.449,15.684 21.523,15.675C21.616,15.665 21.544,16.317 21.564,16.334C21.618,16.314 22.293,15.809 22.368,15.795C22.494,15.77 22.435,16.549 22.472,16.558C22.65,16.471 23.135,15.888 23.186,15.782C23.193,15.768 23.327,16.99 23.804,17.559C24.428,18.305 25.28,19.043 25.365,19.045C25.423,18.938 25.369,18.434 25.408,18.442C25.729,18.782 26.185,19.113 26.26,19.11C26.395,19.106 26.157,18.674 26.327,18.668C26.516,18.834 27.484,19.99 29.129,20.252C29.08,20.113 28.775,19.637 28.767,19.571C28.926,19.576 29.077,19.643 29.234,19.672C29.268,19.679 29.306,19.689 29.338,19.677C29.37,19.664 28.541,18.621 28.571,18.534C28.686,18.509 28.865,18.612 28.941,18.504C28.739,18.216 28.462,17.986 28.23,17.721C28.199,17.687 28.037,17.488 28.033,17.402C28.024,17.202 28.257,17.423 28.348,17.367C28.377,17.349 28.053,16.532 28.077,16.496C28.114,16.441 29.086,16.867 29.197,16.851C29.358,16.829 29.254,16.107 29.301,16.082C29.345,16.057 30.187,16.336 30.251,16.326C30.377,16.306 30.37,15.999 30.421,16.022C30.542,16.078 32.189,17.453 31.642,19.331C31.064,20.784 29.844,21.661 28.305,21.284C28.398,21.429 29.249,22.01 30.184,21.619C31.317,21.144 32.351,20.112 32.218,18.486C32.075,16.765 31.39,16.481 31.301,16.267C31.188,16.006 31.542,16.332 31.66,16.354C31.822,16.385 31.713,16.283 31.532,15.785C31.487,15.66 32.308,16.126 32.342,16.132C32.508,16.159 31.845,14.7 31.669,14.619C31.582,14.579 31.859,14.631 31.953,14.646C32.077,14.665 30.747,13.116 30.515,13.154C30.398,13.172 30.721,13.028 30.837,13.009C30.965,12.988 29.371,12.086 29.16,12.116C29.065,12.13 29.44,11.833 29.713,11.717C29.907,11.715 27.928,11.082 26.489,12.117C26.442,12.085 27.155,11.306 27.154,11.161C27.159,11.039 26.872,11.031 26.829,10.916C26.817,10.883 27.236,10.52 27.236,10.417C27.117,10.291 26.956,10.367 26.801,10.331C26.778,10.256 27.115,9.762 27.084,9.679C27.039,9.578 26.744,9.603 26.678,9.662C26.66,9.677 26.801,9.195 26.776,9.141C26.708,9.054 26.553,9.152 26.449,9.187C26.41,9.183 26.811,8.303 26.745,8.246C26.635,8.154 25.126,9.21 24.693,10.163C24.272,11.083 24.756,12.152 24.739,12.342C24.733,12.401 24.676,13.033 24.42,13.015C24.221,13 23.622,12.601 23.384,12.356C23.074,12.038 23.109,12.004 22.861,11.89C22.784,11.855 22.774,11.982 21.811,11.816C21.731,11.803 20.673,11.38 20.658,11.392C20.572,11.459 20.737,11.405 21.764,12.177C22.011,12.363 21.931,12.419 22.17,12.614C23.338,13.552 23.655,13.532 23.373,13.894ZM28.982,16.382C29.285,16.625 32.595,18.274 32.495,20.661C32.41,22.686 30.666,23.33 29.511,23.369C30.239,23.904 32.943,23.149 33.051,20.572C33.153,18.141 29.456,16.277 29.079,16.147L28.676,16.045C28.832,16.217 28.793,16.23 28.982,16.382Z" style="fill:rgb(252,209,22);fill-rule:nonzero;"/>
                </g>
            </g>
        </g>
    </g>
</svg>
