<?xml version="1.0" encoding="UTF-8" standalone="no"?>
<!DOCTYPE svg PUBLIC "-//W3C//DTD SVG 1.1//EN" "http://www.w3.org/Graphics/SVG/1.1/DTD/svg11.dtd">
<svg width="100%" height="100%" viewBox="0 0 512 512" version="1.1" xmlns="http://www.w3.org/2000/svg" xmlns:xlink="http://www.w3.org/1999/xlink" xml:space="preserve" xmlns:serif="http://www.serif.com/" style="fill-rule:evenodd;clip-rule:evenodd;stroke-linejoin:round;stroke-miterlimit:2;">
    <g transform="matrix(1.11593,-4.03717e-17,4.03717e-17,1.11593,-13.9687,-19.1113)">
        <g transform="matrix(11.1111,-1.36955e-31,4.93038e-32,11.1111,-2411.79,-2528.08)">
            <g>
                <g transform="matrix(0.896117,3.24196e-17,-3.24196e-17,0.896117,222.704,233.585)">
                    <path d="M0.333,26.993C0.033,29.147 1.724,31.049 4.002,30.751C11.374,29.786 11.848,28.83 18.359,30.934C21.72,32.019 23.309,32.985 32.068,31.737C34.174,31.437 36.262,29.289 36.469,27.17C36.492,26.94 36.763,24.092 36.867,23.071C28.569,23.373 28.381,25.915 19.168,22.99C10.375,20.199 10.185,22.994 0.971,22.997C0.429,26.349 0.424,26.338 0.333,26.993Z" style="fill:rgb(0,56,168);fill-rule:nonzero;"/>
                </g>
                <g transform="matrix(0.896117,3.24196e-17,-3.24196e-17,0.896117,222.704,233.585)">
                    <path d="M0.892,13.007C7.861,13.012 11.153,10.75 16.609,12.24C20.252,13.235 22.595,14.436 25.998,14.323C29.257,14.214 33.556,13.122 36.841,13.017C37.389,17.917 36.948,22.27 36.867,23.071C28.569,23.373 28.381,25.915 19.168,22.99C10.375,20.199 10.185,22.994 0.971,22.997C1.792,17.917 1.408,15.774 0.892,13.007Z" style="fill:rgb(238,238,238);fill-rule:nonzero;"/>
                </g>
                <g transform="matrix(0.896117,3.24196e-17,-3.24196e-17,0.896117,222.704,233.585)">
                    <path d="M32,5.435C24.446,6.606 24.298,6.804 18.359,4.935C11.85,2.887 11.375,3.817 4,4.757C1.891,5.026 -0.023,6.74 0.255,9.01C0.459,10.68 0.833,12.689 0.892,13.007C7.861,13.012 11.153,10.75 16.609,12.24C20.252,13.235 22.595,14.436 25.998,14.323C29.257,14.214 33.556,13.122 36.841,13.017C36.741,12.123 36.335,9.279 36.301,9.019C36.029,6.947 34.301,5.078 32,5.435Z" style="fill:rgb(213,43,30);fill-rule:nonzero;"/>
                </g>
                <g transform="matrix(0.896117,3.24196e-17,-3.24196e-17,0.896117,222.704,233.585)">
                    <path d="M22.965,19.032C22.982,21.138 21.163,22.602 18.731,21.824C16.707,21.177 14.858,19.156 14.83,16.818C14.806,14.74 16.255,13.036 18.693,13.816C20.722,14.465 22.946,16.714 22.965,19.032Z" style="fill-rule:nonzero;"/>
                </g>
                <g transform="matrix(0.896117,3.24196e-17,-3.24196e-17,0.896117,222.704,233.585)">
                    <path d="M22.711,18.973C22.728,20.959 21.013,22.299 18.754,21.577C16.827,20.961 15.107,19.025 15.082,16.854C15.06,14.893 16.447,13.34 18.713,14.065C20.642,14.682 22.694,16.813 22.711,18.973Z" style="fill:rgb(238,238,238);fill-rule:nonzero;"/>
                </g>
                <g transform="matrix(0.896117,3.24196e-17,-3.24196e-17,0.896117,222.704,233.585)">
                    <path d="M22.204,18.847C22.218,20.584 20.721,21.698 18.794,21.082C17.08,20.534 15.609,18.796 15.588,16.94C15.568,15.219 16.817,13.947 18.752,14.566C20.463,15.113 22.188,16.992 22.204,18.847Z" style="fill-rule:nonzero;"/>
                </g>
                <g transform="matrix(0.896117,3.24196e-17,-3.24196e-17,0.896117,222.704,233.585)">
                    <path d="M22.078,18.813C22.092,20.487 20.648,21.548 18.803,20.959C17.145,20.429 15.735,18.744 15.715,16.965C15.696,15.305 16.909,14.1 18.761,14.692C20.415,15.221 22.063,17.035 22.078,18.813Z" style="fill:rgb(238,238,238);fill-rule:nonzero;"/>
                </g>
                <g transform="matrix(0.896117,3.24196e-17,-3.24196e-17,0.896117,222.704,233.585)">
                    <path d="M22.084,18.795C22.068,17.011 20.416,15.194 18.759,14.664C16.901,14.07 15.687,15.28 15.707,16.943C15.708,17.081 15.717,17.793 16.124,18.612C16.343,18.543 17.188,18.277 18.895,17.895C20.273,19.078 20.248,19.086 21.64,20.254C21.712,20.156 22.091,19.644 22.084,18.795Z" style="fill:rgb(153,170,181);fill-rule:nonzero;"/>
                </g>
                <g transform="matrix(0.896117,3.24196e-17,-3.24196e-17,0.896117,222.704,233.585)">
                    <path d="M21.441,18.635C21.453,19.987 20.292,20.8 18.841,20.336C17.491,19.905 16.363,18.498 16.347,17.102C16.333,15.756 17.346,14.853 18.802,15.318C20.15,15.749 21.429,17.238 21.441,18.635Z" style="fill-rule:nonzero;"/>
                </g>
                <g transform="matrix(0.896117,3.24196e-17,-3.24196e-17,0.896117,222.704,233.585)">
                    <path d="M18.808,15.419C20.106,15.834 21.327,17.267 21.339,18.605C21.35,19.903 20.235,20.68 18.846,20.236C17.547,19.821 16.463,18.457 16.449,17.126C16.435,15.833 17.414,14.973 18.808,15.419Z" style="fill:rgb(238,238,238);"/>
                </g>
                <g transform="matrix(0.896117,3.24196e-17,-3.24196e-17,0.896117,222.704,233.585)">
                    <path d="M18.876,17.009L19.076,17.638L19.682,17.833L19.196,18.027L19.383,18.654L18.894,18.147L18.404,18.343L18.59,17.833L18.095,17.329L18.701,17.518L18.876,17.009Z" style="fill:rgb(255,172,51);fill-rule:nonzero;"/>
                </g>
                <g transform="matrix(0.896117,3.24196e-17,-3.24196e-17,0.896117,222.704,233.585)">
                    <path d="M19.361,16.504L19.843,16.572C19.949,16.595 20.318,17.147 20.416,17.21C20.733,17.413 20.615,17.483 20.737,17.838C20.818,18.074 20.778,18.072 20.782,18.433C20.783,18.563 20.928,19.002 20.908,19.108C20.874,19.292 20.712,19.286 20.582,19.415C20.476,19.52 20.574,19.716 20.447,19.799C20.399,19.83 19.902,19.777 19.849,19.804C19.508,19.975 19.354,19.84 19.323,19.812C19.095,19.61 18.36,19.331 18.824,19.527C18.876,19.379 19.02,19.229 19.177,19.213C19.224,19.209 19.21,19.234 19.772,19.246C20.005,19.25 19.958,19.155 20.154,19.049C20.319,18.958 20.307,18.806 20.425,18.657C20.526,18.531 20.522,18.389 20.494,18.237C20.484,18.184 20.443,17.965 20.303,17.595C20.207,17.341 19.979,17.018 19.946,16.971C19.834,16.813 19.311,16.471 19.361,16.504Z" style="fill:rgb(0,113,39);fill-rule:nonzero;"/>
                </g>
                <g transform="matrix(0.896117,3.24196e-17,-3.24196e-17,0.896117,222.704,233.585)">
                    <path d="M18.251,16.255C18.311,16.133 18.358,15.901 18.233,15.848C17.558,15.557 17.345,16.141 17.182,16.15C16.951,16.163 17.034,16.264 16.861,16.731C16.757,17.009 16.814,16.998 16.816,17.303C16.819,17.586 16.813,17.574 16.859,17.862C16.914,18.212 17.02,18.385 17.045,18.426L17.295,18.813L17.728,19.258C17.843,19.392 18.252,19.547 18.396,19.514C18.465,19.498 18.538,19.5 18.609,19.503C18.688,19.506 18.843,19.531 18.843,19.531C18.729,19.281 18.517,19.124 18.481,19.097C18.352,19.002 18.246,18.88 18.124,18.777C18.08,18.74 18.033,18.707 17.984,18.677C17.967,18.667 17.978,18.677 17.611,18.247C17.579,18.21 17.618,18.202 17.343,17.692C17.266,17.548 17.304,17.491 17.336,17.319C17.364,17.164 17.489,16.876 17.506,16.839C17.589,16.645 17.816,16.442 17.849,16.413C17.956,16.317 18.391,16.224 18.251,16.255Z" style="fill:rgb(0,113,39);fill-rule:nonzero;"/>
                </g>
                <g transform="matrix(0.896117,3.24196e-17,-3.24196e-17,0.896117,222.704,233.585)">
                    <path d="M18.281,19.515L18.509,19.746L18.821,19.631L19.101,19.917L19.484,19.898L19.096,20.041L18.836,19.743L18.541,19.846L18.26,19.597L18.281,19.515Z" style="fill:rgb(0,113,39);fill-rule:nonzero;"/>
                </g>
            </g>
        </g>
    </g>
</svg>
