<?xml version="1.0" encoding="UTF-8" standalone="no"?>
<!DOCTYPE svg PUBLIC "-//W3C//DTD SVG 1.1//EN" "http://www.w3.org/Graphics/SVG/1.1/DTD/svg11.dtd">
<svg width="100%" height="100%" viewBox="0 0 512 512" version="1.1" xmlns="http://www.w3.org/2000/svg" xmlns:xlink="http://www.w3.org/1999/xlink" xml:space="preserve" xmlns:serif="http://www.serif.com/" style="fill-rule:evenodd;clip-rule:evenodd;stroke-linejoin:round;stroke-miterlimit:2;">
    <g transform="matrix(1.11593,-4.03717e-17,4.03717e-17,1.11593,-13.9687,-19.1113)">
        <g transform="matrix(11.1111,-1.36955e-31,4.93038e-32,11.1111,-2411.79,-2528.08)">
            <g>
                <g transform="matrix(0.896117,3.24196e-17,-3.24196e-17,0.896117,222.704,233.585)">
                    <path d="M36.469,27.17C36.262,29.289 34.174,31.437 32.068,31.737C22.767,33.063 21.617,31.929 16.923,30.475C12.025,28.957 9.41,30.043 4.002,30.751C1.724,31.049 0.033,29.147 0.333,26.993C0.76,23.929 1.552,20.621 1.436,17.229C1.343,14.486 0.678,12.475 0.255,9.01C-0.023,6.74 1.891,5.026 4,4.757C11.375,3.817 11.85,2.887 18.359,4.935C24.284,6.8 24.43,6.609 32,5.435C34.301,5.078 36.029,6.947 36.301,9.019C37.368,17.137 37.447,17.156 36.469,27.17Z" style="fill:rgb(206,17,38);fill-rule:nonzero;"/>
                </g>
                <g transform="matrix(0.896117,3.24196e-17,-3.24196e-17,0.896117,222.704,233.585)">
                    <path d="M32,5.435C24.446,6.606 24.298,6.804 18.359,4.935C11.85,2.887 11.375,3.817 4,4.757C1.891,5.026 -0.023,6.74 0.255,9.01C0.717,12.789 1.468,14.816 1.448,18.098C8.431,18.169 11.13,15.501 17.62,17.441C20.776,18.384 23.412,19.544 26.65,19.326C30.44,19.071 33.906,18.123 37.131,18.012C37.096,13.894 36.521,10.694 36.301,9.019C36.029,6.947 34.301,5.078 32,5.435Z" style="fill:rgb(0,56,168);fill-rule:nonzero;"/>
                </g>
                <g transform="matrix(0.896117,3.24196e-17,-3.24196e-17,0.896117,222.704,233.585)">
                    <path d="M1.352,29.932C10.664,23.617 9.623,21.755 19.944,18.235C10.781,9.206 9.43,11.102 1.348,6.029C0.455,6.896 0.132,8.008 0.255,9.01C0.711,12.739 1.442,14.73 1.448,17.925C1.455,20.985 0.727,24.164 0.333,26.993C0.087,28.76 1.169,29.763 1.352,29.932Z" style="fill:rgb(238,238,238);fill-rule:nonzero;"/>
                </g>
                <g transform="matrix(0.896117,3.24196e-17,-3.24196e-17,0.896117,222.704,233.585)">
                    <path d="M16.887,15.758L16.965,16.93L18.104,17.552L17.005,17.632L17.058,18.806L16.348,17.712L15.257,17.91L15.908,17.071L15.152,16.036L16.284,16.576L16.887,15.758ZM1.763,7.966L2.716,8.677L3.623,7.97L3.293,9.084L4.265,9.733L3.116,9.749L2.851,10.853L2.424,9.743L1.257,9.7L2.171,9.078L1.763,7.966ZM2.678,25.137L3.078,26.093L4.217,25.715L3.332,26.658L3.785,27.583L2.807,27.218L1.942,28.144L2.218,26.987L1.228,26.573L2.389,26.293L2.678,25.137ZM10.936,16.903C10.95,18.603 9.491,20.058 8.023,20.313C6.484,20.581 5.396,19.459 5.398,17.833C5.4,16.216 6.48,14.607 7.995,14.331C9.534,14.052 10.922,15.257 10.936,16.903Z" style="fill:rgb(252,209,22);fill-rule:nonzero;"/>
                </g>
                <g transform="matrix(0.896117,3.24196e-17,-3.24196e-17,0.896117,222.704,233.585)">
                    <path d="M8.24,11.822C8.256,12.037 8.403,13.962 8.425,14.509L8.196,14.513C8.11,13.307 8.085,13.324 7.877,11.415L7.585,11.278L7.343,11.503C7.607,13.058 7.645,13.029 7.838,14.578L7.617,14.656C7.409,13.313 7.382,13.334 7.109,12.01L6.806,12.281C7.173,13.616 7.195,13.593 7.476,14.96L8.617,14.75C8.652,13.355 8.621,13.379 8.604,11.982L8.24,11.822ZM7.158,22.788C7.2,22.577 7.51,21.032 7.639,20.143L7.862,20.139C7.768,20.95 7.43,22.953 7.388,23.197L7.627,23.334L7.917,23.107C8.088,21.59 8.126,21.609 8.222,20.076L8.451,20.002C8.411,21.317 8.385,21.3 8.279,22.596L8.641,22.324C8.668,21.016 8.692,21.031 8.641,19.709L7.494,19.909C7.292,20.954 6.914,22.411 6.858,22.627L7.158,22.788ZM4.002,21.304C4.17,21.153 5.036,20.372 6.036,19.336L6.16,19.506C5.037,20.728 4.023,21.675 3.83,21.855L3.846,22.173L4.149,22.209C5.34,20.982 6.223,19.937 6.396,19.733L6.567,19.847C6.422,20.027 5.684,20.943 4.689,22.045L5.058,22.088C6.034,20.89 6.728,19.93 6.867,19.738L6.491,19.377L6.109,19.015C5.029,20.043 4.139,20.772 3.961,20.918L4.002,21.304ZM11.942,13.359C11.292,14.065 10.329,15.193 10.192,15.355L10.045,15.177C10.198,14.984 11.319,13.572 11.991,12.798L11.895,12.478L11.57,12.435C11.228,12.865 9.913,14.737 9.771,14.939L9.578,14.821C9.695,14.642 10.93,12.749 11.05,12.582L10.653,12.534C10.537,12.722 10.551,12.727 9.288,14.932L9.723,15.306L10.152,15.683C11.322,14.467 11.908,13.909 12.066,13.76L11.942,13.359ZM3.123,17.49C3.323,17.49 4.246,17.492 5.623,17.365L5.591,17.612C5.36,17.641 3.98,17.813 2.681,17.821L2.504,18.101L2.678,18.369C3.98,18.289 5.36,18.037 5.591,17.995L5.622,18.23C4.246,18.527 3.319,18.634 3.117,18.657L3.314,18.988C3.52,18.95 4.454,18.775 5.865,18.369L5.865,17.145C4.45,17.19 3.525,17.138 3.321,17.126L3.123,17.49ZM13.235,17.325C13.033,17.316 12.067,17.275 10.706,17.37L10.741,17.122C10.976,17.098 12.47,16.944 13.692,17.007L13.872,16.733L13.685,16.445C12.478,16.45 10.972,16.696 10.738,16.734L10.699,16.494C12.059,16.224 13.018,16.145 13.221,16.128L12.998,15.779C12.792,15.812 11.835,15.964 10.446,16.347L10.455,17.584C11.845,17.57 12.816,17.664 13.02,17.684L13.235,17.325ZM4.635,13.561C4.686,13.605 5.912,14.746 6.557,15.366L6.387,15.546C6.205,15.382 4.59,13.925 4.091,13.521L3.79,13.621L3.787,13.969C4.102,14.223 6.03,15.768 6.155,15.869L6.034,16.09C5.869,15.967 4.438,14.89 3.981,14.542L3.951,14.974C4.122,15.09 4.77,15.528 6.108,16.401L6.485,15.89L6.855,15.374C6.71,15.215 5.554,13.946 5.003,13.418L4.635,13.561ZM11.089,21.068C10.364,20.182 9.726,19.463 9.605,19.327L9.797,19.153C9.946,19.307 10.725,20.116 11.606,21.121L11.931,21.03L12.033,20.704C11.081,19.756 10.229,18.988 10.069,18.844L10.214,18.63C11.129,19.389 11.848,20.042 11.987,20.168L12.11,19.763C11.958,19.644 11.184,19.038 10.17,18.321L9.744,18.817L9.312,19.314C9.426,19.463 10.021,20.241 10.691,21.203L11.089,21.068Z" style="fill:rgb(252,209,22);fill-rule:nonzero;"/>
                </g>
            </g>
        </g>
    </g>
</svg>
