<?xml version="1.0" encoding="UTF-8" standalone="no"?>
<!DOCTYPE svg PUBLIC "-//W3C//DTD SVG 1.1//EN" "http://www.w3.org/Graphics/SVG/1.1/DTD/svg11.dtd">
<svg width="100%" height="100%" viewBox="0 0 512 512" version="1.1" xmlns="http://www.w3.org/2000/svg" xmlns:xlink="http://www.w3.org/1999/xlink" xml:space="preserve" xmlns:serif="http://www.serif.com/" style="fill-rule:evenodd;clip-rule:evenodd;stroke-linejoin:round;stroke-miterlimit:2;">
    <g>
        <g>
            <g>
                <path d="M411.553,116.384C327.618,129.405 325.974,131.604 259.985,110.838C187.662,88.078 182.392,98.415 100.444,108.861C77.243,111.818 55.755,130.971 58.828,156.107C63.896,197.549 72.023,219.664 72.094,255.171C72.162,289.17 64.081,324.492 59.699,355.921C56.369,379.807 75.39,400.961 100.472,397.677C182.335,386.958 187.634,376.33 259.985,399.708C297.334,411.775 314.968,422.501 412.318,408.636C435.567,405.324 458.987,381.418 461.247,357.894C471.963,246.325 470.85,244.51 459.378,156.216C456.376,133.113 436.871,112.457 411.553,116.384Z" style="fill:rgb(49,55,61);fill-rule:nonzero;"/>
                <path d="M228.221,168.043C236.974,170.145 244.887,180.466 244.887,189.315C244.887,197.963 237.246,203.544 228.221,201.376C219.467,199.274 211.555,190.355 211.555,181.54C211.555,172.765 219.314,165.904 228.221,168.043Z" style="fill:rgb(49,55,61);"/>
                <path d="M283.773,185.115C292.542,187.729 300.438,197.4 300.438,206.207C300.438,214.933 292.725,221.117 283.773,218.449C275.005,215.835 267.107,205.328 267.107,196.501C267.107,187.862 274.739,182.422 283.773,185.115Z" style="fill:rgb(49,55,61);"/>
                <path d="M255.997,220.621C262.732,222.82 267.107,227.466 267.107,229.834C267.107,231.966 263.373,234.14 255.997,231.732C249.181,229.507 244.887,224.985 244.887,222.648C244.887,220.476 248.725,218.247 255.997,220.621Z" style="fill:rgb(41,47,51);"/>
                <path d="M380.807,344.042C374.965,342.708 367.648,346.553 365.414,352.408C329.005,343.11 311.957,334.984 288.473,319.813C314.006,317.722 329.589,312.825 366.361,296.458C368.438,301.571 375.592,304.025 382.043,301.059C388.457,298.092 391.914,290.823 389.783,285.766C387.679,280.743 380.25,278.421 373.871,281.306C380.196,278.434 383.566,271.182 381.335,266.076C379.115,261.015 371.699,258.659 365.439,261.448C359.167,264.232 356.051,271.342 358.171,276.479C313.093,295.966 301.98,295.972 255.997,297.699C224.381,275.871 205.579,264.034 159.622,252.27C161.466,246.214 158.504,240.202 154.07,239.137C149.645,238.054 144.062,241.962 142.305,248.092C140.568,254.142 143.245,260.023 147.595,261.048C143.249,260.014 137.55,263.934 135.562,269.969C133.546,276.06 136.067,281.879 140.363,282.909C144.731,283.945 150.703,280.062 152.693,274.071C197.065,285.125 214.278,294.965 223.521,300.307C198.905,303.994 177.853,313.743 149.733,329.008C148.231,323.962 142.503,321.588 137.143,324.59C131.913,327.52 128.467,334.79 129.824,339.896C131.197,345.023 137.265,347.196 142.704,344.265C137.29,347.19 133.927,354.466 135.532,359.579C137.126,364.698 143.513,366.894 149.078,364.012C154.636,361.127 157.714,353.996 155.98,348.805C199.085,326.639 217.625,322.778 255.997,321.343C297.232,349.81 312.403,361.436 357.218,373.995C355.062,379.696 358.321,386.177 363.96,387.707C369.673,389.247 376.683,385.408 378.918,379.635C381.191,373.806 378.029,367.499 372.229,366.064C378.04,367.512 385.219,363.561 387.545,357.687C389.897,351.758 386.677,345.38 380.807,344.042Z" style="fill:rgb(230,231,232);fill-rule:nonzero;"/>
                <path d="M255.997,131.732C207.74,115.98 189.269,160.484 189.389,186.159C189.481,205.775 206.227,217.343 211.555,221.029L211.555,242.651C211.555,248.524 216.792,254.454 222.666,255.682C228.627,256.929 233.776,253.046 233.776,247.23L233.776,233.719L244.887,238.715L244.887,250.426C244.887,256.288 250.107,263.143 255.997,265.066C261.981,267.019 267.107,263.407 267.107,257.612L267.107,245.901C272.868,247.176 277.322,247.598 278.218,247.683L278.218,261.194C278.218,267.076 283.442,273.968 289.328,275.609C295.274,277.266 300.438,273.165 300.438,267.319L300.438,245.696C314.88,240.909 322.66,228.272 322.66,215.143C322.66,178.491 291.17,143.214 255.997,131.732ZM228.221,201.376C220.736,199.579 211.555,198.549 211.555,181.54C211.555,172.752 219.303,165.902 228.221,168.043C245.932,172.296 244.887,183.607 244.887,189.315C244.887,197.972 237.262,203.547 228.221,201.376ZM255.997,231.732C249.179,229.507 244.887,224.985 244.887,222.648C244.887,220.477 248.723,218.247 255.997,220.621C262.734,222.82 267.107,227.466 267.107,229.834C267.107,231.965 263.376,234.141 255.997,231.732ZM283.773,218.449C275.002,215.834 267.107,205.338 267.107,196.501C267.107,187.145 267.634,180.304 283.773,185.115C292.545,187.73 300.438,197.39 300.438,206.207C300.438,223.597 291.164,220.652 283.773,218.449Z" style="fill:rgb(230,231,232);fill-rule:nonzero;"/>
            </g>
        </g>
    </g>
</svg>
