<?xml version="1.0" encoding="UTF-8" standalone="no"?>
<!DOCTYPE svg PUBLIC "-//W3C//DTD SVG 1.1//EN" "http://www.w3.org/Graphics/SVG/1.1/DTD/svg11.dtd">
<svg width="100%" height="100%" viewBox="0 0 512 512" version="1.1" xmlns="http://www.w3.org/2000/svg" xmlns:xlink="http://www.w3.org/1999/xlink" xml:space="preserve" xmlns:serif="http://www.serif.com/" style="fill-rule:evenodd;clip-rule:evenodd;stroke-linejoin:round;stroke-miterlimit:2;">
    <g transform="matrix(1.11593,-4.03717e-17,4.03717e-17,1.11593,-13.9687,-19.1113)">
        <g transform="matrix(11.1111,-1.36955e-31,4.93038e-32,11.1111,-2411.79,-2528.08)">
            <g>
                <g transform="matrix(0.896117,3.24196e-17,-3.24196e-17,0.896117,222.704,233.585)">
                    <path d="M32,5.435C24.446,6.606 24.298,6.804 18.359,4.935C11.85,2.887 11.375,3.817 4,4.757L3.396,4.874C3.396,5.014 3.394,5.712 3.451,6.629C1.954,6.798 0.935,6.798 0.716,6.798C0.338,7.429 0.158,8.22 0.255,9.01C0.711,12.739 1.442,14.73 1.448,17.925C1.455,20.985 0.727,24.164 0.333,26.993C0.033,29.147 1.724,31.049 4.002,30.751C11.374,29.786 11.848,28.83 18.359,30.934C21.72,32.019 23.309,32.985 32.068,31.737C34.174,31.437 36.262,29.289 36.469,27.17C37.446,17.169 37.37,17.149 36.301,9.019C36.029,6.947 34.301,5.078 32,5.435Z" style="fill:rgb(0,36,125);fill-rule:nonzero;"/>
                </g>
                <g transform="matrix(0.896117,3.24196e-17,-3.24196e-17,0.896117,222.704,233.585)">
                    <path d="M31.482,20.862C31.462,21.317 30.881,21.843 30.157,21.956C29.411,22.073 28.914,21.695 28.933,21.256C28.952,20.803 29.508,20.294 30.234,20.18C30.987,20.063 31.501,20.425 31.482,20.862Z" style="fill:rgb(221,46,68);fill-rule:nonzero;"/>
                </g>
                <g transform="matrix(0.896117,3.24196e-17,-3.24196e-17,0.896117,222.704,233.585)">
                    <path d="M25.727,20.128C25.722,20.559 27.004,21.005 28.03,19.66C28.551,18.978 28.676,19.147 28.702,19.207C28.806,19.441 28.57,20.163 28.331,20.337C28.284,20.371 27.413,21.339 26.524,21.287C25.597,21.232 25.379,20.777 25.209,20.328C25.019,19.824 25.686,20.111 25.727,20.128Z" style="fill:rgb(0,154,103);fill-rule:nonzero;"/>
                </g>
                <g transform="matrix(0.896117,3.24196e-17,-3.24196e-17,0.896117,222.704,233.585)">
                    <path d="M25.859,17.467C25.96,17.689 25.863,18.018 25.611,18.124L24.694,18.461C24.447,18.54 24.131,18.354 24.029,18.108C23.926,17.861 24.029,17.563 24.28,17.491L25.193,17.187C25.418,17.101 25.75,17.23 25.859,17.467ZM33.994,19.253C33.84,19.505 33.539,19.628 33.381,19.551L32.054,18.914C31.9,18.841 31.838,18.556 31.992,18.29C32.141,18.032 32.438,17.906 32.6,17.982L33.942,18.628C34.096,18.705 34.154,18.993 33.994,19.253Z" style="fill:rgb(255,241,0);fill-rule:nonzero;"/>
                </g>
                <g transform="matrix(0.896117,3.24196e-17,-3.24196e-17,0.896117,222.704,233.585)">
                    <path d="M34.17,18.92C34.241,19.169 34.053,19.486 33.809,19.587C33.56,19.691 33.259,19.585 33.188,19.335C33.146,19.186 32.931,18.428 32.624,17.491C32.542,17.24 32.719,16.92 32.955,16.817C33.195,16.712 33.513,16.82 33.595,17.068C33.644,17.215 33.907,18.009 34.17,18.92Z" style="fill:rgb(255,241,0);fill-rule:nonzero;"/>
                </g>
                <g transform="matrix(0.896117,3.24196e-17,-3.24196e-17,0.896117,222.704,233.585)">
                    <path d="M34.585,19.087C34.582,19.335 34.332,19.619 34.069,19.656C33.797,19.694 33.566,19.496 33.569,19.229C33.572,18.977 33.822,18.691 34.08,18.654C34.351,18.616 34.588,18.821 34.585,19.087Z" style="fill:rgb(255,241,0);fill-rule:nonzero;"/>
                </g>
                <g transform="matrix(0.896117,3.24196e-17,-3.24196e-17,0.896117,222.704,233.585)">
                    <path d="M25.984,19.978C25.983,20.143 25.763,20.361 25.48,20.357C25.194,20.353 24.982,20.126 24.983,19.961C24.984,19.781 24.991,18.852 24.943,17.702C24.935,17.525 25.145,17.342 25.427,17.346C25.737,17.35 25.938,17.57 25.945,17.719C25.993,18.867 25.986,19.797 25.984,19.978Z" style="fill:rgb(0,154,103);fill-rule:nonzero;"/>
                </g>
                <g transform="matrix(0.896117,3.24196e-17,-3.24196e-17,0.896117,222.704,233.585)">
                    <path d="M26.702,18.908C26.882,19.134 26.837,19.43 26.71,19.532L25.515,20.456C25.372,20.561 25.085,20.489 24.92,20.253C24.757,20.019 24.778,19.725 24.921,19.628C25.018,19.562 25.428,19.283 26.099,18.754C26.222,18.656 26.522,18.684 26.702,18.908Z" style="fill:rgb(0,154,103);fill-rule:nonzero;"/>
                </g>
                <g transform="matrix(0.896117,3.24196e-17,-3.24196e-17,0.896117,222.704,233.585)">
                    <path d="M25.519,19.972C25.517,20.227 25.263,20.464 24.977,20.446C24.692,20.427 24.443,20.159 24.445,19.903C24.446,19.635 24.711,19.439 24.984,19.457C25.253,19.474 25.521,19.71 25.519,19.972ZM34.939,17.186C34.85,17.421 34.33,17.552 33.697,17.382C33.044,17.205 32.738,16.836 32.822,16.606C32.909,16.364 33.432,16.215 34.067,16.389C34.705,16.565 35.029,16.952 34.939,17.186Z" style="fill:rgb(0,154,103);fill-rule:nonzero;"/>
                </g>
                <g transform="matrix(0.896117,3.24196e-17,-3.24196e-17,0.896117,222.704,233.585)">
                    <path d="M28.803,18.373C28.272,18.788 27.547,19.5 27.442,19.602L27.88,19.616C27.949,19.681 28.415,20.118 28.493,20.627C28.544,20.953 28.357,20.902 28.31,21.222C28.248,21.635 28.498,21.919 28.463,21.879C28.556,21.837 29.106,21.592 29.546,21.209C30.348,20.509 30.353,20.383 30.505,20.517C30.561,20.566 30.61,20.623 30.654,20.682C30.687,20.726 30.689,20.891 30.704,20.838L31.016,20.787C30.963,20.744 30.518,20.376 30.532,20.092C30.548,19.759 30.128,18.597 30.083,18.47L28.803,18.373ZM28.066,17.19L28.48,16.823C28.425,16.882 29.081,16.981 29.393,16.806C29.486,16.754 30.487,15.826 30.592,15.869C30.711,15.919 29.839,16.723 30.202,16.745C30.605,16.77 30.867,16.317 31.029,16.208C31.239,16.068 31.252,16.137 31.501,16.057L31.322,16.28C30.948,16.598 30.466,17.73 30.408,17.864C29.468,17.94 28.881,17.97 28.748,17.977L28.304,17.716L28.066,17.19Z" style="fill:rgb(212,213,214);fill-rule:nonzero;"/>
                </g>
                <g transform="matrix(0.896117,3.24196e-17,-3.24196e-17,0.896117,222.704,233.585)">
                    <path d="M30.937,18.001C30.941,18.162 30.453,18.504 29.578,18.633C28.645,18.769 28.21,18.532 28.207,18.393C28.203,18.255 28.596,17.936 29.557,17.796C30.581,17.645 30.934,17.886 30.937,18.001ZM26.276,23.475C26.198,23.667 25.695,23.764 25.146,23.57C24.59,23.373 24.261,22.983 24.336,22.803C24.476,22.467 25.381,22.761 25.467,22.789C26.201,23.029 26.321,23.366 26.276,23.475ZM33.828,24.18C33.797,24.3 33.389,24.496 32.689,24.466C31.919,24.436 31.697,24.189 31.722,24.092C31.755,23.964 32.197,23.764 32.862,23.792C33.587,23.82 33.857,24.07 33.828,24.18Z" style="fill:rgb(0,154,103);fill-rule:nonzero;"/>
                </g>
                <g transform="matrix(0.896117,3.24196e-17,-3.24196e-17,0.896117,222.704,233.585)">
                    <path d="M32.814,24.406C32.516,25.443 32.17,25.867 32.077,25.861C31.776,25.839 32.17,24.477 32.204,24.361C32.241,24.232 32.642,22.842 32.944,22.856C33.046,22.861 33.114,23.365 32.814,24.406ZM30.598,18.191C30.954,19.004 31.745,20.136 32.415,20.035C33.164,19.922 33.286,19.55 33.274,19.588C33.278,19.704 33.189,20.175 32.6,20.359C31.887,20.582 31.595,20.356 31.655,20.402C31.723,20.454 32.046,20.708 32.675,20.769C32.816,20.783 34.378,20.934 34.312,21.471C34.241,22.043 33.791,22.354 33.854,22.093C33.91,21.861 33.513,21.414 32.643,21.362C31.98,21.322 30.929,21.11 30.502,19.747L30.302,19.155L30.426,19.636C30.366,19.664 29.6,20.014 29.608,19.605C29.614,19.263 30.234,19.254 30.115,18.82C30.074,18.669 29.716,18.031 29.969,18.082L30.598,18.191ZM28.529,20.325C28.145,20.938 26.512,22.362 26.463,22.413C26.125,22.767 25.711,23.61 25.572,24.132C25.458,24.562 25.531,24.55 25.587,24.975C25.605,24.95 25.762,24.841 25.889,24.546C26.295,23.604 26.428,23.711 27.387,22.655C27.487,22.546 28.307,21.645 28.532,21.201C28.74,20.792 28.558,20.389 28.529,20.325Z" style="fill:rgb(0,154,103);fill-rule:nonzero;"/>
                </g>
                <g transform="matrix(0.896117,3.24196e-17,-3.24196e-17,0.896117,222.704,233.585)">
                    <path d="M30.984,20.384C31.118,20.841 31.024,21.178 30.921,21.224C30.659,21.343 30.47,20.683 30.453,20.625C30.317,20.155 30.405,19.826 30.503,19.782C30.594,19.741 30.844,19.905 30.984,20.384ZM27.391,20.86C27.389,20.945 27.134,21.113 26.69,21.138C26.231,21.164 26.004,21.015 26.007,20.937C26.013,20.719 26.645,20.683 26.704,20.68C26.761,20.677 27.398,20.641 27.391,20.86ZM25.953,25.065C26.029,26.019 25.839,26.505 25.734,26.526C25.645,26.543 25.382,26.23 25.306,25.191C25.232,24.216 25.416,23.754 25.516,23.735C25.614,23.716 25.878,24.069 25.953,25.065Z" style="fill:rgb(255,241,0);fill-rule:nonzero;"/>
                </g>
                <g transform="matrix(0.896117,3.24196e-17,-3.24196e-17,0.896117,222.704,233.585)">
                    <path d="M26.479,24.903C26.467,25.009 26.082,25.209 25.455,25.208C24.741,25.208 24.488,24.97 24.497,24.894C24.526,24.65 25.436,24.647 25.52,24.647C25.599,24.646 26.508,24.643 26.479,24.903ZM26.454,27.095C26.633,27.548 26.567,27.853 26.479,27.897C26.396,27.939 26.142,27.802 25.959,27.34C25.786,26.898 25.848,26.579 25.939,26.536C26.019,26.497 26.267,26.628 26.454,27.095ZM31.977,26.752C31.597,27.275 31.198,27.434 31.076,27.362C30.969,27.298 30.938,26.929 31.344,26.37C31.733,25.834 32.127,25.678 32.246,25.75C32.358,25.819 32.371,26.21 31.977,26.752ZM34.756,21.623C34.818,21.727 34.637,22.176 33.808,22.753C33.714,22.819 32.624,23.578 32.462,23.261C32.394,23.129 32.631,22.648 33.418,22.086C34.246,21.496 34.698,21.523 34.756,21.623ZM24.526,22.519C24.604,22.369 24.892,21.817 26.324,21.39C26.958,21.2 27.422,20.709 27.527,20.619C27.748,20.43 27.948,20.002 28.123,20.11C28.429,20.3 28.513,20.348 28.312,20.642C28.068,20.998 27.227,21.736 26.771,21.934C26.643,21.989 25.24,22.599 25.19,22.677C25.113,22.793 24.418,22.725 24.526,22.519Z" style="fill:rgb(255,241,0);fill-rule:nonzero;"/>
                </g>
                <g transform="matrix(0.896117,3.24196e-17,-3.24196e-17,0.896117,222.704,233.585)">
                    <path d="M26.828,21.509C28.675,21.392 31.421,20.911 31.675,20.869C31.617,22.186 31.417,24.052 31.364,24.591C31.238,25.847 29.54,27.453 28.595,28.128C27.777,27.651 26.371,26.368 26.519,25.065C26.551,24.781 26.766,22.891 26.828,21.509Z" style="fill:rgb(77,143,204);fill-rule:nonzero;"/>
                </g>
                <g transform="matrix(0.896117,3.24196e-17,-3.24196e-17,0.896117,222.704,233.585)">
                    <path d="M30.952,25.674C29.956,23.344 30.007,23.346 29.244,21.795C28.667,22.761 27.44,24.679 26.624,25.882C26.961,26.938 28.106,27.838 28.594,28.128C29.168,27.715 30.382,26.637 30.952,25.674Z" style="fill:rgb(0,154,103);fill-rule:nonzero;"/>
                </g>
                <g transform="matrix(0.896117,3.24196e-17,-3.24196e-17,0.896117,222.704,233.585)">
                    <path d="M26.649,25.622L26.763,26.002C26.968,25.688 28.158,23.861 29.232,22.011C30.032,23.525 30.333,24.278 30.914,25.525L31.123,25.072C30.266,23.133 30.313,23.13 29.317,21.242C28.223,23.198 26.873,25.278 26.649,25.622ZM31.541,21.272C31.771,21.636 32.512,21.604 32.675,22.379C32.837,23.147 32.766,23.139 32.564,23.892L32.406,23.588C32.347,23.34 32.326,22.374 31.395,22.286C30.628,22.213 31.484,21.331 31.541,21.272ZM26.014,26.706L25.687,27.869L26.806,27.298L26.014,26.706ZM31.639,26.329L30.587,26.932L31.628,27.442L31.639,26.329Z" style="fill:rgb(255,241,0);fill-rule:nonzero;"/>
                </g>
                <g transform="matrix(0.896117,3.24196e-17,-3.24196e-17,0.896117,222.704,233.585)">
                    <path d="M29.934,24.786C29.923,24.892 29.831,24.992 29.724,25.006L28.242,25.183C28.14,25.194 28.062,25.113 28.073,25.012C28.085,24.906 28.178,24.813 28.284,24.802L29.764,24.618C29.867,24.604 29.944,24.685 29.934,24.786Z" style="fill:rgb(255,241,0);fill-rule:nonzero;"/>
                </g>
                <g transform="matrix(0.896117,3.24196e-17,-3.24196e-17,0.896117,222.704,233.585)">
                    <path d="M28.887,26.862C28.886,26.865 28.858,27.127 28.773,27.136L28.616,27.152C28.529,27.161 28.549,26.983 28.558,26.896C28.692,25.628 28.695,25.643 28.828,24.365C28.829,24.364 28.858,24.093 28.942,24.082L29.099,24.061C29.187,24.05 29.165,24.235 29.156,24.324C29.066,25.17 28.976,26.016 28.887,26.862Z" style="fill:rgb(255,241,0);fill-rule:nonzero;"/>
                </g>
                <g transform="matrix(0.896117,3.24196e-17,-3.24196e-17,0.896117,222.704,233.585)">
                    <path d="M27.58,26.079L28.107,26.643L27.989,26.778L28.616,27.152L29.583,26.609L29.399,26.51L30.119,25.924L29.935,26.786L29.698,26.746L28.651,27.659L27.727,26.907L27.532,26.942L27.58,26.079Z" style="fill:rgb(255,241,0);fill-rule:nonzero;"/>
                </g>
                <g transform="matrix(0.896117,3.24196e-17,-3.24196e-17,0.896117,222.704,233.585)">
                    <path d="M19.912,18.16C19.866,13.285 19,9.376 19,5.141C11.806,2.837 11.647,3.783 4,4.757L3.396,4.874C3.396,5.014 3.394,5.712 3.451,6.629C1.954,6.798 0.935,6.798 0.716,6.798L0.602,7.003C0.528,7.148 0.124,7.941 0.255,9.01C0.717,12.789 1.468,14.816 1.448,18.098C5.841,18.143 7.652,17.208 11.988,16.792C15.05,16.498 17.294,17.318 19.912,18.16Z" style="fill:rgb(0,36,125);fill-rule:nonzero;"/>
                </g>
                <g transform="matrix(0.896117,3.24196e-17,-3.24196e-17,0.896117,222.704,233.585)">
                    <path d="M19,5.141C18.814,5.082 17.267,4.586 16.669,4.415C14.496,5.171 12.449,6.757 12.117,7.013C12,5.326 12,4.009 12,3.747C10.226,3.803 7.398,4.248 7,4.311C7,5.604 7.077,6.67 7.092,6.875C6.075,6.341 4.972,5.77 3.396,4.874C2.458,5.119 1.849,5.59 1.732,5.68C3.536,6.825 6.373,8.265 6.655,8.411C5.573,8.586 5.085,8.657 4.948,8.677C4.625,8.506 2.56,7.418 0.999,6.39L0.716,6.798C2.13,7.74 3.807,8.645 4.082,8.794C2.026,9.051 0.541,9.01 0.255,9.01C0.445,10.564 1.009,13.615 1.083,14.014C1.325,14.014 2.869,14.061 4.95,13.777C2.953,15.936 1.742,16.681 1.421,16.878L1.448,18.098C1.531,18.099 2.939,18.155 4.774,17.919C6.063,16.808 7.786,15.033 8.039,14.773C8.156,16.07 8.16,17.146 8.161,17.353C8.532,17.285 11.121,16.809 12.84,16.739C12.837,16.476 12.823,15.197 12.689,13.449C13.793,14.162 15.27,15.211 17.534,17.416C18.144,17.592 19.722,18.099 19.912,18.16C19.91,17.997 19.903,17.169 19.849,16.12C19.611,15.888 17.918,14.235 16.843,13.261C17.629,13.473 19.484,14.071 19.713,14.145C19.619,13.038 19.302,10.181 19.207,9.157C18.981,9.085 17.15,8.496 16.373,8.287C17.253,7.881 18.839,7.263 19.055,7.178C19.046,7.015 19,6.183 19,5.141Z" style="fill:rgb(238,238,238);fill-rule:nonzero;"/>
                </g>
                <g transform="matrix(0.896117,3.24196e-17,-3.24196e-17,0.896117,222.704,233.585)">
                    <path d="M11,3.801C10.759,3.819 9.761,3.893 8,4.157C8,4.826 8.012,6.514 8.307,9.172C4.881,9.699 3.684,10.017 0.388,10.012C0.423,10.253 0.574,11.299 0.892,13.007C4.163,13.009 5.176,12.716 8.677,12.156C8.729,12.556 9.069,15.171 9.08,17.187C10.701,16.904 11.655,16.821 11.88,16.801C11.861,14.822 11.597,12.196 11.557,11.796C14.707,11.557 16.349,12.108 19.621,13.154C19.579,12.73 19.317,10.276 19.306,10.161C16.083,9.131 14.474,8.581 11.259,8.817C11.019,6.227 11,4.709 11,3.801Z" style="fill:rgb(207,27,43);fill-rule:nonzero;"/>
                </g>
                <g transform="matrix(0.896117,3.24196e-17,-3.24196e-17,0.896117,222.704,233.585)">
                    <path d="M19,5.141L17.539,4.676C14.262,5.835 12.254,7.561 12.163,7.632L12.172,7.754C13.087,7.727 13.623,7.776 13.748,7.787C15.657,6.538 18.103,5.676 19,5.343L19,5.141ZM1.732,5.68C1.313,5.999 1.05,6.326 0.999,6.39C2.56,7.418 4.625,8.506 4.948,8.677C5.085,8.657 5.573,8.586 6.654,8.411C6.455,8.308 3.556,6.839 1.732,5.68ZM7.344,13.391C6.426,14.384 4.435,16.582 2.29,18.105C2.423,18.103 3.087,18.095 3.953,18.012C5.688,16.592 7.771,14.364 7.976,14.149L7.87,13.299L7.344,13.391ZM19.91,17.961L19.877,16.735C19.821,16.68 17.553,14.422 15.958,13.04C15.012,12.826 14.339,12.763 14.196,12.749C16.335,14.348 18.937,16.986 19.91,17.961Z" style="fill:rgb(207,27,43);fill-rule:nonzero;"/>
                </g>
            </g>
        </g>
    </g>
</svg>
