<?xml version="1.0" encoding="UTF-8" standalone="no"?>
<!DOCTYPE svg PUBLIC "-//W3C//DTD SVG 1.1//EN" "http://www.w3.org/Graphics/SVG/1.1/DTD/svg11.dtd">
<svg width="100%" height="100%" viewBox="0 0 512 512" version="1.1" xmlns="http://www.w3.org/2000/svg" xmlns:xlink="http://www.w3.org/1999/xlink" xml:space="preserve" xmlns:serif="http://www.serif.com/" style="fill-rule:evenodd;clip-rule:evenodd;stroke-linejoin:round;stroke-miterlimit:2;">
    <g transform="matrix(1.11593,-4.03717e-17,4.03717e-17,1.11593,-13.9687,-19.1113)">
        <g transform="matrix(11.1111,-1.36955e-31,4.93038e-32,11.1111,-2411.79,-2528.08)">
            <g>
                <g transform="matrix(0.896117,3.24196e-17,-3.24196e-17,0.896117,222.704,233.585)">
                    <path d="M36.469,27.17C36.262,29.289 34.174,31.437 32.068,31.737C22.767,33.063 21.617,31.929 16.923,30.475C12.025,28.957 9.41,30.043 4.002,30.751C1.724,31.049 0.033,29.147 0.333,26.993C0.76,23.929 1.552,20.621 1.436,17.229C1.343,14.486 0.678,12.475 0.255,9.01C-0.023,6.74 1.891,5.026 4,4.757C11.375,3.817 11.85,2.887 18.359,4.935C24.284,6.8 24.43,6.609 32,5.435C34.301,5.078 36.029,6.947 36.301,9.019C37.368,17.137 37.447,17.156 36.469,27.17Z" style="fill:rgb(0,102,0);fill-rule:nonzero;"/>
                </g>
                <g transform="matrix(0.896117,3.24196e-17,-3.24196e-17,0.896117,222.704,233.585)">
                    <path d="M32,5.435C30.525,5.663 25.92,6.545 23.499,6.245C20.52,5.875 17.672,4.542 15,3.998C15,8.011 15.759,12.725 15.822,16.094C15.939,22.331 15.014,24.118 15,29.971C20.866,31.198 20.749,33.35 32.068,31.737C34.174,31.437 36.262,29.289 36.469,27.17C37.446,17.169 37.37,17.149 36.301,9.019C36.029,6.947 34.301,5.078 32,5.435Z" style="fill:rgb(213,43,30);fill-rule:nonzero;"/>
                </g>
                <g transform="matrix(0.896117,3.24196e-17,-3.24196e-17,0.896117,222.704,233.585)">
                    <path d="M15.27,9.011C11.953,8.341 8.139,11.265 8.161,17.353C8.181,23.072 11.806,24.252 15.259,24.967C22.203,26.406 23.996,21.761 23.977,19.223C23.941,14.47 18.617,9.687 15.27,9.011ZM9.706,13.616C10.574,14.347 11.209,14.92 11.337,15.036C11.155,15.157 10.484,15.602 9.098,16.61C9.179,15.007 9.619,13.845 9.706,13.616ZM9.104,17.752C9.438,17.876 11.452,18.621 13.193,19.508C11.812,20.412 10.618,21.314 10.4,21.479L10.41,21.498C9.754,20.673 9.209,19.413 9.104,17.752ZM14.352,23.714C12.771,23.275 12.045,22.846 11.86,22.737C13.184,22.657 14.02,22.738 14.448,22.795L14.352,23.714ZM14.559,21.797C13.62,21.673 12.49,21.692 11.481,21.775C13.279,20.498 14.482,19.892 14.757,19.754C14.688,20.795 14.676,20.769 14.559,21.797ZM14.815,18.556L14.189,18.897C12.635,17.985 10.448,17.146 10.113,17.018C11.232,16.243 11.918,15.819 12.079,15.72C13.714,17.254 14.61,18.293 14.815,18.531L14.815,18.556ZM14.833,17.113C14.563,16.81 13.39,15.493 11.202,13.579C13.31,13.724 14.454,14.061 14.727,14.141C14.826,15.718 14.831,16.875 14.833,17.113ZM14.654,13.099C12.839,12.576 10.45,12.518 10.236,12.51C11.221,10.936 12.841,9.952 14.366,9.927C14.39,10.181 14.584,12.212 14.654,13.099ZM21.915,15.39C22.041,15.615 22.774,16.928 22.927,18.449C22.719,18.301 21.942,17.748 20.382,16.514C21.245,15.908 21.795,15.483 21.915,15.39ZM16.382,10.327C18.036,10.978 19.892,12.519 21.136,14.189C20.61,14.116 17.722,13.621 16.68,13.511C16.604,12.55 16.408,10.581 16.382,10.327ZM16.753,14.553C18.134,14.688 18.109,14.729 20.327,15.071C19.985,15.316 17.604,16.977 16.857,17.523C16.856,17.285 16.851,16.117 16.753,14.553ZM16.839,18.941C17.496,18.48 19.57,17.074 19.65,17.019C19.823,17.159 21.151,18.224 21.83,18.745C20.828,18.962 18.368,19.355 17.441,19.541L16.838,18.966L16.839,18.941ZM16.376,24.126L16.474,23.207C17.365,23.441 18.903,23.939 19.113,24.007C18.9,24.06 17.893,24.309 16.376,24.126ZM16.585,22.209C16.701,21.183 16.713,21.196 16.78,20.164C17.855,21.19 19.511,22.931 19.744,23.176C19.492,23.095 17.409,22.425 16.585,22.209ZM20.976,23.154L20.993,23.137C18.985,21.075 18.599,20.688 18.389,20.477C19.037,20.366 21.447,20.006 22.937,19.601C22.838,20.709 22.343,22.159 20.976,23.154Z" style="fill:rgb(255,204,77);fill-rule:nonzero;"/>
                </g>
                <g transform="matrix(0.896117,3.24196e-17,-3.24196e-17,0.896117,222.704,233.585)">
                    <path d="M11.557,11.796C11.603,12.256 11.992,15.59 11.846,18.798C11.722,21.512 13.842,22.634 15.459,22.968C17.896,23.471 19.802,22.229 19.883,20.165C20.016,16.784 19.628,13.219 19.621,13.154C16.392,12.122 14.729,11.555 11.557,11.796Z" style="fill:rgb(213,43,30);fill-rule:nonzero;"/>
                </g>
                <g transform="matrix(0.896117,3.24196e-17,-3.24196e-17,0.896117,222.704,233.585)">
                    <path d="M12.629,12.715C12.671,13.195 12.922,16.062 12.812,18.742C12.736,20.602 14.176,21.682 15.57,21.97C17.274,22.322 18.8,21.479 18.864,19.837C18.971,17.103 18.733,14.296 18.693,13.816C16.177,13.011 14.614,12.647 12.629,12.715Z" style="fill:white;fill-rule:nonzero;"/>
                </g>
                <g transform="matrix(0.896117,3.24196e-17,-3.24196e-17,0.896117,222.704,233.585)">
                    <path d="M13.802,15.724C15.439,15.787 17.535,16.415 17.851,16.509C17.884,17.547 17.873,18.359 17.871,18.52C17.555,18.425 15.461,17.798 13.826,17.736C13.827,17.575 13.837,16.771 13.802,15.724Z" style="fill:rgb(130,154,205);fill-rule:nonzero;"/>
                </g>
                <g transform="matrix(0.896117,3.24196e-17,-3.24196e-17,0.896117,222.704,233.585)">
                    <path d="M14.765,14.805C14.929,14.826 15.681,14.926 16.791,15.216C16.901,17.364 16.841,18.913 16.829,19.234C15.72,18.944 14.969,18.845 14.805,18.824C14.818,18.503 14.876,16.971 14.765,14.805Z" style="fill:rgb(130,154,205);fill-rule:nonzero;"/>
                </g>
                <g transform="matrix(0.896117,3.24196e-17,-3.24196e-17,0.896117,222.704,233.585)">
                    <path d="M12.817,15.733C13.395,15.709 13.723,15.721 13.802,15.724C13.837,16.771 13.827,17.575 13.826,17.736L12.839,17.742C12.841,17.582 12.852,16.773 12.817,15.733ZM14.808,15.811C14.972,15.833 15.724,15.932 16.833,16.222C16.867,17.262 16.856,18.072 16.854,18.233C15.745,17.943 14.994,17.844 14.83,17.823C14.832,17.662 14.842,16.856 14.808,15.811ZM17.851,16.509L18.871,16.826C18.903,17.861 18.892,18.675 18.89,18.836L17.871,18.52C17.873,18.359 17.884,17.547 17.851,16.509ZM14.805,18.824C14.969,18.845 15.72,18.944 16.829,19.234C16.789,20.259 16.71,21.061 16.694,21.219C15.585,20.929 14.834,20.829 14.67,20.808C14.686,20.649 14.766,19.852 14.805,18.824ZM14.63,12.798C14.794,12.82 15.545,12.92 16.655,13.21C16.742,14.254 16.783,15.056 16.791,15.216C15.681,14.926 14.929,14.826 14.765,14.805C14.757,14.644 14.716,13.851 14.63,12.798Z" style="fill:rgb(0,51,153);fill-rule:nonzero;"/>
                </g>
            </g>
        </g>
    </g>
</svg>
