<?xml version="1.0" encoding="UTF-8" standalone="no"?>
<!DOCTYPE svg PUBLIC "-//W3C//DTD SVG 1.1//EN" "http://www.w3.org/Graphics/SVG/1.1/DTD/svg11.dtd">
<svg width="100%" height="100%" viewBox="0 0 512 512" version="1.1" xmlns="http://www.w3.org/2000/svg" xmlns:xlink="http://www.w3.org/1999/xlink" xml:space="preserve" xmlns:serif="http://www.serif.com/" style="fill-rule:evenodd;clip-rule:evenodd;stroke-linejoin:round;stroke-miterlimit:2;">
    <g transform="matrix(1.11593,-4.03717e-17,4.03717e-17,1.11593,-13.9687,-19.1113)">
        <g transform="matrix(11.1111,-2.35563e-31,0,11.1111,-2368.64,-2415.24)">
            <g>
                <g transform="matrix(0.896117,3.24196e-17,-3.24196e-17,0.896117,218.821,223.429)">
                    <path d="M0.333,26.993C0.034,29.134 1.738,31.047 4.002,30.751C11.374,29.786 11.848,28.83 18.359,30.934C21.72,32.019 23.309,32.985 32.068,31.737C34.161,31.439 36.264,29.274 36.469,27.17L36.516,26.682C27.167,27.476 26.984,29.103 18.612,26.43C9.781,23.611 9.595,26.484 0.405,26.492L0.333,26.993Z" style="fill:rgb(136,0,130);fill-rule:nonzero;"/>
                </g>
                <g transform="matrix(0.896117,3.24196e-17,-3.24196e-17,0.896117,218.821,223.429)">
                    <path d="M1.115,22.072C7.091,22.073 10.583,20.331 14.703,20.882C17.617,21.272 21.277,22.993 24.211,23.342C27.746,23.762 33.019,22.215 36.967,22.082C36.931,22.464 36.926,22.454 36.5,26.848C27.064,27.68 26.881,29.246 18.596,26.6C9.757,23.777 9.57,26.654 0.38,26.662C0.522,25.683 1.008,22.798 1.115,22.072Z" style="fill:rgb(53,88,160);fill-rule:nonzero;"/>
                </g>
                <g transform="matrix(0.896117,3.24196e-17,-3.24196e-17,0.896117,218.821,223.429)">
                    <path d="M1.448,17.932C10.046,18.021 10.22,14.923 19.257,17.779C28.439,20.681 28.621,18.133 37.129,17.842C37.158,20.2 36.978,21.983 36.942,22.341C29.413,22.594 28.221,25.162 19.799,22.504C16.633,21.505 14.913,20.772 11.117,21.151C7.423,21.519 5.701,22.33 1.076,22.33C1.129,21.981 1.451,19.88 1.448,17.932Z" style="fill:rgb(19,143,62);fill-rule:nonzero;"/>
                </g>
                <g transform="matrix(0.896117,3.24196e-17,-3.24196e-17,0.896117,218.821,223.429)">
                    <path d="M0.986,13.503C6.953,13.505 10.506,11.769 14.629,12.316C17.543,12.702 21.2,14.418 24.135,14.764C27.681,15.181 32.954,13.643 36.893,13.513C36.928,13.872 37.112,15.741 37.131,18.012C28.626,18.304 28.444,20.853 19.259,17.95C10.243,15.1 10.07,18.185 1.448,18.098C1.463,15.705 1.004,13.6 0.986,13.503Z" style="fill:rgb(250,210,32);fill-rule:nonzero;"/>
                </g>
                <g transform="matrix(0.896117,3.24196e-17,-3.24196e-17,0.896117,218.821,223.429)">
                    <path d="M0.276,9.18C9.727,9.191 9.925,6.386 18.941,9.237C27.9,12.071 28.486,9.436 36.324,9.189C36.373,9.557 36.79,12.399 36.909,13.682C29.391,13.931 28.184,16.495 19.766,13.843C16.605,12.848 14.886,12.116 11.08,12.494C7.383,12.86 5.64,13.672 1.018,13.672C0.95,13.314 0.501,10.962 0.276,9.18Z" style="fill:rgb(255,115,0);fill-rule:nonzero;"/>
                </g>
                <g transform="matrix(0.896117,3.24196e-17,-3.24196e-17,0.896117,218.821,223.429)">
                    <path d="M32,5.435C24.446,6.606 24.298,6.804 18.359,4.935C11.85,2.887 11.375,3.817 4,4.757C1.907,5.024 -0.021,6.754 0.255,9.01L0.296,9.341C9.746,9.352 9.944,6.551 18.956,9.398C27.918,12.229 28.507,9.595 36.345,9.349L36.301,9.019C36.03,6.96 34.285,5.08 32,5.435Z" style="fill:rgb(255,0,14);fill-rule:nonzero;"/>
                </g>
            </g>
        </g>
    </g>
</svg>
