<?xml version="1.0" encoding="UTF-8" standalone="no"?>
<!DOCTYPE svg PUBLIC "-//W3C//DTD SVG 1.1//EN" "http://www.w3.org/Graphics/SVG/1.1/DTD/svg11.dtd">
<svg width="100%" height="100%" viewBox="0 0 512 512" version="1.1" xmlns="http://www.w3.org/2000/svg" xmlns:xlink="http://www.w3.org/1999/xlink" xml:space="preserve" xmlns:serif="http://www.serif.com/" style="fill-rule:evenodd;clip-rule:evenodd;stroke-linejoin:round;stroke-miterlimit:2;">
    <g transform="matrix(1.11593,-4.03717e-17,4.03717e-17,1.11593,-13.9687,-19.1113)">
        <g transform="matrix(11.1111,-1.36955e-31,4.93038e-32,11.1111,-2411.79,-2528.08)">
            <g>
                <g transform="matrix(0.896117,3.24196e-17,-3.24196e-17,0.896117,222.704,233.585)">
                    <path d="M32,5.435C24.446,6.606 24.298,6.804 18.359,4.935C11.85,2.887 11.375,3.817 4,4.757C3.771,4.787 2.476,4.952 1.387,5.977C3.336,7.278 6.27,8.812 7.256,9.339C15.397,8.017 15.489,9.18 21.247,10.747C26.937,12.296 30.847,10.194 36.439,10.021L36.301,9.019C36.029,6.947 34.301,5.078 32,5.435Z" style="fill:rgb(234,11,25);fill-rule:nonzero;"/>
                </g>
                <g transform="matrix(0.896117,3.24196e-17,-3.24196e-17,0.896117,222.704,233.585)">
                    <path d="M14.549,13.78C17.761,14.163 22.037,16.25 25.075,16.334C28.83,16.438 33.291,15.134 37.014,15.01C36.869,12.865 36.581,11.026 36.439,10.021C30.435,10.207 26.886,12.475 20.523,10.54C15.008,8.862 14.416,8.176 7.256,9.339C10.58,11.116 12.857,12.428 14.549,13.78Z" style="fill:rgb(238,238,238);fill-rule:nonzero;"/>
                </g>
                <g transform="matrix(0.896117,3.24196e-17,-3.24196e-17,0.896117,222.704,233.585)">
                    <path d="M18.892,17.832C18.54,17.971 16.18,18.904 14.598,19.8C17.804,20.18 22.075,22.266 25.108,22.347C28.861,22.449 33.327,21.142 37.051,21.014C37.23,18.219 37.046,15.489 37.014,15.01C33.292,15.134 28.834,16.438 25.075,16.334C22.037,16.25 17.761,14.163 14.549,13.78C16.304,15.182 18.56,17.492 18.892,17.832Z" style="fill:rgb(234,11,25);fill-rule:nonzero;"/>
                </g>
                <g transform="matrix(0.896117,3.24196e-17,-3.24196e-17,0.896117,222.704,233.585)">
                    <path d="M7.293,25.298C15.342,23.952 15.415,25.12 21.259,26.739C26.462,28.181 30.46,26.653 36.564,26.189C36.927,22.389 36.997,21.855 37.051,21.014C33.328,21.141 28.865,22.449 25.108,22.347C22.075,22.266 17.804,20.18 14.598,19.8C12.075,21.228 9.158,23.734 7.293,25.298Z" style="fill:rgb(238,238,238);fill-rule:nonzero;"/>
                </g>
                <g transform="matrix(0.896117,3.24196e-17,-3.24196e-17,0.896117,222.704,233.585)">
                    <path d="M1.406,29.995C2.49,30.949 3.787,30.779 4.002,30.751C11.374,29.786 11.848,28.83 18.359,30.934C21.72,32.019 23.309,32.985 32.068,31.737C34.174,31.437 36.262,29.289 36.469,27.17L36.564,26.189C30.47,26.652 26.463,28.181 21.259,26.739C15.425,25.123 15.343,23.952 7.293,25.298C6.614,25.868 3.82,28.234 1.406,29.995Z" style="fill:rgb(234,11,25);fill-rule:nonzero;"/>
                </g>
                <g transform="matrix(0.896117,3.24196e-17,-3.24196e-17,0.896117,222.704,233.585)">
                    <path d="M14.598,19.8C16.18,18.904 18.54,17.971 18.892,17.832C18.56,17.492 16.304,15.182 14.549,13.78C12.857,12.428 10.58,11.116 7.256,9.339C6.331,8.844 3.353,7.289 1.387,5.977C1.199,6.154 0.039,7.246 0.255,9.01C0.711,12.739 1.442,14.73 1.448,17.925C1.455,20.985 0.727,24.164 0.333,26.993C0.077,28.826 1.215,29.826 1.406,29.995C3.791,28.255 6.54,25.929 7.293,25.298C9.158,23.734 12.075,21.228 14.598,19.8Z" style="fill:rgb(15,85,236);fill-rule:nonzero;"/>
                </g>
                <g transform="matrix(0.896117,3.24196e-17,-3.24196e-17,0.896117,222.704,233.585)">
                    <path d="M9.245,17.99C9.416,17.831 10.901,16.448 11.389,16.008C11.176,16.031 10.304,16.127 8.734,16.411C8.66,16.198 8.272,15.091 7.7,13.793C7.458,15.316 7.162,16.481 7.103,16.712C5.505,17.005 4.663,17.105 4.45,17.13C5.116,17.551 6.429,18.357 6.601,18.463C6.529,18.691 6.168,19.819 5.561,21.267C5.75,21.111 6.643,20.372 7.878,19.251C9.017,19.961 9.745,20.448 9.905,20.555C9.86,20.348 9.625,19.266 9.245,17.99Z" style="fill:white;fill-rule:nonzero;"/>
                </g>
            </g>
        </g>
    </g>
</svg>
