<?xml version="1.0" encoding="UTF-8" standalone="no"?>
<!DOCTYPE svg PUBLIC "-//W3C//DTD SVG 1.1//EN" "http://www.w3.org/Graphics/SVG/1.1/DTD/svg11.dtd">
<svg width="100%" height="100%" viewBox="0 0 512 512" version="1.1" xmlns="http://www.w3.org/2000/svg" xmlns:xlink="http://www.w3.org/1999/xlink" xml:space="preserve" xmlns:serif="http://www.serif.com/" style="fill-rule:evenodd;clip-rule:evenodd;stroke-linejoin:round;stroke-miterlimit:2;">
    <g transform="matrix(1.11593,-4.03717e-17,4.03717e-17,1.11593,-13.9687,-19.1113)">
        <g transform="matrix(11.1111,-1.36955e-31,4.93038e-32,11.1111,-2411.79,-2528.08)">
            <g>
                <g transform="matrix(0.896117,3.24196e-17,-3.24196e-17,0.896117,222.704,233.585)">
                    <path d="M32,5.435C28.069,6.044 25.249,6.696 22.033,6C18.087,5.145 15.813,3.444 11,3.801C11,8.792 11.903,12.783 11.882,17.336C11.863,21.208 10.995,24.764 10.999,29.769C15.819,29.402 18.052,31.14 22.034,32.026C22.327,32.091 24.391,32.831 32.068,31.737C34.174,31.437 36.262,29.289 36.469,27.17C37.446,17.169 37.37,17.149 36.301,9.019C36.029,6.947 34.301,5.078 32,5.435Z" style="fill:rgb(141,27,61);fill-rule:nonzero;"/>
                </g>
                <g transform="matrix(0.896117,3.24196e-17,-3.24196e-17,0.896117,222.704,233.585)">
                    <path d="M11.091,26.877C12.823,26.279 14.204,25.939 16.508,25.954C14.367,24.754 13.072,24.346 11.33,23.986C13.044,23.393 14.451,23.049 16.798,23.066C14.675,21.877 13.375,21.458 11.657,21.105C13.383,20.512 14.79,20.182 17.083,20.2C14.974,19.038 13.659,18.609 11.866,18.245C13.39,17.689 14.758,17.297 17.155,17.309C14.897,16.084 13.557,15.687 11.84,15.35C13.246,14.812 14.601,14.39 17.039,14.405C14.819,13.218 13.418,12.78 11.621,12.442C13.479,11.778 14.836,11.534 16.794,11.543C14.667,10.429 13.312,9.988 11.334,9.598C13.319,8.886 14.65,8.652 16.512,8.652C14.326,7.487 12.984,7.057 11.089,6.681C12.853,6.052 14.188,5.73 16.318,5.741C14.267,4.617 12.737,4.056 11,3.801C8.878,3.959 5.852,4.521 4,4.757C1.891,5.026 -0.023,6.74 0.255,9.01C0.711,12.739 1.442,14.73 1.448,17.925C1.455,20.985 0.727,24.164 0.333,26.993C0.033,29.147 1.724,31.049 4.002,30.751C5.823,30.512 8.871,29.931 10.999,29.769C12.694,29.178 14.051,28.831 16.324,28.847C14.132,27.624 12.827,27.227 11.091,26.877Z" style="fill:rgb(238,238,238);fill-rule:nonzero;"/>
                </g>
            </g>
        </g>
    </g>
</svg>
