<?xml version="1.0" encoding="UTF-8" standalone="no"?>
<!DOCTYPE svg PUBLIC "-//W3C//DTD SVG 1.1//EN" "http://www.w3.org/Graphics/SVG/1.1/DTD/svg11.dtd">
<svg width="100%" height="100%" viewBox="0 0 512 512" version="1.1" xmlns="http://www.w3.org/2000/svg" xmlns:xlink="http://www.w3.org/1999/xlink" xml:space="preserve" xmlns:serif="http://www.serif.com/" style="fill-rule:evenodd;clip-rule:evenodd;stroke-linejoin:round;stroke-miterlimit:2;">
    <g transform="matrix(1.11593,-4.03717e-17,4.03717e-17,1.11593,-13.9687,-19.1113)">
        <g transform="matrix(11.1111,-1.36955e-31,4.93038e-32,11.1111,-2411.79,-2528.08)">
            <g>
                <g transform="matrix(0.896117,3.24196e-17,-3.24196e-17,0.896117,222.704,233.585)">
                    <path d="M32,5.435C24.446,6.606 24.298,6.804 18.359,4.935C11.85,2.887 11.375,3.817 4,4.757C1.891,5.026 -0.023,6.74 0.255,9.01C0.711,12.739 1.442,14.73 1.448,17.925C1.455,20.985 0.727,24.164 0.333,26.993C0.033,29.147 1.724,31.049 4.002,30.751C11.374,29.786 11.848,28.83 18.359,30.934C21.72,32.019 23.309,32.985 32.068,31.737C34.174,31.437 36.262,29.289 36.469,27.17C37.446,17.169 37.37,17.149 36.301,9.019C36.029,6.947 34.301,5.078 32,5.435Z" style="fill:rgb(51,102,255);fill-rule:nonzero;"/>
                </g>
                <g transform="matrix(0.896117,3.24196e-17,-3.24196e-17,0.896117,222.704,233.585)">
                    <path d="M18.892,17.832C10.718,21.064 9.478,24.105 1.403,29.997L1.404,29.998C2.485,30.949 3.787,30.779 4.002,30.751C11.374,29.786 11.848,28.83 18.359,30.934C21.72,32.019 23.309,32.985 32.068,31.737C32.986,31.606 33.981,31.1 34.8,30.318C26.179,24.943 25.998,25.109 18.892,17.832Z" style="fill:rgb(255,0,0);fill-rule:nonzero;"/>
                </g>
                <g transform="matrix(0.896117,3.24196e-17,-3.24196e-17,0.896117,222.704,233.585)">
                    <path d="M18.892,17.851C21.693,18.973 23.638,19.856 26.397,19.971C29.632,20.106 33.841,19.363 37.118,19.52C37.124,19.282 37.156,18.082 37.096,16.541C33.716,16.936 29.359,18.436 26.036,18.783C23.513,19.046 21.441,18.458 18.892,17.851ZM1.408,16.643C1.423,16.876 1.495,18.057 1.393,19.565C9.338,19.07 10.345,15.817 18.892,17.851C10.544,14.509 9.813,17.333 1.408,16.643ZM2.406,5.255C1.015,5.977 0.573,7.046 0.488,7.251C8.382,11.833 10.795,10.415 18.892,17.832C11.768,9.915 8.981,10.014 2.407,5.253L2.406,5.255ZM35.698,7.278C35.191,6.423 34.418,5.799 33.594,5.545C26.573,12.195 27.297,13.752 18.892,17.832C22.253,16.875 23.854,16.462 26.601,14.476C29.782,12.176 32.99,9.182 35.698,7.278ZM19.5,5.3C17.06,4.532 17.073,4.528 16.5,4.367C17.188,9.928 18.266,12.714 18.892,17.832C19.419,13.1 19.012,9.576 19.5,5.3Z" style="fill:rgb(255,255,0);fill-rule:nonzero;"/>
                </g>
            </g>
        </g>
    </g>
</svg>
