<?xml version="1.0" encoding="UTF-8" standalone="no"?>
<!DOCTYPE svg PUBLIC "-//W3C//DTD SVG 1.1//EN" "http://www.w3.org/Graphics/SVG/1.1/DTD/svg11.dtd">
<svg width="100%" height="100%" viewBox="0 0 512 512" version="1.1" xmlns="http://www.w3.org/2000/svg" xmlns:xlink="http://www.w3.org/1999/xlink" xml:space="preserve" xmlns:serif="http://www.serif.com/" style="fill-rule:evenodd;clip-rule:evenodd;stroke-linejoin:round;stroke-miterlimit:2;">
    <g transform="matrix(1.11593,-4.03717e-17,4.03717e-17,1.11593,-13.9687,-19.1113)">
        <g transform="matrix(11.1111,-1.36955e-31,4.93038e-32,11.1111,-2411.79,-2528.08)">
            <g>
                <g transform="matrix(0.896117,3.24196e-17,-3.24196e-17,0.896117,222.704,233.585)">
                    <path d="M4,4.757C1.891,5.026 -0.023,6.74 0.255,9.01C0.711,12.739 1.442,14.73 1.448,17.925C1.455,20.985 0.727,24.164 0.333,26.993C0.033,29.147 1.724,31.049 4.002,30.751C6.165,30.468 9.473,29.796 12,29.714C12.006,24.527 12.833,21.26 12.843,17.275C12.854,12.716 12,8.404 12,3.747C9.531,3.825 6.033,4.498 4,4.757Z" style="fill:rgb(0,43,127);fill-rule:nonzero;"/>
                </g>
                <g transform="matrix(0.896117,3.24196e-17,-3.24196e-17,0.896117,222.704,233.585)">
                    <path d="M12,3.747C16.469,3.607 20.03,6.033 23.999,6.288C23.999,10.389 25.025,15.101 24.984,19.513C24.93,25.347 24.031,27.852 24,32.323C20.031,32.061 16.469,29.57 12,29.714C12.006,24.527 12.833,21.26 12.843,17.275C12.854,12.716 12,8.404 12,3.747Z" style="fill:rgb(252,209,22);fill-rule:nonzero;"/>
                </g>
                <g transform="matrix(0.896117,3.24196e-17,-3.24196e-17,0.896117,222.704,233.585)">
                    <path d="M32,5.435C30.593,5.653 26.415,6.443 23.999,6.288C23.999,10.389 25.025,15.101 24.984,19.513C24.93,25.347 24.031,27.852 24,32.323C26.707,32.501 31.427,31.829 32.068,31.737C34.174,31.437 36.262,29.289 36.469,27.17C37.446,17.169 37.37,17.149 36.301,9.019C36.029,6.947 34.301,5.078 32,5.435Z" style="fill:rgb(206,17,38);fill-rule:nonzero;"/>
                </g>
            </g>
        </g>
    </g>
</svg>
