<?xml version="1.0" encoding="UTF-8" standalone="no"?>
<!DOCTYPE svg PUBLIC "-//W3C//DTD SVG 1.1//EN" "http://www.w3.org/Graphics/SVG/1.1/DTD/svg11.dtd">
<svg width="100%" height="100%" viewBox="0 0 512 512" version="1.1" xmlns="http://www.w3.org/2000/svg" xmlns:xlink="http://www.w3.org/1999/xlink" xml:space="preserve" xmlns:serif="http://www.serif.com/" style="fill-rule:evenodd;clip-rule:evenodd;stroke-linejoin:round;stroke-miterlimit:2;">
    <g transform="matrix(1.11593,-4.03717e-17,4.03717e-17,1.11593,-13.9687,-19.1113)">
        <g transform="matrix(11.1111,-1.36955e-31,4.93038e-32,11.1111,-2411.79,-2528.08)">
            <g>
                <g transform="matrix(0.896117,3.24196e-17,-3.24196e-17,0.896117,222.704,233.585)">
                    <path d="M36.469,27.17C36.262,29.289 34.174,31.437 32.068,31.737C22.767,33.063 21.617,31.929 16.923,30.475C12.025,28.957 9.41,30.043 4.002,30.751C1.724,31.049 0.033,29.147 0.333,26.993C0.424,26.338 0.429,26.349 0.971,22.997C9.919,22.994 10.094,20.123 18.804,22.873C21.46,23.711 23.334,24.459 26.386,24.321C29.538,24.177 33.693,23.186 36.867,23.071C36.763,24.099 36.494,26.911 36.469,27.17Z" style="fill:rgb(206,32,40);fill-rule:nonzero;"/>
                </g>
                <g transform="matrix(0.896117,3.24196e-17,-3.24196e-17,0.896117,222.704,233.585)">
                    <path d="M0.892,13.007C7.861,13.012 11.153,10.75 16.609,12.24C20.252,13.235 22.595,14.436 25.998,14.323C29.257,14.214 33.556,13.122 36.841,13.017C37.389,17.917 36.948,22.27 36.867,23.071C28.569,23.373 28.381,25.915 19.168,22.99C10.375,20.199 10.185,22.994 0.971,22.997C1.792,17.917 1.408,15.774 0.892,13.007Z" style="fill:rgb(34,64,140);fill-rule:nonzero;"/>
                </g>
                <g transform="matrix(0.896117,3.24196e-17,-3.24196e-17,0.896117,222.704,233.585)">
                    <path d="M32,5.435C24.446,6.606 24.298,6.804 18.359,4.935C11.85,2.887 11.375,3.817 4,4.757C1.891,5.026 -0.023,6.74 0.255,9.01C0.459,10.68 0.833,12.689 0.892,13.007C7.861,13.012 11.153,10.75 16.609,12.24C20.252,13.235 22.595,14.436 25.998,14.323C29.257,14.214 33.556,13.122 36.841,13.017C36.741,12.123 36.335,9.279 36.301,9.019C36.029,6.947 34.301,5.078 32,5.435Z" style="fill:rgb(238,238,238);fill-rule:nonzero;"/>
                </g>
            </g>
        </g>
    </g>
</svg>
