<?xml version="1.0" encoding="UTF-8" standalone="no"?>
<!DOCTYPE svg PUBLIC "-//W3C//DTD SVG 1.1//EN" "http://www.w3.org/Graphics/SVG/1.1/DTD/svg11.dtd">
<svg width="100%" height="100%" viewBox="0 0 512 512" version="1.1" xmlns="http://www.w3.org/2000/svg" xmlns:xlink="http://www.w3.org/1999/xlink" xml:space="preserve" xmlns:serif="http://www.serif.com/" style="fill-rule:evenodd;clip-rule:evenodd;stroke-linejoin:round;stroke-miterlimit:2;">
    <g transform="matrix(1.11593,-4.03717e-17,4.03717e-17,1.11593,-13.9687,-19.1113)">
        <g transform="matrix(11.1111,-1.36955e-31,4.93038e-32,11.1111,-2411.79,-2528.08)">
            <g>
                <g transform="matrix(0.896117,3.24196e-17,-3.24196e-17,0.896117,222.704,233.585)">
                    <path d="M36.469,27.17C36.262,29.289 34.174,31.437 32.068,31.737C22.767,33.063 21.617,31.929 16.923,30.475C12.025,28.957 9.41,30.043 4.002,30.751C1.724,31.049 0.033,29.147 0.333,26.993C0.76,23.929 1.552,20.621 1.436,17.229C1.343,14.486 0.678,12.475 0.255,9.01C-0.023,6.74 1.891,5.026 4,4.757C11.375,3.817 11.85,2.887 18.359,4.935C24.284,6.8 24.43,6.609 32,5.435C34.301,5.078 36.029,6.947 36.301,9.019C37.368,17.137 37.447,17.156 36.469,27.17Z" style="fill:rgb(32,96,61);fill-rule:nonzero;"/>
                </g>
                <g transform="matrix(0.896117,3.24196e-17,-3.24196e-17,0.896117,222.704,233.585)">
                    <path d="M1.421,19.074C8.058,19.124 11.333,16.713 16.895,18.244C20.519,19.241 22.929,20.465 26.288,20.345C29.538,20.229 33.848,19.126 37.128,19.013C37.099,21.052 36.928,22.385 36.564,26.189C26.656,26.941 26.489,28.431 18.838,25.987C9.982,23.159 9.797,25.983 0.481,25.992C0.756,24.216 1.312,21.33 1.421,19.074Z" style="fill:rgb(250,210,1);fill-rule:nonzero;"/>
                </g>
                <g transform="matrix(0.896117,3.24196e-17,-3.24196e-17,0.896117,222.704,233.585)">
                    <path d="M32,5.435C24.446,6.606 24.298,6.804 18.359,4.935C11.85,2.887 11.375,3.817 4,4.757C1.891,5.026 -0.023,6.74 0.255,9.01C0.82,13.63 1.877,15.783 1.255,21.019C8.148,21.033 11.324,18.728 16.816,20.241C20.44,21.239 22.849,22.463 26.208,22.344C29.459,22.228 33.77,21.126 37.051,21.014C37.403,15.518 36.487,10.434 36.301,9.019C36.029,6.947 34.301,5.078 32,5.435Z" style="fill:rgb(0,161,222);fill-rule:nonzero;"/>
                </g>
                <g transform="matrix(0.896117,3.24196e-17,-3.24196e-17,0.896117,222.704,233.585)">
                    <path d="M25.999,6.262C26.169,7.819 26.685,9.96 26.761,10.278C26.855,9.96 27.454,7.939 28.07,6.348C27.857,8.001 27.813,10.113 27.806,10.441C27.98,10.152 29.291,7.975 30.017,6.85C29.492,8.331 28.871,10.522 28.779,10.844C29.233,10.391 31.297,8.302 31.757,7.845C31.289,8.609 29.787,11.18 29.617,11.47C29.968,11.261 32.497,9.726 33.214,9.307C32.609,9.907 30.518,12.033 30.262,12.292C32.439,11.648 32.411,11.611 34.281,11.132C33.558,11.535 30.949,13.085 30.66,13.257C30.993,13.246 33.8,13.153 34.822,13.169C33.786,13.421 31.096,14.211 30.773,14.305C31.09,14.379 33.833,15.02 34.726,15.267C32.634,15.246 32.658,15.297 30.584,15.358C30.86,15.512 32.977,16.689 34.009,17.307C33.114,17.069 30.33,16.401 30.115,16.347C30.329,16.569 31.648,17.943 32.733,19.165C32.163,18.823 29.843,17.461 29.405,17.199C30.317,19.03 30.899,20.431 31.018,20.716C30.088,19.62 28.711,18.073 28.509,17.845C28.864,19.896 28.991,21.496 29.016,21.815C28.905,21.524 28.362,20.106 27.497,18.226C27.286,20.347 26.968,21.983 26.905,22.307C26.883,21.985 26.776,20.366 26.445,18.297C25.662,20.383 24.988,21.766 24.844,22.06C24.906,21.741 25.219,20.137 25.426,18.043C25.244,18.29 24.295,19.579 22.937,20.965C23.076,20.692 23.778,19.309 24.496,17.462C23.153,18.385 21.55,19.124 21.283,19.247C22.628,17.936 23.529,16.84 23.711,16.619C22.359,16.961 20.266,17.151 19.964,17.178C20.222,17.064 21.936,16.307 23.119,15.615C21.923,15.528 19.375,15.038 19.052,14.976C19.349,14.951 21.715,14.751 22.756,14.549C21.346,14.064 18.897,12.957 18.603,12.828C18.692,12.846 21.216,13.373 22.647,13.501C21.15,12.607 18.706,10.883 18.666,10.855C18.994,11.001 21.568,12.145 22.807,12.549C21.311,11.234 19.553,9.458 19.278,9.18C19.585,9.398 21.719,10.911 23.228,11.74C22.992,11.443 21.763,9.89 20.422,7.919C20.686,8.188 22.308,9.84 23.885,11.101C23.724,10.786 22.753,8.881 22.016,7.091C23.305,8.985 24.498,10.362 24.732,10.632C24.654,10.312 24.16,8.273 23.929,6.59C24.592,8.23 25.558,10.052 25.713,10.346C25.771,7.936 25.968,6.557 25.999,6.262Z" style="fill:rgb(250,210,1);fill-rule:nonzero;"/>
                </g>
                <g transform="matrix(0.896117,3.24196e-17,-3.24196e-17,0.896117,222.704,233.585)">
                    <path d="M26.233,10.284C28.618,10.128 30.533,11.732 30.754,13.775C30.995,16.015 29.108,18.156 26.971,18.301C24.505,18.469 22.869,15.928 22.67,14.017C22.401,11.439 24.591,10.392 26.233,10.284Z" style="fill:rgb(0,161,222);"/>
                </g>
                <g transform="matrix(0.896117,3.24196e-17,-3.24196e-17,0.896117,222.704,233.585)">
                    <path d="M26.345,11.281C28.068,11.169 29.566,12.341 29.736,13.935C29.915,15.612 28.552,17.188 26.932,17.298C25.138,17.419 23.842,15.732 23.681,14.206C23.494,12.428 24.876,11.377 26.345,11.281Z" style="fill:rgb(250,210,1);"/>
                </g>
            </g>
        </g>
    </g>
</svg>
