<?xml version="1.0" encoding="UTF-8" standalone="no"?>
<!DOCTYPE svg PUBLIC "-//W3C//DTD SVG 1.1//EN" "http://www.w3.org/Graphics/SVG/1.1/DTD/svg11.dtd">
<svg width="100%" height="100%" viewBox="0 0 512 512" version="1.1" xmlns="http://www.w3.org/2000/svg" xmlns:xlink="http://www.w3.org/1999/xlink" xml:space="preserve" xmlns:serif="http://www.serif.com/" style="fill-rule:evenodd;clip-rule:evenodd;stroke-linejoin:round;stroke-miterlimit:2;">
    <g transform="matrix(1.11593,-4.03717e-17,4.03717e-17,1.11593,-13.9687,-19.1113)">
        <g transform="matrix(11.1111,-1.36955e-31,4.93038e-32,11.1111,-2411.79,-2528.08)">
            <g>
                <g transform="matrix(0.896117,3.24196e-17,-3.24196e-17,0.896117,222.704,233.585)">
                    <path d="M32,5.435C25.474,6.447 24.402,6.872 19,5.141C19,9.376 19.866,13.277 19.912,18.16C16.044,16.917 14.561,16.42 10.635,16.942C7.462,17.364 5.386,18.138 1.448,18.098C1.43,21.06 0.711,24.283 0.333,26.993C0.033,29.147 1.724,31.049 4.002,30.751C11.374,29.786 11.848,28.83 18.359,30.934C21.72,32.019 23.309,32.985 32.068,31.737C34.174,31.437 36.262,29.289 36.469,27.17C37.446,17.169 37.37,17.149 36.301,9.019C36.029,6.947 34.301,5.078 32,5.435Z" style="fill:rgb(206,17,38);fill-rule:nonzero;"/>
                </g>
                <g transform="matrix(0.896117,3.24196e-17,-3.24196e-17,0.896117,222.704,233.585)">
                    <path d="M19,5.141C11.806,2.837 11.647,3.783 4,4.757C1.891,5.026 -0.023,6.74 0.255,9.01C0.717,12.789 1.468,14.816 1.448,18.098C5.841,18.143 7.652,17.208 11.988,16.792C15.05,16.498 17.294,17.318 19.912,18.16C19.866,13.285 19,9.376 19,5.141ZM9.101,5.575L9.417,4.475L9.781,5.489L10.884,5.379L10.02,6.121L10.427,7.147L9.495,6.592L8.656,7.368L8.922,6.259L8.001,5.735L9.101,5.575ZM6.891,10.972L5.936,10.463L5.17,11.242L5.343,10.145L4.378,9.616L5.459,9.462L5.667,8.355L6.126,9.359L7.203,9.184L6.416,9.977L6.891,10.972ZM11.428,16.301L10.355,15.62L9.349,16.599L9.687,15.215L8.593,14.572L9.872,14.356L10.14,12.96L10.67,14.241L11.979,14.102L10.972,15.028L11.428,16.301ZM12.53,12.041L11.942,11.672L11.436,12.105L11.579,11.449L10.992,11.097L11.669,11.042L11.814,10.38L12.089,11.018L12.777,10.997L12.259,11.41L12.53,12.041ZM14.66,9.717L13.762,9.009L12.981,9.587L13.211,8.601L12.317,7.988L13.355,7.995L13.599,7.02L13.996,8.047L15.033,8.206L14.246,8.684L14.66,9.717Z" style="fill:rgb(0,43,127);fill-rule:nonzero;"/>
                </g>
                <g transform="matrix(0.896117,3.24196e-17,-3.24196e-17,0.896117,222.704,233.585)">
                    <path d="M8.656,7.368L9.495,6.592L10.427,7.147L10.02,6.121L10.884,5.379L9.781,5.489L9.417,4.475L9.101,5.575L8.001,5.735L8.922,6.259L8.656,7.368ZM6.126,9.359L5.667,8.355L5.459,9.462L4.378,9.616L5.344,10.145L5.171,11.242L5.937,10.464L6.891,10.972L6.416,9.977L7.204,9.184L6.126,9.359ZM13.996,8.047L13.599,7.02L13.355,7.995L12.317,7.988L13.211,8.601L12.981,9.587L13.762,9.009L14.66,9.717L14.246,8.684L15.033,8.206L13.996,8.047ZM12.089,11.018L11.814,10.38L11.669,11.042L10.992,11.097L11.579,11.45L11.436,12.106L11.942,11.672L12.53,12.041L12.259,11.411L12.777,10.997L12.089,11.018ZM10.671,14.242L10.141,12.961L9.872,14.357L8.593,14.573L9.687,15.215L9.349,16.599L10.355,15.621L11.428,16.301L10.973,15.028L11.98,14.103L10.671,14.242Z" style="fill:white;fill-rule:nonzero;"/>
                </g>
            </g>
        </g>
    </g>
</svg>
