<?xml version="1.0" encoding="UTF-8" standalone="no"?>
<!DOCTYPE svg PUBLIC "-//W3C//DTD SVG 1.1//EN" "http://www.w3.org/Graphics/SVG/1.1/DTD/svg11.dtd">
<svg width="100%" height="100%" viewBox="0 0 512 512" version="1.1" xmlns="http://www.w3.org/2000/svg" xmlns:xlink="http://www.w3.org/1999/xlink" xml:space="preserve" xmlns:serif="http://www.serif.com/" style="fill-rule:evenodd;clip-rule:evenodd;stroke-linejoin:round;stroke-miterlimit:2;">
    <g transform="matrix(1.11593,-4.03717e-17,4.03717e-17,1.11593,-13.9687,-19.1113)">
        <g transform="matrix(11.1111,-1.36955e-31,4.93038e-32,11.1111,-2411.79,-2528.08)">
            <g>
                <g transform="matrix(0.896117,3.24196e-17,-3.24196e-17,0.896117,222.704,233.585)">
                    <path d="M32,5.435C24.446,6.606 24.298,6.804 18.359,4.935C11.85,2.887 11.375,3.817 4,4.757C1.891,5.026 -0.023,6.74 0.255,9.01C0.711,12.739 1.442,14.73 1.448,17.925C1.455,20.985 0.727,24.164 0.333,26.993C0.033,29.147 1.724,31.049 4.002,30.751C11.374,29.786 11.848,28.83 18.359,30.934C21.72,32.019 23.309,32.985 32.068,31.737C34.174,31.437 36.262,29.289 36.469,27.17C37.446,17.169 37.37,17.149 36.301,9.019C36.029,6.947 34.301,5.078 32,5.435Z" style="fill:rgb(0,108,53);fill-rule:nonzero;"/>
                </g>
                <g transform="matrix(0.896117,3.24196e-17,-3.24196e-17,0.896117,222.704,233.585)">
                    <path d="M9.674,13.055C10.191,13.032 9.896,11.875 10.015,11.736C10.045,11.632 10.125,11.639 10.142,11.746L10.247,12.678C10.276,12.998 10.594,13.094 10.639,13.108C10.784,13.078 10.907,13.081 10.979,13.226C10.998,13.36 11.1,14.072 11.185,14.895C11.566,14.967 11.506,13.995 11.501,13.912C11.486,13.611 11.309,12.734 11.349,12.658C11.339,12.527 11.513,12.537 11.59,12.571C11.6,12.577 11.843,12.814 12.091,12.74C12.154,12.718 12.686,12.53 12.659,12.131C12.647,12.063 12.568,11.607 12.404,11.305L12.324,11.073C12.375,11.141 12.506,11.194 12.524,11.067C12.505,11.02 12.364,10.672 12.139,10.566C11.963,10.43 11.781,10.541 11.744,10.742C11.737,11.169 12.096,11.573 12.147,11.632C12.213,11.759 12.282,11.925 12.27,12.076C12.161,12.145 12.04,12.115 11.949,12.033C11.831,11.958 11.631,11.915 11.617,11.776C11.639,11.392 11.665,11.403 11.518,11.059C11.466,10.863 11.396,10.849 11.274,10.674C11.206,10.614 11.092,10.597 11.046,10.694C10.953,10.902 11.047,11.432 11.172,11.655C11.222,11.765 11.452,11.968 11.332,11.978C11.296,12.123 11.184,12.028 11.138,11.951C10.997,11.629 10.946,11.152 10.939,11.081C10.923,11.011 10.768,10.328 10.639,10.24C10.542,10.133 10.402,10.191 10.365,10.322C10.393,10.74 10.442,10.947 10.454,11.001C10.573,11.3 10.737,11.975 10.758,12.061C10.802,12.387 10.493,12.332 10.478,12.061C10.511,11.739 10.426,11.191 10.359,11.085C10.305,10.978 10.233,10.932 10.115,10.968C10.031,10.972 9.804,11.295 9.789,11.74L9.757,12.19C9.75,12.466 9.56,12.446 9.466,12.199C9.103,11.352 9.098,11.273 9.057,11.337C9.065,11.483 9.142,13.013 9.674,13.055Z" style="fill:white;fill-rule:nonzero;"/>
                    <path d="M10.621,13.389C10.133,13.461 9.488,14.273 9.498,14.642C9.614,14.558 10.191,14.141 10.972,13.62C10.838,13.446 10.877,13.365 10.621,13.389Z" style="fill:white;fill-rule:nonzero;"/>
                    <path d="M13.52,15.23C13.693,14.556 13.447,13.828 13.536,13.831C13.81,14.113 14.195,13.921 14.285,13.812C14.332,13.744 14.427,13.759 14.477,13.814C14.707,13.996 15.092,13.957 15.148,13.717C15.196,13.265 15.181,12.965 15.177,12.899C15.068,12.914 14.876,12.902 14.866,13.012L14.847,13.244C14.835,13.344 14.68,13.27 14.67,13.202C14.585,12.907 14.298,12.81 14.163,13.273C14.071,13.344 13.856,13.371 13.821,13.221C13.824,12.925 13.682,12.858 13.447,12.997C13.257,12.082 13.25,12.097 13.042,11.18C13.163,11.177 13.26,11.248 13.34,11.137C13.303,11.049 12.922,10.137 12.781,10.086C12.714,10.014 12.672,10.057 12.587,10.079C12.417,10.139 12.359,10.301 12.404,10.466C12.734,11.715 13.01,12.862 13.06,13.071C13.091,13.176 13.018,13.335 12.89,13.322C12.754,13.237 12.568,12.905 12.255,12.933C12.008,12.95 11.747,13.286 11.736,13.528C11.694,13.922 11.767,14.118 11.785,14.166C11.996,14.393 12.314,14.286 12.358,14.271C12.47,14.215 12.568,14.002 12.674,14.069C12.708,14.107 12.711,14.62 12.025,15.073C11.958,15.11 11.318,15.473 11.072,15.049C11.002,14.928 10.974,13.963 10.744,14.176C10.093,16.591 12.858,16.404 13.007,14.086C13.031,13.987 13.147,13.893 13.176,14.045C13.249,16.193 11.128,16.572 10.767,15.932C10.667,15.763 10.619,15.252 10.613,15.192C10.591,15.067 10.557,15.094 10.464,14.932C10.391,15.173 10.33,15.142 10.323,15.4C10.297,15.694 10.312,15.673 10.322,15.947C10.493,17.681 13.161,16.562 13.52,15.23ZM12.375,13.734C12.356,13.78 12.277,13.76 12.227,13.763C12.162,13.764 12.132,13.755 12.089,13.704C12.067,13.645 12.117,13.583 12.137,13.537C12.189,13.425 12.348,13.474 12.39,13.562C12.413,13.614 12.412,13.687 12.375,13.734Z" style="fill:white;fill-rule:nonzero;"/>
                    <path d="M14.146,11.788C14.295,11.748 14.991,11.008 15.06,10.935L14.925,10.814C14.886,10.778 14.867,10.736 14.913,10.696C15.12,10.606 15,10.322 14.898,10.205C14.765,10.127 14.601,10.083 14.451,10.142C14.312,10.268 14.318,10.488 14.434,10.626C14.478,10.651 14.697,10.798 14.603,10.868C14.506,10.966 13.461,11.731 13.535,11.749C13.549,11.764 14.138,11.802 14.146,11.788ZM14.623,10.403C14.692,10.396 14.763,10.483 14.787,10.529C14.804,10.562 14.837,10.665 14.764,10.672L14.762,10.672C14.695,10.678 14.623,10.592 14.599,10.546C14.582,10.513 14.551,10.41 14.623,10.403ZM9.862,16.313C9.795,16.483 9.69,16.466 9.671,16.275C9.665,16.213 9.637,15.933 9.674,15.487C9.682,15.396 9.65,15.358 9.606,15.433C9.362,15.946 9.355,16.732 9.503,16.909C9.583,16.995 9.721,17.025 9.827,16.972C9.989,16.871 10.076,16.446 10.032,16.317C9.976,16.237 9.917,16.222 9.862,16.313ZM19.568,12.224C20.149,13.057 20.665,13.858 20.758,14.002C20.92,14.679 20.992,15.204 21.007,15.31C21.196,16.665 21.161,17.645 21.153,17.848C21.284,17.893 21.549,17.719 21.62,17.378C21.648,17.019 21.621,17.027 21.504,15.662L21.435,15.093C22.184,16.352 22.637,17.28 22.732,17.475C22.858,17.445 22.796,16.659 22.713,16.539C22.644,16.395 22.64,16.416 21.743,14.795L21.262,14.039L21.106,13.319C21.092,13.262 21.064,13.109 21.114,13.141C21.19,13.191 21.263,13.294 21.231,13.16C21.128,12.784 20.575,11.974 20.509,11.876C20.424,11.752 20.39,11.713 20.283,11.838C20.24,11.947 20.239,12.054 20.254,12.167L20.093,11.939L19.59,11.407C19.554,11.373 19.219,11.063 19.195,11.294C19.193,11.476 19.215,11.582 19.266,11.755C19.288,11.822 19.542,12.187 19.568,12.224ZM20.317,12.435L20.396,12.702L20.42,12.787L20.269,12.575C20.194,12.477 20.188,12.406 20.317,12.435Z" style="fill:white;fill-rule:nonzero;"/>
                    <path d="M22.854,17.7C22.145,18.293 21.583,18.34 21.461,18.35C21.401,18.399 21.643,18.753 21.882,18.819C22.528,18.923 22.887,18.475 23.078,18.158C23.111,18.111 23.335,17.798 23.326,17.478C23.286,15.501 22.825,13.985 22.735,13.692C22.73,13.669 22.694,13.484 22.719,13.435C22.792,13.353 22.836,13.48 22.89,13.388C22.943,13.339 22.628,12.663 22.417,12.347C22.353,12.234 22.311,12.17 22.249,12.322C22.111,12.557 22.164,12.931 22.172,12.984C22.63,14.822 22.916,17.106 22.942,17.293C22.956,17.409 22.97,17.624 22.854,17.7ZM28.463,14.096C28.431,13.973 28.327,13.84 28.378,13.723C28.402,13.631 28.557,13.705 28.598,13.617C28.641,13.561 28.604,13.566 27.954,12.779C27.876,12.666 27.827,12.684 27.784,12.812C27.654,13.091 27.757,13.468 27.772,13.523C27.774,13.53 28.438,15.853 28.556,17.675C28.536,17.85 28.532,17.905 28.48,18.062C28.448,18.108 28.154,18.533 28.051,18.622L27.497,18.967C27.368,19.054 27.074,19.399 27.441,19.377C27.49,19.367 28.366,19.281 28.776,18.594C28.863,18.444 28.977,17.983 28.974,17.744C28.969,17.449 28.944,15.58 28.463,14.096ZM25.204,15.561L25.18,14.916C25.179,14.868 25.18,14.782 25.245,14.765C25.3,14.751 25.419,14.818 25.414,14.762C25.394,14.656 25.349,14.443 25.261,14.345C25.13,14.177 24.88,14.256 24.861,14.456L24.915,14.669C24.902,14.75 24.789,14.702 24.75,14.682L24.665,14.538C24.578,14.482 24.474,14.52 24.396,14.566C24.348,14.669 24.361,14.796 24.405,14.897C24.545,15.132 25.016,15.552 25.204,15.561Z" style="fill:white;fill-rule:nonzero;"/>
                    <path d="M24.888,13.805L25.899,14.907C26.098,16.047 26.064,16.039 26.219,17.236C26.23,17.644 26.09,17.917 26.03,17.944C25.956,17.99 25.834,17.998 25.77,17.94C25.692,17.909 25.398,17.475 25.369,17.432C25.248,17.323 25.127,17.303 25.001,17.417C24.925,17.49 24.994,17.515 24.394,18.586C24.295,18.735 24.106,18.625 24.019,18.53C23.615,17.937 23.768,17.199 23.748,17.298C23.406,17.642 23.567,18.379 23.665,18.562C23.682,18.597 23.836,18.972 24.144,19.17C24.293,19.299 24.491,19.335 24.633,19.175C24.814,19.003 24.887,18.329 24.945,18.264C24.997,18.098 25.173,18.075 25.29,18.199C25.378,18.323 25.48,18.406 25.613,18.478C25.957,18.776 26.267,18.547 26.312,18.513C26.567,18.359 26.659,18.077 26.673,18.041C26.787,17.7 26.579,15.82 26.557,15.628L27.067,16.216C27.255,17.296 27.253,18.052 27.252,18.212C27.24,18.356 27.712,17.735 27.698,17.514L27.67,16.947C28.101,17.502 28.349,17.89 28.403,17.975C28.529,17.894 28.452,17.128 28.369,17.043C28.149,16.731 27.556,16.057 27.483,15.974L27.432,15.857C27.409,15.814 27.465,15.819 27.305,15.26C27.248,15.058 27.23,14.848 27.187,14.643C27.172,14.572 27.153,14.502 27.128,14.434L27.022,13.966C27.041,13.886 27.156,13.943 27.189,13.867C27.245,13.793 26.825,12.957 26.631,12.729C26.529,12.584 26.392,12.769 26.339,12.853C26.227,12.979 26.368,13.439 26.383,13.488C26.66,14.379 26.834,15.108 26.868,15.25L26.251,14.563L26.238,14.519L26.117,13.87C26.11,13.831 26.09,13.806 26.147,13.81L26.252,13.871C26.34,13.882 26.326,13.737 26.305,13.694L25.674,12.759C25.607,12.701 25.555,12.701 25.515,12.774C25.439,12.848 25.406,12.956 25.42,13.059L25.569,13.742L25.605,13.865L25.533,13.792C25.384,13.653 25.274,13.592 25.467,13.528C25.548,13.501 25.409,13.369 25.4,13.359C25.113,13.081 25.139,13.079 24.819,12.845C24.708,12.775 24.628,12.665 24.621,12.86L24.673,13.436C24.685,13.545 24.824,13.734 24.888,13.805ZM15.965,12.618C16.025,12.654 16.299,12.819 16.408,11.86C16.442,11.784 16.507,11.709 16.562,11.815C16.586,12.097 16.605,12.557 16.892,12.925C17.283,13.298 17.62,13.192 17.667,13.16L17.957,12.951C18.042,12.883 18.159,12.965 18.221,13.02C18.294,13.1 18.328,13.21 18.394,13.296C18.436,13.353 18.488,13.403 18.544,13.447C18.721,13.568 19.104,13.627 19.169,13.521L19.336,13.251C19.384,13.198 19.552,13.216 19.56,13.298C19.544,13.42 19.489,13.413 19.542,13.514C19.621,13.59 19.613,13.576 19.725,13.582C19.985,13.542 20.118,12.869 20.035,13.161C20.031,13.073 19.984,12.972 19.878,12.999L19.725,13.057C19.567,13.03 19.416,13.013 19.323,12.865C19.296,12.816 19.358,12.797 19.085,12.207C19.074,12.106 18.944,11.887 19.044,11.906C19.067,11.917 19.241,12.022 19.252,11.911C19.327,11.789 18.951,11.309 18.915,11.263C18.811,11.132 18.634,11.013 18.465,11.107C18.365,11.172 18.39,11.291 18.379,11.395C18.356,11.567 18.434,11.733 18.532,11.87C18.571,11.942 18.896,12.553 18.873,12.841C18.813,12.928 18.656,12.939 18.558,12.897C18.325,12.776 18.208,12.263 18.194,12.202C18.122,11.888 18.1,11.565 18.039,11.248C18.018,11.137 17.963,10.986 17.898,10.884C17.831,10.732 17.749,10.534 17.625,10.76C17.61,10.806 17.435,10.987 17.596,11.356C17.813,11.771 17.799,12.272 17.797,12.353L17.631,12.557C17.505,12.66 17.344,12.572 17.234,12.492C17.093,12.368 17.015,12.271 16.963,12.096C16.957,12.009 16.897,11.158 16.82,11.02C16.758,10.905 16.621,10.781 16.484,10.868C16.14,11.109 16.018,11.828 16.003,11.919C15.956,12.111 15.858,12.126 15.752,11.95C15.692,11.889 15.37,10.62 15.259,10.716C15.029,11.535 15.618,12.633 15.965,12.618Z" style="fill:white;fill-rule:nonzero;"/>
                    <path d="M20.984,16.036L20.883,15.951C19.915,15.651 19.932,15.646 18.963,15.33C18.89,15.281 18.872,15.24 18.957,15.235C19.056,15.254 20.224,15.556 20.217,14.702C20.153,14.067 19.631,13.825 19.48,13.755C19.129,13.668 18.885,13.927 18.957,14.323C18.947,14.426 19.012,14.64 18.909,14.629C18.165,14.456 17.47,14.701 17.464,14.974C17.377,15.01 17.325,14.797 17.326,14.75C17.227,13.852 16.798,13.137 16.723,13.01C16.596,12.867 16.606,12.806 16.418,12.891C16.311,12.991 16.329,13.114 16.344,13.257L16.737,14.186C16.767,14.276 16.988,14.948 16.932,15.362C16.621,16.016 15.922,16.255 15.811,16.292C15.677,16.308 15.425,16.315 15.326,16.197C15.308,16.182 15.12,15.906 15.191,15.898C15.265,15.858 15.992,15.589 16.307,14.935C16.425,14.597 16.356,14.325 16.286,14.081C16.203,13.804 16.083,13.666 16.057,13.635C16.129,13.604 16.299,13.801 16.325,13.712C16.271,13.506 16.088,13.175 15.941,13.023C15.84,12.917 15.671,12.804 15.528,12.912C15.436,12.946 15.366,13.178 15.471,13.492C15.639,13.868 15.771,13.773 15.937,14.165C15.94,14.222 16.006,14.455 15.938,14.543C15.916,14.62 15.294,15.099 15.105,15.194C15.079,15.223 15.087,15.117 15.084,15.078L15.097,14.669C14.943,14.746 14.773,15.355 14.755,15.419C14.724,15.437 13.461,16.057 13.039,16.547C12.969,16.664 13.121,16.653 14.699,16.143C14.796,16.223 14.785,16.385 14.864,16.483C15.037,16.733 15.465,16.951 15.791,16.936C16.534,16.819 17.018,16.246 17.106,16.154C17.162,16.084 17.248,16.071 17.312,16.136C17.56,16.709 18.285,17.359 19.248,17.711C19.393,17.582 19.409,17.413 19.264,17.278C19.262,17.218 18.998,17.467 18.721,16.754C18.669,16.569 18.814,16.471 18.976,16.44C19.115,16.468 20.14,16.676 20.727,16.673C20.725,16.521 20.831,16.221 20.89,16.138C20.908,16.11 20.993,16.066 20.984,16.036ZM19.324,14.361C19.365,14.299 19.479,14.387 19.536,14.436C19.544,14.442 19.704,14.584 19.659,14.648C19.619,14.712 19.503,14.623 19.446,14.574C19.434,14.564 19.282,14.427 19.324,14.361ZM18.671,16.02C18.449,16.024 18.275,16.053 18.285,16.31C18.329,16.515 18.251,16.596 18.081,16.457C18.019,16.396 17.583,15.964 17.515,15.526C17.5,15.394 17.619,15.354 17.727,15.386C17.73,15.387 17.727,15.386 18.533,15.722C18.612,15.751 18.939,16.013 18.671,16.02ZM11.3,10.574C11.525,10.661 11.92,10.578 11.87,10.246L11.843,10.085C11.79,9.986 11.671,10.023 11.655,10.125C11.654,10.13 11.676,10.216 11.65,10.234C11.601,10.292 11.558,10.158 11.558,10.151L11.514,10.071L11.466,10.062C11.436,10.065 11.436,10.075 11.424,10.1L11.416,10.181C11.415,10.21 11.407,10.227 11.379,10.236L11.335,10.227L11.299,10.184L11.277,10.099L11.222,10.074C11.124,10.082 11.105,10.191 11.124,10.27C11.048,10.345 11.234,10.553 11.3,10.574Z" style="fill:white;fill-rule:nonzero;"/>
                    <path d="M18.197,13.685L18.153,13.591L18.105,13.564C18.074,13.555 18.076,13.563 18.061,13.584L18.05,13.659C18.05,13.688 18.041,13.701 18.011,13.697L17.965,13.672L17.929,13.617L17.908,13.526L17.851,13.482C17.751,13.451 17.73,13.554 17.745,13.631C17.666,13.699 17.869,13.959 17.92,13.995C18.171,14.182 18.658,14.241 18.515,13.898L18.49,13.731C18.46,13.665 18.322,13.567 18.297,13.698C18.291,13.732 18.323,13.793 18.289,13.801C18.252,13.834 18.2,13.734 18.197,13.685ZM21.596,14.061C21.851,14.244 22.23,14.256 22.181,13.933L22.152,13.767C22.118,13.697 21.983,13.618 21.962,13.747C21.956,13.781 21.989,13.841 21.956,13.851C21.903,13.894 21.861,13.741 21.861,13.74L21.816,13.648L21.766,13.623C21.736,13.617 21.738,13.623 21.723,13.645L21.714,13.721C21.714,13.749 21.706,13.763 21.677,13.761L21.63,13.738L21.595,13.683L21.572,13.593L21.514,13.55C21.413,13.522 21.395,13.626 21.412,13.702C21.347,13.788 21.532,14.019 21.596,14.061ZM21.601,12.751C21.65,12.866 21.578,13.151 21.673,13.209C21.792,13.291 21.838,12.839 21.84,12.806C21.863,12.635 21.657,12.182 21.475,12.064C21.357,12.006 21.196,12.04 21.263,12.2C21.249,12.25 21.374,12.17 21.601,12.751ZM24.009,18.258C24.113,18.274 24.313,18.035 24.387,17.62C24.395,17.439 24.384,17.451 24.291,16.575C24.25,16.198 23.782,14.168 23.683,13.915C23.627,13.719 23.961,13.857 23.907,13.665C23.615,13.105 23.52,13.175 23.25,12.616C23.178,12.5 23.157,12.452 23.077,12.558C23.062,12.634 22.96,13.143 23.07,13.524C23.295,14.291 24.017,16.493 24.009,18.258ZM27.476,13.911C27.533,14.037 27.416,14.358 27.549,14.401C27.678,14.455 27.692,13.923 27.694,13.88C27.698,13.725 27.508,13.243 27.347,13.182C27.201,13.157 27.105,13.289 27.159,13.419C27.151,13.462 27.457,13.861 27.476,13.911ZM14.466,15.118C14.581,15.176 14.621,14.899 14.638,14.771C14.652,14.667 14.508,14.282 14.356,14.21C14.244,14.176 14.115,14.212 14.162,14.352C14.162,14.506 14.407,14.579 14.429,14.753C14.474,14.852 14.358,15.071 14.466,15.118ZM9.606,10.745C9.665,10.855 9.563,11.083 9.684,11.11C9.819,11.151 9.813,10.851 9.82,10.711C9.83,10.53 9.704,10.227 9.519,10.196C9.412,10.186 9.287,10.27 9.344,10.387C9.309,10.531 9.546,10.61 9.606,10.745ZM14.571,11.737C14.395,11.81 14.352,12.124 14.474,12.293C14.573,12.424 14.659,12.412 14.796,12.432C14.851,12.446 14.907,12.428 14.945,12.386C15.007,12.318 15.089,12.048 15.068,12.138C15.066,12.065 14.915,12.15 14.857,12.194C14.772,12.197 14.755,12.173 14.721,12.106C14.694,12.014 14.687,11.917 14.725,11.826C14.754,11.721 14.642,11.703 14.571,11.737ZM15.918,10.868C15.988,10.831 16.006,10.801 16.02,10.722C16.033,10.607 15.861,10.712 15.831,10.587C15.778,10.436 15.889,10.392 15.987,10.273C15.981,10.168 15.954,10.109 15.842,10.152C15.687,10.225 15.581,10.406 15.593,10.576C15.6,10.704 15.575,10.697 15.669,10.797C15.735,10.892 15.802,10.902 15.918,10.868ZM17.241,11.29C17.255,11.245 17.325,11.018 17.313,10.71C17.264,10.524 17.108,10.435 17.031,10.659C17.015,10.697 16.993,11.2 17.004,11.203C16.984,11.341 17.181,11.436 17.241,11.29ZM25.75,15.555L24.779,16.269C24.702,16.334 24.765,16.659 24.803,16.634C24.888,16.672 25.84,16.001 25.813,15.919C25.873,15.921 25.853,15.516 25.75,15.555ZM25.755,17.494C25.819,17.527 25.99,17.288 25.969,17.032C25.984,16.863 25.844,16.36 25.694,16.289C25.545,16.25 25.464,16.4 25.508,16.523C25.498,16.567 25.548,16.55 25.703,17.045C25.756,17.186 25.616,17.436 25.755,17.494ZM20.051,17.849C20.052,17.914 20.204,17.942 20.24,17.933C20.657,17.907 20.648,17.89 20.884,17.911C20.983,17.94 20.9,17.706 20.828,17.679C20.669,17.638 20.51,17.601 20.357,17.673C20.268,17.665 20.247,17.618 20.216,17.538C20.194,17.427 20.266,17.332 20.245,17.224C20.29,17.281 20.121,17.116 20.05,17.129C20.008,17.116 19.794,17.246 19.762,17.284C19.711,17.306 19.73,17.353 19.739,17.392C19.772,17.472 19.823,17.478 19.901,17.461C19.996,17.479 20.034,17.564 20.03,17.653C19.998,17.749 20.049,17.733 20.051,17.849ZM26.678,19.134C26.636,19.208 26.64,19.284 26.726,19.302C26.886,19.337 27.35,19.041 27.35,19.023C27.391,18.988 27.442,18.862 27.389,18.867C27.347,18.823 27.221,18.857 27.192,18.856C27.116,18.861 27.078,18.821 27.109,18.76L27.185,18.603C27.218,18.522 27.159,18.487 27.079,18.467C26.969,18.455 26.928,18.468 26.808,18.485C26.737,18.505 26.721,18.541 26.712,18.611C26.719,18.725 26.775,18.711 26.866,18.762C26.927,18.834 26.925,18.882 26.867,18.957L26.678,19.134ZM26.221,24.328C25.333,24.362 24.837,24.329 24.717,24.322L24.772,23.823C24.8,23.553 24.561,23.311 24.318,23.284C24.075,23.257 23.794,23.441 23.765,23.711L23.709,24.209C19.459,23.556 16.744,21.363 11.577,21.767C11.501,22.406 14.206,22.763 14.448,22.795C17.228,23.162 20.834,24.784 23.593,25.208L23.533,25.707C23.502,25.97 23.715,26.245 23.978,26.274C24.257,26.306 24.513,26.057 24.541,25.819L24.601,25.32L25.605,25.342L25.546,25.842C25.515,26.105 25.727,26.341 25.991,26.335C26.245,26.328 26.525,26.071 26.555,25.815L26.669,24.808C26.699,24.539 26.49,24.317 26.221,24.328Z" style="fill:white;fill-rule:nonzero;"/>
                </g>
            </g>
        </g>
    </g>
</svg>
