<?xml version="1.0" encoding="UTF-8" standalone="no"?>
<!DOCTYPE svg PUBLIC "-//W3C//DTD SVG 1.1//EN" "http://www.w3.org/Graphics/SVG/1.1/DTD/svg11.dtd">
<svg width="100%" height="100%" viewBox="0 0 512 512" version="1.1" xmlns="http://www.w3.org/2000/svg" xmlns:xlink="http://www.w3.org/1999/xlink" xml:space="preserve" xmlns:serif="http://www.serif.com/" style="fill-rule:evenodd;clip-rule:evenodd;stroke-linejoin:round;stroke-miterlimit:2;">
    <g transform="matrix(1.11593,-4.03717e-17,4.03717e-17,1.11593,-13.9687,-19.1113)">
        <g transform="matrix(11.1111,-1.36955e-31,4.93038e-32,11.1111,-2411.79,-2528.08)">
            <g>
                <g transform="matrix(0.896117,3.24196e-17,-3.24196e-17,0.896117,222.704,233.585)">
                    <path d="M32,5.435C24.446,6.606 24.298,6.804 18.359,4.935C11.85,2.887 11.375,3.817 4,4.757C1.891,5.026 -0.023,6.74 0.255,9.01C0.711,12.739 1.442,14.73 1.448,17.925C1.455,20.985 0.727,24.164 0.333,26.993C0.033,29.147 1.724,31.049 4.002,30.751C11.374,29.786 11.848,28.83 18.359,30.934C21.72,32.019 23.309,32.985 32.068,31.737C34.174,31.437 36.262,29.289 36.469,27.17C37.446,17.169 37.37,17.149 36.301,9.019C36.029,6.947 34.301,5.078 32,5.435Z" style="fill:rgb(238,238,238);fill-rule:nonzero;"/>
                </g>
                <g transform="matrix(0.896117,3.24196e-17,-3.24196e-17,0.896117,222.704,233.585)">
                    <path d="M13.825,16.731C11.284,14.803 6.092,12.097 5.397,11.734C1.696,9.805 0.226,8.773 0.242,8.904C0.694,12.68 1.442,14.703 1.448,17.923C1.455,21.012 0.712,24.232 0.318,27.098C0.174,28.152 12.658,17.542 13.825,16.731ZM18.811,20.834C15.272,22.059 13.697,22.744 10.051,25.622C8.178,27.101 3.904,30.764 4.071,30.742C11.424,29.767 11.908,28.849 18.357,30.933C21.721,32.02 23.305,32.979 31.997,31.747C32.255,31.711 27.984,29.222 25.475,27.342C23.091,25.555 21.186,23.324 18.811,20.834ZM23.977,19.223C27.134,21.966 36.456,27.304 36.459,27.273C37.455,17.106 37.347,17.077 36.287,8.913C36.203,8.265 28.148,16.842 23.977,19.223ZM18.769,14.817C15.169,11.355 13.463,10.12 9.501,7.863C8.851,7.493 3.818,4.781 4.07,4.748C11.426,3.799 11.909,2.905 18.356,4.935C24.217,6.779 24.398,6.62 31.929,5.446C32.064,5.425 27.88,9.337 25.931,10.93C23.229,13.14 21.831,13.637 18.769,14.817Z" style="fill:rgb(0,101,189);fill-rule:nonzero;"/>
                </g>
            </g>
        </g>
    </g>
</svg>
