<?xml version="1.0" encoding="UTF-8" standalone="no"?>
<!DOCTYPE svg PUBLIC "-//W3C//DTD SVG 1.1//EN" "http://www.w3.org/Graphics/SVG/1.1/DTD/svg11.dtd">
<svg width="100%" height="100%" viewBox="0 0 512 512" version="1.1" xmlns="http://www.w3.org/2000/svg" xmlns:xlink="http://www.w3.org/1999/xlink" xml:space="preserve" xmlns:serif="http://www.serif.com/" style="fill-rule:evenodd;clip-rule:evenodd;stroke-linejoin:round;stroke-miterlimit:2;">
    <g transform="matrix(1.11593,-4.03717e-17,4.03717e-17,1.11593,-13.9687,-19.1113)">
        <g transform="matrix(11.1111,-1.36955e-31,4.93038e-32,11.1111,-2411.79,-2528.08)">
            <g>
                <g transform="matrix(0.896117,3.24196e-17,-3.24196e-17,0.896117,222.704,233.585)">
                    <path d="M0.892,13.007C7.861,13.012 11.153,10.75 16.609,12.24C20.252,13.235 22.595,14.436 25.998,14.323C29.257,14.214 33.556,13.122 36.841,13.017C37.389,17.917 36.948,22.27 36.867,23.071C28.569,23.373 28.381,25.915 19.168,22.99C10.375,20.199 10.185,22.994 0.971,22.997C1.792,17.917 1.408,15.774 0.892,13.007Z" style="fill:rgb(12,64,118);fill-rule:nonzero;"/>
                </g>
                <g transform="matrix(0.896117,3.24196e-17,-3.24196e-17,0.896117,222.704,233.585)">
                    <path d="M0.333,26.993C0.033,29.147 1.724,31.049 4.002,30.751C11.374,29.786 11.848,28.83 18.359,30.934C21.72,32.019 23.309,32.985 32.068,31.737C34.174,31.437 36.262,29.289 36.469,27.17C36.492,26.94 36.763,24.092 36.867,23.071C28.569,23.373 28.381,25.915 19.168,22.99C10.375,20.199 10.185,22.994 0.971,22.997C0.429,26.349 0.424,26.338 0.333,26.993Z" style="fill:rgb(238,238,238);fill-rule:nonzero;"/>
                </g>
                <g transform="matrix(0.896117,3.24196e-17,-3.24196e-17,0.896117,222.704,233.585)">
                    <path d="M36.301,9.019C36.029,6.947 34.301,5.078 32,5.435C24.446,6.606 24.298,6.804 18.359,4.935C11.85,2.887 11.375,3.817 4,4.757C1.891,5.026 -0.023,6.74 0.255,9.01C0.459,10.68 0.833,12.689 0.892,13.007C7.861,13.012 11.153,10.75 16.609,12.24C20.252,13.235 22.595,14.436 25.998,14.323C29.257,14.214 33.556,13.122 36.841,13.017C36.741,12.123 36.335,9.279 36.301,9.019ZM7.73,12.312C7.901,13.519 8.52,17.073 7.846,21.792C7.419,24.783 9.361,26.723 12.597,26.701C13.197,26.697 18.187,26.663 18.679,22.316C19.136,18.273 18.72,14.036 18.603,12.828C14.624,11.566 13.076,11.41 7.73,12.312Z" style="fill:rgb(198,54,60);fill-rule:nonzero;"/>
                </g>
                <g transform="matrix(0.896117,3.24196e-17,-3.24196e-17,0.896117,222.704,233.585)">
                    <path d="M12.548,5.78C9.191,5.801 7.414,7.851 7.901,8.579C8.271,9.133 9.307,10.466 9.432,10.628C9.145,10.794 9.488,11.32 9.52,11.371C9.866,11.902 11.639,11.298 12.998,11.291C14.742,11.284 16.287,12.114 16.537,11.59C16.794,11.053 16.413,10.814 16.464,10.846C16.555,10.699 17.315,9.477 17.57,8.986C17.897,8.356 15.737,5.761 12.548,5.78ZM9.35,9.052C9.045,9.195 9.515,10.169 9.314,9.647C9.283,9.566 8.866,9.178 8.894,9.435C8.916,9.631 8.769,9.204 8.768,9.135C8.763,8.728 8.492,8.455 8.443,8.4C8.106,8.015 8.388,7.765 8.428,7.729C8.65,7.533 9.085,7.363 9.146,7.339C9.173,7.426 9.412,8.196 9.55,8.404C9.588,8.461 9.634,8.513 9.686,8.558C9.748,8.614 9.89,8.705 9.89,8.705C9.857,8.773 9.85,8.89 9.913,8.932C10.005,8.994 10.204,9.267 10.14,9.176C10.013,9.092 9.812,8.884 9.719,9.004C9.659,9.08 9.809,9.16 9.806,9.248C9.799,9.413 9.499,8.982 9.35,9.052ZM12.514,8.807C12.435,8.895 12.3,8.704 12.2,8.64C12.108,8.583 11.93,8.558 11.987,8.728C12.031,8.858 11.813,8.886 11.827,9.036C11.834,9.111 11.563,9.133 11.635,9.156C11.649,9.104 11.822,8.479 11.404,8.522C11.176,8.545 11.3,9.041 11.466,9.198C11.365,9.068 11.153,9.082 11.017,8.995C10.915,8.93 10.977,8.677 10.889,8.72C10.751,8.787 10.731,8.98 10.593,9.049C10.504,9.094 10.537,8.846 10.564,8.75C10.587,8.671 10.396,8.486 10.471,8.521C10.471,8.453 10.506,8.381 10.558,8.337C10.67,8.245 10.628,8.119 10.532,8.037C10.372,7.902 9.906,7.229 10.013,7.007C10.307,6.406 11.744,6.384 11.903,6.382C12.156,7.297 11.954,7.914 11.895,8.017C12.024,8.092 12.161,8.165 12.263,8.274C12.074,8.362 12.274,8.469 12.364,8.541C12.413,8.58 12.605,8.705 12.514,8.807ZM14.944,8.825C14.986,8.916 15.06,9.171 14.972,9.124C14.916,9.094 14.668,8.797 14.615,8.769C14.51,8.715 14.645,8.967 14.538,9.037C14.418,9.117 14.207,9.09 14.128,9.216C14.274,9.056 14.287,8.573 14.067,8.54C13.638,8.475 13.932,9.121 13.953,9.167C13.873,9.191 13.747,9.122 13.739,9.04C13.726,8.894 13.502,8.868 13.524,8.728C13.549,8.569 13.394,8.569 13.298,8.637C13.28,8.65 13.113,8.894 13.016,8.804C12.917,8.712 13.052,8.599 13.117,8.538C13.211,8.452 13.36,8.353 13.173,8.272C13.255,8.163 13.61,7.947 13.495,8.019C13.389,7.872 13.12,7.225 13.252,6.381C14.326,6.414 15.017,6.801 15.206,7.123C15.347,7.36 14.985,7.991 14.85,8.11C14.745,8.203 14.773,8.327 14.876,8.41C14.935,8.457 15.009,8.677 14.996,8.602C14.925,8.631 14.913,8.756 14.944,8.825ZM16.995,8.723C16.917,8.823 16.743,9.042 16.815,9.421C16.828,9.488 16.772,9.921 16.751,9.708C16.724,9.435 16.396,9.74 16.373,9.866C16.28,10.373 16.546,9.441 16.216,9.259C15.974,9.126 15.683,9.806 15.769,9.733C15.837,9.676 15.898,9.234 15.838,9.166C15.749,9.063 15.336,9.369 15.45,9.294C15.496,9.211 15.55,9.124 15.629,9.072C15.693,9.03 15.568,8.78 15.609,8.844C15.726,8.79 15.833,8.694 15.892,8.579C15.976,8.416 16.101,7.638 16.114,7.555C16.18,7.587 16.63,7.81 16.89,8.047C17.26,8.383 17.029,8.68 16.995,8.723Z" style="fill:rgb(237,185,46);fill-rule:nonzero;"/>
                </g>
                <g transform="matrix(0.896117,3.24196e-17,-3.24196e-17,0.896117,222.704,233.585)">
                    <path d="M12.667,5.962C12.672,6.061 12.594,6.145 12.495,6.146C12.396,6.147 12.309,6.065 12.304,5.966C12.262,5.125 12.253,4.5 12.252,4.373C12.251,4.274 12.332,4.19 12.43,4.189C12.529,4.188 12.611,4.271 12.613,4.369C12.614,4.496 12.623,5.12 12.667,5.962Z" style="fill:rgb(255,172,51);fill-rule:nonzero;"/>
                </g>
                <g transform="matrix(0.896117,3.24196e-17,-3.24196e-17,0.896117,222.704,233.585)">
                    <path d="M12.981,4.799C12.983,4.889 12.911,4.962 12.822,4.96L12.038,4.968C11.948,4.971 11.872,4.899 11.87,4.809C11.868,4.718 11.94,4.641 12.031,4.638L12.813,4.63C12.904,4.631 12.979,4.709 12.981,4.799Z" style="fill:rgb(237,185,46);fill-rule:nonzero;"/>
                </g>
                <g transform="matrix(0.896117,3.24196e-17,-3.24196e-17,0.896117,222.704,233.585)">
                    <path d="M13.064,5.787C13.08,6.117 12.82,6.388 12.494,6.391C12.166,6.395 11.872,6.125 11.856,5.797C11.841,5.466 12.11,5.176 12.436,5.172C12.769,5.169 13.049,5.462 13.064,5.787ZM10.126,11.223C10.146,11.404 9.94,11.513 9.792,11.532C9.645,11.552 9.419,11.502 9.397,11.321C9.375,11.14 9.582,11.028 9.73,11.009C9.878,10.989 10.105,11.042 10.126,11.223Z" style="fill:rgb(12,64,118);fill-rule:nonzero;"/>
                </g>
                <g transform="matrix(0.896117,3.24196e-17,-3.24196e-17,0.896117,222.704,233.585)">
                    <path d="M11.599,10.988C11.617,11.171 11.402,11.267 11.255,11.279C11.106,11.292 10.878,11.233 10.858,11.051C10.839,10.868 11.052,10.768 11.201,10.755C11.35,10.743 11.58,10.806 11.599,10.988ZM14.975,11.099C14.993,11.288 14.751,11.321 14.619,11.303C14.385,11.271 14.223,11.099 14.214,10.995C14.196,10.806 14.432,10.76 14.569,10.779C14.79,10.809 14.964,10.988 14.975,11.099Z" style="fill:rgb(198,54,60);fill-rule:nonzero;"/>
                </g>
                <g transform="matrix(0.896117,3.24196e-17,-3.24196e-17,0.896117,222.704,233.585)">
                    <path d="M16.563,11.532C16.582,11.726 16.329,11.728 16.206,11.699C15.974,11.642 15.808,11.453 15.798,11.347C15.779,11.154 16.029,11.143 16.155,11.174C16.38,11.228 16.553,11.422 16.563,11.532ZM13.273,10.919C13.29,11.104 13.061,11.179 12.918,11.18C12.766,11.181 12.533,11.109 12.515,10.925C12.497,10.739 12.723,10.658 12.869,10.657C13.023,10.656 13.255,10.734 13.273,10.919Z" style="fill:rgb(12,64,118);fill-rule:nonzero;"/>
                </g>
                <g transform="matrix(0.896117,3.24196e-17,-3.24196e-17,0.896117,222.704,233.585)">
                    <path d="M10.941,21.395C10.93,21.415 10.479,22.585 10.052,22.611C9.997,22.614 9.399,22.651 9.383,22.771C9.363,22.928 9.94,22.791 9.987,22.779C9.93,22.811 9.371,23.116 9.451,23.402C9.528,23.683 10.075,22.989 10.115,22.938C10.234,22.954 10.339,22.843 10.43,22.765C10.631,22.591 11.194,21.824 11.256,21.739L10.941,21.395ZM15.314,21.473C15.322,21.5 15.519,22.691 15.981,22.769C16.039,22.779 16.69,22.889 16.676,23.015C16.659,23.168 16.062,22.961 16.011,22.943C16.065,22.98 16.605,23.353 16.447,23.626C16.296,23.891 15.866,23.141 15.834,23.084C15.713,23.086 15.616,22.968 15.534,22.878C15.353,22.68 14.938,21.878 14.891,21.789L15.314,21.473Z" style="fill:rgb(237,185,46);fill-rule:nonzero;"/>
                </g>
                <g transform="matrix(0.896117,3.24196e-17,-3.24196e-17,0.896117,222.704,233.585)">
                    <path d="M17.909,15.225C17.668,13.994 16.542,13.977 16.082,14.733C15.916,15.005 15.35,16.046 14.757,15.242C14.515,14.915 13.845,14.058 14.538,13.22L15.127,12.532C14.965,11.945 14.328,12.172 14.073,12.254C13.854,12.325 13.19,12.372 13.252,12.578C13.272,12.642 13.304,12.705 13.351,12.752C13.4,12.802 13.601,12.862 13.533,12.853C13.22,13.172 13.201,14.245 13.199,14.369C13.012,12.987 12.415,12.647 12.656,12.861C12.776,12.844 12.872,12.702 12.888,12.582C12.915,12.378 12.268,12.337 12.019,12.253C11.942,12.227 11.077,11.937 11.03,12.475L11.73,13.211C12.495,14.036 12.054,14.802 11.778,15.237C11.278,16.027 10.67,15 10.468,14.692C9.973,13.937 8.87,13.692 8.801,14.962C8.754,15.815 8.89,18.005 8.907,18.269C8.856,18.701 8.804,19.755 8.876,20.349C8.915,20.672 9.089,21.929 8.55,22.93C8.931,22.766 9.186,22.302 9.223,22.234C9.21,22.274 9.022,22.854 9.258,22.758C9.421,22.692 9.723,22.082 9.801,22.006C10.072,21.744 10.432,20.92 10.186,21.424C10.571,21.233 10.145,21.888 10.123,21.922C10.42,21.904 10.671,21.64 10.64,21.674L10.674,22.244L10.889,21.913L10.911,22.465L11.296,21.893L11.478,22.125C11.49,22.048 11.642,21.063 11.906,21.249C12.147,21.42 12.117,22.104 11.862,22.551C11.627,22.959 11.806,23.141 11.797,23.134L11.288,23.852C11.114,24.114 11.335,24.422 11.31,24.387C11.248,24.473 10.665,25.285 10.796,25.61C10.97,26.037 12.404,26.052 12.549,26.053L12.555,26.056L12.594,26.055L12.633,26.056L12.639,26.052C12.791,26.048 14.273,26.007 14.489,25.652C14.679,25.341 14.224,24.496 14.176,24.405C14.206,24.374 14.432,24.143 14.306,23.874L13.925,23.137C13.946,23.123 14.127,22.935 13.987,22.554C13.823,22.101 13.952,21.416 14.248,21.256C14.566,21.083 14.493,22.072 14.488,22.146L14.736,21.927L15.011,22.522L15.167,21.977L15.319,22.324L15.496,21.763C15.524,21.801 15.677,22.01 15.999,22.064C15.982,22.026 15.817,21.646 15.889,21.557C15.924,21.513 16.103,21.595 16.056,21.566C16.07,21.618 16.165,21.977 16.331,22.187C16.399,22.273 16.578,22.912 16.742,23.002C16.979,23.13 16.92,22.535 16.916,22.492C16.94,22.566 17.103,23.057 17.487,23.279C17.161,22.26 17.657,20.987 17.752,20.695C18.051,19.784 17.97,18.776 17.956,18.609C18.066,17.65 18.08,16.097 17.909,15.225Z" style="fill:white;fill-rule:nonzero;"/>
                </g>
                <g transform="matrix(0.896117,3.24196e-17,-3.24196e-17,0.896117,222.704,233.585)">
                    <path d="M12.549,13.032C12.023,12.574 10.937,12.192 10.621,12.3C10.261,12.423 10.05,12.715 10.332,13.057C10.631,13.421 10.776,13.381 10.736,13.393C10.768,13.354 11.107,12.946 11.311,13.153C11.542,13.387 11.245,13.474 11.044,13.516C10.72,13.585 10.319,13.365 10.368,13.391C10.388,13.445 10.515,13.786 10.969,13.781C11.086,13.88 11.099,13.833 11.862,13.771C12.071,13.754 12.939,13.373 12.549,13.032ZM13.671,13.023C14.144,12.556 15.16,12.248 15.515,12.389C15.951,12.563 16.174,12.896 15.965,13.179C15.908,13.256 15.842,13.326 15.773,13.393C15.728,13.435 15.545,13.451 15.604,13.471C15.565,13.43 15.138,12.993 14.963,13.186C14.75,13.419 15.263,13.557 15.303,13.567C15.654,13.661 16.04,13.484 15.99,13.507C15.975,13.572 15.837,13.874 15.425,13.837C15.347,13.902 15.335,13.87 14.491,13.774C14.293,13.751 13.324,13.367 13.671,13.023ZM10.327,24.06C10.421,23.873 10.462,23.752 10.312,23.597C10.248,23.532 10.16,23.265 10.182,23.354C10.136,23.458 10.07,23.555 9.991,23.636C9.841,23.791 9.801,23.901 9.871,24.116C9.585,23.968 9.473,24.323 9.601,24.529C9.663,24.33 9.911,24.357 9.887,24.578C9.876,24.685 9.671,24.79 9.678,24.831C9.698,24.95 9.867,25.109 9.994,25.093C10.109,25.079 10.339,24.84 10.371,24.747C10.381,24.721 10.196,24.662 10.209,24.539C10.224,24.391 10.487,24.176 10.515,24.418C10.708,24.156 10.638,23.849 10.327,24.06ZM15.747,24.256C15.865,24.059 15.857,23.947 15.724,23.769C15.657,23.681 15.557,23.363 15.583,23.47C15.537,23.559 15.469,23.639 15.387,23.696C15.204,23.823 15.203,23.94 15.269,24.152C14.983,23.913 14.862,24.244 14.995,24.489C15.071,24.258 15.31,24.47 15.294,24.638C15.283,24.758 15.077,24.803 15.081,24.828C15.098,24.929 15.299,25.184 15.413,25.209C15.545,25.238 15.754,25.107 15.801,24.985C15.814,24.951 15.619,24.826 15.63,24.711C15.65,24.501 15.919,24.464 15.947,24.696C16.155,24.482 16.061,24.152 15.747,24.256Z" style="fill:rgb(237,185,46);fill-rule:nonzero;"/>
                </g>
                <g transform="matrix(0.896117,3.24196e-17,-3.24196e-17,0.896117,222.704,233.585)">
                    <path d="M11.138,15.746C11.215,17.742 11.104,19.288 11.082,19.596C10.994,20.824 11.819,21.681 13.034,21.671C14.142,21.662 15.411,20.957 15.488,19.67C15.506,19.361 15.595,17.871 15.523,15.801C14.234,15.56 12.894,15.537 11.138,15.746Z" style="fill:rgb(198,54,60);fill-rule:nonzero;"/>
                </g>
                <g transform="matrix(0.896117,3.24196e-17,-3.24196e-17,0.896117,222.704,233.585)">
                    <path d="M15.546,18.11C14.607,17.935 13.925,17.912 13.783,17.907C13.786,17.722 13.801,16.807 13.758,15.597L12.811,15.607C12.855,16.807 12.838,17.73 12.835,17.915C12.7,17.92 12.038,17.944 11.157,18.045L11.12,19.002C12.005,18.904 12.669,18.881 12.804,18.876C12.754,20.004 12.59,21.407 12.564,21.627C12.72,21.657 12.875,21.673 13.035,21.672C13.196,21.67 13.365,21.65 13.523,21.622C13.549,21.403 13.707,20.04 13.756,18.87C13.898,18.875 14.58,18.899 15.52,19.074L15.548,18.11L15.546,18.11Z" style="fill:rgb(238,238,238);fill-rule:nonzero;"/>
                </g>
            </g>
        </g>
    </g>
</svg>
