<?xml version="1.0" encoding="UTF-8" standalone="no"?>
<!DOCTYPE svg PUBLIC "-//W3C//DTD SVG 1.1//EN" "http://www.w3.org/Graphics/SVG/1.1/DTD/svg11.dtd">
<svg width="100%" height="100%" viewBox="0 0 512 512" version="1.1" xmlns="http://www.w3.org/2000/svg" xmlns:xlink="http://www.w3.org/1999/xlink" xml:space="preserve" xmlns:serif="http://www.serif.com/" style="fill-rule:evenodd;clip-rule:evenodd;stroke-linejoin:round;stroke-miterlimit:2;">
    <g transform="matrix(1.11593,-4.03717e-17,4.03717e-17,1.11593,-13.9687,-19.1113)">
        <g transform="matrix(11.1111,-1.36955e-31,4.93038e-32,11.1111,-2411.79,-2528.08)">
            <g>
                <g transform="matrix(0.896117,3.24196e-17,-3.24196e-17,0.896117,222.704,233.585)">
                    <path d="M32,5.435C30.732,5.631 26.569,6.413 24.166,6.298C22.032,8.963 17.083,11.866 12.521,17.203C9.851,20.328 6.736,24.06 1.177,29.777L1.178,29.778C1.212,29.815 1.391,30.008 1.648,30.191L1.649,30.192C9.932,25.896 10.269,23.352 19.218,22.081C28.614,20.747 28.824,17.984 36.909,13.679C36.794,12.446 36.364,9.496 36.301,9.019C36.029,6.947 34.301,5.078 32,5.435Z" style="fill:rgb(214,40,40);fill-rule:nonzero;"/>
                </g>
                <g transform="matrix(0.896117,3.24196e-17,-3.24196e-17,0.896117,222.704,233.585)">
                    <path d="M0.841,29.347C0.865,29.384 0.989,29.574 1.178,29.777C6.899,23.893 10.05,20.091 12.758,16.927C16.773,12.235 22.169,8.791 24.166,6.298C20.152,6.105 16.524,3.605 12,3.747C10.555,6.306 8.1,15.347 7.384,17.16C5.41,22.164 3.205,24.99 0.841,29.347Z" style="fill:rgb(252,216,86);fill-rule:nonzero;"/>
                </g>
                <g transform="matrix(0.896117,3.24196e-17,-3.24196e-17,0.896117,222.704,233.585)">
                    <path d="M12,3.747C9.531,3.825 6.033,4.498 4,4.757C1.891,5.026 -0.023,6.74 0.255,9.01C0.711,12.739 1.442,14.73 1.448,17.925C1.455,20.985 0.727,24.164 0.333,26.993C0.207,27.898 0.447,28.741 0.841,29.346C2.978,25.407 5.968,21.219 7.642,16.461C8.095,15.172 10.633,6.166 12,3.747Z" style="fill:rgb(0,63,135);fill-rule:nonzero;"/>
                </g>
                <g transform="matrix(0.896117,3.24196e-17,-3.24196e-17,0.896117,222.704,233.585)">
                    <path d="M2.077,30.45L2.08,30.452C10.523,27.864 10.233,25.845 19.121,26.555C28.217,27.282 30.11,24.163 36.942,22.344C37.011,21.655 37.344,18.356 36.909,13.678C29.278,17.741 28.33,20.787 19.564,22.033C9.985,23.396 10.397,25.655 1.649,30.192L2.077,30.45Z" style="fill:rgb(238,238,238);fill-rule:nonzero;"/>
                </g>
                <g transform="matrix(0.896117,3.24196e-17,-3.24196e-17,0.896117,222.704,233.585)">
                    <path d="M4.002,30.751C11.374,29.786 11.848,28.83 18.359,30.934C21.72,32.019 23.309,32.985 32.068,31.737C34.174,31.437 36.262,29.289 36.469,27.17C36.705,24.752 36.696,24.774 36.942,22.344C30.11,24.163 28.217,27.281 19.121,26.554C10.234,25.844 10.524,27.863 2.081,30.451C2.22,30.519 2.963,30.887 4.002,30.751Z" style="fill:rgb(0,122,61);fill-rule:nonzero;"/>
                </g>
            </g>
        </g>
    </g>
</svg>
