<?xml version="1.0" encoding="UTF-8" standalone="no"?>
<!DOCTYPE svg PUBLIC "-//W3C//DTD SVG 1.1//EN" "http://www.w3.org/Graphics/SVG/1.1/DTD/svg11.dtd">
<svg width="100%" height="100%" viewBox="0 0 512 512" version="1.1" xmlns="http://www.w3.org/2000/svg" xmlns:xlink="http://www.w3.org/1999/xlink" xml:space="preserve" xmlns:serif="http://www.serif.com/" style="fill-rule:evenodd;clip-rule:evenodd;stroke-linejoin:round;stroke-miterlimit:2;">
    <g transform="matrix(1.11593,-4.03717e-17,4.03717e-17,1.11593,-13.9687,-19.1113)">
        <g transform="matrix(11.1111,-1.36955e-31,4.93038e-32,11.1111,-2411.79,-2528.08)">
            <g>
                <g transform="matrix(0.896117,3.24196e-17,-3.24196e-17,0.896117,222.704,233.585)">
                    <path d="M36.469,27.17C36.262,29.289 34.174,31.437 32.068,31.737C22.767,33.063 21.617,31.929 16.923,30.475C12.025,28.957 9.41,30.043 4.002,30.751C1.724,31.049 0.033,29.147 0.333,26.993C0.76,23.929 1.552,20.621 1.436,17.229C1.343,14.486 0.678,12.475 0.255,9.01C-0.023,6.74 1.891,5.026 4,4.757C11.375,3.817 11.85,2.887 18.359,4.935C24.284,6.8 24.43,6.609 32,5.435C34.301,5.078 36.029,6.947 36.301,9.019C37.368,17.137 37.447,17.156 36.469,27.17Z" style="fill:rgb(238,238,238);fill-rule:nonzero;"/>
                </g>
                <g transform="matrix(0.896117,3.24196e-17,-3.24196e-17,0.896117,222.704,233.585)">
                    <path d="M37.131,18.012C37.096,13.894 36.521,10.694 36.301,9.019C36.029,6.947 34.301,5.078 32,5.435C24.446,6.606 24.298,6.804 18.359,4.935C11.85,2.887 11.375,3.817 4,4.757C1.891,5.026 -0.023,6.74 0.255,9.01C0.717,12.789 1.468,14.816 1.448,18.098C8.431,18.169 11.13,15.501 17.62,17.441C20.776,18.384 23.412,19.544 26.65,19.326C30.44,19.071 33.906,18.123 37.131,18.012Z" style="fill:rgb(237,41,57);fill-rule:nonzero;"/>
                </g>
                <g transform="matrix(0.896117,3.24196e-17,-3.24196e-17,0.896117,222.704,233.585)">
                    <path d="M6.561,10.986C6.157,8.194 7.824,5.832 9.82,5.053C9.155,4.967 8.612,5.046 8.508,5.061C5.81,5.456 3.092,8.096 3.655,11.39C3.976,13.265 5.928,16.713 9.519,16.109C9.619,16.092 10.107,16.01 10.73,15.759C8.245,15.379 6.829,12.833 6.561,10.986Z" style="fill:white;fill-rule:nonzero;"/>
                </g>
                <g transform="matrix(0.896117,3.24196e-17,-3.24196e-17,0.896117,222.704,233.585)">
                    <path d="M12.042,5.727L12.305,6.422L13.034,6.422L12.472,6.853L12.75,7.552L12.125,7.128L11.567,7.587L11.742,6.875L11.125,6.477L11.853,6.435L12.042,5.727ZM10.692,12.866L10.976,13.544L11.67,13.473L11.144,13.961L11.408,14.636L10.822,14.269L10.302,14.776L10.459,14.047L9.867,13.692L10.55,13.596L10.692,12.866ZM14.63,12.798L14.91,13.522L15.644,13.652L15.079,13.972L15.349,14.705L14.73,14.183L14.162,14.55L14.347,13.876L13.726,13.404L14.456,13.462L14.63,12.798ZM9.286,9.029L9.58,9.694L10.291,9.607L9.762,10.103L10.058,10.763L9.439,10.413L8.921,10.92L9.056,10.2L8.435,9.858L9.141,9.753L9.286,9.029ZM15.27,9.011L15.562,9.752L16.294,9.925L15.743,10.209L16.038,10.95L15.402,10.395L14.851,10.712L15.011,10.062L14.378,9.544L15.109,9.661L15.27,9.011Z" style="fill:rgb(238,238,238);fill-rule:nonzero;"/>
                </g>
            </g>
        </g>
    </g>
</svg>
