<?xml version="1.0" encoding="UTF-8" standalone="no"?>
<!DOCTYPE svg PUBLIC "-//W3C//DTD SVG 1.1//EN" "http://www.w3.org/Graphics/SVG/1.1/DTD/svg11.dtd">
<svg width="100%" height="100%" viewBox="0 0 512 512" version="1.1" xmlns="http://www.w3.org/2000/svg" xmlns:xlink="http://www.w3.org/1999/xlink" xml:space="preserve" xmlns:serif="http://www.serif.com/" style="fill-rule:evenodd;clip-rule:evenodd;stroke-linejoin:round;stroke-miterlimit:2;">
    <g transform="matrix(1.11593,-4.03717e-17,4.03717e-17,1.11593,-13.9687,-19.1113)">
        <g transform="matrix(11.1111,-1.36955e-31,4.93038e-32,11.1111,-2411.79,-2528.08)">
            <g>
                <g transform="matrix(0.896117,3.24196e-17,-3.24196e-17,0.896117,222.704,233.585)">
                    <path d="M33.553,5.532C33.433,5.497 32.796,5.311 32,5.435C24.446,6.606 24.298,6.804 18.359,4.935C11.85,2.887 11.375,3.817 4,4.757C1.891,5.026 -0.023,6.74 0.255,9.01C0.711,12.739 1.442,14.73 1.448,17.925C1.455,20.985 0.727,24.164 0.333,26.993C0.233,27.713 0.354,28.499 0.741,29.181C9.279,23.368 10.027,20.046 19.263,16.254C26.945,13.101 26.507,11.586 33.553,5.532Z" style="fill:rgb(0,81,186);fill-rule:nonzero;"/>
                </g>
                <g transform="matrix(0.896117,3.24196e-17,-3.24196e-17,0.896117,222.704,233.585)">
                    <path d="M2.456,30.607L2.462,30.609C2.579,30.649 3.19,30.857 4.002,30.751C11.374,29.786 11.848,28.83 18.359,30.934C21.72,32.019 23.309,32.985 32.068,31.737C34.174,31.437 36.262,29.289 36.469,27.17C37.446,17.169 37.37,17.149 36.301,9.019C36.143,7.816 35.53,7.009 35.417,6.86C27.312,13.632 28.501,15.491 18.456,19.407C11.496,22.12 10.386,24.315 2.456,30.607Z" style="fill:rgb(33,91,51);fill-rule:nonzero;"/>
                </g>
                <g transform="matrix(0.896117,3.24196e-17,-3.24196e-17,0.896117,222.704,233.585)">
                    <path d="M0.743,29.186C1.335,30.224 2.287,30.55 2.456,30.608C11.262,23.621 10.622,22.499 20.257,18.707C27.478,15.865 29.344,11.935 35.417,6.86L35.416,6.859C34.909,6.192 34.235,5.732 33.553,5.533C26.805,11.331 26.809,13.147 19.55,16.138C9.631,20.226 9.71,23.075 0.741,29.181L0.743,29.186Z" style="fill:rgb(252,209,22);fill-rule:nonzero;"/>
                </g>
                <g transform="matrix(0.896117,3.24196e-17,-3.24196e-17,0.896117,222.704,233.585)">
                    <path d="M7.66,11.335L7.671,11.34C7.65,11.464 7.559,12.009 7.421,12.884C8.021,12.259 8.427,11.848 8.515,11.759L9.859,12.492L9.221,11.097L9.229,11.088L9.217,11.061L10.335,9.993L8.809,10.194C8.425,9.355 8.199,8.843 8.146,8.726C8.12,8.855 7.994,9.487 7.842,10.345L6.327,10.592L7.666,11.305L7.66,11.335Z" style="fill:white;fill-rule:nonzero;"/>
                    <path d="M9.229,11.088C9.825,10.503 10.29,10.074 10.384,9.988L10.335,9.993L9.217,11.061L9.229,11.088ZM7.66,11.335L7.666,11.305L6.327,10.592L6.28,10.6C6.74,10.845 7.2,11.09 7.66,11.335ZM7.421,12.884L7.413,12.933C8.02,12.3 8.431,11.885 8.52,11.795L9.878,12.537L9.859,12.492L8.515,11.759C8.427,11.848 8.021,12.259 7.421,12.884ZM2.866,8.167L2.876,8.173C2.851,8.295 2.724,8.91 2.586,9.71C2.68,9.626 3.094,9.253 3.744,8.645C3.855,8.708 4.369,9.002 5.138,9.42C4.777,8.655 4.533,8.103 4.482,7.987L4.491,7.979L4.478,7.951C4.867,7.583 5.257,7.214 5.646,6.845C4.759,6.985 4.213,7.056 4.089,7.072C3.764,6.296 3.549,5.708 3.505,5.589C3.468,5.716 3.285,6.362 3.092,7.188C2.264,7.272 1.649,7.296 1.523,7.301C1.63,7.37 2.155,7.71 2.872,8.137L2.866,8.167Z" style="fill:white;fill-rule:nonzero;"/>
                    <path d="M2.586,9.71L2.578,9.758C2.673,9.673 3.092,9.296 3.748,8.681C3.86,8.745 4.38,9.041 5.159,9.465L5.138,9.42C4.369,9.002 3.855,8.708 3.744,8.645C3.094,9.253 2.68,9.626 2.586,9.71ZM2.866,8.167L2.872,8.137C2.155,7.71 1.63,7.37 1.523,7.301L1.474,7.303C1.584,7.374 2.124,7.726 2.866,8.167ZM4.491,7.979C4.893,7.599 5.294,7.218 5.695,6.838L5.646,6.845C5.257,7.214 4.867,7.583 4.478,7.951L4.491,7.979ZM12.242,14.54L12.251,14.546C12.049,15.37 11.888,15.961 11.855,16.084C12.507,15.512 12.965,15.142 13.064,15.063C13.811,15.585 14.283,15.966 14.386,16.049C14.344,15.925 14.128,15.292 13.837,14.513L13.847,14.506L13.835,14.477C14.415,14.065 14.945,13.752 15.044,13.694C14.212,13.56 13.594,13.551 13.467,13.549C13.162,12.769 13.17,12.789 12.848,12.032C12.66,12.804 12.669,12.783 12.484,13.571C12.363,13.577 11.767,13.607 10.98,13.699L12.249,14.51L12.242,14.54Z" style="fill:white;fill-rule:nonzero;"/>
                    <path d="M13.847,14.506C14.444,14.083 14.992,13.762 15.095,13.702L15.044,13.694C14.945,13.752 14.415,14.065 13.835,14.477L13.847,14.506ZM12.242,14.54L12.249,14.51L10.98,13.699L10.932,13.704L12.242,14.54ZM11.855,16.084L11.842,16.132C12.502,15.554 12.966,15.181 13.065,15.1C13.82,15.627 14.3,16.014 14.403,16.098L14.386,16.049C14.283,15.966 13.811,15.585 13.064,15.063C12.965,15.142 12.507,15.512 11.855,16.084ZM4.055,15.778L4.065,15.785C3.909,16.564 3.732,17.205 3.698,17.328C3.794,17.245 4.274,16.831 4.871,16.251L6.117,17.008L5.581,15.582L5.589,15.573L5.577,15.545L6.646,14.41L5.185,14.648C4.838,13.865 4.845,13.884 4.453,13.128C4.396,13.564 4.346,14.002 4.29,14.438C4.276,14.55 4.259,14.661 4.242,14.772C3.454,14.862 2.857,14.89 2.736,14.896C2.841,14.965 3.37,15.314 4.061,15.748L4.055,15.778Z" style="fill:white;fill-rule:nonzero;"/>
                    <path d="M5.589,15.573C5.679,15.481 6.089,15.06 6.692,14.402L6.646,14.41L5.577,15.545L5.589,15.573ZM3.698,17.328L3.685,17.376C3.783,17.292 4.269,16.875 4.874,16.288L6.132,17.052L6.117,17.008L4.871,16.251C4.274,16.831 3.794,17.245 3.698,17.328ZM4.055,15.778L4.061,15.748C3.37,15.314 2.841,14.965 2.736,14.896L2.688,14.898C2.797,14.97 3.342,15.33 4.055,15.778ZM11.577,7.022L11.586,7.029C11.556,7.152 11.408,7.75 11.225,8.569C11.843,8.032 12.341,7.638 12.44,7.56C13.196,8.071 13.707,8.466 13.814,8.548C13.481,7.713 13.257,7.13 13.21,7.007L13.219,7L13.207,6.97C13.783,6.551 14.309,6.235 14.408,6.176C13.584,6.045 12.967,6.036 12.842,6.034C12.513,5.15 12.328,4.607 12.285,4.483C12.247,4.607 12.057,5.228 11.838,6.051C11.712,6.056 11.098,6.082 10.27,6.167L11.584,6.992L11.577,7.022Z" style="fill:white;fill-rule:nonzero;"/>
                    <path d="M11.577,7.022L11.584,6.992L10.27,6.167L10.22,6.173C10.926,6.602 11.469,6.953 11.577,7.022ZM13.219,7C13.812,6.568 14.356,6.245 14.458,6.184L14.408,6.176C14.309,6.235 13.783,6.551 13.207,6.97L13.219,7ZM11.225,8.569L11.214,8.617C11.839,8.074 12.343,7.675 12.443,7.596C13.207,8.113 13.726,8.513 13.835,8.597L13.814,8.548C13.707,8.466 13.196,8.071 12.44,7.56C12.341,7.638 11.843,8.032 11.225,8.569Z" style="fill:white;fill-rule:nonzero;"/>
                </g>
            </g>
        </g>
    </g>
</svg>
