<?xml version="1.0" encoding="UTF-8" standalone="no"?>
<!DOCTYPE svg PUBLIC "-//W3C//DTD SVG 1.1//EN" "http://www.w3.org/Graphics/SVG/1.1/DTD/svg11.dtd">
<svg width="100%" height="100%" viewBox="0 0 512 512" version="1.1" xmlns="http://www.w3.org/2000/svg" xmlns:xlink="http://www.w3.org/1999/xlink" xml:space="preserve" xmlns:serif="http://www.serif.com/" style="fill-rule:evenodd;clip-rule:evenodd;stroke-linejoin:round;stroke-miterlimit:2;">
    <g transform="matrix(1.11593,-4.03717e-17,4.03717e-17,1.11593,-13.9687,-19.1113)">
        <g transform="matrix(11.1111,-1.36955e-31,4.93038e-32,11.1111,-2411.79,-2528.08)">
            <g>
                <g transform="matrix(0.896117,3.24196e-17,-3.24196e-17,0.896117,222.704,233.585)">
                    <path d="M32,5.435C24.841,6.545 24.342,6.824 18.711,5.049C13.99,3.56 13.168,3.338 6.5,4.39C14.117,7.868 19.237,13.25 19.669,13.649C28.011,16.327 29.479,13.757 36.893,13.513C36.778,12.347 36.366,9.516 36.301,9.019C36.029,6.947 34.301,5.078 32,5.435Z" style="fill:rgb(222,56,48);fill-rule:nonzero;"/>
                </g>
                <g transform="matrix(0.896117,3.24196e-17,-3.24196e-17,0.896117,222.704,233.585)">
                    <path d="M6.501,30.373C14.089,29.143 14.254,29.661 20.148,31.513C22.19,32.155 24.211,32.857 32.068,31.737C34.174,31.437 36.262,29.289 36.469,27.17C36.477,27.091 36.818,23.515 36.924,22.511C29.496,22.759 28.05,25.337 19.699,22.645C14.474,24.266 12.92,24.989 6.501,30.373Z" style="fill:rgb(0,35,149);fill-rule:nonzero;"/>
                </g>
                <g transform="matrix(0.896117,3.24196e-17,-3.24196e-17,0.896117,222.704,233.585)">
                    <path d="M0.542,11.013C1.544,17.187 1.914,17.234 0.641,24.991C5.106,22.479 8.05,19.6 11.406,16.847C8.077,14.866 5.972,14.106 0.542,11.013Z" style="fill:rgb(20,20,20);fill-rule:nonzero;"/>
                </g>
                <g transform="matrix(0.896117,3.24196e-17,-3.24196e-17,0.896117,222.704,233.585)">
                    <path d="M0.255,9.01C0.274,9.17 0.369,9.945 0.542,11.013C6.071,14.162 8.012,14.827 11.406,16.847C8.075,19.579 5.112,22.476 0.641,24.991C0.447,26.175 0.355,26.832 0.333,26.993C6.609,23.288 10.707,18.879 14.327,16.763C10.367,13.799 5.952,12.441 0.255,9.01Z" style="fill:rgb(255,182,17);fill-rule:nonzero;"/>
                </g>
                <g transform="matrix(0.896117,3.24196e-17,-3.24196e-17,0.896117,222.704,233.585)">
                    <path d="M3.541,4.841C1.658,5.27 -0.006,6.881 0.255,9.01C5.963,12.447 10.361,13.794 14.327,16.763C10.709,18.878 6.611,23.287 0.333,26.993C0.053,28.999 1.503,30.789 3.543,30.78C12.309,23.669 12.274,22.97 19.351,20.5C21.956,21.341 23.769,21.931 26.216,21.846C29.472,21.734 33.794,20.627 37.08,20.514C37.1,20.114 37.2,18.156 37.045,15.51C33.763,15.62 29.444,16.723 26.186,16.833C23.79,16.914 22.037,16.362 19.312,15.482C12.636,8.997 11.274,9.194 3.541,4.841Z" style="fill:rgb(0,122,77);fill-rule:nonzero;"/>
                </g>
                <g transform="matrix(0.896117,3.24196e-17,-3.24196e-17,0.896117,222.704,233.585)">
                    <path d="M6.5,4.39C6.3,4.421 4.873,4.646 4,4.757L3.541,4.841C11.277,9.196 12.635,8.997 19.312,15.482C21.917,16.324 23.736,16.916 26.186,16.833C29.441,16.723 33.761,15.62 37.045,15.51C37.036,15.35 36.981,14.408 36.893,13.513C29.486,13.756 28.008,16.326 19.669,13.649C19.231,13.245 14.119,7.869 6.5,4.39ZM3.543,30.78L4.002,30.751C4.202,30.725 4.875,30.637 6.501,30.373C12.902,25.004 14.456,24.271 19.699,22.645C28.053,25.337 29.488,22.759 36.924,22.511C36.941,22.351 37.028,21.533 37.08,20.514C33.796,20.627 29.475,21.734 26.216,21.846C23.823,21.929 22.076,21.379 19.351,20.5C12.281,22.968 12.324,23.656 3.543,30.78Z" style="fill:rgb(238,238,238);fill-rule:nonzero;"/>
                </g>
            </g>
        </g>
    </g>
</svg>
