<?xml version="1.0" encoding="UTF-8" standalone="no"?>
<!DOCTYPE svg PUBLIC "-//W3C//DTD SVG 1.1//EN" "http://www.w3.org/Graphics/SVG/1.1/DTD/svg11.dtd">
<svg width="100%" height="100%" viewBox="0 0 512 512" version="1.1" xmlns="http://www.w3.org/2000/svg" xmlns:xlink="http://www.w3.org/1999/xlink" xml:space="preserve" xmlns:serif="http://www.serif.com/" style="fill-rule:evenodd;clip-rule:evenodd;stroke-linejoin:round;stroke-miterlimit:2;">
    <g transform="matrix(1.11593,-4.03717e-17,4.03717e-17,1.11593,-13.9687,-19.1113)">
        <g transform="matrix(11.1111,-2.35563e-31,-4.93038e-32,11.1111,-2371.15,-2417.74)">
            <g>
                <g transform="matrix(0.896117,3.24196e-17,-3.24196e-17,0.896117,219.046,223.655)">
                    <path d="M36.469,27.17C36.262,29.289 34.174,31.437 32.068,31.737C22.767,33.063 21.617,31.929 16.923,30.475C12.025,28.957 9.41,30.043 4.002,30.751C1.724,31.049 0.033,29.147 0.333,26.993C0.731,24.136 1.48,20.893 1.447,17.745C1.416,14.7 0.699,12.641 0.255,9.01C-0.023,6.74 1.891,5.026 4,4.757C11.375,3.817 11.85,2.887 18.359,4.935C24.284,6.8 24.43,6.609 32,5.435C34.301,5.078 36.029,6.947 36.301,9.019C37.37,17.151 37.446,17.168 36.469,27.17Z" style="fill:rgb(198,10,29);fill-rule:nonzero;"/>
                </g>
                <g transform="matrix(0.896117,3.24196e-17,-3.24196e-17,0.896117,219.046,223.655)">
                    <path d="M0.712,12.012C6.673,12.019 10.368,10.316 14.494,10.847C17.403,11.221 21.042,12.923 23.973,13.256C27.541,13.662 32.808,12.142 36.718,12.02C37.555,18.369 36.848,23.242 36.76,24.151C27.986,24.554 27.796,26.759 18.877,23.931C10.15,21.163 9.966,23.986 0.807,23.993C1.878,17.552 1.482,16.379 0.712,12.012Z" style="fill:rgb(255,196,0);fill-rule:nonzero;"/>
                </g>
                <g transform="matrix(0.896117,3.24196e-17,-3.24196e-17,0.896117,219.046,223.655)">
                    <path d="M9.982,16.034C10.036,17.551 9.969,18.783 9.956,19.021C9.868,20.652 10.913,21.766 12.556,21.712C13.82,21.671 15.742,20.872 15.815,18.996C15.824,18.755 15.87,17.571 15.818,15.984C14.521,15.717 13.039,15.553 9.982,16.034Z" style="fill:rgb(234,89,110);fill-rule:nonzero;"/>
                </g>
                <g transform="matrix(0.896117,3.24196e-17,-3.24196e-17,0.896117,219.046,223.655)">
                    <path d="M12.773,14.726C12.993,14.717 14.179,14.648 15.776,14.977C15.858,16.571 15.843,17.753 15.84,17.995C14.305,17.679 13.141,17.731 12.839,17.742C12.843,17.501 12.859,16.315 12.773,14.726Z" style="fill:rgb(244,162,178);fill-rule:nonzero;"/>
                </g>
                <g transform="matrix(0.896117,3.24196e-17,-3.24196e-17,0.896117,219.046,223.655)">
                    <path d="M9.931,15.027C11.505,14.78 12.544,14.736 12.773,14.726C12.859,16.315 12.843,17.501 12.839,17.742C12.611,17.751 11.57,17.79 9.995,18.03C10.001,17.79 10.03,16.555 9.931,15.027Z" style="fill:rgb(221,46,68);fill-rule:nonzero;"/>
                </g>
                <g transform="matrix(0.896117,3.24196e-17,-3.24196e-17,0.896117,219.046,223.655)">
                    <path d="M12.541,11.743C14.377,11.687 15.626,12.759 15.68,13.471C15.699,13.724 15.765,14.599 12.773,14.726C10.825,14.809 9.872,14.169 9.801,13.504C9.71,12.635 10.986,11.791 12.541,11.743Z" style="fill:rgb(234,89,110);"/>
                </g>
                <g transform="matrix(0.896117,3.24196e-17,-3.24196e-17,0.896117,219.046,223.655)">
                    <path d="M12.541,11.743C14.502,11.683 15.596,12.44 15.62,12.724C15.658,13.18 13.101,13.201 12.671,13.217C12.432,13.226 9.782,13.325 9.714,12.741C9.672,12.375 10.891,11.794 12.541,11.743Z" style="fill:rgb(255,172,51);"/>
                </g>
                <g transform="matrix(0.896117,3.24196e-17,-3.24196e-17,0.896117,219.046,223.655)">
                    <path d="M8.085,15.35L9.006,15.182C9.243,18.675 8.814,21.402 8.715,22.132L7.775,22.29C7.861,21.687 8.334,18.833 8.085,15.35ZM16.791,15.216L17.81,15.503C18.003,19.289 17.69,21.727 17.603,22.497L16.585,22.209C16.652,21.613 16.992,19.131 16.791,15.216Z" style="fill:rgb(153,170,181);fill-rule:nonzero;"/>
                </g>
                <g transform="matrix(0.896117,3.24196e-17,-3.24196e-17,0.896117,219.046,223.655)">
                    <path d="M6.98,21.46C7.204,21.421 9.186,21.082 9.786,20.995L9.66,21.986C9.057,22.073 7.062,22.413 6.836,22.451L6.98,21.46ZM15.68,20.98C16.843,21.22 18.489,21.747 18.731,21.824L18.623,22.814C18.381,22.737 16.734,22.21 15.57,21.97L15.68,20.98ZM7.995,14.331L8.921,14.166L9.006,15.182L8.085,15.35L7.995,14.331ZM16.731,14.212L17.749,14.499L17.81,15.503L16.791,15.216L16.731,14.212Z" style="fill:rgb(102,117,127);fill-rule:nonzero;"/>
                </g>
            </g>
        </g>
    </g>
</svg>
