<?xml version="1.0" encoding="UTF-8" standalone="no"?>
<!DOCTYPE svg PUBLIC "-//W3C//DTD SVG 1.1//EN" "http://www.w3.org/Graphics/SVG/1.1/DTD/svg11.dtd">
<svg width="100%" height="100%" viewBox="0 0 512 512" version="1.1" xmlns="http://www.w3.org/2000/svg" xmlns:xlink="http://www.w3.org/1999/xlink" xml:space="preserve" xmlns:serif="http://www.serif.com/" style="fill-rule:evenodd;clip-rule:evenodd;stroke-linejoin:round;stroke-miterlimit:2;">
    <g transform="matrix(1.11593,-4.03717e-17,4.03717e-17,1.11593,-13.9687,-19.1113)">
        <g transform="matrix(11.1111,-1.36955e-31,4.93038e-32,11.1111,-2411.79,-2528.08)">
            <g>
                <g transform="matrix(0.896117,3.24196e-17,-3.24196e-17,0.896117,222.704,233.585)">
                    <path d="M32,5.435C24.446,6.606 24.298,6.804 18.359,4.935C11.85,2.887 11.375,3.817 4,4.757L3.396,4.874C3.396,5.014 3.394,5.712 3.451,6.629C1.954,6.798 0.935,6.798 0.716,6.798C0.338,7.429 0.158,8.22 0.255,9.01C0.711,12.739 1.442,14.73 1.448,17.925C1.455,20.985 0.727,24.164 0.333,26.993C0.033,29.147 1.724,31.049 4.002,30.751C11.374,29.786 11.848,28.83 18.359,30.934C21.72,32.019 23.309,32.985 32.068,31.737C34.174,31.437 36.262,29.289 36.469,27.17C37.446,17.169 37.37,17.149 36.301,9.019C36.029,6.947 34.301,5.078 32,5.435Z" style="fill:rgb(0,36,125);fill-rule:nonzero;"/>
                </g>
                <g transform="matrix(0.896117,3.24196e-17,-3.24196e-17,0.896117,222.704,233.585)">
                    <path d="M28.155,24.7C23.883,23.407 24.187,18.569 23.927,14.364L23.911,14.114L24.104,13.997C24.386,13.823 26.761,13.272 28.25,13.09C30.497,12.814 32.25,13.027 32.614,13.202L32.84,13.312L32.878,13.559C33.189,15.603 34.392,21.783 28.525,24.659L28.332,24.753L28.155,24.7Z" style="fill:rgb(238,238,238);fill-rule:nonzero;"/>
                </g>
                <g transform="matrix(0.896117,3.24196e-17,-3.24196e-17,0.896117,222.704,233.585)">
                    <path d="M32.371,13.661C32.098,13.53 30.392,13.336 28.307,13.592C26.792,13.778 24.655,14.297 24.431,14.442C24.691,18.639 24.401,23.026 28.39,24.199C33.481,21.686 32.819,16.63 32.371,13.661Z" style="fill:rgb(255,255,0);fill-rule:nonzero;"/>
                </g>
                <g transform="matrix(0.896117,3.24196e-17,-3.24196e-17,0.896117,222.704,233.585)">
                    <path d="M24.592,17.298C24.79,20.373 25.227,23.269 28.39,24.199C32.941,21.953 32.693,17.652 32.652,16.506C31.048,16.764 27.015,17.532 24.592,17.298Z" style="fill:rgb(143,197,255);fill-rule:nonzero;"/>
                </g>
                <g transform="matrix(0.896117,3.24196e-17,-3.24196e-17,0.896117,222.704,233.585)">
                    <path d="M28.39,24.199C30.942,22.94 31.804,21.037 31.97,20.67C31.604,20.731 27.618,21.461 25.314,21.396C25.571,22.05 26.268,23.575 28.39,24.199Z" style="fill:rgb(54,108,201);fill-rule:nonzero;"/>
                </g>
                <g transform="matrix(0.896117,3.24196e-17,-3.24196e-17,0.896117,222.704,233.585)">
                    <path d="M28.55,21.94C28.452,21.952 28.366,22.039 28.359,22.139C28.353,22.235 28.432,22.305 28.527,22.293C29.524,22.169 31.028,21.92 31.245,21.885L31.519,21.491C31.282,21.53 29.568,21.814 28.55,21.941L28.55,21.94ZM28.159,22.881C28.151,22.978 28.229,23.047 28.323,23.036C28.498,23.015 29.224,22.928 30.502,22.722L30.897,22.312C29.344,22.566 28.556,22.661 28.352,22.685C28.254,22.697 28.167,22.783 28.159,22.881ZM27.627,23.655C27.617,23.75 27.692,23.826 27.787,23.816C27.915,23.803 28.508,23.741 29.376,23.616L29.984,23.172C28.751,23.363 27.997,23.443 27.824,23.461C27.726,23.472 27.637,23.556 27.627,23.655Z" style="fill:rgb(0,216,96);fill-rule:nonzero;"/>
                </g>
                <g transform="matrix(0.896117,3.24196e-17,-3.24196e-17,0.896117,222.704,233.585)">
                    <path d="M25.545,19.24C25.727,18.742 26.102,18.139 26.211,18.121C26.368,18.093 27.976,21.106 27.835,21.276C27.704,21.433 25.995,21.659 25.546,21.579C25.253,21.527 25.522,19.426 25.545,19.24Z" style="fill:rgb(93,49,0);fill-rule:nonzero;"/>
                </g>
                <g transform="matrix(0.896117,3.24196e-17,-3.24196e-17,0.896117,222.704,233.585)">
                    <path d="M27.373,21.836C27.237,21.34 25.285,17.823 25.157,17.817C25.04,17.812 24.714,18.376 24.683,18.43C24.759,19.193 24.966,21.129 25.843,22.423C26.777,22.329 27.427,22.036 27.373,21.836Z" style="fill:rgb(207,98,0);fill-rule:nonzero;"/>
                </g>
                <g transform="matrix(0.896117,3.24196e-17,-3.24196e-17,0.896117,222.704,233.585)">
                    <path d="M28.054,17.471L28.187,17.456C28.273,19.418 28.21,20.954 28.197,21.258L28.065,21.273C28.077,20.969 28.141,19.432 28.054,17.471ZM29.401,17.193L29.534,17.174C29.628,19.195 29.563,20.768 29.55,21.08L29.417,21.099C29.43,20.787 29.494,19.214 29.401,17.193ZM30.656,17.106L30.789,17.085C30.876,19.052 30.814,20.581 30.801,20.885L30.668,20.907C30.68,20.603 30.743,19.073 30.656,17.106Z" style="fill:rgb(255,255,0);fill-rule:nonzero;"/>
                </g>
                <g transform="matrix(0.896117,3.24196e-17,-3.24196e-17,0.896117,222.704,233.585)">
                    <path d="M26.291,20.443C27.105,20.64 27.024,20.847 27.845,21.009C28.423,21.123 29.517,20.961 29.661,20.939C29.801,20.919 30.529,20.079 30.636,20.061L31.91,19.852C32.108,19.819 31.982,21.083 31.505,21.162C31.232,21.207 29.254,21.535 28.074,21.665C27.927,21.681 27.714,21.543 27.615,21.483C26.545,20.833 26.615,20.756 26.517,20.712C26.489,20.699 26.089,20.394 26.291,20.443Z" style="fill-rule:nonzero;"/>
                </g>
                <g transform="matrix(0.896117,3.24196e-17,-3.24196e-17,0.896117,222.704,233.585)">
                    <path d="M28.63,17.812C28.633,17.923 28.544,18.023 28.436,18.036L27.735,18.112C27.628,18.123 27.532,18.041 27.529,17.932C27.525,17.823 27.613,17.725 27.721,17.715L28.421,17.638C28.528,17.625 28.626,17.703 28.63,17.812ZM29.968,17.425C29.972,17.536 29.882,17.638 29.774,17.654L29.071,17.755C28.964,17.769 28.867,17.692 28.862,17.583C28.858,17.472 28.946,17.372 29.055,17.357L29.758,17.257C29.865,17.24 29.963,17.315 29.968,17.425ZM31.367,17.6C31.371,17.711 31.28,17.813 31.172,17.831L30.467,17.946C30.361,17.962 30.263,17.888 30.26,17.779C30.256,17.667 30.346,17.566 30.454,17.548L31.159,17.434C31.265,17.417 31.364,17.49 31.367,17.6ZM31.389,18.697C31.39,18.809 31.298,18.91 31.189,18.928L30.484,19.043C30.378,19.06 30.282,18.985 30.282,18.876C30.281,18.765 30.372,18.663 30.481,18.646L31.186,18.531C31.292,18.514 31.388,18.587 31.389,18.697ZM31.39,19.423C31.389,19.535 31.295,19.637 31.186,19.655L30.481,19.77C30.375,19.786 30.281,19.712 30.282,19.603C30.282,19.491 30.375,19.39 30.484,19.373L31.189,19.258C31.294,19.241 31.39,19.314 31.39,19.423ZM29.991,18.156C29.994,18.267 29.903,18.369 29.794,18.385L29.091,18.486C28.985,18.501 28.889,18.423 28.886,18.314C28.883,18.204 28.973,18.104 29.082,18.089L29.785,17.988C29.891,17.972 29.989,18.047 29.991,18.156ZM30.004,18.919C30.005,19.031 29.913,19.132 29.804,19.148L29.1,19.25C28.994,19.264 28.899,19.187 28.898,19.078C28.897,18.967 28.988,18.867 29.097,18.852L29.8,18.751C29.907,18.735 30.003,18.81 30.004,18.919ZM30.004,19.646C30.003,19.758 29.909,19.859 29.8,19.875L29.097,19.976C28.991,19.991 28.897,19.914 28.898,19.805C28.899,19.694 28.991,19.594 29.1,19.58L29.804,19.478C29.909,19.463 30.005,19.537 30.004,19.646ZM28.65,18.544C28.652,18.654 28.562,18.754 28.453,18.767L27.753,18.844C27.645,18.854 27.551,18.772 27.549,18.664C27.547,18.554 27.636,18.457 27.745,18.446L28.445,18.37C28.551,18.357 28.648,18.435 28.65,18.544ZM28.659,19.308C28.659,19.418 28.568,19.518 28.459,19.531L27.758,19.607C27.651,19.618 27.558,19.536 27.558,19.428C27.558,19.318 27.648,19.221 27.757,19.21L28.457,19.134C28.564,19.121 28.659,19.199 28.659,19.308ZM28.656,20.035C28.654,20.146 28.561,20.245 28.452,20.259L27.751,20.335C27.644,20.346 27.553,20.264 27.554,20.156C27.556,20.046 27.648,19.949 27.757,19.938L28.457,19.862C28.564,19.848 28.657,19.927 28.656,20.035Z" style="fill:rgb(238,238,238);fill-rule:nonzero;"/>
                </g>
                <g transform="matrix(0.896117,3.24196e-17,-3.24196e-17,0.896117,222.704,233.585)">
                    <path d="M26.586,14.539C26.59,14.434 27.098,14.407 27.185,14.314C27.24,14.256 27.734,13.733 28.177,14.17C28.287,14.279 28.478,14.658 28.628,14.765C28.898,14.958 30.191,15.276 30.555,15.1C30.555,15.354 30.163,15.556 30.203,15.535C30.248,15.56 30.563,15.731 30.625,16.016C30.669,16.22 29.97,15.695 29.313,15.965C28.393,16.345 28.41,16.429 28.036,16.379C27.431,16.3 27.269,15.085 27.252,14.957C27.242,14.876 26.584,14.599 26.586,14.539Z" style="fill:rgb(172,95,26);fill-rule:nonzero;"/>
                </g>
                <g transform="matrix(0.896117,3.24196e-17,-3.24196e-17,0.896117,222.704,233.585)">
                    <path d="M26.893,14.432C26.903,14.346 27.319,14.354 27.398,14.284C27.446,14.24 27.887,13.846 28.216,14.23C28.297,14.326 28.427,14.648 28.542,14.747C28.746,14.922 29.772,15.275 30.079,15.158C30.073,15.222 30.041,15.28 29.998,15.326C29.934,15.396 29.676,15.525 29.764,15.489C29.799,15.512 30.041,15.676 30.073,15.914C30.094,16.068 29.538,15.611 29.017,15.776C28.99,15.784 28.433,16.129 27.956,16.023C27.47,15.917 27.415,14.916 27.409,14.81C27.405,14.745 26.887,14.48 26.893,14.432Z" style="fill:rgb(238,238,238);fill-rule:nonzero;"/>
                </g>
                <g transform="matrix(0.896117,3.24196e-17,-3.24196e-17,0.896117,222.704,233.585)">
                    <path d="M28.303,16.826C28.305,16.868 28.273,16.904 28.232,16.909C28.191,16.914 28.154,16.886 28.152,16.844L28.123,16.373C28.12,16.331 28.154,16.295 28.194,16.29C28.235,16.285 28.271,16.314 28.274,16.355L28.303,16.826ZM28.864,16.756C28.867,16.798 28.834,16.835 28.793,16.84C28.753,16.845 28.716,16.818 28.713,16.776L28.685,16.305C28.682,16.263 28.715,16.226 28.756,16.221C28.797,16.216 28.833,16.243 28.836,16.285L28.864,16.756ZM28.007,14.439C28.015,14.517 27.956,14.589 27.878,14.597C27.8,14.605 27.729,14.548 27.721,14.47C27.713,14.392 27.771,14.321 27.849,14.313C27.927,14.305 27.999,14.361 28.007,14.439Z" style="fill-rule:nonzero;"/>
                </g>
                <g transform="matrix(0.896117,3.24196e-17,-3.24196e-17,0.896117,222.704,233.585)">
                    <path d="M19.912,18.16C19.866,13.285 19,9.376 19,5.141C11.806,2.837 11.647,3.783 4,4.757L3.396,4.874C3.396,5.014 3.394,5.712 3.451,6.629C1.954,6.798 0.935,6.798 0.716,6.798L0.602,7.003C0.528,7.148 0.124,7.941 0.255,9.01C0.717,12.789 1.468,14.816 1.448,18.098C5.841,18.143 7.652,17.208 11.988,16.792C15.05,16.498 17.294,17.318 19.912,18.16Z" style="fill:rgb(0,36,125);fill-rule:nonzero;"/>
                </g>
                <g transform="matrix(0.896117,3.24196e-17,-3.24196e-17,0.896117,222.704,233.585)">
                    <path d="M19,5.141C18.814,5.082 17.267,4.586 16.669,4.415C14.496,5.171 12.449,6.757 12.117,7.013C12,5.326 12,4.009 12,3.747C10.226,3.803 7.398,4.248 7,4.311C7,5.604 7.077,6.67 7.092,6.875C6.075,6.341 4.972,5.77 3.396,4.874C2.458,5.119 1.849,5.59 1.732,5.68C3.536,6.825 6.373,8.265 6.655,8.411C5.573,8.586 5.085,8.657 4.948,8.677C4.625,8.506 2.56,7.418 0.999,6.39L0.716,6.798C2.13,7.74 3.807,8.645 4.082,8.794C2.026,9.051 0.541,9.01 0.255,9.01C0.445,10.564 1.009,13.615 1.083,14.014C1.325,14.014 2.869,14.061 4.95,13.777C2.953,15.936 1.742,16.681 1.421,16.878L1.448,18.098C1.531,18.099 2.939,18.155 4.774,17.919C6.063,16.808 7.786,15.033 8.039,14.773C8.156,16.07 8.16,17.146 8.161,17.353C8.532,17.285 11.121,16.809 12.84,16.739C12.837,16.476 12.823,15.197 12.689,13.449C13.793,14.162 15.27,15.211 17.534,17.416C18.144,17.592 19.722,18.099 19.912,18.16C19.91,17.997 19.903,17.169 19.849,16.12C19.611,15.888 17.918,14.235 16.843,13.261C17.629,13.473 19.484,14.071 19.713,14.145C19.619,13.038 19.302,10.181 19.207,9.157C18.981,9.085 17.15,8.496 16.373,8.287C17.253,7.881 18.839,7.263 19.055,7.178C19.046,7.015 19,6.183 19,5.141Z" style="fill:rgb(238,238,238);fill-rule:nonzero;"/>
                </g>
                <g transform="matrix(0.896117,3.24196e-17,-3.24196e-17,0.896117,222.704,233.585)">
                    <path d="M11,3.801C10.759,3.819 9.761,3.893 8,4.157C8,4.826 8.012,6.514 8.307,9.172C4.881,9.699 3.684,10.017 0.388,10.012C0.423,10.253 0.574,11.299 0.892,13.007C4.163,13.009 5.176,12.716 8.677,12.156C8.729,12.556 9.069,15.171 9.08,17.187C10.701,16.904 11.655,16.821 11.88,16.801C11.861,14.822 11.597,12.196 11.557,11.796C14.707,11.557 16.349,12.108 19.621,13.154C19.579,12.73 19.317,10.276 19.306,10.161C16.083,9.131 14.474,8.581 11.259,8.817C11.019,6.227 11,4.709 11,3.801Z" style="fill:rgb(207,27,43);fill-rule:nonzero;"/>
                </g>
                <g transform="matrix(0.896117,3.24196e-17,-3.24196e-17,0.896117,222.704,233.585)">
                    <path d="M19,5.141L17.539,4.676C14.262,5.835 12.254,7.561 12.163,7.632L12.172,7.754C13.087,7.727 13.623,7.776 13.748,7.787C15.657,6.538 18.103,5.676 19,5.343L19,5.141ZM1.732,5.68C1.313,5.999 1.05,6.326 0.999,6.39C2.56,7.418 4.625,8.506 4.948,8.677C5.085,8.657 5.573,8.586 6.654,8.411C6.455,8.308 3.556,6.839 1.732,5.68ZM7.344,13.391C6.426,14.384 4.435,16.582 2.29,18.105C2.423,18.103 3.087,18.095 3.953,18.012C5.688,16.592 7.771,14.364 7.976,14.149L7.87,13.299L7.344,13.391ZM19.91,17.961L19.877,16.735C19.821,16.68 17.553,14.422 15.958,13.04C15.012,12.826 14.339,12.763 14.196,12.749C16.335,14.348 18.937,16.986 19.91,17.961Z" style="fill:rgb(207,27,43);fill-rule:nonzero;"/>
                </g>
            </g>
        </g>
    </g>
</svg>
