<?xml version="1.0" encoding="UTF-8" standalone="no"?>
<!DOCTYPE svg PUBLIC "-//W3C//DTD SVG 1.1//EN" "http://www.w3.org/Graphics/SVG/1.1/DTD/svg11.dtd">
<svg width="100%" height="100%" viewBox="0 0 512 512" version="1.1" xmlns="http://www.w3.org/2000/svg" xmlns:xlink="http://www.w3.org/1999/xlink" xml:space="preserve" xmlns:serif="http://www.serif.com/" style="fill-rule:evenodd;clip-rule:evenodd;stroke-linejoin:round;stroke-miterlimit:2;">
    <g transform="matrix(1.11593,-4.03717e-17,4.03717e-17,1.11593,-13.9687,-19.1113)">
        <g transform="matrix(11.1111,-1.36955e-31,4.93038e-32,11.1111,-2411.79,-2528.08)">
            <g>
                <g transform="matrix(0.896117,3.24196e-17,-3.24196e-17,0.896117,222.704,233.585)">
                    <path d="M32,5.435C28.238,6.018 24.988,6.773 21.592,5.898C16.586,4.608 15.303,3.281 9.75,3.921C9.75,9.013 10.692,12.756 10.702,17.111C10.713,21.259 9.745,24.914 9.749,29.892C15.194,29.248 16.54,30.543 21.234,31.829C22.281,32.115 24.313,32.842 32.068,31.737C34.174,31.437 36.262,29.289 36.469,27.17C37.445,17.176 37.371,17.158 36.301,9.019C36.029,6.947 34.301,5.078 32,5.435Z" style="fill:rgb(0,146,200);fill-rule:nonzero;"/>
                </g>
                <g transform="matrix(0.896117,3.24196e-17,-3.24196e-17,0.896117,222.704,233.585)">
                    <path d="M34.642,13.915C33.425,13.661 32.231,13.799 32.022,13.823C31.965,13.973 31.698,14.673 31.277,15.689C31.488,15.658 33.921,15.309 33.932,15.487C33.942,15.648 33.117,17.181 33.039,17.325C32.983,17.316 32.739,17.28 32.327,17.347C31.229,17.527 30.753,17.854 30.281,18.626C30.24,18.692 29.812,19.393 30.284,19.598C30.121,19.972 29.228,21.229 27.427,21.96C27.496,21.759 27.847,20.729 28.214,19.422C28.814,19.255 29.519,19.395 29.745,19.493C29.656,19.246 29.29,17.735 29.724,15.559C30.115,13.593 31.735,11.601 32.409,10.956C31.077,11.577 31.099,11.582 29.75,12.205C29.782,12.005 30.113,9.942 30.154,9.697C30.178,9.623 30.415,8.89 30.051,8.729C29.77,8.606 29.699,9.142 29.692,9.188C29.094,9.117 28.666,9.383 28.589,9.431C28.095,9.737 26.953,9.683 26.284,9.547C26.365,9.623 26.971,10.195 27.468,10.268C26.969,10.588 26.127,10.553 26.008,10.549C26.46,10.77 27.45,11.073 28.054,10.8C28.163,10.75 28.65,10.53 29.498,10.422C29.47,10.586 29.474,10.581 29.153,12.479C27.795,13.094 26.929,13.42 26.733,13.494C25.774,14.415 25.565,16.823 25.539,17.128C25.346,19.356 26.216,21.268 26.528,21.74C26.518,21.582 26.533,20.42 27.521,19.754C27.151,21.013 26.8,22.005 26.731,22.198C26.221,22.345 25.831,22.4 25.752,22.411C25.131,20.681 24.638,18.473 24.688,17.027C24.754,15.134 26.021,12.84 26.563,12.063C25.511,12.537 24.556,12.883 23.891,13.051C24.374,10.36 24.367,10.374 24.492,9.735C24.625,9.645 24.985,9.305 24.518,9.084C23.966,8.822 24.128,9.562 24.139,9.613C23.609,9.478 23.253,9.59 23.18,9.613C22.467,9.837 21.046,9.05 20.879,8.958C20.959,9.06 21.561,9.83 22.056,10.07C21.563,10.208 20.704,9.875 20.594,9.832C21.191,10.324 22.116,10.836 22.637,10.774C22.734,10.763 23.203,10.708 23.862,10.781C23.585,11.988 23.597,11.975 23.318,13.18C23.123,13.219 22.263,13.392 20.854,13.476C20.54,13.879 19.774,15.316 19.686,15.479C19.01,16.747 19.887,19.388 20.145,20.027C20.235,19.927 20.705,19.598 21.363,19.659L20.82,20.98C19.181,19.708 18.49,18.08 18.382,17.671C18.539,17.692 18.729,17.501 18.726,17.342C18.715,16.741 17.823,16.507 17.494,16.407L17.714,15.577C18.19,15.984 18.489,16.424 18.545,16.506C18.414,16.045 18.175,14.472 18.812,13.404C19.553,12.162 21.583,11.324 21.665,11.345C21.994,11.43 18.908,11.302 18.669,11.293C18.701,11.13 19.001,9.609 19.073,9.256C19.173,9.123 19.388,8.675 18.958,8.408C18.436,8.084 18.588,8.927 18.598,8.981C18.135,8.775 17.818,8.822 17.75,8.832C17.174,8.916 15.617,8.149 15.443,8.063C15.524,8.163 16.134,8.914 16.618,9.169C16.182,9.272 15.266,9.007 15.153,8.975C15.641,9.333 16.66,9.924 17.195,9.913C17.29,9.912 17.734,9.903 18.361,10.096L18.116,11.27C16.975,11.23 16.322,11.252 16.166,11.258C16.114,11.335 15.754,12.021 15.468,13.153C15.17,14.332 15.764,15.614 15.974,15.956C16.036,15.669 16.331,14.969 16.975,15.143L17.199,15.234L16.921,16.263C16.796,16.238 16.044,16.039 16.056,16.63C16.064,17.003 16.524,17.149 16.474,17.133C16.452,17.292 16.442,17.967 16.623,18.647C16.929,19.794 15.506,18.668 15.352,18.564L15.169,18.464L15.175,18.459C14.122,17.816 13.216,17.43 12.843,17.272C12.809,17.223 12.36,16.572 12.12,17.094C11.888,17.601 12.595,17.671 12.658,17.677C13.45,18.055 13.871,18.293 13.974,18.352C13.928,18.373 13.497,18.57 13.699,18.92C13.933,19.329 14.848,19.092 16.036,20.616C16.135,20.743 17.557,22.717 18.841,24.024C18.925,24.11 22.428,25.313 24.75,25.308C27.929,25.3 32.306,24.174 32.28,24.084C32.233,23.921 31.829,22.536 31.047,22.357C32.524,20.923 32.779,19.443 32.796,19.186C32.836,19.18 33.259,19.026 33.559,18.378C33.823,17.807 33.551,17.561 33.5,17.514C34.2,15.991 35.211,13.607 35.244,13.534C35.443,13.096 35.305,12.945 35.222,12.964C34.984,13.018 34.674,13.832 34.642,13.915ZM24.134,22.416C23.923,22.388 22.844,22.244 21.621,21.524C21.671,21.395 21.928,20.733 22.208,19.893L22.517,20.025C23.666,20.623 25.456,22.131 25.754,22.411C25.626,22.429 24.95,22.524 24.134,22.416Z" style="fill:rgb(255,204,77);fill-rule:nonzero;"/>
                </g>
                <g transform="matrix(0.896117,3.24196e-17,-3.24196e-17,0.896117,222.704,233.585)">
                    <path d="M35.544,23.19C34.809,22.632 34.056,22.976 33.848,23.569C33.805,23.694 33.547,24.429 32.192,23.527C31.059,22.773 30.718,23.811 30.679,23.93C30.474,24.555 29.612,24.706 28.806,24.164C28.102,23.689 27.201,24.15 26.812,24.651C26.306,25.304 25.746,24.893 25.253,24.56C24.262,23.89 23.51,24.22 23.21,24.632C22.699,25.336 21.725,24.151 21.676,24.101C20.863,23.271 20.014,23.269 19.606,23.472C18.752,23.898 17.898,22.958 17.853,22.912C17.75,22.809 16.817,21.868 16.112,22.358C15.673,22.663 15.181,23.078 14.085,22.043C12.984,21.005 12.097,22.007 11.664,22.316C11.177,22.664 10.759,22.125 10.62,21.8L10.541,22.454C10.682,22.781 11.104,23.318 11.589,22.972C12.022,22.663 12.907,21.66 14.011,22.699C15.11,23.733 15.599,23.32 16.038,23.013C16.742,22.522 17.676,23.464 17.779,23.568C17.835,23.625 18.68,24.551 19.53,24.128C19.937,23.925 20.788,23.926 21.598,24.756C21.652,24.811 22.62,25.991 23.131,25.288C23.432,24.875 24.188,24.546 25.176,25.216C25.66,25.544 26.225,25.967 26.737,25.314C27.125,24.82 28.026,24.366 28.734,24.844C29.536,25.388 30.403,25.242 30.608,24.625C30.647,24.507 30.985,23.49 32.121,24.237C32.232,24.309 33.478,25.127 33.778,24.281C33.983,23.703 34.733,23.367 35.472,23.909C36.087,24.36 36.646,24.209 36.76,24.151L36.829,23.448C36.718,23.506 36.159,23.659 35.544,23.19Z" style="fill-rule:nonzero;"/>
                </g>
                <g transform="matrix(0.896117,3.24196e-17,-3.24196e-17,0.896117,222.704,233.585)">
                    <path d="M35.473,23.909C34.734,23.367 33.984,23.703 33.779,24.281C33.479,25.127 32.233,24.309 32.123,24.236C30.987,23.491 30.648,24.507 30.609,24.625C30.404,25.241 29.539,25.387 28.735,24.844C28.028,24.366 27.127,24.819 26.738,25.314C26.226,25.967 25.661,25.544 25.177,25.216C24.189,24.546 23.433,24.875 23.133,25.288C22.621,25.992 21.651,24.809 21.599,24.756C20.788,23.925 19.938,23.925 19.531,24.128C18.68,24.553 17.828,23.617 17.78,23.568C17.677,23.464 16.743,22.523 16.039,23.014C15.6,23.32 15.112,23.733 14.012,22.699C12.907,21.66 12.023,22.662 11.59,22.972C11.104,23.318 10.682,22.781 10.541,22.454L10.467,23.077C10.611,23.406 11.038,23.943 11.522,23.596C11.955,23.286 12.837,22.284 13.946,23.323C15.047,24.356 15.532,23.946 15.971,23.638C16.672,23.146 17.607,24.089 17.71,24.192C17.769,24.251 18.613,25.175 19.46,24.752C19.864,24.549 20.714,24.549 21.526,25.381C21.58,25.436 22.547,26.615 23.057,25.913C23.357,25.499 24.114,25.169 25.102,25.84C25.585,26.168 26.15,26.594 26.665,25.944C27.052,25.453 27.955,25.005 28.665,25.486C29.468,26.029 30.337,25.887 30.541,25.278C30.581,25.16 30.916,24.162 32.056,24.9C32.167,24.972 33.414,25.78 33.714,24.945C33.918,24.379 34.666,24.049 35.408,24.575C36.023,25.012 36.581,24.862 36.696,24.803L36.76,24.151C36.647,24.209 36.089,24.36 35.473,23.909ZM12.403,24.674C12.947,24.099 13.759,24.119 14.379,24.78C14.97,25.411 15.089,25.121 15.914,24.862C16.575,24.654 17.414,24.933 17.547,25.451C17.67,25.93 16.698,25.07 16.123,25.4C15.487,25.762 14.464,25.692 13.853,24.976C13.177,24.183 11.687,25.429 12.403,24.674ZM19.428,26.271C20.546,27.034 21.344,26.764 21.505,26.71C22.357,26.422 22.918,26.974 23.421,27.495C24.175,28.275 24.874,27.92 25.433,27.616C25.613,27.518 26.71,26.654 27.74,27.046C27.851,27.088 28.875,27.527 29.557,27.194C29.951,27.001 29.476,27.714 28.561,27.655C27.94,27.615 26.968,27.078 26.093,27.639C25.501,28.019 24.131,28.858 23.222,27.85C22.503,27.052 22.022,26.906 21.364,27.11C20.798,27.285 20.181,27.123 19.889,26.874C19.472,26.52 19.097,26.045 19.428,26.271ZM31.643,26.865C31.95,27.017 32.371,27.051 32.792,26.707C33.267,26.32 33.857,26.686 34.013,26.757C34.049,26.774 34.041,26.782 34.392,27.089C34.17,27.116 34.193,27.182 33.977,27.14C33.65,27.077 33.197,26.687 32.767,26.971C32.689,27.022 31.895,27.547 31.617,27.129C31.519,26.981 31.326,26.709 31.643,26.865ZM15.195,26.544C15.407,26.48 16.518,26.097 17.146,27.058C17.714,27.924 18.096,27.617 18.502,27.489C18.779,27.401 19.393,27.04 20.129,27.789C20.725,28.395 21.098,28.467 21.467,28.368C21.61,28.329 21.601,28.386 21.808,28.415C21.619,28.522 21.649,28.557 21.445,28.62C21.326,28.656 20.597,28.878 19.968,28.156C19.702,27.849 19.314,27.403 18.672,27.8C18.102,28.152 17.38,28.07 16.926,27.44C16.655,27.064 16.44,26.668 15.782,26.833C15.358,26.94 15.36,26.898 14.959,26.697L15.195,26.544ZM24.808,29.056C24.81,29.055 26.318,28.069 27.026,28.745C27.769,29.454 28.503,28.732 28.724,28.574C28.808,28.514 29.848,27.461 30.706,28.068C31.474,28.61 32.053,28.459 32.46,28.226C32.958,27.941 32.346,28.485 32.147,28.557C32.021,28.602 31.059,28.95 30.477,28.493C29.854,28.005 29.292,28.528 29.02,28.815C28.459,29.407 27.158,29.657 26.729,29.21C26.321,28.786 25.315,29.201 25.202,29.248C24.932,29.359 24.934,29.307 24.484,29.304C24.648,29.178 24.609,29.156 24.808,29.056ZM11.584,26.943C12.19,26.378 12.981,27.243 13.064,27.334C13.68,28.007 13.987,27.882 14.526,27.682C15.141,27.452 15.883,27.619 16.157,28.016C16.277,28.19 16.232,28.199 16.319,28.413C16.108,28.322 16.11,28.366 15.954,28.256C15.679,28.06 15.267,27.785 14.701,28.155C14.192,28.488 13.241,28.463 12.849,27.955C12.844,27.948 12.29,27.075 11.847,27.252C11.847,27.252 11.364,27.3 11.323,27.304C11.454,27.123 11.411,27.104 11.584,26.943ZM20.236,29.333C20.579,29.088 21.368,28.933 22.055,29.829C22.663,30.621 22.83,30.646 23.447,30.324C23.869,30.104 24.7,29.588 25.374,30.232C26.107,30.931 26.536,30.587 26.954,30.333C27.121,30.232 28.044,29.527 28.789,30.013C29.341,30.373 29.884,30.524 30.529,30.075C30.806,29.882 31.067,29.832 31.076,29.828C31.043,29.866 30.669,30.308 30.669,30.308C30.161,30.761 29.338,30.932 28.849,30.488C28.138,29.84 27.591,30.229 27.128,30.572C26.488,31.046 25.595,31.107 25.157,30.623C24.603,30.011 24.107,30.404 23.839,30.587C23.715,30.671 22.647,31.398 21.994,30.254C21.474,29.34 20.875,29.529 20.601,29.598C20.601,29.598 20.039,29.611 19.99,29.612C20.138,29.445 20.099,29.431 20.236,29.333Z" style="fill:rgb(187,221,245);fill-rule:nonzero;"/>
                </g>
                <g transform="matrix(0.896117,3.24196e-17,-3.24196e-17,0.896117,222.704,233.585)">
                    <path d="M1.125,22.002C1.022,22.707 0.496,25.824 0.333,26.993C0.033,29.147 1.724,31.049 4.002,30.751C5.349,30.575 8.41,30.04 9.999,29.863C9.996,26.264 10.619,21.89 10.734,20.871C7.149,21.287 5.53,22.004 1.125,22.002Z" style="fill:rgb(202,0,0);fill-rule:nonzero;"/>
                </g>
                <g transform="matrix(0.896117,3.24196e-17,-3.24196e-17,0.896117,222.704,233.585)">
                    <path d="M8.633,23.747C8.253,23.95 7.875,23.983 7.476,23.488C7.402,23.396 7.312,23.335 7.203,23.292C7.356,23.305 7.507,23.336 7.659,23.349C7.753,23.357 7.848,23.363 7.943,23.356C8.426,23.321 8.895,22.928 8.964,22.87C8.764,22.715 8.263,22.652 8.2,22.644C7.736,22.584 6.903,22.847 6.574,23.278L5.934,23.467C5.618,23.556 5.233,23.448 5.284,23.462C5.289,23.393 5.298,22.724 4.515,22.822C3.874,22.902 3.673,23.466 3.646,23.606C3.513,23.678 3.304,23.428 3.329,23.278C3.424,22.73 3.179,22.787 2.618,22.813C2.179,22.834 2.141,22.874 2.065,23.304C1.983,23.772 2.314,23.745 2.414,23.848C2.417,24.031 2.58,24.702 3.46,24.513C3.494,24.603 3.461,24.9 3.47,24.803C3.323,24.857 3.155,24.854 3,24.829C2.784,24.795 2.287,24.641 2.169,25.33C2.134,25.53 2.188,25.675 2.387,25.734C2.64,25.81 2.631,25.755 3.616,25.648C4.37,25.567 4.605,25.079 4.63,24.973C5.057,24.792 5.458,24.756 5.532,24.749C5.406,24.867 5.407,25.111 5.518,25.24C5.637,25.377 6.412,25.248 6.489,25.235C6.808,25.182 7.004,24.877 6.979,24.542C7.191,24.678 8.136,24.225 8.056,24.361C7.939,24.558 8.113,25.041 8.816,24.655C9.495,24.28 9.034,23.533 8.633,23.747Z" style="fill:rgb(255,204,77);fill-rule:nonzero;"/>
                </g>
                <g transform="matrix(0.896117,3.24196e-17,-3.24196e-17,0.896117,222.704,233.585)">
                    <path d="M4.186,23.775C4.344,23.756 4.439,23.89 4.414,24.037C4.388,24.195 4.25,24.349 4.087,24.368C3.928,24.387 3.832,24.251 3.857,24.103C3.884,23.945 4.023,23.794 4.186,23.775Z"/>
                </g>
                <g transform="matrix(0.896117,3.24196e-17,-3.24196e-17,0.896117,222.704,233.585)">
                    <path d="M4.229,23.518C4.213,23.616 4.067,23.667 3.992,23.675C3.927,23.682 3.783,23.668 3.8,23.566C3.817,23.468 3.964,23.418 4.037,23.41C4.102,23.403 4.247,23.417 4.229,23.518Z" style="fill-rule:nonzero;"/>
                </g>
                <g transform="matrix(0.896117,3.24196e-17,-3.24196e-17,0.896117,222.704,233.585)">
                    <path d="M4.529,23.351C4.593,23.343 4.737,23.355 4.72,23.456C4.704,23.554 4.559,23.607 4.485,23.616C4.42,23.625 4.276,23.612 4.293,23.51C4.309,23.413 4.455,23.361 4.529,23.351Z"/>
                </g>
                <g transform="matrix(0.896117,3.24196e-17,-3.24196e-17,0.896117,222.704,233.585)">
                    <path d="M8.261,27.265C7.881,27.466 7.485,27.504 7.043,27.004C6.961,26.912 6.864,26.851 6.749,26.808C6.909,26.821 7.067,26.852 7.227,26.865C7.325,26.873 7.424,26.88 7.522,26.872C8.022,26.837 8.491,26.444 8.562,26.385C8.348,26.229 7.825,26.165 7.759,26.157C7.272,26.096 6.416,26.363 6.094,26.793L5.437,26.983C5.112,27.072 4.71,26.963 4.762,26.977C4.763,26.959 4.78,26.231 3.948,26.332C3.293,26.412 3.103,26.974 3.08,27.12C2.943,27.195 2.723,26.945 2.745,26.791C2.828,26.23 2.58,26.296 2.013,26.322C1.569,26.342 1.529,26.383 1.463,26.816C1.391,27.285 1.731,27.262 1.833,27.364C1.844,27.556 2.048,28.22 2.933,28.031C2.973,28.12 2.958,28.42 2.962,28.323C2.811,28.378 2.64,28.374 2.482,28.349C2.294,28.32 1.739,28.146 1.67,28.85C1.65,29.055 1.72,29.198 1.924,29.256C2.181,29.33 2.171,29.276 3.175,29.17C3.962,29.086 4.155,28.581 4.17,28.493C4.6,28.312 5.016,28.275 5.092,28.268C4.963,28.392 4.995,28.64 5.112,28.76C5.247,28.897 6.044,28.768 6.124,28.755C6.442,28.704 6.636,28.418 6.585,28.061C6.816,28.198 7.772,27.743 7.696,27.88C7.586,28.08 7.803,28.56 8.506,28.174C9.179,27.804 8.674,27.046 8.261,27.265Z" style="fill:rgb(255,204,77);fill-rule:nonzero;"/>
                </g>
                <g transform="matrix(0.896117,3.24196e-17,-3.24196e-17,0.896117,222.704,233.585)">
                    <path d="M3.89,27.555C3.871,27.716 3.734,27.868 3.569,27.887C3.41,27.905 3.3,27.775 3.319,27.621C3.339,27.46 3.478,27.311 3.642,27.292C3.801,27.273 3.908,27.403 3.89,27.555ZM3.676,27.033C3.662,27.134 3.522,27.182 3.438,27.191C3.373,27.198 3.222,27.184 3.236,27.081C3.25,26.982 3.403,26.932 3.475,26.925C3.54,26.918 3.69,26.93 3.676,27.033ZM4.179,26.971C4.166,27.071 4.015,27.123 3.943,27.132C3.878,27.141 3.727,27.129 3.741,27.026C3.754,26.926 3.906,26.875 3.978,26.866C4.043,26.858 4.192,26.869 4.179,26.971Z" style="fill-rule:nonzero;"/>
                </g>
                <g transform="matrix(0.896117,3.24196e-17,-3.24196e-17,0.896117,222.704,233.585)">
                    <path d="M1.083,14.014C5.388,14.02 7.13,13.286 10.692,12.866C10.817,14.015 11.139,17.307 10.734,20.871C7.149,21.287 5.53,22.004 1.125,22.002C1.426,19.933 1.671,17.192 1.083,14.014Z" style="fill:rgb(238,238,238);fill-rule:nonzero;"/>
                </g>
                <g transform="matrix(0.896117,3.24196e-17,-3.24196e-17,0.896117,222.704,233.585)">
                    <path d="M3.582,17.372L3.301,16.974C3.298,16.923 3.254,16.355 3.14,16.363C3.044,16.369 3.053,16.939 3.053,16.989L2.8,17.421C2.74,17.521 2.812,17.591 2.916,17.586L3.1,17.577C3.115,17.664 3.11,17.83 3.199,17.824C3.29,17.819 3.279,17.656 3.291,17.565L3.474,17.552C3.575,17.545 3.649,17.469 3.582,17.372ZM3.23,15.917C3.24,16.028 3.253,16.135 3.122,16.143C2.991,16.151 2.984,16.045 2.973,15.933C2.968,15.876 2.927,15.494 3.054,15.486C3.186,15.478 3.223,15.849 3.23,15.917ZM3.457,16.39C3.34,16.399 3.252,16.4 3.242,16.271C3.231,16.141 3.319,16.13 3.436,16.121C3.502,16.116 3.845,16.089 3.855,16.22C3.865,16.353 3.526,16.385 3.457,16.39ZM2.829,16.429C2.945,16.424 3.036,16.414 3.025,16.284C3.015,16.154 2.924,16.155 2.807,16.16C2.744,16.163 2.391,16.179 2.402,16.31C2.413,16.444 2.756,16.433 2.829,16.429ZM6.52,16.974L6.249,16.598C6.245,16.548 6.204,15.98 6.096,15.998C6.002,16.014 6.01,16.587 6.011,16.638L5.769,17.1C5.718,17.198 5.772,17.272 5.881,17.254L6.057,17.225C6.071,17.31 6.068,17.479 6.152,17.465C6.246,17.449 6.229,17.289 6.24,17.195L6.416,17.164C6.512,17.148 6.585,17.067 6.52,16.974ZM6.185,15.541C6.195,15.652 6.206,15.758 6.08,15.779C5.951,15.801 5.948,15.69 5.939,15.582C5.926,15.428 5.869,15.151 6.021,15.125C6.147,15.104 6.181,15.487 6.185,15.541ZM6.401,15.996C6.287,16.016 6.203,16.024 6.194,15.896C6.185,15.769 6.266,15.747 6.382,15.727C6.439,15.717 6.777,15.661 6.786,15.791C6.795,15.923 6.477,15.982 6.401,15.996ZM5.797,16.098C5.913,16.079 5.995,16.058 5.986,15.931C5.977,15.802 5.892,15.811 5.778,15.829C5.704,15.841 5.381,15.895 5.391,16.026C5.4,16.157 5.737,16.108 5.797,16.098ZM9.475,16.438L9.205,16.06C9.201,16.011 9.162,15.442 9.055,15.46C8.96,15.477 8.967,16.05 8.967,16.102L8.726,16.569C8.675,16.667 8.726,16.743 8.837,16.723L9.012,16.692C9.026,16.777 9.023,16.947 9.108,16.932C9.202,16.916 9.183,16.754 9.194,16.66L9.37,16.629C9.468,16.614 9.541,16.532 9.475,16.438ZM9.15,15.003C9.158,15.115 9.168,15.219 9.042,15.241C8.914,15.264 8.912,15.153 8.905,15.047C8.893,14.892 8.841,14.617 8.993,14.591C9.117,14.569 9.147,14.952 9.15,15.003ZM9.36,15.457C9.247,15.477 9.162,15.486 9.154,15.357C9.146,15.231 9.227,15.209 9.343,15.189C9.401,15.179 9.74,15.126 9.748,15.257C9.757,15.388 9.434,15.445 9.36,15.457ZM8.759,15.563C8.874,15.542 8.956,15.52 8.948,15.394C8.94,15.265 8.855,15.274 8.742,15.295C8.665,15.309 8.349,15.369 8.357,15.501C8.365,15.631 8.702,15.573 8.759,15.563ZM7.021,14.191C6.977,14.294 7.04,14.37 7.149,14.35L7.326,14.318C7.349,14.407 7.356,14.582 7.447,14.566C7.541,14.548 7.507,14.381 7.509,14.285L7.686,14.253C7.789,14.234 7.843,14.145 7.773,14.055L7.461,13.666L7.402,13.381L7.2,13.416L7.222,13.708L7.021,14.191ZM4.078,14.636C4.033,14.742 4.105,14.817 4.214,14.805L4.395,14.783C4.421,14.875 4.428,15.051 4.523,15.039C4.617,15.027 4.581,14.855 4.582,14.76L4.762,14.737C4.871,14.722 4.918,14.631 4.847,14.542L4.518,14.133L4.45,13.841L4.243,13.865L4.274,14.162L4.078,14.636ZM1.854,18.521C1.851,18.653 1.831,18.729 1.692,18.728C1.552,18.727 1.539,18.65 1.542,18.518C1.544,18.438 1.56,18.1 1.705,18.101C1.853,18.103 1.856,18.44 1.854,18.521ZM2.063,18.989C1.95,18.989 1.813,19 1.818,18.858C1.824,18.718 1.959,18.73 2.074,18.731C2.128,18.732 2.511,18.726 2.505,18.856C2.501,18.993 2.128,18.99 2.063,18.989ZM1.524,15.213C1.617,15.214 1.598,15.038 1.6,14.945L1.82,14.947C1.937,14.947 2.015,14.869 1.925,14.765L1.531,14.314L1.452,14.014L1.208,14.014L1.239,14.312L1.161,14.459L1.235,14.942L1.373,14.943C1.404,15.041 1.421,15.212 1.524,15.213ZM1.58,20.365C1.675,20.365 1.693,20.207 1.719,20.115L1.942,20.116C2.03,20.116 2.171,20.063 2.092,19.949L1.801,19.539C1.802,19.49 1.822,18.94 1.684,18.939C1.563,18.938 1.505,19.487 1.5,19.537L1.385,19.67L1.35,20.113L1.489,20.114C1.497,20.202 1.491,20.365 1.58,20.365ZM1.556,18.856C1.56,18.762 1.535,18.747 1.435,18.734L1.426,18.977C1.524,18.965 1.552,18.95 1.556,18.856ZM5.02,19.736L4.786,19.359C4.788,19.311 4.806,18.757 4.695,18.771C4.599,18.783 4.548,19.338 4.543,19.388L4.253,19.828C4.191,19.921 4.239,19.997 4.35,19.984L4.53,19.964C4.536,20.048 4.519,20.215 4.602,20.205C4.697,20.194 4.696,20.035 4.717,19.942L4.897,19.919C4.988,19.907 5.08,19.833 5.02,19.736ZM4.832,18.332C4.83,18.445 4.828,18.542 4.703,18.558C4.575,18.573 4.581,18.47 4.583,18.363C4.586,18.212 4.562,17.946 4.712,17.927C4.837,17.912 4.833,18.283 4.832,18.332ZM5,18.778C4.89,18.793 4.799,18.803 4.804,18.675C4.808,18.549 4.894,18.533 5.008,18.518C5.057,18.511 5.408,18.466 5.404,18.592C5.4,18.723 5.079,18.768 5,18.778ZM4.387,18.854C4.501,18.841 4.589,18.826 4.593,18.701C4.598,18.572 4.506,18.581 4.396,18.594C4.249,18.61 3.992,18.618 3.986,18.766C3.982,18.895 4.334,18.86 4.387,18.854ZM7.95,19.257L7.716,18.888C7.717,18.84 7.729,18.281 7.62,18.301C7.526,18.318 7.482,18.879 7.478,18.93L7.198,19.39C7.141,19.483 7.181,19.561 7.294,19.541L7.47,19.51C7.477,19.592 7.462,19.762 7.543,19.747C7.639,19.731 7.633,19.573 7.653,19.478L7.83,19.446C7.919,19.43 8.01,19.353 7.95,19.257ZM7.751,17.852C7.749,17.965 7.748,18.064 7.625,18.086C7.498,18.109 7.505,18.001 7.506,17.897C7.509,17.742 7.479,17.479 7.63,17.451C7.753,17.428 7.751,17.808 7.751,17.852ZM7.919,18.294C7.81,18.314 7.723,18.327 7.726,18.198C7.729,18.074 7.811,18.052 7.925,18.031C7.973,18.023 8.319,17.963 8.316,18.091C8.313,18.222 8.001,18.279 7.919,18.294ZM7.319,18.403C7.433,18.382 7.516,18.361 7.519,18.236C7.522,18.108 7.434,18.121 7.325,18.14C7.244,18.155 6.932,18.212 6.929,18.342C6.925,18.47 7.272,18.411 7.319,18.403ZM10.744,17.355C10.744,17.468 10.744,17.568 10.618,17.585C10.49,17.602 10.496,17.495 10.497,17.388C10.497,17.235 10.468,16.965 10.62,16.944C10.745,16.927 10.745,17.306 10.744,17.355ZM10.013,13.678C9.966,13.781 10.031,13.853 10.139,13.838L10.319,13.812C10.34,13.901 10.344,14.073 10.435,14.06C10.528,14.048 10.5,13.881 10.505,13.787L10.685,13.763C10.725,13.758 10.747,13.741 10.776,13.712L10.761,13.552L10.473,13.179L10.424,12.899L10.219,12.926L10.231,13.211L10.013,13.678ZM10.616,17.801C10.52,17.814 10.483,18.379 10.479,18.431L10.201,18.884C10.143,18.979 10.189,19.056 10.301,19.04L10.48,19.016C10.488,19.101 10.474,19.27 10.558,19.259C10.654,19.247 10.648,19.086 10.666,18.992L10.846,18.97L10.891,18.946L10.904,18.689L10.719,18.4C10.72,18.351 10.726,17.786 10.616,17.801ZM10.722,17.703C10.721,17.833 10.809,17.824 10.921,17.81L10.932,17.808L10.935,17.545L10.925,17.545C10.809,17.56 10.724,17.577 10.722,17.703ZM10.31,17.892C10.425,17.876 10.51,17.858 10.512,17.732C10.514,17.603 10.425,17.611 10.314,17.627C10.234,17.639 9.916,17.688 9.914,17.819C9.912,17.947 10.259,17.899 10.31,17.892ZM8.785,21.151L9.008,21.115C9.017,20.966 9.097,20.646 8.95,20.671C8.873,20.683 8.793,21.111 8.785,21.151ZM9.117,20.226C9.106,20.34 9.096,20.437 8.972,20.458C8.843,20.479 8.859,20.37 8.869,20.266C8.884,20.11 8.875,19.849 9.03,19.824C9.152,19.804 9.12,20.188 9.117,20.226ZM9.25,20.67C9.141,20.687 9.05,20.7 9.063,20.571C9.076,20.446 9.161,20.426 9.277,20.408C9.319,20.401 9.678,20.349 9.665,20.477C9.653,20.606 9.258,20.669 9.25,20.67ZM8.64,20.769C8.756,20.75 8.841,20.729 8.854,20.605C8.868,20.475 8.776,20.489 8.668,20.507C8.58,20.522 8.27,20.574 8.256,20.706C8.242,20.832 8.6,20.776 8.64,20.769ZM6.137,20.731C6.125,20.845 6.113,20.943 5.989,20.962C5.859,20.983 5.877,20.874 5.889,20.771C5.906,20.615 5.902,20.356 6.056,20.331C6.179,20.312 6.141,20.695 6.137,20.731ZM6.263,21.174C6.155,21.192 6.063,21.205 6.079,21.076C6.093,20.951 6.178,20.932 6.294,20.913C6.333,20.906 6.693,20.851 6.678,20.977C6.663,21.109 6.351,21.16 6.263,21.174ZM5.652,21.27C5.768,21.253 5.854,21.233 5.869,21.109C5.885,20.979 5.792,20.992 5.684,21.009C5.671,21.011 5.282,21.07 5.266,21.198C5.25,21.326 5.611,21.276 5.652,21.27ZM5.792,21.655L6.015,21.62C6.026,21.471 6.111,21.152 5.964,21.175C5.886,21.187 5.8,21.615 5.792,21.655ZM2.716,21.983L2.949,21.971C2.961,21.819 3.053,21.507 2.9,21.515C2.819,21.519 2.725,21.944 2.716,21.983ZM3.085,21.086C3.071,21.201 3.057,21.297 2.929,21.303C2.797,21.31 2.812,21.207 2.826,21.099C2.846,20.947 2.852,20.683 3.006,20.675C3.134,20.668 3.091,21.038 3.085,21.086ZM3.21,21.545C3.099,21.552 3.003,21.557 3.02,21.427C3.038,21.3 3.128,21.291 3.246,21.284C3.291,21.281 3.659,21.257 3.642,21.384C3.624,21.516 3.294,21.54 3.21,21.545ZM2.574,21.577C2.692,21.573 2.784,21.565 2.802,21.438C2.82,21.307 2.721,21.312 2.61,21.316C2.456,21.321 2.192,21.304 2.17,21.456C2.15,21.586 2.524,21.579 2.574,21.577Z" style="fill:rgb(41,47,51);fill-rule:nonzero;"/>
                </g>
                <g transform="matrix(0.896117,3.24196e-17,-3.24196e-17,0.896117,222.704,233.585)">
                    <path d="M1.083,14.014C1.009,13.615 0.445,10.564 0.255,9.01C-0.023,6.74 1.891,5.026 4,4.757L5.016,5.611L6,4.468C6.319,4.418 8.974,4.004 10,3.893C10,6.756 10.25,8.779 10.692,12.866C9.714,12.982 7.236,13.41 6.936,13.462L5.837,12.626L5.059,13.762C2.918,14.061 1.388,14.014 1.083,14.014Z" style="fill:rgb(220,36,31);fill-rule:nonzero;"/>
                </g>
                <g transform="matrix(0.896117,3.24196e-17,-3.24196e-17,0.896117,222.704,233.585)">
                    <path d="M10.02,5.36L10,3.893L9.433,3.959C8.55,4.732 6.397,7.264 6.145,7.561L5.251,8.612L4.165,7.854C2.641,6.76 1.74,6.011 1.536,5.841L1.534,5.84L1.533,5.841C0.943,6.346 0.666,6.88 0.612,6.984L0.615,6.987C0.803,7.146 1.714,7.915 3.042,8.887C3.149,8.959 3.663,9.302 4.395,9.766C3.77,10.453 3.426,10.822 3.342,10.913C2.032,12.467 1.505,13.003 0.984,13.493L1.083,14.014C1.949,14.015 1.929,14.033 2.807,13.987C2.954,13.798 2.974,13.817 4.694,11.665L5.522,10.64L6.618,11.374C6.783,11.486 8.746,12.805 9.128,13.087C9.989,12.949 10.567,12.881 10.692,12.866L10.639,12.365C9.454,11.508 7.921,10.456 7.683,10.292L6.352,9.475C6.951,8.803 7.359,8.359 7.447,8.262C8.81,6.632 9.806,5.585 10.02,5.36Z" style="fill:rgb(0,149,67);fill-rule:nonzero;"/>
                </g>
                <g transform="matrix(0.896117,3.24196e-17,-3.24196e-17,0.896117,222.704,233.585)">
                    <path d="M6.234,8.457C5.989,6.215 6,4.616 6,4.468C4.796,4.656 4.16,4.737 4,4.757C4,6.574 4.226,8.431 4.264,8.749C2.099,9.03 0.614,8.989 0.253,8.989L0.255,9.01C0.274,9.17 0.369,9.945 0.542,11.013C0.898,11.014 2.404,11.057 4.55,10.777C4.588,11.016 4.599,11.009 5.059,13.762C5.209,13.741 5.812,13.656 6.936,13.462C6.716,11.972 6.701,11.988 6.49,10.487C6.8,10.437 9.366,10.021 10.372,9.911C10.249,8.752 10.189,8.04 10.175,7.877C9.158,7.988 6.549,8.407 6.234,8.457Z" style="fill:rgb(238,238,238);fill-rule:nonzero;"/>
                </g>
            </g>
        </g>
    </g>
</svg>
