<?xml version="1.0" encoding="UTF-8" standalone="no"?>
<!DOCTYPE svg PUBLIC "-//W3C//DTD SVG 1.1//EN" "http://www.w3.org/Graphics/SVG/1.1/DTD/svg11.dtd">
<svg width="100%" height="100%" viewBox="0 0 512 512" version="1.1" xmlns="http://www.w3.org/2000/svg" xmlns:xlink="http://www.w3.org/1999/xlink" xml:space="preserve" xmlns:serif="http://www.serif.com/" style="fill-rule:evenodd;clip-rule:evenodd;stroke-linejoin:round;stroke-miterlimit:2;">
    <g transform="matrix(1.11593,-4.03717e-17,4.03717e-17,1.11593,-13.9687,-19.1113)">
        <g transform="matrix(11.1111,-1.36955e-31,4.93038e-32,11.1111,-2411.79,-2528.08)">
            <g>
                <g transform="matrix(0.896117,3.24196e-17,-3.24196e-17,0.896117,222.704,233.585)">
                    <path d="M32,5.435C31.457,5.519 28.522,6.018 26.999,6.176C26.999,10.266 28.041,14.857 28,19.395C27.949,24.913 27.152,27.5 27.016,32.27C29.27,32.136 31.666,31.795 32.068,31.737C34.174,31.437 36.262,29.289 36.469,27.17C37.446,17.169 37.37,17.149 36.301,9.019C36.029,6.947 34.301,5.078 32,5.435Z" style="fill:rgb(0,158,96);fill-rule:nonzero;"/>
                </g>
                <g transform="matrix(0.896117,3.24196e-17,-3.24196e-17,0.896117,222.704,233.585)">
                    <path d="M4,4.757C1.891,5.026 -0.023,6.74 0.255,9.01C0.711,12.739 1.442,14.73 1.448,17.925C1.455,20.985 0.727,24.164 0.333,26.993C0.033,29.147 1.724,31.049 4.002,30.751C5.197,30.594 7.892,30.139 9,29.988C9,24.349 10.163,21.62 9.972,15.786C9.874,12.808 9,8.65 9,4.014C7.982,4.15 5.191,4.606 4,4.757Z" style="fill:rgb(0,114,198);fill-rule:nonzero;"/>
                </g>
                <g transform="matrix(0.896117,3.24196e-17,-3.24196e-17,0.896117,222.704,233.585)">
                    <path d="M9,4.014C18.585,2.737 18.647,7.042 26.999,6.176C26.999,10.266 28.041,14.857 28,19.395C27.949,24.913 27.152,27.5 27.016,32.27C17.85,32.815 18.109,28.741 9,29.988C9,24.349 10.163,21.62 9.972,15.786C9.874,12.808 9,8.65 9,4.014Z" style="fill:rgb(252,209,22);fill-rule:nonzero;"/>
                </g>
                <g transform="matrix(0.896117,3.24196e-17,-3.24196e-17,0.896117,222.704,233.585)">
                    <path d="M16.356,22.69C16.441,22.931 17.53,26.038 18.133,27.672C19.031,26.372 20.732,24.098 20.772,24.043C20.634,23.637 19.79,21.17 18.887,19.03C17.894,20.609 16.515,22.467 16.356,22.69ZM13.952,16.846C15.078,19.119 15.793,21.099 15.929,21.478C16.135,21.19 17.176,19.732 18.341,17.768C18.162,17.364 17.131,15.045 15.918,12.813C14.916,14.826 14.961,14.833 13.952,16.846ZM19.446,18.119C20.569,20.66 21.303,22.719 21.447,23.125C21.661,22.834 22.744,21.356 23.852,19.313C22.703,16.867 21.637,14.842 21.435,14.458C20.514,16.334 19.617,17.833 19.446,18.119Z" style="fill:rgb(0,158,96);fill-rule:nonzero;"/>
                </g>
            </g>
        </g>
    </g>
</svg>
