<?xml version="1.0" encoding="UTF-8" standalone="no"?>
<!DOCTYPE svg PUBLIC "-//W3C//DTD SVG 1.1//EN" "http://www.w3.org/Graphics/SVG/1.1/DTD/svg11.dtd">
<svg width="100%" height="100%" viewBox="0 0 512 512" version="1.1" xmlns="http://www.w3.org/2000/svg" xmlns:xlink="http://www.w3.org/1999/xlink" xml:space="preserve" xmlns:serif="http://www.serif.com/" style="fill-rule:evenodd;clip-rule:evenodd;stroke-linejoin:round;stroke-miterlimit:2;">
    <g transform="matrix(1.11593,-4.03717e-17,4.03717e-17,1.11593,-13.9687,-19.1113)">
        <g transform="matrix(11.1111,-1.36955e-31,4.93038e-32,11.1111,-2411.79,-2528.08)">
            <g>
                <g transform="matrix(0.896117,3.24196e-17,-3.24196e-17,0.896117,222.704,233.585)">
                    <path d="M15.5,30.084C21.088,31.426 21.239,33.28 32.068,31.737C34.143,31.442 36.262,29.322 36.516,26.682C37.025,21.409 37.033,21.424 37.08,20.514C33.648,20.632 29.124,21.831 25.78,21.857C22.51,21.882 19.338,20.324 16.299,19.606C16.184,21.779 15.51,25.991 15.5,30.084ZM32,5.435C29.649,5.799 26.389,6.454 23.749,6.269C21.424,6.107 17.748,4.634 15.5,4.108C15.5,7.697 16.049,11.148 16.255,14.587C19.845,15.435 22.502,17.01 26.472,16.821C29.662,16.67 33.826,15.618 37.045,15.51C36.885,12.773 36.528,10.747 36.301,9.019C36.029,6.947 34.301,5.078 32,5.435ZM10.5,3.843C8.603,4.018 5.612,4.552 4,4.757C1.893,5.026 -0.021,6.738 0.254,9.007C0.574,11.623 1.151,14.098 1.318,15.595C5.505,15.636 7.702,14.724 11.303,14.333C11.102,11.487 10.5,7.856 10.5,3.843ZM1.31,20.531C1.136,22.212 0.628,24.986 0.404,26.496C0.015,29.137 1.728,31.049 4.002,30.751C5.594,30.542 8.596,29.992 10.499,29.812C10.495,25.67 11.211,21.403 11.341,19.338C7.647,19.708 5.836,20.546 1.31,20.531Z" style="fill:rgb(0,106,167);fill-rule:nonzero;"/>
                </g>
                <g transform="matrix(0.896117,3.24196e-17,-3.24196e-17,0.896117,222.704,233.585)">
                    <path d="M15.5,4.108C13.946,3.744 12.64,3.645 10.5,3.843C10.5,7.856 11.101,11.474 11.303,14.333C7.714,14.723 5.508,15.636 1.318,15.595C1.578,17.929 1.35,20.138 1.31,20.531C5.833,20.546 7.636,19.71 11.341,19.338C11.213,21.377 10.495,25.669 10.499,29.812C12.643,29.609 13.949,29.711 15.5,30.084C15.51,25.993 16.183,21.807 16.299,19.606C19.886,20.453 22.535,22.026 26.501,21.834C29.693,21.68 33.859,20.625 37.08,20.514C37.1,20.114 37.2,18.156 37.045,15.51C33.615,15.625 29.095,16.82 25.75,16.844C22.476,16.867 19.299,15.306 16.255,14.587C16.051,11.174 15.5,7.701 15.5,4.108Z" style="fill:rgb(254,204,0);fill-rule:nonzero;"/>
                </g>
            </g>
        </g>
    </g>
</svg>
