<?xml version="1.0" encoding="UTF-8" standalone="no"?>
<!DOCTYPE svg PUBLIC "-//W3C//DTD SVG 1.1//EN" "http://www.w3.org/Graphics/SVG/1.1/DTD/svg11.dtd">
<svg width="100%" height="100%" viewBox="0 0 512 512" version="1.1" xmlns="http://www.w3.org/2000/svg" xmlns:xlink="http://www.w3.org/1999/xlink" xml:space="preserve" xmlns:serif="http://www.serif.com/" style="fill-rule:evenodd;clip-rule:evenodd;stroke-linejoin:round;stroke-miterlimit:2;">
    <g transform="matrix(1.11593,-4.03717e-17,4.03717e-17,1.11593,-13.9687,-19.1113)">
        <g transform="matrix(11.1115,3.75254e-31,8.87469e-31,11.1115,-2418.74,-2415)">
            <g>
                <g transform="matrix(0.896117,3.24196e-17,-3.24196e-17,0.896117,218.821,223.429)">
                    <path d="M31.272,28.319C31.075,30.238 29.362,32.551 27,32.014C24.328,31.406 20.989,29.87 18.177,29.718C15.584,29.578 11.199,30.467 9.001,30.754C6.725,31.051 5.029,29.148 5.327,26.993C5.752,23.924 6.543,20.615 6.433,17.228C6.344,14.474 5.683,12.473 5.258,9.01C4.979,6.737 6.897,5.027 9,4.759C11.726,4.411 16.062,3.475 18.882,3.806C21.404,4.102 24.563,5.45 26.999,5.993C28.326,6.288 30.946,7.562 31.237,10.286C32.198,19.285 32.194,19.297 31.272,28.319Z" style="fill:rgb(211,45,39);fill-rule:nonzero;"/>
                </g>
                <g transform="matrix(0.896117,3.24196e-17,-3.24196e-17,0.896117,218.821,223.429)">
                    <path d="M25.875,16.528C25.163,16.31 22.377,15.363 20.781,15.036C20.701,13.428 20.413,10.469 20.374,10.072C19.371,9.872 18.176,9.751 16.366,9.885C16.44,10.618 16.733,13.329 16.818,14.856C15.125,15.009 12.408,15.545 12.175,15.588C12.197,15.9 12.313,17.523 12.177,19.496C12.412,19.454 15.144,18.94 16.845,18.8C16.77,20.415 16.53,22.019 16.343,23.828C17.819,23.713 19.033,23.756 20.345,24.025C20.509,22.379 20.745,20.713 20.813,18.991C22.386,19.313 25.054,20.221 25.9,20.48C25.913,20.164 25.976,18.604 25.875,16.528Z" style="fill:white;fill-rule:nonzero;"/>
                </g>
            </g>
        </g>
    </g>
</svg>
