<?xml version="1.0" encoding="UTF-8" standalone="no"?>
<!DOCTYPE svg PUBLIC "-//W3C//DTD SVG 1.1//EN" "http://www.w3.org/Graphics/SVG/1.1/DTD/svg11.dtd">
<svg width="100%" height="100%" viewBox="0 0 512 512" version="1.1" xmlns="http://www.w3.org/2000/svg" xmlns:xlink="http://www.w3.org/1999/xlink" xml:space="preserve" xmlns:serif="http://www.serif.com/" style="fill-rule:evenodd;clip-rule:evenodd;stroke-linejoin:round;stroke-miterlimit:2;">
    <g transform="matrix(1.11593,-4.03717e-17,4.03717e-17,1.11593,-13.9687,-19.1113)">
        <g transform="matrix(11.1111,-1.36955e-31,4.93038e-32,11.1111,-2411.79,-2528.08)">
            <g>
                <g transform="matrix(0.896117,3.24196e-17,-3.24196e-17,0.896117,222.704,233.585)">
                    <path d="M32,5.435C30.709,5.635 26.552,6.416 24.142,6.297C21.782,6.179 18.647,5.002 17,4.511C17,8.802 17.824,12.776 17.873,17.515C10.877,15.422 8.711,18.171 1.448,18.098C1.43,21.06 0.711,24.283 0.333,26.993C0.033,29.147 1.724,31.049 4.002,30.751C11.374,29.786 11.848,28.83 18.359,30.934C21.72,32.019 23.309,32.985 32.068,31.737C34.174,31.437 36.262,29.289 36.469,27.17C37.446,17.169 37.37,17.149 36.301,9.019C36.029,6.947 34.301,5.078 32,5.435Z" style="fill:rgb(254,0,0);fill-rule:nonzero;"/>
                </g>
                <g transform="matrix(0.896117,3.24196e-17,-3.24196e-17,0.896117,222.704,233.585)">
                    <path d="M17,4.511C11.967,3.013 9.73,4.027 4,4.757C1.891,5.026 -0.023,6.74 0.255,9.01C0.717,12.789 1.468,14.816 1.448,18.098C8.709,18.171 10.878,15.422 17.873,17.515C17.824,12.781 17,8.806 17,4.511ZM11.161,8.428C11.318,8.372 12.27,8.031 13.154,7.813C12.488,8.523 11.897,9.214 11.79,9.339C11.559,8.823 11.224,8.49 11.161,8.428ZM11.592,10.306C11.734,11.717 10.638,12.792 9.501,12.964C8.265,13.151 7.051,12.274 6.862,10.937C6.666,9.561 7.661,8.299 8.947,8.117C10.297,7.927 11.461,8.996 11.592,10.306ZM11.241,6.049C11.206,6.217 11.036,7.02 10.839,8.152C10.389,7.82 9.945,7.718 9.861,7.699C10.56,6.827 11.128,6.179 11.241,6.049ZM8.777,5.655C8.828,5.814 9.064,6.563 9.446,7.638C9.17,7.62 8.949,7.652 8.906,7.658C8.863,7.664 8.643,7.695 8.375,7.788C8.561,6.66 8.741,5.824 8.777,5.655ZM7.982,7.961C7.904,8.003 7.488,8.223 7.115,8.657C6.701,7.589 6.444,6.85 6.389,6.692C6.92,7.115 7.451,7.538 7.982,7.961ZM6.858,9.004C6.552,9.482 6.463,9.946 6.447,10.033C5.444,9.268 4.927,8.864 4.796,8.762C4.96,8.783 5.492,8.852 6.858,9.004ZM6.396,10.459C6.384,10.736 6.418,10.965 6.424,11.009C6.464,11.281 6.539,11.498 6.554,11.539C5.347,11.409 4.672,11.315 4.509,11.292C4.661,11.228 5.242,10.984 6.396,10.459ZM6.72,11.926C6.968,12.408 7.309,12.707 7.373,12.763C5.68,13.559 5.692,13.552 5.546,13.622C5.723,13.345 6.625,12.061 6.72,11.926ZM7.431,15.185C7.599,14.087 7.572,14.103 7.694,13.006C8.17,13.312 8.565,13.393 8.647,13.41C8.55,13.552 7.869,14.561 7.431,15.185ZM9.722,15.443C9.672,15.282 9.411,14.445 9.042,13.459C9.083,13.461 9.298,13.47 9.555,13.431C9.596,13.424 9.811,13.391 10.059,13.302C9.907,14.43 9.753,15.272 9.722,15.443ZM10.433,13.137C10.508,13.098 10.881,12.903 11.274,12.491C11.616,13.395 11.921,14.333 11.974,14.495C11.853,14.384 11.245,13.828 10.433,13.137ZM11.533,12.18C11.849,11.743 11.956,11.31 11.976,11.229C12.107,11.34 13.185,12.261 13.591,12.648C12.803,12.413 11.699,12.21 11.533,12.18ZM12.045,10.82C12.049,10.777 12.07,10.552 12.044,10.281C12.039,10.237 12.017,10.008 11.939,9.743C13.18,10.008 13.866,10.247 14.029,10.304C13.868,10.333 13.19,10.451 12.045,10.82Z" style="fill:rgb(0,0,149);fill-rule:nonzero;"/>
                </g>
                <g transform="matrix(0.896117,3.24196e-17,-3.24196e-17,0.896117,222.704,233.585)">
                    <path d="M9.446,7.638C9.064,6.563 8.828,5.814 8.777,5.655C8.741,5.824 8.561,6.66 8.375,7.788C8.643,7.695 8.863,7.664 8.906,7.658C8.949,7.652 9.17,7.62 9.446,7.638ZM6.424,11.009C6.384,10.734 6.394,10.503 6.396,10.459C5.242,10.984 4.661,11.228 4.509,11.292C4.672,11.315 5.347,11.409 6.554,11.539C6.463,11.273 6.43,11.052 6.424,11.009ZM9.042,13.459C9.411,14.445 9.672,15.282 9.722,15.443C9.753,15.272 9.907,14.43 10.059,13.302C9.81,13.391 9.596,13.424 9.555,13.431C9.515,13.437 9.305,13.469 9.042,13.459ZM12.044,10.281C12.07,10.553 12.049,10.777 12.045,10.82C13.19,10.451 13.868,10.333 14.029,10.304C13.866,10.247 13.18,10.008 11.939,9.743C12.018,10.016 12.039,10.237 12.044,10.281ZM11.241,6.049C11.128,6.179 10.56,6.827 9.861,7.699C9.945,7.718 10.39,7.822 10.839,8.152C11.036,7.02 11.206,6.217 11.241,6.049ZM11.533,12.18C11.699,12.21 12.803,12.413 13.591,12.648C13.185,12.261 12.107,11.34 11.976,11.229C11.956,11.31 11.85,11.74 11.533,12.18ZM7.431,15.185C7.53,15.044 7.869,14.561 8.647,13.41C8.565,13.393 8.17,13.312 7.694,13.006C7.572,14.103 7.599,14.087 7.431,15.185ZM6.858,9.004C6.693,8.985 5.492,8.852 4.796,8.762C4.927,8.864 5.444,9.268 6.447,10.033C6.463,9.946 6.552,9.485 6.858,9.004ZM10.433,13.137C11.245,13.828 11.853,14.384 11.974,14.495C11.921,14.333 11.616,13.395 11.274,12.491C10.881,12.902 10.508,13.098 10.433,13.137ZM6.72,11.926C6.625,12.061 5.723,13.345 5.546,13.622C5.692,13.552 5.68,13.559 7.373,12.763C7.309,12.707 6.968,12.41 6.72,11.926ZM7.982,7.961C7.451,7.538 6.92,7.115 6.389,6.692C6.444,6.85 6.701,7.589 7.115,8.657C7.488,8.223 7.904,8.003 7.982,7.961ZM13.154,7.813C12.27,8.031 11.318,8.372 11.161,8.428C11.224,8.49 11.558,8.821 11.79,9.339C11.897,9.214 12.488,8.523 13.154,7.813Z" style="fill:white;fill-rule:nonzero;"/>
                </g>
                <g transform="matrix(0.896117,3.24196e-17,-3.24196e-17,0.896117,222.704,233.585)">
                    <path d="M8.947,8.117C10.297,7.927 11.461,8.996 11.592,10.306C11.734,11.717 10.637,12.792 9.501,12.964C8.266,13.151 7.051,12.273 6.862,10.937C6.666,9.561 7.662,8.299 8.947,8.117Z" style="fill:white;"/>
                </g>
            </g>
        </g>
    </g>
</svg>
