<?xml version="1.0" encoding="UTF-8" standalone="no"?>
<!DOCTYPE svg PUBLIC "-//W3C//DTD SVG 1.1//EN" "http://www.w3.org/Graphics/SVG/1.1/DTD/svg11.dtd">
<svg width="100%" height="100%" viewBox="0 0 512 512" version="1.1" xmlns="http://www.w3.org/2000/svg" xmlns:xlink="http://www.w3.org/1999/xlink" xml:space="preserve" xmlns:serif="http://www.serif.com/" style="fill-rule:evenodd;clip-rule:evenodd;stroke-linejoin:round;stroke-miterlimit:2;">
    <g transform="matrix(1.11593,-4.03717e-17,4.03717e-17,1.11593,-13.9687,-19.1113)">
        <g transform="matrix(11.1111,-1.36955e-31,4.93038e-32,11.1111,-2411.79,-2528.08)">
            <g>
                <g transform="matrix(0.896117,3.24196e-17,-3.24196e-17,0.896117,222.704,233.585)">
                    <path d="M32,5.435C24.446,6.606 24.298,6.804 18.359,4.935C11.85,2.887 11.375,3.817 4,4.757C1.891,5.026 -0.023,6.74 0.255,9.01C0.475,10.813 0.918,13.145 0.986,13.503C7.935,13.505 11.178,11.226 16.653,12.73C20.287,13.728 22.669,14.943 26.049,14.828C29.304,14.717 33.61,13.621 36.893,13.513C36.778,12.347 36.366,9.516 36.301,9.019C36.029,6.947 34.301,5.078 32,5.435Z" style="fill:rgb(204,0,0);fill-rule:nonzero;"/>
                </g>
                <g transform="matrix(0.896117,3.24196e-17,-3.24196e-17,0.896117,222.704,233.585)">
                    <path d="M0.333,26.993C0.033,29.147 1.724,31.049 4.002,30.751C11.374,29.786 11.848,28.83 18.359,30.934C21.72,32.019 23.309,32.985 32.068,31.737C34.174,31.437 36.262,29.289 36.469,27.17C36.477,27.091 36.818,23.515 36.924,22.511C29.168,22.77 28.341,25.384 19.588,22.609C16.49,21.627 14.781,20.936 10.997,21.328C7.318,21.709 5.624,22.5 1.05,22.5C0.974,22.984 0.488,25.883 0.333,26.993Z" style="fill:rgb(0,102,0);fill-rule:nonzero;"/>
                </g>
                <g transform="matrix(0.896117,3.24196e-17,-3.24196e-17,0.896117,222.704,233.585)">
                    <path d="M0.986,13.503C7.935,13.505 11.178,11.226 16.653,12.73C20.287,13.728 22.669,14.943 26.049,14.828C29.304,14.717 33.61,13.621 36.893,13.513C37.366,18.332 37,21.795 36.924,22.511C29.168,22.77 28.341,25.384 19.588,22.609C16.49,21.627 14.781,20.936 10.997,21.328C7.318,21.709 5.624,22.5 1.05,22.5C1.727,18.181 1.412,15.749 0.986,13.503Z" style="fill:rgb(238,238,238);fill-rule:nonzero;"/>
                </g>
                <g transform="matrix(0.896117,3.24196e-17,-3.24196e-17,0.896117,222.704,233.585)">
                    <path d="M16.875,20.716C16.452,20.72 16.213,20.226 16.24,20.281L16.578,20.217L16.766,19.761L17.066,20.311L17.437,20.415C17.447,20.408 17.301,20.712 16.875,20.716ZM22.078,22.74C21.586,22.46 19.828,21.62 18.868,21.313C17.651,20.923 16.225,20.796 15.589,20.853C14.969,20.909 15.02,21.533 15.526,21.446C16.597,21.261 18.555,21.89 18.809,21.971C20.098,22.384 21.58,23.043 22.018,23.335C22.461,23.631 22.648,23.065 22.078,22.74ZM19.172,20.713L18.939,20.216L18.662,20.55L18.204,20.597C18.243,20.656 18.499,21.046 18.88,21.168C19.266,21.292 19.654,21.009 19.606,21.044L19.172,20.713ZM20.866,21.95C21.273,22.193 21.579,21.834 21.543,21.875L21.225,21.635L21.096,21.09L20.741,21.453L20.369,21.337C20.356,21.327 20.47,21.714 20.866,21.95Z" style="fill:rgb(255,172,51);fill-rule:nonzero;"/>
                    <path d="M23.374,21.329C23.308,21.126 22.86,21.662 22.282,21.423C21.615,21.147 21.38,20.436 21.346,20.237C21.196,20.338 20.594,20.601 20.04,20.17C19.522,19.768 19.234,19.308 19.239,18.735C19.241,18.476 19.213,18.218 19.212,17.96C19.212,17.89 19.213,17.817 19.236,17.751C19.317,17.522 19.661,17.375 20.042,17.844C20.329,17.525 19.771,16.47 18.938,16.203C18.098,15.934 17.624,16.682 17.916,17.17C18.252,16.956 18.623,17.254 18.726,17.588C18.745,17.649 18.737,17.65 18.729,18.572C18.725,19.12 18.438,19.405 17.876,19.484C17.408,19.551 16.836,19.099 16.595,18.792C16.558,18.935 16.307,19.518 15.587,19.492C15.007,19.47 14.613,18.815 14.532,18.992C14.416,19.245 14.954,20.087 15.749,19.997C16.499,19.911 16.688,19.371 16.707,19.283C16.785,19.457 17.212,20.126 18.062,20.13C18.715,20.133 18.938,19.63 18.969,19.509C19.008,19.737 19.281,20.353 19.802,20.684C20.695,21.249 21.165,20.712 21.203,20.659C21.227,20.866 21.46,21.479 22.065,21.841C22.829,22.299 23.469,21.617 23.374,21.329ZM18.263,16.735C18.461,16.357 19.004,16.602 18.952,16.579C19.442,16.671 19.637,17.114 19.667,17.182C19.307,17.107 18.923,17.294 18.973,17.27C18.925,17.217 18.626,16.889 18.263,16.735ZM14.166,16.844L14.366,17.474L15.011,17.55L14.486,17.864L14.672,18.495L14.161,18.068L13.632,18.421L13.843,17.818L13.33,17.433L13.969,17.445L14.166,16.844ZM14.721,14.664L14.95,15.305L15.598,15.415L15.089,15.703L15.307,16.348L14.774,15.89L14.263,16.215L14.443,15.621L13.907,15.201L14.552,15.254L14.721,14.664ZM16.295,13.191L16.544,13.851L17.196,14.027L16.696,14.261L16.934,14.925L16.384,14.411L15.882,14.669L16.044,14.103L15.493,13.615L16.143,13.753L16.295,13.191ZM18.737,13.32L18.991,13.987L19.645,14.199L19.147,14.405L19.393,15.079L18.838,14.531L18.336,14.741L18.493,14.195L17.934,13.653L18.588,13.858L18.737,13.32ZM23.635,19.261L23.435,19.836L22.786,19.698L23.305,20.189L23.09,20.757L23.624,20.482L24.137,20.943L23.952,20.305L24.48,19.996L23.834,19.907L23.635,19.261ZM22.935,16.895L22.764,17.462L22.113,17.3L22.653,17.812L22.468,18.374L22.985,18.118L23.518,18.604L23.302,17.954L23.813,17.671L23.165,17.55L22.935,16.895ZM21.106,14.651L20.953,15.201L20.299,14.998L20.856,15.54L20.692,16.088L21.197,15.87L21.747,16.401L21.508,15.734L22.008,15.502L21.356,15.32L21.106,14.651Z" style="fill:rgb(255,172,51);fill-rule:nonzero;"/>
                </g>
            </g>
        </g>
    </g>
</svg>
