<?xml version="1.0" encoding="UTF-8" standalone="no"?>
<!DOCTYPE svg PUBLIC "-//W3C//DTD SVG 1.1//EN" "http://www.w3.org/Graphics/SVG/1.1/DTD/svg11.dtd">
<svg width="100%" height="100%" viewBox="0 0 512 512" version="1.1" xmlns="http://www.w3.org/2000/svg" xmlns:xlink="http://www.w3.org/1999/xlink" xml:space="preserve" xmlns:serif="http://www.serif.com/" style="fill-rule:evenodd;clip-rule:evenodd;stroke-linejoin:round;stroke-miterlimit:2;">
    <g transform="matrix(1.11593,-4.03717e-17,4.03717e-17,1.11593,-13.9687,-19.1113)">
        <g transform="matrix(11.1111,-1.36955e-31,4.93038e-32,11.1111,-2411.79,-2528.08)">
            <g>
                <g transform="matrix(0.896117,3.24196e-17,-3.24196e-17,0.896117,222.704,233.585)">
                    <path d="M4,4.757C1.891,5.026 -0.023,6.74 0.255,9.01C1.141,16.259 2.085,16.281 0.703,24.619C7.422,20.488 11.288,14.96 15.008,12.815C17.877,11.161 23.11,9.473 26.455,6.228C21.394,6.654 19.149,4.85 15.05,4.008C11.525,3.285 7.97,4.251 4,4.757Z" style="fill:rgb(30,181,58);fill-rule:nonzero;"/>
                </g>
                <g transform="matrix(0.896117,3.24196e-17,-3.24196e-17,0.896117,222.704,233.585)">
                    <path d="M32.068,31.737C34.174,31.437 36.262,29.289 36.469,27.17C37.008,21.654 37.553,17.986 36.627,11.351C31.751,15.529 27.347,20.751 22.381,22.947C17.345,25.174 15.372,24.81 9.478,29.925C15.072,29.223 16.26,30.442 21.276,31.84C22.329,32.133 24.41,32.829 32.068,31.737Z" style="fill:rgb(0,163,221);fill-rule:nonzero;"/>
                </g>
                <g transform="matrix(0.896117,3.24196e-17,-3.24196e-17,0.896117,222.704,233.585)">
                    <path d="M32,5.435C30.715,5.634 30.735,5.643 29.468,5.843C23.135,12.108 18.585,13.177 16.338,14.293C11.418,16.735 8.063,21.728 0.385,26.63L0.333,26.993C0.033,29.147 1.724,31.049 4.002,30.751C4.199,30.725 4.873,30.637 6.468,30.379C15.494,22.324 16.4,23.725 22.453,20.869C27.677,18.403 31.617,13.356 36.344,9.337L36.301,9.019C36.029,6.947 34.301,5.078 32,5.435Z" style="fill:rgb(20,20,20);fill-rule:nonzero;"/>
                </g>
                <g transform="matrix(0.896117,3.24196e-17,-3.24196e-17,0.896117,222.704,233.585)">
                    <path d="M26.455,6.228C23.109,9.474 17.895,11.151 15.008,12.815C11.288,14.96 7.422,20.488 0.703,24.619C0.498,25.856 0.408,26.469 0.385,26.63C8.063,21.728 11.418,16.735 16.338,14.293C18.547,13.195 23.13,12.113 29.468,5.843C29.228,5.88 27.679,6.124 26.455,6.228ZM9.478,29.925C15.959,24.301 18.063,25.113 23.312,22.505C27.439,20.454 32.592,14.809 36.627,11.351C36.487,10.344 36.482,10.358 36.344,9.337C31.442,13.504 27.377,18.793 21.846,21.139C15.691,23.75 15.014,22.752 6.468,30.379C6.708,30.34 8.536,30.043 9.478,29.925Z" style="fill:rgb(251,208,53);fill-rule:nonzero;"/>
                </g>
            </g>
        </g>
    </g>
</svg>
