<?xml version="1.0" encoding="UTF-8" standalone="no"?>
<!DOCTYPE svg PUBLIC "-//W3C//DTD SVG 1.1//EN" "http://www.w3.org/Graphics/SVG/1.1/DTD/svg11.dtd">
<svg width="100%" height="100%" viewBox="0 0 512 512" version="1.1" xmlns="http://www.w3.org/2000/svg" xmlns:xlink="http://www.w3.org/1999/xlink" xml:space="preserve" xmlns:serif="http://www.serif.com/" style="fill-rule:evenodd;clip-rule:evenodd;stroke-linejoin:round;stroke-miterlimit:2;">
    <g transform="matrix(1.11593,-4.03717e-17,4.03717e-17,1.11593,-13.9687,-19.1113)">
        <g transform="matrix(11.1111,-1.36955e-31,4.93038e-32,11.1111,-2411.79,-2528.08)">
            <g>
                <g transform="matrix(0.896117,3.24196e-17,-3.24196e-17,0.896117,222.704,233.585)">
                    <path d="M0.402,26.51L0.333,26.993C0.033,29.147 1.724,31.049 4.002,30.751C11.374,29.786 11.848,28.83 18.359,30.934C21.72,32.019 23.309,32.985 32.068,31.737C34.174,31.437 36.262,29.289 36.469,27.17L36.515,26.699C27.189,27.495 26.864,29.09 18.787,26.506C9.911,23.666 9.724,26.502 0.402,26.51Z" style="fill:rgb(167,18,45);fill-rule:nonzero;"/>
                </g>
                <g transform="matrix(0.896117,3.24196e-17,-3.24196e-17,0.896117,222.704,233.585)">
                    <path d="M1.098,22.182C8.054,22.183 11.231,19.895 16.716,21.408C20.342,22.408 22.753,23.634 26.113,23.516C29.364,23.403 33.676,22.303 36.957,22.193C36.805,23.743 36.653,25.294 36.501,26.844C27.105,27.671 26.779,29.216 18.773,26.654C9.892,23.811 9.703,26.65 0.381,26.658C0.522,25.684 0.997,22.861 1.098,22.182Z" style="fill:rgb(238,238,238);fill-rule:nonzero;"/>
                </g>
                <g transform="matrix(0.896117,3.24196e-17,-3.24196e-17,0.896117,222.704,233.585)">
                    <path d="M0.988,13.516C7.938,13.518 11.179,11.239 16.655,12.743C20.288,13.741 22.671,14.956 26.05,14.841C29.305,14.73 33.612,13.634 36.894,13.526C37.356,18.243 37.012,21.643 36.941,22.345C29.185,22.606 28.358,25.219 19.606,22.446C16.514,21.466 14.802,20.773 11.017,21.165C7.334,21.546 5.659,22.334 1.075,22.334C1.724,18.099 1.398,15.674 0.988,13.516Z" style="fill:rgb(41,38,72);fill-rule:nonzero;"/>
                </g>
                <g transform="matrix(0.896117,3.24196e-17,-3.24196e-17,0.896117,222.704,233.585)">
                    <path d="M0.277,9.191C7.202,9.199 10.863,6.956 16.242,8.43C19.862,9.422 22.14,10.612 25.557,10.499C28.81,10.392 33.048,9.303 36.325,9.2C36.374,9.562 36.79,12.397 36.909,13.678C29.163,13.935 28.321,16.544 19.573,13.777C16.487,12.802 14.776,12.109 10.98,12.5C7.294,12.88 5.598,13.668 1.017,13.668C0.949,13.311 0.502,10.968 0.277,9.191Z" style="fill:rgb(238,238,238);fill-rule:nonzero;"/>
                </g>
                <g transform="matrix(0.896117,3.24196e-17,-3.24196e-17,0.896117,222.704,233.585)">
                    <path d="M0.297,9.344L0.255,9.01C-0.023,6.74 1.891,5.026 4,4.757C11.375,3.817 11.85,2.887 18.359,4.935C24.284,6.8 24.43,6.609 32,5.435C34.301,5.078 36.029,6.947 36.301,9.019L36.346,9.352C28.727,9.592 27.77,12.183 19.129,9.456C16.083,8.495 14.438,7.821 10.54,8.2C6.803,8.564 4.843,9.349 0.297,9.344Z" style="fill:rgb(167,18,45);fill-rule:nonzero;"/>
                </g>
            </g>
        </g>
    </g>
</svg>
