<?xml version="1.0" encoding="UTF-8" standalone="no"?>
<!DOCTYPE svg PUBLIC "-//W3C//DTD SVG 1.1//EN" "http://www.w3.org/Graphics/SVG/1.1/DTD/svg11.dtd">
<svg width="100%" height="100%" viewBox="0 0 512 512" version="1.1" xmlns="http://www.w3.org/2000/svg" xmlns:xlink="http://www.w3.org/1999/xlink" xml:space="preserve" xmlns:serif="http://www.serif.com/" style="fill-rule:evenodd;clip-rule:evenodd;stroke-linejoin:round;stroke-miterlimit:2;">
    <g transform="matrix(1.11593,-4.03717e-17,4.03717e-17,1.11593,-13.9687,-19.1113)">
        <g transform="matrix(11.1111,-1.36955e-31,4.93038e-32,11.1111,-2411.79,-2528.08)">
            <g>
                <g transform="matrix(0.896117,3.24196e-17,-3.24196e-17,0.896117,222.704,233.585)">
                    <path d="M32,5.435C24.446,6.606 24.298,6.804 18.359,4.935C11.85,2.887 11.375,3.817 4,4.757C1.891,5.026 -0.023,6.74 0.255,9.01C0.711,12.739 1.442,14.73 1.448,17.925C1.455,20.985 0.727,24.164 0.333,26.993C0.033,29.147 1.724,31.049 4.002,30.751C11.374,29.786 11.848,28.83 18.359,30.934C21.72,32.019 23.309,32.985 32.068,31.737C34.174,31.437 36.262,29.289 36.469,27.17C37.446,17.169 37.37,17.149 36.301,9.019C36.029,6.947 34.301,5.078 32,5.435Z" style="fill:rgb(220,36,31);fill-rule:nonzero;"/>
                </g>
                <g transform="matrix(0.896117,3.24196e-17,-3.24196e-17,0.896117,222.704,233.585)">
                    <path d="M16.855,17.229C11.493,20.163 7.845,24.678 1.334,29.934L1.568,30.132C5.445,27.889 10.531,23.903 13.532,22.531C17.419,20.753 21.118,20.909 24.649,19.307C21.318,17.168 17.458,13.209 13.866,11.126C10.376,9.103 4.961,7.516 1.552,5.826L1.314,6.043C6.662,10.08 11.428,11.495 16.855,17.229Z" style="fill:rgb(255,199,38);fill-rule:nonzero;"/>
                </g>
                <g transform="matrix(0.896117,3.24196e-17,-3.24196e-17,0.896117,222.704,233.585)">
                    <path d="M1.314,6.043L1.313,6.044C1.133,6.221 0.045,7.295 0.255,9.01C0.711,12.739 1.442,14.73 1.448,17.925C1.455,20.985 0.727,24.164 0.333,26.993C0.085,28.77 1.153,29.765 1.334,29.934C7.842,24.681 11.492,20.164 16.855,17.229C11.428,11.495 6.668,10.085 1.314,6.043Z" style="fill:rgb(20,20,20);fill-rule:nonzero;"/>
                </g>
                <g transform="matrix(0.896117,3.24196e-17,-3.24196e-17,0.896117,222.704,233.585)">
                    <path d="M6.084,18.716C6.11,18.966 6.244,20.227 6.243,21.852C7.194,20.235 7.805,18.977 7.929,18.721C8.17,18.72 9.853,18.717 10.936,18.778C10.771,18.613 9.938,17.782 8.814,16.767C8.921,16.515 9.396,15.387 10.038,13.571C8.926,14.379 8.955,14.383 7.433,15.549C6.915,15.102 5.224,13.671 4.975,13.479C5.478,15 5.753,16.498 5.802,16.765C4.312,17.832 3.258,18.411 3.027,18.538C3.27,18.567 4.344,18.693 6.084,18.716Z" style="fill:white;fill-rule:nonzero;"/>
                </g>
            </g>
        </g>
    </g>
</svg>
