<?xml version="1.0" encoding="UTF-8" standalone="no"?>
<!DOCTYPE svg PUBLIC "-//W3C//DTD SVG 1.1//EN" "http://www.w3.org/Graphics/SVG/1.1/DTD/svg11.dtd">
<svg width="100%" height="100%" viewBox="0 0 512 512" version="1.1" xmlns="http://www.w3.org/2000/svg" xmlns:xlink="http://www.w3.org/1999/xlink" xml:space="preserve" xmlns:serif="http://www.serif.com/" style="fill-rule:evenodd;clip-rule:evenodd;stroke-linejoin:round;stroke-miterlimit:2;">
    <g transform="matrix(1.11593,-4.03717e-17,4.03717e-17,1.11593,-13.9687,-19.1113)">
        <g transform="matrix(11.1111,-1.36955e-31,4.93038e-32,11.1111,-2411.79,-2528.08)">
            <g>
                <g transform="matrix(0.896117,3.24196e-17,-3.24196e-17,0.896117,222.704,233.585)">
                    <path d="M0.333,26.993C0.033,29.147 1.724,31.049 4.002,30.751C11.374,29.786 11.848,28.83 18.359,30.934C21.72,32.019 23.309,32.985 32.068,31.737C34.174,31.437 36.262,29.289 36.469,27.17L36.583,25.991C27.537,26.646 27.247,28.465 18.859,25.787C9.987,22.955 9.802,25.782 0.512,25.791L0.333,26.993ZM16.325,19.613L16.299,19.606C19.884,20.47 22.534,22.056 26.499,21.883C29.689,21.744 33.854,20.709 37.075,20.614C37.097,20.198 37.206,18.168 37.039,15.41C33.611,15.525 29.105,16.716 25.759,16.743C22.481,16.77 19.322,15.217 16.276,14.493C16.448,17.285 16.347,19.204 16.325,19.613ZM32,5.435C29.659,5.798 26.399,6.452 23.762,6.271C21.438,6.111 17.766,4.641 15.526,4.114C15.526,6.109 15.705,8.138 15.818,9.327C19.403,10.165 21.901,11.689 25.95,11.504C29.134,11.359 33.25,10.321 36.467,10.221L36.301,9.019C36.029,6.947 34.301,5.078 32,5.435Z" style="fill:rgb(0,106,78);fill-rule:nonzero;"/>
                </g>
                <g transform="matrix(0.896117,3.24196e-17,-3.24196e-17,0.896117,222.704,233.585)">
                    <path d="M16.271,14.425L16.276,14.493C19.87,15.347 22.507,16.912 26.479,16.721C29.665,16.567 33.823,15.518 37.039,15.41C36.904,13.169 36.652,11.524 36.467,10.221C33.018,10.328 28.676,11.496 25.229,11.525C21.883,11.553 18.89,10.045 15.818,9.327C15.883,10.013 16.164,12.72 16.271,14.425ZM1.34,20.531C1.17,22.082 0.726,24.476 0.512,25.791C9.506,25.783 9.743,22.891 18.497,25.67C27.239,28.445 27.429,26.654 36.583,25.991C36.999,21.629 37.019,21.642 37.075,20.614C33.644,20.715 29.121,21.892 25.777,21.902C22.509,21.912 19.336,20.338 16.299,19.606C11.092,18.378 7.926,20.553 1.34,20.531Z" style="fill:rgb(255,206,0);fill-rule:nonzero;"/>
                </g>
                <g transform="matrix(0.896117,3.24196e-17,-3.24196e-17,0.896117,222.704,233.585)">
                    <path d="M4,4.757C1.985,5.014 0.143,6.601 0.251,8.752C0.784,13.336 1.851,15.58 1.34,20.531C7.909,20.553 11.097,18.371 16.325,19.613C16.623,13.962 15.526,9.104 15.526,4.114C11.697,3.213 8.471,4.188 4,4.757Z" style="fill:rgb(210,16,52);fill-rule:nonzero;"/>
                </g>
                <g transform="matrix(0.896117,3.24196e-17,-3.24196e-17,0.896117,222.704,233.585)">
                    <path d="M12.731,10.174C11.247,10.192 9.601,10.422 9.331,10.46L9.314,10.422C9.197,10.164 8.403,8.413 7.893,7.188L7.876,7.26C7.813,7.541 7.52,8.829 7.191,10.794C6.914,10.84 4.877,11.175 3.717,11.296C4.898,11.964 6.55,12.832 6.798,12.962L6.845,12.987C6.579,14.761 6.638,14.757 6.216,16.513L6.183,16.648C6.929,15.91 8.497,14.238 8.695,14.026C8.927,14.16 10.373,14.996 11.551,15.763C10.925,13.992 10.348,12.708 10.231,12.447C11.597,11.158 12.647,10.344 12.867,10.173L12.731,10.174Z" style="fill:white;fill-rule:nonzero;"/>
                </g>
            </g>
        </g>
    </g>
</svg>
