<?xml version="1.0" encoding="UTF-8" standalone="no"?>
<!DOCTYPE svg PUBLIC "-//W3C//DTD SVG 1.1//EN" "http://www.w3.org/Graphics/SVG/1.1/DTD/svg11.dtd">
<svg width="100%" height="100%" viewBox="0 0 512 512" version="1.1" xmlns="http://www.w3.org/2000/svg" xmlns:xlink="http://www.w3.org/1999/xlink" xml:space="preserve" xmlns:serif="http://www.serif.com/" style="fill-rule:evenodd;clip-rule:evenodd;stroke-linejoin:round;stroke-miterlimit:2;">
    <g transform="matrix(1.11593,-4.03717e-17,4.03717e-17,1.11593,-13.9687,-19.1113)">
        <g transform="matrix(11.1111,-1.36955e-31,4.93038e-32,11.1111,-2411.79,-2528.08)">
            <g>
                <g transform="matrix(0.896117,3.24196e-17,-3.24196e-17,0.896117,222.704,233.585)">
                    <path d="M36.469,27.17C36.262,29.289 34.174,31.437 32.068,31.737C22.767,33.063 21.617,31.929 16.923,30.475C12.025,28.957 9.41,30.043 4.002,30.751C1.724,31.049 0.033,29.147 0.333,26.993C0.76,23.929 1.552,20.621 1.436,17.229C1.343,14.486 0.678,12.475 0.255,9.01C-0.023,6.74 1.891,5.026 4,4.757C11.375,3.817 11.85,2.887 18.359,4.935C24.284,6.8 24.43,6.609 32,5.435C34.301,5.078 36.029,6.947 36.301,9.019C37.368,17.137 37.447,17.156 36.469,27.17Z" style="fill:rgb(0,36,125);fill-rule:nonzero;"/>
                </g>
                <g transform="matrix(0.896117,3.24196e-17,-3.24196e-17,0.896117,222.704,233.585)">
                    <path d="M3.943,11L4.461,12.058L5.57,11.896L4.778,12.683L5.315,13.725L4.313,13.15L3.548,13.928L3.701,12.804L2.658,12.209L3.791,12.133L3.943,11ZM9.173,17.171L9.556,18.51L10.942,18.303L9.766,19.309L10.088,20.634L9.057,19.928C8.378,20.529 7.954,20.899 7.857,20.983C7.905,20.867 8.164,20.245 8.43,19.524L7.366,18.871L8.733,18.645L9.173,17.171ZM8.312,5.615L8.711,6.677L9.856,6.518L8.968,7.312L9.424,8.37L8.448,7.802L7.603,8.634L7.862,7.473L6.88,6.944L8.025,6.777L8.312,5.615ZM13.412,9.688L13.728,10.478L14.548,10.555L13.921,10.948L14.251,11.732L13.551,11.207L12.935,11.673L13.128,10.915L12.418,10.454L13.237,10.456L13.412,9.688Z" style="fill:white;fill-rule:nonzero;"/>
                </g>
                <g transform="matrix(0.896117,3.24196e-17,-3.24196e-17,0.896117,222.704,233.585)">
                    <path d="M32.236,29.688C22.112,31.12 22.115,29.908 16.422,28.311C12.38,27.176 10.146,27.843 5.094,28.607C5.058,28.588 4.844,28.474 4.875,28.146C4.906,27.819 5.227,27.575 5.187,27.605C10.46,26.802 12.623,26.097 17.195,27.52C22.8,29.265 23.146,29.96 32.325,28.679L33.791,28.969C33.272,29.209 32.754,29.448 32.236,29.688ZM5.303,26.603C8.514,24.881 8.201,24.438 16.854,18.233C18.977,16.711 21.368,15.24 23.512,13.362C24.721,12.303 26.961,9.861 28.142,9.081C26.78,10.771 25.848,24.238 29.679,27.033C29.903,27.048 32.46,27.217 32.418,27.671C22.907,28.981 22.891,28.076 16.554,26.308C12.479,25.171 10.254,25.844 5.303,26.603Z" style="fill:rgb(254,209,0);fill-rule:nonzero;"/>
                </g>
            </g>
        </g>
    </g>
</svg>
