<?xml version="1.0" encoding="UTF-8" standalone="no"?>
<!DOCTYPE svg PUBLIC "-//W3C//DTD SVG 1.1//EN" "http://www.w3.org/Graphics/SVG/1.1/DTD/svg11.dtd">
<svg width="100%" height="100%" viewBox="0 0 512 512" version="1.1" xmlns="http://www.w3.org/2000/svg" xmlns:xlink="http://www.w3.org/1999/xlink" xml:space="preserve" xmlns:serif="http://www.serif.com/" style="fill-rule:evenodd;clip-rule:evenodd;stroke-linejoin:round;stroke-miterlimit:2;">
    <g transform="matrix(1.11593,-4.03717e-17,4.03717e-17,1.11593,-13.9687,-19.1113)">
        <g transform="matrix(11.1111,-1.36955e-31,4.93038e-32,11.1111,-2411.79,-2528.08)">
            <g>
                <g transform="matrix(0.896117,3.24196e-17,-3.24196e-17,0.896117,222.704,233.585)">
                    <path d="M32,5.435C30.525,5.663 25.92,6.545 23.499,6.245C20.52,5.875 17.672,4.542 15,3.998C15,8.32 15.789,12.383 15.841,16.99C11.025,16 7.47,18.159 1.448,18.098C1.43,21.06 0.711,24.283 0.333,26.993C0.033,29.147 1.724,31.049 4.002,30.751C11.374,29.786 11.848,28.83 18.359,30.934C21.72,32.019 23.309,32.985 32.068,31.737C34.174,31.437 36.262,29.289 36.469,27.17C37.446,17.169 37.37,17.149 36.301,9.019C36.029,6.947 34.301,5.078 32,5.435Z" style="fill:rgb(193,0,0);fill-rule:nonzero;"/>
                </g>
                <g transform="matrix(0.896117,3.24196e-17,-3.24196e-17,0.896117,222.704,233.585)">
                    <path d="M15,3.998C11.54,3.294 7.947,4.254 4,4.757C1.891,5.026 -0.023,6.74 0.255,9.01C0.717,12.789 1.468,14.816 1.448,18.098C7.464,18.159 11.025,16 15.841,16.99C15.789,12.388 15,8.324 15,3.998ZM12.541,11.743C12.307,11.75 11.245,11.783 9.628,12.011C9.657,12.252 9.865,14 9.931,15.027C9.34,15.12 7.387,15.48 7.166,15.52C7.084,14.428 6.822,12.715 6.784,12.472C6.556,12.51 5.032,12.765 3.922,12.88C3.599,11.133 3.45,10.13 3.415,9.889C3.651,9.866 4.55,9.775 6.356,9.485C6.145,7.821 6.076,6.704 6.061,6.462C6.299,6.424 8.41,6.085 9.043,5.998C9.055,6.241 9.109,7.328 9.286,9.029C10.947,8.803 12.02,8.772 12.258,8.765C12.299,9.218 12.534,11.668 12.541,11.743Z" style="fill:rgb(238,237,237);fill-rule:nonzero;"/>
                </g>
                <g transform="matrix(0.896117,3.24196e-17,-3.24196e-17,0.896117,222.704,233.585)">
                    <path d="M9.043,5.998C8.41,6.085 6.299,6.424 6.061,6.462C6.076,6.704 6.145,7.821 6.356,9.485C6.122,9.523 4.55,9.775 3.415,9.889C3.45,10.13 3.599,11.133 3.922,12.88C4.152,12.857 5.032,12.765 6.784,12.472C6.822,12.715 7.084,14.428 7.166,15.52C7.387,15.48 9.34,15.12 9.931,15.027C9.865,14 9.657,12.252 9.628,12.011C11.245,11.783 12.307,11.75 12.541,11.743C12.401,10.246 12.393,10.265 12.258,8.765C12.02,8.772 10.947,8.803 9.286,9.029C9.109,7.328 9.055,6.241 9.043,5.998Z" style="fill:rgb(193,0,0);fill-rule:nonzero;"/>
                </g>
            </g>
        </g>
    </g>
</svg>
