<?xml version="1.0" encoding="UTF-8" standalone="no"?>
<!DOCTYPE svg PUBLIC "-//W3C//DTD SVG 1.1//EN" "http://www.w3.org/Graphics/SVG/1.1/DTD/svg11.dtd">
<svg width="100%" height="100%" viewBox="0 0 512 512" version="1.1" xmlns="http://www.w3.org/2000/svg" xmlns:xlink="http://www.w3.org/1999/xlink" xml:space="preserve" xmlns:serif="http://www.serif.com/" style="fill-rule:evenodd;clip-rule:evenodd;stroke-linejoin:round;stroke-miterlimit:2;">
    <g transform="matrix(1.11593,-4.03717e-17,4.03717e-17,1.11593,-13.9687,-19.1113)">
        <g transform="matrix(11.1111,-2.35563e-31,0,11.1111,-2368.64,-2415.24)">
            <g>
                <g transform="matrix(0.896117,3.24196e-17,-3.24196e-17,0.896117,218.821,223.429)">
                    <path d="M0.333,26.993C0.033,29.147 1.724,31.049 4.002,30.751C11.374,29.786 11.848,28.83 18.359,30.934C21.72,32.019 23.309,32.985 32.068,31.737C34.174,31.437 36.262,29.289 36.469,27.17L36.592,25.891C27.531,26.532 27.352,28.387 18.692,25.63C9.898,22.83 9.718,25.682 0.528,25.691L0.333,26.993Z" style="fill:rgb(91,206,250);fill-rule:nonzero;"/>
                </g>
                <g transform="matrix(0.896117,3.24196e-17,-3.24196e-17,0.896117,218.821,223.429)">
                    <path d="M1.34,20.531C1.17,22.082 0.726,24.476 0.512,25.791C9.696,25.782 9.878,22.926 18.681,25.73C27.339,28.487 27.519,26.647 36.583,25.991C36.992,21.701 37.018,21.715 37.08,20.514C29.565,20.773 28.349,23.339 19.954,20.695C16.804,19.702 15.065,18.963 11.302,19.342C7.672,19.709 5.824,20.546 1.34,20.531Z" style="fill:rgb(245,169,184);fill-rule:nonzero;"/>
                </g>
                <g transform="matrix(0.896117,3.24196e-17,-3.24196e-17,0.896117,218.821,223.429)">
                    <path d="M1.294,15.388C9.931,15.468 10.106,12.372 19.157,15.236C28.341,18.141 28.524,15.595 37.033,15.31C37.208,18.124 37.097,20.19 37.075,20.614C29.546,20.873 28.352,23.442 19.937,20.79C16.788,19.798 15.051,19.061 11.278,19.443C7.61,19.815 5.852,20.642 1.299,20.629C1.335,20.29 1.604,17.947 1.294,15.388Z" style="fill:rgb(238,238,238);fill-rule:nonzero;"/>
                </g>
                <g transform="matrix(0.896117,3.24196e-17,-3.24196e-17,0.896117,218.821,223.429)">
                    <path d="M0.374,9.914C9.82,9.927 10.015,7.139 19.013,9.972C27.987,12.797 28.583,10.166 36.425,9.923C36.616,11.278 36.895,13.017 37.039,15.41C28.534,15.695 28.351,18.243 19.163,15.336C10.106,12.471 9.931,15.574 1.306,15.492C1.167,14.297 0.663,11.945 0.374,9.914Z" style="fill:rgb(245,169,184);fill-rule:nonzero;"/>
                </g>
                <g transform="matrix(0.896117,3.24196e-17,-3.24196e-17,0.896117,218.821,223.429)">
                    <path d="M36.301,9.019C36.029,6.947 34.301,5.078 32,5.435C24.446,6.606 24.298,6.804 18.359,4.935C11.85,2.887 11.375,3.817 4,4.757C1.891,5.026 -0.023,6.74 0.255,9.01L0.418,10.212C9.846,10.226 10.04,7.441 19.043,10.271C28.024,13.093 28.622,10.464 36.467,10.221L36.301,9.019Z" style="fill:rgb(91,206,250);fill-rule:nonzero;"/>
                </g>
            </g>
        </g>
    </g>
</svg>
