<?xml version="1.0" encoding="UTF-8" standalone="no"?>
<!DOCTYPE svg PUBLIC "-//W3C//DTD SVG 1.1//EN" "http://www.w3.org/Graphics/SVG/1.1/DTD/svg11.dtd">
<svg width="100%" height="100%" viewBox="0 0 512 512" version="1.1" xmlns="http://www.w3.org/2000/svg" xmlns:xlink="http://www.w3.org/1999/xlink" xml:space="preserve" xmlns:serif="http://www.serif.com/" style="fill-rule:evenodd;clip-rule:evenodd;stroke-linejoin:round;stroke-miterlimit:2;">
    <g transform="matrix(1.11593,-4.03717e-17,4.03717e-17,1.11593,-13.9687,-19.1113)">
        <g transform="matrix(11.1111,-1.36955e-31,4.93038e-32,11.1111,-2411.79,-2528.08)">
            <g>
                <g transform="matrix(0.896117,3.24196e-17,-3.24196e-17,0.896117,222.704,233.585)">
                    <path d="M1.172,6.19C0.404,7.028 0.141,8.077 0.255,9.01C0.711,12.739 1.442,14.73 1.448,17.925C1.455,20.985 0.727,24.164 0.333,26.993C0.033,29.147 1.724,31.049 4.002,30.751C7.945,30.235 11.516,29.242 15.029,29.977C18.253,30.653 21.328,32.379 24.991,32.342C20.92,28.117 17.935,21.71 13.898,17.335C9.351,12.406 5.028,9.926 1.173,6.189L1.172,6.19ZM32,5.435C28.073,6.044 25.251,6.696 22.038,6.001C18.096,5.148 15.815,3.446 11.01,3.8C13.449,5.677 22.437,16.884 23.121,17.693C26.846,22.098 31.739,26.761 35.041,30.076C35.843,29.223 36.372,28.166 36.469,27.17C37.446,17.169 37.37,17.149 36.301,9.019C36.029,6.947 34.301,5.078 32,5.435Z" style="fill:rgb(206,17,38);fill-rule:nonzero;"/>
                </g>
                <g transform="matrix(0.896117,3.24196e-17,-3.24196e-17,0.896117,222.704,233.585)">
                    <path d="M2.232,5.349C1.619,5.701 1.246,6.11 1.173,6.189C5.023,9.922 9.351,12.407 13.898,17.335C17.934,21.709 20.919,28.116 24.991,32.342C25.139,32.341 25.886,32.333 26.839,32.28C20.796,26.167 19.987,22.468 14.984,16.657C11.08,12.122 6.013,8.946 2.232,5.349ZM11.01,3.8C10.863,3.811 10.174,3.862 9.175,3.991C13.15,6.953 21.091,17.006 22.042,18.209C27.535,25.163 30.322,27.409 33.879,31.042C33.981,30.977 34.511,30.64 35.041,30.076C32.336,27.361 26.605,21.852 23.121,17.693C22.323,16.74 13.429,5.661 11.01,3.8Z" style="fill:rgb(238,238,238);fill-rule:nonzero;"/>
                </g>
                <g transform="matrix(0.896117,3.24196e-17,-3.24196e-17,0.896117,222.704,233.585)">
                    <path d="M4,4.757C3.053,4.878 2.363,5.275 2.233,5.349C6.012,8.943 11.081,12.122 14.984,16.657C19.981,22.461 20.797,26.167 26.839,32.28C29.165,32.151 31.652,31.797 32.068,31.737C32.222,31.715 32.993,31.605 33.878,31.043L33.88,31.042C28.383,25.428 27.999,25.774 20.731,16.541C19.887,15.469 13.233,7.015 9.175,3.991C8.044,4.138 5.206,4.604 4,4.757Z" style="fill:rgb(20,20,20);fill-rule:nonzero;"/>
                </g>
            </g>
        </g>
    </g>
</svg>
