<?xml version="1.0" encoding="UTF-8" standalone="no"?>
<!DOCTYPE svg PUBLIC "-//W3C//DTD SVG 1.1//EN" "http://www.w3.org/Graphics/SVG/1.1/DTD/svg11.dtd">
<svg width="100%" height="100%" viewBox="0 0 512 512" version="1.1" xmlns="http://www.w3.org/2000/svg" xmlns:xlink="http://www.w3.org/1999/xlink" xml:space="preserve" xmlns:serif="http://www.serif.com/" style="fill-rule:evenodd;clip-rule:evenodd;stroke-linejoin:round;stroke-miterlimit:2;">
    <g transform="matrix(1.11593,-4.03717e-17,4.03717e-17,1.11593,-13.9687,-19.1113)">
        <g transform="matrix(11.1111,-1.36955e-31,4.93038e-32,11.1111,-2411.79,-2528.08)">
            <g>
                <g transform="matrix(0.896117,3.24196e-17,-3.24196e-17,0.896117,222.704,233.585)">
                    <path d="M32,5.435C24.446,6.606 24.298,6.804 18.359,4.935C11.85,2.887 11.375,3.817 4,4.757C1.891,5.026 -0.023,6.74 0.255,9.01C0.711,12.739 1.442,14.73 1.448,17.925C1.455,20.985 0.727,24.164 0.333,26.993C0.033,29.147 1.724,31.049 4.002,30.751C11.374,29.786 11.848,28.83 18.359,30.934C21.72,32.019 23.309,32.985 32.068,31.737C34.174,31.437 36.262,29.289 36.469,27.17C37.446,17.169 37.37,17.149 36.301,9.019C36.029,6.947 34.301,5.078 32,5.435Z" style="fill:rgb(231,0,19);fill-rule:nonzero;"/>
                </g>
                <g transform="matrix(0.896117,3.24196e-17,-3.24196e-17,0.896117,222.704,233.585)">
                    <path d="M18.451,11.338C20.986,12.139 25.457,15.313 25.484,19.354C25.506,22.564 22.723,25.681 18.454,24.312C12.417,22.376 12.366,17.541 12.358,16.765C12.321,13.301 14.411,10.063 18.451,11.338Z" style="fill:white;"/>
                </g>
                <g transform="matrix(0.896117,3.24196e-17,-3.24196e-17,0.896117,222.704,233.585)">
                    <path d="M16.246,17.078C16.224,15.062 17.636,13.579 20.028,14.343C21.584,14.84 22.615,15.944 22.795,16.137C21.796,14.689 20.114,13.428 18.615,12.952C15.514,11.967 13.921,14.305 13.95,16.737C13.987,19.735 16.404,21.976 18.637,22.69C18.962,22.794 21.25,23.526 22.83,21.89C22.175,22.311 21.189,22.511 20.066,22.152C18.033,21.503 16.271,19.316 16.246,17.078Z" style="fill:rgb(231,0,19);fill-rule:nonzero;"/>
                </g>
                <g transform="matrix(0.896117,3.24196e-17,-3.24196e-17,0.896117,222.704,233.585)">
                    <path d="M20.548,17.301C19.853,16.19 19.299,15.335 19.188,15.165C19.26,16.267 19.281,17.13 19.285,17.301C19.121,17.301 17.986,17.299 17.236,17.331C18.007,17.791 19.134,18.516 19.297,18.622C19.291,19.717 19.239,20.577 19.229,20.747C19.935,20.08 20.461,19.544 20.566,19.437C21.767,20.201 22.44,20.583 22.606,20.677C21.941,19.565 21.457,18.775 21.356,18.61C22.001,17.915 22.485,17.339 22.58,17.226C22.418,17.239 21.737,17.294 20.548,17.301Z" style="fill:rgb(231,0,19);fill-rule:nonzero;"/>
                </g>
            </g>
        </g>
    </g>
</svg>
