<?xml version="1.0" encoding="UTF-8" standalone="no"?>
<!DOCTYPE svg PUBLIC "-//W3C//DTD SVG 1.1//EN" "http://www.w3.org/Graphics/SVG/1.1/DTD/svg11.dtd">
<svg width="100%" height="100%" viewBox="0 0 512 512" version="1.1" xmlns="http://www.w3.org/2000/svg" xmlns:xlink="http://www.w3.org/1999/xlink" xml:space="preserve" xmlns:serif="http://www.serif.com/" style="fill-rule:evenodd;clip-rule:evenodd;stroke-linejoin:round;stroke-miterlimit:2;">
    <g transform="matrix(1.11593,-4.03717e-17,4.03717e-17,1.11593,-13.9687,-19.1113)">
        <g transform="matrix(11.1111,-1.36955e-31,4.93038e-32,11.1111,-2411.79,-2528.08)">
            <g>
                <g transform="matrix(0.896117,3.24196e-17,-3.24196e-17,0.896117,222.704,233.585)">
                    <path d="M32,5.435C24.446,6.606 24.298,6.804 18.359,4.935C11.85,2.887 11.375,3.817 4,4.757L3.396,4.874C3.396,5.014 3.394,5.712 3.451,6.629C1.954,6.798 0.935,6.798 0.716,6.798C0.338,7.429 0.158,8.22 0.255,9.01C0.711,12.739 1.442,14.73 1.448,17.925C1.455,20.985 0.727,24.164 0.333,26.993C0.033,29.147 1.724,31.049 4.002,30.751C11.374,29.786 11.848,28.83 18.359,30.934C21.72,32.019 23.309,32.985 32.068,31.737C34.174,31.437 36.262,29.289 36.469,27.17C37.446,17.169 37.37,17.149 36.301,9.019C36.029,6.947 34.301,5.078 32,5.435Z" style="fill:rgb(0,36,125);fill-rule:nonzero;"/>
                </g>
                <g transform="matrix(0.896117,3.24196e-17,-3.24196e-17,0.896117,222.704,233.585)">
                    <path d="M23.57,13.203C23.604,13.501 23.815,15.341 23.904,16.939C24.223,22.711 26.853,24.262 28.795,25.154C34.155,21.789 34.069,17.569 33.985,16.026C33.883,14.16 33.683,12.6 33.644,12.303C30.721,12.708 26.557,13.646 23.57,13.203Z" style="fill:white;fill-rule:nonzero;"/>
                </g>
                <g transform="matrix(0.896117,3.24196e-17,-3.24196e-17,0.896117,222.704,233.585)">
                    <path d="M28.861,24.534C26.906,23.606 24.609,22.135 24.324,16.996C24.311,16.75 24.246,15.576 24.065,13.928C26.764,14.238 30.981,13.368 33.376,13.02C33.405,13.263 33.546,14.467 33.634,16.077C33.807,19.243 32.658,22.052 28.861,24.534Z" style="fill:rgb(254,196,0);fill-rule:nonzero;"/>
                </g>
                <g transform="matrix(0.896117,3.24196e-17,-3.24196e-17,0.896117,222.704,233.585)">
                    <path d="M30.917,21.778C30.883,21.128 30.447,19.576 29.934,19.165C29.388,18.726 29.155,19.189 29.171,19.159C28.948,18.793 28.454,19.328 28.411,19.374C27.929,19.896 27.354,21.785 27.268,22.264C27.258,22.319 27.146,22.941 27.566,22.901C27.672,23.157 28.207,23.145 28.156,23.146C28.216,23.18 28.676,23.437 29.012,23.037C29.283,23.353 29.815,22.953 29.871,22.912C29.93,22.897 30.368,22.79 30.517,22.504C30.991,22.428 30.922,21.879 30.917,21.778Z" style="fill:rgb(0,167,40);fill-rule:nonzero;"/>
                </g>
                <g transform="matrix(0.896117,3.24196e-17,-3.24196e-17,0.896117,222.704,233.585)">
                    <path d="M29.976,18.529C29.98,18.82 30.17,19.372 29.188,19.508C28.236,19.64 28.396,19.114 28.39,18.747C28.382,18.272 28.738,17.838 29.159,17.78C29.583,17.721 29.968,18.055 29.976,18.529Z" style="fill:rgb(240,8,45);fill-rule:nonzero;"/>
                </g>
                <g transform="matrix(0.896117,3.24196e-17,-3.24196e-17,0.896117,222.704,233.585)">
                    <path d="M27.458,18.216C27.248,18.606 26.842,18.452 26.627,17.898C26.519,17.619 26.457,17.682 25.479,17.143C25.224,17.002 25.169,16.751 25.447,16.594C25.683,16.461 25.598,16.188 25.76,16.139C25.623,16.111 25.22,16.191 25.203,16.136C25.176,16.049 25.396,15.787 25.729,15.742C25.411,15.388 25.501,14.586 25.621,14.569C25.709,14.556 26.009,14.755 26.179,15.013C26.275,15.158 26.705,15.231 26.702,15.505C26.715,15.516 27.092,15.566 27.336,15.898C27.488,16.105 27.568,17.128 27.458,18.216Z" style="fill:rgb(255,159,62);fill-rule:nonzero;"/>
                </g>
                <g transform="matrix(0.896117,3.24196e-17,-3.24196e-17,0.896117,222.704,233.585)">
                    <path d="M27.569,18.144C27.075,18.227 26.99,17.467 26.987,17.452C26.923,17.109 26.293,17.145 26.524,16.512C26.684,16.076 26.916,16.085 26.907,15.692C26.892,15.077 27.076,14.706 27.181,14.697C27.356,14.682 27.658,15.288 27.687,15.347C27.756,15.485 28.107,15.531 28.27,16.15C28.456,16.852 28.286,17.406 28.148,17.551C28.022,17.684 27.903,17.758 27.878,17.938C27.85,18.125 27.742,18.115 27.569,18.144Z" style="fill:rgb(255,146,127);fill-rule:nonzero;"/>
                </g>
                <g transform="matrix(0.896117,3.24196e-17,-3.24196e-17,0.896117,222.704,233.585)">
                    <path d="M27.386,15.154C27.532,15.24 27.479,15.405 27.418,15.528C27.348,15.672 27.54,16.07 27.554,16.209C27.571,16.378 27.451,16.726 27.472,16.799C27.521,16.971 27.644,17.112 27.716,17.276C27.754,17.362 27.773,17.492 27.769,17.589C27.767,17.636 27.749,18.025 27.569,18.143C27.451,18.22 27.504,17.864 27.513,17.723C27.522,17.559 27.49,17.567 27.265,17.005C27.245,16.956 27.295,16.963 27.381,16.349C27.388,16.294 27.332,16.315 27.236,15.664C27.201,15.422 27.41,15.119 27.386,15.154Z" style="fill:rgb(254,157,224);fill-rule:nonzero;"/>
                </g>
                <g transform="matrix(0.896117,3.24196e-17,-3.24196e-17,0.896117,222.704,233.585)">
                    <path d="M31.116,15.241C31.142,14.808 31.032,14.307 30.943,14.191C30.869,14.094 30.623,13.941 30.734,13.891C30.836,13.844 31.43,14.325 31.229,15.46C31.202,15.613 31.2,15.779 31.123,15.914C31.067,16.013 31.112,15.294 31.116,15.241Z" style="fill:rgb(186,91,31);fill-rule:nonzero;"/>
                </g>
                <g transform="matrix(0.896117,3.24196e-17,-3.24196e-17,0.896117,222.704,233.585)">
                    <path d="M31.052,15.154C30.818,15.063 30.525,14.766 30.535,14.623C30.545,14.466 30.724,14.102 30.761,14.156C30.909,14.38 30.684,14.416 30.81,14.669C30.924,14.9 30.932,14.869 31.119,15.063C31.145,15.09 31.016,15.144 31.052,15.154ZM30.953,15.41C30.934,15.391 29.363,14.577 29.457,14.52C29.588,14.439 30.896,15.02 31.107,15.385C31.195,15.537 31.059,15.511 30.953,15.41Z" style="fill:rgb(186,91,31);fill-rule:nonzero;"/>
                </g>
                <g transform="matrix(0.896117,3.24196e-17,-3.24196e-17,0.896117,222.704,233.585)">
                    <path d="M30.891,15.688C30.44,15.345 29.077,15.328 29.107,15.282C29.162,15.199 30.83,15.111 31.081,15.519C31.204,15.718 31.092,15.803 30.891,15.688Z" style="fill:rgb(186,91,31);fill-rule:nonzero;"/>
                </g>
                <g transform="matrix(0.896117,3.24196e-17,-3.24196e-17,0.896117,222.704,233.585)">
                    <path d="M30.874,15.961C30.368,15.791 29.271,15.839 29.151,15.877C28.945,15.941 30.134,15.442 30.92,15.778C31.042,15.83 31.313,15.856 31.264,15.981C31.217,16.102 31.002,15.986 30.874,15.961ZM30.935,16.377C30.366,16.223 29.429,16.421 29.277,16.538C29.026,16.729 29.732,16.117 30.147,16.095C30.225,16.091 30.924,16.053 31.123,16.153C31.299,16.241 31.06,16.41 30.935,16.377Z" style="fill:rgb(186,91,31);fill-rule:nonzero;"/>
                </g>
                <g transform="matrix(0.896117,3.24196e-17,-3.24196e-17,0.896117,222.704,233.585)">
                    <path d="M31.206,15.126C31.189,15.065 31.148,14.413 30.549,14.555C29.85,14.721 30.178,16.647 30.227,16.98C30.249,17.128 30.41,18.23 30.227,18.855C30.197,18.962 30.517,18.496 30.481,17.948C30.447,17.426 30.368,16.908 30.311,16.389C30.304,16.324 30.243,15.768 30.246,15.582C30.254,14.995 30.538,14.71 30.781,14.741C31.145,14.79 31.068,15.325 31.068,15.331C31.08,15.622 31.217,15.078 31.206,15.126Z" style="fill:rgb(186,91,31);fill-rule:nonzero;"/>
                </g>
                <g transform="matrix(0.896117,3.24196e-17,-3.24196e-17,0.896117,222.704,233.585)">
                    <path d="M31.693,17.571C31.861,17.447 31.996,16.457 32.009,16.358C32.165,15.207 31.596,14.892 31.269,14.946C30.956,14.997 30.45,15.451 30.736,16.567C31.002,17.603 31.238,17.694 31.151,17.66C31.106,17.711 30.677,18.198 30.749,18.407C30.821,18.618 31.386,18.529 31.442,18.52C31.502,18.51 32.062,18.412 32.128,18.179C32.194,17.945 31.741,17.607 31.693,17.571Z" style="fill:rgb(186,91,31);fill-rule:nonzero;"/>
                </g>
                <g transform="matrix(0.896117,3.24196e-17,-3.24196e-17,0.896117,222.704,233.585)">
                    <path d="M31.47,15.182C31.388,14.811 31.386,14.263 31.457,14.107C31.509,13.99 31.725,13.764 31.598,13.75C31.487,13.737 31.029,14.384 31.392,15.433C31.441,15.572 31.576,15.984 31.576,15.836C31.575,15.647 31.482,15.234 31.47,15.182Z" style="fill:rgb(186,91,31);fill-rule:nonzero;"/>
                </g>
                <g transform="matrix(0.896117,3.24196e-17,-3.24196e-17,0.896117,222.704,233.585)">
                    <path d="M31.519,15.077C31.736,14.909 31.967,14.528 31.933,14.394C31.921,14.349 31.656,13.938 31.625,14.015C31.611,14.054 31.812,14.017 31.674,14.527C31.6,14.799 31.585,14.769 31.439,15.01C31.421,15.04 31.548,15.058 31.519,15.077ZM31.654,15.295C31.673,15.267 33.062,13.987 32.962,13.96C32.813,13.921 31.653,14.894 31.5,15.32C31.431,15.513 31.579,15.408 31.654,15.295Z" style="fill:rgb(186,91,31);fill-rule:nonzero;"/>
                </g>
                <g transform="matrix(0.896117,3.24196e-17,-3.24196e-17,0.896117,222.704,233.585)">
                    <path d="M31.755,15.546C32.16,15.05 33.471,14.631 33.438,14.599C33.362,14.525 31.735,14.953 31.545,15.442C31.465,15.65 31.602,15.697 31.755,15.546Z" style="fill:rgb(186,91,31);fill-rule:nonzero;"/>
                </g>
                <g transform="matrix(0.896117,3.24196e-17,-3.24196e-17,0.896117,222.704,233.585)">
                    <path d="M31.81,15.807C32.3,15.465 33.354,15.189 33.486,15.192C33.69,15.196 32.487,15.041 31.739,15.643C31.73,15.65 31.495,15.835 31.437,15.921C31.364,16.029 31.695,15.868 31.81,15.807ZM31.799,16.235C32.354,15.89 33.282,15.806 33.447,15.877C33.717,15.992 32.955,15.595 32.538,15.706C32.459,15.726 31.779,15.907 31.588,16.077C31.422,16.224 31.682,16.307 31.799,16.235Z" style="fill:rgb(186,91,31);fill-rule:nonzero;"/>
                </g>
                <g transform="matrix(0.896117,3.24196e-17,-3.24196e-17,0.896117,222.704,233.585)">
                    <path d="M31.366,15.099C31.373,15.026 31.307,14.385 31.908,14.332C32.672,14.264 32.569,16.411 32.56,16.599C32.552,16.748 32.494,17.955 32.666,18.456C32.697,18.546 32.375,18.197 32.381,17.637C32.401,15.579 32.43,15.589 32.371,15.236C32.284,14.71 31.98,14.462 31.715,14.588C31.356,14.76 31.488,14.855 31.531,15.255C31.535,15.284 31.538,15.314 31.531,15.342C31.506,15.437 31.326,15.01 31.366,15.099Z" style="fill:rgb(186,91,31);fill-rule:nonzero;"/>
                </g>
                <g transform="matrix(0.896117,3.24196e-17,-3.24196e-17,0.896117,222.704,233.585)">
                    <path d="M19.912,18.16C19.866,13.285 19,9.376 19,5.141C11.806,2.837 11.647,3.783 4,4.757L3.396,4.874C3.396,5.014 3.394,5.712 3.451,6.629C1.954,6.798 0.935,6.798 0.716,6.798L0.602,7.003C0.528,7.148 0.124,7.941 0.255,9.01C0.717,12.789 1.468,14.816 1.448,18.098C5.841,18.143 7.652,17.208 11.988,16.792C15.05,16.498 17.294,17.318 19.912,18.16Z" style="fill:rgb(0,36,125);fill-rule:nonzero;"/>
                </g>
                <g transform="matrix(0.896117,3.24196e-17,-3.24196e-17,0.896117,222.704,233.585)">
                    <path d="M19,5.141C18.814,5.082 17.267,4.586 16.669,4.415C14.496,5.171 12.449,6.757 12.117,7.013C12,5.326 12,4.009 12,3.747C10.226,3.803 7.398,4.248 7,4.311C7,5.604 7.077,6.67 7.092,6.875C6.075,6.341 4.972,5.77 3.396,4.874C2.458,5.119 1.849,5.59 1.732,5.68C3.536,6.825 6.373,8.265 6.655,8.411C5.573,8.586 5.085,8.657 4.948,8.677C4.625,8.506 2.56,7.418 0.999,6.39L0.716,6.798C2.13,7.74 3.807,8.645 4.082,8.794C2.026,9.051 0.541,9.01 0.255,9.01C0.445,10.564 1.009,13.615 1.083,14.014C1.325,14.014 2.869,14.061 4.95,13.777C2.953,15.936 1.742,16.681 1.421,16.878L1.448,18.098C1.531,18.099 2.939,18.155 4.774,17.919C6.063,16.808 7.786,15.033 8.039,14.773C8.156,16.07 8.16,17.146 8.161,17.353C8.532,17.285 11.121,16.809 12.84,16.739C12.837,16.476 12.823,15.197 12.689,13.449C13.793,14.162 15.27,15.211 17.534,17.416C18.144,17.592 19.722,18.099 19.912,18.16C19.91,17.997 19.903,17.169 19.849,16.12C19.611,15.888 17.918,14.235 16.843,13.261C17.629,13.473 19.484,14.071 19.713,14.145C19.619,13.038 19.302,10.181 19.207,9.157C18.981,9.085 17.15,8.496 16.373,8.287C17.253,7.881 18.839,7.263 19.055,7.178C19.046,7.015 19,6.183 19,5.141Z" style="fill:rgb(238,238,238);fill-rule:nonzero;"/>
                </g>
                <g transform="matrix(0.896117,3.24196e-17,-3.24196e-17,0.896117,222.704,233.585)">
                    <path d="M11,3.801C10.759,3.819 9.761,3.893 8,4.157C8,4.826 8.012,6.514 8.307,9.172C4.881,9.699 3.684,10.017 0.388,10.012C0.423,10.253 0.574,11.299 0.892,13.007C4.163,13.009 5.176,12.716 8.677,12.156C8.729,12.556 9.069,15.171 9.08,17.187C10.701,16.904 11.655,16.821 11.88,16.801C11.861,14.822 11.597,12.196 11.557,11.796C14.707,11.557 16.349,12.108 19.621,13.154C19.579,12.73 19.317,10.276 19.306,10.161C16.083,9.131 14.474,8.581 11.259,8.817C11.019,6.227 11,4.709 11,3.801Z" style="fill:rgb(207,27,43);fill-rule:nonzero;"/>
                </g>
                <g transform="matrix(0.896117,3.24196e-17,-3.24196e-17,0.896117,222.704,233.585)">
                    <path d="M19,5.141L17.539,4.676C14.262,5.835 12.254,7.561 12.163,7.632L12.172,7.754C13.087,7.727 13.623,7.776 13.748,7.787C15.657,6.538 18.103,5.676 19,5.343L19,5.141ZM1.732,5.68C1.313,5.999 1.05,6.326 0.999,6.39C2.56,7.418 4.625,8.506 4.948,8.677C5.085,8.657 5.573,8.586 6.654,8.411C6.455,8.308 3.556,6.839 1.732,5.68ZM7.344,13.391C6.426,14.384 4.435,16.582 2.29,18.105C2.423,18.103 3.087,18.095 3.953,18.012C5.688,16.592 7.771,14.364 7.976,14.149L7.87,13.299L7.344,13.391ZM19.91,17.961L19.877,16.735C19.821,16.68 17.553,14.422 15.958,13.04C15.012,12.826 14.339,12.763 14.196,12.749C16.335,14.348 18.937,16.986 19.91,17.961Z" style="fill:rgb(207,27,43);fill-rule:nonzero;"/>
                </g>
            </g>
        </g>
    </g>
</svg>
