<?xml version="1.0" encoding="UTF-8" standalone="no"?>
<!DOCTYPE svg PUBLIC "-//W3C//DTD SVG 1.1//EN" "http://www.w3.org/Graphics/SVG/1.1/DTD/svg11.dtd">
<svg width="100%" height="100%" viewBox="0 0 512 512" version="1.1" xmlns="http://www.w3.org/2000/svg" xmlns:xlink="http://www.w3.org/1999/xlink" xml:space="preserve" xmlns:serif="http://www.serif.com/" style="fill-rule:evenodd;clip-rule:evenodd;stroke-linejoin:round;stroke-miterlimit:2;">
    <g transform="matrix(1.11593,-4.03717e-17,4.03717e-17,1.11593,-13.9687,-19.1113)">
        <g transform="matrix(11.1111,-1.36955e-31,4.93038e-32,11.1111,-2411.79,-2528.08)">
            <g>
                <g transform="matrix(0.896117,3.24196e-17,-3.24196e-17,0.896117,222.704,233.585)">
                    <path d="M36.469,27.17C36.262,29.289 34.174,31.437 32.068,31.737C22.767,33.063 21.617,31.929 16.923,30.475C12.025,28.957 9.41,30.043 4.002,30.751C1.724,31.049 0.033,29.147 0.333,26.993C0.76,23.929 1.552,20.621 1.436,17.229C1.343,14.486 0.678,12.475 0.255,9.01C-0.023,6.74 1.891,5.026 4,4.757C11.375,3.817 11.85,2.887 18.359,4.935C24.284,6.8 24.43,6.609 32,5.435C34.301,5.078 36.029,6.947 36.301,9.019C37.368,17.137 37.447,17.156 36.469,27.17Z" style="fill:rgb(41,174,102);fill-rule:nonzero;"/>
                </g>
                <g transform="matrix(0.896117,3.24196e-17,-3.24196e-17,0.896117,222.704,233.585)">
                    <path d="M4,4.757C5.822,4.525 8.872,3.959 11,3.801C11,8.792 11.903,12.783 11.882,17.336C11.863,21.208 10.995,24.764 10.999,29.769C8.877,29.931 5.853,30.509 4.002,30.751C4.063,25.867 5.554,21.793 5.383,16.95C5.254,13.298 4,9.551 4,4.757Z" style="fill:rgb(202,55,69);fill-rule:nonzero;"/>
                </g>
                <g transform="matrix(0.896117,3.24196e-17,-3.24196e-17,0.896117,222.704,233.585)">
                    <path d="M4.188,8.078L5.075,8.778L4.887,9.029L5.242,9.305L5.422,9.062L6.157,9.629L5.609,10.387L5.304,10.153L5.064,10.483L5.336,10.691L4.669,11.51L4.607,11.136L4.97,10.66L4.709,10.501L5.215,9.808L5.599,10.062L5.874,9.683L5.485,9.384L5.277,9.667L4.563,9.112L4.769,8.838L4.23,8.456L4.188,8.078ZM4.873,12.704L5.774,13.383L5.605,13.639L5.957,13.929L6.122,13.675L6.836,14.262L6.304,15.045L6.021,14.806L5.784,15.148L6.034,15.358L5.345,16.198L5.316,15.819L5.688,15.33L5.446,15.169L5.939,14.452L6.303,14.711L6.567,14.32L6.192,14.01L5.998,14.305L5.296,13.725L5.481,13.444L4.938,13.072L4.873,12.704ZM5.396,17.493L6.14,18.17L5.932,18.418L6.218,18.684L6.42,18.444L7.007,18.991L6.36,19.738L6.125,19.512L5.835,19.838L6.042,20.039L5.219,20.848L5.258,20.481L5.709,20.012L5.502,19.858L6.108,19.175L6.416,19.421L6.738,19.047L6.43,18.757L6.191,19.036L5.621,18.503L5.85,18.232L5.398,17.863L5.396,17.493ZM5.058,22.064L5.693,22.753L5.451,23.002L5.704,23.275L5.937,23.033L6.464,23.592L5.74,24.35L5.521,24.117L5.198,24.447L5.394,24.654L4.508,25.477L4.566,25.102L5.057,24.624L4.859,24.466L5.537,23.774L5.824,24.025L6.186,23.647L5.907,23.351L5.635,23.634L5.128,23.086L5.394,22.814L4.999,22.438L5.058,22.064ZM11.118,7.11L10.38,7.996L10.617,8.196L10.329,8.551L10.1,8.361L9.512,9.11L10.224,9.691L10.464,9.387L10.779,9.648L10.565,9.914L11.43,10.551L11.392,10.179L10.915,9.797L11.131,9.586L10.47,9.032L10.155,9.375L9.799,9.084L10.109,8.689L10.376,8.91L10.952,8.204L10.692,7.982L11.146,7.491L11.118,7.11ZM4.569,5.363L4.854,5.03L5.132,5.264L5.781,4.517L5.766,4.504L5.465,4.551L5.49,4.57L5.163,4.939L4.811,4.694L4.21,5.38L4.453,5.54L4.029,6.019L4.048,6.396L4.819,5.57L4.569,5.363ZM10.798,4.442C10.75,4.399 10.319,4.006 10.189,3.913L9.838,4.236L9.51,3.97L9.535,3.946L9.234,3.984L9.219,3.999C9.572,4.25 9.546,4.26 9.876,4.55L10.148,4.245L10.439,4.507L10.2,4.775L11.025,5.418L11.013,5.04L10.562,4.656L10.798,4.442ZM11.551,11.736L10.851,12.588L11.084,12.783L10.812,13.142L10.589,12.951L10.031,13.712L10.705,14.293L10.941,13.984L11.238,14.244L11.025,14.515L11.83,15.152L11.81,14.774L11.364,14.394L11.577,14.178L10.949,13.626L10.644,13.975L10.306,13.683L10.602,13.283L10.86,13.504L11.409,12.79L11.154,12.572L11.587,12.1L11.551,11.736ZM11.875,16.456L11.12,17.341L11.325,17.536L11.018,17.89L10.824,17.704L10.186,18.449L10.772,19.017L11.043,18.715L11.304,18.972L11.059,19.237L11.78,19.868L11.807,19.496L11.41,19.12L11.647,18.909L11.095,18.363L10.752,18.706L10.457,18.421L10.797,18.027L11.022,18.244L11.641,17.541L11.415,17.324L11.88,16.832L11.875,16.456ZM11.659,21.084L10.786,21.957L10.97,22.153L10.624,22.505L10.446,22.318L9.73,23.062L10.284,23.638L10.579,23.334L10.828,23.593L10.565,23.86L11.28,24.498L11.317,24.123L10.928,23.742L11.181,23.53L10.658,22.981L10.284,23.323L10.007,23.035L10.386,22.643L10.594,22.861L11.288,22.159L11.085,21.942L11.614,21.456L11.659,21.084Z" style="fill:rgb(250,174,41);fill-rule:nonzero;"/>
                </g>
                <g transform="matrix(0.896117,3.24196e-17,-3.24196e-17,0.896117,222.704,233.585)">
                    <path d="M10.058,5.81L10.042,5.41L9.449,5.122L9.012,5.18L8.297,4.911C8.17,4.93 7.746,4.994 6.715,5.161L6.02,5.645L5.583,5.714L5.018,6.159L5.042,6.558L4.527,6.971L4.609,7.894L5.179,8.152L5.223,8.551L5.838,8.82L6.267,8.751L7.003,9.01C8.013,8.846 8.43,8.783 8.554,8.765L9.213,8.294L9.645,8.238L10.19,7.812L10.158,7.412L10.672,7.021L10.615,6.092L10.058,5.81Z" style="fill:rgb(41,174,102);fill-rule:nonzero;"/>
                </g>
                <g transform="matrix(0.896117,3.24196e-17,-3.24196e-17,0.896117,222.704,233.585)">
                    <path d="M5.051,7.361L5.019,6.967L5.458,6.61L5.437,6.271L5.918,5.888L6.29,5.828L6.881,5.415L7.555,5.307C7.559,5.439 7.577,6.089 7.64,6.95C6.343,7.155 6.362,7.166 5.051,7.361Z" style="fill:rgb(250,174,41);fill-rule:nonzero;"/>
                </g>
                <g transform="matrix(0.896117,3.24196e-17,-3.24196e-17,0.896117,222.704,233.585)">
                    <path d="M5.011,7.368L5.047,7.763L5.532,7.98L5.568,8.32L6.091,8.548L6.458,8.489L7.086,8.708L7.748,8.602C7.655,7.73 7.608,7.089 7.599,6.957C7.392,6.99 5.021,7.366 5.011,7.368ZM10.193,6.6L10.17,6.204L9.695,5.969L9.68,5.628L9.171,5.387L8.799,5.438L8.186,5.211L7.513,5.316C7.517,5.447 7.536,6.097 7.599,6.957C9.152,6.711 9.985,6.622 10.193,6.6Z" style="fill:white;fill-rule:nonzero;"/>
                </g>
                <g transform="matrix(0.896117,3.24196e-17,-3.24196e-17,0.896117,222.704,233.585)">
                    <path d="M10.193,6.6L10.22,6.997L9.781,7.336L9.809,7.678L9.343,8.046L8.975,8.096L8.41,8.499L7.748,8.602C7.655,7.73 7.608,7.089 7.599,6.957C9.152,6.711 9.985,6.622 10.193,6.6ZM5.538,11.211L6.19,11.11L6.3,11.834L5.653,11.936L5.538,11.211ZM6.174,11.006L6.825,10.9L6.93,11.625L6.284,11.731L6.174,11.006ZM6.789,10.641L7.441,10.534L7.54,11.26L6.893,11.367L6.789,10.641ZM9.863,10.539L10.522,10.462L10.6,11.183L9.946,11.261L9.863,10.539ZM9.195,10.525L9.851,10.436L9.933,11.159L9.282,11.248L9.195,10.525ZM8.509,10.363L9.163,10.266L9.25,10.991L8.599,11.088L8.509,10.363Z" style="fill:rgb(250,174,41);fill-rule:nonzero;"/>
                </g>
                <g transform="matrix(0.896117,3.24196e-17,-3.24196e-17,0.896117,222.704,233.585)">
                    <path d="M7.395,10.169L8.465,9.998L8.576,10.897L7.515,11.068L7.395,10.169ZM5.684,12.127L6.329,12.025L6.443,12.743L5.803,12.846L5.684,12.127ZM6.346,12.128L6.988,12.021L7.096,12.738L6.459,12.845L6.346,12.128ZM7.028,12.278L7.668,12.17L7.77,12.884L7.135,12.993L7.028,12.278ZM9.968,11.451L10.621,11.373L10.698,12.086L10.05,12.165L9.968,11.451ZM9.33,11.643L9.979,11.554L10.06,12.266L9.417,12.357L9.33,11.643ZM8.717,11.998L9.36,11.9L9.447,12.611L8.808,12.71L8.717,11.998Z" style="fill:rgb(250,174,41);fill-rule:nonzero;"/>
                </g>
                <g transform="matrix(0.896117,3.24196e-17,-3.24196e-17,0.896117,222.704,233.585)">
                    <path d="M7.696,12.36L8.742,12.187L8.856,13.071L7.822,13.247L7.696,12.36Z" style="fill:rgb(250,174,41);fill-rule:nonzero;"/>
                </g>
                <g transform="matrix(0.896117,3.24196e-17,-3.24196e-17,0.896117,222.704,233.585)">
                    <path d="M9.027,23.654C8.87,23.678 8.423,23.745 7.065,23.976C6.185,24.652 5.66,25.045 5.537,25.137L5.356,26.454L6.672,27.157C6.834,27.131 8.07,26.927 8.691,26.835C9.52,26.206 10.078,25.802 10.2,25.714L10.326,24.397L9.027,23.654Z" style="fill:white;fill-rule:nonzero;"/>
                </g>
                <g transform="matrix(0.896117,3.24196e-17,-3.24196e-17,0.896117,222.704,233.585)">
                    <path d="M9.334,14.763C9.206,14.784 8.793,14.854 7.742,15.049L6.681,16.125L6.723,17.34L7.842,17.988C8.892,17.797 9.304,17.728 9.432,17.707L10.563,16.675L10.523,15.453L9.334,14.763ZM10.108,16.6L9.248,17.399L8.03,17.617L7.167,17.12L7.135,16.187L7.954,15.362L9.173,15.141L10.078,15.663L10.108,16.6ZM9.077,23.581C8.914,23.606 8.464,23.674 7.033,23.917C6.118,24.62 5.568,25.03 5.44,25.125L5.25,26.498C5.359,26.558 5.854,26.831 6.623,27.231C6.791,27.204 8.098,26.988 8.728,26.896C9.592,26.24 10.173,25.822 10.3,25.731L10.43,24.359C10.322,24.295 9.842,24.013 9.077,23.581ZM9.862,25.662C9.757,25.738 9.276,26.091 8.566,26.631C8.427,26.652 7.987,26.718 6.838,26.908L5.71,26.307L5.863,25.176C5.968,25.097 6.411,24.763 7.173,24.178C8.294,23.988 8.724,23.922 8.86,23.901L9.974,24.531L9.863,25.662L9.862,25.662ZM10.559,20.345L10.598,19.908L10.181,19.963L10.218,19.476C8.932,19.654 8.953,19.675 6.879,20.031L6.834,20.515L6.374,20.592L6.325,21.027L5.921,21.092L5.837,21.729L6.244,21.664L6.175,22.138L6.638,22.061L6.56,22.58C8.758,22.21 8.737,22.193 9.947,22.028L10.013,21.509L10.432,21.454L10.491,20.982L10.984,20.925L11.05,20.289L10.559,20.345ZM9.757,21.788C9.146,21.875 7.06,22.231 6.826,22.271C6.999,21.11 7.067,20.379 7.082,20.214C7.314,20.174 9.377,19.818 9.981,19.73C9.921,20.512 9.778,21.624 9.757,21.788Z" style="fill:rgb(41,174,102);fill-rule:nonzero;"/>
                </g>
                <g transform="matrix(0.896117,3.24196e-17,-3.24196e-17,0.896117,222.704,233.585)">
                    <path d="M8.547,19.495C7.442,20.346 6.836,20.795 6.686,20.906L6.596,21.625C7.13,21.931 7.664,22.237 8.199,22.543C8.355,22.425 9.408,21.629 10.162,21.085L10.245,20.325C10.11,20.256 9.49,19.94 8.547,19.495Z" style="fill:rgb(41,174,102);fill-rule:nonzero;"/>
                </g>
                <g transform="matrix(0.896117,3.24196e-17,-3.24196e-17,0.896117,222.704,233.585)">
                    <path d="M7.061,25.108L7.939,24.48L8.696,24.841L8.59,25.821L7.714,26.441L6.94,26.088L7.061,25.108Z" style="fill:rgb(202,55,69);fill-rule:nonzero;"/>
                </g>
                <g transform="matrix(0.896117,3.24196e-17,-3.24196e-17,0.896117,222.704,233.585)">
                    <path d="M8.362,29.165L8.114,29.368C8.068,29.283 7.802,29.012 7.361,29.05C6.994,29.081 6.199,29.444 6.004,29.487C5.541,29.592 4.098,28.715 5.07,26.869C5.611,27.218 5.34,27.979 5.557,28.165C6.089,28.62 6.158,28.564 6.261,28.878C6.356,29.166 7.132,28.82 7.371,28.821C7.829,28.825 8.249,29.064 8.362,29.165Z" style="fill:rgb(250,174,41);fill-rule:nonzero;"/>
                </g>
                <g transform="matrix(0.896117,3.24196e-17,-3.24196e-17,0.896117,222.704,233.585)">
                    <path d="M6.671,29.432L6.909,29.559C6.976,29.427 7.277,29.093 7.692,28.997C8.107,28.901 8.8,29.032 9.034,29.015C9.496,28.982 10.99,27.705 10.368,26.071C9.748,26.561 9.869,27.3 9.634,27.537C9.1,28.076 9.009,28.004 8.825,28.475C8.699,28.798 7.96,28.685 7.702,28.769C7.259,28.912 6.811,29.273 6.671,29.432Z" style="fill:rgb(250,174,41);fill-rule:nonzero;"/>
                </g>
                <g transform="matrix(0.896117,3.24196e-17,-3.24196e-17,0.896117,222.704,233.585)">
                    <path d="M18.319,8.176C18.478,8.353 19.474,9.461 19.622,10.847C19.798,12.485 18.637,13.438 16.804,12.944C16.661,12.906 15.952,12.715 15.152,12.136C15.305,12.308 16.189,13.298 17.566,13.706C19.37,14.24 20.626,13.307 20.438,11.599C20.307,10.412 19.44,9.024 18.319,8.176ZM15.944,7.054L15.732,7.48L16.147,7.964L15.602,7.746L15.394,8.178L15.266,7.62L14.722,7.43L15.188,7.274L15.066,6.714L15.476,7.185L15.944,7.054Z" style="fill:white;fill-rule:nonzero;"/>
                </g>
                <g transform="matrix(0.896117,3.24196e-17,-3.24196e-17,0.896117,222.704,233.585)">
                    <path d="M17.554,8.429L17.349,8.84L17.772,9.344L17.224,9.094L17.021,9.507L16.885,8.944L16.337,8.709L16.802,8.595L16.671,8.031L17.089,8.53L17.554,8.429ZM16.072,8.661L15.868,9.087L16.291,9.568L15.743,9.351L15.541,9.781L15.405,9.225L14.858,9.036L15.321,8.881L15.187,8.323L15.608,8.793L16.072,8.661ZM14.543,9.149L14.341,9.6L14.764,10.039L14.217,9.881L14.015,10.337L13.879,9.796L13.334,9.679L13.795,9.46L13.661,8.915L14.081,9.335L14.543,9.149ZM16.236,10.378L16.035,10.799L16.46,11.276L15.91,11.06L15.707,11.482L15.571,10.934L15.021,10.746L15.485,10.594L15.347,10.042L15.772,10.508L16.236,10.378Z" style="fill:white;fill-rule:nonzero;"/>
                </g>
                <g transform="matrix(0.896117,3.24196e-17,-3.24196e-17,0.896117,222.704,233.585)">
                    <path d="M8.101,20.078L8.951,19.933L8.894,20.539L8.042,20.684L8.101,20.078ZM7.948,21.458L8.804,21.314L8.722,21.923L7.864,22.068L7.948,21.458Z" style="fill:rgb(202,55,69);fill-rule:nonzero;"/>
                </g>
                <g transform="matrix(0.896117,3.24196e-17,-3.24196e-17,0.896117,222.704,233.585)">
                    <path d="M6.674,21.014L7.84,20.813L7.767,21.419L6.596,21.62L6.674,21.014ZM9.081,20.604L10.234,20.432L10.168,21.038L9.011,21.21L9.081,20.604Z" style="fill:rgb(250,174,41);fill-rule:nonzero;"/>
                </g>
            </g>
        </g>
    </g>
</svg>
