<?xml version="1.0" encoding="UTF-8" standalone="no"?>
<!DOCTYPE svg PUBLIC "-//W3C//DTD SVG 1.1//EN" "http://www.w3.org/Graphics/SVG/1.1/DTD/svg11.dtd">
<svg width="100%" height="100%" viewBox="0 0 512 512" version="1.1" xmlns="http://www.w3.org/2000/svg" xmlns:xlink="http://www.w3.org/1999/xlink" xml:space="preserve" xmlns:serif="http://www.serif.com/" style="fill-rule:evenodd;clip-rule:evenodd;stroke-linejoin:round;stroke-miterlimit:2;">
    <g transform="matrix(1.11593,-4.03717e-17,4.03717e-17,1.11593,-13.9687,-19.1113)">
        <g transform="matrix(11.1111,-1.36955e-31,4.93038e-32,11.1111,-2411.79,-2528.08)">
            <g>
                <g transform="matrix(0.896117,3.24196e-17,-3.24196e-17,0.896117,222.704,233.585)">
                    <path d="M36.469,27.17C36.262,29.289 34.174,31.437 32.068,31.737C22.767,33.063 21.617,31.929 16.923,30.475C12.025,28.957 9.41,30.043 4.002,30.751C1.724,31.049 0.033,29.147 0.333,26.993C0.76,23.929 1.552,20.621 1.436,17.229C1.343,14.486 0.678,12.475 0.255,9.01C-0.023,6.74 1.891,5.026 4,4.757C11.375,3.817 11.85,2.887 18.359,4.935C24.284,6.8 24.43,6.609 32,5.435C34.301,5.078 36.029,6.947 36.301,9.019C37.368,17.137 37.447,17.156 36.469,27.17Z" style="fill:rgb(227,9,23);fill-rule:nonzero;"/>
                </g>
                <g transform="matrix(0.896117,3.24196e-17,-3.24196e-17,0.896117,222.704,233.585)">
                    <path d="M16.474,23.207C10.501,21.64 10.936,16.97 10.936,16.903C10.907,13.459 13.063,10.364 16.474,11.243C18.331,11.721 19.902,13.218 20.151,13.455C18.619,11.497 16.38,9.754 14.325,9.494C11.406,9.125 7.82,11.77 7.837,17.412C7.855,23.456 12.464,23.904 14.31,24.148C15.277,24.276 18.086,24.638 20.176,23.171C18.529,23.766 16.769,23.285 16.474,23.207ZM20.844,18.686C22.293,19.461 23.119,19.815 23.322,19.902C23.422,21.199 23.439,22.232 23.442,22.435C23.56,22.282 24.171,21.49 24.837,20.467C25.027,20.526 25.826,20.772 27.271,20.987C26.366,19.992 25.769,19.313 25.64,19.166C25.741,18.992 26.25,18.123 26.858,16.965C26.681,17.054 25.514,17.639 24.592,17.944C24.449,17.772 23.829,17.031 22.825,15.774C23.034,17.08 23.15,18.121 23.173,18.325C22.988,18.365 22.197,18.536 20.844,18.686Z" style="fill:rgb(238,238,238);fill-rule:nonzero;"/>
                </g>
            </g>
        </g>
    </g>
</svg>
