<?xml version="1.0" encoding="UTF-8" standalone="no"?>
<!DOCTYPE svg PUBLIC "-//W3C//DTD SVG 1.1//EN" "http://www.w3.org/Graphics/SVG/1.1/DTD/svg11.dtd">
<svg width="100%" height="100%" viewBox="0 0 512 512" version="1.1" xmlns="http://www.w3.org/2000/svg" xmlns:xlink="http://www.w3.org/1999/xlink" xml:space="preserve" xmlns:serif="http://www.serif.com/" style="fill-rule:evenodd;clip-rule:evenodd;stroke-linejoin:round;stroke-miterlimit:2;">
    <g transform="matrix(1.11593,-4.03717e-17,4.03717e-17,1.11593,-13.9687,-19.1113)">
        <g transform="matrix(11.1111,-1.36955e-31,4.93038e-32,11.1111,-2411.79,-2528.08)">
            <g>
                <g transform="matrix(0.896117,3.24196e-17,-3.24196e-17,0.896117,222.704,233.585)">
                    <path d="M36.469,27.17L36.564,26.189C26.656,26.941 26.489,28.431 18.838,25.987C9.982,23.159 9.797,25.983 0.481,25.992L0.333,26.993C0.033,29.147 1.724,31.049 4.002,30.751C11.374,29.786 11.848,28.83 18.359,30.934C21.72,32.019 23.309,32.985 32.068,31.737C34.174,31.437 36.262,29.289 36.469,27.17Z" style="fill:rgb(217,0,1);fill-rule:nonzero;"/>
                </g>
                <g transform="matrix(0.896117,3.24196e-17,-3.24196e-17,0.896117,222.704,233.585)">
                    <path d="M1.125,22.002C8.095,22.004 11.25,19.718 16.734,21.23C20.359,22.229 22.77,23.455 26.13,23.337C29.381,23.223 33.693,22.123 36.973,22.012C36.943,22.347 36.932,22.335 36.564,26.189C26.656,26.941 26.489,28.431 18.838,25.987C9.982,23.159 9.797,25.983 0.481,25.992C0.551,25.543 1.039,22.591 1.125,22.002Z" style="fill:rgb(252,220,2);fill-rule:nonzero;"/>
                </g>
                <g transform="matrix(0.896117,3.24196e-17,-3.24196e-17,0.896117,222.704,233.585)">
                    <path d="M1.448,18.098C8.431,18.169 11.13,15.501 17.62,17.441C20.776,18.384 23.412,19.544 26.65,19.326C30.44,19.071 33.906,18.123 37.131,18.012C37.149,20.098 37.003,21.693 36.973,22.012C29.217,22.274 28.389,24.888 19.639,22.117C16.636,21.165 14.753,20.39 10.716,20.874C6.907,21.329 5.508,22.004 1.125,22.002C1.17,21.692 1.437,19.857 1.448,18.098Z" style="fill:rgb(20,20,20);fill-rule:nonzero;"/>
                </g>
                <g transform="matrix(0.896117,3.24196e-17,-3.24196e-17,0.896117,222.704,233.585)">
                    <path d="M1.083,14.014C7.958,14.024 11.19,11.702 16.695,13.221C20.322,14.222 22.735,15.448 26.096,15.332C29.347,15.219 33.658,14.12 36.938,14.011C37.115,16.113 37.128,17.692 37.131,18.012C28.903,18.294 28.725,20.949 19.437,18.007C15.976,16.911 14.495,16.422 10.584,16.949C7.417,17.375 5.365,18.138 1.448,18.098C1.45,17.77 1.461,16.056 1.083,14.014Z" style="fill:rgb(217,0,1);fill-rule:nonzero;"/>
                </g>
                <g transform="matrix(0.896117,3.24196e-17,-3.24196e-17,0.896117,222.704,233.585)">
                    <path d="M0.388,10.012C7.323,10.022 10.929,7.786 16.317,9.254C19.952,10.245 22.218,11.427 25.649,11.316C28.907,11.21 33.158,10.123 36.439,10.021C36.484,10.339 36.843,12.876 36.938,14.011C29.182,14.27 28.356,16.883 19.602,14.109C16.567,13.147 14.699,12.379 10.674,12.869C6.928,13.324 5.368,14.02 1.083,14.014C0.71,12.001 0.679,12.024 0.388,10.012Z" style="fill:rgb(252,220,2);fill-rule:nonzero;"/>
                </g>
                <g transform="matrix(0.896117,3.24196e-17,-3.24196e-17,0.896117,222.704,233.585)">
                    <path d="M0.255,9.01L0.388,10.012C7.323,10.022 10.929,7.786 16.317,9.254C19.952,10.245 22.218,11.427 25.649,11.316C28.907,11.21 33.158,10.123 36.439,10.021L36.301,9.019C36.029,6.947 34.301,5.078 32,5.435C24.446,6.606 24.298,6.804 18.359,4.935C11.85,2.887 11.375,3.817 4,4.757C1.891,5.026 -0.023,6.74 0.255,9.01Z" style="fill:rgb(20,20,20);fill-rule:nonzero;"/>
                </g>
                <g transform="matrix(0.896117,3.24196e-17,-3.24196e-17,0.896117,222.704,233.585)">
                    <path d="M18.693,13.816C20.721,14.465 22.946,16.716 22.965,19.032C22.982,21.137 21.161,22.601 18.731,21.824C16.708,21.177 14.857,19.154 14.83,16.818C14.806,14.741 16.257,13.036 18.693,13.816Z" style="fill:white;"/>
                </g>
                <g transform="matrix(0.896117,3.24196e-17,-3.24196e-17,0.896117,222.704,233.585)">
                    <path d="M18.102,14.637L17.778,13.85C17.951,13.842 18.501,13.925 18.943,14.215C19.396,14.513 19.463,14.994 19.474,15.074L18.802,15.057L18.102,14.637Z" style="fill:rgb(217,0,0);fill-rule:nonzero;"/>
                </g>
                <g transform="matrix(0.896117,3.24196e-17,-3.24196e-17,0.896117,222.704,233.585)">
                    <path d="M18.35,14.607L18.298,13.922C18.449,13.912 18.592,13.997 18.73,14.059C19.052,14.204 19.239,14.513 19.213,14.47L18.804,14.859L18.35,14.607Z" style="fill:rgb(252,220,2);fill-rule:nonzero;"/>
                </g>
                <g transform="matrix(0.896117,3.24196e-17,-3.24196e-17,0.896117,222.704,233.585)">
                    <path d="M18.607,16.639C18.518,16.466 18.581,15.634 18.805,15.649C19.036,15.664 19.457,15.054 18.737,14.583C18.011,14.107 17.919,14.726 17.909,14.794C17.859,14.793 17.215,14.784 17.316,14.989C17.368,15.095 18.053,15.21 18.128,15.313C18.258,15.49 17.656,16.034 17.6,16.084C17.146,16.493 17.443,17.391 17.699,17.691L18.42,18.458C18.718,18.818 19.189,19.134 18.873,18.895L18.859,19.5C18.774,19.48 18.134,19.332 17.808,19.196C17.489,19.061 17.232,19.217 17.135,19.465C17.071,19.626 17.242,19.907 17.252,19.708C17.264,19.467 17.347,19.753 17.352,19.82C17.365,20.027 17.521,19.899 17.528,19.766C17.533,19.648 17.617,19.658 17.634,19.776C17.656,19.921 17.823,19.712 17.833,19.666C17.867,19.518 18.119,19.546 18.224,19.553C18.475,19.57 19.477,20.107 18.848,19.791L18.79,20.891C18.708,20.87 17.847,20.652 17.748,20.758C17.658,20.854 18.264,21.022 18.312,21.036C18.239,21.133 18.07,21.314 18.175,21.374C18.203,21.39 19.034,21.26 19.121,21.272C19.196,21.283 19.729,21.529 19.758,21.478C19.787,21.427 19.166,20.963 19.146,20.921C19.104,20.829 19.017,19.891 19.009,19.801L19.626,19.998C20.103,20.183 19.707,19.488 19.685,19.45C19.475,19.082 19.769,19.116 20.03,19.246C20.257,19.359 20.671,19.533 20.672,18.883C20.673,18.386 18.639,16.7 18.607,16.639ZM19.361,19.597L19.127,19.521L19.222,19.131C19.219,19.293 19.515,19.646 19.361,19.597Z" style="fill:rgb(20,20,20);fill-rule:nonzero;"/>
                </g>
                <g transform="matrix(0.896117,3.24196e-17,-3.24196e-17,0.896117,222.704,233.585)">
                    <path d="M18.283,15.462C18.297,15.251 17.889,15.097 17.879,15.338C17.87,15.568 18.262,15.782 18.283,15.462Z" style="fill:rgb(217,0,0);fill-rule:nonzero;"/>
                </g>
                <g transform="matrix(0.896117,3.24196e-17,-3.24196e-17,0.896117,222.704,233.585)">
                    <path d="M18.617,16.793C18.726,16.789 20.278,17.965 20.419,18.072C20.833,18.386 20.689,19.168 20.671,19.264C20.656,19.347 20.627,19.435 20.579,19.505C20.536,19.569 20.321,19.667 20.397,19.651C20.336,19.467 20.004,18.874 19.451,18.482C18.482,17.796 18.194,16.808 18.617,16.793Z" style="fill:rgb(156,166,156);fill-rule:nonzero;"/>
                </g>
                <g transform="matrix(0.896117,3.24196e-17,-3.24196e-17,0.896117,222.704,233.585)">
                    <path d="M20.116,17.959C20.32,18.077 21.463,18.639 21.534,19.619C21.59,20.388 20.89,20.732 20.625,20.797L20.796,20.565L20.512,20.572L20.643,20.407L20.198,20.361C20.43,20.257 20.91,19.898 20.709,19.418C20.722,19.855 20.38,19.884 20.423,19.88C20.692,19.365 19.697,18.45 19.594,18.356L19.881,18.376L19.594,18.058L20.201,18.479L19.911,18.035L20.486,18.438L20.116,17.959Z" style="fill:rgb(217,0,0);fill-rule:nonzero;"/>
                </g>
                <g transform="matrix(0.896117,3.24196e-17,-3.24196e-17,0.896117,222.704,233.585)">
                    <path d="M18.377,15.022C18.381,15.083 18.333,15.109 18.28,15.092C18.225,15.075 18.173,15.017 18.169,14.958C18.165,14.897 18.213,14.871 18.267,14.887C18.321,14.904 18.374,14.964 18.377,15.022Z" style="fill:rgb(156,166,156);fill-rule:nonzero;"/>
                </g>
            </g>
        </g>
    </g>
</svg>
