<?xml version="1.0" encoding="UTF-8" standalone="no"?>
<!DOCTYPE svg PUBLIC "-//W3C//DTD SVG 1.1//EN" "http://www.w3.org/Graphics/SVG/1.1/DTD/svg11.dtd">
<svg width="100%" height="100%" viewBox="0 0 512 512" version="1.1" xmlns="http://www.w3.org/2000/svg" xmlns:xlink="http://www.w3.org/1999/xlink" xml:space="preserve" xmlns:serif="http://www.serif.com/" style="fill-rule:evenodd;clip-rule:evenodd;stroke-linejoin:round;stroke-miterlimit:2;">
    <g transform="matrix(1.11593,-4.03717e-17,4.03717e-17,1.11593,-13.9687,-19.1113)">
        <g transform="matrix(11.1111,-1.36955e-31,4.93038e-32,11.1111,-2411.79,-2528.08)">
            <g>
                <g transform="matrix(0.896117,3.24196e-17,-3.24196e-17,0.896117,222.704,233.585)">
                    <path d="M32,5.435C24.446,6.606 24.298,6.804 18.359,4.935C11.85,2.887 11.375,3.817 4,4.757C1.891,5.026 -0.023,6.74 0.255,9.01C0.717,12.789 1.468,14.816 1.448,18.098C8.431,18.169 11.13,15.501 17.62,17.441C20.776,18.384 23.412,19.544 26.65,19.326C30.44,19.071 33.906,18.123 37.131,18.012C37.096,13.894 36.521,10.694 36.301,9.019C36.029,6.947 34.301,5.078 32,5.435Z" style="fill:rgb(0,91,187);fill-rule:nonzero;"/>
                </g>
                <g transform="matrix(0.896117,3.24196e-17,-3.24196e-17,0.896117,222.704,233.585)">
                    <path d="M36.469,27.17C36.262,29.289 34.174,31.437 32.068,31.737C22.767,33.063 21.617,31.929 16.923,30.475C12.025,28.957 9.41,30.043 4.002,30.751C1.724,31.049 0.033,29.147 0.333,26.993C0.708,24.301 1.43,21.062 1.448,18.098C8.431,18.169 11.13,15.501 17.62,17.441C20.776,18.384 23.412,19.544 26.65,19.326C30.44,19.071 33.906,18.123 37.131,18.012C37.15,20.314 37.052,21.206 36.469,27.17Z" style="fill:rgb(255,213,0);fill-rule:nonzero;"/>
                </g>
            </g>
        </g>
    </g>
</svg>
