<?xml version="1.0" encoding="UTF-8" standalone="no"?>
<!DOCTYPE svg PUBLIC "-//W3C//DTD SVG 1.1//EN" "http://www.w3.org/Graphics/SVG/1.1/DTD/svg11.dtd">
<svg width="100%" height="100%" viewBox="0 0 512 512" version="1.1" xmlns="http://www.w3.org/2000/svg" xmlns:xlink="http://www.w3.org/1999/xlink" xml:space="preserve" xmlns:serif="http://www.serif.com/" style="fill-rule:evenodd;clip-rule:evenodd;stroke-linejoin:round;stroke-miterlimit:2;">
    <g transform="matrix(1.11593,-4.03717e-17,4.03717e-17,1.11593,-13.9687,-19.1113)">
        <g transform="matrix(11.1111,-1.36955e-31,4.93038e-32,11.1111,-2411.79,-2528.08)">
            <g>
                <g transform="matrix(0.896117,3.24196e-17,-3.24196e-17,0.896117,222.704,233.585)">
                    <path d="M35.526,7.039C34.192,5.095 32.306,5.387 32,5.435C24.437,6.608 24.303,6.825 18,4.821C18,5.854 18.043,6.662 18.051,6.821C20.544,7.629 22.584,8.396 25.18,8.333C28.315,8.257 32.412,7.224 35.526,7.039ZM0.641,24.991C9.821,24.983 10.009,22.147 18.766,24.93C27.42,27.68 27.608,25.725 36.66,25.186C36.596,25.848 36.533,26.509 36.469,27.17C26.856,28.077 26.673,29.523 18.566,26.931C9.712,24.099 9.521,26.985 0.333,26.993C0.355,26.832 0.447,26.175 0.641,24.991ZM18.871,16.826C21.464,17.654 23.529,18.42 26.167,18.342C29.438,18.245 33.807,17.123 37.112,17.011C37.142,18.035 37.131,18.853 37.128,19.013C33.825,19.127 29.455,20.251 26.181,20.349C23.573,20.427 21.562,19.689 18.89,18.836C18.892,18.675 18.903,17.861 18.871,16.826ZM18.603,12.828C21.224,13.66 23.23,14.401 25.89,14.326C29.184,14.234 33.528,13.123 36.841,13.017C36.859,13.176 36.938,13.887 37.014,15.01C33.711,15.12 29.342,16.24 26.068,16.335C23.457,16.411 21.442,15.671 18.769,14.817C18.759,14.657 18.707,13.904 18.603,12.828ZM1.255,21.019C7.159,21.031 10.672,19.275 14.793,19.825C17.705,20.213 21.363,21.932 24.296,22.28C27.829,22.699 33.103,21.149 37.051,21.014C36.985,22.047 36.973,22.022 36.867,23.071C28.303,23.382 28.115,25.823 18.99,22.933C10.289,20.176 10.108,22.994 0.971,22.997C1.159,21.829 1.237,21.178 1.255,21.019ZM4.002,30.751C11.374,29.786 11.848,28.83 18.359,30.934C21.72,32.019 23.309,32.985 32.068,31.737C33.505,31.532 34.919,30.432 35.717,29.188C24.801,30.7 24.638,30.902 17.157,28.528C10.627,26.456 7.01,28.995 0.663,28.997C1.245,30.174 2.518,30.945 4.002,30.751ZM18.199,8.833C20.807,9.666 22.767,10.396 25.431,10.322C28.724,10.231 32.996,9.123 36.301,9.019C36.433,10.022 36.437,10.006 36.581,11.022C33.269,11.124 28.973,12.227 25.66,12.318C23.011,12.39 21.116,11.698 18.398,10.839C18.267,9.582 18.214,8.994 18.199,8.833Z" style="fill:rgb(178,35,52);fill-rule:nonzero;"/>
                </g>
                <g transform="matrix(0.896117,3.24196e-17,-3.24196e-17,0.896117,222.704,233.585)">
                    <path d="M0.313,27.673L0.339,27.951L0.399,28.247C0.497,28.662 0.632,28.935 0.66,28.992L0.663,28.997C8.354,28.995 9.628,26.113 18.24,28.873C24.604,30.913 24.745,30.708 35.717,29.188L35.72,29.184C35.757,29.125 35.942,28.836 36.126,28.415L36.249,28.111L36.335,27.837C36.44,27.471 36.464,27.224 36.469,27.17C26.856,28.077 26.673,29.523 18.566,26.931C9.712,24.099 9.521,26.985 0.333,26.993C0.325,27.047 0.29,27.298 0.313,27.673ZM0.971,22.997C10.103,22.994 10.284,20.175 18.99,22.933C28.112,25.822 28.3,23.383 36.867,23.071C36.85,23.24 36.779,23.937 36.66,25.186C27.609,25.725 27.421,27.681 18.766,24.93C10.015,22.149 9.827,24.983 0.641,24.991C0.806,23.985 0.807,24.007 0.971,22.997ZM1.421,19.074C1.414,19.23 1.377,19.998 1.255,21.019C7.159,21.031 10.672,19.275 14.793,19.825C17.705,20.213 21.363,21.932 24.296,22.28C27.829,22.699 33.103,21.149 37.051,21.014C37.061,20.854 37.114,20.035 37.128,19.013C33.825,19.127 29.455,20.251 26.181,20.349C23.573,20.427 21.562,19.689 18.89,18.836C10.472,16.149 9.633,19.136 1.421,19.074ZM18.769,14.817C21.362,15.646 23.429,16.412 26.068,16.335C29.339,16.24 33.709,15.12 37.014,15.01C37.025,15.169 37.083,16.036 37.112,17.011C33.809,17.123 29.441,18.245 26.167,18.342C23.557,18.419 21.543,17.68 18.871,16.826C18.866,16.665 18.841,15.853 18.769,14.817ZM18.398,10.839C21.038,11.673 22.982,12.391 25.66,12.318C28.969,12.228 33.267,11.124 36.581,11.022C36.754,12.245 36.823,12.857 36.841,13.017C33.53,13.123 29.187,14.234 25.89,14.326C23.258,14.4 21.303,13.685 18.603,12.828C18.553,12.315 18.415,10.998 18.398,10.839ZM0.255,9.01C0.248,8.955 0.219,8.723 0.246,8.328C0.217,8.703 0.248,8.955 0.255,9.01ZM0.622,7.003L0.619,7.008L0.622,7.003ZM0.279,8.051L0.344,7.753L0.279,8.051ZM18.199,8.833C20.807,9.666 22.767,10.396 25.431,10.322C28.724,10.231 32.996,9.123 36.301,9.019C36.294,8.963 36.261,8.714 36.146,8.339L36.055,8.067L35.928,7.768C35.741,7.356 35.564,7.098 35.527,7.043L35.526,7.039C32.418,7.223 28.32,8.257 25.18,8.333C22.612,8.396 20.621,7.654 18.051,6.821C18.06,6.983 18.099,7.725 18.199,8.833Z" style="fill:rgb(238,238,238);fill-rule:nonzero;"/>
                </g>
                <g transform="matrix(0.896117,3.24196e-17,-3.24196e-17,0.896117,222.704,233.585)">
                    <path d="M18,4.821C11.98,2.907 10.669,3.907 4,4.757C1.891,5.026 -0.023,6.74 0.255,9.01C0.748,13.047 1.608,15.197 1.421,19.074C9.629,19.136 10.471,16.149 18.89,18.836C18.961,13.576 18,9.347 18,4.821Z" style="fill:rgb(60,59,110);fill-rule:nonzero;"/>
                </g>
                <g transform="matrix(0.896117,3.24196e-17,-3.24196e-17,0.896117,222.704,233.585)">
                    <path d="M2.136,7.687L2.8,8.091L2.65,8.84L3.21,8.334L3.877,8.717L3.56,8.015L4.13,7.488L3.37,7.579L3.074,6.874L2.9,7.627L2.136,7.687ZM4.363,9.5L5.031,9.868L4.908,10.627L5.442,10.091L6.107,10.447L5.776,9.756L6.322,9.209L5.574,9.327L5.253,8.632L5.113,9.396L4.363,9.5ZM8.278,8.896L8.931,9.257L8.784,10.018L9.334,9.483L9.987,9.854L9.679,9.156L10.243,8.632L9.49,8.722L9.187,8.021L9.027,8.785L8.278,8.896ZM12.235,8.489L12.898,8.933L12.727,9.662L13.304,9.217L13.965,9.705L13.661,8.958L14.24,8.568L13.475,8.496L13.177,7.751L13.004,8.48L12.235,8.489ZM5.011,13.479L5.672,13.86L5.557,14.652L6.071,14.094L6.705,14.46L6.386,13.744L6.894,13.183L6.177,13.303L5.837,12.626L5.733,13.373L5.011,13.479ZM8.769,12.863L9.407,13.226L9.267,14.004L9.796,13.455L10.422,13.828L10.125,13.12L10.663,12.593L9.935,12.686L9.628,12.011L9.489,12.75L8.769,12.863ZM12.606,12.445L13.257,12.878L13.077,13.608L13.659,13.163L14.313,13.655L14.022,12.908L14.607,12.529L13.839,12.453L13.541,11.74L13.366,12.435L12.606,12.445ZM6.114,7.194L6.764,7.548L6.602,8.317L7.165,7.767L7.817,8.121L7.518,7.426L8.094,6.877L7.337,6.996L7.054,6.301L6.871,7.071L6.114,7.194ZM10.081,6.609L10.728,7.002L10.548,7.758L11.128,7.252L11.781,7.668L11.49,6.946L12.081,6.463L11.315,6.5L11.04,5.781L10.844,6.535L10.081,6.609ZM14.086,6.545L14.735,7.095L14.554,7.789L15.137,7.449L15.794,8.04L15.5,7.252L16.089,6.952L15.323,6.765L15.045,5.981L14.851,6.668L14.086,6.545ZM2.713,11.697L3.401,12.098L3.304,12.837L3.823,12.338L4.5,12.714L4.144,12.022L4.667,11.502L3.925,11.591L3.572,10.891L3.464,11.638L2.713,11.697ZM7.132,12.312L7.654,11.772L8.302,12.116L7.98,11.438L8.515,10.898L7.78,11.016L7.457,10.329L7.328,11.09L6.595,11.211L7.252,11.559L7.132,12.312ZM10.451,10.634L11.102,11.018L10.947,11.752L11.503,11.26L12.154,11.661L11.851,10.962L12.421,10.492L11.662,10.527L11.356,9.82L11.198,10.562L10.451,10.634ZM14.429,10.571L15.094,11.109L14.923,11.783L15.505,11.456L16.172,12.035L15.865,11.265L16.447,10.971L15.674,10.787L15.365,10.014L15.198,10.691L14.429,10.571ZM3.405,15.776L4.035,16.179L3.857,16.93L4.415,16.419L5.019,16.793L4.754,16.094L5.293,15.557L4.578,15.656L4.27,14.935L4.133,15.708L3.405,15.776ZM7.571,16.361L8.114,15.806L8.703,16.151L8.448,15.462L8.986,14.905L8.281,15.032L7.995,14.331L7.848,15.112L7.145,15.242L7.748,15.592L7.571,16.361ZM10.848,14.617L11.459,15.002L11.27,15.756L11.835,15.246L12.445,15.652L12.186,14.937L12.757,14.45L12.02,14.495L11.742,13.781L11.57,14.535L10.848,14.617ZM14.751,14.529L15.399,15.079L15.191,15.768L15.798,15.432L16.442,16.024L16.172,15.238L16.777,14.941L16.001,14.753L15.716,13.972L15.523,14.654L14.751,14.529Z" style="fill:white;fill-rule:nonzero;"/>
                </g>
            </g>
        </g>
    </g>
</svg>
