<?xml version="1.0" encoding="UTF-8" standalone="no"?>
<!DOCTYPE svg PUBLIC "-//W3C//DTD SVG 1.1//EN" "http://www.w3.org/Graphics/SVG/1.1/DTD/svg11.dtd">
<svg width="100%" height="100%" viewBox="0 0 512 512" version="1.1" xmlns="http://www.w3.org/2000/svg" xmlns:xlink="http://www.w3.org/1999/xlink" xml:space="preserve" xmlns:serif="http://www.serif.com/" style="fill-rule:evenodd;clip-rule:evenodd;stroke-linejoin:round;stroke-miterlimit:2;">
    <g transform="matrix(1.11593,-4.03717e-17,4.03717e-17,1.11593,-13.9687,-19.1113)">
        <g transform="matrix(11.1111,-1.36955e-31,4.93038e-32,11.1111,-2411.79,-2528.08)">
            <g>
                <g transform="matrix(0.896117,3.24196e-17,-3.24196e-17,0.896117,222.704,233.585)">
                    <path d="M0.333,26.993C0.033,29.147 1.724,31.049 4.002,30.751C11.374,29.786 11.848,28.83 18.359,30.934C21.72,32.019 23.309,32.985 32.068,31.737C34.174,31.437 36.262,29.289 36.469,27.17L36.564,26.189C26.656,26.941 26.489,28.431 18.838,25.987C9.982,23.159 9.797,25.983 0.481,25.992L0.333,26.993ZM1.421,19.074C8.058,19.124 11.333,16.713 16.895,18.244C20.519,19.241 22.929,20.465 26.288,20.345C29.538,20.229 33.848,19.126 37.128,19.013C37.098,21.118 36.871,23.029 36.867,23.071C28.569,23.373 28.381,25.915 19.168,22.99C10.375,20.199 10.185,22.994 0.971,22.997C1.021,22.685 1.343,20.692 1.421,19.074Z" style="fill:rgb(0,56,168);fill-rule:nonzero;"/>
                </g>
                <g transform="matrix(0.896117,3.24196e-17,-3.24196e-17,0.896117,222.704,233.585)">
                    <path d="M0.971,22.997C9.919,22.994 10.094,20.123 18.804,22.873C21.46,23.711 23.334,24.459 26.386,24.321C29.538,24.177 33.693,23.186 36.867,23.071C36.78,23.931 36.588,25.94 36.564,26.189C26.656,26.941 26.489,28.431 18.838,25.987C9.982,23.159 9.797,25.983 0.481,25.992C0.556,25.51 0.967,23.019 0.971,22.997Z" style="fill:rgb(238,238,238);fill-rule:nonzero;"/>
                </g>
                <g transform="matrix(0.896117,3.24196e-17,-3.24196e-17,0.896117,222.704,233.585)">
                    <path d="M36.301,9.019C36.029,6.947 34.301,5.078 32,5.435C29.704,5.791 26.45,6.442 23.822,6.275C21.591,6.134 17.857,4.713 16,4.231C16,4.522 15.994,5.975 16.186,8.237C19.569,9.118 21.991,10.495 25.875,10.305C29.033,10.15 33.105,9.12 36.301,9.019ZM16.474,11.243C19.886,12.122 22.322,13.491 26.224,13.303C29.393,13.149 33.513,12.12 36.718,12.02C36.76,12.338 36.97,13.926 37.072,16.01C33.87,16.118 29.75,17.157 26.572,17.319C22.738,17.515 20.202,16.109 16.791,15.216C16.711,13.64 16.505,11.56 16.474,11.243Z" style="fill:rgb(0,56,168);fill-rule:nonzero;"/>
                </g>
                <g transform="matrix(0.896117,3.24196e-17,-3.24196e-17,0.896117,222.704,233.585)">
                    <path d="M16.186,8.237C16.019,6.266 16,4.941 16,4.231C11.809,3.143 8.811,4.144 4,4.757C1.891,5.026 -0.023,6.74 0.255,9.01C0.748,13.047 1.608,15.197 1.421,19.074C8.058,19.124 11.333,16.713 16.895,18.244C20.519,19.241 22.929,20.465 26.288,20.345C29.538,20.229 33.848,19.126 37.128,19.013C37.132,18.773 37.149,17.565 37.072,16.01C33.87,16.118 29.75,17.157 26.572,17.319C22.738,17.515 20.202,16.109 16.791,15.216C16.711,13.64 16.505,11.56 16.474,11.243C19.886,12.122 22.322,13.491 26.224,13.303C29.393,13.149 33.513,12.12 36.718,12.02C36.519,10.507 36.499,10.524 36.301,9.019C33.103,9.12 29.045,10.15 25.875,10.305C21.991,10.495 19.569,9.118 16.186,8.237Z" style="fill:rgb(238,238,238);fill-rule:nonzero;"/>
                </g>
                <g transform="matrix(0.896117,3.24196e-17,-3.24196e-17,0.896117,222.704,233.585)">
                    <path d="M13.45,10.76C13.214,8.275 11.038,5.684 8.048,6.144C5.573,6.524 3.218,8.923 3.742,11.889C4.045,13.602 5.813,16.762 9.059,16.189C11.396,15.776 13.71,13.514 13.45,10.76Z" style="fill:rgb(255,217,131);fill-rule:nonzero;"/>
                </g>
                <g transform="matrix(0.896117,3.24196e-17,-3.24196e-17,0.896117,222.704,233.585)">
                    <path d="M12.448,10.763C12.249,8.715 10.435,6.798 8.114,7.154C6.077,7.466 4.321,9.45 4.713,11.774C4.989,13.413 6.593,15.608 9.006,15.182C10.951,14.839 12.656,12.915 12.448,10.763Z" style="fill:rgb(255,204,77);fill-rule:nonzero;"/>
                </g>
                <g transform="matrix(0.896117,3.24196e-17,-3.24196e-17,0.896117,222.704,233.585)">
                    <path d="M8.002,4.732C8.292,6.424 8.806,8.399 8.888,8.715C10.067,6.798 11.022,5.488 11.221,5.216C11.113,5.531 10.621,6.968 10.03,9.211C10.313,9.059 12.212,8.046 13.706,7.58C12.415,8.584 10.989,10.016 10.765,10.241C13.254,10.391 14.635,10.831 14.86,10.9C13.786,10.894 12.365,11.108 10.899,11.492C11.177,11.675 12.992,12.87 14.26,13.951C13.061,13.393 11.053,12.793 10.404,12.627C10.568,12.947 11.363,14.571 12.065,16.328C11.864,16.088 10.84,14.869 9.442,13.416C9.376,15.6 9.128,17.257 9.079,17.588C9.034,17.267 8.798,15.595 8.261,13.614C8.101,13.912 7.102,15.777 6.133,17.265C6.789,15.228 6.715,15.229 7.148,13.142C7.061,13.195 5.041,14.514 3.778,15.199C4.485,14.428 4.443,14.403 6.385,12.167C6.063,12.167 3.978,12.168 2.362,11.992C3.856,11.681 5.891,11.01 6.193,10.91C5.912,10.741 4.016,9.601 2.709,8.732C4.118,9.145 6.337,9.643 6.655,9.714C6.502,9.429 5.517,7.589 4.834,6.098C5.763,7.063 7.42,8.682 7.648,8.905C7.661,8.57 7.742,6.573 8.002,4.732Z" style="fill:rgb(255,172,51);fill-rule:nonzero;"/>
                </g>
                <g transform="matrix(0.896117,3.24196e-17,-3.24196e-17,0.896117,222.704,233.585)">
                    <path d="M11.457,10.815C11.294,9.224 9.88,7.906 8.202,8.164C6.643,8.403 5.404,9.927 5.676,11.636C5.905,13.074 7.273,14.451 8.921,14.166C10.376,13.915 11.624,12.439 11.457,10.815Z" style="fill:rgb(193,105,79);fill-rule:nonzero;"/>
                </g>
                <g transform="matrix(0.896117,3.24196e-17,-3.24196e-17,0.896117,222.704,233.585)">
                    <path d="M6.476,11.513C6.295,10.31 7.15,9.196 8.278,9.023C9.452,8.842 10.49,9.732 10.616,10.895C10.749,12.117 9.8,13.138 8.813,13.303C7.766,13.477 6.654,12.694 6.476,11.513Z" style="fill:rgb(255,172,51);fill-rule:nonzero;"/>
                </g>
            </g>
        </g>
    </g>
</svg>
