<?xml version="1.0" encoding="UTF-8" standalone="no"?>
<!DOCTYPE svg PUBLIC "-//W3C//DTD SVG 1.1//EN" "http://www.w3.org/Graphics/SVG/1.1/DTD/svg11.dtd">
<svg width="100%" height="100%" viewBox="0 0 512 512" version="1.1" xmlns="http://www.w3.org/2000/svg" xmlns:xlink="http://www.w3.org/1999/xlink" xml:space="preserve" xmlns:serif="http://www.serif.com/" style="fill-rule:evenodd;clip-rule:evenodd;stroke-linejoin:round;stroke-miterlimit:2;">
    <g transform="matrix(1.11593,-4.03717e-17,4.03717e-17,1.11593,-13.9687,-19.1113)">
        <g transform="matrix(11.1111,-1.36955e-31,4.93038e-32,11.1111,-2411.79,-2528.08)">
            <g>
                <g transform="matrix(0.896117,3.24196e-17,-3.24196e-17,0.896117,222.704,233.585)">
                    <path d="M36.469,27.17C36.262,29.289 34.174,31.437 32.068,31.737C22.767,33.063 21.617,31.929 16.923,30.475C12.025,28.957 9.41,30.043 4.002,30.751C1.724,31.049 0.033,29.147 0.333,26.993C0.76,23.929 1.552,20.621 1.436,17.229C1.343,14.486 0.678,12.475 0.255,9.01C-0.023,6.74 1.891,5.026 4,4.757C11.375,3.817 11.85,2.887 18.359,4.935C24.284,6.8 24.43,6.609 32,5.435C34.301,5.078 36.029,6.947 36.301,9.019C37.368,17.137 37.447,17.156 36.469,27.17Z" style="fill:rgb(238,238,238);fill-rule:nonzero;"/>
                </g>
                <g transform="matrix(0.896117,3.24196e-17,-3.24196e-17,0.896117,222.704,233.585)">
                    <path d="M13.357,23.518C13.244,23.585 13.099,23.624 12.972,23.595C12.899,23.578 12.822,23.578 12.747,23.581C12.669,23.583 12.514,23.609 12.514,23.609C12.088,22.729 11.311,21.068 11.25,20.941C10.983,21.195 10.191,21.709 9.661,21.236C9.945,21.286 10.672,20.451 11.146,20.706C10.721,20.303 9.534,21.218 9.166,20.12C9.754,20.424 10.372,19.725 10.913,20.059C10.403,19.46 9.345,20.261 9.069,19.4C9.476,19.49 10.192,18.85 10.607,19.171C10.255,18.362 8.877,19.715 8.683,18.29C9.16,18.473 9.902,18.041 10.201,18.268C9.841,17.541 9.265,17.775 9.104,17.771C8.706,17.763 8.432,16.901 8.403,16.811C8.754,17.265 9.379,16.733 9.887,17.49C9.653,16.543 8.978,16.66 8.797,16.629C8.34,16.551 8.135,16.189 7.985,15.583C8.588,15.242 9.162,16.299 9.568,16.396C9.212,15.245 8.534,15.406 8.771,14.041C9.774,14.399 9.592,15.79 9.819,16.437C10.015,16.1 9.757,15.486 9.866,15.229C9.889,15.176 10.101,14.675 10.033,14.522C10.991,15.48 9.963,16.728 10.042,17.028C10.142,17.41 10.329,17.559 10.294,17.531C10.282,17.454 10.201,16.937 10.385,16.56C10.462,16.403 10.872,15.935 10.848,15.699C11.061,15.93 11.019,16.57 10.76,16.925C10.529,17.243 10.468,18.058 10.608,18.293C10.578,17.549 11.263,17.322 11.148,16.584C11.533,16.62 11.683,17.568 11.242,17.967C10.809,18.361 11.058,19.2 11.088,19.303C11.096,19.225 11.148,18.674 11.389,18.366C11.437,18.304 11.803,17.837 11.723,17.441C12.022,17.671 12.069,18.438 11.825,18.842C11.755,18.957 11.224,19.442 11.528,20.038C11.577,19.022 12.279,19.014 12.282,18.395C12.669,18.684 12.44,19.399 12.157,19.663C11.903,19.9 11.895,20.354 11.894,20.418C11.93,20.37 12.194,20.025 12.403,19.875C12.685,19.672 12.92,18.956 12.785,19.301C12.848,19.758 12.755,20.587 12.128,20.666C12.051,21.228 12.927,22.917 13.357,23.518Z" style="fill:rgb(55,149,67);fill-rule:nonzero;"/>
                </g>
                <g transform="matrix(0.896117,3.24196e-17,-3.24196e-17,0.896117,222.704,233.585)">
                    <path d="M28.347,20.309L28.778,20.466C27.472,22.116 26.448,23.23 26.236,23.461C26.444,23.123 27.47,21.456 28.626,19.102L28.957,19.517C29.007,19.289 29.264,18.13 29.507,16.655C28.594,17.892 27.896,18.762 27.752,18.942L28.227,18.997C27.378,20.709 26.64,21.973 26.492,22.226C26.545,22.05 26.815,21.145 27.093,20.008L27.509,20.35C27.513,20.123 27.534,18.961 27.469,17.507C26.838,18.813 26.3,19.797 26.193,19.994L26.675,19.973C26.179,21.962 25.648,23.48 25.543,23.779L24.954,24.685L24.366,24.864L24.091,25.238L23.928,25.24C23.766,25.373 23.013,25.995 21.845,26.833L22.779,27.05L22.866,27.994L23.755,27.182L23.371,28.056L24.252,27.749L24.737,28.507C24.908,28.025 25.607,26.13 25.683,25.924L25.452,25.367L25.447,25.341L25.692,24.65C27.472,22.76 28.865,20.988 29.125,20.657L29.319,21.145C29.428,20.928 29.98,19.829 30.612,18.401C29.353,19.496 28.531,20.16 28.347,20.309ZM4.888,14.922C3.914,15.055 3.208,15.1 3.062,15.109C3.193,15.128 3.542,15.287 3.707,15.603C4.169,16.485 5.022,18.995 5.133,19.702C5.225,20.29 4.712,20.493 4.775,20.469C4.918,20.451 5.542,20.373 6.549,20.204C6.061,20.196 6.243,19.588 6.26,19.532C7.045,16.912 7.141,16.95 7.498,15.051C7.578,14.623 7.936,14.383 7.886,14.416C6.619,14.648 6.273,14.706 6.132,14.73C6.309,14.743 6.727,14.889 6.625,15.338C6.615,15.382 6.283,17.115 5.763,18.797C5.341,17.355 4.75,15.896 4.649,15.649C4.441,15.135 4.832,14.948 4.888,14.922ZM34.843,15.245C34.701,15.262 34.067,15.337 33.066,15.492C33.119,15.519 33.429,15.673 33.454,16.128C33.567,18.229 33.495,20.062 33.482,20.403C33.465,20.839 32.99,21.106 33.046,21.075C34.141,20.903 34.817,20.824 34.972,20.806C34.916,20.783 34.471,20.6 34.485,20.229C34.498,19.882 34.564,18.158 34.437,15.886C34.414,15.485 34.896,15.215 34.843,15.245Z" style="fill:rgb(0,129,199);fill-rule:nonzero;"/>
                </g>
                <g transform="matrix(0.896117,3.24196e-17,-3.24196e-17,0.896117,222.704,233.585)">
                    <path d="M33.221,8.776C32.887,8.866 30.64,10.282 28.385,11.031C28.135,10.891 27.487,11.274 27.417,11.315C26.582,11.808 24.257,12.457 23.976,12.536C23.256,12.737 23.064,13.232 23.17,13.608C23.364,14.284 23.96,14.692 23.816,14.845C23.717,14.95 22.769,14.455 22.545,14.54C22.337,14.62 21.092,13.999 21.049,13.857C20.899,13.375 20.457,12.906 20.39,12.835C20.532,12.854 20.741,12.886 20.813,12.762C20.186,12.256 19.802,11.601 19.734,11.486C19.769,11.511 20.132,11.773 20.241,11.644C19.778,11.135 19.542,9.879 19.369,9.555C19.308,9.441 18.885,8.65 18.23,8.416C18.063,8.356 17.544,8.083 17.154,8.529C17.105,8.511 17.027,8.496 16.977,8.53C16.919,8.569 16.87,8.783 16.876,8.714L16.304,8.637C15.979,8.608 15.758,8.984 15.947,9.427C16.01,9.211 16.771,9.345 16.842,9.357C17.202,9.42 17.529,9.971 17.402,10.068C17.271,10.167 17.205,10.625 17.198,10.675C17.151,10.997 16.602,10.999 16.543,10.999C16.572,11.033 16.74,11.232 17.014,11.289C16.899,11.459 16.446,11.661 16.162,11.628C16.373,11.899 16.713,11.943 16.666,11.937C16.649,11.992 16.541,12.34 16.246,12.529C16.135,12.529 15.043,12.532 14.868,12.411C14.511,12.163 13.772,12.504 13.616,12.346C13.437,12.166 13.979,11.889 14.039,11.266C14.075,10.889 13.709,10.293 12.986,10.032C12.134,9.726 9.438,9.181 9.341,9.15C9.267,9.126 8.575,8.906 8.363,9.12C5.384,8.984 3.697,8.362 3.307,8.352C2.821,8.339 2.783,9.178 3.537,9.431C3.364,9.681 3.601,10.3 4.201,10.268C4.017,10.54 4.378,11.105 5.524,11.192C5.445,11.451 5.799,12.145 7.162,12.155C7.104,12.477 7.423,12.945 8.554,12.901C8.45,13.133 8.689,13.638 9.732,13.6C9.561,13.979 9.982,14.374 11.294,14.206C10.989,14.441 11.153,15.023 11.628,15.081C11.493,15.417 11.946,15.949 12.458,15.834C12.506,16.096 12.88,16.288 13.212,16.034C13.221,16.389 14.01,16.767 14.216,16.355C14.393,16.541 14.916,16.699 15.237,16.424L15.299,16.68C15.261,16.789 15.078,17.323 14.368,17.791C13.864,18.125 13.551,18.808 13.549,19.208C13.549,19.283 13.547,19.85 13.102,20.035L13.322,20.117C13.28,20.167 12.909,20.611 12.696,20.66C12.618,20.678 12.62,20.583 11.69,20.721C11.597,20.735 11.407,20.769 11.327,20.848C11.113,21.062 10.696,21.842 10.897,21.951C10.943,21.975 10.902,22.003 11.317,22.445C11.429,22.565 12.263,22.283 12.423,22.15C12.511,22.077 12.76,21.221 12.823,21.187C13.369,20.888 14.288,20.591 14.419,20.548L14.41,20.858C14.441,20.828 14.667,20.617 14.864,20.563C14.919,20.548 14.869,20.505 15.253,19.956C15.358,19.807 16.109,19.316 17.026,19.373C17.077,19.417 16.882,19.584 16.943,19.557C16.592,19.385 16.394,19.81 16.404,20.008C16.004,19.953 14.954,21.057 14.771,21.445C14.749,21.491 14.481,22.056 14.87,22.073C14.814,22.382 15.052,22.679 15.323,22.645C15.308,22.979 15.509,23.227 15.711,23.254C15.715,23.635 15.946,23.872 16.165,23.874C16.17,24.232 16.435,24.495 16.796,24.493C16.767,25 17.117,25.514 17.642,25.172C17.63,26.143 18.801,26.851 19.053,25.689C19.461,26.238 20.05,26.168 20.12,25.537C20.346,25.796 20.741,25.659 20.805,25.294C21.017,25.451 21.284,25.316 21.337,24.868C21.577,25.076 21.821,24.843 21.837,24.516C22.112,24.688 22.43,24.464 22.406,24.119C22.644,24.272 22.916,23.911 22.628,23.299C22.192,22.373 21.509,21.643 21.39,21.517C21.547,21.066 20.939,20.792 20.872,20.762C20.818,20.738 20.665,20.573 20.789,20.541C21.6,20.967 22.351,21.77 22.449,21.992C22.526,22.169 22.547,22.366 22.608,22.55C22.629,22.613 22.676,22.694 22.736,22.734C22.998,22.915 23.406,23.601 23.126,23.176L23.176,22.871C24.5,23.761 24.528,23.713 24.642,23.791C24.705,23.834 24.768,24.703 24.828,24.765C24.991,24.931 25.759,25.14 25.909,25.002C26.038,24.883 26.133,24.733 26.257,24.61C26.322,24.545 26.395,24.486 26.474,24.439C26.718,24.293 26.466,23.571 26.272,23.37C26.175,23.269 24.919,23.277 24.883,23.268C24.677,23.214 24.375,22.734 24.34,22.68L24.577,22.62C24.163,22.405 24.223,21.822 24.231,21.747C24.269,21.356 24.031,20.669 23.502,20.165C22.838,19.533 22.62,18.884 22.577,18.757L22.637,18.501C22.995,18.934 23.506,18.906 23.667,18.772C23.905,19.271 24.677,18.967 24.669,18.616C25.033,18.902 25.406,18.687 25.438,18.43C25.965,18.519 26.421,17.924 26.243,17.603C26.726,17.484 26.852,16.88 26.488,16.692C27.608,16.659 28.353,16.174 28.03,15.768C29.017,15.553 29.32,15.012 29.12,14.766C30.214,14.476 30.545,13.917 30.377,13.578C31.74,13.125 31.944,12.359 31.777,12.118C32.954,11.657 33.083,11.044 32.838,10.846C33.455,10.711 33.497,10.062 33.265,9.87C33.945,9.442 33.683,8.651 33.221,8.776Z" style="fill:rgb(244,198,61);fill-rule:nonzero;"/>
                </g>
                <g transform="matrix(0.896117,3.24196e-17,-3.24196e-17,0.896117,222.704,233.585)">
                    <path d="M14.54,14.279C14.556,14.505 14.637,15.667 15.242,17.027C15.292,17.139 15.549,17.715 15.97,18.381L16.561,19.24L17.211,20.054L17.795,20.71L18.496,21.431L18.788,21.713L19.114,21.629L19.833,21.397L20.482,21.123C20.906,20.915 21.201,20.706 21.26,20.665L21.898,20.124C21.969,20.052 22.34,19.678 22.645,19.103C22.947,18.535 23.223,17.655 23.168,16.581C20.614,16.058 17.205,14.584 14.54,14.277L14.54,14.279Z" style="fill:white;fill-rule:nonzero;"/>
                </g>
                <g transform="matrix(0.896117,3.24196e-17,-3.24196e-17,0.896117,222.704,233.585)">
                    <path d="M15.148,14.364C15.232,15.767 15.241,16.814 15.242,17.027C15.292,17.139 15.549,17.715 15.97,18.381C15.976,18.071 16.008,16.581 15.884,14.503L16.498,14.646C16.647,17.128 16.576,18.872 16.561,19.239L17.211,20.053C17.235,19.635 17.351,17.667 17.18,14.826L17.797,15.005C17.983,18.117 17.828,20.254 17.795,20.709L18.496,21.43C18.742,18.623 18.568,15.728 18.538,15.233L19.156,15.43C19.185,15.925 19.358,18.808 19.113,21.627L19.832,21.396C19.866,20.938 20.026,18.752 19.84,15.651L20.458,15.848C20.627,18.668 20.506,20.7 20.481,21.122C20.905,20.914 21.2,20.705 21.259,20.663C21.274,20.297 21.348,18.499 21.203,16.076L21.819,16.253C21.94,18.274 21.904,19.813 21.897,20.122C21.968,20.05 22.339,19.677 22.644,19.102C22.643,18.889 22.638,17.81 22.556,16.444C20.618,15.977 17.331,14.72 15.148,14.361L15.148,14.364Z" style="fill:rgb(167,0,51);fill-rule:nonzero;"/>
                </g>
                <g transform="matrix(0.896117,3.24196e-17,-3.24196e-17,0.896117,222.704,233.585)">
                    <path d="M18.603,12.369C18.31,12.428 17.316,12.481 16.437,12.258C15.643,12.058 14.609,11.544 14.305,11.352C14.461,13.02 14.519,13.986 14.533,14.215L14.565,14.509C17.223,14.818 20.609,16.284 23.171,16.81L23.169,16.521C23.155,16.289 23.089,15.206 22.915,13.621C22.669,13.715 21.822,13.889 20.879,13.608C19.753,13.272 18.766,12.497 18.603,12.369Z" style="fill:rgb(23,38,104);fill-rule:nonzero;"/>
                </g>
            </g>
        </g>
    </g>
</svg>
