<?xml version="1.0" encoding="UTF-8" standalone="no"?>
<!DOCTYPE svg PUBLIC "-//W3C//DTD SVG 1.1//EN" "http://www.w3.org/Graphics/SVG/1.1/DTD/svg11.dtd">
<svg width="100%" height="100%" viewBox="0 0 512 512" version="1.1" xmlns="http://www.w3.org/2000/svg" xmlns:xlink="http://www.w3.org/1999/xlink" xml:space="preserve" xmlns:serif="http://www.serif.com/" style="fill-rule:evenodd;clip-rule:evenodd;stroke-linejoin:round;stroke-miterlimit:2;">
    <g transform="matrix(1.11593,-4.03717e-17,4.03717e-17,1.11593,-13.9687,-19.1113)">
        <g transform="matrix(11.1111,-1.36955e-31,4.93038e-32,11.1111,-2411.79,-2528.08)">
            <g>
                <g transform="matrix(0.896117,3.24196e-17,-3.24196e-17,0.896117,222.704,233.585)">
                    <path d="M0.255,9.01C0.459,10.68 0.833,12.689 0.892,13.007C7.861,13.012 11.153,10.75 16.609,12.24C20.252,13.235 22.595,14.436 25.998,14.323C29.257,14.214 33.556,13.122 36.841,13.017C36.741,12.123 36.335,9.279 36.301,9.019C36.029,6.947 34.301,5.078 32,5.435C24.446,6.606 24.298,6.804 18.359,4.935C11.85,2.887 11.375,3.817 4,4.757C1.891,5.026 -0.023,6.74 0.255,9.01Z" style="fill:rgb(0,153,181);fill-rule:nonzero;"/>
                </g>
                <g transform="matrix(0.896117,3.24196e-17,-3.24196e-17,0.896117,222.704,233.585)">
                    <path d="M36.469,27.17C36.492,26.94 36.763,24.092 36.867,23.071C28.569,23.373 28.381,25.915 19.168,22.99C10.375,20.199 10.185,22.994 0.971,22.997C0.429,26.349 0.424,26.338 0.333,26.993C0.033,29.147 1.724,31.049 4.002,30.751C11.374,29.786 11.848,28.83 18.359,30.934C21.72,32.019 23.309,32.985 32.068,31.737C34.174,31.437 36.262,29.289 36.469,27.17Z" style="fill:rgb(30,181,58);fill-rule:nonzero;"/>
                </g>
                <g transform="matrix(0.896117,3.24196e-17,-3.24196e-17,0.896117,222.704,233.585)">
                    <path d="M0.892,13.007C7.861,13.012 11.153,10.75 16.609,12.24C20.252,13.235 22.595,14.436 25.998,14.323C29.257,14.214 33.556,13.122 36.841,13.017L36.978,14.51C28.748,14.785 28.569,17.439 19.279,14.491C15.827,13.396 14.349,12.905 10.389,13.42C7.153,13.842 5.245,14.571 1.175,14.55C1.156,14.426 1.148,14.379 0.892,13.007ZM1.194,21.509C8.137,21.516 11.294,19.224 16.779,20.736C20.403,21.735 22.813,22.96 26.172,22.841C29.423,22.726 33.735,21.625 37.016,21.513L36.867,23.071C28.569,23.373 28.381,25.915 19.168,22.99C10.375,20.199 10.185,22.994 0.971,22.997L1.194,21.509Z" style="fill:rgb(206,17,38);fill-rule:nonzero;"/>
                </g>
                <g transform="matrix(0.896117,3.24196e-17,-3.24196e-17,0.896117,222.704,233.585)">
                    <path d="M1.448,18.098C1.438,19.668 1.23,21.238 1.194,21.509C8.137,21.516 11.294,19.224 16.779,20.736C20.403,21.735 22.813,22.96 26.172,22.841C29.423,22.726 33.735,21.625 37.016,21.513C37.28,18.1 36.99,14.671 36.978,14.51C28.748,14.785 28.569,17.439 19.279,14.491C15.827,13.396 14.349,12.905 10.389,13.42C7.153,13.842 5.245,14.571 1.175,14.55C1.221,14.831 1.459,16.317 1.448,18.098Z" style="fill:rgb(238,238,238);fill-rule:nonzero;"/>
                </g>
                <g transform="matrix(0.896117,3.24196e-17,-3.24196e-17,0.896117,222.704,233.585)">
                    <path d="M4.484,8.905C4.285,7.304 5.407,5.88 6.814,5.411C6.549,5.41 6.336,5.444 6.294,5.451C4.659,5.715 3.224,7.24 3.456,9.03C3.669,10.673 5.235,12.001 6.943,11.717C6.983,11.71 7.185,11.677 7.433,11.591C5.942,11.579 4.669,10.39 4.484,8.905ZM9.335,10.51L9.149,10.099L9.064,10.549L8.625,10.614L9.012,10.826L8.93,11.274L9.251,10.957L9.635,11.172L9.449,10.764L9.774,10.451L9.335,10.51ZM11.982,10.247L11.801,9.824L11.705,10.262L11.257,10.293L11.646,10.532L11.551,10.968L11.886,10.681L12.276,10.928L12.095,10.508L12.435,10.23L11.982,10.247ZM11.579,7.308L11.473,7.753L11.021,7.785L11.409,8.028L11.307,8.473L11.649,8.181L12.04,8.433L11.862,8.004L12.209,7.72L11.753,7.737L11.579,7.308ZM14.692,10.349L14.51,9.899L14.411,10.31L13.956,10.261L14.349,10.565L14.249,10.975L14.593,10.757L14.988,11.078L14.806,10.628L15.149,10.425L14.692,10.349ZM14.29,7.385L14.183,7.802L13.73,7.752L14.118,8.061L14.015,8.48L14.36,8.257L14.752,8.583L14.573,8.125L14.918,7.918L14.464,7.842L14.29,7.385ZM14.158,4.862L14.031,5.277L13.578,5.226L13.954,5.535L13.834,5.954L14.188,5.732L14.569,6.06L14.408,5.601L14.764,5.396L14.311,5.318L14.158,4.862ZM17.424,10.987L17.238,10.516L17.14,10.905L16.681,10.777L17.079,11.146L16.98,11.534L17.326,11.375L17.724,11.75L17.538,11.279L17.883,11.126L17.424,10.987ZM17.003,8.008L16.898,8.401L16.442,8.273L16.834,8.645L16.733,9.039L17.078,8.876L17.472,9.255L17.291,8.779L17.636,8.623L17.18,8.484L17.003,8.008ZM16.862,5.495L16.736,5.886L16.281,5.756L16.66,6.129L16.541,6.523L16.895,6.362L17.276,6.742L17.113,6.265L17.47,6.111L17.016,5.97L16.862,5.495ZM20.164,11.845L19.975,11.371L19.88,11.757L19.421,11.612L19.822,11.996L19.726,12.381L20.069,12.231L20.47,12.613L20.282,12.139L20.624,11.985L20.164,11.845ZM19.721,8.87L19.62,9.257L19.163,9.111L19.558,9.498L19.46,9.885L19.802,9.734L20.2,10.117L20.015,9.641L20.359,9.487L19.902,9.346L19.721,8.87ZM19.566,6.366L19.442,6.753L18.988,6.605L19.368,6.993L19.251,7.38L19.603,7.23L19.986,7.614L19.822,7.138L20.177,6.985L19.722,6.843L19.566,6.366Z" style="fill:white;fill-rule:nonzero;"/>
                </g>
            </g>
        </g>
    </g>
</svg>
