<?xml version="1.0" encoding="UTF-8" standalone="no"?>
<!DOCTYPE svg PUBLIC "-//W3C//DTD SVG 1.1//EN" "http://www.w3.org/Graphics/SVG/1.1/DTD/svg11.dtd">
<svg width="100%" height="100%" viewBox="0 0 512 512" version="1.1" xmlns="http://www.w3.org/2000/svg" xmlns:xlink="http://www.w3.org/1999/xlink" xml:space="preserve" xmlns:serif="http://www.serif.com/" style="fill-rule:evenodd;clip-rule:evenodd;stroke-linejoin:round;stroke-miterlimit:2;">
    <g transform="matrix(1.11593,-4.03717e-17,4.03717e-17,1.11593,-13.9687,-19.1113)">
        <g transform="matrix(11.1111,-1.36955e-31,4.93038e-32,11.1111,-2411.79,-2528.08)">
            <g>
                <g transform="matrix(0.896117,3.24196e-17,-3.24196e-17,0.896117,222.704,233.585)">
                    <path d="M32,5.435C24.446,6.606 24.298,6.804 18.359,4.935C11.85,2.887 11.375,3.817 4,4.757C1.891,5.026 -0.023,6.74 0.255,9.01C0.717,12.789 1.468,14.816 1.448,18.098C8.431,18.169 11.13,15.501 17.62,17.441C20.776,18.384 23.412,19.544 26.65,19.326C30.44,19.071 33.906,18.123 37.131,18.012C37.096,13.894 36.521,10.694 36.301,9.019C36.029,6.947 34.301,5.078 32,5.435Z" style="fill:rgb(210,16,52);fill-rule:nonzero;"/>
                </g>
                <g transform="matrix(0.896117,3.24196e-17,-3.24196e-17,0.896117,222.704,233.585)">
                    <path d="M4.002,30.751C11.374,29.786 11.848,28.83 18.359,30.934C21.72,32.019 23.309,32.985 32.068,31.737C34.174,31.437 36.262,29.289 36.469,27.17C37.05,21.218 37.15,20.316 37.131,18.012C28.903,18.294 28.725,20.949 19.437,18.007C15.976,16.911 14.495,16.422 10.584,16.949C7.417,17.375 5.365,18.138 1.448,18.098C1.43,21.06 0.711,24.283 0.333,26.993C0.033,29.147 1.724,31.049 4.002,30.751Z" style="fill:rgb(0,149,67);fill-rule:nonzero;"/>
                </g>
                <g transform="matrix(0.896117,3.24196e-17,-3.24196e-17,0.896117,222.704,233.585)">
                    <path d="M17.749,14.499C11.498,9.102 7.587,8.87 1.74,5.675C1.015,6.224 0.69,6.838 0.626,6.958L0.624,6.96C0.546,7.108 0.121,7.915 0.255,9.01C0.711,12.739 1.442,14.73 1.448,17.925C1.455,20.985 0.727,24.164 0.333,26.993C0.18,28.091 0.59,28.894 0.666,29.042L0.666,29.045C1.064,29.823 1.667,30.209 1.779,30.28L1.78,30.28C8.84,25.698 11.092,22.429 17.793,20.517C20.641,21.37 23.067,22.445 26.146,22.346C29.411,22.241 33.755,21.127 37.051,21.014C37.23,18.219 37.046,15.489 37.014,15.01C33.549,15.126 28.652,16.4 25.395,16.343C22.818,16.298 19.893,15.142 17.749,14.499Z" style="fill:rgb(20,20,20);fill-rule:nonzero;"/>
                </g>
                <g transform="matrix(0.896117,3.24196e-17,-3.24196e-17,0.896117,222.704,233.585)">
                    <path d="M0.626,6.958L0.624,6.96C0.546,7.108 0.121,7.915 0.255,9.01C7.067,12.73 11.164,13.266 15.841,16.99C11.022,18.883 7.251,23.286 0.333,26.993C0.18,28.091 0.59,28.894 0.666,29.042C7.733,24.986 10.721,20.667 17.871,18.52C20.72,19.372 23.147,20.447 26.226,20.347C29.49,20.241 33.833,19.127 37.128,19.013C37.131,18.853 37.142,18.035 37.112,17.011C33.648,17.129 28.751,18.405 25.495,18.35C22.918,18.306 19.994,17.151 17.851,16.509C11.083,10.514 7.287,10.851 0.626,6.958Z" style="fill:rgb(253,206,18);fill-rule:nonzero;"/>
                </g>
                <g transform="matrix(0.896117,3.24196e-17,-3.24196e-17,0.896117,222.704,233.585)">
                    <path d="M5.509,21.317C6.219,21.102 8.755,19.854 8.734,17.145C8.719,15.217 6.997,14.353 5.735,14.555C4.552,14.744 3.327,15.878 3.353,17.652C3.377,19.394 4.823,19.748 5.562,19.638C6.346,19.522 7.473,18.652 7.319,17.385C6.926,19.261 5.092,19.642 4.375,18.54C3.644,17.416 4.715,15.439 6.284,15.678C7.74,15.901 7.936,17.429 7.378,18.564C6.819,19.704 5.895,19.984 5.668,20.005L5.509,21.317Z" style="fill:rgb(253,206,18);fill-rule:nonzero;"/>
                </g>
                <g transform="matrix(0.896117,3.24196e-17,-3.24196e-17,0.896117,222.704,233.585)">
                    <path d="M6.67,17.645C6.629,17.595 6.443,17.363 6.076,17.099C6.262,16.855 6.85,16.287 6.767,16.252C6.719,16.231 6.369,16.407 5.83,16.933C5.323,16.624 4.896,16.517 4.839,16.562C4.762,16.622 5.397,16.995 5.595,17.176C5.236,17.563 5.051,17.846 5.01,17.909C4.825,18.19 4.844,18.684 4.842,18.625C5.098,18.486 5.285,18.271 5.317,18.234C5.429,18.106 5.413,18.109 5.841,17.441C5.957,17.579 6.06,17.729 6.175,17.868C6.233,17.938 6.292,18.009 6.36,18.069C6.657,18.331 7.114,18.394 6.815,18.317C6.82,18.262 6.855,17.876 6.67,17.645Z" style="fill:rgb(253,206,18);fill-rule:nonzero;"/>
                </g>
            </g>
        </g>
    </g>
</svg>
