<?xml version="1.0" encoding="UTF-8" standalone="no"?>
<!DOCTYPE svg PUBLIC "-//W3C//DTD SVG 1.1//EN" "http://www.w3.org/Graphics/SVG/1.1/DTD/svg11.dtd">
<svg width="100%" height="100%" viewBox="0 0 512 512" version="1.1" xmlns="http://www.w3.org/2000/svg" xmlns:xlink="http://www.w3.org/1999/xlink" xml:space="preserve" xmlns:serif="http://www.serif.com/" style="fill-rule:evenodd;clip-rule:evenodd;stroke-linejoin:round;stroke-miterlimit:2;">
    <g transform="matrix(1.11593,-4.03717e-17,4.03717e-17,1.11593,-13.9687,-19.1113)">
        <g transform="matrix(11.1111,-3.0404e-31,-4.93038e-32,11.1111,-2411.79,-2528.08)">
            <g>
                <g transform="matrix(0.896117,3.24196e-17,-3.24196e-17,0.896117,222.704,233.585)">
                    <path d="M0.333,26.993C0.033,29.147 1.724,31.049 4.002,30.751C11.374,29.786 11.848,28.83 18.359,30.934C21.72,32.019 23.309,32.985 32.068,31.737C34.174,31.437 36.262,29.289 36.469,27.17C36.492,26.94 36.763,24.092 36.867,23.071C28.569,23.373 28.381,25.915 19.168,22.99C10.375,20.199 10.185,22.994 0.971,22.997C0.429,26.349 0.424,26.338 0.333,26.993Z" style="fill:rgb(207,20,43);fill-rule:nonzero;"/>
                </g>
                <g transform="matrix(0.896117,3.24196e-17,-3.24196e-17,0.896117,222.704,233.585)">
                    <path d="M0.971,22.997C9.919,22.994 10.094,20.123 18.804,22.873C21.46,23.711 23.334,24.459 26.386,24.321C29.538,24.177 33.693,23.186 36.867,23.071C36.948,22.27 37.389,17.917 36.841,13.017C29.134,13.263 28.238,15.861 19.51,13.119C16.548,12.188 14.661,11.412 10.568,11.891C6.733,12.339 5.287,13.01 0.892,13.007C1.408,15.774 1.792,17.917 0.971,22.997ZM26.287,20.796L26.531,21.524L27.325,21.444L26.676,21.972L26.899,22.692L26.272,22.29L25.617,22.787L25.884,22.031L25.254,21.59L26.042,21.562L26.287,20.796ZM25.082,19.124L25.808,18.842L25.398,19.51L25.902,20.115L25.139,19.915L24.711,20.555L24.666,19.762L23.896,19.473L24.63,19.272L24.562,18.478L25.082,19.124ZM22.074,16.462L22.788,17.029L23.352,16.626L23.226,17.366L23.932,17.885L23.143,17.823L22.997,18.561L22.653,17.764L21.86,17.641L22.435,17.268L22.074,16.462ZM20.002,15.358L20.33,14.782L20.498,15.598L21.297,15.976L20.596,16.103L20.746,16.921L20.162,16.176L19.455,16.29L19.796,15.714L19.202,14.965L20.002,15.358ZM17.075,14.532L17.132,13.782L17.559,14.587L18.34,14.69L17.818,15.087L18.232,15.901L17.494,15.337L16.964,15.751L17.037,14.998L16.298,14.466L17.075,14.532ZM14.268,14.257L14.887,14.855L15.554,14.575L15.267,15.239L15.88,15.883L15.085,15.655L14.784,16.333L14.595,15.538L13.805,15.393L14.473,15.047L14.268,14.257ZM12.034,16.276L12.74,16.527L13.218,15.904L13.181,16.695L13.909,16.998L13.151,17.183L13.091,17.972L12.693,17.318L11.957,17.555L12.443,16.917L12.034,16.276ZM11.277,19.038L11.564,18.277L11.74,19.011L12.497,18.987L11.841,19.464L11.993,20.198L11.436,19.767L10.776,20.268L11.091,19.507L10.535,19.097L11.277,19.038Z" style="fill:rgb(0,36,125);fill-rule:nonzero;"/>
                </g>
                <g transform="matrix(0.896117,3.24196e-17,-3.24196e-17,0.896117,222.704,233.585)">
                    <path d="M32,5.435C24.446,6.606 24.298,6.804 18.359,4.935C11.85,2.887 11.375,3.817 4,4.757C1.891,5.026 -0.023,6.74 0.255,9.01C0.459,10.68 0.833,12.689 0.892,13.007C7.861,13.012 11.153,10.75 16.609,12.24C20.252,13.235 22.595,14.436 25.998,14.323C29.257,14.214 33.556,13.122 36.841,13.017C36.741,12.123 36.335,9.279 36.301,9.019C36.029,6.947 34.301,5.078 32,5.435Z" style="fill:rgb(255,204,0);fill-rule:nonzero;"/>
                </g>
                <g transform="matrix(0.896117,3.24196e-17,-3.24196e-17,0.896117,222.704,233.585)">
                    <path d="M19.455,16.29L20.16,16.176L20.744,16.92L20.594,16.102L21.296,15.975L20.497,15.597L20.329,14.781L20.002,15.358L19.201,14.965L19.795,15.713L19.455,16.29ZM22.653,17.763L22.997,18.56L23.142,17.823L23.931,17.884L23.226,17.366L23.351,16.625L22.787,17.028L22.074,16.462L22.435,17.268L21.86,17.641L22.653,17.763ZM23.896,19.473L24.666,19.762L24.711,20.555L25.139,19.915L25.901,20.115L25.397,19.51L25.808,18.842L25.082,19.124L24.562,18.478L24.63,19.272L23.896,19.473ZM25.885,22.029L25.617,22.784L26.273,22.288L26.899,22.69L26.676,21.97L27.326,21.443L26.532,21.523L26.287,20.796L26.043,21.559L25.255,21.588L25.885,22.029ZM16.963,15.75L17.493,15.337L18.231,15.9L17.818,15.087L18.34,14.69L17.558,14.587L17.132,13.782L17.075,14.532L16.296,14.466L17.036,14.997L16.963,15.75ZM14.596,15.538L14.784,16.332L15.085,15.654L15.88,15.883L15.267,15.239L15.554,14.575L14.887,14.854L14.268,14.257L14.473,15.047L13.806,15.392L14.596,15.538ZM12.693,17.318L13.091,17.972L13.151,17.183L13.909,16.998L13.181,16.695L13.218,15.904L12.74,16.527L12.034,16.276L12.444,16.917L11.958,17.555L12.693,17.318ZM10.777,20.268L11.436,19.768L11.994,20.198L11.842,19.465L12.497,18.988L11.741,19.011L11.565,18.278L11.277,19.038L10.536,19.099L11.092,19.508L10.777,20.268Z" style="fill:white;fill-rule:nonzero;"/>
                </g>
            </g>
        </g>
    </g>
</svg>
