<?xml version="1.0" encoding="UTF-8" standalone="no"?>
<!DOCTYPE svg PUBLIC "-//W3C//DTD SVG 1.1//EN" "http://www.w3.org/Graphics/SVG/1.1/DTD/svg11.dtd">
<svg width="100%" height="100%" viewBox="0 0 512 512" version="1.1" xmlns="http://www.w3.org/2000/svg" xmlns:xlink="http://www.w3.org/1999/xlink" xml:space="preserve" xmlns:serif="http://www.serif.com/" style="fill-rule:evenodd;clip-rule:evenodd;stroke-linejoin:round;stroke-miterlimit:2;">
    <g transform="matrix(1.11593,-4.03717e-17,4.03717e-17,1.11593,-13.9687,-19.1113)">
        <g transform="matrix(11.1111,-1.36955e-31,4.93038e-32,11.1111,-2411.79,-2528.08)">
            <g>
                <g transform="matrix(0.896117,3.24196e-17,-3.24196e-17,0.896117,222.704,233.585)">
                    <path d="M36.469,27.17C36.262,29.289 34.174,31.437 32.068,31.737C22.767,33.063 21.617,31.929 16.923,30.475C12.025,28.957 9.41,30.043 4.002,30.751C1.724,31.049 0.033,29.147 0.333,26.993C0.76,23.929 1.552,20.621 1.436,17.229C1.343,14.486 0.678,12.475 0.255,9.01C-0.023,6.74 1.891,5.026 4,4.757C11.375,3.817 11.85,2.887 18.359,4.935C24.284,6.8 24.43,6.609 32,5.435C34.301,5.078 36.029,6.947 36.301,9.019C37.368,17.137 37.447,17.156 36.469,27.17Z" style="fill:rgb(238,238,238);fill-rule:nonzero;"/>
                </g>
                <g transform="matrix(0.896117,3.24196e-17,-3.24196e-17,0.896117,222.704,233.585)">
                    <path d="M0.333,26.993C0.033,29.147 1.724,31.049 4.002,30.751C11.374,29.786 11.848,28.83 18.359,30.934C21.72,32.019 23.309,32.985 32.068,31.737C34.174,31.437 36.262,29.289 36.469,27.17C37.05,21.218 37.15,20.316 37.131,18.012C28.903,18.294 28.725,20.949 19.437,18.007C15.976,16.911 14.495,16.422 10.584,16.949C7.417,17.375 5.365,18.138 1.448,18.098C1.43,21.06 0.711,24.283 0.333,26.993Z" style="fill:rgb(62,154,0);fill-rule:nonzero;"/>
                </g>
                <g transform="matrix(0.896117,3.24196e-17,-3.24196e-17,0.896117,222.704,233.585)">
                    <path d="M32.484,13.303C32.451,12.918 32.302,11.211 32.301,11.203C32.293,11.147 31.154,12.883 30.917,13.206C30.218,14.156 29.41,15.124 29.274,15.287C30.009,15.348 30.75,15.045 30.87,14.996L30.522,15.938C30.405,15.878 29.781,15.681 29.002,15.787C28.051,15.917 27.425,16.6 27.277,17.241C27.128,17.883 28.015,18.656 28.689,18.602C29.353,18.55 29.977,18.237 30.081,18.184C29.142,19.808 26.792,18.993 26.138,18.97C25.075,18.934 25.097,18.951 24.044,18.852C24.868,17.899 26.391,18.019 26.396,18.019C26.491,18.014 25.544,16.554 26.19,15.607C26.581,15.033 27.615,14.274 28.161,13.959C27.784,13.889 27.113,13.6 27.104,13.115C27.094,12.533 28.893,10.624 29.076,10.43C26.057,12.418 24.003,12.887 23.792,12.309C23.429,11.317 23.794,10.461 23.889,10.292C23.633,10.379 18.535,12.353 17.714,12.91C17.214,13.25 17.307,14.904 17.316,15.08C17.333,15.37 17.2,15.781 16.51,15.984C16.284,16.05 14.949,16.005 14.813,16.001C14.783,15.953 14.579,15.631 14.721,15.305C14.867,14.971 15.397,15.288 15.447,15.318C15.363,14.719 14.905,14.409 14.614,14.348C14.463,14.316 14.414,13.699 14.655,13.699C14.926,13.7 15.567,14.18 15.639,14.234C15.639,13.934 15.499,13.435 15.196,13.291C14.883,13.143 14.518,12.724 14.639,12.498C14.785,12.227 15.626,12.728 15.701,12.773C15.73,12.024 14.695,11.626 14.681,11.477C14.656,11.206 15.447,11.479 15.509,11.501C15.39,10.991 14.833,10.642 14.556,10.553L14.377,10.328C14.228,10.147 14.152,9.508 14.403,9.457C14.658,9.405 15.137,9.107 15.197,9.069L14.831,8.97L14.811,8.024C14.676,8.181 13.819,8.421 13.481,8.425C13.054,8.431 12.754,8.884 12.789,8.83C12.572,8.878 10.681,8.775 10.151,8.983C9.581,9.206 9.709,9.711 9.693,9.648C8.997,9.763 8.279,9.986 8.158,10.024C7.349,10.275 6.818,11.106 6.903,11.146C7.004,11.194 6.987,11.09 8.26,10.813C8.654,10.728 9.074,10.953 9.115,11.119C9.12,11.239 9.132,11.217 9.207,11.318C9.252,11.379 9.505,11.266 9.434,11.293L9.62,11.433L9.667,11.191L9.888,11.303L9.827,11.034L10.097,11.175L10.033,10.884L10.329,11.053L10.319,10.752C11.259,10.627 11.414,11.123 11.387,11.039C10.51,11.36 7.849,11.809 6.853,11.924L7.482,11.483C6.947,11.592 5.699,11.263 4.848,10.897C4.923,11.023 5.473,11.946 5.945,12.357C6.407,12.759 7.17,12.955 7.284,12.985L6.966,12.474C7.138,12.461 8.63,12.35 9.115,12.275L9.372,12.231C9.405,12.586 9.747,12.98 9.794,13.035C9.642,13.398 10.014,13.78 9.974,13.738C10.024,13.632 10.059,13.517 10.079,13.4L10.234,12.727L10.551,13.094C10.617,12.332 11.266,12.062 11.423,12.005L11.648,12.401C11.095,12.653 11.268,13.318 11.306,13.425C10.982,13.669 10.921,14.159 10.965,14.388C10.915,14.415 10.711,14.584 10.599,14.882C10.459,15.252 10.66,15.483 10.63,15.449C10.587,15.481 10.35,15.66 10.264,16.023C10.18,16.381 10.298,16.849 10.283,16.79C9.951,16.869 9.985,17.5 9.989,17.567C10.031,18.363 10.547,18.502 10.376,18.423C10.012,18.52 9.988,18.992 9.99,18.941C9.955,18.895 9.868,18.909 9.817,18.936C9.743,18.976 9.577,19.168 9.626,19.1C9.556,19.02 9.478,18.942 9.383,18.893C9.268,18.833 8.895,19.056 9.007,18.99C8.964,18.84 8.858,18.676 8.71,18.627C8.642,18.605 8.57,18.593 8.499,18.588C8.446,18.584 8.339,18.6 8.339,18.6C8.403,18.474 8.351,18.229 8.197,18.104C8.098,18.024 7.7,18.01 7.827,18.008C7.833,17.94 7.87,17.534 7.821,17.162C7.811,17.08 7.807,17.099 7.434,16.361C7.33,16.156 7.671,15.809 7.707,15.772C7.907,15.559 7.977,15.609 8.025,15.317C8.039,15.231 8.045,15.144 8.049,15.057C8.052,14.986 8.045,14.842 8.045,14.842C7.995,14.706 8.014,14.553 8.018,14.409C8.029,14.081 7.629,13.931 7.672,13.947C7.733,14.097 7.763,14.272 7.727,14.43C7.696,14.568 7.433,14.911 7.53,14.808C7.455,14.782 7.356,15.061 7.37,14.983L7.409,14.635C7.439,14.388 7.378,14.416 7.008,13.751C6.768,13.32 6.247,13.437 6.062,13.526C6.482,13.573 6.762,14.147 6.613,14.369C6.467,14.585 6.488,15.081 6.491,15.143C6.184,14.744 5.981,14.757 5.993,14.755C5.795,14.576 5.551,14.471 5.509,14.453C5.437,14.422 5.356,14.405 5.277,14.415C5.196,14.425 5.001,14.582 5.055,14.52C5.456,14.581 5.514,15.101 5.508,15.046C5.295,15.259 5.681,15.588 5.648,15.561C5.654,15.604 5.698,15.943 5.806,16.08C5.968,16.284 6.743,16.484 6.274,16.335C6.271,16.469 6.245,17.661 6.164,18.005C6.133,18.139 5.982,18.265 5.898,18.345C5.869,18.373 5.617,18.861 5.515,18.962C5.484,18.994 5.428,19.061 5.431,19.116C5.435,19.171 5.58,19.27 5.529,19.249C5.52,19.403 5.442,19.572 5.315,19.659C5.032,19.85 4.5,19.976 4.849,19.872C4.887,19.892 5.1,20.007 5.383,19.905C5.666,19.805 5.884,19.526 5.855,19.563C6.022,19.524 6.193,19.238 6.203,19.037C6.215,18.801 6.271,18.829 6.454,18.523C6.496,18.452 6.53,18.376 6.56,18.299C6.586,18.233 6.622,18.096 6.622,18.096C6.599,18.674 7.426,19.941 7.741,20.121C8.209,20.386 8.61,21.129 8.664,21.231C8.971,21.799 8.968,22.82 8.967,22.96C9.558,22.46 9.741,21.749 9.751,21.514L10.582,21.283C11.149,21.15 12.02,21.201 11.437,21.194C11.08,21.655 11.429,21.748 11.387,21.736C11.344,21.744 11.052,21.796 10.908,21.998C10.764,22.199 10.934,22.591 10.916,22.551C10.328,22.806 10.317,23.338 10.344,23.476C10.166,23.785 9.626,24.424 9.046,24.579C8.342,24.766 7.934,24.379 7.763,24.378C7.651,24.377 7.388,24.574 7.443,24.477C7.111,24.297 7.119,24.258 6.974,24.282C6.599,24.345 6.504,24.849 6.492,24.912C6.599,24.792 6.734,24.659 6.895,24.646C6.988,24.638 7.175,24.875 7.139,24.789C7.075,24.85 7.176,25.119 7.119,25.052L6.939,25.311C6.762,25.238 6.367,25.396 6.321,25.414C5.951,25.562 5.849,26.02 5.862,25.964C5.975,25.886 6.101,25.827 6.23,25.779C6.541,25.662 7.22,25.751 6.782,25.721L7.005,25.836L6.925,26.064C6.477,26.138 6.278,26.675 6.253,26.944C6.276,26.909 6.425,26.693 6.606,26.556C6.862,26.361 7.474,26.374 7.09,26.399C7.34,26.679 7.961,26.456 8.426,26.043C8.77,25.738 9.012,25.763 9.189,25.799C9.346,25.831 9.675,25.738 9.847,25.571C9.884,25.535 10.202,25.227 10.491,25.468C10.545,25.513 10.845,25.793 11.318,25.831C11.68,25.86 11.845,25.571 11.99,25.545C12.272,25.493 12.666,25.988 12.47,25.78C12.598,25.234 12.084,25.107 11.854,25.114C11.874,25.026 11.642,24.893 11.322,24.964C11.009,25.034 10.689,24.826 10.729,24.852C10.923,24.183 11.523,23.34 11.95,23.026C12.358,22.724 13.076,21.899 13.167,21.795L13.356,21.607L13.367,22.109C13.355,22.353 13.731,23.099 13.772,23.18L14.073,22.593L14.378,21.995C14.648,21.95 15.035,21.704 15.088,21.671C15.197,21.724 15.561,21.833 15.881,21.812C16.162,21.794 16.639,21.584 16.851,21.449C17.121,21.663 17.664,21.609 17.603,21.615C17.554,21.678 17.432,21.979 17.574,22.325C17.753,22.762 18.245,23.129 18.318,23.184C18.324,23.284 18.436,23.622 18.756,23.825C19.174,24.089 19.649,24.148 19.579,24.139C19.53,24.415 19.962,24.642 19.92,24.62C19.479,24.577 19.513,25.085 19.51,25.039C19.024,24.817 18.861,25.305 18.878,25.254C18.572,25.105 18.083,25.062 18.012,25.056C17.833,25.041 17.029,24.621 16.921,24.517C16.739,24.341 16.63,24.101 16.477,23.899C16.424,23.828 16.321,23.713 16.233,23.661C16.185,23.634 16.116,23.602 16.058,23.611C16.008,23.618 15.937,23.762 15.948,23.713C15.886,23.661 15.649,23.53 15.385,23.524C15.03,23.514 14.948,23.981 14.956,23.935C15.082,23.867 15.227,23.818 15.37,23.823C15.427,23.826 15.48,23.848 15.525,23.883C15.586,23.93 15.701,24.134 15.669,24.064C15.633,24.203 15.75,24.334 15.862,24.396C16.554,24.778 16.545,24.771 16.555,24.782C16.802,25.076 16.938,25.529 16.821,25.226L16.268,25.057C16.207,25.041 16.264,24.96 15.596,24.637C15.537,24.608 15.477,24.601 15.412,24.601C15.326,24.601 15.08,24.69 15.159,24.655C14.917,24.479 14.624,24.627 14.583,24.648C14.248,24.817 14.252,25.202 14.252,25.154C14.349,25.062 14.46,24.97 14.589,24.934C14.688,24.908 14.97,25.06 14.887,25.001C14.872,25.08 14.905,25.192 14.978,25.225C15.159,25.306 15.732,25.985 15.366,25.575C14.802,25.579 14.906,26.006 15.014,26.185C15.105,26.083 15.231,25.998 15.365,25.973C15.42,25.963 15.477,25.971 15.532,25.979C15.598,25.988 15.761,26.113 15.711,26.069C15.771,26.273 16.182,26.108 16.22,26.093C16.57,25.953 17.324,26.121 17.418,26.141C17.744,26.214 17.711,26.238 18.155,26.44C18.202,26.461 18.686,26.497 18.811,26.547C18.947,26.6 19.582,27.28 19.842,27.414C20.162,27.58 20.292,27.402 20.453,27.451C20.778,27.55 21.288,28.315 21.021,27.956C21.014,27.905 20.961,27.552 20.838,27.34C20.678,27.068 19.889,26.804 20.263,26.952C20.095,26.579 19.626,26.562 19.599,26.556C19.472,26.527 19.174,26.262 19.265,26.355C19.476,26.375 20.345,26.346 21.215,26.032C22.16,25.69 22.669,25.026 22.764,24.846C22.887,24.985 23.411,25.314 23.934,25.52C24.06,24.863 23.589,24.305 23.033,24.247C22.872,24.23 22.265,23.759 22.092,23.685C22.022,23.656 21.616,23.482 21.58,22.886C21.55,22.392 21.968,22.253 22.028,22.233C22.408,22.108 22.804,21.556 22.521,21.884C22.71,22.25 23.216,22.361 23.155,22.348C23.275,22.746 23.879,23 24.269,23.044C24.465,23.428 25.122,23.428 25.582,23.276C25.81,23.582 26.355,23.523 26.678,23.385C26.78,23.661 27.319,23.502 27.372,23.486C27.347,23.745 28.001,24.068 27.721,23.903C27.58,24.342 27.762,24.791 27.791,24.862C27.558,25.137 27.645,25.626 27.635,25.569C27.598,25.586 27.337,25.704 27.267,25.913C27.245,25.978 27.242,26.039 27.249,26.107C27.258,26.19 27.371,26.415 27.328,26.344C27.239,26.538 26.785,26.825 26.731,26.859C26.199,27.196 25.625,26.755 25.59,26.739C25.402,26.657 24.814,26.017 24.727,25.985C24.649,25.957 24.498,26.182 24.508,26.1C24.397,26.041 24.257,26.045 24.133,26.064C23.797,26.115 23.593,26.547 23.616,26.498C23.748,26.442 23.893,26.413 24.037,26.408C24.147,26.404 24.406,26.623 24.346,26.53C24.305,26.598 24.336,26.744 24.414,26.756C24.488,26.767 24.557,26.798 24.624,26.83C24.692,26.862 24.818,26.948 24.818,26.948L24.221,26.915C24.101,26.913 24.017,26.995 23.973,27.1L23.832,27.114C23.082,27.279 23.184,27.824 23.17,27.752C23.567,27.339 23.977,27.601 23.925,27.568C23.922,27.624 24.231,27.744 24.534,27.611C24.688,27.542 25.183,27.583 25.307,27.685C25.413,27.769 25.056,27.797 24.922,27.812C24.839,27.821 24.752,27.845 24.683,27.894C24.613,27.943 24.511,28.185 24.53,28.101C24.451,28.119 23.816,28.262 23.797,28.788L24.353,28.59C24.472,28.543 24.968,28.619 25.145,28.461C25.545,28.102 25.932,28.044 26.008,28.032C26.439,27.969 26.397,28.207 26.827,28.199C27.058,28.194 27.03,28.149 27.595,27.912C28.009,27.739 28.49,27.965 28.56,27.998C28.825,28.122 28.959,28.135 29.256,28.018C29.544,27.903 29.937,28.141 29.963,28.245C30.001,28.394 29.919,27.868 29.696,27.689C29.37,27.424 28.776,27.343 28.691,27.332C28.519,27.308 28.433,26.672 28.596,26.555C28.751,26.444 29.156,24.549 29.194,24.372C29.219,24.254 29.379,23.505 28.991,22.884C29.032,22.897 29.273,22.973 29.477,23.125C29.69,23.284 30.17,23.392 30.366,23.285C30.536,23.191 30.228,22.742 29.429,22.381C27.576,21.544 27.582,21.552 27.176,21.356C29.668,21.039 31.282,19.51 31.626,18.07C31.825,17.24 31.494,16.645 31.394,16.523L31.73,15.178C32.05,15.624 33.056,15.717 33.18,15.728C33.095,15.545 32.579,14.422 32.484,13.303Z" style="fill:rgb(221,46,68);fill-rule:nonzero;"/>
                </g>
                <g transform="matrix(0.896117,3.24196e-17,-3.24196e-17,0.896117,222.704,233.585)">
                    <path d="M10.398,9.718C10.55,9.671 10.714,9.653 10.872,9.671L11.338,9.751C11.325,9.801 11.228,10.172 10.841,10.161C10.455,10.149 10.391,9.668 10.398,9.718Z" style="fill:white;fill-rule:nonzero;"/>
                </g>
                <g transform="matrix(0.896117,3.24196e-17,-3.24196e-17,0.896117,222.704,233.585)">
                    <path d="M10.872,9.671L10.599,9.678L10.594,9.698C10.61,9.856 10.754,9.978 10.913,9.964C11.046,9.952 11.134,9.839 11.153,9.713L10.872,9.671Z" style="fill-rule:nonzero;"/>
                </g>
            </g>
        </g>
    </g>
</svg>
