<?xml version="1.0" encoding="UTF-8" standalone="no"?>
<!DOCTYPE svg PUBLIC "-//W3C//DTD SVG 1.1//EN" "http://www.w3.org/Graphics/SVG/1.1/DTD/svg11.dtd">
<svg width="100%" height="100%" viewBox="0 0 512 512" version="1.1" xmlns="http://www.w3.org/2000/svg" xmlns:xlink="http://www.w3.org/1999/xlink" xml:space="preserve" xmlns:serif="http://www.serif.com/" style="fill-rule:evenodd;clip-rule:evenodd;stroke-linejoin:round;stroke-miterlimit:2;">
    <g transform="matrix(1.11593,-4.03717e-17,4.03717e-17,1.11593,-13.9687,-19.1113)">
        <g transform="matrix(11.1111,-3.0404e-31,-4.93038e-32,11.1111,-2411.79,-2528.08)">
            <g>
                <g transform="matrix(0.896117,3.24196e-17,-3.24196e-17,0.896117,222.704,233.585)">
                    <path d="M32,5.435C24.437,6.608 24.303,6.825 18,4.821C18,8.786 18.737,12.558 18.871,16.826C10.362,14.109 9.423,17.203 1.432,17.112C1.567,20.551 0.763,23.908 0.333,26.993C0.033,29.147 1.724,31.049 4.002,30.751C11.374,29.786 11.848,28.83 18.359,30.934C21.72,32.019 23.309,32.985 32.068,31.737C34.174,31.437 36.262,29.289 36.469,27.17C37.446,17.169 37.37,17.149 36.301,9.019C36.029,6.947 34.301,5.078 32,5.435Z" style="fill:rgb(237,41,57);fill-rule:nonzero;"/>
                </g>
                <g transform="matrix(0.896117,3.24196e-17,-3.24196e-17,0.896117,222.704,233.585)">
                    <path d="M1.368,16.107C5.687,16.154 7.602,15.203 11.919,14.781C14.969,14.483 17.2,15.297 19.85,16.149C19.903,17.183 19.91,17.999 19.912,18.16C16.044,16.917 14.561,16.42 10.635,16.942C7.462,17.364 5.386,18.138 1.448,18.098C1.454,17.093 1.382,16.266 1.368,16.107Z" style="fill:rgb(238,238,238);fill-rule:nonzero;"/>
                </g>
                <g transform="matrix(0.896117,3.24196e-17,-3.24196e-17,0.896117,222.704,233.585)">
                    <path d="M7.223,16.526C4.259,17.073 3.029,17.13 1.432,17.112C1.329,14.495 0.666,12.371 0.255,9.01C-0.023,6.74 1.891,5.026 4,4.757C4.16,4.737 4.796,4.656 6,4.468C6,9.178 7.087,12.957 7.223,16.526Z" style="fill:rgb(0,35,149);fill-rule:nonzero;"/>
                </g>
                <g transform="matrix(0.896117,3.24196e-17,-3.24196e-17,0.896117,222.704,233.585)">
                    <path d="M6,4.468C6.745,4.352 9.877,3.814 12,3.747C12,7.935 12.685,11.831 12.817,15.733C10.798,15.819 8.066,16.371 7.223,16.526C7.087,12.961 6,9.182 6,4.468ZM17,4.511C17.473,4.652 18.84,5.09 19,5.141C19,9.376 19.866,13.277 19.912,18.16C19.749,18.108 18.355,17.66 17.873,17.515C17.824,12.781 17,8.806 17,4.511Z" style="fill:rgb(238,238,238);fill-rule:nonzero;"/>
                </g>
                <g transform="matrix(0.896117,3.24196e-17,-3.24196e-17,0.896117,222.704,233.585)">
                    <path d="M12,3.747C13.975,3.685 15.481,4.02 18,4.821C18,8.786 18.737,12.558 18.871,16.826C16.422,16.044 14.786,15.649 12.817,15.733C12.685,11.834 12,7.942 12,3.747Z" style="fill:rgb(237,41,57);fill-rule:nonzero;"/>
                </g>
                <g transform="matrix(0.896117,3.24196e-17,-3.24196e-17,0.896117,222.704,233.585)">
                    <path d="M25.171,23.663C27.445,23.724 31.382,23.013 31.487,22.995C30.936,22.501 28.781,20.613 28.497,20.362C28.244,20.638 26.65,22.371 25.171,23.663ZM31.483,14.674C31.478,14.675 27.465,15.403 25.167,15.34C26.462,16.558 28.22,18.047 28.49,18.276C29.781,16.803 31.249,14.966 31.483,14.674ZM32.636,21.787C32.847,18.858 32.656,16.039 32.623,15.54C32.382,15.835 30.829,17.736 29.562,19.177C29.809,19.384 31.822,21.07 32.636,21.787ZM24.204,16.299C24.238,16.798 24.431,19.602 24.216,22.551C25.607,21.433 27.21,19.694 27.454,19.43C26.056,18.166 24.925,17.055 24.204,16.299Z" style="fill:white;fill-rule:nonzero;"/>
                </g>
            </g>
        </g>
    </g>
</svg>
