<?xml version="1.0" encoding="UTF-8" standalone="no"?>
<!DOCTYPE svg PUBLIC "-//W3C//DTD SVG 1.1//EN" "http://www.w3.org/Graphics/SVG/1.1/DTD/svg11.dtd">
<svg width="100%" height="100%" viewBox="0 0 512 512" version="1.1" xmlns="http://www.w3.org/2000/svg" xmlns:xlink="http://www.w3.org/1999/xlink" xml:space="preserve" xmlns:serif="http://www.serif.com/" style="fill-rule:evenodd;clip-rule:evenodd;stroke-linejoin:round;stroke-miterlimit:2;">
    <g transform="matrix(1.11593,-4.03717e-17,4.03717e-17,1.11593,-13.9687,-19.1113)">
        <g transform="matrix(11.1111,-1.36955e-31,4.93038e-32,11.1111,-2411.79,-2528.08)">
            <g>
                <g transform="matrix(0.896117,3.24196e-17,-3.24196e-17,0.896117,222.704,233.585)">
                    <path d="M0.324,27.056C0.028,29.2 1.716,31.05 4.002,30.751C11.374,29.786 11.848,28.83 18.359,30.934C21.72,32.019 23.309,32.985 32.068,31.737C34.18,31.436 36.256,29.346 36.463,27.232C36.504,26.814 36.969,22.065 36.973,22.012C29.217,22.274 28.389,24.888 19.639,22.117C16.636,21.165 14.753,20.39 10.716,20.874C6.907,21.329 5.508,22.004 1.125,22.002C1.012,22.779 0.497,25.809 0.324,27.056Z" style="fill:rgb(20,20,20);fill-rule:nonzero;"/>
                </g>
                <g transform="matrix(0.896117,3.24196e-17,-3.24196e-17,0.896117,222.704,233.585)">
                    <path d="M1.083,14.014C7.958,14.024 11.19,11.702 16.695,13.221C20.322,14.222 22.735,15.448 26.096,15.332C29.347,15.219 33.658,14.12 36.938,14.011C37.01,14.867 37.305,18.388 36.973,22.012C29.217,22.274 28.389,24.888 19.639,22.117C16.636,21.165 14.753,20.39 10.716,20.874C6.907,21.329 5.508,22.004 1.125,22.002C1.426,19.933 1.671,17.192 1.083,14.014Z" style="fill:rgb(238,238,238);fill-rule:nonzero;"/>
                </g>
                <g transform="matrix(0.896117,3.24196e-17,-3.24196e-17,0.896117,222.704,233.585)">
                    <path d="M32,5.435C24.446,6.606 24.298,6.804 18.359,4.935C11.85,2.887 11.375,3.817 4,4.757C1.891,5.026 -0.019,6.799 0.262,9.073C0.451,10.601 1.01,13.62 1.083,14.014C7.958,14.024 11.19,11.702 16.695,13.221C20.322,14.222 22.735,15.448 26.096,15.332C29.347,15.219 33.658,14.12 36.938,14.011C36.812,12.515 36.403,9.793 36.309,9.082C36.036,7.016 34.299,5.078 32,5.435Z" style="fill:rgb(206,17,38);fill-rule:nonzero;"/>
                </g>
            </g>
        </g>
    </g>
</svg>
