<?xml version="1.0" encoding="UTF-8" standalone="no"?>
<!DOCTYPE svg PUBLIC "-//W3C//DTD SVG 1.1//EN" "http://www.w3.org/Graphics/SVG/1.1/DTD/svg11.dtd">
<svg width="100%" height="100%" viewBox="0 0 512 512" version="1.1" xmlns="http://www.w3.org/2000/svg" xmlns:xlink="http://www.w3.org/1999/xlink" xml:space="preserve" xmlns:serif="http://www.serif.com/" style="fill-rule:evenodd;clip-rule:evenodd;stroke-linejoin:round;stroke-miterlimit:2;">
    <g transform="matrix(1.11593,-4.03717e-17,4.03717e-17,1.11593,-13.9687,-19.1113)">
        <g transform="matrix(11.1111,-1.36955e-31,4.93038e-32,11.1111,-2411.79,-2528.08)">
            <g>
                <g transform="matrix(0.896117,3.24196e-17,-3.24196e-17,0.896117,222.704,233.585)">
                    <path d="M32,5.435C24.446,6.606 24.298,6.804 18.359,4.935C11.85,2.887 11.375,3.817 4,4.757C1.891,5.026 -0.023,6.74 0.255,9.01C0.711,12.739 1.442,14.73 1.448,17.925C1.455,20.985 0.727,24.164 0.333,26.993C0.033,29.147 1.724,31.049 4.002,30.751C11.374,29.786 11.848,28.83 18.359,30.934C21.72,32.019 23.309,32.985 32.068,31.737C34.174,31.437 36.262,29.289 36.469,27.17C37.446,17.169 37.37,17.149 36.301,9.019C36.029,6.947 34.301,5.078 32,5.435Z" style="fill:rgb(26,138,0);fill-rule:nonzero;"/>
                </g>
                <g transform="matrix(0.896117,3.24196e-17,-3.24196e-17,0.896117,222.704,233.585)">
                    <path d="M31.061,31.875L32.068,31.737C34.174,31.437 36.262,29.289 36.469,27.17C37.021,21.518 37.311,19.419 37.014,15.01C35.234,15.069 32.351,15.543 31.948,15.61C32.361,21.648 31.552,24.563 31.061,31.875Z" style="fill:rgb(239,125,0);fill-rule:nonzero;"/>
                </g>
                <g transform="matrix(0.896117,3.24196e-17,-3.24196e-17,0.896117,222.704,233.585)">
                    <path d="M26.872,16.295C28.714,16.171 31.538,15.677 31.948,15.61C32.361,21.648 31.552,24.563 31.061,31.875C30.659,31.927 28.284,32.236 26.007,32.319C26.108,27.009 27.361,23.332 26.872,16.295Z" style="fill:rgb(20,20,20);fill-rule:nonzero;"/>
                </g>
                <g transform="matrix(0.896117,3.24196e-17,-3.24196e-17,0.896117,222.704,233.585)">
                    <path d="M21.829,15.765C24.021,16.365 25.313,16.401 26.872,16.295C27.361,23.332 26.108,27.004 26.007,32.319C25.019,32.354 23.542,32.473 21,31.765C21.039,26.245 22.331,23.025 21.829,15.765Z" style="fill:rgb(222,32,15);fill-rule:nonzero;"/>
                </g>
                <g transform="matrix(0.896117,3.24196e-17,-3.24196e-17,0.896117,222.704,233.585)">
                    <path d="M35.289,8.322C35.169,8.308 34.66,8.674 34.609,8.711C34.645,8.659 35.093,8.008 34.97,8.019C34.823,8.031 34.203,8.414 34.139,8.453C34.164,8.413 34.527,7.844 34.389,7.921C33.593,8.365 33.623,8.369 32.854,8.824C32.876,8.775 32.937,8.434 32.812,8.452C32.726,8.465 32.801,8.594 31.85,8.976C31.658,9.053 30.389,9.814 30.121,9.811C29.757,9.806 29.095,9.964 29.007,9.985C28.916,9.881 28.804,9.658 28.918,9.58C29.009,9.518 29.307,9.75 29.238,9.664C29.367,9.586 29.527,9.453 29.511,9.303C29.492,9.121 29.01,9.173 28.966,9.178C28.931,9.143 28.72,8.931 28.373,8.98C27.599,9.088 27.48,9.837 27.489,10.076L26.748,9.932C26.722,9.928 25.738,9.938 25.144,9.608C24.667,9.342 24.541,9.355 24.434,9.31C24.511,9.404 24.517,9.516 24.91,9.891C23.968,9.585 23.153,8.711 23.041,8.968C22.91,9.273 23.458,9.681 23.515,9.724C23.204,9.601 22.962,9.358 22.921,9.317C22.921,9.317 22.512,9.035 22.477,9.01C22.568,9.211 22.526,9.212 22.651,9.396C22.306,9.237 22.427,9.534 22.553,9.718C22.431,9.729 22.495,10.006 22.589,10.085C23.01,10.438 23.578,10.593 23.671,10.618C23.587,10.672 23.508,10.86 23.595,10.908C23.895,11.07 24.512,10.934 24.12,10.983C24.042,11.047 24.06,11.248 24.154,11.285C24.428,11.394 24.785,11.302 24.74,11.314C24.695,11.428 24.812,11.587 24.927,11.629C25.202,11.729 25.634,11.475 25.587,11.502C25.524,11.55 25.544,11.704 25.615,11.74C25.825,11.842 26.132,11.574 26.101,11.6C26.054,11.702 26.031,11.914 26.141,11.936C26.203,11.947 26.266,11.927 26.322,11.904C26.417,11.865 26.654,11.665 26.578,11.734C26.535,11.826 26.513,12.032 26.615,12.037C26.795,12.047 27.198,11.768 27.159,11.795C27.105,11.881 27.094,12.107 27.196,12.098C27.54,12.065 28.042,11.661 27.703,11.893C27.686,12.01 27.761,12.168 27.874,12.203C28.142,12.286 28.523,11.792 28.337,11.992C28.352,12.048 28.46,12.44 28.447,12.705C28.445,12.758 28.452,12.825 28.522,12.831C28.601,12.837 28.803,12.683 28.74,12.732C28.741,12.895 28.638,13.135 28.476,13.143C28.236,13.153 27.985,13.532 28.085,13.61C28.202,13.702 28.645,13.415 28.517,13.491C28.527,13.641 28.537,13.978 28.675,13.915C28.82,13.85 29.079,13.425 28.993,13.559C29.051,13.67 29.145,13.902 29.249,13.833C29.347,13.766 29.352,13.555 29.342,13.466C29.331,13.369 29.657,13.247 29.565,13.278C29.599,13.4 29.68,13.703 29.76,13.604C29.781,13.578 29.888,13.162 29.949,13.109C30.005,13.06 30.165,13.559 30.222,13.531C30.308,13.488 30.279,13.171 30.179,12.962C30.121,12.841 30.456,13.023 30.422,12.923C30.379,12.792 30.001,12.564 30.117,12.64C30.19,12.654 30.391,12.656 30.337,12.605C30.291,12.561 30.132,12.229 30.296,12.276C30.398,12.305 30.544,11.945 30.514,12.046C30.557,12.068 30.899,12.249 31.107,12.127C31.309,12.009 30.818,11.802 30.772,11.783C30.848,11.796 31.575,11.918 31.74,11.847C31.866,11.792 31.564,11.621 31.438,11.564C31.485,11.567 31.937,11.593 32.01,11.472C32.073,11.366 31.547,11.321 31.67,11.327C31.719,11.327 32.215,11.328 32.269,11.231C32.31,11.159 32.012,11.036 32.09,11.061C32.178,11.045 32.966,10.9 33.099,10.575C33.941,10.475 34.843,9.679 34.911,9.517C34.939,9.449 34.666,9.387 34.739,9.379C34.776,9.343 35.206,8.917 35.134,8.86C35.042,8.785 34.698,9.044 34.797,8.977C34.841,8.929 35.391,8.334 35.289,8.322ZM29.261,12.969C28.999,13.007 29.157,12.84 29.09,12.685C29.038,12.565 29.238,12.628 29.203,12.513C29.164,12.388 29.114,11.816 29.108,11.755C29.158,11.793 29.497,12.046 29.506,12.425C29.512,12.636 29.603,12.571 29.702,12.749C29.792,12.907 29.286,12.965 29.261,12.969Z" style="fill:rgb(239,125,0);fill-rule:nonzero;"/>
                </g>
            </g>
        </g>
    </g>
</svg>
