<?xml version="1.0" encoding="UTF-8" standalone="no"?>
<!DOCTYPE svg PUBLIC "-//W3C//DTD SVG 1.1//EN" "http://www.w3.org/Graphics/SVG/1.1/DTD/svg11.dtd">
<svg width="100%" height="100%" viewBox="0 0 512 512" version="1.1" xmlns="http://www.w3.org/2000/svg" xmlns:xlink="http://www.w3.org/1999/xlink" xml:space="preserve" xmlns:serif="http://www.serif.com/" style="fill-rule:evenodd;clip-rule:evenodd;stroke-linejoin:round;stroke-miterlimit:2;">
    <g transform="matrix(1.11593,-4.03717e-17,4.03717e-17,1.11593,-13.9687,-19.1113)">
        <g transform="matrix(11.1111,-1.36955e-31,4.93038e-32,11.1111,-2411.79,-2528.08)">
            <g>
                <g transform="matrix(0.896117,3.24196e-17,-3.24196e-17,0.896117,222.704,233.585)">
                    <path d="M10.629,10.89C7.803,9.141 4.283,7.297 1.84,5.601C1.576,5.79 1.387,5.971 1.35,6.006L1.35,6.007C1.166,6.185 0.042,7.268 0.255,9.01C0.711,12.739 1.442,14.73 1.448,17.925C1.455,20.985 0.727,24.164 0.333,26.993C0.081,28.8 1.183,29.798 1.37,29.967C1.405,30 1.587,30.165 1.853,30.326C10.081,23.76 11.073,21.255 18.892,17.832C15.127,13.822 13.511,12.672 10.629,10.89Z" style="fill:rgb(238,238,238);fill-rule:nonzero;"/>
                </g>
                <g transform="matrix(0.896117,3.24196e-17,-3.24196e-17,0.896117,222.704,233.585)">
                    <path d="M7.231,10.975C7.781,11.799 8.635,13.043 9.373,14.307C9.68,14.305 11.589,14.292 13.204,14.501C12.516,15.244 10.742,17.312 10.53,17.558C10.818,19.425 10.89,21.102 10.903,21.411C9.796,20.891 8.009,20.171 7.755,20.069C7.474,20.265 5.635,21.551 4.174,22.431C4.851,20.343 5.14,18.777 5.2,18.453C4.654,17.958 2.561,16.081 2.356,15.896C3.924,15.615 5.782,14.993 6.074,14.895C6.134,14.703 6.695,12.688 7.231,10.975Z" style="fill:rgb(222,32,15);fill-rule:nonzero;"/>
                </g>
                <g transform="matrix(0.896117,3.24196e-17,-3.24196e-17,0.896117,222.704,233.585)">
                    <path d="M8.502,14.715C7.45,14.012 6.587,12.918 6.37,12.666C5.563,11.73 4.734,12.028 4.546,12.935C4.159,13.074 3.976,13.534 3.964,13.759C4.77,13.377 5.56,13.895 5.779,15.29C6.005,16.726 5.409,17.664 5.123,18.282C5.075,18.385 4.555,19.508 5.134,19.698C5.151,19.853 5.238,20.637 5.283,21.635C6.622,21.444 9.278,20.937 10.873,20.759C10.966,20.474 11.438,19.024 11.843,17.138L12.321,17.101C12.094,17.116 8.801,14.915 8.502,14.715Z" style="fill:rgb(255,210,0);fill-rule:nonzero;"/>
                </g>
                <g transform="matrix(0.896117,3.24196e-17,-3.24196e-17,0.896117,222.704,233.585)">
                    <path d="M7.028,16.088L6.725,16.382C6.879,16.688 7.469,17.647 8.159,17.683C8.487,17.7 10.694,17.646 11.723,17.672L11.841,17.138C11.559,17.128 11.562,17.152 8.311,17.169C7.634,17.173 7.094,16.205 7.028,16.088ZM6.315,19.55C6.457,19.514 7.549,19.24 8.107,19.238C8.323,19.236 10.505,19.043 11.393,19.006L11.522,18.508C10.11,18.407 8.354,18.47 7.97,18.514C7.23,18.601 6.453,19.143 6.315,19.55ZM6.846,20.397L6.876,21.382C7.195,21.328 9.891,20.869 10.872,20.759L11.12,19.966C9.378,19.79 7.18,20.317 6.846,20.397Z" style="fill:rgb(255,172,51);fill-rule:nonzero;"/>
                </g>
                <g transform="matrix(0.896117,3.24196e-17,-3.24196e-17,0.896117,222.704,233.585)">
                    <path d="M10.905,20.805C9.323,20.978 6.587,21.499 5.236,21.69L5.234,21.651C5.191,20.665 5.106,19.889 5.089,19.736C4.969,19.681 4.888,19.557 4.852,19.434C4.729,19.026 5.04,18.352 5.08,18.266L5.314,17.759C5.53,17.286 5.928,16.547 5.733,15.299C5.712,15.165 5.552,14.151 4.934,13.799C4.868,13.762 4.511,13.56 3.987,13.808L3.91,13.844L3.915,13.749C3.919,13.666 3.95,13.112 4.504,12.896C4.662,12.183 5.106,12.076 5.19,12.056C5.79,11.915 6.335,12.551 6.406,12.632C6.639,12.903 7.493,13.979 8.528,14.67C8.828,14.87 8.855,14.819 12.348,17.058L12.474,17.142L11.881,17.185C11.473,19.07 10.998,20.519 10.905,20.805ZM5.328,21.581C6.647,21.392 9.266,20.893 10.839,20.715C10.932,20.43 11.402,18.98 11.804,17.093L12.168,17.063C11.064,16.334 8.756,14.948 8.476,14.76C7.414,14.049 6.547,12.945 6.335,12.699C6.27,12.624 5.752,12.022 5.215,12.155C4.734,12.27 4.61,12.869 4.594,12.948L4.588,12.973L4.564,12.981C4.498,13.005 4.133,13.137 4.025,13.674C4.56,13.471 4.908,13.667 4.974,13.705C5.265,13.87 5.676,14.322 5.825,15.278C6.026,16.555 5.619,17.309 5.398,17.793L5.164,18.298C5.127,18.379 4.833,19.013 4.942,19.386C4.971,19.484 5.048,19.616 5.157,19.651L5.178,19.658L5.181,19.682C5.198,19.834 5.283,20.604 5.328,21.581Z" style="fill:rgb(241,90,41);fill-rule:nonzero;"/>
                </g>
                <g transform="matrix(0.896117,3.24196e-17,-3.24196e-17,0.896117,222.704,233.585)">
                    <path d="M36.051,8.021C35.41,6.297 33.845,5.148 32,5.435C24.446,6.606 24.298,6.804 18.359,4.935C11.85,2.887 11.375,3.817 4,4.757C2.808,4.909 1.991,5.492 1.84,5.6L1.84,5.601C3.126,6.495 4.807,7.481 5.071,7.636C12.68,6.505 12.828,6.165 20.164,8.484C26.587,10.515 30.002,8.254 36.051,8.021ZM36.246,28.156C35.661,29.801 33.937,31.471 32.068,31.737C22.767,33.063 21.617,31.929 16.923,30.475C12.025,28.957 9.41,30.043 4.002,30.751C3.186,30.858 2.424,30.671 1.853,30.327L1.852,30.326C2.117,30.115 3.343,29.136 5.111,27.617C12.704,26.469 12.853,26.145 20.175,28.477C25.496,30.172 28.783,29.021 36.246,28.156Z" style="fill:rgb(49,146,9);fill-rule:nonzero;"/>
                </g>
                <g transform="matrix(0.896117,3.24196e-17,-3.24196e-17,0.896117,222.704,233.585)">
                    <path d="M5.071,7.636C12.012,11.708 13.593,12.188 18.892,17.832C12.767,20.513 11.628,22.018 5.111,27.617C12.704,26.469 12.853,26.145 20.175,28.477C25.496,30.172 28.783,29.021 36.246,28.156C36.421,27.663 36.461,27.251 36.469,27.17C37.446,17.169 37.37,17.149 36.301,9.019C36.29,8.937 36.235,8.519 36.051,8.021C35.995,7.513 27.097,9.941 22.691,9.131C20.057,8.647 16.213,6.96 13.663,6.773C10.904,6.571 7.59,7.261 5.071,7.636Z" style="fill:rgb(255,210,0);fill-rule:nonzero;"/>
                </g>
                <g transform="matrix(0.896117,3.24196e-17,-3.24196e-17,0.896117,222.704,233.585)">
                    <path d="M10.629,10.89C12.98,12.344 14.309,13.297 16.166,15.062C19.353,15.794 22.478,17.399 25.909,17.343C29.213,17.29 33.7,16.124 37.072,16.01C36.97,13.926 36.76,12.338 36.718,12.02C32.136,12.163 27.242,13.928 22.924,13.092C18.438,12.223 16.427,10.277 10.629,10.89ZM10.641,22.842C16.744,22.172 18.99,24.536 23.671,25.219C27.342,25.755 32.697,24.337 36.76,24.151C36.811,23.621 37.043,21.547 37.102,20.014C33.56,20.136 28.482,21.478 25.222,21.352C22.36,21.242 18.917,19.703 16.205,19.081C14.068,20.169 12.419,21.376 10.641,22.842Z" style="fill:rgb(222,32,15);fill-rule:nonzero;"/>
                </g>
                <g transform="matrix(0.896117,3.24196e-17,-3.24196e-17,0.896117,222.704,233.585)">
                    <path d="M16.166,15.062C11.563,10.687 6.566,8.883 1.84,5.601C1.576,5.79 1.387,5.971 1.35,6.006L1.35,6.007C7.454,10.335 11.428,10.774 17.873,17.515C11.226,20.567 8.56,24.457 1.37,29.967C1.405,30 1.587,30.165 1.853,30.326C7.933,25.474 11.305,21.577 16.205,19.081C19.388,19.811 22.507,21.413 25.934,21.355C29.239,21.3 33.728,20.13 37.102,20.014C37.114,19.694 37.175,18.104 37.072,16.01C33.531,16.129 28.459,17.467 25.197,17.34C22.33,17.228 18.883,15.686 16.166,15.062Z" style="fill:rgb(20,20,20);fill-rule:nonzero;"/>
                </g>
            </g>
        </g>
    </g>
</svg>
